<svg width="540" height="464" viewBox="0 0 540 464" fill="none" xmlns="http://www.w3.org/2000/svg">
<path d="M78.1135 322.42C78.1135 322.42 67.4507 322.863 69.0163 306C70.9711 284.949 102.107 291.457 102.107 291.457L89.6346 321.265L78.1135 322.42Z" fill="#002336"/>
<path d="M76.0105 306.588L113.937 317.036C113.937 317.036 110.966 296.135 110.848 296.155L67.4492 272.834L76.009 306.588H76.0105Z" fill="#FABCC6"/>
<path d="M18.7432 238.229C18.7432 238.229 39.7826 224.043 46.5198 235.557C58.555 256.125 69.0362 271.729 75.679 274.426C81.1701 281.895 89.9246 305.807 81.0728 307.676L65.4519 309.089C59.8228 313.24 13.1141 242.381 18.7432 238.23V238.229Z" fill="#00C7C7"/>
<path d="M63 265L64.7031 264.266C64.8141 264.218 67.4534 263.072 70.2677 261.311C74.1763 258.863 76.4065 256.49 76.8964 254.257C77.198 252.884 76.8381 251.55 75.8562 250.398C74.6494 248.983 73.4158 248.891 72.5928 249.065C70.5565 249.493 68.4817 251.968 66.2508 256.631C64.677 259.921 63.6431 263.047 63.5995 263.178L63 265ZM73.8418 250.9C74.0744 251.022 74.3331 251.226 74.6149 251.556C75.2482 252.299 75.4584 253.033 75.2756 253.867C74.6226 256.844 69.2759 260.097 65.8544 261.817C67.5989 257.186 70.5474 251.269 72.921 250.77C73.1522 250.722 73.4629 250.702 73.8418 250.9Z" fill="#002D46"/>
<path d="M63.9679 265L64.9687 263.462C65.0338 263.362 66.5823 260.974 67.9525 257.997C69.8554 253.861 70.436 250.72 69.6772 248.662C69.2104 247.397 68.2281 246.531 66.8352 246.159C65.1236 245.701 64.0762 246.317 63.4983 246.915C62.0684 248.393 61.6674 251.529 62.272 256.5C62.6984 260.006 63.4777 263.08 63.5106 263.209L63.9679 265ZM67.0799 248.022C67.6036 248.292 67.9532 248.694 68.1602 249.256C69.172 251.999 66.5199 257.582 64.6348 260.864C63.6519 256.191 62.9801 249.818 64.6472 248.094C64.909 247.824 65.3786 247.496 66.428 247.777C66.67 247.842 66.8873 247.923 67.0799 248.022Z" fill="#002D46"/>
<path d="M29.7903 232.081C27.9808 232.254 20.1703 233.065 20.9444 234.3C34.487 255.94 41.4871 315.654 56.2076 315.522C57.108 315.513 65.6228 309.885 66.4027 309.516C73.153 306.323 65.6591 293.942 57.6773 277.739C44.5035 250.999 41.2533 230.989 29.7918 232.083L29.7903 232.081Z" fill="#001A28"/>
<path d="M21.3043 233.661C7.79363 239.341 23.2417 274.661 32.9125 286.844C37.8402 293.051 40.7186 299.69 38.546 300.824C44.1707 312.692 47.9322 317.814 54.3746 316.104C65.6632 313.105 65.3016 303.472 59.9572 293.403C61.0711 289.421 58.7518 284.165 55.7354 280.168C44.968 265.904 42.6342 224.693 21.3058 233.661H21.3043Z" fill="#00273C"/>
<path d="M61.0261 262.065C60.9898 262.065 60.9549 262.062 60.9186 262.058C60.4713 261.998 60.1547 261.587 60.2142 261.14L60.602 258.201C60.6615 257.753 61.0725 257.438 61.5198 257.496C61.9671 257.556 62.2837 257.967 62.2242 258.414L61.8364 261.353C61.7827 261.764 61.4313 262.065 61.0261 262.065Z" fill="#002D46"/>
<path d="M63.6594 266.732C63.5955 266.732 63.5287 266.724 63.4633 266.708C63.0247 266.601 62.756 266.158 62.8635 265.718L63.7901 261.948C63.8975 261.509 64.3405 261.24 64.7805 261.348C65.2191 261.455 65.4878 261.898 65.3803 262.338L64.4538 266.109C64.3623 266.482 64.0283 266.732 63.6594 266.732Z" fill="#002D46"/>
<path d="M386.807 390.112C386.807 390.112 359.335 399.439 337.438 398.228C317.74 397.139 295.806 394.039 288.401 377.097C280.926 359.992 281.581 338.536 281.581 338.536C281.581 338.536 302.153 374.358 338.022 377.932C373.32 381.45 384.223 368.417 384.223 368.417L385.234 383.371L386.807 390.111V390.112Z" fill="#00C7C7"/>
<path d="M413.441 311.096C413.613 308.006 414.26 294.495 413.359 280.628C412.984 274.864 412.978 268.458 412.974 262.807C412.971 258.723 412.966 254.866 412.821 251.935C412.67 248.915 413.395 247.811 413.713 247.477C413.915 247.263 414.14 247.152 414.364 247.152C414.886 247.152 415.498 247.798 415.599 248.996C415.614 249.173 415.764 249.308 415.939 249.308C415.947 249.308 415.952 249.308 415.96 249.308C416.144 249.297 416.286 249.143 416.281 248.957C416.231 247.503 416.188 246.128 416.156 245.085C416.112 243.637 416.43 242.417 417.005 241.823C417.201 241.621 417.41 241.514 417.611 241.514C418.164 241.514 418.813 242.395 418.928 244.33C419.191 248.745 419.195 255.791 419.195 255.862C419.195 256.05 419.346 256.202 419.534 256.204H419.537C419.723 256.204 419.875 256.054 419.878 255.868C419.879 255.748 420.059 243.705 420.317 239.377C420.437 237.334 421.258 236.265 422.006 236.265C422.661 236.265 423.398 237.177 423.471 239.181C423.618 243.195 422.833 254.836 422.826 254.953C422.813 255.141 422.954 255.302 423.14 255.316C423.149 255.316 423.157 255.316 423.166 255.316C423.342 255.316 423.49 255.181 423.506 255.004C423.516 254.894 424.454 243.864 424.618 240.943C424.756 238.49 425.514 237.575 425.959 237.575C426.094 237.575 426.235 237.648 426.376 237.79C426.593 238.011 427.299 238.942 427.261 241.655C427.227 244.128 426.787 249.363 426.36 254.426C425.549 264.069 425.524 265.115 425.771 265.4C425.893 265.539 426.027 265.568 426.117 265.568C426.756 265.568 426.938 264.759 427.25 256.796C427.315 255.146 427.376 253.59 427.452 252.495C427.561 250.939 428.288 250.229 428.917 250.229C429.945 250.229 430.997 251.882 431.016 255.042C431.045 259.734 430.876 266.935 429.08 275.253C426.951 285.117 426.181 301.374 426.097 303.274L413.441 311.092V311.096Z" fill="#FABCC6"/>
<path d="M431.136 285.448C425.729 275.413 416.318 275.532 410.237 280.636C409.999 321.265 400.59 369.661 366.258 377.671C350.611 381.32 361.983 391.848 374.976 391.308C399.97 390.268 437.918 347.245 431.135 285.448H431.136Z" fill="#00C7C7"/>
<path d="M430.584 288.045C430.916 286.636 430.044 285.224 428.635 284.892C427.225 284.559 425.814 285.432 425.481 286.841C425.148 288.25 426.021 289.662 427.43 289.994C428.839 290.327 430.251 289.454 430.584 288.045Z" fill="#50FF81"/>
<path d="M102.891 252.529C102.891 252.529 85.7611 243.421 95.9853 215.952C106.209 188.483 124.231 182.546 124.231 182.546L156.9 206.22L140.916 252.875L102.891 252.529Z" fill="#002336"/>
<path d="M90.4492 148.972L93.9681 147.521C94.1976 147.427 99.651 145.164 105.466 141.684C113.542 136.85 118.15 132.162 119.163 127.751C119.786 125.038 119.042 122.402 117.013 120.127C114.52 117.331 111.971 117.151 110.27 117.494C106.063 118.339 101.776 123.229 97.1661 132.441C93.9144 138.938 91.7781 145.113 91.688 145.373L90.4492 148.972ZM112.851 121.119C113.332 121.36 113.866 121.762 114.448 122.414C115.757 123.882 116.191 125.333 115.814 126.98C114.464 132.86 103.417 139.287 96.347 142.684C99.9516 133.536 106.044 121.848 110.948 120.863C111.426 120.767 112.068 120.728 112.851 121.119Z" fill="#002D46"/>
<path d="M92.7513 149.278L94.8716 146.117C95.0096 145.911 98.2903 141 101.193 134.879C105.225 126.374 106.455 119.916 104.847 115.685C103.858 113.084 101.777 111.304 98.8262 110.538C95.1998 109.597 92.9807 110.864 91.7565 112.092C88.727 115.132 87.8774 121.579 89.1583 131.8C90.0616 139.009 91.7129 145.331 91.7826 145.597L92.7513 149.278ZM99.3447 114.37C100.454 114.924 101.195 115.751 101.634 116.905C103.777 122.546 98.1582 134.025 94.1644 140.774C92.0818 131.165 90.6585 118.061 94.1905 114.518C94.7453 113.961 95.7401 113.288 97.9636 113.864C98.4762 113.998 98.9366 114.165 99.3447 114.37Z" fill="#002D46"/>
<path d="M96.3472 220.188L165.401 252.06C165.401 252.06 166.316 211.255 166.085 211.258L90.6484 153.108L96.3472 220.188Z" fill="#FABCC6"/>
<path d="M8.27688 79.4637C8.27688 79.4637 38.9842 45.8765 53.529 74.1323C72.3522 110.7 94.0001 151.495 105.82 158.73C113.942 174.707 123.11 223.072 105.639 223.851L78.3385 225.283C66.2946 231.428 -3.767 85.6084 8.27688 79.4637Z" fill="#00C7C7"/>
<path d="M31.6284 63.5101C28.124 63.269 12.9693 62.3556 14.0556 64.9566C33.0719 110.498 27.62 226.603 55.7408 230.986C57.4603 231.253 76.7396 225.742 78.3444 225.283C92.2269 221.318 83.5015 192.801 73.3775 159.379C56.6688 104.225 53.8369 65.035 31.6298 63.5101H31.6284Z" fill="#001A28"/>
<path d="M13.9412 64.7012C-13.619 71.2815 5.7343 142.666 20.3444 168.951C27.7889 182.343 31.1901 195.912 26.688 197.39C33.6794 221.799 39.2417 232.755 52.0669 231.519C74.5426 229.355 76.8881 210.865 69.8633 189.976C73.2428 182.731 70.4733 171.976 65.977 163.404C49.932 132.805 57.4476 54.3129 13.9412 64.7012Z" fill="#00273C"/>
<path d="M92.0245 150.53C91.8938 150.53 91.7602 150.511 91.6281 150.471C90.9077 150.252 90.5011 149.491 90.7189 148.77L92.3833 143.286C92.6025 142.566 93.3636 142.158 94.0839 142.377C94.8042 142.596 95.2109 143.357 94.993 144.078L93.3287 149.562C93.1501 150.15 92.6098 150.53 92.0245 150.53Z" fill="#002D46"/>
<path d="M85.5746 140.072C85.396 140.072 85.213 140.038 85.0387 139.962C84.3459 139.666 84.025 138.864 84.3213 138.171L86.019 134.205C86.3153 133.512 87.1169 133.191 87.8097 133.488C88.5024 133.784 88.8234 134.586 88.5271 135.278L86.8294 139.245C86.6086 139.762 86.1047 140.072 85.5746 140.072Z" fill="#002D46"/>
<path d="M79.965 131.463C79.798 131.463 79.6266 131.433 79.4625 131.366C78.7625 131.088 78.4198 130.296 78.6986 129.596L80.3048 125.551C80.5822 124.851 81.3752 124.508 82.0752 124.787C82.7752 125.064 83.1179 125.857 82.8391 126.557L81.2328 130.602C81.0208 131.136 80.5082 131.463 79.965 131.463Z" fill="#002D46"/>
<path d="M78.1055 322.42C78.1055 322.42 133.258 324.992 184.784 352.225C233.362 377.9 237.56 397.669 249.652 416.125C257.55 428.179 280.059 428.296 280.059 428.296C294.184 412.456 304.802 413.676 294.476 392.766C294.476 392.766 290.43 380.045 202.341 316.85C166.277 290.977 79.7117 276.151 79.7117 276.151C99.3831 284.783 89.6265 321.262 78.1055 322.417V322.42Z" fill="#002D46"/>
<path d="M102.883 252.529C102.883 252.529 166.74 262.332 199.704 304.545C230.258 343.671 240.074 388.211 243.729 405.158C251.473 441.06 288.816 425.932 288.816 425.932C300.613 411.726 306.631 395.688 297.045 374.162C297.045 374.162 275.835 303.701 229.905 252.059C192.86 210.407 134.094 186.492 134.094 186.492C161.126 225.939 132.041 259.082 102.883 252.529Z" fill="#003451"/>
<path d="M294.15 424.956C324.407 431.738 376.634 413.339 388.116 407.542C387.851 401.025 389.464 402.682 387.158 392.873C385.601 386.251 380.988 389.8 379.144 386.565C334.172 407.639 301.583 377.931 301.583 377.931C308.12 391.555 300.796 410.684 294.148 424.955L294.15 424.956Z" fill="#00B2B2"/>
<path d="M304.323 377.237C299.642 376.535 298.02 376.447 298.02 376.447C305.614 398.296 297.094 413.407 288.477 426.581C290.575 427.381 292.764 428.108 295.019 428.765C302.221 415.208 311.617 400.626 304.323 377.235V377.237Z" fill="#00B2B2"/>
<path d="M406.063 370.284C406.709 370.013 407.418 369.891 408.15 369.955C410.757 370.183 412.668 372.688 412.418 375.55C412.285 377.081 411.56 378.404 410.514 379.27C411.393 380.302 411.878 381.731 411.745 383.262C411.515 385.889 409.544 387.904 407.206 388.04C407.206 388.056 407.205 388.072 407.203 388.088C406.953 390.951 404.637 393.087 402.029 392.859C400.716 392.744 399.58 392.051 398.807 391.028C397.869 391.902 396.63 392.387 395.318 392.272C392.711 392.044 390.799 389.539 391.049 386.676C391.299 383.814 393.616 381.678 396.224 381.906C397.537 382.02 398.672 382.713 399.445 383.737C400.231 383.005 401.226 382.548 402.3 382.484C402.3 382.468 402.302 382.452 402.303 382.436C402.437 380.905 403.161 379.582 404.207 378.716C403.739 378.167 403.384 377.505 403.173 376.776C402.527 377.048 401.818 377.17 401.088 377.106C398.481 376.878 396.569 374.373 396.819 371.51C397.069 368.648 399.385 366.511 401.994 366.739C403.949 366.911 405.513 368.362 406.068 370.283L406.063 370.284Z" fill="#002D46"/>
<path d="M388.116 395.238L396.902 386.63L388.823 382.34L385.605 385.777C385.605 385.777 377.867 387.446 379.328 391.436C380.789 395.425 385.348 396.957 388.116 395.238Z" fill="#FABCC6"/>
<path d="M402.953 378.606C403.731 381.101 402.514 383.855 400.054 385.704C400.262 386.668 399.396 387.762 398.046 388.196C396.89 388.568 395.739 388.341 395.185 387.701C391.43 388.235 387.984 386.649 387.043 383.726C385.955 380.343 388.633 377.861 393.026 376.448C397.42 375.035 401.151 372.844 402.951 378.608L402.953 378.606Z" fill="#FABCC6"/>
<path d="M407.616 379.37C407.038 380.906 405.663 381.907 404.138 382.086C404.234 382.648 404.19 383.24 403.975 383.812C403.331 385.528 401.417 386.395 399.701 385.75C397.986 385.105 397.119 383.191 397.764 381.476C398.12 380.529 398.863 379.843 399.745 379.525C399.337 378.559 399.282 377.444 399.68 376.385C400.504 374.194 402.949 373.086 405.14 373.911C407.332 374.736 408.44 377.18 407.615 379.371L407.616 379.37Z" fill="#002D46"/>
<path d="M388.532 397.67C388.532 397.67 373.627 416.084 334.362 415.429C314.638 415.099 290.839 400.716 277.012 400.986C259.215 401.333 250.348 423.167 250.348 423.167C250.348 423.167 270.354 457.874 320.845 462.945C376.465 468.531 412.441 449.022 412.441 449.022L407.887 404.819C398.666 407.476 390.607 408.018 388.531 397.67H388.532Z" fill="#00C7C7"/>
<path d="M324.186 423.03C325.577 422.33 326.139 420.635 325.439 419.243C324.74 417.851 323.045 417.29 321.653 417.989C320.261 418.689 319.7 420.384 320.399 421.776C321.099 423.168 322.794 423.729 324.186 423.03Z" fill="#50FF81"/>
<path d="M300.807 415.704C301.955 414.769 302.129 413.081 301.195 411.932C300.261 410.784 298.572 410.61 297.424 411.544C296.275 412.478 296.101 414.167 297.035 415.315C297.969 416.464 299.658 416.638 300.807 415.704Z" fill="#50FF81"/>
<path d="M381.928 398.179C378.622 398.179 375.641 397.44 372.832 395.92L380.459 391.171C381.743 393.324 384.808 393.788 387.213 393.788C388.331 393.788 389.305 393.69 389.901 393.613L388.286 397.378C385.983 397.917 383.901 398.18 381.928 398.18V398.179Z" fill="#FABCC6"/>
<path d="M374.009 388.534C375.104 387.581 378.177 385.25 382.335 384.948C382.585 384.931 382.825 384.921 383.047 384.921C384.527 384.921 385.093 385.327 385.234 385.631C384.978 385.815 384.73 385.991 384.492 386.162C382.311 387.719 380.818 388.787 380.35 390.269L374.008 388.534H374.009Z" fill="#FABCC6"/>
<path d="M374.647 389.063C374.647 389.063 338.735 380.371 342.753 339.917C344.293 324.421 357.748 301.614 357.748 301.614L339.336 278.595L315.144 294.389C315.144 294.389 294.084 337.004 315.307 366.488C339.344 399.884 375.494 394.022 375.494 394.022L374.647 389.064V389.063Z" fill="#50FF81"/>
<path d="M481.723 343.15C482.587 340.72 492.272 313.285 495.35 295.627C497.656 282.395 503.125 269.533 506.393 261.85C506.881 260.703 507.302 259.711 507.662 258.841C509.109 255.336 510.78 253.243 512.132 253.243C512.564 253.243 512.943 253.463 513.258 253.898C513.998 254.919 514.348 257.167 513.461 259.887C512.864 261.717 511.938 264.287 510.957 267.009C507.337 277.053 506.144 280.752 506.667 281.496C506.759 281.626 506.903 281.702 507.061 281.702C507.151 281.702 507.245 281.677 507.341 281.629C507.558 281.52 507.803 281.396 509.613 275.856C510.686 272.573 512.042 268.207 513.479 263.586C516.119 255.086 518.851 246.296 520.423 242.25C522.03 238.119 523.97 236.27 525.18 236.27C525.525 236.27 525.813 236.427 526.034 236.736C526.613 237.546 526.821 239.62 525.663 243.007C524.011 247.849 518.278 266.364 518.22 266.552C518.165 266.73 518.264 266.92 518.443 266.977C518.477 266.989 518.512 266.993 518.546 266.993C518.689 266.993 518.823 266.902 518.869 266.758C518.933 266.563 525.323 247.143 528.208 240.712C529.336 238.197 530.836 236.695 532.22 236.695C532.784 236.695 533.273 236.964 533.639 237.474C534.492 238.663 534.505 240.839 533.676 243.295C531.242 250.494 523.61 270.159 523.533 270.357C523.466 270.531 523.55 270.727 523.723 270.797C523.765 270.814 523.807 270.821 523.851 270.821C523.984 270.821 524.111 270.743 524.166 270.612C524.226 270.471 530.1 256.39 533.435 249.39C534.797 246.527 535.895 246.218 536.303 246.218C536.664 246.218 536.985 246.43 537.26 246.85C538.189 248.276 538.284 251.642 536.664 255.315C533.936 261.503 527.846 275.114 527.785 275.251C527.715 275.408 527.772 275.592 527.92 275.682C527.975 275.716 528.036 275.732 528.096 275.732C528.198 275.732 528.296 275.687 528.363 275.602C528.394 275.565 531.416 271.693 536.113 262.45C537.026 260.652 538.11 259.848 538.778 259.848C539.029 259.848 539.223 259.961 539.373 260.196C539.964 261.123 539.799 263.824 537.566 268.63C535.404 273.284 532.862 279.538 530.171 286.16C526.443 295.333 522.218 305.729 517.815 314.845C506.874 337.496 498.868 360.615 497.49 364.674L481.723 343.154V343.15Z" fill="#FABCC6"/>
<path d="M523.916 326.247C519.193 305.946 494.282 307.968 484.441 311.565C471.949 360.267 446.366 394.643 395.44 408.798C375.008 414.478 378.675 460.625 395.005 455.334C478.817 428.182 517.128 372.395 523.916 326.247Z" fill="#00C7C7"/>
<path d="M514.99 329.9C517.374 329.9 519.307 327.967 519.307 325.583C519.307 323.198 517.374 321.265 514.99 321.265C512.605 321.265 510.672 323.198 510.672 325.583C510.672 327.967 512.605 329.9 514.99 329.9Z" fill="#50FF81"/>
<path d="M417 41.5811C417 41.5811 409.655 54.977 408.001 65.6993C406.347 76.4216 408.515 83.8893 408.515 83.8893L383.555 87.5259C383.555 87.5259 385.026 64.8526 388.812 56.2071C392.597 47.5616 395.439 43.6593 395.439 43.6593L417.001 41.5825L417 41.5811Z" fill="#004A74"/>
<path d="M395.042 49.8445C399.516 47.8141 404.767 46.7772 410.22 46.8513L410.227 46.298C404.691 46.2253 399.361 47.2782 394.812 49.3405L395.042 49.8445Z" fill="#005A8C"/>
<path d="M393.358 53.041C397.833 51.0107 403.083 49.9752 408.536 50.0478L408.544 49.4945C403.007 49.4219 397.677 50.4748 393.129 52.537L393.358 53.041Z" fill="#005A8C"/>
<path d="M391.573 56.7909C396.048 54.7606 401.299 53.7236 406.751 53.7977L406.758 53.2444C401.225 53.1732 395.892 54.2232 391.344 56.2869L391.573 56.7909Z" fill="#005A8C"/>
<path d="M389.944 60.2862C394.419 58.2559 399.669 57.2204 405.122 57.293L405.13 56.7397C399.593 56.6686 394.263 57.7186 389.715 59.7823L389.944 60.2862Z" fill="#005A8C"/>
<path d="M389.229 63.7591C393.704 61.7288 398.954 60.6919 404.407 60.7659L404.415 60.2126C398.878 60.1415 393.549 61.1929 389 63.2552L389.229 63.7591Z" fill="#005A8C"/>
<path d="M388.46 67.8875C392.934 65.8572 398.186 64.8203 403.638 64.8944L403.645 64.341C398.11 64.2699 392.779 65.3213 388.23 67.3836L388.46 67.8875Z" fill="#005A8C"/>
<path d="M388.218 71.658C392.692 69.6277 397.942 68.5908 403.396 68.6649L403.403 68.1115C397.867 68.0404 392.537 69.0918 387.988 71.1541L388.218 71.658Z" fill="#005A8C"/>
<path d="M387.065 75.7303C391.54 73.7 396.79 72.6645 402.243 72.7371L402.251 72.1838C396.714 72.1126 391.385 73.1641 386.836 75.2264L387.065 75.7303Z" fill="#005A8C"/>
<path d="M449.005 38.5644C449.025 38.5267 449.706 42.2271 451.71 46.083C453.652 49.9911 456.92 54.0546 460.661 55.9557C464.383 57.8959 467.994 58.5567 470.613 58.8675C473.244 59.1565 474.886 59.0984 474.893 59.0883C472.355 66.5197 471.486 73.9046 472.192 80.7347C472.231 80.7333 452.805 82.996 446.073 78.6318C439.376 74.3751 437.256 69.8411 437.238 69.9093C439.215 59.37 443.162 48.7349 449.005 38.563V38.5644Z" fill="#004A74"/>
<path d="M441.776 70.6963L442.238 70.6775C441.964 64.1029 443.856 56.5205 447.565 49.3273L447.154 49.1152C443.409 56.3782 441.499 64.0434 441.776 70.6963Z" fill="#005A8C"/>
<path d="M443.943 72.9824L444.405 72.9446C443.893 66.6373 445.49 59.293 448.898 52.2668L448.481 52.0649C445.036 59.1652 443.424 66.5937 443.943 72.9824Z" fill="#005A8C"/>
<path d="M446.643 75.2288L447.102 75.1707C446.35 69.1741 447.638 62.1189 450.73 55.3018L450.309 55.1101C447.182 62.0027 445.879 69.148 446.643 75.2273V75.2288Z" fill="#005A8C"/>
<path d="M449.26 77.1096L449.716 77.0326C448.758 71.328 449.778 64.5458 452.59 57.935L452.165 57.7534C449.318 64.4456 448.286 71.3193 449.26 77.1082V77.1096Z" fill="#005A8C"/>
<path d="M452.076 77.7458L452.531 77.6572C451.487 72.2939 452.38 65.6118 454.982 59.322L454.555 59.1448C451.88 65.6089 451 72.214 452.076 77.7443V77.7458Z" fill="#005A8C"/>
<path d="M455.457 78.3266L455.909 78.2249C454.761 73.1651 455.489 66.8142 457.904 60.8003L457.474 60.6274C455.024 66.7271 454.289 73.1782 455.457 78.328V78.3266Z" fill="#005A8C"/>
<path d="M458.623 78.2848L459.072 78.1729C457.88 73.376 458.51 67.3243 460.805 61.5703L460.375 61.3989C458.045 67.2401 457.408 73.3949 458.623 78.2848Z" fill="#005A8C"/>
<path d="M461.95 79.1195L462.395 78.9888C461.079 74.5041 461.52 68.7864 463.604 63.2996L463.172 63.1355C461.053 68.7138 460.607 74.5404 461.95 79.1195Z" fill="#005A8C"/>
<path d="M106 59.9551C106 59.9551 143.304 46.6085 165.216 30.8148C187.128 15.0211 196.153 0 196.153 0L249.455 24.1778C249.455 24.1778 206.924 60.0321 184.645 69.8002C162.365 79.5698 150.18 82.608 150.18 82.608L106 59.9551Z" fill="#004A74"/>
<path d="M127.834 59.3367L127.133 60.3939C137.411 67.2139 149.269 71.9179 161.427 73.9961L161.641 72.7457C149.655 70.6965 137.965 66.0593 127.834 59.3367Z" fill="#005A8C"/>
<path d="M136.612 56.0703L135.91 57.1276C146.188 63.9476 158.046 68.6515 170.205 70.7298L170.418 69.4794C158.432 67.4302 146.743 62.793 136.612 56.0703Z" fill="#005A8C"/>
<path d="M146.541 52.0081L145.84 53.0653C156.118 59.8853 167.976 64.5893 180.134 66.6675L180.348 65.4171C168.362 63.3679 156.673 58.7307 146.541 52.0081Z" fill="#005A8C"/>
<path d="M155.729 48.1772L155.027 49.2345C165.305 56.0545 177.163 60.7585 189.322 62.8367L189.535 61.5863C177.55 59.5371 165.86 54.8999 155.729 48.1772Z" fill="#005A8C"/>
<path d="M163.166 43.2773L162.465 44.3346C172.743 51.1546 184.601 55.8586 196.759 57.9383L196.973 56.6878C184.987 54.6387 173.298 50.0015 163.166 43.2788V43.2773Z" fill="#005A8C"/>
<path d="M171.858 37.3574L171.156 38.4147C181.434 45.2347 193.292 49.9387 205.451 52.0169L205.664 50.7665C193.678 48.7173 181.989 44.0801 171.858 37.3574Z" fill="#005A8C"/>
<path d="M178.924 31.3945L178.223 32.4518C188.501 39.2718 200.359 43.9758 212.517 46.054L212.731 44.8036C200.746 42.7544 189.055 38.1172 178.924 31.3945Z" fill="#005A8C"/>
<path d="M188.229 26.0264L187.527 27.0836C197.805 33.9036 209.663 38.6076 221.822 40.6858L222.035 39.4354C210.05 37.3862 198.36 32.749 188.229 26.0264Z" fill="#005A8C"/>
<path d="M298.645 46.6026C298.752 46.5852 299.327 51.9281 302.29 58.7307C305.176 65.51 310.45 73.7474 318.159 78.9757C325.708 84.2838 334.359 86.7963 340.895 87.8347C347.466 88.8992 351.923 88.4897 351.892 88.5449C346.576 100.605 338.732 112.557 328.427 123.69C328.65 123.696 315.279 119.791 303.658 112.2C291.652 104.92 281.396 93.9518 278.967 87.0083C276.212 80.0518 275.401 74.7728 275.064 71.2684C274.76 67.7582 274.931 66.0212 274.927 66.0154C284.424 60.5504 292.401 53.9076 298.645 46.604V46.6026Z" fill="#004A74"/>
<path d="M280.363 74.3298C284.919 67.9716 291.316 62.4994 296.38 58.4431L295.927 57.8782C290.827 61.9635 284.382 67.4764 279.773 73.9072L280.362 74.3283L280.363 74.3298Z" fill="#005A8C"/>
<path d="M281.606 79.6192C285.138 74.5405 290.129 69.5577 297.789 63.4639L297.338 62.8975C289.621 69.0378 284.584 74.0671 281.012 79.2067L281.606 79.6206V79.6192Z" fill="#005A8C"/>
<path d="M283.728 85.6606C287.157 80.5224 292.34 75.2695 300.038 69.1306L299.587 68.5642C291.829 74.751 286.597 80.0548 283.125 85.2583L283.728 85.6606Z" fill="#005A8C"/>
<path d="M286.141 91.2187C289.506 85.9672 294.721 80.5951 302.552 74.311L302.099 73.7461C294.206 80.0796 288.941 85.5082 285.531 90.828L286.141 91.2187Z" fill="#005A8C"/>
<path d="M290.297 95.9182C293.514 90.5359 298.658 84.9911 306.489 78.4674L306.026 77.9111C298.131 84.4886 292.935 90.093 289.676 95.5464L290.297 95.9182Z" fill="#005A8C"/>
<path d="M295.885 101.229C298.907 95.699 303.954 89.9406 311.767 83.1076L311.291 82.563C303.412 89.4541 298.316 95.2764 295.25 100.884L295.885 101.231V101.229Z" fill="#005A8C"/>
<path d="M302.188 105.394C304.985 99.7275 309.881 93.7499 317.597 86.5828L317.105 86.0527C309.322 93.2823 304.375 99.3267 301.539 105.075L302.188 105.396V105.394Z" fill="#005A8C"/>
<path d="M308.141 110.482C310.764 104.699 315.59 98.5207 323.329 91.0385L322.825 90.5186C315.018 98.0661 310.141 104.315 307.48 110.184L308.14 110.483L308.141 110.482Z" fill="#005A8C"/>
<path d="M374.119 69.4115C374.078 69.4695 370.937 67.1531 365.906 65.2463C360.925 63.3147 354.055 61.7927 347.686 62.8645C341.345 63.823 336.002 66.6492 332.428 69.2023C328.823 71.7584 326.988 74.0385 326.973 73.9978C322.931 65.6791 320.112 56.229 318.872 46.0266C318.766 46.1282 327.037 41.7699 336.486 40.0141C345.944 37.9271 356.581 38.4427 361.439 40.6662C366.455 42.7444 369.672 44.9199 371.715 46.4579C373.746 48.0148 374.601 48.9355 374.607 48.9355C373.169 56.0169 373.066 62.9589 374.119 69.4115Z" fill="#004A74"/>
<path d="M369.289 62.6627C369.442 58.3014 369.446 52.62 368.109 47.354L367.625 47.4774C368.947 52.681 368.942 58.3174 368.791 62.6452L369.289 62.6627Z" fill="#005A8C"/>
<path d="M365.94 60.8937C366.194 54.3148 365.807 49.5266 364.689 45.3687L364.207 45.4979C365.312 49.605 365.693 54.3467 365.441 60.8734L365.94 60.8922V60.8937Z" fill="#005A8C"/>
<path d="M361.851 59.2006C362.1 52.5796 361.655 47.5677 360.456 43.4258L359.977 43.5652C361.162 47.6534 361.599 52.6159 361.353 59.1817L361.851 59.2006Z" fill="#005A8C"/>
<path d="M357.903 57.8656C358.134 51.1109 357.639 46.0221 356.347 41.8555L355.871 42.0036C357.146 46.1165 357.634 51.1516 357.405 57.8496L357.903 57.867V57.8656Z" fill="#005A8C"/>
<path d="M353.845 57.6869C353.945 50.8132 353.323 45.6735 351.89 41.5098L351.418 41.6724C352.833 45.7795 353.445 50.8655 353.345 57.6796L353.843 57.6869H353.845Z" fill="#005A8C"/>
<path d="M348.417 57.9001L348.915 57.8943C348.838 50.8768 348.055 45.6776 346.449 41.5312L345.984 41.7113C347.567 45.7995 348.34 50.9436 348.417 57.9001Z" fill="#005A8C"/>
<path d="M343.854 58.9443L344.352 58.9226C344.049 51.786 343.076 46.5505 341.29 42.4434L340.832 42.6423C342.594 46.6913 343.554 51.8717 343.854 58.9443Z" fill="#005A8C"/>
<path d="M338.807 59.4674L339.306 59.4354C338.844 52.1333 337.727 46.8309 335.795 42.7485L335.344 42.962C337.249 46.9863 338.35 52.2306 338.807 59.4674Z" fill="#005A8C"/>
<path d="M502.978 174.907C502.933 174.879 504.542 172.469 505.78 168.672C507.039 164.911 507.926 159.764 506.91 155.077C505.977 150.408 503.694 146.545 501.677 143.983C499.655 141.4 497.901 140.119 497.93 140.106C503.959 136.818 510.867 134.398 518.39 133.122C518.31 133.046 521.832 139.027 523.464 145.973C525.342 152.915 525.332 160.82 523.852 164.501C522.485 168.293 520.985 170.756 519.916 172.325C518.833 173.885 518.179 174.551 518.179 174.556C512.877 173.736 507.726 173.903 502.978 174.908V174.907Z" fill="#004A74"/>
<path d="M507.817 171.092C511.057 171.052 515.27 170.858 519.127 169.682L519.02 169.327C515.208 170.489 511.028 170.682 507.812 170.721L507.817 171.092Z" fill="#005A8C"/>
<path d="M509.008 168.543C513.897 168.501 517.433 168.048 520.477 167.073L520.364 166.72C517.356 167.683 513.853 168.132 509.004 168.173L509.007 168.543H509.008Z" fill="#005A8C"/>
<path d="M510.124 165.453C515.043 165.405 518.743 164.901 521.773 163.867L521.654 163.517C518.663 164.538 514.998 165.036 510.121 165.084L510.124 165.454V165.453Z" fill="#005A8C"/>
<path d="M510.973 162.478C515.991 162.413 519.746 161.868 522.792 160.765L522.666 160.416C519.659 161.505 515.943 162.043 510.969 162.106L510.973 162.477V162.478Z" fill="#005A8C"/>
<path d="M510.965 159.465C516.065 159.299 519.856 158.659 522.892 157.45L522.756 157.106C519.76 158.299 516.009 158.93 510.953 159.094L510.965 159.465Z" fill="#005A8C"/>
<path d="M510.617 155.445L510.639 155.815C515.84 155.513 519.669 154.751 522.687 153.415L522.538 153.076C519.562 154.393 515.774 155.146 510.619 155.445H510.617Z" fill="#005A8C"/>
<path d="M509.684 152.099L509.717 152.468C514.999 151.994 518.848 151.089 521.831 149.621L521.666 149.289C518.726 150.737 514.918 151.63 509.684 152.099Z" fill="#005A8C"/>
<path d="M509.123 148.376L509.163 148.744C514.561 148.145 518.455 147.133 521.415 145.557L521.24 145.231C518.323 146.783 514.471 147.784 509.121 148.376H509.123Z" fill="#005A8C"/>
<path d="M505.529 104.408C505.549 104.467 502.199 105.431 498.125 107.913C494.06 110.348 489.271 114.3 486.606 119.257C483.875 124.134 483.02 129.292 482.92 133.087C482.806 136.905 483.45 139.358 483.41 139.346C475.281 137.811 467.002 134.844 459.035 130.396C459.051 130.522 460.389 122.545 464.221 115.108C467.824 107.492 473.923 100.415 478.131 98.2159C482.321 95.8327 485.611 94.742 487.812 94.1321C490.02 93.5395 491.14 93.4277 491.143 93.4233C495.434 98.0983 500.346 101.778 505.529 104.407V104.408Z" fill="#004A74"/>
<path d="M497.815 104.568L498.097 104.232C495.058 101.859 490.996 98.9025 486.509 97.0872L486.336 97.4851C490.771 99.2787 494.801 102.212 497.816 104.566L497.815 104.568Z" fill="#005A8C"/>
<path d="M494.744 105.962L495.026 105.628C490.456 102.032 486.822 99.8088 483.245 98.4189L483.078 98.8183C486.612 100.191 490.209 102.394 494.744 105.961V105.962Z" fill="#005A8C"/>
<path d="M491.329 107.906L491.61 107.571C487.007 103.958 483.183 101.658 479.572 100.333L479.414 100.737C482.978 102.044 486.764 104.323 491.329 107.907V107.906Z" fill="#005A8C"/>
<path d="M488.25 109.939L488.531 109.603C483.822 105.932 479.916 103.628 476.237 102.352L476.086 102.757C479.715 104.015 483.581 106.296 488.249 109.937L488.25 109.939Z" fill="#005A8C"/>
<path d="M485.947 112.651L486.221 112.31C481.358 108.666 477.345 106.422 473.595 105.249L473.457 105.658C477.157 106.817 481.127 109.039 485.948 112.651H485.947Z" fill="#005A8C"/>
<path d="M483.444 116.17L483.709 115.823C478.646 112.227 474.504 110.065 470.673 109.018L470.551 109.433C474.328 110.466 478.425 112.606 483.443 116.17H483.444Z" fill="#005A8C"/>
<path d="M481.731 119.864L481.986 119.508C476.717 116.006 472.447 113.956 468.546 113.054L468.441 113.473C472.287 114.362 476.51 116.393 481.733 119.864H481.731Z" fill="#005A8C"/>
<path d="M479.386 123.619L479.631 123.259C474.158 119.782 469.763 117.795 465.801 117.007L465.711 117.429C469.616 118.206 473.961 120.174 479.386 123.619Z" fill="#005A8C"/>
<path d="M299.976 196.606C299.976 196.606 270.729 167.459 246.06 153.896C221.391 140.333 203.216 138.555 203.216 138.555L202.137 77.5645C202.137 77.5645 254.91 101.567 274.072 118.169C293.232 134.773 301.543 144.884 301.543 144.884L299.976 196.605V196.606Z" fill="#004A74"/>
<path d="M289.629 176.328L290.938 176.515C292.762 163.79 291.886 150.522 288.405 138.147L287.133 138.504C290.565 150.704 291.427 163.781 289.629 176.326V176.328Z" fill="#005A8C"/>
<path d="M282.625 169.527L283.934 169.714C285.758 156.989 284.882 143.721 281.401 131.346L280.129 131.705C283.561 143.904 284.423 156.982 282.625 169.527Z" fill="#005A8C"/>
<path d="M274.36 161.992L275.668 162.179C277.492 149.454 276.617 136.186 273.135 123.811L271.863 124.17C275.295 136.369 276.158 149.447 274.36 161.992Z" fill="#005A8C"/>
<path d="M266.645 155.055L267.953 155.242C269.778 142.517 268.902 129.249 265.421 116.874L264.148 117.231C267.58 129.43 268.443 142.508 266.645 155.053V155.055Z" fill="#005A8C"/>
<path d="M258.707 150.247L260.016 150.435C261.84 137.71 260.964 124.443 257.483 112.067L256.211 112.424C259.643 124.623 260.505 137.703 258.707 150.246V150.247Z" fill="#005A8C"/>
<path d="M249.246 144.714L250.555 144.902C252.379 132.177 251.503 118.908 248.022 106.533L246.75 106.892C250.182 119.091 251.044 132.169 249.246 144.714Z" fill="#005A8C"/>
<path d="M240.473 140.728L241.782 140.915C243.606 128.19 242.73 114.922 239.249 102.547L237.977 102.904C241.408 115.103 242.271 128.181 240.473 140.726V140.728Z" fill="#005A8C"/>
<path d="M231.258 134.368L232.567 134.555C234.391 121.83 233.515 108.564 230.034 96.1873L228.762 96.5445C232.193 108.744 233.056 121.823 231.258 134.367V134.368Z" fill="#005A8C"/>
<path d="M492.65 163.364C492.65 163.364 504.164 175.105 513.925 180.619C523.687 186.133 530.917 186.923 530.917 186.923L531.068 211.216C531.068 211.216 510.162 201.417 502.607 194.718C495.052 188.018 491.789 183.953 491.789 183.953L492.649 163.364H492.65Z" fill="#004A74"/>
<path d="M496.678 171.487L496.158 171.406C495.374 176.465 495.662 181.752 496.992 186.695L497.5 186.559C496.19 181.685 495.906 176.473 496.678 171.485V171.487Z" fill="#005A8C"/>
<path d="M499.436 174.227L498.916 174.147C498.132 179.207 498.419 184.494 499.75 189.437L500.258 189.301C498.948 184.427 498.663 179.215 499.436 174.227Z" fill="#005A8C"/>
<path d="M502.686 177.265L502.166 177.184C501.382 182.244 501.669 187.53 503 192.474L503.508 192.337C502.197 187.463 501.913 182.251 502.686 177.264V177.265Z" fill="#005A8C"/>
<path d="M505.729 180.063L505.209 179.981C504.425 185.041 504.712 190.328 506.043 195.271L506.551 195.135C505.241 190.261 504.956 185.048 505.729 180.061V180.063Z" fill="#005A8C"/>
<path d="M508.874 182.013L508.354 181.932C507.569 186.992 507.857 192.278 509.187 197.222L509.696 197.085C508.386 192.211 508.101 186.999 508.874 182.012V182.013Z" fill="#005A8C"/>
<path d="M512.612 184.26L512.092 184.178C511.308 189.237 511.595 194.525 512.926 199.468L513.434 199.332C512.122 194.458 511.839 189.246 512.612 184.258V184.26Z" fill="#005A8C"/>
<path d="M516.088 185.888L515.569 185.807C514.784 190.865 515.072 196.153 516.402 201.096L516.91 200.96C515.6 196.086 515.316 190.874 516.088 185.887V185.888Z" fill="#005A8C"/>
<path d="M519.729 188.463L519.209 188.381C518.425 193.441 518.712 198.728 520.043 203.671L520.551 203.535C519.24 198.661 518.956 193.448 519.729 188.461V188.463Z" fill="#005A8C"/>
<path d="M67.2565 270.727C67.2202 270.727 67.1854 270.724 67.1491 270.719C66.7018 270.66 66.3852 270.249 66.4447 269.802L66.8325 266.862C66.892 266.415 67.303 266.1 67.7503 266.158C68.1976 266.217 68.5142 266.628 68.4547 267.076L68.0669 270.015C68.0132 270.426 67.6617 270.727 67.2565 270.727Z" fill="#002D46"/>
<path d="M368.671 402.178C367.966 402.106 367.454 401.475 367.526 400.771C367.599 400.067 368.229 399.554 368.934 399.627C369.638 399.699 370.151 400.33 370.078 401.034C370.005 401.738 369.375 402.251 368.671 402.178Z" fill="#50FF81"/>
<path d="M344.921 406.807C344.216 406.734 343.704 406.104 343.776 405.4C343.849 404.695 344.479 404.183 345.184 404.255C345.888 404.328 346.401 404.958 346.328 405.662C346.255 406.367 345.625 406.879 344.921 406.807Z" fill="#50FF81"/>
<path d="M322.765 403.461C322.06 403.388 321.548 402.758 321.62 402.054C321.693 401.349 322.323 400.837 323.027 400.909C323.732 400.982 324.244 401.612 324.172 402.316C324.099 403.021 323.469 403.534 322.765 403.461Z" fill="#50FF81"/>
</svg>
