<svg width="20" height="20" viewBox="0 0 20 20" fill="none" xmlns="http://www.w3.org/2000/svg">
<path d="M8.16746 10.0001L0.379696 2.21215C-0.127117 1.70557 -0.127117 0.88651 0.379696 0.379933C0.886272 -0.126644 1.70534 -0.126644 2.21191 0.379933L9.99991 8.16793L17.7877 0.379933C18.2945 -0.126644 19.1133 -0.126644 19.6199 0.379933C20.1267 0.88651 20.1267 1.70557 19.6199 2.21215L11.8321 10.0001L19.6199 17.7881C20.1267 18.2947 20.1267 19.1138 19.6199 19.6204C19.3674 19.8731 19.0355 20 18.7038 20C18.3721 20 18.0404 19.8731 17.7877 19.6204L9.99991 11.8324L2.21191 19.6204C1.95922 19.8731 1.62751 20 1.2958 20C0.964098 20 0.632391 19.8731 0.379696 19.6204C-0.127117 19.1138 -0.127117 18.2947 0.379696 17.7881L8.16746 10.0001Z" fill="white"/>
</svg>
