<svg width="103" height="45" viewBox="0 0 103 45" fill="none" xmlns="http://www.w3.org/2000/svg">
<path d="M98.6387 14.2513C101.355 15.5048 102.68 17.8141 102.68 21.179C102.68 22.6965 102.348 24.016 101.686 25.2036C101.024 26.3912 100.03 27.3809 98.7712 28.1726C97.5125 28.9644 95.9889 29.5582 94.2665 30.02C92.4779 30.4819 90.5567 30.6798 88.3706 30.6798H82.0111L62.0049 0H86.1183C91.3517 0 95.3264 0.659781 97.8438 1.97934C100.427 3.2989 101.686 5.4102 101.686 8.37921C101.686 9.6328 101.421 10.7544 100.891 11.7441C100.361 12.6018 99.6324 13.4595 98.6387 14.2513ZM83.2697 11.3482H87.0457C89.0331 11.3482 90.358 11.1503 91.0205 10.8204C91.6829 10.4245 92.0141 9.76475 92.0141 8.84106C92.0141 8.04932 91.6167 7.5215 90.888 7.12563C90.1593 6.72976 88.6356 6.53183 86.3833 6.53183H83.2035V11.3482H83.2697ZM83.2697 17.8801V23.8181H87.5757C89.5631 23.8181 90.9542 23.5542 91.7492 23.0923C92.5441 22.6305 92.9416 21.8387 92.9416 20.7171C92.9416 18.8037 91.0205 17.8141 87.2445 17.8141H83.2697V17.8801Z" fill="white"/>
<path d="M56.5737 6.52344L42.6621 30.5394H57.6999H72.6714L56.5737 6.52344Z" fill="#1AE3E3"/>
<path d="M43.3916 0H51.2085L33.5872 30.5478L25.6377 17.1543L17.622 30.5478L13.9785 23.8841L27.6914 0H35.5083L29.5462 10.2926L33.3885 16.8904L43.3916 0Z" fill="white"/>
<path d="M0 0H19.5425L9.7381 16.8904L0 0Z" fill="white"/>
<path fill-rule="evenodd" clip-rule="evenodd" d="M33.7075 37.5431L34.0387 37.873C34.1049 37.906 34.1546 37.9555 34.2043 38.005L34.2043 38.005C34.254 38.0545 34.3037 38.1039 34.3699 38.1369C34.4775 38.0655 34.5851 37.9747 34.7031 37.8751L34.7032 37.8751L34.7032 37.8751L34.7033 37.8749C34.8033 37.7906 34.9109 37.6998 35.0323 37.6091C35.1317 37.5101 35.231 37.3947 35.3304 37.2792C35.4297 37.1638 35.5291 37.0483 35.6285 36.9493L35.6285 36.9493C35.4297 36.7514 35.231 36.5534 35.0323 36.2895C34.8336 36.0916 34.5686 35.8937 34.3699 35.7617C34.3425 35.789 34.3037 35.8164 34.2582 35.8484C34.1939 35.8937 34.1163 35.9483 34.0387 36.0256C33.9532 36.0682 33.8952 36.1384 33.8293 36.2182L33.8292 36.2182C33.7931 36.262 33.7544 36.3088 33.7075 36.3555L33.3763 36.6854C33.2438 36.8174 33.1776 36.8833 33.1114 37.0153C33.1445 37.0813 33.1942 37.1308 33.2438 37.1802C33.2935 37.2297 33.3432 37.2792 33.3763 37.3452C33.4426 37.3452 33.575 37.4112 33.7075 37.5431ZM28.6078 38.5267C29.0053 38.3947 29.469 38.3288 29.9989 38.3288V36.0195H32.1185V43.8709H29.9326V42.7493C29.7339 43.2111 29.469 43.541 29.204 43.739C28.939 43.9369 28.6078 44.0029 28.2766 44.0029C28.0117 44.0029 27.7467 43.9369 27.548 43.8049C27.3493 43.673 27.1506 43.4751 27.0181 43.2771C26.8856 43.0132 26.7531 42.7493 26.6869 42.4854C26.6206 42.2215 26.5544 41.8916 26.5544 41.5617C26.5544 40.9679 26.6206 40.4401 26.8194 40.0442C27.0181 39.6483 27.2168 39.3184 27.548 39.0545C27.813 38.7906 28.2104 38.6587 28.6078 38.5267ZM29.8002 41.7596C29.8664 41.5617 29.9326 41.3637 29.9989 41.0339C30.0651 40.77 30.1314 40.3741 30.1976 39.9122H29.9326H29.7339C29.469 39.9122 29.2702 39.9122 29.1378 39.9782C29.0053 39.9782 28.8728 40.0442 28.8066 40.1102C28.7403 40.1762 28.6741 40.3081 28.6741 40.3741C28.6078 40.4401 28.6078 40.572 28.6078 40.704C28.6078 40.7633 28.6212 40.8359 28.636 40.9159L28.636 40.9159L28.636 40.9159C28.654 41.0139 28.6741 41.1228 28.6741 41.2318C28.7045 41.3226 28.7209 41.4134 28.7362 41.4978C28.7542 41.5974 28.7707 41.6882 28.8066 41.7596C28.8728 41.9576 28.939 42.0895 29.0053 42.1555C29.0715 42.2215 29.204 42.2875 29.2702 42.2875C29.3365 42.2875 29.469 42.2215 29.5352 42.1555C29.6677 42.0895 29.7339 41.9576 29.8002 41.7596L29.8002 41.7596ZM16.8818 41.6341L15.6231 36.4219H13.437L12.2446 41.6341H12.1783L11.1184 36.4219H8.7998L10.5222 43.8114H11.8471H11.8471C12.1783 43.8114 12.5096 43.8114 12.7745 43.7454C13.0395 43.6795 13.2383 43.6135 13.437 43.4815C13.6357 43.3496 13.7682 43.1516 13.9007 42.8877C13.9863 42.7173 14.0442 42.5194 14.1102 42.2939L14.1102 42.2939C14.1464 42.1702 14.185 42.0383 14.2319 41.8981L14.4969 40.7104L15.2256 43.8114H16.6168H16.6168C16.948 43.8114 17.2792 43.8114 17.5442 43.7454C17.8092 43.6795 18.0079 43.6135 18.2067 43.4815C18.4054 43.3496 18.5379 43.1516 18.6704 42.8877C18.8029 42.6238 18.8691 42.2939 18.9354 41.8981L19.9291 36.4219H17.6767L16.8818 41.6341ZM23.6391 38.3281C23.1092 38.3281 22.6455 38.3941 22.2481 38.4601C21.8507 38.592 21.4532 38.724 21.122 38.9879C20.7908 39.2518 20.5921 39.5817 20.3934 39.9776C20.1947 40.3734 20.1284 40.9013 20.1284 41.4951C20.1284 41.825 20.1947 42.1548 20.2609 42.4188C20.3271 42.6827 20.4596 42.9466 20.5921 43.2105C20.7246 43.4084 20.9233 43.6064 21.122 43.7383C21.3207 43.8703 21.5857 43.9363 21.8506 43.9363C22.1818 43.9363 22.513 43.8703 22.778 43.6723C23.043 43.4744 23.3079 43.1445 23.5066 42.6827V43.8043H25.6926V38.3941C25.2951 38.3281 24.8977 38.3281 24.5665 38.3281H24.5665H23.6391ZM23.5729 41.0332C23.5066 41.3631 23.4404 41.561 23.3742 41.759L23.3742 41.759C23.3079 41.9569 23.2417 42.0889 23.1092 42.1548C23.043 42.2208 22.9105 42.2868 22.8442 42.2868C22.778 42.2868 22.6455 42.2208 22.5793 42.1548C22.5131 42.0889 22.4468 41.9569 22.3806 41.759C22.3447 41.6875 22.3283 41.5968 22.3102 41.4971C22.2949 41.4127 22.2785 41.3219 22.2481 41.2312C22.2481 41.1222 22.228 41.0132 22.21 40.9153C22.1952 40.8353 22.1818 40.7626 22.1818 40.7033C22.1818 40.5714 22.1819 40.4394 22.2481 40.3734C22.2481 40.3075 22.3143 40.1755 22.3806 40.1095C22.4468 40.0436 22.5793 39.9776 22.7118 39.9776C22.8442 39.9116 23.043 39.9116 23.3079 39.9116H23.3079H23.5066H23.7716C23.7054 40.3734 23.6391 40.7693 23.5729 41.0332ZM53.3832 36.8177C53.5157 36.9497 53.6482 37.1476 53.7807 37.4115C53.8651 37.5377 53.9496 37.7175 54.0512 37.9339C54.109 38.0569 54.1724 38.1917 54.2444 38.3352L55.8343 43.8114H53.582L53.052 42.096H51.1309L50.6671 43.8114H48.4148H35.4969H33.3108V38.4012H35.4969V41.6341H49.011L50.4022 36.4219H51.9258C52.257 36.4219 52.522 36.4219 52.787 36.4879C52.9857 36.5538 53.1845 36.6858 53.3832 36.8177ZM51.8596 38.5992L51.3958 40.5125H52.4558L51.9258 38.5992H51.8596ZM73.7209 39.9782C73.9859 39.7803 74.1846 39.5824 74.3171 39.3184C74.4496 39.0545 74.5158 38.7906 74.5158 38.4607C74.5158 37.8669 74.3171 37.3391 73.8534 36.9432C73.3896 36.5474 72.7934 36.4154 71.9985 36.4154H68.4212V41.6277H58.6831V36.0195H56.497V43.8049H58.4181H58.6831H68.4212H69.7461H70.6736V42.8153C70.8723 43.2111 71.071 43.541 71.4023 43.673C71.6673 43.8049 72.0647 43.9369 72.4622 43.9369C72.8597 43.9369 73.1909 43.8709 73.5221 43.739C73.7871 43.607 74.0521 43.4751 74.2508 43.2771C74.4496 43.0792 74.5821 42.8813 74.7146 42.6173C74.7808 42.3534 74.847 42.0895 74.847 41.7596C74.847 41.4297 74.7808 41.0998 74.5821 40.77C74.3833 40.4401 74.1183 40.1762 73.7209 39.9782ZM70.7398 38.3288H71.601C71.7998 38.3288 71.9322 38.3288 72.0647 38.3947C72.1972 38.4607 72.2635 38.5927 72.2635 38.7906C72.2635 38.9472 72.222 39.0212 72.1719 39.1107C72.1586 39.1343 72.1448 39.1589 72.131 39.1865C71.9985 39.2525 71.866 39.3184 71.6673 39.3184H70.7398V38.3288ZM72.2635 41.8256C72.131 41.8916 71.9985 41.9576 71.7998 41.9576H70.6073V40.9679H71.7998C71.9985 40.9679 72.131 41.0339 72.2635 41.0998C72.396 41.1658 72.396 41.2978 72.396 41.4957C72.4622 41.6277 72.396 41.7596 72.2635 41.8256ZM77.5633 38.4601C77.9607 38.3941 78.4244 38.3281 78.9543 38.3281H79.8817C80.2129 38.3281 80.6103 38.3281 81.0077 38.3941V43.8043H78.8218V42.6827C78.6231 43.1445 78.3582 43.4744 78.0932 43.6723C77.8282 43.8703 77.497 43.9363 77.1658 43.9363C76.9009 43.9363 76.6359 43.8703 76.4372 43.7383C76.2385 43.6064 76.0398 43.4084 75.9073 43.2105L75.9072 43.2104C75.7748 42.9465 75.6423 42.6826 75.5761 42.4188C75.5098 42.1548 75.4436 41.825 75.4436 41.4951C75.4436 40.9013 75.5098 40.3734 75.7086 39.9776C75.9073 39.5817 76.106 39.2518 76.4372 38.9879C76.7684 38.724 77.1658 38.592 77.5633 38.4601ZM78.6894 41.7589C78.7556 41.561 78.8218 41.3631 78.8881 41.0332C78.9543 40.7693 79.0205 40.3734 79.0868 39.9116H78.8218H78.6231C78.3581 39.9116 78.1594 39.9116 78.0269 39.9776C77.8945 39.9776 77.762 40.0436 77.6957 40.1095C77.6295 40.1755 77.5633 40.3075 77.5633 40.3734C77.497 40.4394 77.497 40.5714 77.497 40.7033C77.497 40.7626 77.5104 40.8353 77.5251 40.9153C77.5432 41.0132 77.5633 41.1222 77.5633 41.2312C77.5937 41.3219 77.6101 41.4127 77.6254 41.4971C77.6434 41.5968 77.6599 41.6875 77.6957 41.759C77.762 41.9569 77.8282 42.0889 77.8945 42.1548C77.9607 42.2208 78.0932 42.2868 78.1594 42.2868C78.2257 42.2868 78.3582 42.2208 78.4244 42.1548C78.5569 42.0889 78.6231 41.9569 78.6893 41.759L78.6894 41.7589ZM85.314 38.3288C84.784 38.3288 84.3204 38.3947 83.9229 38.5267C83.5255 38.6587 83.1281 38.7906 82.8631 39.0545C82.5319 39.3184 82.3332 39.6483 82.1345 40.0442C81.9357 40.4401 81.8695 40.9679 81.8695 41.5617C81.8695 41.8916 81.9357 42.2215 82.002 42.4854C82.0682 42.7493 82.2007 43.0132 82.3331 43.277L82.3332 43.2771C82.4657 43.4751 82.6644 43.673 82.8631 43.8049C83.0618 43.9369 83.3268 44.0029 83.5917 44.0029C83.9229 44.0029 84.2541 43.9369 84.5191 43.739C84.7841 43.541 85.049 43.2111 85.2477 42.7493V43.8709H87.4336V36.0195H85.2477V38.3288H85.314ZM85.314 41.0339C85.2477 41.3637 85.1815 41.5616 85.1153 41.7595L85.1152 41.7596C85.049 41.9576 84.9828 42.0895 84.8503 42.1555C84.7841 42.2215 84.6516 42.2875 84.5853 42.2875C84.5191 42.2875 84.3866 42.2215 84.3204 42.1555C84.2541 42.0895 84.1879 41.9576 84.1217 41.7596C84.0858 41.6882 84.0693 41.5974 84.0513 41.4978C84.036 41.4134 84.0196 41.3226 83.9892 41.2318C83.9892 41.1228 83.9691 41.0139 83.951 40.9159C83.9363 40.8359 83.9229 40.7633 83.9229 40.704C83.9229 40.572 83.9229 40.4401 83.9892 40.3741C83.9892 40.3081 84.0554 40.1762 84.1217 40.1102C84.1879 40.0442 84.3204 39.9782 84.4529 39.9782C84.5853 39.9122 84.7841 39.9122 85.049 39.9122H85.2477H85.5127C85.4464 40.3741 85.3802 40.77 85.314 41.0339ZM91.8051 38.3281H92.7987C92.9643 38.3281 93.1465 38.3446 93.3287 38.3611C93.5108 38.3776 93.693 38.3941 93.8586 38.3941V43.8043H91.6727V42.6827C91.4739 43.1445 91.209 43.4744 90.944 43.6723C90.6791 43.8703 90.3479 43.9363 90.0167 43.9363C89.7517 43.9363 89.4867 43.8703 89.288 43.7383C89.0893 43.6064 88.8906 43.4084 88.7581 43.2105L88.7581 43.2104C88.6256 42.9465 88.4931 42.6826 88.4269 42.4188C88.3607 42.1548 88.2944 41.825 88.2944 41.4951C88.2944 40.9013 88.3607 40.3734 88.5594 39.9776C88.7581 39.5817 88.9568 39.2518 89.288 38.9879C89.6192 38.724 90.0167 38.592 90.4141 38.4601C90.8115 38.3941 91.2752 38.3281 91.8051 38.3281ZM91.5402 41.7589C91.6064 41.561 91.6727 41.3631 91.7389 41.0332C91.8051 40.7693 91.8714 40.3734 91.9376 39.9116H91.6727H91.4739C91.209 39.9116 91.0103 39.9116 90.8778 39.9776C90.7453 39.9776 90.6128 40.0436 90.5466 40.1095C90.4803 40.1755 90.4141 40.3075 90.4141 40.3734C90.3479 40.4394 90.3479 40.5714 90.3479 40.7033C90.3479 40.7626 90.3613 40.8353 90.376 40.9153C90.394 41.0132 90.4141 41.1222 90.4141 41.2312C90.4445 41.3219 90.4609 41.4127 90.4762 41.4971C90.4943 41.5968 90.5107 41.6875 90.5466 41.759C90.6128 41.9569 90.6791 42.0889 90.7453 42.1548C90.8115 42.2208 90.944 42.2868 91.0103 42.2868C91.0765 42.2868 91.209 42.2208 91.2752 42.1548C91.4077 42.0889 91.4739 41.9569 91.5402 41.759L91.5402 41.7589Z" fill="#1AE3E3"/>
</svg>
