<svg width="22" height="17" viewBox="0 0 22 17" fill="none" xmlns="http://www.w3.org/2000/svg">
<path fill-rule="evenodd" clip-rule="evenodd" d="M20.9 2.24074H1.1C0.492805 2.24074 -1.90735e-06 1.73884 -1.90735e-06 1.12037C-1.90735e-06 0.501895 0.492805 0 1.1 0H20.9C21.5072 3.66133e-05 22 0.501932 22 1.1204C22 1.73884 21.5072 2.24074 20.9 2.24074ZM10.3105 14.6641H20.9C21.5072 14.6641 22 15.166 22 15.7844C22 16.4029 21.5072 16.9048 20.9 16.9048H10.3105C9.70331 16.9048 9.2105 16.4029 9.2105 15.7844C9.2105 15.166 9.70331 14.6641 10.3105 14.6641ZM20.9 7.33594H1.1C0.492805 7.33594 -1.90735e-06 7.83791 -1.90735e-06 8.45634C-1.90735e-06 9.07478 0.492805 9.57671 1.1 9.57671H20.9C21.5072 9.57671 22 9.07482 22 8.45634C22 7.83787 21.5072 7.33594 20.9 7.33594Z" fill="white"/>
</svg>
