<svg width="18" height="18" viewBox="0 0 18 18" fill="none" xmlns="http://www.w3.org/2000/svg">
<path d="M16.4504 17.45C14.5004 17.45 12.5714 16.9917 10.6634 16.075C8.75472 15.1583 7.05039 13.95 5.55039 12.45C4.05039 10.95 2.83806 9.24567 1.91339 7.337C0.988057 5.429 0.525391 3.5 0.525391 1.55V1.025C0.525391 0.841667 0.542057 0.666667 0.575391 0.5H5.70039L6.57539 5.05L3.80039 7.75C4.60039 9.08333 5.54606 10.2917 6.63739 11.375C7.72939 12.4583 8.96706 13.4 10.3504 14.2L13.1254 11.4L17.4754 12.275V17.375C17.3254 17.4083 17.1544 17.4293 16.9624 17.438C16.7711 17.446 16.6004 17.45 16.4504 17.45ZM3.10039 6.325L4.97539 4.55L4.45039 2H2.05039C2.06706 2.73333 2.17139 3.46667 2.36339 4.2C2.55472 4.93333 2.80039 5.64167 3.10039 6.325ZM11.7504 14.9C12.3837 15.2 13.0797 15.4417 13.8384 15.625C14.5964 15.8083 15.3087 15.9 15.9754 15.9V13.5L13.6004 13.025L11.7504 14.9Z" fill="#00C7C7"/>
</svg>
