<svg width="708" height="961" viewBox="0 0 708 961" fill="none" xmlns="http://www.w3.org/2000/svg">
<path fill-rule="evenodd" clip-rule="evenodd" d="M708 168.011C708 251.515 648.146 321.039 569 336.022L569 336H139V336.074C72.2015 349.925 22 409.106 22 480.011C22 550.916 72.2015 610.096 139 623.947L139 624L569 624C648.146 638.983 708 708.507 708 792.011C708 875.515 648.146 945.039 569 960.022L569 960H10L0 948L10 936H569L569 935.947C635.799 922.096 686 862.916 686 792.011C686 721.106 635.799 661.925 569 648.074L569 648H139L139 648.022C59.8541 633.039 0 563.515 0 480.011C0 396.507 59.8541 326.983 139 312L569 312L569 311.947C635.799 298.096 686 238.916 686 168.011C686 97.1055 635.799 37.9254 569 24.0745L569 24.0001H0L10 12.0001L0 7.7997e-05H569L569 0C648.146 14.9827 708 84.507 708 168.011Z" fill="#BADDF0"/>
</svg>
