<svg width="1110" height="660" viewBox="0 0 1110 660" fill="none" xmlns="http://www.w3.org/2000/svg">
<path fill-rule="evenodd" clip-rule="evenodd" d="M0 0H941V0.0114746C1034.52 1.08325 1110 77.2268 1110 171C1110 264.773 1034.52 340.917 941 341.989V342H169V342.002C88.736 343.072 24 408.47 24 488.989C24 569.507 88.736 634.905 169 635.975V636H1100L1110 648L1100 660H169V659.977C75.4808 658.905 0 582.762 0 488.989C0 395.215 75.4808 319.072 169 318H941V317.987C1021.26 316.917 1086 251.518 1086 171C1086 90.4819 1021.26 25.0837 941 24.0134V24H0L10 12L0 0Z" fill="#BADDF0"/>
</svg>