<svg width="932" height="660" viewBox="0 0 932 660" fill="none" xmlns="http://www.w3.org/2000/svg">
<path fill-rule="evenodd" clip-rule="evenodd" d="M932 170.989C932 264.762 856.519 340.905 763 341.977L763 342H169V342.002C88.7362 343.072 24 408.47 24 488.989C24 569.507 88.7362 634.905 169 635.975L169 636H922L932 648L922 660H169L169 659.977C75.481 658.905 0 582.762 0 488.989C0 395.215 75.4808 319.072 169 318H169H763L763 317.975C843.264 316.905 908 251.507 908 170.989C908 90.4703 843.264 25.072 763 24.0019L763 24H0L10 12L0 2.28258e-05L763 0C856.519 1.07162 932 77.2153 932 170.989Z" fill="#BADDF0"/>
</svg>
