<svg width="108" height="68" viewBox="0 0 108 68" fill="none" xmlns="http://www.w3.org/2000/svg">
<path fill-rule="evenodd" clip-rule="evenodd" d="M0 22L10 34L0 46H98L108 34L98 22H0Z" fill="white"/>
<circle cx="54" cy="34" r="34" fill="#004770"/>
<path d="M40.5 49V42.25C40.5 41.625 40.7188 41.0938 41.1562 40.6562C41.5938 40.2188 42.125 40 42.75 40H45.45L46.35 33.625H42.375V31.375H65.625V33.625H61.65L62.55 40H65.25C65.875 40 66.4063 40.2188 66.8438 40.6562C67.2813 41.0938 67.5 41.625 67.5 42.25V49H40.5ZM45.75 29.125L43.5 19C44.275 19.75 45.125 20.3313 46.05 20.7438C46.975 21.1562 47.9125 21.3625 48.8625 21.3625C49.7875 21.3625 50.6813 21.1625 51.5438 20.7625C52.4062 20.3625 53.225 19.775 54 19C54.775 19.775 55.5938 20.3625 56.4563 20.7625C57.3188 21.1625 58.2125 21.3625 59.1375 21.3625C60.0625 21.3625 60.9938 21.1562 61.9313 20.7438C62.8688 20.3313 63.725 19.75 64.5 19L62.25 29.125H45.75Z" fill="#00C7C7"/>
<path d="M45.75 29.125L43.5 19C44.275 19.75 45.125 20.3313 46.05 20.7438C46.975 21.1562 47.9125 21.3625 48.8625 21.3625C49.7875 21.3625 50.6813 21.1625 51.5438 20.7625C52.4062 20.3625 53.225 19.775 54 19C54.775 19.775 55.5938 20.3625 56.4562 20.7625C57.3187 21.1625 58.2125 21.3625 59.1375 21.3625C60.0625 21.3625 60.9938 21.1562 61.9313 20.7438C62.8688 20.3313 63.725 19.75 64.5 19L62.25 29.125H45.75Z" fill="#50FF81"/>
</svg>
