<svg width="708" height="1273" viewBox="0 0 708 1273" fill="none" xmlns="http://www.w3.org/2000/svg">
<path fill-rule="evenodd" clip-rule="evenodd" d="M0 0H569C648.146 14.9828 708 84.507 708 168.011C708 251.515 648.146 321.039 569 336.022V336H139V336.074C72.2013 349.925 22 409.106 22 480.011C22 550.916 72.2013 610.096 139 623.947V624H569C648.146 638.983 708 708.507 708 792.011C708 875.515 648.146 945.039 569 960.022V960H139V960.074C72.2013 973.925 22 1033.11 22 1104.01C22 1174.92 72.2013 1234.1 139 1247.95V1248H698L708 1260L698 1272H139V1272.02C59.8539 1257.04 0 1187.51 0 1104.01C0 1020.51 59.8539 950.983 139 936H569V935.947C635.799 922.096 686 862.916 686 792.011C686 721.106 635.799 661.925 569 648.074V648H139V648.022C59.8539 633.039 0 563.515 0 480.011C0 396.507 59.8539 326.983 139 312H569V311.947C635.799 298.096 686 238.916 686 168.011C686 97.1056 635.799 37.9255 569 24.0744V24H0L10 12L0 0Z" fill="#BADDF0"/>
</svg>
