<svg width="932" height="978" viewBox="0 0 932 978" fill="none" xmlns="http://www.w3.org/2000/svg">
<path fill-rule="evenodd" clip-rule="evenodd" d="M932 170.989C932 264.762 856.519 340.905 763 341.977L763 342H169V342.002C88.7335 343.069 23.9941 408.468 23.9941 488.989C23.9941 569.509 88.7335 634.908 169 635.975L169 636H763C856.519 637.072 932 713.215 932 806.989C932 900.427 857.057 976.362 764 977.963V978H10.0978L0 966L10.0978 954H763V953.975C843.267 952.908 908.006 887.509 908.006 806.989C908.006 726.468 843.267 661.069 763 660.002L763 660H169L169 659.977C75.4809 658.905 0 582.762 0 488.989C0 395.215 75.4808 319.072 169 318H169H763L763 317.975C843.267 316.908 908.006 251.509 908.006 170.989C908.006 90.4683 843.267 25.0688 763 24.0018L763 24H0L10 12L0 2.28295e-05L763 0C856.519 1.07162 932 77.2153 932 170.989Z" fill="#BADDF0"/>
</svg>
