<svg width="708" height="649" viewBox="0 0 708 649" fill="none" xmlns="http://www.w3.org/2000/svg">
<path fill-rule="evenodd" clip-rule="evenodd" d="M708 168.011C708 251.515 648.146 321.039 569 336.022L569 336H139V336.074C72.2014 349.925 22 409.106 22 480.011C22 550.916 72.2014 610.096 139 623.947L139 624H698L708 636L698 648H139L139 648.022C59.8541 633.039 0 563.515 0 480.011C0 396.507 59.8541 326.983 139 312L569 312L569 311.947C635.799 298.096 686 238.916 686 168.011C686 97.1055 635.799 37.9254 569 24.0744L569 24.0001H0L10 12.0001L0 7.74086e-05H569L569 0C648.146 14.9827 708 84.507 708 168.011Z" fill="#BADDF0"/>
</svg>
