<svg width="932" height="1296" viewBox="0 0 932 1296" fill="none" xmlns="http://www.w3.org/2000/svg">
<path fill-rule="evenodd" clip-rule="evenodd" d="M0 0H763C856.519 1.07178 932 77.2154 932 170.989C932 264.762 856.519 340.905 763 341.977V342H169V342.002C88.736 343.072 24 408.47 24 488.989C24 569.507 88.736 634.905 169 635.975V636H763C856.519 637.072 932 713.215 932 806.989C932 900.762 856.519 976.905 763 977.977V978H169V978.002C88.736 979.072 24 1044.47 24 1124.99C24 1205.51 88.736 1270.9 169 1271.98V1272H922L932 1284L922 1296H169V1295.98C75.4808 1294.91 0 1218.76 0 1124.99C0 1031.22 75.4808 955.072 169 954H763V953.975C843.264 952.905 908 887.507 908 806.989C908 726.47 843.264 661.072 763 660.002V660H169V659.977C75.4808 658.905 0 582.762 0 488.989C0 395.215 75.4808 319.072 169 318H763V317.975C843.264 316.905 908 251.507 908 170.989C908 90.4704 843.264 25.0722 763 24.0019V24H0L10 12L0 0Z" fill="#BADDF0"/>
</svg>