<svg width="46" height="86" viewBox="0 0 46 86" fill="none" xmlns="http://www.w3.org/2000/svg">
<path d="M11 0L23 10L35 0V76L23 86L11 76L11 0Z" fill="white"/>
<circle cx="23" cy="43" r="23" fill="#004770"/>
<path d="M14 53V48.5C14 48.0833 14.1458 47.7292 14.4375 47.4375C14.7292 47.1458 15.0833 47 15.5 47H17.3L17.9 42.75H15.25V41.25H30.75V42.75H28.1L28.7 47H30.5C30.9167 47 31.2708 47.1458 31.5625 47.4375C31.8542 47.7292 32 48.0833 32 48.5V53H14ZM17.5 39.75L16 33C16.5167 33.5 17.0833 33.8875 17.7 34.1625C18.3167 34.4375 18.9417 34.575 19.575 34.575C20.1917 34.575 20.7875 34.4417 21.3625 34.175C21.9375 33.9083 22.4833 33.5167 23 33C23.5167 33.5167 24.0625 33.9083 24.6375 34.175C25.2125 34.4417 25.8083 34.575 26.425 34.575C27.0417 34.575 27.6625 34.4375 28.2875 34.1625C28.9125 33.8875 29.4833 33.5 30 33L28.5 39.75H17.5Z" fill="#00C7C7"/>
<path d="M17.5 39.75L16 33C16.5167 33.5 17.0833 33.8875 17.7 34.1625C18.3167 34.4375 18.9417 34.575 19.575 34.575C20.1917 34.575 20.7875 34.4417 21.3625 34.175C21.9375 33.9083 22.4833 33.5167 23 33C23.5167 33.5167 24.0625 33.9083 24.6375 34.175C25.2125 34.4417 25.8083 34.575 26.425 34.575C27.0417 34.575 27.6625 34.4375 28.2875 34.1625C28.9125 33.8875 29.4833 33.5 30 33L28.5 39.75H17.5Z" fill="#50FF81"/>
</svg>
