<svg width="63" height="61" viewBox="0 0 63 61" fill="none" xmlns="http://www.w3.org/2000/svg">
<path d="M31.2632 -1.44914e-06C44.7368 10.5628 55.3158 20.7558 63 30.5792C54.6842 41.3532 44.1053 51.4935 31.2632 61C19.7895 52.4442 9.36842 42.3039 -4.69387e-07 30.5792C4.10526 25.5091 9.10526 20.1221 15 14.4182C20.8947 8.71428 26.3158 3.90822 31.2632 -1.44914e-06Z" fill="url(#paint0_linear_5371_115496)"/>
<path d="M21.6367 40.8975L25.5955 32.5637H15.8555V19.0225H29.398V32.7725L25.543 40.8975H21.6367Z" fill="#00C7C7"/>
<path d="M40.2812 40.8975L44.24 32.5637H34.5V19.0225H48.0425V32.7725L44.1875 40.8975H40.2812Z" fill="#50FF81"/>
<defs>
<linearGradient id="paint0_linear_5371_115496" x1="-6.63278e-07" y1="31" x2="63" y2="31" gradientUnits="userSpaceOnUse">
<stop stop-color="#003959"/>
<stop offset="1" stop-color="#013C5A"/>
</linearGradient>
</defs>
</svg>
