<svg width="150" height="40" viewBox="0 0 150 40" fill="none" xmlns="http://www.w3.org/2000/svg">
<g clip-path="url(#clip0_5371_115504)">
<path d="M149.444 30.6297C143.941 29.7494 138.092 30.9973 132.7 31.5879C130.543 31.8219 128.33 31.9667 126.118 31.9221C126.596 31.9221 127.596 31.1979 127.852 31.0531C128.764 30.5517 129.72 30.0057 129.876 29.326C130.465 26.6185 106.86 30.262 104.926 30.4514C101.012 30.8414 103.58 29.7606 104.803 28.9472C106.304 27.9444 107.672 26.9305 108.762 25.8051C109.429 25.1143 109.729 24.3233 109.028 23.7216C109.384 23.521 109.662 23.365 109.818 23.287C114.087 20.9472 117.934 18.418 121.748 15.8999C125.539 13.3929 129.987 10.8971 131.699 7.833C132.978 5.54888 131.432 1.28147 124.817 1.69372C121.37 1.90542 118.535 3.07534 116.567 4.42353C111.841 7.66587 109.418 11.6436 105.582 15.1533C100.1 20.1673 93.2179 24.8804 85.0013 28.9138C82.633 30.0837 80.0869 31.1868 77.2294 32.067C72.9266 33.3929 77.096 31.5099 78.5525 30.7522C80.7762 29.5823 82.4551 28.2118 82.4996 26.5962C82.5218 25.9166 81.41 25.56 80.1981 25.8051C79.253 25.9946 77.7075 26.5962 76.3622 27.3316C75.2837 26.8636 73.5381 26.6854 71.2365 27.2536C69.0684 27.7884 67.4674 28.5127 65.8552 29.3038C66.2221 28.8358 66.5334 28.3678 66.8225 27.8776C67.5007 26.7077 69.7911 23.7216 68.0789 22.5517C66.5556 21.5155 64.6433 23.2202 63.8205 23.7773C57.205 28.2898 48.7326 32.2675 39.1374 35.2313C30.9541 37.7606 19.5799 39.8887 10.0068 37.9388C-1.25624 35.6436 1.5901 28.379 4.51427 23.9778C11.7302 13.1255 28.9194 2.51824 53.5358 1.21462C54.5588 1.15891 55.5928 1.12548 56.6268 1.14776C57.8054 1.17005 58.0611 0.0335571 56.9048 0.011273C43.8071 -0.233852 30.8096 3.55445 21.8703 7.87757C11.9526 12.6687 5.08132 19.3873 1.49004 25.9054C-0.42235 29.3817 -1.30071 34.0614 3.90276 37.0141C16.4111 44.1227 39.8823 36.8246 50.4227 32.379C56.3377 29.8831 62.6642 26.9416 67.0337 23.7661C68.5681 22.6519 66.5112 27.365 66.4556 27.4765C65.0435 30.2843 61.7302 30.5182 63.2646 31.3539C63.4869 31.4765 63.865 31.4876 64.1429 31.4096C66.5334 30.7299 68.1567 29.4263 70.4249 28.6352C71.3811 28.301 73.2823 28.2675 74.5165 28.5461C73.8383 29.1366 73.5047 29.7049 73.8939 30.1283C74.0273 30.2843 74.3831 30.3511 74.7055 30.3288C77.1405 30.1283 77.9521 29.0921 77.4629 28.2118C78.3302 27.5099 79.3419 26.7188 80.3426 26.34C83.0667 25.3038 81.0431 28.1561 78.3635 29.404C77.1961 29.95 76.1843 30.5739 75.0613 31.1422C72.1038 32.6352 73.16 34.3511 77.3962 33.248C84.7567 31.3205 90.694 26.7634 95.6528 23.6102C99.5109 21.1589 102.913 19.3205 106.038 16.6352C110.151 13.1032 112.675 9.12548 117.067 5.69372C119.68 3.65473 126.162 1.32604 129.62 4.2564C133.367 7.44303 127.452 11.4542 123.961 13.8163C119.591 16.7689 113.665 19.677 108.784 22.4291C108.372 22.6631 107.939 22.8748 107.516 23.1088C104.147 22.4625 95.8196 24.4681 96.8203 26.4068C98.1211 28.9361 103.981 26.3734 107.427 24.6018C107.35 25.5823 103.792 28.0781 103.447 28.3121C102.48 28.9583 99.5777 30.418 101.034 31.3427C102.991 32.5795 110.629 30.1728 112.709 29.9166C116.144 29.4932 119.602 29.1143 123.093 28.8246C124.45 28.7132 125.817 28.6464 127.185 28.6687C129.264 28.6909 126.129 30.5851 125.417 30.9862C124.617 31.4207 123.049 32.7132 125.139 32.9918C132.933 34.0391 140.916 30.4737 148.733 31.7216C149.933 31.911 150.512 30.8191 149.466 30.6519L149.444 30.6297ZM100.567 26.1171C98.2434 26.7745 99.9001 25.2926 101.023 24.9472C102.279 24.5684 103.814 24.2787 105.337 24.2007C104.659 24.5238 103.992 24.8581 103.291 25.17C102.446 25.5489 101.546 25.8497 100.567 26.1171Z" fill="url(#paint0_linear_5371_115504)"/>
</g>
<defs>
<linearGradient id="paint0_linear_5371_115504" x1="75.0034" y1="0" x2="75.0034" y2="39.988" gradientUnits="userSpaceOnUse">
<stop stop-color="#00C7C7"/>
<stop offset="1" stop-color="#50FF81"/>
</linearGradient>
<clipPath id="clip0_5371_115504">
<rect width="150" height="40" fill="white"/>
</clipPath>
</defs>
</svg>
