<svg width="60" height="60" viewBox="0 0 60 60" fill="none" xmlns="http://www.w3.org/2000/svg">
<g clip-path="url(#clip0_6648_97490)">
<path d="M0.128906 60L4.34766 44.5898C1.74609 40.0898 0.386719 34.9687 0.386719 29.7305C0.386719 13.3359 13.7344 0 30.1289 0C38.0859 0 45.5508 3.10547 51.1641 8.71875C56.7773 14.3438 59.8711 21.8086 59.8711 29.7539C59.8594 46.1484 46.5234 59.4844 30.1289 59.4844H30.1172C25.1367 59.4844 20.25 58.2305 15.9023 55.8633L0.128906 60ZM16.6289 50.4844L17.5312 51.0234C21.3281 53.2734 25.6758 54.4687 30.1172 54.4687H30.1289C43.7578 54.4687 54.8437 43.3828 54.8437 29.7539C54.8437 23.1562 52.2773 16.9453 47.6133 12.2695C42.9492 7.59375 36.7383 5.02734 30.1406 5.02734C16.5 5.02734 5.41406 16.1133 5.41406 29.7422C5.41406 34.4063 6.71484 38.9531 9.1875 42.8906L9.77344 43.8281L7.27734 52.9453L16.6289 50.4844Z" fill="white"/>
<path d="M1.17188 58.957L5.25 44.0859C2.73047 39.7383 1.40625 34.793 1.40625 29.7422C1.41797 13.9102 14.2969 1.04297 30.1172 1.04297C37.793 1.04297 45.0117 4.03125 50.4258 9.45703C55.8516 14.8828 58.8398 22.0898 58.8281 29.7656C58.8164 45.5859 45.9375 58.4648 30.1172 58.4648H30.1055C25.3008 58.4648 20.5781 57.2578 16.3828 54.9727L1.17188 58.957Z" fill="url(#paint0_linear_6648_97490)"/>
<path d="M0.128906 60L4.34766 44.5898C1.74609 40.0898 0.386719 34.9687 0.386719 29.7305C0.386719 13.3359 13.7344 0 30.1289 0C38.0859 0 45.5508 3.10547 51.1641 8.71875C56.7773 14.3438 59.8711 21.8086 59.8711 29.7539C59.8594 46.1484 46.5234 59.4844 30.1289 59.4844H30.1172C25.1367 59.4844 20.25 58.2305 15.9023 55.8633L0.128906 60ZM16.6289 50.4844L17.5312 51.0234C21.3281 53.2734 25.6758 54.4687 30.1172 54.4687H30.1289C43.7578 54.4687 54.8437 43.3828 54.8437 29.7539C54.8437 23.1562 52.2773 16.9453 47.6133 12.2695C42.9492 7.59375 36.7383 5.02734 30.1406 5.02734C16.5 5.02734 5.41406 16.1133 5.41406 29.7422C5.41406 34.4063 6.71484 38.9531 9.1875 42.8906L9.77344 43.8281L7.27734 52.9453L16.6289 50.4844Z" fill="url(#paint1_linear_6648_97490)"/>
<path fill-rule="evenodd" clip-rule="evenodd" d="M22.6875 17.2969C22.125 16.0547 21.5391 16.0313 21.0117 16.0078C20.5781 15.9844 20.0859 15.9961 19.582 15.9961C19.0898 15.9961 18.2812 16.1836 17.6016 16.9219C16.9219 17.6602 15 19.4648 15 23.1211C15 26.7773 17.6602 30.3164 18.0352 30.8086C18.4102 31.3008 23.1797 39.0469 30.7266 42.0234C37.0078 44.4961 38.2852 44.0039 39.6445 43.8867C41.0039 43.7695 44.0391 42.0937 44.6602 40.3594C45.2813 38.625 45.2812 37.1367 45.0937 36.832C44.9062 36.5273 44.4141 36.3398 43.6641 35.9648C42.9258 35.5898 39.2695 33.7969 38.5898 33.5508C37.9102 33.3047 37.418 33.1758 36.9141 33.9258C36.4219 34.6641 34.9922 36.3398 34.5586 36.832C34.125 37.3242 33.6914 37.3945 32.9531 37.0195C32.2148 36.6445 29.8125 35.8594 26.9766 33.3281C24.7617 31.3594 23.2734 28.9219 22.8398 28.1836C22.4062 27.4453 22.793 27.0352 23.168 26.6719C23.4961 26.3438 23.9062 25.8047 24.2812 25.3711C24.6562 24.9375 24.7734 24.6328 25.0195 24.1289C25.2656 23.6367 25.1484 23.2031 24.9609 22.8281C24.7969 22.4414 23.3555 18.7734 22.6875 17.2969Z" fill="white"/>
</g>
<defs>
<linearGradient id="paint0_linear_6648_97490" x1="29.9998" y1="58.9618" x2="29.9998" y2="1.03898" gradientUnits="userSpaceOnUse">
<stop stop-color="#20B038"/>
<stop offset="1" stop-color="#60D66A"/>
</linearGradient>
<linearGradient id="paint1_linear_6648_97490" x1="30" y1="60" x2="30" y2="0" gradientUnits="userSpaceOnUse">
<stop stop-color="#F9F9F9"/>
<stop offset="1" stop-color="white"/>
</linearGradient>
<clipPath id="clip0_6648_97490">
<rect width="60" height="60" fill="white"/>
</clipPath>
</defs>
</svg>
