<svg width="32" height="32" viewBox="0 0 32 32" fill="none" xmlns="http://www.w3.org/2000/svg">
<g clip-path="url(#clip0_5126_50077)">
<path fill-rule="evenodd" clip-rule="evenodd" d="M0 0H32V32H0V0Z" fill="white"/>
<path fill-rule="evenodd" clip-rule="evenodd" d="M13.3447 16.8901C13.3447 16.8901 12.5803 17.3348 13.8892 17.4851C15.4753 17.6662 16.2854 17.6401 18.0327 17.3096C18.0327 17.3096 18.4927 17.5976 19.1349 17.8468C15.2168 19.5257 10.2676 17.7497 13.3447 16.8901ZM12.8657 14.6992C12.8657 14.6992 12.0083 15.3339 13.3183 15.4694C15.0126 15.6443 16.35 15.6586 18.6657 15.213C18.6657 15.213 18.9854 15.5376 19.4886 15.7149C14.7521 17.1003 9.47689 15.824 12.8657 14.6992Z" fill="#3174B9"/>
<path fill-rule="evenodd" clip-rule="evenodd" d="M16.9009 10.9808C17.8667 12.0925 16.6477 13.0924 16.6477 13.0924C16.6477 13.0924 19.0991 11.8273 17.9732 10.2423C16.922 8.76498 16.1156 8.03103 20.4803 5.5C20.4803 5.5 13.6289 7.21043 16.9009 10.9808Z" fill="#CA3132"/>
<path fill-rule="evenodd" clip-rule="evenodd" d="M22.0816 18.5091C22.0816 18.5091 22.6474 18.9756 21.4584 19.3363C19.1974 20.0211 12.0464 20.2276 10.0601 19.3635C9.34657 19.0528 10.6853 18.622 11.1065 18.531C11.5457 18.436 11.7964 18.4533 11.7964 18.4533C11.0024 17.8942 6.66397 19.5515 9.5931 20.0269C17.5803 21.322 24.1531 19.4439 22.0816 18.5091ZM13.7107 12.4273C13.7107 12.4273 10.0737 13.2914 12.423 13.6055C13.4152 13.7382 15.3918 13.7076 17.2343 13.5531C18.7398 13.4267 20.2508 13.1565 20.2508 13.1565C20.2508 13.1565 19.7204 13.3841 19.3361 13.646C15.6421 14.6177 8.50721 14.1652 10.5615 13.1719C12.2983 12.3317 13.7107 12.4273 13.7107 12.4273ZM20.2357 16.0742C23.9904 14.1235 22.2544 12.2485 21.0424 12.5012C20.746 12.5631 20.613 12.6166 20.613 12.6166C20.613 12.6166 20.7236 12.4436 20.9338 12.3692C23.3312 11.5267 25.1746 14.8548 20.1608 16.1728C20.1607 16.1728 20.2184 16.1206 20.2357 16.0742Z" fill="#3174B9"/>
<path fill-rule="evenodd" clip-rule="evenodd" d="M17.9738 1.41016C17.9738 1.41016 20.0528 3.49046 16.0014 6.68837C12.7523 9.2546 15.2606 10.7173 16.0004 12.3893C14.1035 10.6782 12.7122 9.1716 13.6455 7.76978C15.0157 5.71205 18.8126 4.71415 17.9738 1.41016Z" fill="#CA3132"/>
<path fill-rule="evenodd" clip-rule="evenodd" d="M14.0794 21.3608C17.6828 21.5912 23.2175 21.2328 23.3489 19.5273C23.3489 19.5273 23.0969 20.1738 20.3704 20.6866C17.2944 21.2657 13.4998 21.1983 11.25 20.8269C11.25 20.8269 11.711 21.2084 14.0794 21.3608Z" fill="#3174B9"/>
<path fill-rule="evenodd" clip-rule="evenodd" d="M23.1826 24.4191H23.073V24.3577H23.3687V24.4191H23.2591V24.7259H23.1826V24.4191ZM23.7726 24.4344H23.7713L23.6624 24.7258H23.6124L23.5042 24.4344H23.5028V24.7258H23.4301V24.3576H23.5369L23.6371 24.618L23.7374 24.3576H23.8431V24.7258H23.7728L23.7726 24.4344ZM13.4891 27.8764C13.1493 28.1709 12.79 28.3366 12.4674 28.3366C12.0079 28.3366 11.7586 28.0605 11.7586 27.6187C11.7586 27.1404 12.0255 26.7905 13.094 26.7905H13.4889L13.4891 27.8764ZM14.4271 28.9345V25.6588C14.4271 24.8216 13.9496 24.2691 12.7986 24.2691C12.1271 24.2691 11.5384 24.4349 11.0598 24.6462L11.1976 25.2265C11.5746 25.088 12.062 24.9597 12.5405 24.9597C13.2035 24.9597 13.4889 25.2265 13.4889 25.7788V26.193H13.1576C11.5469 26.193 10.8201 26.8179 10.8201 27.7573C10.8201 28.5668 11.299 29.027 12.2007 29.027C12.7802 29.027 13.2132 28.7878 13.6174 28.4377L13.691 28.9345H14.4271ZM17.5576 28.9345H16.388L14.9797 24.3524H16.0014L16.8754 27.1682L17.07 28.0142C17.5109 26.7905 17.8238 25.5482 17.9804 24.3524H18.9738C18.7079 25.8611 18.2288 27.5176 17.5576 28.9345ZM22.0461 27.8764C21.7052 28.1709 21.346 28.3366 21.0241 28.3366C20.5646 28.3366 20.3155 28.0605 20.3155 27.6187C20.3155 27.1404 20.5827 26.7905 21.6504 26.7905H22.0461V27.8764ZM22.9844 28.9345V25.6588C22.9844 24.8216 22.5054 24.2691 21.3556 24.2691C20.6834 24.2691 20.0949 24.4349 19.6163 24.6462L19.7541 25.2265C20.1311 25.088 20.6195 24.9597 21.0981 24.9597C21.7602 24.9597 22.0459 25.2265 22.0459 25.7788V26.193H21.7145C20.1037 26.193 19.3774 26.8179 19.3774 27.7573C19.3774 28.5668 19.8554 29.027 20.7571 29.027C21.3372 29.027 21.7695 28.7878 22.1747 28.4377L22.2486 28.9345H22.9844ZM9.79164 29.7131C9.52436 30.1038 9.09207 30.413 8.61943 30.5875L8.15625 30.042C8.51633 29.8572 8.82478 29.5589 8.96839 29.2813C9.09206 29.034 9.1437 28.7159 9.1437 27.9546V22.7227H10.1406V27.8823C10.1406 28.9007 10.0593 29.3122 9.79164 29.7131Z" fill="#CA3132"/>
</g>
<defs>
<clipPath id="clip0_5126_50077">
<rect width="32" height="32" fill="white"/>
</clipPath>
</defs>
</svg>
