<svg width="32" height="32" viewBox="0 0 32 32" fill="none" xmlns="http://www.w3.org/2000/svg">
<g clip-path="url(#clip0_5126_50086)">
<path fill-rule="evenodd" clip-rule="evenodd" d="M0 0H32V32H0V0Z" fill="white"/>
<path fill-rule="evenodd" clip-rule="evenodd" d="M0.477217 10.1813V11.2969H3.81906C4.17101 11.2896 4.38981 11.5675 4.38832 11.9242L4.385 18.0933C4.37753 18.4308 4.18379 18.7132 3.82321 18.7113L2.52216 18.7148V12.1864H0.477217L0.46875 19.7946L4.60463 19.7919C5.60254 19.7868 6.35208 18.9995 6.35291 18.0368V11.9322C6.34793 10.8181 5.55904 10.1823 4.45572 10.1819L0.477217 10.1813ZM13.6847 18.6738H12.7298C12.3636 18.6752 12.0915 18.3807 12.0907 18.0513L12.0857 17.0725C12.0875 16.7385 12.3711 16.4496 12.7298 16.4464H13.6847V18.6738ZM10.8324 12.7837L10.8334 14.2169C10.9646 14.1556 11.8539 13.8877 12.8874 13.8885C13.3617 13.8868 13.6914 14.2758 13.6907 14.6993L13.6857 15.3378L11.7757 15.3345C10.8915 15.3363 10.18 16.0477 10.1815 16.9236L10.1835 18.2102C10.18 19.0626 10.8832 19.7914 11.7724 19.7938L15.5992 19.7903V14.3792C15.5992 13.5256 14.8916 12.7845 13.9991 12.7842L10.8324 12.7837ZM21.3289 12.7887L17.8257 12.7844C16.9464 12.7847 16.2309 13.5175 16.2323 14.3779L16.2307 15.6546C16.2307 16.5236 16.9587 17.2396 17.8256 17.2428L19.749 17.2435C20.6096 17.2438 21.3255 16.5152 21.322 15.6546L21.3289 12.7887ZM17.6624 17.5597C16.7908 17.5597 16.0708 18.2754 16.0715 19.1563C16.0707 19.1598 16.0707 20.4228 16.0707 20.4228C16.0707 21.2957 16.7823 22.0145 17.6665 22.0145H19.8896C20.7741 22.0145 21.4813 21.2943 21.4813 20.4273C21.4775 20.4273 21.4858 19.1598 21.4813 19.1553C21.4813 18.2796 20.7657 17.5597 19.8941 17.5597C19.8906 17.5615 17.6624 17.5597 17.6624 17.5597ZM19.5739 20.2616C19.5739 20.6321 19.2966 20.9029 18.9335 20.9014C18.9339 20.9014 18.6185 20.9049 18.6185 20.9037C18.2585 20.9027 17.9816 20.633 17.982 20.2578L17.9843 19.3113C17.9833 18.9534 18.2605 18.6703 18.6204 18.6728C18.6214 18.6722 18.935 18.6693 18.935 18.6693C19.2976 18.6713 19.5735 18.9497 19.5729 19.3123L19.5739 20.2616ZM19.5739 15.4867C19.5739 15.8573 19.2966 16.1282 18.9335 16.1262C18.9339 16.1262 18.6185 16.1297 18.6185 16.1289C18.2585 16.1279 17.9816 15.8579 17.982 15.4827L17.9843 14.5361C17.9833 14.1784 18.2605 13.8951 18.6204 13.898C18.6214 13.8973 18.935 13.8942 18.935 13.8942C19.2976 13.8965 19.5735 14.1747 19.5729 14.5371L19.5739 15.4867ZM25.4608 16.1269H23.8684L23.8708 14.536C23.8698 14.1782 24.1473 13.895 24.5069 13.8978C24.5076 13.8971 24.8215 13.894 24.8215 13.894C25.1841 13.8963 25.4597 14.1745 25.4593 14.537L25.4608 16.1269ZM23.549 12.7845C22.6944 12.7845 21.9658 13.4961 21.9658 14.3763V18.1997C21.9658 19.0679 22.6816 19.7869 23.5532 19.7869H27.21V18.4014C25.9363 18.764 24.8416 18.7847 24.4956 18.7824C24.151 18.7794 23.863 18.4945 23.863 18.1507L23.8653 17.2428H27.3672V14.3792C27.3665 13.506 26.6515 12.7842 25.7798 12.7852L23.549 12.7845ZM11.9373 12.0966C12.0776 12.0996 12.2171 12.0746 12.3477 12.023C12.4782 11.9715 12.5971 11.8943 12.6975 11.7962C12.7978 11.698 12.8775 11.5808 12.932 11.4514C12.9864 11.322 13.0144 11.1831 13.0144 11.0427C13.0144 10.9023 12.9864 10.7634 12.932 10.634C12.8776 10.5046 12.7979 10.3874 12.6976 10.2892C12.5973 10.191 12.4784 10.1139 12.3478 10.0623C12.2173 10.0107 12.0778 9.98566 11.9374 9.9887C11.6619 9.99466 11.3996 10.1083 11.2068 10.3053C11.0141 10.5023 10.9061 10.7669 10.9061 11.0425C10.906 11.3182 11.014 11.5828 11.2067 11.7798C11.3995 11.9769 11.6617 12.0906 11.9373 12.0966ZM14.4849 12.0966C14.6244 12.0983 14.7629 12.0723 14.8924 12.0202C15.0218 11.968 15.1396 11.8906 15.2389 11.7925C15.3381 11.6945 15.417 11.5777 15.4708 11.4489C15.5246 11.3202 15.5523 11.182 15.5523 11.0425C15.5523 10.9029 15.5246 10.7648 15.4708 10.636C15.417 10.5072 15.3381 10.3904 15.2389 10.2924C15.1396 10.1943 15.0218 10.117 14.8924 10.0648C14.7629 10.0126 14.6244 9.98661 14.4849 9.98836C14.2076 9.99184 13.9429 10.1044 13.748 10.3017C13.5532 10.499 13.4439 10.7652 13.4439 11.0425C13.4439 11.3198 13.5532 11.5859 13.748 11.7832C13.9429 11.9805 14.2076 12.0931 14.4849 12.0966ZM10.5074 12.7877C9.04216 12.7824 7.86895 12.9572 6.98991 13.5852L6.99339 19.786H8.91416V14.8527C8.91267 14.0339 9.86857 13.8825 10.5074 14.2127V12.7877ZM31.5278 12.7877C30.0622 12.7824 28.8893 12.9572 28.0098 13.5852L28.0133 19.786H29.9341V14.8527C29.9324 14.0339 30.8886 13.8825 31.5278 14.2127V12.7877Z" fill="#2566AF"/>
</g>
<defs>
<clipPath id="clip0_5126_50086">
<rect width="32" height="32" fill="white"/>
</clipPath>
</defs>
</svg>
