<svg width="32" height="32" viewBox="0 0 32 32" fill="none" xmlns="http://www.w3.org/2000/svg">
<path d="M16.9873 28C16.9873 28 25.0266 12.6355 24.9999 12.6166C25.026 12.6355 16.3682 12.6029 16.3415 12.5846C16.3682 12.6024 16.2704 3 16.2704 3C16.2704 3 14.8053 3.03258 14.7798 3.01422C14.8053 3.03199 7.02607 18.56 7 18.5422C7.02607 18.56 14.8053 18.5274 14.7798 18.509C14.8053 18.5268 15.3267 27.8045 15.3012 27.7867C15.3267 27.8045 16.9867 28 16.9867 28H16.9873Z" fill="white"/>
<path d="M16 2C8.27842 2 2 8.27842 2 16C2 23.7216 8.27842 30 16 30C23.7216 30 30 23.7216 30 16C30 8.27842 23.7216 2 16 2ZM15.2784 18.3246H8.30583L15.2778 4.75217V18.3246H15.2784ZM16.6947 27.2216V13.6492H23.6685L16.6942 27.221L16.6947 27.2216Z" fill="#00BE28"/>
</svg>
