<svg width="565" height="420" viewBox="0 0 565 420" fill="none" xmlns="http://www.w3.org/2000/svg">
<path opacity="0.2" d="M406.783 90.4763H338.436V129.782H406.783V90.4763Z" fill="black"/>
<path opacity="0.1" d="M406.783 129.78H338.436V169.086H406.783V129.78Z" fill="black"/>
<path opacity="0.2" d="M499.213 123.38H437.639C436.298 123.38 435.211 124.47 435.211 125.814V174.333C435.211 175.677 436.298 176.766 437.639 176.766H499.213C500.554 176.766 501.641 175.677 501.641 174.333V125.814C501.641 124.47 500.554 123.38 499.213 123.38Z" fill="#A4C340"/>
<path opacity="0.2" d="M387.56 109.733H319.213V149.038H387.56V109.733Z" fill="black"/>
<path opacity="0.1" d="M387.56 149.04H319.213V188.346H387.56V149.04Z" fill="black"/>
<path opacity="0.2" d="M481.517 50.722H401.351C399.606 50.722 398.191 52.14 398.191 53.8891V117.054C398.191 118.803 399.606 120.221 401.351 120.221H481.517C483.262 120.221 484.676 118.803 484.676 117.054V53.8891C484.676 52.14 483.262 50.722 481.517 50.722Z" fill="#A4C340"/>
<path opacity="0.2" d="M479.998 142.65H418.424C417.083 142.65 415.996 143.74 415.996 145.084V193.602C415.996 194.946 417.083 196.036 418.424 196.036H479.998C481.339 196.036 482.426 194.946 482.426 193.602V145.084C482.426 143.74 481.339 142.65 479.998 142.65Z" fill="#A4C340"/>
<g filter="url(#filter0_d_5168_55952)">
<path d="M489.675 40.243H320.143C310.714 40.243 306 40.243 303.072 43.172C300.143 46.1009 300.143 50.815 300.143 60.243V180.267C300.143 189.695 300.143 194.409 303.072 197.338C306 200.267 310.714 200.267 320.143 200.267H489.675C499.103 200.267 503.817 200.267 506.746 197.338C509.675 194.409 509.675 189.695 509.675 180.267V60.243C509.675 50.815 509.675 46.1009 506.746 43.172C503.817 40.243 499.103 40.243 489.675 40.243Z" fill="white"/>
</g>
<rect x="308.402" y="61.7667" width="48.6805" height="5.67139" fill="#EFF2F5"/>
<rect x="308.402" y="71.566" width="30.5737" height="2.5779" fill="#EFF2F5"/>
<rect x="308.402" y="87.2816" width="48.6805" height="5.67139" fill="#EFF2F5"/>
<rect x="308.402" y="97.0808" width="30.5737" height="2.5779" fill="#EFF2F5"/>
<rect x="308.402" y="112.797" width="48.6805" height="5.67139" fill="#EFF2F5"/>
<rect x="308.402" y="122.596" width="30.5737" height="2.5779" fill="#EFF2F5"/>
<path d="M368.879 50.2449H506.35V192.037C506.35 193.041 505.815 194.003 504.864 194.713C503.912 195.423 502.621 195.822 501.276 195.822H373.953C372.607 195.822 371.317 195.423 370.365 194.713C369.414 194.003 368.879 193.041 368.879 192.037V50.2449Z" fill="#EFF2F5"/>
<path d="M376.314 63.2597H377.801C378.205 63.2597 378.502 63.3413 378.692 63.5047C378.885 63.6642 378.981 63.924 378.981 64.2841C378.981 64.4771 378.949 64.6367 378.886 64.7628C378.823 64.889 378.716 65.0004 378.563 65.0969C378.73 65.1637 378.853 65.2658 378.931 65.4031C379.013 65.5404 379.053 65.7204 379.053 65.9431C379.053 66.3142 378.948 66.5908 378.736 66.7726C378.525 66.9545 378.22 67.0454 377.823 67.0454H376.314V63.2597ZM377.767 64.8185C378.057 64.8185 378.202 64.6682 378.202 64.3676C378.202 64.0669 378.055 63.9166 377.762 63.9166H377.083V64.8185H377.767ZM377.784 66.3885C377.951 66.3885 378.074 66.3551 378.152 66.2883C378.233 66.2177 378.274 66.1008 378.274 65.9375C378.274 65.7742 378.235 65.6555 378.157 65.5812C378.079 65.5033 377.955 65.4643 377.784 65.4643H377.083V66.3885H377.784ZM380.542 67.1122C380.304 67.1122 380.117 67.064 379.98 66.9675C379.846 66.871 379.751 66.7225 379.696 66.5221C379.64 66.3217 379.612 66.0544 379.612 65.7204V64.2618H380.358V65.7315C380.358 65.932 380.367 66.0823 380.386 66.1825C380.405 66.279 380.442 66.3477 380.497 66.3885C380.557 66.4256 380.646 66.4441 380.765 66.4441C380.85 66.4441 380.926 66.4367 380.993 66.4219C381.063 66.407 381.16 66.3811 381.282 66.3439V64.2618H382.028V67.0454H381.288V66.8895C381.132 66.9749 380.998 67.0324 380.887 67.0621C380.779 67.0955 380.664 67.1122 380.542 67.1122ZM383.836 68.3259C383.439 68.3259 383.129 68.2665 382.907 68.1477C382.688 68.0327 382.578 67.8434 382.578 67.5799C382.578 67.4425 382.61 67.3201 382.673 67.2124C382.74 67.1085 382.842 67.0009 382.979 66.8895C382.912 66.845 382.86 66.7875 382.823 66.7169C382.79 66.6464 382.773 66.5722 382.773 66.4943C382.773 66.4386 382.786 66.3811 382.812 66.3217C382.842 66.2623 382.901 66.1621 382.99 66.021C382.738 65.8355 382.611 65.5645 382.611 65.2082C382.611 64.8705 382.714 64.62 382.918 64.4566C383.126 64.2896 383.413 64.2061 383.781 64.2061C383.936 64.2061 384.124 64.2302 384.343 64.2785L385.239 64.2507V64.8464L384.822 64.813C384.87 64.8909 384.901 64.9577 384.916 65.0134C384.935 65.069 384.944 65.1451 384.944 65.2416C384.944 65.5757 384.849 65.8151 384.66 65.9598C384.471 66.1008 384.183 66.1714 383.797 66.1714C383.686 66.1714 383.601 66.1639 383.541 66.1491C383.504 66.2382 383.486 66.3142 383.486 66.3773C383.486 66.4553 383.523 66.5035 383.597 66.5221C383.675 66.5369 383.818 66.5462 384.026 66.5499C384.311 66.5573 384.538 66.5796 384.705 66.6167C384.875 66.6538 385.007 66.7299 385.1 66.845C385.193 66.9563 385.239 67.1215 385.239 67.3405C385.239 67.6782 385.124 67.9269 384.894 68.0865C384.664 68.2461 384.311 68.3259 383.836 68.3259ZM383.786 65.6035C384.068 65.6035 384.209 65.4662 384.209 65.1915C384.209 64.9206 384.068 64.7851 383.786 64.7851C383.5 64.7851 383.357 64.9206 383.357 65.1915C383.357 65.4662 383.5 65.6035 383.786 65.6035ZM383.886 67.7135C384.098 67.7135 384.25 67.6894 384.343 67.6411C384.439 67.5929 384.488 67.5186 384.488 67.4184C384.488 67.3256 384.452 67.2662 384.382 67.2403C384.315 67.218 384.235 67.205 384.142 67.2013C384.053 67.1976 383.994 67.1957 383.964 67.1957L383.463 67.1568C383.363 67.257 383.313 67.3572 383.313 67.4574C383.313 67.5465 383.359 67.6114 383.452 67.6522C383.549 67.6931 383.693 67.7135 383.886 67.7135ZM388.256 63.2597C388.687 63.2597 389.017 63.3209 389.247 63.4434C389.477 63.5622 389.637 63.7515 389.726 64.0113C389.819 64.2711 389.865 64.6311 389.865 65.0913C389.865 65.5701 389.821 65.9487 389.731 66.227C389.642 66.5054 389.481 66.7114 389.247 66.845C389.017 66.9786 388.687 67.0454 388.256 67.0454H386.981V63.2597H388.256ZM388.256 66.3773C388.497 66.3773 388.676 66.3291 388.791 66.2326C388.909 66.1361 388.985 65.9988 389.019 65.8206C389.056 65.6388 389.074 65.3808 389.074 65.0468C389.074 64.7499 389.056 64.5253 389.019 64.3731C388.982 64.221 388.906 64.1096 388.791 64.0391C388.676 63.9649 388.497 63.9278 388.256 63.9278H387.749V66.3773H388.256ZM391.556 67.1122C391.122 67.1122 390.808 67.0027 390.615 66.7838C390.422 66.5648 390.325 66.2103 390.325 65.7204C390.325 65.2082 390.426 64.8259 390.626 64.5736C390.83 64.3212 391.146 64.195 391.572 64.195C391.966 64.195 392.263 64.3008 392.463 64.5123C392.667 64.7202 392.769 65.0338 392.769 65.4532L392.714 65.9709H391.077C391.084 66.1008 391.107 66.201 391.144 66.2716C391.185 66.3384 391.248 66.3866 391.333 66.4163C391.422 66.4423 391.545 66.4553 391.701 66.4553C391.823 66.4553 391.97 66.4516 392.14 66.4441C392.311 66.4367 392.435 66.4293 392.513 66.4219L392.669 66.4052L392.68 66.9563C392.261 67.0603 391.886 67.1122 391.556 67.1122ZM392.035 65.4031C392.035 65.1804 391.999 65.0264 391.929 64.941C391.862 64.8519 391.741 64.8074 391.567 64.8074C391.389 64.8074 391.263 64.8538 391.188 64.9466C391.114 65.0356 391.075 65.1878 391.071 65.4031H392.035ZM394.249 67.1122C394.034 67.1122 393.867 67.0788 393.748 67.012C393.629 66.9452 393.544 66.8357 393.492 66.6835C393.44 66.5314 393.414 66.3217 393.414 66.0544V64.8965H393.085V64.2618H393.414V63.4879H394.16V64.2618H394.845V64.8965H394.16V66.0377C394.16 66.1825 394.173 66.2883 394.199 66.3551C394.225 66.4182 394.29 66.4479 394.394 66.4441L394.817 66.433L394.85 67.0287C394.702 67.0621 394.585 67.0844 394.5 67.0955C394.418 67.1066 394.334 67.1122 394.249 67.1122ZM396.422 67.1122C395.987 67.1122 395.674 67.0027 395.481 66.7838C395.288 66.5648 395.191 66.2103 395.191 65.7204C395.191 65.2082 395.292 64.8259 395.492 64.5736C395.696 64.3212 396.012 64.195 396.438 64.195C396.832 64.195 397.129 64.3008 397.329 64.5123C397.533 64.7202 397.635 65.0338 397.635 65.4532L397.58 65.9709H395.943C395.95 66.1008 395.973 66.201 396.01 66.2716C396.051 66.3384 396.114 66.3866 396.199 66.4163C396.288 66.4423 396.411 66.4553 396.566 66.4553C396.689 66.4553 396.836 66.4516 397.006 66.4441C397.177 66.4367 397.301 66.4293 397.379 66.4219L397.535 66.4052L397.546 66.9563C397.127 67.0603 396.752 67.1122 396.422 67.1122ZM396.9 65.4031C396.9 65.1804 396.865 65.0264 396.795 64.941C396.728 64.8519 396.607 64.8074 396.433 64.8074C396.255 64.8074 396.128 64.8538 396.054 64.9466C395.98 65.0356 395.941 65.1878 395.937 65.4031H396.9ZM399.176 67.1122C398.775 67.1122 398.484 66.9972 398.302 66.767C398.124 66.5332 398.035 66.1621 398.035 65.6536C398.035 65.1377 398.128 64.7666 398.313 64.5402C398.499 64.31 398.801 64.195 399.221 64.195C399.328 64.195 399.447 64.2043 399.577 64.2228C399.707 64.2414 399.881 64.2729 400.1 64.3175L400.078 64.9076C399.763 64.8779 399.544 64.8631 399.421 64.8631C399.25 64.8631 399.12 64.8872 399.031 64.9354C398.942 64.98 398.879 65.0579 398.842 65.1693C398.809 65.2806 398.792 65.4402 398.792 65.648C398.792 65.8596 398.809 66.021 398.842 66.1324C398.879 66.2437 398.942 66.3235 399.031 66.3718C399.124 66.42 399.258 66.4441 399.432 66.4441L400.078 66.3996L400.1 66.9953C399.707 67.0732 399.399 67.1122 399.176 67.1122ZM401.6 67.1122C401.384 67.1122 401.217 67.0788 401.098 67.012C400.98 66.9452 400.894 66.8357 400.842 66.6835C400.79 66.5314 400.764 66.3217 400.764 66.0544V64.8965H400.436V64.2618H400.764V63.4879H401.51V64.2618H402.195V64.8965H401.51V66.0377C401.51 66.1825 401.523 66.2883 401.549 66.3551C401.575 66.4182 401.64 66.4479 401.744 66.4441L402.167 66.433L402.201 67.0287C402.052 67.0621 401.935 67.0844 401.85 67.0955C401.768 67.1066 401.685 67.1122 401.6 67.1122ZM402.681 64.2618H403.427V67.0454H402.681V64.2618ZM402.681 63.1539H403.427V63.9055H402.681V63.1539ZM405.225 67.1122C404.805 67.1122 404.486 66.986 404.267 66.7336C404.052 66.4776 403.944 66.1157 403.944 65.648C403.944 65.1841 404.052 64.8259 404.267 64.5736C404.486 64.3212 404.805 64.195 405.225 64.195C405.644 64.195 405.962 64.3212 406.177 64.5736C406.396 64.8259 406.505 65.1841 406.505 65.648C406.505 66.1157 406.396 66.4776 406.177 66.7336C405.962 66.986 405.644 67.1122 405.225 67.1122ZM405.225 66.4776C405.403 66.4776 405.535 66.4126 405.62 66.2827C405.705 66.1528 405.748 65.9412 405.748 65.648C405.748 65.3548 405.705 65.1451 405.62 65.0189C405.535 64.8927 405.403 64.8297 405.225 64.8297C405.047 64.8297 404.915 64.8927 404.83 65.0189C404.744 65.1451 404.702 65.3548 404.702 65.648C404.702 65.9412 404.744 66.1528 404.83 66.2827C404.915 66.4126 405.047 66.4776 405.225 66.4776ZM407.052 64.2618H407.793V64.4177C407.934 64.336 408.058 64.2785 408.166 64.2451C408.277 64.2117 408.396 64.195 408.522 64.195C408.863 64.195 409.106 64.3045 409.251 64.5235C409.396 64.7424 409.468 65.0802 409.468 65.5367V67.0454H408.722V65.559C408.722 65.3029 408.691 65.1229 408.628 65.0189C408.568 64.915 408.453 64.8631 408.282 64.8631C408.16 64.8631 408.021 64.889 407.865 64.941L407.798 64.9633V67.0454H407.052V64.2618Z" fill="#002448"/>
<path d="M376.236 79.4224V76.0057H376.637V77.1605C376.72 77.1223 376.83 77.0841 376.966 77.046C377.103 77.0078 377.234 76.9887 377.358 76.9887C377.577 76.9887 377.746 77.0285 377.864 77.108C377.981 77.1843 378.061 77.3084 378.102 77.4802C378.147 77.652 378.169 77.8779 378.169 78.1578V79.4224H377.763V78.1769C377.763 77.9765 377.751 77.8158 377.725 77.6949C377.703 77.574 377.658 77.4866 377.592 77.4325C377.525 77.3784 377.42 77.3514 377.277 77.3514C377.162 77.3514 377.044 77.3673 376.924 77.3991C376.806 77.4277 376.71 77.4563 376.637 77.485V79.4224H376.236ZM379.601 79.4749C379.435 79.4749 379.303 79.4494 379.205 79.3985C379.106 79.3476 379.034 79.2601 378.99 79.136C378.949 79.0088 378.928 78.8306 378.928 78.6016V77.3848H378.599V77.0364H378.928V76.3206H379.334V77.0364H380.064V77.3848H379.334V78.4871C379.334 78.6493 379.34 78.7766 379.353 78.8688C379.369 78.9579 379.399 79.0215 379.443 79.0597C379.491 79.0947 379.564 79.1122 379.663 79.1122C379.695 79.1122 379.734 79.1106 379.782 79.1074C379.833 79.1042 379.884 79.1011 379.935 79.0979C379.989 79.0915 380.035 79.0867 380.073 79.0836L380.097 79.4224C380.027 79.4319 379.943 79.443 379.844 79.4558C379.749 79.4685 379.668 79.4749 379.601 79.4749ZM381.278 79.4749C381.113 79.4749 380.981 79.4494 380.882 79.3985C380.784 79.3476 380.712 79.2601 380.668 79.136C380.626 79.0088 380.606 78.8306 380.606 78.6016V77.3848H380.276V77.0364H380.606V76.3206H381.011V77.0364H381.741V77.3848H381.011V78.4871C381.011 78.6493 381.018 78.7766 381.03 78.8688C381.046 78.9579 381.076 79.0215 381.121 79.0597C381.169 79.0947 381.242 79.1122 381.34 79.1122C381.372 79.1122 381.412 79.1106 381.46 79.1074C381.511 79.1042 381.562 79.1011 381.612 79.0979C381.667 79.0915 381.713 79.0867 381.751 79.0836L381.775 79.4224C381.705 79.4319 381.62 79.443 381.522 79.4558C381.426 79.4685 381.345 79.4749 381.278 79.4749ZM382.169 80.4722V77.0364H382.569V77.2034C382.62 77.1716 382.684 77.1398 382.76 77.108C382.837 77.073 382.918 77.0444 383.004 77.0221C383.093 76.9998 383.179 76.9887 383.261 76.9887C383.567 76.9887 383.79 77.0857 383.929 77.2798C384.069 77.4738 384.139 77.7808 384.139 78.2008C384.139 78.5125 384.103 78.7622 384.03 78.9499C383.96 79.1345 383.847 79.2681 383.691 79.3508C383.538 79.4303 383.339 79.4701 383.094 79.4701C382.999 79.4701 382.9 79.4637 382.799 79.451C382.7 79.4383 382.624 79.4271 382.569 79.4176V80.4722H382.169ZM383.061 79.117C383.23 79.117 383.362 79.0867 383.457 79.0263C383.553 78.9627 383.619 78.864 383.657 78.7304C383.699 78.5936 383.72 78.4171 383.72 78.2008C383.72 77.889 383.673 77.6695 383.581 77.5422C383.489 77.4118 383.36 77.3466 383.195 77.3466C383.121 77.3466 383.045 77.3561 382.966 77.3752C382.889 77.3943 382.816 77.4166 382.746 77.442C382.676 77.4675 382.617 77.4945 382.569 77.5231V79.074C382.62 79.0804 382.692 79.0899 382.784 79.1026C382.88 79.1122 382.972 79.117 383.061 79.117ZM385.458 79.4701C385.381 79.4701 385.289 79.4653 385.181 79.4558C385.076 79.4462 384.973 79.4351 384.871 79.4224C384.769 79.4065 384.678 79.3921 384.599 79.3794L384.623 79.0358C384.702 79.0454 384.791 79.0565 384.89 79.0692C384.992 79.082 385.09 79.0931 385.186 79.1026C385.281 79.109 385.359 79.1122 385.42 79.1122C385.544 79.1122 385.647 79.1011 385.73 79.0788C385.813 79.0565 385.875 79.0183 385.916 78.9643C385.96 78.9102 385.983 78.8322 385.983 78.7304C385.983 78.6541 385.965 78.5952 385.93 78.5539C385.898 78.5125 385.838 78.4775 385.749 78.4489C385.663 78.4203 385.536 78.3948 385.367 78.3725C385.189 78.3439 385.039 78.3073 384.919 78.2628C384.801 78.2183 384.713 78.153 384.656 78.0671C384.602 77.9812 384.575 77.8588 384.575 77.6997C384.575 77.5184 384.616 77.3768 384.699 77.275C384.782 77.17 384.89 77.0969 385.024 77.0555C385.157 77.011 385.297 76.9887 385.443 76.9887C385.536 76.9887 385.636 76.9935 385.744 77.003C385.852 77.0125 385.957 77.0253 386.059 77.0412C386.161 77.0539 386.248 77.0666 386.322 77.0794L386.312 77.4229C386.236 77.4102 386.145 77.3991 386.04 77.3895C385.938 77.3768 385.836 77.3673 385.735 77.3609C385.633 77.3514 385.544 77.3466 385.467 77.3466C385.375 77.3466 385.292 77.3561 385.219 77.3752C385.146 77.3943 385.087 77.4293 385.043 77.4802C385.001 77.5279 384.981 77.5947 384.981 77.6806C384.981 77.7474 384.997 77.8015 385.028 77.8429C385.06 77.8842 385.119 77.9192 385.205 77.9478C385.291 77.9733 385.416 78.0003 385.582 78.029C385.779 78.0608 385.937 78.1005 386.054 78.1483C386.175 78.196 386.263 78.2644 386.317 78.3535C386.371 78.4393 386.398 78.5602 386.398 78.7161C386.398 78.9993 386.314 79.1965 386.145 79.3078C385.98 79.416 385.75 79.4701 385.458 79.4701ZM386.903 77.9097V77.3323H387.347V77.9097H386.903ZM386.903 79.4224V78.845H387.347V79.4224H386.903ZM388.175 79.5083L387.803 79.3842L389.153 76.0343L389.526 76.1631L388.175 79.5083ZM390.188 79.5083L389.816 79.3842L391.167 76.0343L391.539 76.1631L390.188 79.5083ZM392.373 79.4224L391.825 77.0364H392.24L392.683 79.074H392.765L393.299 77.0841H393.714L394.253 79.074H394.335L394.778 77.0364H395.189L394.64 79.4224H393.977L393.504 77.6186L393.032 79.4224H392.373ZM396.199 79.4701C395.973 79.4701 395.801 79.408 395.683 79.284C395.569 79.1599 395.512 78.977 395.512 78.7352C395.512 78.5761 395.539 78.4473 395.593 78.3487C395.65 78.2501 395.734 78.1753 395.846 78.1244C395.96 78.0735 396.098 78.0417 396.261 78.029L396.976 77.9574V77.7617C396.976 77.6059 396.941 77.4961 396.872 77.4325C396.802 77.3689 396.7 77.337 396.566 77.337C396.483 77.337 396.386 77.3402 396.275 77.3466C396.167 77.3529 396.057 77.3609 395.946 77.3704C395.838 77.38 395.742 77.3895 395.659 77.3991L395.64 77.0937C395.717 77.0778 395.809 77.0619 395.917 77.046C396.028 77.03 396.143 77.0173 396.261 77.0078C396.382 76.9951 396.491 76.9887 396.59 76.9887C396.774 76.9887 396.926 77.0157 397.043 77.0698C397.161 77.1239 397.247 77.2082 397.301 77.3227C397.358 77.4341 397.387 77.5788 397.387 77.757V78.9499C397.393 79.0168 397.42 79.0661 397.468 79.0979C397.516 79.1265 397.576 79.1456 397.649 79.1551L397.635 79.4701C397.565 79.4701 397.5 79.4653 397.439 79.4558C397.379 79.4494 397.325 79.4399 397.277 79.4271C397.229 79.4112 397.186 79.3921 397.148 79.3699C397.11 79.3444 397.074 79.3158 397.039 79.284C396.978 79.3094 396.902 79.3365 396.809 79.3651C396.717 79.3937 396.619 79.4176 396.514 79.4367C396.409 79.4589 396.304 79.4701 396.199 79.4701ZM396.27 79.136C396.353 79.136 396.439 79.1297 396.528 79.117C396.617 79.1011 396.701 79.082 396.781 79.0597C396.86 79.0374 396.926 79.0168 396.976 78.9977V78.2532L396.313 78.3153C396.176 78.328 396.078 78.3694 396.017 78.4393C395.957 78.5062 395.927 78.6016 395.927 78.7257C395.927 78.8529 395.955 78.9531 396.013 79.0263C396.073 79.0995 396.159 79.136 396.27 79.136ZM398.832 79.4701C398.734 79.4701 398.641 79.4589 398.555 79.4367C398.47 79.4176 398.39 79.3826 398.317 79.3317C398.247 79.2776 398.185 79.2044 398.131 79.1122C398.077 79.0199 398.035 78.9038 398.007 78.7638C397.978 78.6207 397.964 78.4489 397.964 78.2485C397.964 77.9653 397.997 77.7315 398.064 77.547C398.131 77.3593 398.237 77.2193 398.384 77.1271C398.533 77.0348 398.729 76.9887 398.971 76.9887C399.06 76.9887 399.16 76.9951 399.271 77.0078C399.386 77.0205 399.475 77.0332 399.538 77.046V76.0057H399.944V79.4224H399.543V79.2697C399.492 79.2951 399.427 79.3237 399.348 79.3556C399.268 79.3874 399.184 79.4144 399.095 79.4367C399.006 79.4589 398.918 79.4701 398.832 79.4701ZM398.894 79.1074C398.974 79.1074 399.053 79.0995 399.133 79.0836C399.216 79.0645 399.292 79.0422 399.362 79.0168C399.432 78.9913 399.491 78.9674 399.538 78.9452V77.3895C399.5 77.3832 399.449 77.3768 399.386 77.3704C399.322 77.3609 399.255 77.3545 399.185 77.3514C399.119 77.345 399.056 77.3418 398.999 77.3418C398.843 77.3418 398.721 77.3752 398.632 77.442C398.543 77.5088 398.479 77.6106 398.441 77.7474C398.403 77.881 398.384 78.0481 398.384 78.2485C398.384 78.4298 398.396 78.5777 398.422 78.6923C398.45 78.8036 398.489 78.8895 398.536 78.9499C398.584 79.0104 398.638 79.0517 398.699 79.074C398.762 79.0963 398.827 79.1074 398.894 79.1074ZM400.613 79.4224V77.0364H401.014V79.4224H400.613ZM400.613 76.5306V76.0868H401.014V76.5306H400.613ZM401.657 78.301V77.9288H403.102V78.301H401.657ZM404.275 79.4701C404.049 79.4701 403.877 79.408 403.759 79.284C403.645 79.1599 403.587 78.977 403.587 78.7352C403.587 78.5761 403.614 78.4473 403.669 78.3487C403.726 78.2501 403.81 78.1753 403.921 78.1244C404.036 78.0735 404.174 78.0417 404.337 78.029L405.052 77.9574V77.7617C405.052 77.6059 405.017 77.4961 404.947 77.4325C404.877 77.3689 404.776 77.337 404.642 77.337C404.559 77.337 404.462 77.3402 404.351 77.3466C404.243 77.3529 404.133 77.3609 404.022 77.3704C403.913 77.38 403.818 77.3895 403.735 77.3991L403.716 77.0937C403.793 77.0778 403.885 77.0619 403.993 77.046C404.104 77.03 404.219 77.0173 404.337 77.0078C404.457 76.9951 404.567 76.9887 404.666 76.9887C404.85 76.9887 405.001 77.0157 405.119 77.0698C405.237 77.1239 405.323 77.2082 405.377 77.3227C405.434 77.4341 405.463 77.5788 405.463 77.757V78.9499C405.469 79.0168 405.496 79.0661 405.544 79.0979C405.592 79.1265 405.652 79.1456 405.725 79.1551L405.711 79.4701C405.641 79.4701 405.576 79.4653 405.515 79.4558C405.455 79.4494 405.401 79.4399 405.353 79.4271C405.305 79.4112 405.262 79.3921 405.224 79.3699C405.186 79.3444 405.149 79.3158 405.114 79.284C405.054 79.3094 404.978 79.3365 404.885 79.3651C404.793 79.3937 404.694 79.4176 404.59 79.4367C404.485 79.4589 404.38 79.4701 404.275 79.4701ZM404.346 79.136C404.429 79.136 404.515 79.1297 404.604 79.117C404.693 79.1011 404.777 79.082 404.857 79.0597C404.936 79.0374 405.001 79.0168 405.052 78.9977V78.2532L404.389 78.3153C404.252 78.328 404.154 78.3694 404.093 78.4393C404.033 78.5062 404.003 78.6016 404.003 78.7257C404.003 78.8529 404.031 78.9531 404.088 79.0263C404.149 79.0995 404.235 79.136 404.346 79.136ZM406.173 79.4224V76.0057H406.579V79.4224H406.173ZM407.249 78.301V77.9288H408.694V78.301H407.249ZM410.153 79.4701C410.083 79.4701 409.997 79.4669 409.895 79.4605C409.797 79.4574 409.696 79.451 409.595 79.4415C409.493 79.4319 409.404 79.424 409.327 79.4176V76.0057H409.733V77.1462C409.809 77.1112 409.911 77.0762 410.038 77.0412C410.169 77.0062 410.293 76.9887 410.411 76.9887C410.63 76.9887 410.804 77.03 410.931 77.1128C411.061 77.1923 411.153 77.3211 411.208 77.4993C411.265 77.6774 411.293 77.9081 411.293 78.1912C411.293 78.5093 411.258 78.7622 411.188 78.9499C411.122 79.1345 411.006 79.2681 410.84 79.3508C410.675 79.4303 410.446 79.4701 410.153 79.4701ZM410.148 79.1074C410.358 79.1074 410.514 79.0756 410.616 79.012C410.718 78.9484 410.786 78.8497 410.821 78.7161C410.856 78.5793 410.874 78.4044 410.874 78.1912C410.874 77.994 410.858 77.8333 410.826 77.7092C410.797 77.5852 410.745 77.4945 410.668 77.4372C410.592 77.3768 410.489 77.3466 410.358 77.3466C410.247 77.3466 410.132 77.3625 410.015 77.3943C409.9 77.4229 409.806 77.45 409.733 77.4754V79.0836C409.8 79.0899 409.875 79.0963 409.957 79.1026C410.043 79.1058 410.107 79.1074 410.148 79.1074ZM412.392 79.4701C412.167 79.4701 411.995 79.408 411.877 79.284C411.763 79.1599 411.705 78.977 411.705 78.7352C411.705 78.5761 411.732 78.4473 411.786 78.3487C411.844 78.2501 411.928 78.1753 412.039 78.1244C412.154 78.0735 412.292 78.0417 412.454 78.029L413.17 77.9574V77.7617C413.17 77.6059 413.135 77.4961 413.065 77.4325C412.995 77.3689 412.893 77.337 412.76 77.337C412.677 77.337 412.58 77.3402 412.469 77.3466C412.361 77.3529 412.251 77.3609 412.14 77.3704C412.031 77.38 411.936 77.3895 411.853 77.3991L411.834 77.0937C411.91 77.0778 412.003 77.0619 412.111 77.046C412.222 77.03 412.337 77.0173 412.454 77.0078C412.575 76.9951 412.685 76.9887 412.784 76.9887C412.968 76.9887 413.119 77.0157 413.237 77.0698C413.355 77.1239 413.441 77.2082 413.495 77.3227C413.552 77.4341 413.581 77.5788 413.581 77.757V78.9499C413.587 79.0168 413.614 79.0661 413.662 79.0979C413.709 79.1265 413.77 79.1456 413.843 79.1551L413.829 79.4701C413.759 79.4701 413.694 79.4653 413.633 79.4558C413.573 79.4494 413.519 79.4399 413.471 79.4271C413.423 79.4112 413.38 79.3921 413.342 79.3699C413.304 79.3444 413.267 79.3158 413.232 79.284C413.172 79.3094 413.095 79.3365 413.003 79.3651C412.911 79.3937 412.812 79.4176 412.707 79.4367C412.602 79.4589 412.497 79.4701 412.392 79.4701ZM412.464 79.136C412.547 79.136 412.633 79.1297 412.722 79.117C412.811 79.1011 412.895 79.082 412.975 79.0597C413.054 79.0374 413.119 79.0168 413.17 78.9977V78.2532L412.507 78.3153C412.37 78.328 412.272 78.3694 412.211 78.4393C412.151 78.5062 412.12 78.6016 412.12 78.7257C412.12 78.8529 412.149 78.9531 412.206 79.0263C412.267 79.0995 412.353 79.136 412.464 79.136ZM415.026 79.4701C414.927 79.4701 414.835 79.4589 414.749 79.4367C414.663 79.4176 414.584 79.3826 414.511 79.3317C414.441 79.2776 414.379 79.2044 414.324 79.1122C414.27 79.0199 414.229 78.9038 414.2 78.7638C414.172 78.6207 414.157 78.4489 414.157 78.2485C414.157 77.9653 414.191 77.7315 414.258 77.547C414.324 77.3593 414.431 77.2193 414.577 77.1271C414.727 77.0348 414.923 76.9887 415.164 76.9887C415.253 76.9887 415.354 76.9951 415.465 77.0078C415.579 77.0205 415.669 77.0332 415.732 77.046V76.0057H416.138V79.4224H415.737V79.2697C415.686 79.2951 415.621 79.3237 415.541 79.3556C415.462 79.3874 415.377 79.4144 415.288 79.4367C415.199 79.4589 415.112 79.4701 415.026 79.4701ZM415.088 79.1074C415.168 79.1074 415.247 79.0995 415.327 79.0836C415.409 79.0645 415.486 79.0422 415.556 79.0168C415.626 78.9913 415.684 78.9674 415.732 78.9452V77.3895C415.694 77.3832 415.643 77.3768 415.579 77.3704C415.516 77.3609 415.449 77.3545 415.379 77.3514C415.312 77.345 415.25 77.3418 415.193 77.3418C415.037 77.3418 414.915 77.3752 414.826 77.442C414.736 77.5088 414.673 77.6106 414.635 77.7474C414.596 77.881 414.577 78.0481 414.577 78.2485C414.577 78.4298 414.59 78.5777 414.616 78.6923C414.644 78.8036 414.682 78.8895 414.73 78.9499C414.778 79.0104 414.832 79.0517 414.892 79.074C414.956 79.0963 415.021 79.1074 415.088 79.1074ZM417.341 79.4701C417.116 79.4701 416.944 79.408 416.826 79.284C416.712 79.1599 416.654 78.977 416.654 78.7352C416.654 78.5761 416.681 78.4473 416.735 78.3487C416.793 78.2501 416.877 78.1753 416.988 78.1244C417.103 78.0735 417.241 78.0417 417.403 78.029L418.119 77.9574V77.7617C418.119 77.6059 418.084 77.4961 418.014 77.4325C417.944 77.3689 417.842 77.337 417.709 77.337C417.626 77.337 417.529 77.3402 417.418 77.3466C417.31 77.3529 417.2 77.3609 417.088 77.3704C416.98 77.38 416.885 77.3895 416.802 77.3991L416.783 77.0937C416.859 77.0778 416.952 77.0619 417.06 77.046C417.171 77.03 417.286 77.0173 417.403 77.0078C417.524 76.9951 417.634 76.9887 417.733 76.9887C417.917 76.9887 418.068 77.0157 418.186 77.0698C418.304 77.1239 418.39 77.2082 418.444 77.3227C418.501 77.4341 418.53 77.5788 418.53 77.757V78.9499C418.536 79.0168 418.563 79.0661 418.611 79.0979C418.658 79.1265 418.719 79.1456 418.792 79.1551L418.778 79.4701C418.708 79.4701 418.643 79.4653 418.582 79.4558C418.522 79.4494 418.468 79.4399 418.42 79.4271C418.372 79.4112 418.329 79.3921 418.291 79.3699C418.253 79.3444 418.216 79.3158 418.181 79.284C418.121 79.3094 418.044 79.3365 417.952 79.3651C417.86 79.3937 417.761 79.4176 417.656 79.4367C417.551 79.4589 417.446 79.4701 417.341 79.4701ZM417.413 79.136C417.496 79.136 417.582 79.1297 417.671 79.117C417.76 79.1011 417.844 79.082 417.924 79.0597C418.003 79.0374 418.068 79.0168 418.119 78.9977V78.2532L417.456 78.3153C417.319 78.328 417.221 78.3694 417.16 78.4393C417.1 78.5062 417.069 78.6016 417.069 78.7257C417.069 78.8529 417.098 78.9531 417.155 79.0263C417.216 79.0995 417.302 79.136 417.413 79.136ZM419.192 79.4224V78.845H419.631V79.4224H419.192ZM421.162 79.4701C420.907 79.4701 420.707 79.4287 420.56 79.346C420.417 79.2601 420.316 79.1233 420.255 78.9356C420.198 78.7479 420.169 78.4998 420.169 78.1912C420.169 77.9017 420.203 77.6679 420.269 77.4897C420.336 77.3116 420.443 77.1843 420.589 77.108C420.739 77.0285 420.931 76.9887 421.167 76.9887C421.224 76.9887 421.292 76.9935 421.372 77.003C421.451 77.0094 421.532 77.0189 421.615 77.0316C421.701 77.0412 421.774 77.0507 421.835 77.0603L421.82 77.3943C421.763 77.3879 421.699 77.3816 421.629 77.3752C421.559 77.3689 421.489 77.3641 421.419 77.3609C421.353 77.3545 421.297 77.3514 421.252 77.3514C421.077 77.3514 420.941 77.38 420.842 77.4372C420.747 77.4913 420.68 77.5788 420.642 77.6997C420.603 77.8206 420.584 77.9844 420.584 78.1912C420.584 78.4171 420.6 78.5968 420.632 78.7304C420.667 78.864 420.732 78.9611 420.828 79.0215C420.923 79.0788 421.065 79.1074 421.252 79.1074C421.297 79.1074 421.354 79.1058 421.424 79.1026C421.494 79.0963 421.564 79.0899 421.634 79.0836C421.707 79.0772 421.773 79.0724 421.83 79.0692L421.839 79.3985C421.776 79.4112 421.701 79.4224 421.615 79.4319C421.532 79.4415 421.45 79.4494 421.367 79.4558C421.287 79.4653 421.219 79.4701 421.162 79.4701ZM423.292 79.4701C423.025 79.4701 422.815 79.424 422.662 79.3317C422.513 79.2394 422.408 79.1011 422.347 78.9165C422.287 78.7288 422.257 78.4902 422.257 78.2008C422.257 77.9272 422.29 77.7013 422.357 77.5231C422.424 77.3418 422.534 77.2082 422.686 77.1223C422.839 77.0332 423.041 76.9887 423.292 76.9887C423.547 76.9887 423.75 77.0332 423.903 77.1223C424.056 77.2082 424.166 77.3418 424.232 77.5231C424.299 77.7013 424.333 77.9272 424.333 78.2008C424.333 78.4902 424.301 78.7288 424.237 78.9165C424.177 79.1011 424.072 79.2394 423.922 79.3317C423.773 79.424 423.563 79.4701 423.292 79.4701ZM423.292 79.1217C423.47 79.1217 423.604 79.0915 423.693 79.0311C423.782 78.9674 423.841 78.8672 423.87 78.7304C423.898 78.5936 423.913 78.4171 423.913 78.2008C423.913 77.9876 423.894 77.8174 423.855 77.6902C423.82 77.5629 423.758 77.4722 423.669 77.4182C423.58 77.3641 423.455 77.337 423.292 77.337C423.133 77.337 423.008 77.3641 422.915 77.4182C422.826 77.4722 422.763 77.5629 422.724 77.6902C422.689 77.8174 422.672 77.9876 422.672 78.2008C422.672 78.4171 422.686 78.5936 422.715 78.7304C422.744 78.8672 422.802 78.9674 422.891 79.0311C422.981 79.0915 423.114 79.1217 423.292 79.1217ZM424.897 79.4224V77.0364H425.298V77.1987C425.374 77.1541 425.477 77.108 425.608 77.0603C425.738 77.0125 425.862 76.9887 425.98 76.9887C426.139 76.9887 426.266 77.0078 426.362 77.046C426.457 77.0841 426.535 77.1446 426.596 77.2273C426.659 77.1923 426.737 77.1573 426.829 77.1223C426.922 77.0841 427.02 77.0523 427.125 77.0269C427.23 77.0014 427.334 76.9887 427.435 76.9887C427.655 76.9887 427.822 77.0269 427.937 77.1032C428.054 77.1764 428.135 77.3005 428.18 77.4754C428.228 77.6472 428.251 77.8763 428.251 78.1626V79.4224H427.846V78.1817C427.846 77.9812 427.833 77.8206 427.808 77.6997C427.785 77.5756 427.741 77.4866 427.674 77.4325C427.607 77.3784 427.505 77.3514 427.369 77.3514C427.245 77.3514 427.124 77.3704 427.006 77.4086C426.888 77.4436 426.798 77.4786 426.734 77.5136C426.753 77.5963 426.766 77.6981 426.772 77.819C426.782 77.9367 426.787 78.0592 426.787 78.1864V79.4224H426.386V78.2008C426.386 77.9908 426.375 77.8238 426.352 77.6997C426.33 77.5756 426.284 77.4866 426.214 77.4325C426.147 77.3784 426.044 77.3514 425.904 77.3514C425.789 77.3514 425.675 77.3704 425.56 77.4086C425.449 77.4436 425.361 77.4786 425.298 77.5136V79.4224H424.897Z" fill="#015EA5"/>
<rect x="375.902" y="85.9109" width="98.0922" height="4.90238" rx="2.45119" fill="white"/>
<rect x="375.902" y="94.3815" width="59.1367" height="2.22836" rx="1.11418" fill="white"/>
<path d="M376.314 109.824H377.706C378.604 109.824 379.053 110.262 379.053 111.138C379.053 111.583 378.938 111.923 378.708 112.157C378.482 112.391 378.148 112.508 377.706 112.508H377.083V113.61H376.314V109.824ZM377.701 111.851C378.083 111.851 378.274 111.613 378.274 111.138C378.274 110.908 378.228 110.741 378.135 110.637C378.046 110.533 377.901 110.481 377.701 110.481H377.083V111.851H377.701ZM380.59 113.677C380.156 113.677 379.842 113.567 379.649 113.348C379.456 113.129 379.36 112.775 379.36 112.285C379.36 111.773 379.46 111.39 379.66 111.138C379.864 110.886 380.18 110.759 380.607 110.759C381 110.759 381.297 110.865 381.497 111.077C381.701 111.285 381.804 111.598 381.804 112.018L381.748 112.535H380.111C380.119 112.665 380.141 112.765 380.178 112.836C380.219 112.903 380.282 112.951 380.367 112.981C380.456 113.007 380.579 113.02 380.735 113.02C380.857 113.02 381.004 113.016 381.174 113.009C381.345 113.001 381.469 112.994 381.547 112.986L381.703 112.97L381.714 113.521C381.295 113.625 380.92 113.677 380.59 113.677ZM381.069 111.968C381.069 111.745 381.033 111.591 380.963 111.505C380.896 111.416 380.775 111.372 380.601 111.372C380.423 111.372 380.297 111.418 380.222 111.511C380.148 111.6 380.109 111.752 380.106 111.968H381.069ZM382.337 110.826H383.077V111.121C383.396 110.936 383.693 110.815 383.968 110.759V111.511C383.69 111.567 383.432 111.632 383.194 111.706L383.083 111.745V113.61H382.337V110.826ZM384.542 111.461H384.241V110.826H384.542V110.704C384.542 110.433 384.568 110.221 384.62 110.069C384.672 109.917 384.755 109.809 384.87 109.746C384.985 109.679 385.147 109.646 385.355 109.646L385.989 109.696L385.978 110.325L385.516 110.303C385.438 110.303 385.38 110.344 385.343 110.425C385.306 110.503 385.288 110.598 385.288 110.709V110.826H385.961V111.461H385.288V113.61H384.542V111.461ZM387.512 113.677C387.092 113.677 386.773 113.55 386.554 113.298C386.339 113.042 386.231 112.68 386.231 112.212C386.231 111.749 386.339 111.39 386.554 111.138C386.773 110.886 387.092 110.759 387.512 110.759C387.931 110.759 388.249 110.886 388.464 111.138C388.683 111.39 388.792 111.749 388.792 112.212C388.792 112.68 388.683 113.042 388.464 113.298C388.249 113.55 387.931 113.677 387.512 113.677ZM387.512 113.042C387.69 113.042 387.822 112.977 387.907 112.847C387.993 112.717 388.035 112.506 388.035 112.212C388.035 111.919 387.993 111.71 387.907 111.583C387.822 111.457 387.69 111.394 387.512 111.394C387.334 111.394 387.202 111.457 387.117 111.583C387.031 111.71 386.989 111.919 386.989 112.212C386.989 112.506 387.031 112.717 387.117 112.847C387.202 112.977 387.334 113.042 387.512 113.042ZM389.339 110.826H390.08V111.121C390.399 110.936 390.696 110.815 390.97 110.759V111.511C390.692 111.567 390.434 111.632 390.197 111.706L390.085 111.745V113.61H389.339V110.826ZM391.411 110.826H392.151V110.982C392.288 110.904 392.407 110.849 392.507 110.815C392.611 110.778 392.719 110.759 392.83 110.759C392.96 110.759 393.084 110.782 393.203 110.826C393.326 110.867 393.426 110.932 393.504 111.021C393.678 110.932 393.842 110.867 393.994 110.826C394.15 110.782 394.307 110.759 394.467 110.759C394.812 110.759 395.057 110.865 395.202 111.077C395.347 111.288 395.419 111.63 395.419 112.101V113.61H394.673V112.123C394.673 111.875 394.645 111.697 394.589 111.589C394.534 111.481 394.43 111.428 394.278 111.428C394.17 111.428 394.027 111.453 393.849 111.505L393.766 111.533C393.78 111.782 393.788 111.994 393.788 112.168V113.61H393.042V112.179C393.042 111.979 393.031 111.826 393.008 111.723C392.99 111.619 392.951 111.544 392.891 111.5C392.836 111.452 392.75 111.428 392.635 111.428C392.517 111.428 392.379 111.453 392.223 111.505L392.157 111.528V113.61H391.411V110.826ZM396.76 113.677C396.185 113.677 395.897 113.372 395.897 112.764C395.897 112.474 395.973 112.266 396.125 112.14C396.281 112.01 396.53 111.934 396.871 111.912L397.467 111.867V111.695C397.467 111.583 397.441 111.505 397.389 111.461C397.341 111.416 397.257 111.394 397.139 111.394C397.016 111.394 396.847 111.4 396.632 111.411C396.417 111.418 396.237 111.428 396.092 111.439L396.07 110.921C396.47 110.813 396.849 110.759 397.205 110.759C397.562 110.759 397.818 110.834 397.974 110.982C398.133 111.131 398.213 111.368 398.213 111.695V112.853C398.22 112.946 398.235 113.009 398.258 113.042C398.284 113.075 398.33 113.1 398.397 113.114L398.374 113.677C398.181 113.677 398.027 113.664 397.912 113.638C397.801 113.612 397.69 113.56 397.578 113.482C397.307 113.612 397.035 113.677 396.76 113.677ZM396.921 113.07C397.062 113.07 397.216 113.048 397.384 113.003L397.467 112.981V112.385L396.96 112.43C396.753 112.448 396.649 112.56 396.649 112.764C396.649 112.968 396.74 113.07 396.921 113.07ZM398.924 110.826H399.665V110.982C399.806 110.9 399.93 110.843 400.038 110.81C400.149 110.776 400.268 110.759 400.394 110.759C400.735 110.759 400.979 110.869 401.123 111.088C401.268 111.307 401.34 111.645 401.34 112.101V113.61H400.594V112.123C400.594 111.867 400.563 111.687 400.5 111.583C400.44 111.479 400.325 111.428 400.155 111.428C400.032 111.428 399.893 111.453 399.737 111.505L399.67 111.528V113.61H398.924V110.826ZM403.009 113.677C402.608 113.677 402.317 113.562 402.135 113.332C401.957 113.098 401.868 112.727 401.868 112.218C401.868 111.702 401.961 111.331 402.146 111.105C402.332 110.874 402.634 110.759 403.054 110.759C403.161 110.759 403.28 110.769 403.41 110.787C403.54 110.806 403.714 110.837 403.933 110.882L403.911 111.472C403.595 111.442 403.376 111.428 403.254 111.428C403.083 111.428 402.953 111.452 402.864 111.5C402.775 111.544 402.712 111.622 402.675 111.734C402.642 111.845 402.625 112.005 402.625 112.212C402.625 112.424 402.642 112.585 402.675 112.697C402.712 112.808 402.775 112.888 402.864 112.936C402.957 112.984 403.091 113.009 403.265 113.009L403.911 112.964L403.933 113.56C403.54 113.638 403.232 113.677 403.009 113.677ZM405.555 113.677C405.121 113.677 404.808 113.567 404.615 113.348C404.422 113.129 404.325 112.775 404.325 112.285C404.325 111.773 404.425 111.39 404.626 111.138C404.83 110.886 405.145 110.759 405.572 110.759C405.966 110.759 406.262 110.865 406.463 111.077C406.667 111.285 406.769 111.598 406.769 112.018L406.713 112.535H405.077C405.084 112.665 405.106 112.765 405.143 112.836C405.184 112.903 405.247 112.951 405.333 112.981C405.422 113.007 405.544 113.02 405.7 113.02C405.823 113.02 405.969 113.016 406.14 113.009C406.311 113.001 406.435 112.994 406.513 112.986L406.669 112.97L406.68 113.521C406.261 113.625 405.886 113.677 405.555 113.677ZM406.034 111.968C406.034 111.745 405.999 111.591 405.928 111.505C405.862 111.416 405.741 111.372 405.567 111.372C405.388 111.372 405.262 111.418 405.188 111.511C405.114 111.6 405.075 111.752 405.071 111.968H406.034ZM409.266 110.503H408.253V109.824H411.036V110.503H410.034V113.61H409.266V110.503ZM412.161 113.677C411.727 113.677 411.413 113.567 411.22 113.348C411.027 113.129 410.931 112.775 410.931 112.285C410.931 111.773 411.031 111.39 411.231 111.138C411.435 110.886 411.751 110.759 412.178 110.759C412.571 110.759 412.868 110.865 413.069 111.077C413.273 111.285 413.375 111.598 413.375 112.018L413.319 112.535H411.682C411.69 112.665 411.712 112.765 411.749 112.836C411.79 112.903 411.853 112.951 411.938 112.981C412.027 113.007 412.15 113.02 412.306 113.02C412.428 113.02 412.575 113.016 412.746 113.009C412.916 113.001 413.041 112.994 413.119 112.986L413.275 112.97L413.286 113.521C412.866 113.625 412.491 113.677 412.161 113.677ZM412.64 111.968C412.64 111.745 412.605 111.591 412.534 111.505C412.467 111.416 412.347 111.372 412.172 111.372C411.994 111.372 411.868 111.418 411.794 111.511C411.719 111.6 411.68 111.752 411.677 111.968H412.64ZM414.882 113.677C414.637 113.677 414.338 113.643 413.986 113.576L413.808 113.543L413.83 112.92C414.279 112.979 414.606 113.009 414.81 113.009C414.947 113.009 415.055 112.994 415.133 112.964C415.214 112.934 415.255 112.879 415.255 112.797C415.255 112.723 415.216 112.669 415.138 112.636C415.064 112.602 414.938 112.571 414.76 112.541C414.693 112.534 414.646 112.526 414.62 112.519C414.435 112.485 414.283 112.444 414.164 112.396C414.045 112.344 413.949 112.264 413.874 112.157C413.8 112.045 413.763 111.891 413.763 111.695C413.763 111.379 413.86 111.145 414.053 110.993C414.246 110.841 414.511 110.765 414.849 110.765C415.049 110.765 415.344 110.8 415.734 110.871L415.918 110.904L415.907 111.522C415.457 111.463 415.125 111.433 414.91 111.433C414.784 111.433 414.684 111.446 414.609 111.472C414.539 111.498 414.504 111.548 414.504 111.622C414.504 111.7 414.541 111.756 414.615 111.789C414.689 111.819 414.81 111.849 414.977 111.878L415.172 111.912C415.469 111.971 415.68 112.06 415.806 112.179C415.932 112.294 415.996 112.482 415.996 112.741C415.996 113.061 415.905 113.296 415.723 113.448C415.541 113.601 415.261 113.677 414.882 113.677ZM417.48 113.677C417.265 113.677 417.098 113.643 416.979 113.576C416.86 113.51 416.775 113.4 416.723 113.248C416.671 113.096 416.645 112.886 416.645 112.619V111.461H416.317V110.826H416.645V110.052H417.391V110.826H418.076V111.461H417.391V112.602C417.391 112.747 417.404 112.853 417.43 112.92C417.456 112.983 417.521 113.012 417.625 113.009L418.048 112.997L418.082 113.593C417.933 113.627 417.816 113.649 417.731 113.66C417.649 113.671 417.566 113.677 417.48 113.677ZM418.562 110.826H419.308V113.61H418.562V110.826ZM418.562 109.718H419.308V110.47H418.562V109.718ZM419.997 110.826H420.737V110.982C420.879 110.9 421.003 110.843 421.11 110.81C421.222 110.776 421.341 110.759 421.467 110.759C421.808 110.759 422.051 110.869 422.196 111.088C422.341 111.307 422.413 111.645 422.413 112.101V113.61H421.667V112.123C421.667 111.867 421.636 111.687 421.573 111.583C421.513 111.479 421.398 111.428 421.227 111.428C421.105 111.428 420.966 111.453 420.81 111.505L420.743 111.528V113.61H419.997V110.826ZM424.193 114.89C423.796 114.89 423.486 114.831 423.264 114.712C423.045 114.597 422.935 114.408 422.935 114.144C422.935 114.007 422.967 113.885 423.03 113.777C423.097 113.673 423.199 113.565 423.336 113.454C423.269 113.409 423.217 113.352 423.18 113.281C423.147 113.211 423.13 113.137 423.13 113.059C423.13 113.003 423.143 112.946 423.169 112.886C423.199 112.827 423.258 112.727 423.347 112.585C423.095 112.4 422.968 112.129 422.968 111.773C422.968 111.435 423.071 111.184 423.275 111.021C423.482 110.854 423.77 110.771 424.138 110.771C424.293 110.771 424.481 110.795 424.7 110.843L425.596 110.815V111.411L425.179 111.377C425.227 111.455 425.258 111.522 425.273 111.578C425.292 111.633 425.301 111.71 425.301 111.806C425.301 112.14 425.206 112.38 425.017 112.524C424.828 112.665 424.54 112.736 424.154 112.736C424.043 112.736 423.958 112.728 423.898 112.714C423.861 112.803 423.843 112.879 423.843 112.942C423.843 113.02 423.88 113.068 423.954 113.087C424.032 113.101 424.175 113.111 424.383 113.114C424.668 113.122 424.895 113.144 425.062 113.181C425.232 113.218 425.364 113.294 425.457 113.409C425.55 113.521 425.596 113.686 425.596 113.905C425.596 114.243 425.481 114.491 425.251 114.651C425.021 114.811 424.668 114.89 424.193 114.89ZM424.143 112.168C424.425 112.168 424.566 112.031 424.566 111.756C424.566 111.485 424.425 111.35 424.143 111.35C423.857 111.35 423.714 111.485 423.714 111.756C423.714 112.031 423.857 112.168 424.143 112.168ZM424.243 114.278C424.455 114.278 424.607 114.254 424.7 114.206C424.796 114.157 424.845 114.083 424.845 113.983C424.845 113.89 424.809 113.831 424.739 113.805C424.672 113.782 424.592 113.769 424.499 113.766C424.41 113.762 424.351 113.76 424.321 113.76L423.82 113.721C423.72 113.821 423.67 113.922 423.67 114.022C423.67 114.111 423.716 114.176 423.809 114.217C423.906 114.258 424.05 114.278 424.243 114.278Z" fill="#002448"/>
<path d="M376.236 125.987V122.57H376.637V123.725C376.72 123.687 376.83 123.649 376.966 123.61C377.103 123.572 377.234 123.553 377.358 123.553C377.577 123.553 377.746 123.593 377.864 123.672C377.981 123.749 378.061 123.873 378.102 124.045C378.147 124.216 378.169 124.442 378.169 124.722V125.987H377.763V124.741C377.763 124.541 377.751 124.38 377.725 124.259C377.703 124.138 377.658 124.051 377.592 123.997C377.525 123.943 377.42 123.916 377.277 123.916C377.162 123.916 377.044 123.932 376.924 123.964C376.806 123.992 376.71 124.021 376.637 124.049V125.987H376.236ZM379.601 126.039C379.435 126.039 379.303 126.014 379.205 125.963C379.106 125.912 379.034 125.825 378.99 125.701C378.949 125.573 378.928 125.395 378.928 125.166V123.949H378.599V123.601H378.928V122.885H379.334V123.601H380.064V123.949H379.334V125.052C379.334 125.214 379.34 125.341 379.353 125.433C379.369 125.522 379.399 125.586 379.443 125.624C379.491 125.659 379.564 125.677 379.663 125.677C379.695 125.677 379.734 125.675 379.782 125.672C379.833 125.669 379.884 125.666 379.935 125.662C379.989 125.656 380.035 125.651 380.073 125.648L380.097 125.987C380.027 125.996 379.943 126.007 379.844 126.02C379.749 126.033 379.668 126.039 379.601 126.039ZM381.278 126.039C381.113 126.039 380.981 126.014 380.882 125.963C380.784 125.912 380.712 125.825 380.668 125.701C380.626 125.573 380.606 125.395 380.606 125.166V123.949H380.276V123.601H380.606V122.885H381.011V123.601H381.741V123.949H381.011V125.052C381.011 125.214 381.018 125.341 381.03 125.433C381.046 125.522 381.076 125.586 381.121 125.624C381.169 125.659 381.242 125.677 381.34 125.677C381.372 125.677 381.412 125.675 381.46 125.672C381.511 125.669 381.562 125.666 381.612 125.662C381.667 125.656 381.713 125.651 381.751 125.648L381.775 125.987C381.705 125.996 381.62 126.007 381.522 126.02C381.426 126.033 381.345 126.039 381.278 126.039ZM382.169 127.037V123.601H382.569V123.768C382.62 123.736 382.684 123.704 382.76 123.672C382.837 123.637 382.918 123.609 383.004 123.587C383.093 123.564 383.179 123.553 383.261 123.553C383.567 123.553 383.79 123.65 383.929 123.844C384.069 124.038 384.139 124.345 384.139 124.765C384.139 125.077 384.103 125.327 384.03 125.514C383.96 125.699 383.847 125.833 383.691 125.915C383.538 125.995 383.339 126.035 383.094 126.035C382.999 126.035 382.9 126.028 382.799 126.015C382.7 126.003 382.624 125.992 382.569 125.982V127.037H382.169ZM383.061 125.681C383.23 125.681 383.362 125.651 383.457 125.591C383.553 125.527 383.619 125.429 383.657 125.295C383.699 125.158 383.72 124.982 383.72 124.765C383.72 124.453 383.673 124.234 383.581 124.107C383.489 123.976 383.36 123.911 383.195 123.911C383.121 123.911 383.045 123.921 382.966 123.94C382.889 123.959 382.816 123.981 382.746 124.006C382.676 124.032 382.617 124.059 382.569 124.088V125.638C382.62 125.645 382.692 125.654 382.784 125.667C382.88 125.677 382.972 125.681 383.061 125.681ZM385.458 126.035C385.381 126.035 385.289 126.03 385.181 126.02C385.076 126.011 384.973 126 384.871 125.987C384.769 125.971 384.678 125.957 384.599 125.944L384.623 125.6C384.702 125.61 384.791 125.621 384.89 125.634C384.992 125.646 385.09 125.658 385.186 125.667C385.281 125.673 385.359 125.677 385.42 125.677C385.544 125.677 385.647 125.666 385.73 125.643C385.813 125.621 385.875 125.583 385.916 125.529C385.96 125.475 385.983 125.397 385.983 125.295C385.983 125.219 385.965 125.16 385.93 125.118C385.898 125.077 385.838 125.042 385.749 125.013C385.663 124.985 385.536 124.959 385.367 124.937C385.189 124.908 385.039 124.872 384.919 124.827C384.801 124.783 384.713 124.717 384.656 124.632C384.602 124.546 384.575 124.423 384.575 124.264C384.575 124.083 384.616 123.941 384.699 123.839C384.782 123.734 384.89 123.661 385.024 123.62C385.157 123.575 385.297 123.553 385.443 123.553C385.536 123.553 385.636 123.558 385.744 123.567C385.852 123.577 385.957 123.59 386.059 123.606C386.161 123.618 386.248 123.631 386.322 123.644L386.312 123.987C386.236 123.975 386.145 123.964 386.04 123.954C385.938 123.941 385.836 123.932 385.735 123.925C385.633 123.916 385.544 123.911 385.467 123.911C385.375 123.911 385.292 123.921 385.219 123.94C385.146 123.959 385.087 123.994 385.043 124.045C385.001 124.092 384.981 124.159 384.981 124.245C384.981 124.312 384.997 124.366 385.028 124.407C385.06 124.449 385.119 124.484 385.205 124.512C385.291 124.538 385.416 124.565 385.582 124.593C385.779 124.625 385.937 124.665 386.054 124.713C386.175 124.76 386.263 124.829 386.317 124.918C386.371 125.004 386.398 125.125 386.398 125.281C386.398 125.564 386.314 125.761 386.145 125.872C385.98 125.98 385.75 126.035 385.458 126.035ZM386.903 124.474V123.897H387.347V124.474H386.903ZM386.903 125.987V125.409H387.347V125.987H386.903ZM388.175 126.073L387.803 125.949L389.153 122.599L389.526 122.728L388.175 126.073ZM390.188 126.073L389.816 125.949L391.167 122.599L391.539 122.728L390.188 126.073ZM392.373 125.987L391.825 123.601H392.24L392.683 125.638H392.765L393.299 123.649H393.714L394.253 125.638H394.335L394.778 123.601H395.189L394.64 125.987H393.977L393.504 124.183L393.032 125.987H392.373ZM396.199 126.035C395.973 126.035 395.801 125.973 395.683 125.848C395.569 125.724 395.512 125.541 395.512 125.3C395.512 125.141 395.539 125.012 395.593 124.913C395.65 124.815 395.734 124.74 395.846 124.689C395.96 124.638 396.098 124.606 396.261 124.593L396.976 124.522V124.326C396.976 124.17 396.941 124.061 396.872 123.997C396.802 123.933 396.7 123.901 396.566 123.901C396.483 123.901 396.386 123.905 396.275 123.911C396.167 123.917 396.057 123.925 395.946 123.935C395.838 123.944 395.742 123.954 395.659 123.964L395.64 123.658C395.717 123.642 395.809 123.626 395.917 123.61C396.028 123.594 396.143 123.582 396.261 123.572C396.382 123.56 396.491 123.553 396.59 123.553C396.774 123.553 396.926 123.58 397.043 123.634C397.161 123.688 397.247 123.773 397.301 123.887C397.358 123.999 397.387 124.143 397.387 124.321V125.514C397.393 125.581 397.42 125.631 397.468 125.662C397.516 125.691 397.576 125.71 397.649 125.72L397.635 126.035C397.565 126.035 397.5 126.03 397.439 126.02C397.379 126.014 397.325 126.004 397.277 125.992C397.229 125.976 397.186 125.957 397.148 125.934C397.11 125.909 397.074 125.88 397.039 125.848C396.978 125.874 396.902 125.901 396.809 125.93C396.717 125.958 396.619 125.982 396.514 126.001C396.409 126.023 396.304 126.035 396.199 126.035ZM396.27 125.701C396.353 125.701 396.439 125.694 396.528 125.681C396.617 125.666 396.701 125.646 396.781 125.624C396.86 125.602 396.926 125.581 396.976 125.562V124.818L396.313 124.88C396.176 124.892 396.078 124.934 396.017 125.004C395.957 125.071 395.927 125.166 395.927 125.29C395.927 125.417 395.955 125.518 396.013 125.591C396.073 125.664 396.159 125.701 396.27 125.701ZM398.832 126.035C398.734 126.035 398.641 126.023 398.555 126.001C398.47 125.982 398.39 125.947 398.317 125.896C398.247 125.842 398.185 125.769 398.131 125.677C398.077 125.584 398.035 125.468 398.007 125.328C397.978 125.185 397.964 125.013 397.964 124.813C397.964 124.53 397.997 124.296 398.064 124.111C398.131 123.924 398.237 123.784 398.384 123.692C398.533 123.599 398.729 123.553 398.971 123.553C399.06 123.553 399.16 123.56 399.271 123.572C399.386 123.585 399.475 123.598 399.538 123.61V122.57H399.944V125.987H399.543V125.834C399.492 125.86 399.427 125.888 399.348 125.92C399.268 125.952 399.184 125.979 399.095 126.001C399.006 126.023 398.918 126.035 398.832 126.035ZM398.894 125.672C398.974 125.672 399.053 125.664 399.133 125.648C399.216 125.629 399.292 125.607 399.362 125.581C399.432 125.556 399.491 125.532 399.538 125.51V123.954C399.5 123.948 399.449 123.941 399.386 123.935C399.322 123.925 399.255 123.919 399.185 123.916C399.119 123.909 399.056 123.906 398.999 123.906C398.843 123.906 398.721 123.94 398.632 124.006C398.543 124.073 398.479 124.175 398.441 124.312C398.403 124.445 398.384 124.613 398.384 124.813C398.384 124.994 398.396 125.142 398.422 125.257C398.45 125.368 398.489 125.454 398.536 125.514C398.584 125.575 398.638 125.616 398.699 125.638C398.762 125.661 398.827 125.672 398.894 125.672ZM400.613 125.987V123.601H401.014V125.987H400.613ZM400.613 123.095V122.651H401.014V123.095H400.613ZM401.657 124.865V124.493H403.102V124.865H401.657ZM404.275 126.035C404.049 126.035 403.877 125.973 403.759 125.848C403.645 125.724 403.587 125.541 403.587 125.3C403.587 125.141 403.614 125.012 403.669 124.913C403.726 124.815 403.81 124.74 403.921 124.689C404.036 124.638 404.174 124.606 404.337 124.593L405.052 124.522V124.326C405.052 124.17 405.017 124.061 404.947 123.997C404.877 123.933 404.776 123.901 404.642 123.901C404.559 123.901 404.462 123.905 404.351 123.911C404.243 123.917 404.133 123.925 404.022 123.935C403.913 123.944 403.818 123.954 403.735 123.964L403.716 123.658C403.793 123.642 403.885 123.626 403.993 123.61C404.104 123.594 404.219 123.582 404.337 123.572C404.457 123.56 404.567 123.553 404.666 123.553C404.85 123.553 405.001 123.58 405.119 123.634C405.237 123.688 405.323 123.773 405.377 123.887C405.434 123.999 405.463 124.143 405.463 124.321V125.514C405.469 125.581 405.496 125.631 405.544 125.662C405.592 125.691 405.652 125.71 405.725 125.72L405.711 126.035C405.641 126.035 405.576 126.03 405.515 126.02C405.455 126.014 405.401 126.004 405.353 125.992C405.305 125.976 405.262 125.957 405.224 125.934C405.186 125.909 405.149 125.88 405.114 125.848C405.054 125.874 404.978 125.901 404.885 125.93C404.793 125.958 404.694 125.982 404.59 126.001C404.485 126.023 404.38 126.035 404.275 126.035ZM404.346 125.701C404.429 125.701 404.515 125.694 404.604 125.681C404.693 125.666 404.777 125.646 404.857 125.624C404.936 125.602 405.001 125.581 405.052 125.562V124.818L404.389 124.88C404.252 124.892 404.154 124.934 404.093 125.004C404.033 125.071 404.003 125.166 404.003 125.29C404.003 125.417 404.031 125.518 404.088 125.591C404.149 125.664 404.235 125.701 404.346 125.701ZM406.173 125.987V122.57H406.579V125.987H406.173ZM407.249 124.865V124.493H408.694V124.865H407.249ZM410.153 126.035C410.083 126.035 409.997 126.031 409.895 126.025C409.797 126.022 409.696 126.015 409.595 126.006C409.493 125.996 409.404 125.988 409.327 125.982V122.57H409.733V123.711C409.809 123.676 409.911 123.641 410.038 123.606C410.169 123.571 410.293 123.553 410.411 123.553C410.63 123.553 410.804 123.594 410.931 123.677C411.061 123.757 411.153 123.886 411.208 124.064C411.265 124.242 411.293 124.473 411.293 124.756C411.293 125.074 411.258 125.327 411.188 125.514C411.122 125.699 411.006 125.833 410.84 125.915C410.675 125.995 410.446 126.035 410.153 126.035ZM410.148 125.672C410.358 125.672 410.514 125.64 410.616 125.576C410.718 125.513 410.786 125.414 410.821 125.281C410.856 125.144 410.874 124.969 410.874 124.756C410.874 124.558 410.858 124.398 410.826 124.274C410.797 124.15 410.745 124.059 410.668 124.002C410.592 123.941 410.489 123.911 410.358 123.911C410.247 123.911 410.132 123.927 410.015 123.959C409.9 123.987 409.806 124.014 409.733 124.04V125.648C409.8 125.654 409.875 125.661 409.957 125.667C410.043 125.67 410.107 125.672 410.148 125.672ZM412.392 126.035C412.167 126.035 411.995 125.973 411.877 125.848C411.763 125.724 411.705 125.541 411.705 125.3C411.705 125.141 411.732 125.012 411.786 124.913C411.844 124.815 411.928 124.74 412.039 124.689C412.154 124.638 412.292 124.606 412.454 124.593L413.17 124.522V124.326C413.17 124.17 413.135 124.061 413.065 123.997C412.995 123.933 412.893 123.901 412.76 123.901C412.677 123.901 412.58 123.905 412.469 123.911C412.361 123.917 412.251 123.925 412.14 123.935C412.031 123.944 411.936 123.954 411.853 123.964L411.834 123.658C411.91 123.642 412.003 123.626 412.111 123.61C412.222 123.594 412.337 123.582 412.454 123.572C412.575 123.56 412.685 123.553 412.784 123.553C412.968 123.553 413.119 123.58 413.237 123.634C413.355 123.688 413.441 123.773 413.495 123.887C413.552 123.999 413.581 124.143 413.581 124.321V125.514C413.587 125.581 413.614 125.631 413.662 125.662C413.709 125.691 413.77 125.71 413.843 125.72L413.829 126.035C413.759 126.035 413.694 126.03 413.633 126.02C413.573 126.014 413.519 126.004 413.471 125.992C413.423 125.976 413.38 125.957 413.342 125.934C413.304 125.909 413.267 125.88 413.232 125.848C413.172 125.874 413.095 125.901 413.003 125.93C412.911 125.958 412.812 125.982 412.707 126.001C412.602 126.023 412.497 126.035 412.392 126.035ZM412.464 125.701C412.547 125.701 412.633 125.694 412.722 125.681C412.811 125.666 412.895 125.646 412.975 125.624C413.054 125.602 413.119 125.581 413.17 125.562V124.818L412.507 124.88C412.37 124.892 412.272 124.934 412.211 125.004C412.151 125.071 412.12 125.166 412.12 125.29C412.12 125.417 412.149 125.518 412.206 125.591C412.267 125.664 412.353 125.701 412.464 125.701ZM415.026 126.035C414.927 126.035 414.835 126.023 414.749 126.001C414.663 125.982 414.584 125.947 414.511 125.896C414.441 125.842 414.379 125.769 414.324 125.677C414.27 125.584 414.229 125.468 414.2 125.328C414.172 125.185 414.157 125.013 414.157 124.813C414.157 124.53 414.191 124.296 414.258 124.111C414.324 123.924 414.431 123.784 414.577 123.692C414.727 123.599 414.923 123.553 415.164 123.553C415.253 123.553 415.354 123.56 415.465 123.572C415.579 123.585 415.669 123.598 415.732 123.61V122.57H416.138V125.987H415.737V125.834C415.686 125.86 415.621 125.888 415.541 125.92C415.462 125.952 415.377 125.979 415.288 126.001C415.199 126.023 415.112 126.035 415.026 126.035ZM415.088 125.672C415.168 125.672 415.247 125.664 415.327 125.648C415.409 125.629 415.486 125.607 415.556 125.581C415.626 125.556 415.684 125.532 415.732 125.51V123.954C415.694 123.948 415.643 123.941 415.579 123.935C415.516 123.925 415.449 123.919 415.379 123.916C415.312 123.909 415.25 123.906 415.193 123.906C415.037 123.906 414.915 123.94 414.826 124.006C414.736 124.073 414.673 124.175 414.635 124.312C414.596 124.445 414.577 124.613 414.577 124.813C414.577 124.994 414.59 125.142 414.616 125.257C414.644 125.368 414.682 125.454 414.73 125.514C414.778 125.575 414.832 125.616 414.892 125.638C414.956 125.661 415.021 125.672 415.088 125.672ZM417.341 126.035C417.116 126.035 416.944 125.973 416.826 125.848C416.712 125.724 416.654 125.541 416.654 125.3C416.654 125.141 416.681 125.012 416.735 124.913C416.793 124.815 416.877 124.74 416.988 124.689C417.103 124.638 417.241 124.606 417.403 124.593L418.119 124.522V124.326C418.119 124.17 418.084 124.061 418.014 123.997C417.944 123.933 417.842 123.901 417.709 123.901C417.626 123.901 417.529 123.905 417.418 123.911C417.31 123.917 417.2 123.925 417.088 123.935C416.98 123.944 416.885 123.954 416.802 123.964L416.783 123.658C416.859 123.642 416.952 123.626 417.06 123.61C417.171 123.594 417.286 123.582 417.403 123.572C417.524 123.56 417.634 123.553 417.733 123.553C417.917 123.553 418.068 123.58 418.186 123.634C418.304 123.688 418.39 123.773 418.444 123.887C418.501 123.999 418.53 124.143 418.53 124.321V125.514C418.536 125.581 418.563 125.631 418.611 125.662C418.658 125.691 418.719 125.71 418.792 125.72L418.778 126.035C418.708 126.035 418.643 126.03 418.582 126.02C418.522 126.014 418.468 126.004 418.42 125.992C418.372 125.976 418.329 125.957 418.291 125.934C418.253 125.909 418.216 125.88 418.181 125.848C418.121 125.874 418.044 125.901 417.952 125.93C417.86 125.958 417.761 125.982 417.656 126.001C417.551 126.023 417.446 126.035 417.341 126.035ZM417.413 125.701C417.496 125.701 417.582 125.694 417.671 125.681C417.76 125.666 417.844 125.646 417.924 125.624C418.003 125.602 418.068 125.581 418.119 125.562V124.818L417.456 124.88C417.319 124.892 417.221 124.934 417.16 125.004C417.1 125.071 417.069 125.166 417.069 125.29C417.069 125.417 417.098 125.518 417.155 125.591C417.216 125.664 417.302 125.701 417.413 125.701ZM419.192 125.987V125.409H419.631V125.987H419.192ZM421.162 126.035C420.907 126.035 420.707 125.993 420.56 125.91C420.417 125.825 420.316 125.688 420.255 125.5C420.198 125.312 420.169 125.064 420.169 124.756C420.169 124.466 420.203 124.232 420.269 124.054C420.336 123.876 420.443 123.749 420.589 123.672C420.739 123.593 420.931 123.553 421.167 123.553C421.224 123.553 421.292 123.558 421.372 123.567C421.451 123.574 421.532 123.583 421.615 123.596C421.701 123.606 421.774 123.615 421.835 123.625L421.82 123.959C421.763 123.952 421.699 123.946 421.629 123.94C421.559 123.933 421.489 123.929 421.419 123.925C421.353 123.919 421.297 123.916 421.252 123.916C421.077 123.916 420.941 123.944 420.842 124.002C420.747 124.056 420.68 124.143 420.642 124.264C420.603 124.385 420.584 124.549 420.584 124.756C420.584 124.982 420.6 125.161 420.632 125.295C420.667 125.429 420.732 125.526 420.828 125.586C420.923 125.643 421.065 125.672 421.252 125.672C421.297 125.672 421.354 125.67 421.424 125.667C421.494 125.661 421.564 125.654 421.634 125.648C421.707 125.642 421.773 125.637 421.83 125.634L421.839 125.963C421.776 125.976 421.701 125.987 421.615 125.996C421.532 126.006 421.45 126.014 421.367 126.02C421.287 126.03 421.219 126.035 421.162 126.035ZM423.292 126.035C423.025 126.035 422.815 125.988 422.662 125.896C422.513 125.804 422.408 125.666 422.347 125.481C422.287 125.293 422.257 125.055 422.257 124.765C422.257 124.492 422.29 124.266 422.357 124.088C422.424 123.906 422.534 123.773 422.686 123.687C422.839 123.598 423.041 123.553 423.292 123.553C423.547 123.553 423.75 123.598 423.903 123.687C424.056 123.773 424.166 123.906 424.232 124.088C424.299 124.266 424.333 124.492 424.333 124.765C424.333 125.055 424.301 125.293 424.237 125.481C424.177 125.666 424.072 125.804 423.922 125.896C423.773 125.988 423.563 126.035 423.292 126.035ZM423.292 125.686C423.47 125.686 423.604 125.656 423.693 125.596C423.782 125.532 423.841 125.432 423.87 125.295C423.898 125.158 423.913 124.982 423.913 124.765C423.913 124.552 423.894 124.382 423.855 124.255C423.82 124.127 423.758 124.037 423.669 123.983C423.58 123.929 423.455 123.901 423.292 123.901C423.133 123.901 423.008 123.929 422.915 123.983C422.826 124.037 422.763 124.127 422.724 124.255C422.689 124.382 422.672 124.552 422.672 124.765C422.672 124.982 422.686 125.158 422.715 125.295C422.744 125.432 422.802 125.532 422.891 125.596C422.981 125.656 423.114 125.686 423.292 125.686ZM424.897 125.987V123.601H425.298V123.763C425.374 123.719 425.477 123.672 425.608 123.625C425.738 123.577 425.862 123.553 425.98 123.553C426.139 123.553 426.266 123.572 426.362 123.61C426.457 123.649 426.535 123.709 426.596 123.792C426.659 123.757 426.737 123.722 426.829 123.687C426.922 123.649 427.02 123.617 427.125 123.591C427.23 123.566 427.334 123.553 427.435 123.553C427.655 123.553 427.822 123.591 427.937 123.668C428.054 123.741 428.135 123.865 428.18 124.04C428.228 124.212 428.251 124.441 428.251 124.727V125.987H427.846V124.746C427.846 124.546 427.833 124.385 427.808 124.264C427.785 124.14 427.741 124.051 427.674 123.997C427.607 123.943 427.505 123.916 427.369 123.916C427.245 123.916 427.124 123.935 427.006 123.973C426.888 124.008 426.798 124.043 426.734 124.078C426.753 124.161 426.766 124.263 426.772 124.383C426.782 124.501 426.787 124.624 426.787 124.751V125.987H426.386V124.765C426.386 124.555 426.375 124.388 426.352 124.264C426.33 124.14 426.284 124.051 426.214 123.997C426.147 123.943 426.044 123.916 425.904 123.916C425.789 123.916 425.675 123.935 425.56 123.973C425.449 124.008 425.361 124.043 425.298 124.078V125.987H424.897Z" fill="#015EA5"/>
<rect x="375.902" y="132.475" width="98.0922" height="4.90238" rx="2.45119" fill="white"/>
<rect x="375.902" y="140.946" width="59.1367" height="2.22836" rx="1.11418" fill="white"/>
<path d="M377.717 160.241C377.335 160.241 377.029 160.172 376.799 160.035C376.569 159.898 376.402 159.688 376.298 159.406C376.197 159.12 376.147 158.751 376.147 158.298C376.147 157.842 376.197 157.47 376.298 157.185C376.402 156.895 376.569 156.68 376.799 156.539C377.029 156.394 377.335 156.322 377.717 156.322C378.1 156.322 378.406 156.394 378.636 156.539C378.866 156.68 379.031 156.895 379.131 157.185C379.235 157.47 379.287 157.842 379.287 158.298C379.287 158.744 379.237 159.107 379.137 159.389C379.04 159.671 378.877 159.885 378.647 160.03C378.417 160.171 378.107 160.241 377.717 160.241ZM377.717 159.573C377.918 159.573 378.074 159.532 378.185 159.451C378.3 159.365 378.38 159.232 378.424 159.05C378.473 158.864 378.497 158.614 378.497 158.298C378.497 157.983 378.473 157.732 378.424 157.547C378.376 157.357 378.294 157.218 378.179 157.129C378.068 157.036 377.914 156.99 377.717 156.99C377.521 156.99 377.365 157.036 377.25 157.129C377.138 157.218 377.058 157.357 377.01 157.547C376.962 157.732 376.938 157.983 376.938 158.298C376.938 158.591 376.958 158.829 376.999 159.011C377.04 159.193 377.116 159.332 377.227 159.428C377.342 159.525 377.506 159.573 377.717 159.573ZM379.879 157.391H380.62V157.541C380.764 157.456 380.885 157.398 380.982 157.368C381.082 157.339 381.188 157.324 381.299 157.324C381.655 157.324 381.919 157.443 382.089 157.68C382.264 157.914 382.351 158.289 382.351 158.805C382.351 159.161 382.308 159.443 382.223 159.651C382.138 159.859 382.004 160.009 381.822 160.102C381.64 160.195 381.399 160.241 381.098 160.241C380.95 160.241 380.792 160.226 380.625 160.197V161.343H379.879V157.391ZM381.026 159.595C381.234 159.595 381.381 159.536 381.466 159.417C381.551 159.295 381.594 159.091 381.594 158.805C381.594 158.523 381.555 158.317 381.477 158.187C381.399 158.057 381.271 157.992 381.093 157.992C380.963 157.992 380.829 158.02 380.692 158.075L380.625 158.103V159.562C380.792 159.584 380.926 159.595 381.026 159.595ZM383.854 160.241C383.639 160.241 383.472 160.208 383.353 160.141C383.234 160.074 383.149 159.965 383.097 159.812C383.045 159.66 383.019 159.451 383.019 159.183V158.025H382.69V157.391H383.019V156.617H383.765V157.391H384.45V158.025H383.765V159.167C383.765 159.311 383.778 159.417 383.804 159.484C383.83 159.547 383.895 159.577 383.999 159.573L384.422 159.562L384.455 160.158C384.307 160.191 384.19 160.213 384.104 160.224C384.023 160.236 383.939 160.241 383.854 160.241ZM384.935 157.391H385.681V160.174H384.935V157.391ZM384.935 156.283H385.681V157.034H384.935V156.283ZM386.371 157.391H387.111V157.547C387.249 157.469 387.367 157.413 387.467 157.38C387.571 157.342 387.679 157.324 387.79 157.324C387.92 157.324 388.045 157.346 388.163 157.391C388.286 157.432 388.386 157.496 388.464 157.586C388.638 157.496 388.802 157.432 388.954 157.391C389.11 157.346 389.268 157.324 389.427 157.324C389.772 157.324 390.017 157.43 390.162 157.641C390.307 157.853 390.379 158.194 390.379 158.666V160.174H389.633V158.688C389.633 158.439 389.605 158.261 389.55 158.153C389.494 158.046 389.39 157.992 389.238 157.992C389.13 157.992 388.987 158.018 388.809 158.07L388.726 158.098C388.741 158.346 388.748 158.558 388.748 158.732V160.174H388.002V158.744C388.002 158.543 387.991 158.391 387.969 158.287C387.95 158.183 387.911 158.109 387.852 158.064C387.796 158.016 387.711 157.992 387.596 157.992C387.477 157.992 387.339 158.018 387.184 158.07L387.117 158.092V160.174H386.371V157.391ZM391.041 157.391H391.787V160.174H391.041V157.391ZM391.041 156.283H391.787V157.034H391.041V156.283ZM392.359 159.506L393.528 158.059H392.359V157.391H394.425V158.059L393.256 159.506H394.425V160.174H392.359V159.506ZM395.683 160.241C395.108 160.241 394.821 159.937 394.821 159.328C394.821 159.039 394.897 158.831 395.049 158.705C395.205 158.575 395.453 158.499 395.795 158.476L396.391 158.432V158.259C396.391 158.148 396.365 158.07 396.313 158.025C396.264 157.981 396.181 157.959 396.062 157.959C395.94 157.959 395.771 157.964 395.555 157.975C395.34 157.983 395.16 157.992 395.015 158.003L394.993 157.485C395.394 157.378 395.773 157.324 396.129 157.324C396.485 157.324 396.741 157.398 396.897 157.547C397.057 157.695 397.137 157.933 397.137 158.259V159.417C397.144 159.51 397.159 159.573 397.181 159.606C397.207 159.64 397.253 159.664 397.32 159.679L397.298 160.241C397.105 160.241 396.951 160.228 396.836 160.202C396.725 160.176 396.613 160.124 396.502 160.046C396.231 160.176 395.958 160.241 395.683 160.241ZM395.845 159.634C395.986 159.634 396.14 159.612 396.307 159.567L396.391 159.545V158.95L395.884 158.994C395.676 159.013 395.572 159.124 395.572 159.328C395.572 159.532 395.663 159.634 395.845 159.634ZM398.794 160.241C398.579 160.241 398.412 160.208 398.293 160.141C398.174 160.074 398.089 159.965 398.037 159.812C397.985 159.66 397.959 159.451 397.959 159.183V158.025H397.631V157.391H397.959V156.617H398.705V157.391H399.39V158.025H398.705V159.167C398.705 159.311 398.718 159.417 398.744 159.484C398.77 159.547 398.835 159.577 398.939 159.573L399.362 159.562L399.395 160.158C399.247 160.191 399.13 160.213 399.045 160.224C398.963 160.236 398.88 160.241 398.794 160.241ZM399.876 157.391H400.622V160.174H399.876V157.391ZM399.876 156.283H400.622V157.034H399.876V156.283ZM402.419 160.241C402 160.241 401.681 160.115 401.462 159.863C401.247 159.606 401.139 159.245 401.139 158.777C401.139 158.313 401.247 157.955 401.462 157.702C401.681 157.45 402 157.324 402.419 157.324C402.839 157.324 403.156 157.45 403.371 157.702C403.59 157.955 403.7 158.313 403.7 158.777C403.7 159.245 403.59 159.606 403.371 159.863C403.156 160.115 402.839 160.241 402.419 160.241ZM402.419 159.606C402.598 159.606 402.729 159.542 402.815 159.412C402.9 159.282 402.943 159.07 402.943 158.777C402.943 158.484 402.9 158.274 402.815 158.148C402.729 158.022 402.598 157.959 402.419 157.959C402.241 157.959 402.11 158.022 402.024 158.148C401.939 158.274 401.896 158.484 401.896 158.777C401.896 159.07 401.939 159.282 402.024 159.412C402.11 159.542 402.241 159.606 402.419 159.606ZM404.247 157.391H404.987V157.547C405.128 157.465 405.253 157.407 405.36 157.374C405.472 157.341 405.59 157.324 405.717 157.324C406.058 157.324 406.301 157.433 406.446 157.652C406.591 157.871 406.663 158.209 406.663 158.666V160.174H405.917V158.688C405.917 158.432 405.885 158.252 405.822 158.148C405.763 158.044 405.648 157.992 405.477 157.992C405.355 157.992 405.215 158.018 405.06 158.07L404.993 158.092V160.174H404.247V157.391Z" fill="#002448"/>
<path d="M376.236 172.551V169.135H376.637V170.289C376.72 170.251 376.83 170.213 376.966 170.175C377.103 170.137 377.234 170.118 377.358 170.118C377.577 170.118 377.746 170.157 377.864 170.237C377.981 170.313 378.061 170.437 378.102 170.609C378.147 170.781 378.169 171.007 378.169 171.287V172.551H377.763V171.306C377.763 171.105 377.751 170.945 377.725 170.824C377.703 170.703 377.658 170.615 377.592 170.561C377.525 170.507 377.42 170.48 377.277 170.48C377.162 170.48 377.044 170.496 376.924 170.528C376.806 170.557 376.71 170.585 376.637 170.614V172.551H376.236ZM379.601 172.604C379.435 172.604 379.303 172.578 379.205 172.527C379.106 172.477 379.034 172.389 378.99 172.265C378.949 172.138 378.928 171.96 378.928 171.731V170.514H378.599V170.165H378.928V169.45H379.334V170.165H380.064V170.514H379.334V171.616C379.334 171.778 379.34 171.905 379.353 171.998C379.369 172.087 379.399 172.15 379.443 172.189C379.491 172.224 379.564 172.241 379.663 172.241C379.695 172.241 379.734 172.24 379.782 172.236C379.833 172.233 379.884 172.23 379.935 172.227C379.989 172.22 380.035 172.216 380.073 172.212L380.097 172.551C380.027 172.561 379.943 172.572 379.844 172.585C379.749 172.597 379.668 172.604 379.601 172.604ZM381.278 172.604C381.113 172.604 380.981 172.578 380.882 172.527C380.784 172.477 380.712 172.389 380.668 172.265C380.626 172.138 380.606 171.96 380.606 171.731V170.514H380.276V170.165H380.606V169.45H381.011V170.165H381.741V170.514H381.011V171.616C381.011 171.778 381.018 171.905 381.03 171.998C381.046 172.087 381.076 172.15 381.121 172.189C381.169 172.224 381.242 172.241 381.34 172.241C381.372 172.241 381.412 172.24 381.46 172.236C381.511 172.233 381.562 172.23 381.612 172.227C381.667 172.22 381.713 172.216 381.751 172.212L381.775 172.551C381.705 172.561 381.62 172.572 381.522 172.585C381.426 172.597 381.345 172.604 381.278 172.604ZM382.169 173.601V170.165H382.569V170.332C382.62 170.301 382.684 170.269 382.76 170.237C382.837 170.202 382.918 170.173 383.004 170.151C383.093 170.129 383.179 170.118 383.261 170.118C383.567 170.118 383.79 170.215 383.929 170.409C384.069 170.603 384.139 170.91 384.139 171.33C384.139 171.641 384.103 171.891 384.03 172.079C383.96 172.263 383.847 172.397 383.691 172.48C383.538 172.559 383.339 172.599 383.094 172.599C382.999 172.599 382.9 172.593 382.799 172.58C382.7 172.567 382.624 172.556 382.569 172.546V173.601H382.169ZM383.061 172.246C383.23 172.246 383.362 172.216 383.457 172.155C383.553 172.092 383.619 171.993 383.657 171.859C383.699 171.723 383.72 171.546 383.72 171.33C383.72 171.018 383.673 170.798 383.581 170.671C383.489 170.541 383.36 170.475 383.195 170.475C383.121 170.475 383.045 170.485 382.966 170.504C382.889 170.523 382.816 170.545 382.746 170.571C382.676 170.596 382.617 170.623 382.569 170.652V172.203C382.62 172.209 382.692 172.219 382.784 172.232C382.88 172.241 382.972 172.246 383.061 172.246ZM385.458 172.599C385.381 172.599 385.289 172.594 385.181 172.585C385.076 172.575 384.973 172.564 384.871 172.551C384.769 172.535 384.678 172.521 384.599 172.508L384.623 172.165C384.702 172.174 384.791 172.185 384.89 172.198C384.992 172.211 385.09 172.222 385.186 172.232C385.281 172.238 385.359 172.241 385.42 172.241C385.544 172.241 385.647 172.23 385.73 172.208C385.813 172.185 385.875 172.147 385.916 172.093C385.96 172.039 385.983 171.961 385.983 171.859C385.983 171.783 385.965 171.724 385.93 171.683C385.898 171.641 385.838 171.606 385.749 171.578C385.663 171.549 385.536 171.524 385.367 171.501C385.189 171.473 385.039 171.436 384.919 171.392C384.801 171.347 384.713 171.282 384.656 171.196C384.602 171.11 384.575 170.988 384.575 170.829C384.575 170.647 384.616 170.506 384.699 170.404C384.782 170.299 384.89 170.226 385.024 170.184C385.157 170.14 385.297 170.118 385.443 170.118C385.536 170.118 385.636 170.122 385.744 170.132C385.852 170.141 385.957 170.154 386.059 170.17C386.161 170.183 386.248 170.196 386.322 170.208L386.312 170.552C386.236 170.539 386.145 170.528 386.04 170.518C385.938 170.506 385.836 170.496 385.735 170.49C385.633 170.48 385.544 170.475 385.467 170.475C385.375 170.475 385.292 170.485 385.219 170.504C385.146 170.523 385.087 170.558 385.043 170.609C385.001 170.657 384.981 170.724 384.981 170.81C384.981 170.876 384.997 170.93 385.028 170.972C385.06 171.013 385.119 171.048 385.205 171.077C385.291 171.102 385.416 171.129 385.582 171.158C385.779 171.19 385.937 171.229 386.054 171.277C386.175 171.325 386.263 171.393 386.317 171.482C386.371 171.568 386.398 171.689 386.398 171.845C386.398 172.128 386.314 172.325 386.145 172.437C385.98 172.545 385.75 172.599 385.458 172.599ZM386.903 171.039V170.461H387.347V171.039H386.903ZM386.903 172.551V171.974H387.347V172.551H386.903ZM388.175 172.637L387.803 172.513L389.153 169.163L389.526 169.292L388.175 172.637ZM390.188 172.637L389.816 172.513L391.167 169.163L391.539 169.292L390.188 172.637ZM392.373 172.551L391.825 170.165H392.24L392.683 172.203H392.765L393.299 170.213H393.714L394.253 172.203H394.335L394.778 170.165H395.189L394.64 172.551H393.977L393.504 170.747L393.032 172.551H392.373ZM396.199 172.599C395.973 172.599 395.801 172.537 395.683 172.413C395.569 172.289 395.512 172.106 395.512 171.864C395.512 171.705 395.539 171.576 395.593 171.478C395.65 171.379 395.734 171.304 395.846 171.253C395.96 171.202 396.098 171.171 396.261 171.158L396.976 171.086V170.891C396.976 170.735 396.941 170.625 396.872 170.561C396.802 170.498 396.7 170.466 396.566 170.466C396.483 170.466 396.386 170.469 396.275 170.475C396.167 170.482 396.057 170.49 395.946 170.499C395.838 170.509 395.742 170.518 395.659 170.528L395.64 170.223C395.717 170.207 395.809 170.191 395.917 170.175C396.028 170.159 396.143 170.146 396.261 170.137C396.382 170.124 396.491 170.118 396.59 170.118C396.774 170.118 396.926 170.145 397.043 170.199C397.161 170.253 397.247 170.337 397.301 170.452C397.358 170.563 397.387 170.708 397.387 170.886V172.079C397.393 172.146 397.42 172.195 397.468 172.227C397.516 172.255 397.576 172.274 397.649 172.284L397.635 172.599C397.565 172.599 397.5 172.594 397.439 172.585C397.379 172.578 397.325 172.569 397.277 172.556C397.229 172.54 397.186 172.521 397.148 172.499C397.11 172.473 397.074 172.445 397.039 172.413C396.978 172.438 396.902 172.465 396.809 172.494C396.717 172.523 396.619 172.546 396.514 172.566C396.409 172.588 396.304 172.599 396.199 172.599ZM396.27 172.265C396.353 172.265 396.439 172.259 396.528 172.246C396.617 172.23 396.701 172.211 396.781 172.189C396.86 172.166 396.926 172.146 396.976 172.127V171.382L396.313 171.444C396.176 171.457 396.078 171.498 396.017 171.568C395.957 171.635 395.927 171.731 395.927 171.855C395.927 171.982 395.955 172.082 396.013 172.155C396.073 172.228 396.159 172.265 396.27 172.265ZM398.832 172.599C398.734 172.599 398.641 172.588 398.555 172.566C398.47 172.546 398.39 172.512 398.317 172.461C398.247 172.407 398.185 172.333 398.131 172.241C398.077 172.149 398.035 172.033 398.007 171.893C397.978 171.75 397.964 171.578 397.964 171.377C397.964 171.094 397.997 170.86 398.064 170.676C398.131 170.488 398.237 170.348 398.384 170.256C398.533 170.164 398.729 170.118 398.971 170.118C399.06 170.118 399.16 170.124 399.271 170.137C399.386 170.149 399.475 170.162 399.538 170.175V169.135H399.944V172.551H399.543V172.399C399.492 172.424 399.427 172.453 399.348 172.484C399.268 172.516 399.184 172.543 399.095 172.566C399.006 172.588 398.918 172.599 398.832 172.599ZM398.894 172.236C398.974 172.236 399.053 172.228 399.133 172.212C399.216 172.193 399.292 172.171 399.362 172.146C399.432 172.12 399.491 172.096 399.538 172.074V170.518C399.5 170.512 399.449 170.506 399.386 170.499C399.322 170.49 399.255 170.483 399.185 170.48C399.119 170.474 399.056 170.471 398.999 170.471C398.843 170.471 398.721 170.504 398.632 170.571C398.543 170.638 398.479 170.74 398.441 170.876C398.403 171.01 398.384 171.177 398.384 171.377C398.384 171.559 398.396 171.707 398.422 171.821C398.45 171.933 398.489 172.018 398.536 172.079C398.584 172.139 398.638 172.181 398.699 172.203C398.762 172.225 398.827 172.236 398.894 172.236ZM400.613 172.551V170.165H401.014V172.551H400.613ZM400.613 169.659V169.216H401.014V169.659H400.613ZM401.657 171.43V171.058H403.102V171.43H401.657ZM404.275 172.599C404.049 172.599 403.877 172.537 403.759 172.413C403.645 172.289 403.587 172.106 403.587 171.864C403.587 171.705 403.614 171.576 403.669 171.478C403.726 171.379 403.81 171.304 403.921 171.253C404.036 171.202 404.174 171.171 404.337 171.158L405.052 171.086V170.891C405.052 170.735 405.017 170.625 404.947 170.561C404.877 170.498 404.776 170.466 404.642 170.466C404.559 170.466 404.462 170.469 404.351 170.475C404.243 170.482 404.133 170.49 404.022 170.499C403.913 170.509 403.818 170.518 403.735 170.528L403.716 170.223C403.793 170.207 403.885 170.191 403.993 170.175C404.104 170.159 404.219 170.146 404.337 170.137C404.457 170.124 404.567 170.118 404.666 170.118C404.85 170.118 405.001 170.145 405.119 170.199C405.237 170.253 405.323 170.337 405.377 170.452C405.434 170.563 405.463 170.708 405.463 170.886V172.079C405.469 172.146 405.496 172.195 405.544 172.227C405.592 172.255 405.652 172.274 405.725 172.284L405.711 172.599C405.641 172.599 405.576 172.594 405.515 172.585C405.455 172.578 405.401 172.569 405.353 172.556C405.305 172.54 405.262 172.521 405.224 172.499C405.186 172.473 405.149 172.445 405.114 172.413C405.054 172.438 404.978 172.465 404.885 172.494C404.793 172.523 404.694 172.546 404.59 172.566C404.485 172.588 404.38 172.599 404.275 172.599ZM404.346 172.265C404.429 172.265 404.515 172.259 404.604 172.246C404.693 172.23 404.777 172.211 404.857 172.189C404.936 172.166 405.001 172.146 405.052 172.127V171.382L404.389 171.444C404.252 171.457 404.154 171.498 404.093 171.568C404.033 171.635 404.003 171.731 404.003 171.855C404.003 171.982 404.031 172.082 404.088 172.155C404.149 172.228 404.235 172.265 404.346 172.265ZM406.173 172.551V169.135H406.579V172.551H406.173ZM407.249 171.43V171.058H408.694V171.43H407.249ZM410.153 172.599C410.083 172.599 409.997 172.596 409.895 172.589C409.797 172.586 409.696 172.58 409.595 172.57C409.493 172.561 409.404 172.553 409.327 172.546V169.135H409.733V170.275C409.809 170.24 409.911 170.205 410.038 170.17C410.169 170.135 410.293 170.118 410.411 170.118C410.63 170.118 410.804 170.159 410.931 170.242C411.061 170.321 411.153 170.45 411.208 170.628C411.265 170.806 411.293 171.037 411.293 171.32C411.293 171.638 411.258 171.891 411.188 172.079C411.122 172.263 411.006 172.397 410.84 172.48C410.675 172.559 410.446 172.599 410.153 172.599ZM410.148 172.236C410.358 172.236 410.514 172.205 410.616 172.141C410.718 172.077 410.786 171.979 410.821 171.845C410.856 171.708 410.874 171.533 410.874 171.32C410.874 171.123 410.858 170.962 410.826 170.838C410.797 170.714 410.745 170.623 410.668 170.566C410.592 170.506 410.489 170.475 410.358 170.475C410.247 170.475 410.132 170.491 410.015 170.523C409.9 170.552 409.806 170.579 409.733 170.604V172.212C409.8 172.219 409.875 172.225 409.957 172.232C410.043 172.235 410.107 172.236 410.148 172.236ZM412.392 172.599C412.167 172.599 411.995 172.537 411.877 172.413C411.763 172.289 411.705 172.106 411.705 171.864C411.705 171.705 411.732 171.576 411.786 171.478C411.844 171.379 411.928 171.304 412.039 171.253C412.154 171.202 412.292 171.171 412.454 171.158L413.17 171.086V170.891C413.17 170.735 413.135 170.625 413.065 170.561C412.995 170.498 412.893 170.466 412.76 170.466C412.677 170.466 412.58 170.469 412.469 170.475C412.361 170.482 412.251 170.49 412.14 170.499C412.031 170.509 411.936 170.518 411.853 170.528L411.834 170.223C411.91 170.207 412.003 170.191 412.111 170.175C412.222 170.159 412.337 170.146 412.454 170.137C412.575 170.124 412.685 170.118 412.784 170.118C412.968 170.118 413.119 170.145 413.237 170.199C413.355 170.253 413.441 170.337 413.495 170.452C413.552 170.563 413.581 170.708 413.581 170.886V172.079C413.587 172.146 413.614 172.195 413.662 172.227C413.709 172.255 413.77 172.274 413.843 172.284L413.829 172.599C413.759 172.599 413.694 172.594 413.633 172.585C413.573 172.578 413.519 172.569 413.471 172.556C413.423 172.54 413.38 172.521 413.342 172.499C413.304 172.473 413.267 172.445 413.232 172.413C413.172 172.438 413.095 172.465 413.003 172.494C412.911 172.523 412.812 172.546 412.707 172.566C412.602 172.588 412.497 172.599 412.392 172.599ZM412.464 172.265C412.547 172.265 412.633 172.259 412.722 172.246C412.811 172.23 412.895 172.211 412.975 172.189C413.054 172.166 413.119 172.146 413.17 172.127V171.382L412.507 171.444C412.37 171.457 412.272 171.498 412.211 171.568C412.151 171.635 412.12 171.731 412.12 171.855C412.12 171.982 412.149 172.082 412.206 172.155C412.267 172.228 412.353 172.265 412.464 172.265ZM415.026 172.599C414.927 172.599 414.835 172.588 414.749 172.566C414.663 172.546 414.584 172.512 414.511 172.461C414.441 172.407 414.379 172.333 414.324 172.241C414.27 172.149 414.229 172.033 414.2 171.893C414.172 171.75 414.157 171.578 414.157 171.377C414.157 171.094 414.191 170.86 414.258 170.676C414.324 170.488 414.431 170.348 414.577 170.256C414.727 170.164 414.923 170.118 415.164 170.118C415.253 170.118 415.354 170.124 415.465 170.137C415.579 170.149 415.669 170.162 415.732 170.175V169.135H416.138V172.551H415.737V172.399C415.686 172.424 415.621 172.453 415.541 172.484C415.462 172.516 415.377 172.543 415.288 172.566C415.199 172.588 415.112 172.599 415.026 172.599ZM415.088 172.236C415.168 172.236 415.247 172.228 415.327 172.212C415.409 172.193 415.486 172.171 415.556 172.146C415.626 172.12 415.684 172.096 415.732 172.074V170.518C415.694 170.512 415.643 170.506 415.579 170.499C415.516 170.49 415.449 170.483 415.379 170.48C415.312 170.474 415.25 170.471 415.193 170.471C415.037 170.471 414.915 170.504 414.826 170.571C414.736 170.638 414.673 170.74 414.635 170.876C414.596 171.01 414.577 171.177 414.577 171.377C414.577 171.559 414.59 171.707 414.616 171.821C414.644 171.933 414.682 172.018 414.73 172.079C414.778 172.139 414.832 172.181 414.892 172.203C414.956 172.225 415.021 172.236 415.088 172.236ZM417.341 172.599C417.116 172.599 416.944 172.537 416.826 172.413C416.712 172.289 416.654 172.106 416.654 171.864C416.654 171.705 416.681 171.576 416.735 171.478C416.793 171.379 416.877 171.304 416.988 171.253C417.103 171.202 417.241 171.171 417.403 171.158L418.119 171.086V170.891C418.119 170.735 418.084 170.625 418.014 170.561C417.944 170.498 417.842 170.466 417.709 170.466C417.626 170.466 417.529 170.469 417.418 170.475C417.31 170.482 417.2 170.49 417.088 170.499C416.98 170.509 416.885 170.518 416.802 170.528L416.783 170.223C416.859 170.207 416.952 170.191 417.06 170.175C417.171 170.159 417.286 170.146 417.403 170.137C417.524 170.124 417.634 170.118 417.733 170.118C417.917 170.118 418.068 170.145 418.186 170.199C418.304 170.253 418.39 170.337 418.444 170.452C418.501 170.563 418.53 170.708 418.53 170.886V172.079C418.536 172.146 418.563 172.195 418.611 172.227C418.658 172.255 418.719 172.274 418.792 172.284L418.778 172.599C418.708 172.599 418.643 172.594 418.582 172.585C418.522 172.578 418.468 172.569 418.42 172.556C418.372 172.54 418.329 172.521 418.291 172.499C418.253 172.473 418.216 172.445 418.181 172.413C418.121 172.438 418.044 172.465 417.952 172.494C417.86 172.523 417.761 172.546 417.656 172.566C417.551 172.588 417.446 172.599 417.341 172.599ZM417.413 172.265C417.496 172.265 417.582 172.259 417.671 172.246C417.76 172.23 417.844 172.211 417.924 172.189C418.003 172.166 418.068 172.146 418.119 172.127V171.382L417.456 171.444C417.319 171.457 417.221 171.498 417.16 171.568C417.1 171.635 417.069 171.731 417.069 171.855C417.069 171.982 417.098 172.082 417.155 172.155C417.216 172.228 417.302 172.265 417.413 172.265ZM419.192 172.551V171.974H419.631V172.551H419.192ZM421.162 172.599C420.907 172.599 420.707 172.558 420.56 172.475C420.417 172.389 420.316 172.252 420.255 172.065C420.198 171.877 420.169 171.629 420.169 171.32C420.169 171.031 420.203 170.797 420.269 170.619C420.336 170.44 420.443 170.313 420.589 170.237C420.739 170.157 420.931 170.118 421.167 170.118C421.224 170.118 421.292 170.122 421.372 170.132C421.451 170.138 421.532 170.148 421.615 170.161C421.701 170.17 421.774 170.18 421.835 170.189L421.82 170.523C421.763 170.517 421.699 170.51 421.629 170.504C421.559 170.498 421.489 170.493 421.419 170.49C421.353 170.483 421.297 170.48 421.252 170.48C421.077 170.48 420.941 170.509 420.842 170.566C420.747 170.62 420.68 170.708 420.642 170.829C420.603 170.949 420.584 171.113 420.584 171.32C420.584 171.546 420.6 171.726 420.632 171.859C420.667 171.993 420.732 172.09 420.828 172.15C420.923 172.208 421.065 172.236 421.252 172.236C421.297 172.236 421.354 172.235 421.424 172.232C421.494 172.225 421.564 172.219 421.634 172.212C421.707 172.206 421.773 172.201 421.83 172.198L421.839 172.527C421.776 172.54 421.701 172.551 421.615 172.561C421.532 172.57 421.45 172.578 421.367 172.585C421.287 172.594 421.219 172.599 421.162 172.599ZM423.292 172.599C423.025 172.599 422.815 172.553 422.662 172.461C422.513 172.368 422.408 172.23 422.347 172.045C422.287 171.858 422.257 171.619 422.257 171.33C422.257 171.056 422.29 170.83 422.357 170.652C422.424 170.471 422.534 170.337 422.686 170.251C422.839 170.162 423.041 170.118 423.292 170.118C423.547 170.118 423.75 170.162 423.903 170.251C424.056 170.337 424.166 170.471 424.232 170.652C424.299 170.83 424.333 171.056 424.333 171.33C424.333 171.619 424.301 171.858 424.237 172.045C424.177 172.23 424.072 172.368 423.922 172.461C423.773 172.553 423.563 172.599 423.292 172.599ZM423.292 172.251C423.47 172.251 423.604 172.22 423.693 172.16C423.782 172.096 423.841 171.996 423.87 171.859C423.898 171.723 423.913 171.546 423.913 171.33C423.913 171.117 423.894 170.946 423.855 170.819C423.82 170.692 423.758 170.601 423.669 170.547C423.58 170.493 423.455 170.466 423.292 170.466C423.133 170.466 423.008 170.493 422.915 170.547C422.826 170.601 422.763 170.692 422.724 170.819C422.689 170.946 422.672 171.117 422.672 171.33C422.672 171.546 422.686 171.723 422.715 171.859C422.744 171.996 422.802 172.096 422.891 172.16C422.981 172.22 423.114 172.251 423.292 172.251ZM424.897 172.551V170.165H425.298V170.328C425.374 170.283 425.477 170.237 425.608 170.189C425.738 170.141 425.862 170.118 425.98 170.118C426.139 170.118 426.266 170.137 426.362 170.175C426.457 170.213 426.535 170.273 426.596 170.356C426.659 170.321 426.737 170.286 426.829 170.251C426.922 170.213 427.02 170.181 427.125 170.156C427.23 170.13 427.334 170.118 427.435 170.118C427.655 170.118 427.822 170.156 427.937 170.232C428.054 170.305 428.135 170.429 428.18 170.604C428.228 170.776 428.251 171.005 428.251 171.291V172.551H427.846V171.311C427.846 171.11 427.833 170.949 427.808 170.829C427.785 170.705 427.741 170.615 427.674 170.561C427.607 170.507 427.505 170.48 427.369 170.48C427.245 170.48 427.124 170.499 427.006 170.538C426.888 170.573 426.798 170.608 426.734 170.643C426.753 170.725 426.766 170.827 426.772 170.948C426.782 171.066 426.787 171.188 426.787 171.315V172.551H426.386V171.33C426.386 171.12 426.375 170.953 426.352 170.829C426.33 170.705 426.284 170.615 426.214 170.561C426.147 170.507 426.044 170.48 425.904 170.48C425.789 170.48 425.675 170.499 425.56 170.538C425.449 170.573 425.361 170.608 425.298 170.643V172.551H424.897Z" fill="#015EA5"/>
<rect x="375.902" y="179.04" width="98.0922" height="4.90238" rx="2.45119" fill="white"/>
<rect x="375.902" y="187.51" width="59.1367" height="2.22836" rx="1.11418" fill="white"/>
<path d="M509.377 40H300V50.3904H509.377V40Z" fill="white"/>
<path d="M308.161 47.3136C309.324 47.3136 310.268 46.3683 310.268 45.2022C310.268 44.0361 309.324 43.0908 308.161 43.0908C306.998 43.0908 306.055 44.0361 306.055 45.2022C306.055 46.3683 306.998 47.3136 308.161 47.3136Z" fill="#37AC50"/>
<path d="M319.876 45.2022C319.878 45.6225 319.755 46.0339 319.524 46.3845C319.293 46.735 318.963 47.0087 318.576 47.1711C318.189 47.3334 317.763 47.3771 317.352 47.2964C316.94 47.2158 316.562 47.0145 316.265 46.7181C315.968 46.4217 315.765 46.0436 315.682 45.6315C315.6 45.2195 315.641 44.7921 315.801 44.4037C315.961 44.0152 316.232 43.683 316.581 43.4493C316.929 43.2156 317.339 43.0908 317.758 43.0908C318.036 43.0893 318.311 43.1429 318.568 43.2483C318.824 43.3538 319.058 43.5091 319.255 43.7053C319.451 43.9015 319.608 44.1347 319.714 44.3916C319.821 44.6485 319.876 44.924 319.876 45.2022Z" fill="#FFC800"/>
<path d="M327.372 47.3136C328.535 47.3136 329.478 46.3683 329.478 45.2022C329.478 44.0361 328.535 43.0908 327.372 43.0908C326.209 43.0908 325.266 44.0361 325.266 45.2022C325.266 46.3683 326.209 47.3136 327.372 47.3136Z" fill="#FF3200"/>
<path d="M282.052 236.442C282.052 236.442 280.973 220.458 288.654 206.63C298.807 188.351 324.409 192.437 344.063 189.454C356.965 187.495 359.996 192.351 348.999 194.998C344.127 196.171 341.255 196.47 333.582 198.182C354.791 195.186 360.02 194.841 361.179 196.754C363.22 200.127 359.47 203.001 332.958 204.956C361.587 202.762 362.626 204.866 362.99 206.474C363.208 207.44 359.871 210.448 334.205 210.689C337.504 210.419 358.203 210.656 357.61 214.502C356.858 219.363 336.736 213.486 326.575 215.427C313.924 217.845 317.675 240 317.675 240L282.052 236.442Z" fill="#FABCC6"/>
<path d="M187.458 287.129C189.963 306.195 216.524 361.972 269.017 351.763C329.78 339.947 319.313 232.799 319.313 232.799C319.313 232.799 303.448 208.054 281.432 230.234C281.432 230.234 283.905 287.921 254.172 287.204C239.72 286.855 234.695 240.129 207.087 235.462C192.869 233.053 184.957 268.063 187.458 287.129Z" fill="#00B2B2"/>
<path d="M289 207C289 207 296.663 188.572 320.294 180.849C340.751 174.164 340.85 181.12 337.128 182.782C333.405 184.444 323.208 184.711 319.97 190.17" fill="#FABCC6"/>
<path d="M96.7988 254.145C140.043 239.541 170.577 226.63 212.71 236.018C212.71 236.018 236.037 315.905 233.759 417.653L97.7239 418.858C125.686 365.243 85.7292 306.263 96.7988 254.145Z" fill="#00C7C7"/>
<path d="M171.746 222.377C171.581 222.45 171.415 222.522 171.247 222.591C168.601 224.255 165.556 225.178 162.431 225.266C158.302 225.577 154.166 224.772 150.455 222.935L147.954 222.377C148.893 228.641 147.137 235.245 147.137 241.382C147.137 246.113 166.204 264.082 166.204 264.082C166.204 264.082 176.225 244.757 174.677 239.177C173.607 235.316 172.37 227.117 171.746 222.377Z" fill="#FABCC6"/>
<path d="M172.301 201.075C172.301 214.436 161.47 228.35 151.244 228.35C141.018 228.35 135.271 214.436 135.271 201.075C135.271 187.714 155.988 175.023 166.215 175.023C176.441 175.023 172.301 187.713 172.301 201.075Z" fill="#003959"/>
<path d="M162.063 189.511C160.568 194.986 149.674 193.877 146.41 199.384C144.225 203.07 144.332 206.439 144.011 206.162C135.185 198.436 134.173 215.101 144.047 215.412C144.106 215.412 144.687 222.187 148.363 227.905C151.605 229.95 164.52 235.51 171.934 228.597C176.875 221.271 172.236 191.159 162.063 189.511Z" fill="#FABCC6"/>
<path d="M158.221 204.172C158.351 204.953 157.732 205.68 156.845 205.795C155.958 205.91 155.134 205.369 155.002 204.589C154.87 203.808 155.491 203.082 156.379 202.967C157.268 202.852 158.093 203.391 158.221 204.172Z" fill="#003959"/>
<path d="M167.016 202.858C167.138 203.613 166.676 204.298 165.988 204.385C165.3 204.471 164.644 203.93 164.522 203.175C164.399 202.419 164.861 201.736 165.548 201.648C166.235 201.56 166.896 202.103 167.016 202.858Z" fill="#003959"/>
<path d="M152.707 203.134C152.624 203.134 152.543 203.113 152.471 203.073C152.399 203.033 152.338 202.975 152.294 202.906C152.25 202.836 152.224 202.756 152.22 202.673C152.215 202.591 152.231 202.509 152.267 202.434C152.29 202.388 154.553 197.834 159.355 199.681C159.476 199.727 159.574 199.82 159.626 199.939C159.679 200.057 159.682 200.192 159.635 200.313C159.589 200.434 159.496 200.532 159.377 200.584C159.259 200.637 159.124 200.64 159.003 200.594C155.051 199.073 153.223 202.704 153.147 202.859C153.107 202.942 153.044 203.011 152.966 203.06C152.888 203.109 152.799 203.134 152.707 203.134Z" fill="#003959"/>
<path d="M163.926 199.459C163.926 199.459 165.699 197.94 166.964 199.239L163.926 199.459Z" fill="#003959"/>
<path d="M163.925 199.947C163.826 199.946 163.73 199.915 163.649 199.858C163.568 199.801 163.506 199.721 163.472 199.629C163.438 199.536 163.432 199.435 163.456 199.339C163.48 199.243 163.533 199.157 163.607 199.092C164.34 198.464 166.06 197.614 167.312 198.904C167.396 198.998 167.439 199.12 167.435 199.246C167.43 199.371 167.377 199.49 167.287 199.578C167.197 199.665 167.076 199.715 166.951 199.716C166.825 199.717 166.704 199.67 166.612 199.584C165.686 198.632 164.3 199.786 164.241 199.835C164.152 199.908 164.04 199.948 163.925 199.947Z" fill="#003959"/>
<path d="M160.08 213.264C159.93 213.264 159.836 213.264 159.814 213.258C159.684 213.251 159.563 213.192 159.476 213.096C159.39 212.999 159.345 212.871 159.352 212.742C159.36 212.612 159.418 212.491 159.515 212.404C159.612 212.318 159.739 212.273 159.869 212.28C159.896 212.28 162.623 212.414 163.355 210.973C163.881 209.941 161.925 206.071 160.37 203.651C160.305 203.543 160.286 203.413 160.315 203.29C160.344 203.167 160.419 203.06 160.526 202.992C160.632 202.923 160.761 202.898 160.885 202.923C161.009 202.947 161.118 203.019 161.191 203.122C161.868 204.174 165.194 209.515 164.227 211.416C163.365 213.118 160.905 213.264 160.08 213.264Z" fill="#003959"/>
<path d="M157.023 219.768C157.023 219.768 161.312 219.788 163.789 216.631C163.789 216.631 164.857 218.405 169.252 218.199C169.252 218.199 167.147 221.483 163.141 221.679C159.135 221.874 157.023 219.768 157.023 219.768Z" fill="#003959"/>
<path d="M104.432 414.806C104.432 414.806 115.211 417.266 129.904 415.654C136.496 414.932 155.633 415.983 171.584 415.657C188.731 415.306 198.576 416.213 200.551 413.715C203.088 410.501 192.91 403.771 171.619 403.87C184.418 403.567 202.327 407.373 202.599 402.136C202.984 394.748 189.857 392.95 173.492 391.208C185.795 391.24 202.297 395.438 201.969 388.889C201.698 383.46 192.21 383.207 173.576 380.473C197.328 382.512 198.98 379.272 197.948 375.532C196.963 371.977 187.562 371.87 171.121 370.084C161.616 369.052 99.3638 370.449 101.18 374.994L104.432 414.806Z" fill="#FABCC6"/>
<path d="M100.456 252.434C82.3328 259.173 -7.92643 288.864 1.24407 362.526C9.542 429.171 125.185 418.62 125.185 418.62C143.639 412.85 143.639 378.637 125.185 369C125.185 369 70.9821 365.644 66.4433 347.288C64.5625 339.679 82.7886 335.058 97.7555 327.85C119.28 317.477 119.77 245.251 100.456 252.434Z" fill="#00B2B2"/>
<path d="M239.068 413.48L126.113 414.297V418.469L239.068 417.653V413.48Z" fill="#003959"/>
<path d="M377.724 417.653H220.57L258.847 308.086H416.001L377.724 417.653Z" fill="#50FF81"/>
<path d="M327.531 377.226C336.709 372.88 341.613 364.001 338.485 357.395C335.357 350.789 325.38 348.957 316.202 353.303C307.024 357.649 302.12 366.528 305.248 373.134C308.377 379.74 318.353 381.572 327.531 377.226Z" fill="white"/>
<defs>
<filter id="filter0_d_5168_55952" x="255.143" y="0.243042" width="309.533" height="260.024" filterUnits="userSpaceOnUse" color-interpolation-filters="sRGB">
<feFlood flood-opacity="0" result="BackgroundImageFix"/>
<feColorMatrix in="SourceAlpha" type="matrix" values="0 0 0 0 0 0 0 0 0 0 0 0 0 0 0 0 0 0 127 0" result="hardAlpha"/>
<feOffset dx="5" dy="10"/>
<feGaussianBlur stdDeviation="25"/>
<feComposite in2="hardAlpha" operator="out"/>
<feColorMatrix type="matrix" values="0 0 0 0 0 0 0 0 0 0.141176 0 0 0 0 0.282353 0 0 0 0.07 0"/>
<feBlend mode="normal" in2="BackgroundImageFix" result="effect1_dropShadow_5168_55952"/>
<feBlend mode="normal" in="SourceGraphic" in2="effect1_dropShadow_5168_55952" result="shape"/>
</filter>
</defs>
</svg>
