<svg width="555" height="420" viewBox="0 0 555 420" fill="none" xmlns="http://www.w3.org/2000/svg">
<path d="M360.172 127.912H346.828C346.828 127.912 342.453 135.181 343.057 145.883C343.057 145.883 344.294 143.662 345.276 142.508C345.454 142.301 345.701 142.537 345.668 142.889C345.432 145.306 345.636 152.558 353.502 164.875C361.368 152.552 361.572 145.306 361.335 142.889C361.303 142.543 361.546 142.301 361.724 142.508C362.706 143.662 363.943 145.883 363.943 145.883C364.547 135.181 360.172 127.912 360.172 127.912Z" fill="#E3F5FF"/>
<path d="M343.658 125.234L344.623 127.12C345.035 127.923 345.852 128.428 346.745 128.428H353.135H353.146H359.536C360.429 128.428 361.246 127.923 361.658 127.12L362.623 125.234H343.658Z" fill="#949494" stroke="#4E5C51" stroke-width="2" stroke-miterlimit="10"/>
<path d="M340.922 121.659L342.165 124.088C342.693 125.121 343.748 125.77 344.898 125.77H353.131H353.146H361.38C362.529 125.77 363.581 125.121 364.112 124.088L365.356 121.659H340.922Z" fill="#4D4D4D" stroke="#4E5C51" stroke-width="2" stroke-miterlimit="10"/>
<path d="M364.911 103.053C364.911 103.053 385.698 110.289 384.375 131.465C384.375 131.465 366.874 113.392 357.35 117.261L364.911 103.053Z" fill="#D2ECFA"/>
<path d="M341.524 103.053C341.524 103.053 320.738 110.289 322.061 131.465C322.061 131.465 339.562 113.392 349.086 117.261L341.524 103.053Z" fill="#D2ECFA"/>
<path d="M363.221 62.5774C360.817 56.4553 357.539 50.4797 353.122 44.9951L353.119 45.0208L353.115 44.9951C348.745 50.4248 345.492 56.3307 343.096 62.3869C347.769 61.2548 354.825 60.4891 363.221 62.5774Z" fill="#73A7C3"/>
<path d="M363.503 63.298L363.228 62.5799C352.11 59.6855 343.103 62.3894 343.103 62.3894L342.749 63.298C333.561 87.4164 337.725 113.598 339.203 120.987C339.441 122.178 340.475 123.032 341.675 123.032H343.244H363.167H364.573C365.773 123.032 366.806 122.178 367.045 120.987C368.527 113.594 372.691 87.4164 363.503 63.298Z" fill="#E3F5FF"/>
<g filter="url(#filter0_d_5168_57245)">
<path d="M226.23 40H65C55.5719 40 50.8579 40 47.9289 42.9289C45 45.8579 45 50.5719 45 60V195.824C45 205.252 45 209.966 47.9289 212.895C50.8579 215.824 55.5719 215.824 65 215.824H226.23C235.658 215.824 240.372 215.824 243.301 212.895C246.23 209.966 246.23 205.252 246.23 195.824V60C246.23 50.5719 246.23 45.8579 243.301 42.9289C240.372 40 235.658 40 226.23 40Z" fill="white"/>
</g>
<path d="M242.554 121.034H49.3418V205.406C49.3418 208.72 52.0281 211.406 55.3418 211.406H236.554C239.868 211.406 242.554 208.72 242.554 205.406V121.034Z" fill="#EFF2F5"/>
<path d="M55.8868 52.1951C57.5729 52.1951 58.9397 50.8313 58.9397 49.1489C58.9397 47.4665 57.5729 46.1027 55.8868 46.1027C54.2008 46.1027 52.834 47.4665 52.834 49.1489C52.834 50.8313 54.2008 52.1951 55.8868 52.1951Z" fill="#37AC50"/>
<path d="M66.1056 52.1951C67.7916 52.1951 69.1584 50.8313 69.1584 49.1489C69.1584 47.4665 67.7916 46.1027 66.1056 46.1027C64.4195 46.1027 63.0527 47.4665 63.0527 49.1489C63.0527 50.8313 64.4195 52.1951 66.1056 52.1951Z" fill="#FFC800"/>
<path d="M79.3733 49.149C79.3733 49.7515 79.1942 50.3405 78.8588 50.8414C78.5233 51.3424 78.0465 51.7328 77.4887 51.9634C76.9309 52.1939 76.317 52.2543 75.7248 52.1367C75.1326 52.0192 74.5887 51.7291 74.1617 51.303C73.7348 50.877 73.444 50.3342 73.3262 49.7433C73.2084 49.1524 73.2689 48.5399 73.5 47.9833C73.731 47.4266 74.1223 46.9509 74.6244 46.6162C75.1264 46.2814 75.7166 46.1028 76.3204 46.1028C76.7213 46.1028 77.1183 46.1816 77.4887 46.3347C77.8591 46.4878 78.1956 46.7121 78.4791 46.995C78.7626 47.2779 78.9874 47.6137 79.1409 47.9833C79.2943 48.3529 79.3733 48.749 79.3733 49.149Z" fill="#FF3200"/>
<path d="M83.2244 103.657C86.3612 100.527 86.3612 95.4526 83.2244 92.3226C80.0877 89.1926 75.002 89.1926 71.8652 92.3226C68.7284 95.4526 68.7284 100.527 71.8652 103.657C75.002 106.787 80.0877 106.787 83.2244 103.657Z" fill="#00C7C7"/>
<path d="M78.9019 93.9658V101.724H77.1039V95.4051H75.5527V93.9658H78.9019Z" fill="white"/>
<path d="M158.43 98.261C158.339 97.3086 158.184 96.3633 157.966 95.4317C157.295 92.9145 155.795 90.6956 153.708 89.1322C152.174 87.9809 150.377 87.2307 148.479 86.95C146.58 86.6693 144.642 86.8671 142.84 87.5253C141.802 87.8949 140.825 88.4202 139.945 89.0829C139.012 89.7592 138.195 90.5815 137.525 91.5179C136.081 93.4708 135.301 95.834 135.301 98.261C135.301 100.688 136.081 103.051 137.525 105.004C138.195 105.941 139.012 106.763 139.945 107.439C140.825 108.102 141.802 108.627 142.84 108.997C144.349 109.544 145.956 109.773 147.558 109.666C149.16 109.56 150.722 109.122 152.145 108.38C153.568 107.638 154.821 106.609 155.823 105.357C156.825 104.105 157.555 102.659 157.966 101.11C158.184 100.182 158.339 99.2397 158.43 98.2906C158.452 98.5399 158.452 98.7906 158.43 99.0398C158.433 99.3403 158.41 99.6404 158.361 99.9369C158.32 100.349 158.248 100.758 158.144 101.159C157.613 103.351 156.463 105.344 154.831 106.903C153.199 108.461 151.153 109.52 148.936 109.953C146.845 110.349 144.685 110.179 142.682 109.46C141.596 109.079 140.574 108.537 139.649 107.853C138.675 107.149 137.821 106.294 137.12 105.32C135.606 103.282 134.789 100.812 134.789 98.2758C134.789 95.7393 135.606 93.2699 137.12 91.232C137.824 90.2629 138.678 89.4111 139.649 88.7083C140.574 88.0243 141.596 87.4826 142.682 87.1014C144.685 86.3826 146.845 86.2124 148.936 86.6084C151.158 87.0388 153.209 88.0975 154.845 89.6583C156.481 91.2191 157.633 93.2163 158.163 95.412C158.267 95.8101 158.339 96.2154 158.381 96.6245C158.429 96.9244 158.453 97.2278 158.45 97.5315C158.464 97.7748 158.457 98.0188 158.43 98.261Z" fill="#A4C340"/>
<path d="M224.965 97.9851C224.906 97.9851 224.965 97.2655 224.619 96.0135C224.137 94.2919 223.094 92.7796 221.655 91.7152C220.609 90.9316 219.382 90.4225 218.088 90.2348C216.793 90.047 215.472 90.1866 214.246 90.6407C212.798 91.1621 211.541 92.1069 210.639 93.3517C209.658 94.6814 209.129 96.2894 209.129 97.9408C209.129 99.5921 209.658 101.2 210.639 102.53C211.544 103.774 212.799 104.722 214.246 105.251C215.473 105.701 216.794 105.837 218.089 105.648C219.383 105.458 220.609 104.949 221.655 104.166C223.092 103.103 224.134 101.595 224.619 99.878C224.945 98.6555 224.906 97.9063 224.965 97.9063C224.991 98.0761 224.991 98.249 224.965 98.4189C224.958 98.9141 224.895 99.4068 224.777 99.8878C224.418 101.406 223.628 102.788 222.501 103.868C221.374 104.949 219.959 105.682 218.425 105.98C216.976 106.262 215.478 106.15 214.087 105.655C212.543 105.107 211.201 104.107 210.234 102.786C209.183 101.374 208.615 99.6609 208.615 97.9014C208.615 96.1418 209.183 94.4291 210.234 93.0165C211.201 91.6955 212.543 90.6957 214.087 90.1477C215.478 89.6532 216.976 89.5408 218.425 89.8224C219.961 90.1199 221.377 90.8542 222.505 91.937C223.632 93.0197 224.421 94.4046 224.777 95.9247C224.896 96.4023 224.959 96.8919 224.965 97.3838C224.999 97.5828 224.999 97.7862 224.965 97.9851Z" fill="#263238"/>
<path d="M154.659 99.2736C155.372 94.9046 152.4 90.7866 148.021 90.0758C143.643 89.3651 139.516 92.3307 138.803 96.6997C138.091 101.069 141.063 105.187 145.442 105.898C149.82 106.608 153.947 103.643 154.659 99.2736Z" fill="#50FF81"/>
<path d="M149.77 100.267V101.726H143.891V100.562L146.855 97.7329C147.547 97.0823 147.665 96.6781 147.665 96.3035C147.665 95.6922 147.25 95.3176 146.42 95.3176C146.109 95.3069 145.799 95.3722 145.518 95.508C145.238 95.6437 144.995 95.8457 144.81 96.0964L143.506 95.2585C143.86 94.7814 144.326 94.3994 144.864 94.1465C145.402 93.8936 145.995 93.7777 146.588 93.8093C148.327 93.8093 149.483 94.6965 149.483 96.1063C149.471 96.5882 149.347 97.0608 149.12 97.4868C148.894 97.9127 148.572 98.2804 148.179 98.561L146.391 100.247L149.77 100.267Z" fill="#003959"/>
<path d="M219.985 99.3577C219.985 100.669 218.998 101.872 216.765 101.872C215.716 101.887 214.685 101.596 213.801 101.034L214.502 99.6633C215.151 100.124 215.929 100.368 216.725 100.363C217.624 100.363 218.177 99.9985 218.177 99.3774C218.177 98.7563 217.753 98.3916 216.725 98.3916H215.905V97.1987L217.506 95.3946H214.196V93.9553H219.64V95.1679L217.881 97.1396C218.45 97.1699 218.985 97.4169 219.377 97.8296C219.768 98.2424 219.986 98.7894 219.985 99.3577Z" fill="#263238"/>
<path d="M141.377 121.824L147.413 113.651L153.44 121.824H141.377Z" fill="#EFF2F5"/>
<path d="M95.6171 140.526C95.6171 140.852 89.2549 141.131 81.4199 141.131C73.5848 141.131 67.2227 140.852 67.2227 140.526C67.2227 140.2 73.5746 139.898 81.4199 139.898C89.2652 139.898 95.6171 140.177 95.6171 140.526Z" fill="white"/>
<path d="M123.305 163.305H71.4757C69.6127 163.305 67.826 162.567 66.5086 161.252C65.1913 159.938 64.4512 158.155 64.4512 156.296C64.4512 155.376 64.6329 154.464 64.9859 153.614C65.3389 152.763 65.8563 151.991 66.5086 151.34C67.1609 150.689 67.9353 150.173 68.7875 149.82C69.6398 149.468 70.5532 149.287 71.4757 149.287H123.305C124.228 149.286 125.142 149.466 125.996 149.818C126.849 150.169 127.625 150.685 128.278 151.336C128.931 151.987 129.45 152.76 129.803 153.612C130.157 154.463 130.339 155.375 130.339 156.296C130.339 157.217 130.157 158.13 129.803 158.981C129.45 159.832 128.931 160.605 128.278 161.256C127.625 161.907 126.849 162.423 125.996 162.775C125.142 163.126 124.228 163.307 123.305 163.305Z" fill="white"/>
<path d="M190.675 140.526C190.675 140.852 184.869 141.131 177.713 141.131C170.556 141.131 164.75 140.852 164.75 140.526C164.75 140.2 170.546 139.898 177.713 139.898C184.879 139.898 190.675 140.177 190.675 140.526Z" fill="white"/>
<path d="M94.3824 178.747C94.3824 179.079 88.5763 179.363 81.4197 179.363C74.2631 179.363 68.457 179.079 68.457 178.747C68.457 178.415 74.2533 178.13 81.4197 178.13C88.5861 178.13 94.3824 178.391 94.3824 178.747Z" fill="white"/>
<path d="M217.441 163.305H165.603C163.74 163.305 161.953 162.567 160.636 161.252C159.318 159.938 158.578 158.155 158.578 156.296C158.578 155.376 158.76 154.464 159.113 153.614C159.466 152.763 159.983 151.991 160.636 151.34C161.288 150.689 162.062 150.173 162.914 149.82C163.767 149.468 164.68 149.287 165.603 149.287H217.441C218.364 149.287 219.277 149.468 220.13 149.82C220.982 150.173 221.756 150.689 222.409 151.34C223.061 151.991 223.578 152.763 223.931 153.614C224.284 154.464 224.466 155.376 224.466 156.296C224.466 158.155 223.726 159.938 222.409 161.252C221.091 162.567 219.305 163.305 217.441 163.305Z" fill="white"/>
<path d="M219.357 202.105H71.8625C70.9392 202.106 70.0247 201.926 69.1713 201.574C68.3179 201.223 67.5424 200.707 66.889 200.056C66.2357 199.405 65.7174 198.631 65.3638 197.78C65.0101 196.929 64.8281 196.017 64.8281 195.096C64.8281 194.174 65.0101 193.262 65.3638 192.411C65.7174 191.56 66.2357 190.787 66.889 190.136C67.5424 189.485 68.3179 188.969 69.1713 188.617C70.0247 188.265 70.9392 188.085 71.8625 188.086H219.357C220.28 188.085 221.195 188.265 222.048 188.617C222.901 188.969 223.677 189.485 224.33 190.136C224.984 190.787 225.502 191.56 225.855 192.411C226.209 193.262 226.391 194.174 226.391 195.096C226.391 196.017 226.209 196.929 225.855 197.78C225.502 198.631 224.984 199.405 224.33 200.056C223.677 200.707 222.901 201.223 222.048 201.574C221.195 201.926 220.28 202.106 219.357 202.105Z" fill="white"/>
<path d="M148.612 359.382C148.612 359.382 114.75 322.139 116.329 285.492C138.241 303.575 145.181 329.664 148.613 359.382H148.612Z" fill="white"/>
<path d="M148.982 360.163L148.388 359.51C148.302 359.416 139.813 350.023 131.628 336.273C126.82 328.196 123.057 320.216 120.44 312.555C117.168 302.973 115.692 293.866 116.053 285.485L116.076 284.966L116.532 285.342C126.801 293.817 134.369 304.502 139.668 318.01C143.969 328.971 146.899 342.111 148.891 359.363L148.983 360.163H148.982ZM116.587 286.024C116.311 294.216 117.786 303.098 120.975 312.437C123.582 320.072 127.334 328.026 132.127 336.079C139.038 347.693 146.166 356.188 148.241 358.577C146.255 341.762 143.357 328.894 139.137 318.138C133.943 304.898 126.564 294.387 116.587 286.024Z" fill="#8ABCD8"/>
<path d="M116.421 285.467L116.246 285.514L148.537 359.402L148.712 359.355L116.421 285.467Z" fill="#8ABCD8"/>
<path d="M148.609 358.627C148.609 358.627 129.1 305.556 143.603 260.881C152.898 289.455 155.82 321.379 148.608 358.627H148.609Z" fill="white"/>
<path d="M148.695 359.644L148.344 358.689C148.295 358.556 143.426 345.189 140.394 326.536C138.614 315.58 137.805 304.969 137.991 294.999C138.224 282.531 140.022 271.034 143.336 260.828L143.605 260L143.874 260.828C146.242 268.108 148.168 275.547 149.598 282.938C151.091 290.656 152.092 298.58 152.576 306.492C153.078 314.71 153.038 323.182 152.456 331.671C151.853 340.455 150.652 349.536 148.885 358.661L148.695 359.643V359.644ZM143.607 261.773C140.475 271.735 138.773 282.909 138.546 295C138.36 304.95 139.166 315.538 140.943 326.473C143.499 342.201 147.363 354.162 148.53 357.579C150.189 348.811 151.322 340.092 151.901 331.649C152.482 323.174 152.522 314.717 152.021 306.514C151.538 298.617 150.538 290.707 149.049 283.005C147.677 275.91 145.847 268.772 143.607 261.774V261.773Z" fill="#8ABCD8"/>
<path d="M143.697 260.876L143.512 260.882L148.528 358.628L148.713 358.623L143.697 260.876Z" fill="#8ABCD8"/>
<path d="M148.428 359.931L148.446 359.36C148.449 359.272 148.761 350.539 152.189 340.126C154.203 334.006 156.884 328.51 160.157 323.791C164.253 317.882 169.294 313.179 175.14 309.812L175.508 309.599L175.578 309.954C176.951 317 174.97 325.595 169.852 334.81C165.035 343.483 157.603 352.256 148.925 359.515L148.428 359.931ZM175.096 310.38C169.476 313.692 164.616 318.27 160.647 323.995C157.397 328.682 154.733 334.143 152.73 340.226C149.822 349.054 149.164 356.667 149.031 358.786C157.447 351.648 164.646 343.092 169.344 334.635C174.333 325.653 176.318 317.277 175.096 310.381V310.38Z" fill="#8ABCD8"/>
<path d="M175.211 309.962L148.648 359.345L148.819 359.402L175.382 310.018L175.211 309.962Z" fill="#8ABCD8"/>
<path d="M143.342 420L134.447 352.27H165.173L156.684 419.901L143.342 420Z" fill="#D2ECFA"/>
<path d="M377.621 392.722L372.225 410.266L349.729 402.138L357.809 384.592L377.621 392.722Z" fill="#FABCC6"/>
<path d="M319.367 413.636L319.383 418.563L376.32 418.834V413.309L319.367 413.636Z" fill="#003959"/>
<path d="M319.307 415.32C319.307 415.32 318.529 403.86 331.515 401.434C344.503 399.005 353.2 393.342 353.2 393.342C353.2 393.342 357.179 401.111 365.175 401.667C374.247 402.297 370.899 397.388 376.961 397.814L376.427 414.251L319.309 415.32H319.307Z" fill="#00C7C7"/>
<path d="M348.555 395.842C348.657 395.76 348.776 395.697 348.911 395.656C349.452 395.499 350.019 395.811 350.174 396.352L352.252 403.527C352.41 404.068 352.097 404.634 351.556 404.789C351.015 404.946 350.448 404.634 350.293 404.093L348.215 396.918C348.098 396.512 348.245 396.09 348.555 395.842Z" fill="#003959"/>
<path d="M344.78 396.934C344.882 396.853 345.001 396.789 345.136 396.749C345.677 396.591 346.243 396.904 346.398 397.444L348.477 404.62C348.634 405.16 348.322 405.726 347.781 405.881C347.239 406.039 346.673 405.726 346.518 405.186L344.44 398.01C344.323 397.604 344.47 397.183 344.78 396.934Z" fill="#003959"/>
<path d="M340.964 398.037C341.065 397.956 341.185 397.892 341.319 397.852C341.86 397.694 342.427 398.007 342.582 398.547L344.66 405.723C344.818 406.263 344.505 406.827 343.964 406.984C343.423 407.142 342.856 406.829 342.701 406.289L340.623 399.113C340.506 398.707 340.654 398.286 340.964 398.037Z" fill="#003959"/>
<path d="M393.363 399.443C393.363 399.443 404.126 363.419 418.92 320.98C429.193 291.512 474.936 305.985 511.243 303.061C543.548 300.462 543.551 252.792 543.551 252.792C543.551 252.792 400.18 250.297 387.487 281.88C379.605 301.487 354.981 387.796 354.981 387.796C354.981 394.981 377.392 394.981 393.363 399.443Z" fill="#00283F"/>
<path d="M496.011 362.546L482.502 350.393L472.605 368.754L487.248 383.3L497.426 377.229L496.011 362.546Z" fill="#FABCC6"/>
<path d="M485.118 417.822L489.572 419.936L514.451 368.774L509.466 366.383L485.118 417.822Z" fill="#003959"/>
<path d="M486.614 418.601C486.614 418.601 475.935 414.344 479.362 401.598C482.79 388.851 481.441 378.566 481.441 378.566C481.441 378.566 490.173 378.345 494.134 371.383C498.629 363.484 492.01 365.918 495.016 360.641L510.359 366.692L486.614 418.601Z" fill="#00C7C7"/>
<path d="M481.687 383.832C481.657 383.705 481.652 383.568 481.674 383.431C481.768 382.875 482.292 382.502 482.848 382.593L490.224 383.824C490.78 383.915 491.154 384.441 491.062 384.997C490.968 385.553 490.445 385.926 489.889 385.834L482.513 384.603C482.094 384.532 481.779 384.22 481.687 383.832Z" fill="#003959"/>
<path d="M481.041 387.703C481.01 387.576 481.005 387.439 481.028 387.302C481.122 386.746 481.645 386.373 482.202 386.464L489.577 387.695C490.134 387.789 490.507 388.312 490.416 388.868C490.322 389.424 489.799 389.797 489.242 389.705L481.866 388.474C481.447 388.406 481.132 388.091 481.041 387.703Z" fill="#003959"/>
<path d="M480.384 391.622C480.354 391.495 480.349 391.358 480.372 391.221C480.466 390.665 480.989 390.292 481.545 390.383L488.921 391.614C489.478 391.708 489.851 392.231 489.76 392.787C489.666 393.342 489.142 393.716 488.586 393.624L481.21 392.393C480.791 392.322 480.476 392.01 480.384 391.622Z" fill="#003959"/>
<path d="M411.185 268.792C457.314 310.613 487.107 352.795 487.107 352.795C487.651 361.948 478.921 379.167 465.61 387.998C465.61 387.998 419.76 334.163 384.479 298.923C381.026 293.552 399.873 276.835 411.185 268.792Z" fill="#003959"/>
<path d="M419.944 234.498L393.477 230.483C393.116 230.44 390.659 226.104 390.441 225.813C390.441 225.813 386.904 224.772 382.783 223.561C378.662 222.35 369.371 226.358 369.371 226.358C368.662 226.546 365.171 226.863 365.359 227.571L369.089 230.48C373.621 232.211 379.061 226.252 389.501 235.328C393.127 238.481 421.941 234.633 419.944 234.498Z" fill="#FABCC6"/>
<path d="M389.225 224.16C375.937 236.467 398.56 240.958 398.56 240.958C444.097 246.861 469.652 217.743 470.198 186.008C470.363 176.361 464.204 161.88 459.646 165.891C441.216 182.105 435.072 237.64 389.227 224.16H389.225Z" fill="#00C7C7"/>
<path d="M376.834 182.762H314.073C311.821 182.762 310.362 184.598 310.835 186.853L319.197 226.633C319.67 228.879 321.899 230.723 324.15 230.723H386.911C389.163 230.723 390.622 228.887 390.149 226.633L381.787 186.853C381.314 184.598 379.085 182.762 376.834 182.762Z" fill="#50FF81"/>
<path d="M324.733 228.445C323.258 228.445 321.698 227.144 321.379 225.656L313.018 185.876C312.886 185.264 312.995 184.714 313.305 184.327C313.6 183.963 314.082 183.761 314.648 183.761H377.41C378.885 183.761 380.445 185.063 380.764 186.55L389.125 226.33C389.249 226.942 389.148 227.492 388.838 227.88C388.535 228.252 388.069 228.445 387.495 228.445H324.733Z" fill="white"/>
<path d="M372.085 225.263L364.167 187.574C363.965 186.621 364.694 185.723 365.673 185.723H375.859C376.588 185.723 377.217 186.234 377.365 186.939L385.284 224.627C385.485 225.58 384.756 226.479 383.777 226.479H373.592C372.862 226.479 372.233 225.975 372.085 225.263Z" fill="#E3F5FF"/>
<path d="M318.248 188.991L317.906 187.356H330.483L330.825 188.991H318.248Z" fill="#73A7C3"/>
<path d="M324.054 193.052L323.713 191.409H345.754L346.103 193.052H324.054Z" fill="#D2ECFA"/>
<path d="M325.22 197.103L324.871 195.468H349.583L349.924 197.103H325.22Z" fill="#D2ECFA"/>
<path d="M326.377 201.153L326.035 199.518H345.926L346.275 201.153H326.377Z" fill="#D2ECFA"/>
<path d="M322.08 207.738L321.73 206.104H329.688L330.03 207.738H322.08Z" fill="#73A7C3"/>
<path d="M327.881 211.791L327.539 210.157H337.236L337.577 211.791H327.881Z" fill="#D2ECFA"/>
<path d="M339.898 211.791L339.557 210.157H349.246L349.587 211.791H339.898Z" fill="#D2ECFA"/>
<path d="M329.045 215.85L328.703 214.216H361.466L361.807 215.85H329.045Z" fill="#D2ECFA"/>
<path d="M330.201 219.9L329.859 218.265H354.843L355.184 219.9H330.201Z" fill="#D2ECFA"/>
<path d="M406.135 230.474H323.561C321.31 230.474 319.85 231.753 320.324 233.31H411.088C410.623 231.753 408.387 230.474 406.135 230.474Z" fill="#50FF81"/>
<path d="M544.448 258.985C545.787 231.57 537.852 182.433 500.064 164.417C480.681 155.176 459.814 161.483 457.499 169.105C453.17 183.35 454.768 210.605 472.157 209.066C486.138 223.646 474.171 252.076 474.171 252.076C494.042 268.168 530.591 272.717 544.448 258.982V258.985Z" fill="#00C7C7"/>
<path d="M475.655 160.65L465.825 150.337L458.82 159.028L464.445 164.457C464.445 164.457 455.883 185.879 461.112 185.859C466.34 185.836 476.488 164.569 475.655 160.65Z" fill="#FABCC6"/>
<path d="M465.828 139.547C457.762 137.332 453.535 127.134 456.388 116.768C459.24 106.403 468.091 99.7956 476.157 102.011C484.223 104.226 488.45 114.424 485.597 124.79C482.745 135.155 473.894 141.762 465.828 139.547Z" fill="#003959"/>
<path d="M455.253 138.4C456.357 143.561 460.719 146.98 464.996 146.036C469.273 145.092 471.848 140.144 470.745 134.984C469.642 129.824 465.279 126.405 461.002 127.349C456.725 128.293 454.15 133.24 455.256 138.4H455.253Z" fill="#003959"/>
<path d="M454.548 138.351C458.038 137.565 461.614 139.76 463.782 143.579C465.12 143.423 466.484 144.832 466.887 146.842C467.231 148.564 466.763 150.185 465.814 150.891C466.017 156.379 463.381 161.113 459.281 162.034C454.534 163.101 449.63 158.666 448.323 152.126C447.015 145.586 449.802 139.419 454.548 138.351Z" fill="#FABCC6"/>
<path d="M453.788 157.89C453.503 157.749 453.329 157.641 453.314 157.631C453.136 157.522 453.078 157.296 453.185 157.132C453.29 156.966 453.517 156.921 453.698 157.033C453.74 157.058 456.648 158.824 458.369 157.307C458.518 157.176 458.754 157.191 458.898 157.341C459.041 157.492 459.038 157.718 458.889 157.849C457.993 158.639 456.735 158.846 455.25 158.449C454.654 158.289 454.136 158.064 453.786 157.889L453.788 157.89Z" fill="#003959"/>
<path d="M453.804 150.609C454.213 151.694 453.962 152.746 453.242 152.961C452.522 153.177 451.606 152.472 451.196 151.391C450.787 150.306 451.038 149.254 451.758 149.039C452.478 148.823 453.394 149.528 453.804 150.609Z" fill="#003959"/>
<path d="M460.804 151.609C461.213 152.694 460.962 153.746 460.242 153.961C459.522 154.177 458.606 153.472 458.196 152.391C457.787 151.306 458.038 150.254 458.758 150.039C459.478 149.823 460.394 150.528 460.804 151.609Z" fill="#003959"/>
<path d="M455.768 155.87C455.64 155.821 455.551 155.693 455.549 155.538C455.543 154.885 455.751 150.857 455.83 149.366C454.769 149.564 453.558 148.727 453.4 148.613C453.241 148.498 453.206 148.263 453.324 148.089C453.441 147.914 453.662 147.864 453.824 147.978C454.199 148.245 455.411 148.918 456.039 148.501L456.612 148.123L456.575 148.821C456.573 148.879 456.26 154.726 456.268 155.488C456.27 155.696 456.112 155.877 455.915 155.89C455.865 155.893 455.817 155.885 455.773 155.868L455.768 155.87Z" fill="#003959"/>
<path d="M468.869 142.359C467.572 135.262 461.676 130.762 455.701 132.302C450.711 133.589 445.971 139.282 447.195 149.356L447.873 148.938C448.022 149.373 448.101 141.875 453.248 139.747C454.146 148.581 462.382 146.76 463.133 145.189C464.348 145.303 465.583 146.469 465.949 148.521C466.163 149.724 465.724 151.982 464.874 152.651L465.653 152.935C465.679 153.72 469.769 147.274 468.871 142.363L468.869 142.359Z" fill="#003959"/>
<path d="M446.49 313.552H529.768V304.435H446.49V313.552Z" fill="#E3F5FF"/>
<path d="M429.025 419.005L449.768 313.277L448.35 313.067L427.605 418.797L429.025 419.005Z" fill="#BADDF0"/>
<path d="M553.592 419.933L555 419.677L529.064 313.043L527.657 313.301L553.592 419.933Z" fill="#BADDF0"/>
<path d="M528.485 313.9C528.741 313.854 534.811 312.773 540.983 309.453C544.634 307.489 547.55 305.146 549.649 302.488C552.299 299.135 553.641 295.283 553.641 291.039V213.847H552.203V291.039C552.203 294.945 550.968 298.493 548.531 301.585C546.56 304.085 543.803 306.301 540.332 308.171C534.364 311.39 528.299 312.474 528.238 312.484L528.485 313.9Z" fill="#BADDF0"/>
<path d="M432.903 395.48H548.531V396.729H432.903V395.48Z" fill="#BADDF0"/>
<path d="M296.999 233.67H454.793V242.536H296.999V233.67Z" fill="#E3F5FF"/>
<path d="M440.246 242.657V419.602H444.098V242.657" fill="#E3F5FF"/>
<path d="M305.601 242.657V419.602H308.879V242.657" fill="#E3F5FF"/>
<path d="M455.178 231.609C455.178 231.609 422.085 231.553 420.197 231.429C418.31 231.304 412.466 224.916 412.466 224.916C410.972 223.213 408.513 222.74 406.493 223.768L394.284 228.535C393.235 228.944 392.717 230.127 393.123 231.175L394.77 235.398C395.164 236.409 396.373 236.825 397.305 236.272L399.346 235.061L405.896 235.454C407.837 235.937 410.243 240.98 415.99 241.358C421.737 241.736 472.887 243.041 472.887 243.041C474.988 243.107 457.577 231.502 455.181 231.609H455.178Z" fill="#FABCC6"/>
<path d="M421.011 231.45C411.166 245.748 419.708 251.238 419.708 251.238C440.534 261.172 466.371 261.784 479.626 255.174C505.843 242.103 519.988 179.547 489.646 164.917C475.139 157.921 484.522 202.763 463.108 225.115C455.288 233.278 439.053 232.577 421.011 231.453V231.45Z" fill="#00B2B2"/>
<defs>
<filter id="filter0_d_5168_57245" x="0" y="0" width="301.23" height="275.824" filterUnits="userSpaceOnUse" color-interpolation-filters="sRGB">
<feFlood flood-opacity="0" result="BackgroundImageFix"/>
<feColorMatrix in="SourceAlpha" type="matrix" values="0 0 0 0 0 0 0 0 0 0 0 0 0 0 0 0 0 0 127 0" result="hardAlpha"/>
<feOffset dx="5" dy="10"/>
<feGaussianBlur stdDeviation="25"/>
<feComposite in2="hardAlpha" operator="out"/>
<feColorMatrix type="matrix" values="0 0 0 0 0 0 0 0 0 0.141176 0 0 0 0 0.282353 0 0 0 0.07 0"/>
<feBlend mode="normal" in2="BackgroundImageFix" result="effect1_dropShadow_5168_57245"/>
<feBlend mode="normal" in="SourceGraphic" in2="effect1_dropShadow_5168_57245" result="shape"/>
</filter>
</defs>
</svg>
