<svg width="566" height="420" viewBox="0 0 566 420" fill="none" xmlns="http://www.w3.org/2000/svg">
<path opacity="0.2" d="M433.302 257.901H382.348V287.204H433.302V257.901Z" fill="black"/>
<path opacity="0.1" d="M433.302 287.202H382.348V316.505H433.302V287.202Z" fill="black"/>
<path opacity="0.2" d="M502.209 282.432H456.304C455.305 282.432 454.494 283.244 454.494 284.246V320.417C454.494 321.419 455.305 322.232 456.304 322.232H502.209C503.208 322.232 504.019 321.419 504.019 320.417V284.246C504.019 283.244 503.208 282.432 502.209 282.432Z" fill="#A4C340"/>
<path opacity="0.2" d="M418.972 272.257H368.018V301.561H418.972V272.257Z" fill="black"/>
<path opacity="0.1" d="M418.972 301.562H368.018V330.866H418.972V301.562Z" fill="black"/>
<path opacity="0.2" d="M489.017 228.265H429.252C427.951 228.265 426.896 229.322 426.896 230.626V277.717C426.896 279.021 427.951 280.078 429.252 280.078H489.017C490.318 280.078 491.373 279.021 491.373 277.717V230.626C491.373 229.322 490.318 228.265 489.017 228.265Z" fill="#A4C340"/>
<path opacity="0.2" d="M487.884 296.795H441.98C440.98 296.795 440.17 297.607 440.17 298.609V334.781C440.17 335.783 440.98 336.595 441.98 336.595H487.884C488.884 336.595 489.694 335.783 489.694 334.781V298.609C489.694 297.607 488.884 296.795 487.884 296.795Z" fill="#A4C340"/>
<g filter="url(#filter0_d_5168_57094)">
<path d="M490.009 220.452H373.799C364.371 220.452 359.657 220.452 356.728 223.381C353.799 226.31 353.799 231.024 353.799 240.452V319.753C353.799 329.181 353.799 333.895 356.728 336.824C359.657 339.753 364.371 339.753 373.799 339.753H490.009C499.437 339.753 504.151 339.753 507.08 336.824C510.009 333.895 510.009 329.181 510.009 319.753V240.452C510.009 231.024 510.009 226.31 507.08 223.381C504.151 220.452 499.437 220.452 490.009 220.452Z" fill="white"/>
</g>
<rect x="357.721" y="243.511" width="42.0798" height="4.90238" fill="#EFF2F5"/>
<rect x="357.721" y="251.982" width="26.4281" height="2.22836" fill="#EFF2F5"/>
<rect x="357.721" y="265.567" width="42.0798" height="4.90238" fill="#EFF2F5"/>
<rect x="357.721" y="274.037" width="26.4281" height="2.22836" fill="#EFF2F5"/>
<rect x="357.721" y="287.622" width="42.0798" height="4.90238" fill="#EFF2F5"/>
<rect x="357.721" y="296.093" width="26.4281" height="2.22836" fill="#EFF2F5"/>
<path d="M404.811 227.471H505.762V332.928C505.762 333.674 505.369 334.391 504.67 334.919C503.972 335.447 503.024 335.743 502.036 335.743H408.537C407.549 335.743 406.601 335.447 405.902 334.919C405.203 334.391 404.811 333.674 404.811 332.928V227.471Z" fill="#EFF2F5"/>
<path d="M416.187 237.703V241.489H415.419V238.56H415.335L414.595 241.322H413.826L413.086 238.56H413.003V241.489H412.234V237.703H413.543L414.211 240.459L414.879 237.703H416.187ZM417.626 241.555C417.05 241.555 416.763 241.251 416.763 240.642C416.763 240.353 416.839 240.145 416.991 240.019C417.147 239.889 417.395 239.813 417.737 239.791L418.333 239.746V239.573C418.333 239.462 418.307 239.384 418.255 239.34C418.206 239.295 418.123 239.273 418.004 239.273C417.882 239.273 417.713 239.278 417.497 239.289C417.282 239.297 417.102 239.306 416.957 239.317L416.935 238.8C417.336 238.692 417.715 238.638 418.071 238.638C418.427 238.638 418.683 238.712 418.839 238.861C418.999 239.009 419.079 239.247 419.079 239.573V240.731C419.086 240.824 419.101 240.887 419.123 240.921C419.149 240.954 419.195 240.978 419.262 240.993L419.24 241.555C419.047 241.555 418.893 241.542 418.778 241.516C418.667 241.49 418.555 241.438 418.444 241.36C418.173 241.49 417.9 241.555 417.626 241.555ZM417.787 240.949C417.928 240.949 418.082 240.926 418.249 240.882L418.333 240.859V240.264L417.826 240.308C417.618 240.327 417.514 240.438 417.514 240.642C417.514 240.846 417.605 240.949 417.787 240.949ZM419.79 238.705H420.53V238.861C420.671 238.779 420.796 238.722 420.903 238.688C421.015 238.655 421.133 238.638 421.26 238.638C421.601 238.638 421.844 238.748 421.989 238.967C422.134 239.186 422.206 239.523 422.206 239.98V241.489H421.46V240.002C421.46 239.746 421.428 239.566 421.365 239.462C421.306 239.358 421.191 239.306 421.02 239.306C420.898 239.306 420.758 239.332 420.603 239.384L420.536 239.406V241.489H419.79V238.705ZM423.546 241.555C422.971 241.555 422.683 241.251 422.683 240.642C422.683 240.353 422.759 240.145 422.911 240.019C423.067 239.889 423.316 239.813 423.658 239.791L424.253 239.746V239.573C424.253 239.462 424.227 239.384 424.175 239.34C424.127 239.295 424.043 239.273 423.925 239.273C423.802 239.273 423.633 239.278 423.418 239.289C423.203 239.297 423.023 239.306 422.878 239.317L422.856 238.8C423.257 238.692 423.635 238.638 423.992 238.638C424.348 238.638 424.604 238.712 424.76 238.861C424.919 239.009 424.999 239.247 424.999 239.573V240.731C425.007 240.824 425.021 240.887 425.044 240.921C425.07 240.954 425.116 240.978 425.183 240.993L425.161 241.555C424.968 241.555 424.814 241.542 424.699 241.516C424.587 241.49 424.476 241.438 424.365 241.36C424.094 241.49 423.821 241.555 423.546 241.555ZM423.708 240.949C423.849 240.949 424.003 240.926 424.17 240.882L424.253 240.859V240.264L423.747 240.308C423.539 240.327 423.435 240.438 423.435 240.642C423.435 240.846 423.526 240.949 423.708 240.949ZM426.829 242.769C426.432 242.769 426.122 242.71 425.9 242.591C425.681 242.476 425.571 242.286 425.571 242.023C425.571 241.886 425.603 241.763 425.666 241.656C425.733 241.552 425.835 241.444 425.972 241.333C425.905 241.288 425.853 241.231 425.816 241.16C425.783 241.09 425.766 241.015 425.766 240.937C425.766 240.882 425.779 240.824 425.805 240.765C425.835 240.705 425.894 240.605 425.983 240.464C425.731 240.279 425.605 240.008 425.605 239.651C425.605 239.314 425.707 239.063 425.911 238.9C426.119 238.733 426.406 238.649 426.774 238.649C426.93 238.649 427.117 238.673 427.336 238.722L428.232 238.694V239.289L427.815 239.256C427.863 239.334 427.895 239.401 427.909 239.456C427.928 239.512 427.937 239.588 427.937 239.685C427.937 240.019 427.843 240.258 427.653 240.403C427.464 240.544 427.176 240.614 426.79 240.614C426.679 240.614 426.594 240.607 426.534 240.592C426.497 240.681 426.479 240.757 426.479 240.82C426.479 240.898 426.516 240.947 426.59 240.965C426.668 240.98 426.811 240.989 427.019 240.993C427.304 241 427.531 241.023 427.698 241.06C427.869 241.097 428 241.173 428.093 241.288C428.186 241.399 428.232 241.565 428.232 241.784C428.232 242.121 428.117 242.37 427.887 242.53C427.657 242.689 427.304 242.769 426.829 242.769ZM426.779 240.047C427.061 240.047 427.202 239.909 427.202 239.635C427.202 239.364 427.061 239.228 426.779 239.228C426.493 239.228 426.351 239.364 426.351 239.635C426.351 239.909 426.493 240.047 426.779 240.047ZM426.879 242.157C427.091 242.157 427.243 242.132 427.336 242.084C427.433 242.036 427.481 241.962 427.481 241.862C427.481 241.769 427.445 241.709 427.375 241.683C427.308 241.661 427.228 241.648 427.136 241.644C427.047 241.641 426.987 241.639 426.957 241.639L426.456 241.6C426.356 241.7 426.306 241.8 426.306 241.901C426.306 241.99 426.352 242.055 426.445 242.095C426.542 242.136 426.686 242.157 426.879 242.157ZM429.775 241.555C429.341 241.555 429.028 241.446 428.835 241.227C428.642 241.008 428.545 240.653 428.545 240.164C428.545 239.651 428.645 239.269 428.846 239.017C429.05 238.764 429.365 238.638 429.792 238.638C430.186 238.638 430.482 238.744 430.683 238.955C430.887 239.163 430.989 239.477 430.989 239.896L430.933 240.414H429.297C429.304 240.544 429.326 240.644 429.363 240.715C429.404 240.781 429.467 240.83 429.553 240.859C429.642 240.885 429.764 240.898 429.92 240.898C430.043 240.898 430.189 240.895 430.36 240.887C430.531 240.88 430.655 240.872 430.733 240.865L430.889 240.848L430.9 241.399C430.481 241.503 430.106 241.555 429.775 241.555ZM430.254 239.846C430.254 239.624 430.219 239.469 430.148 239.384C430.082 239.295 429.961 239.25 429.787 239.25C429.608 239.25 429.482 239.297 429.408 239.39C429.334 239.479 429.295 239.631 429.291 239.846H430.254ZM432.435 241.555C432.064 241.555 431.797 241.438 431.634 241.205C431.47 240.967 431.389 240.611 431.389 240.136C431.389 239.616 431.48 239.238 431.661 239C431.847 238.759 432.131 238.638 432.513 238.638C432.651 238.638 432.86 238.664 433.142 238.716V237.591H433.888V241.489H433.148V241.372C432.996 241.442 432.866 241.49 432.758 241.516C432.651 241.542 432.543 241.555 432.435 241.555ZM432.608 240.887C432.741 240.887 432.894 240.865 433.064 240.82L433.142 240.804V239.34C432.946 239.302 432.78 239.284 432.647 239.284C432.469 239.284 432.341 239.347 432.263 239.473C432.185 239.599 432.146 239.815 432.146 240.119C432.146 240.397 432.181 240.596 432.252 240.715C432.322 240.83 432.441 240.887 432.608 240.887ZM438.813 237.703V241.489H438.045V239.919H436.636V241.489H435.868V237.703H436.636V239.25H438.045V237.703H438.813ZM440.672 241.555C440.252 241.555 439.933 241.429 439.714 241.177C439.499 240.921 439.391 240.559 439.391 240.091C439.391 239.627 439.499 239.269 439.714 239.017C439.933 238.764 440.252 238.638 440.672 238.638C441.091 238.638 441.408 238.764 441.624 239.017C441.843 239.269 441.952 239.627 441.952 240.091C441.952 240.559 441.843 240.921 441.624 241.177C441.408 241.429 441.091 241.555 440.672 241.555ZM440.672 240.921C440.85 240.921 440.982 240.856 441.067 240.726C441.152 240.596 441.195 240.384 441.195 240.091C441.195 239.798 441.152 239.588 441.067 239.462C440.982 239.336 440.85 239.273 440.672 239.273C440.494 239.273 440.362 239.336 440.276 239.462C440.191 239.588 440.148 239.798 440.148 240.091C440.148 240.384 440.191 240.596 440.276 240.726C440.362 240.856 440.494 240.921 440.672 240.921ZM443.473 241.555C443.228 241.555 442.93 241.522 442.577 241.455L442.399 241.422L442.421 240.798C442.87 240.858 443.197 240.887 443.401 240.887C443.538 240.887 443.646 240.872 443.724 240.843C443.806 240.813 443.846 240.757 443.846 240.676C443.846 240.601 443.807 240.548 443.729 240.514C443.655 240.481 443.529 240.449 443.351 240.42C443.284 240.412 443.238 240.405 443.212 240.397C443.026 240.364 442.874 240.323 442.755 240.275C442.636 240.223 442.54 240.143 442.466 240.035C442.391 239.924 442.354 239.77 442.354 239.573C442.354 239.258 442.451 239.024 442.644 238.872C442.837 238.72 443.102 238.644 443.44 238.644C443.64 238.644 443.935 238.679 444.325 238.749L444.509 238.783L444.498 239.401C444.049 239.341 443.716 239.312 443.501 239.312C443.375 239.312 443.275 239.325 443.201 239.351C443.13 239.377 443.095 239.427 443.095 239.501C443.095 239.579 443.132 239.635 443.206 239.668C443.28 239.698 443.401 239.727 443.568 239.757L443.763 239.791C444.06 239.85 444.271 239.939 444.397 240.058C444.524 240.173 444.587 240.36 444.587 240.62C444.587 240.939 444.496 241.175 444.314 241.327C444.132 241.479 443.852 241.555 443.473 241.555ZM446.071 241.555C445.856 241.555 445.689 241.522 445.57 241.455C445.452 241.388 445.366 241.279 445.314 241.127C445.262 240.974 445.236 240.765 445.236 240.498V239.34H444.908V238.705H445.236V237.931H445.982V238.705H446.667V239.34H445.982V240.481C445.982 240.626 445.995 240.731 446.021 240.798C446.047 240.861 446.112 240.891 446.216 240.887L446.639 240.876L446.673 241.472C446.524 241.505 446.407 241.527 446.322 241.539C446.24 241.55 446.157 241.555 446.071 241.555ZM447.153 238.705H447.899V241.489H447.153V238.705ZM447.153 237.597H447.899V238.349H447.153V237.597ZM448.588 238.705H449.329V238.861C449.47 238.779 449.594 238.722 449.702 238.688C449.813 238.655 449.932 238.638 450.058 238.638C450.399 238.638 450.643 238.748 450.787 238.967C450.932 239.186 451.004 239.523 451.004 239.98V241.489H450.258V240.002C450.258 239.746 450.227 239.566 450.164 239.462C450.104 239.358 449.989 239.306 449.819 239.306C449.696 239.306 449.557 239.332 449.401 239.384L449.334 239.406V241.489H448.588V238.705ZM452.784 242.769C452.387 242.769 452.077 242.71 451.855 242.591C451.636 242.476 451.526 242.286 451.526 242.023C451.526 241.886 451.558 241.763 451.621 241.656C451.688 241.552 451.79 241.444 451.927 241.333C451.86 241.288 451.808 241.231 451.771 241.16C451.738 241.09 451.721 241.015 451.721 240.937C451.721 240.882 451.734 240.824 451.76 240.765C451.79 240.705 451.849 240.605 451.938 240.464C451.686 240.279 451.56 240.008 451.56 239.651C451.56 239.314 451.662 239.063 451.866 238.9C452.074 238.733 452.361 238.649 452.729 238.649C452.885 238.649 453.072 238.673 453.291 238.722L454.187 238.694V239.289L453.77 239.256C453.818 239.334 453.85 239.401 453.864 239.456C453.883 239.512 453.892 239.588 453.892 239.685C453.892 240.019 453.798 240.258 453.608 240.403C453.419 240.544 453.131 240.614 452.745 240.614C452.634 240.614 452.549 240.607 452.489 240.592C452.452 240.681 452.434 240.757 452.434 240.82C452.434 240.898 452.471 240.947 452.545 240.965C452.623 240.98 452.766 240.989 452.974 240.993C453.259 241 453.486 241.023 453.653 241.06C453.824 241.097 453.955 241.173 454.048 241.288C454.141 241.399 454.187 241.565 454.187 241.784C454.187 242.121 454.072 242.37 453.842 242.53C453.612 242.689 453.259 242.769 452.784 242.769ZM452.734 240.047C453.016 240.047 453.157 239.909 453.157 239.635C453.157 239.364 453.016 239.228 452.734 239.228C452.449 239.228 452.306 239.364 452.306 239.635C452.306 239.909 452.449 240.047 452.734 240.047ZM452.835 242.157C453.046 242.157 453.198 242.132 453.291 242.084C453.388 242.036 453.436 241.962 453.436 241.862C453.436 241.769 453.401 241.709 453.33 241.683C453.263 241.661 453.183 241.648 453.091 241.644C453.002 241.641 452.942 241.639 452.912 241.639L452.411 241.6C452.311 241.7 452.261 241.8 452.261 241.901C452.261 241.99 452.308 242.055 452.4 242.095C452.497 242.136 452.642 242.157 452.835 242.157Z" fill="#002448"/>
<path d="M412.156 256.866V253.449H412.557V254.604C412.64 254.566 412.75 254.527 412.886 254.489C413.023 254.451 413.154 254.432 413.278 254.432C413.497 254.432 413.666 254.472 413.784 254.551C413.901 254.628 413.981 254.752 414.022 254.924C414.067 255.095 414.089 255.321 414.089 255.601V256.866H413.683V255.62C413.683 255.42 413.671 255.259 413.645 255.138C413.623 255.017 413.578 254.93 413.512 254.876C413.445 254.822 413.34 254.795 413.197 254.795C413.082 254.795 412.964 254.811 412.843 254.842C412.726 254.871 412.63 254.9 412.557 254.928V256.866H412.156ZM415.521 256.918C415.355 256.918 415.223 256.893 415.125 256.842C415.026 256.791 414.954 256.703 414.91 256.579C414.869 256.452 414.848 256.274 414.848 256.045V254.828H414.519V254.48H414.848V253.764H415.253V254.48H415.984V254.828H415.253V255.93C415.253 256.093 415.26 256.22 415.273 256.312C415.288 256.401 415.319 256.465 415.363 256.503C415.411 256.538 415.484 256.556 415.583 256.556C415.615 256.556 415.654 256.554 415.702 256.551C415.753 256.548 415.804 256.544 415.855 256.541C415.909 256.535 415.955 256.53 415.993 256.527L416.017 256.866C415.947 256.875 415.863 256.886 415.764 256.899C415.669 256.912 415.587 256.918 415.521 256.918ZM417.198 256.918C417.033 256.918 416.901 256.893 416.802 256.842C416.704 256.791 416.632 256.703 416.588 256.579C416.546 256.452 416.525 256.274 416.525 256.045V254.828H416.196V254.48H416.525V253.764H416.931V254.48H417.661V254.828H416.931V255.93C416.931 256.093 416.937 256.22 416.95 256.312C416.966 256.401 416.996 256.465 417.041 256.503C417.089 256.538 417.162 256.556 417.26 256.556C417.292 256.556 417.332 256.554 417.38 256.551C417.431 256.548 417.481 256.544 417.532 256.541C417.586 256.535 417.633 256.53 417.671 256.527L417.695 256.866C417.625 256.875 417.54 256.886 417.442 256.899C417.346 256.912 417.265 256.918 417.198 256.918ZM418.089 257.916V254.48H418.489V254.647C418.54 254.615 418.604 254.583 418.68 254.551C418.757 254.516 418.838 254.488 418.924 254.465C419.013 254.443 419.099 254.432 419.181 254.432C419.487 254.432 419.709 254.529 419.849 254.723C419.989 254.917 420.059 255.224 420.059 255.644C420.059 255.956 420.023 256.206 419.95 256.393C419.88 256.578 419.767 256.711 419.611 256.794C419.458 256.874 419.259 256.913 419.014 256.913C418.919 256.913 418.82 256.907 418.718 256.894C418.62 256.882 418.543 256.87 418.489 256.861V257.916H418.089ZM418.981 256.56C419.15 256.56 419.282 256.53 419.377 256.47C419.472 256.406 419.539 256.307 419.577 256.174C419.619 256.037 419.639 255.86 419.639 255.644C419.639 255.332 419.593 255.113 419.501 254.986C419.409 254.855 419.28 254.79 419.115 254.79C419.041 254.79 418.965 254.799 418.885 254.819C418.809 254.838 418.736 254.86 418.666 254.885C418.596 254.911 418.537 254.938 418.489 254.967V256.517C418.54 256.524 418.612 256.533 418.704 256.546C418.8 256.556 418.892 256.56 418.981 256.56ZM421.378 256.913C421.301 256.913 421.209 256.909 421.101 256.899C420.996 256.89 420.893 256.878 420.791 256.866C420.689 256.85 420.598 256.836 420.519 256.823L420.543 256.479C420.622 256.489 420.711 256.5 420.81 256.513C420.912 256.525 421.01 256.536 421.106 256.546C421.201 256.552 421.279 256.556 421.34 256.556C421.464 256.556 421.567 256.544 421.65 256.522C421.732 256.5 421.794 256.462 421.836 256.408C421.88 256.354 421.903 256.276 421.903 256.174C421.903 256.097 421.885 256.039 421.85 255.997C421.818 255.956 421.758 255.921 421.669 255.892C421.583 255.864 421.456 255.838 421.287 255.816C421.109 255.787 420.959 255.751 420.838 255.706C420.721 255.662 420.633 255.596 420.576 255.51C420.522 255.425 420.495 255.302 420.495 255.143C420.495 254.962 420.536 254.82 420.619 254.718C420.702 254.613 420.81 254.54 420.943 254.499C421.077 254.454 421.217 254.432 421.363 254.432C421.456 254.432 421.556 254.437 421.664 254.446C421.772 254.456 421.877 254.469 421.979 254.485C422.081 254.497 422.168 254.51 422.241 254.523L422.232 254.866C422.156 254.854 422.065 254.842 421.96 254.833C421.858 254.82 421.756 254.811 421.654 254.804C421.553 254.795 421.464 254.79 421.387 254.79C421.295 254.79 421.212 254.799 421.139 254.819C421.066 254.838 421.007 254.873 420.963 254.924C420.921 254.971 420.901 255.038 420.901 255.124C420.901 255.191 420.916 255.245 420.948 255.286C420.98 255.328 421.039 255.363 421.125 255.391C421.211 255.417 421.336 255.444 421.502 255.472C421.699 255.504 421.857 255.544 421.974 255.592C422.095 255.639 422.183 255.708 422.237 255.797C422.291 255.883 422.318 256.004 422.318 256.159C422.318 256.443 422.233 256.64 422.065 256.751C421.899 256.859 421.67 256.913 421.378 256.913ZM422.823 255.353V254.776H423.266V255.353H422.823ZM422.823 256.866V256.288H423.266V256.866H422.823ZM424.095 256.952L423.723 256.828L425.073 253.478L425.446 253.607L424.095 256.952ZM426.108 256.952L425.736 256.828L427.086 253.478L427.459 253.607L426.108 256.952ZM428.293 256.866L427.744 254.48H428.16L428.603 256.517H428.684L429.219 254.527H429.634L430.173 256.517H430.254L430.698 254.48H431.109L430.56 256.866H429.897L429.424 255.062L428.952 256.866H428.293ZM432.119 256.913C431.893 256.913 431.721 256.851 431.603 256.727C431.489 256.603 431.431 256.42 431.431 256.179C431.431 256.02 431.458 255.891 431.513 255.792C431.57 255.693 431.654 255.619 431.765 255.568C431.88 255.517 432.018 255.485 432.181 255.472L432.896 255.401V255.205C432.896 255.049 432.861 254.939 432.791 254.876C432.721 254.812 432.62 254.78 432.486 254.78C432.403 254.78 432.306 254.784 432.195 254.79C432.087 254.796 431.977 254.804 431.866 254.814C431.758 254.823 431.662 254.833 431.579 254.842L431.56 254.537C431.637 254.521 431.729 254.505 431.837 254.489C431.948 254.473 432.063 254.461 432.181 254.451C432.302 254.438 432.411 254.432 432.51 254.432C432.694 254.432 432.846 254.459 432.963 254.513C433.081 254.567 433.167 254.652 433.221 254.766C433.278 254.877 433.307 255.022 433.307 255.2V256.393C433.313 256.46 433.34 256.509 433.388 256.541C433.436 256.57 433.496 256.589 433.569 256.598L433.555 256.913C433.485 256.913 433.42 256.909 433.359 256.899C433.299 256.893 433.245 256.883 433.197 256.87C433.149 256.855 433.106 256.836 433.068 256.813C433.03 256.788 432.993 256.759 432.958 256.727C432.898 256.753 432.822 256.78 432.729 256.808C432.637 256.837 432.539 256.861 432.434 256.88C432.329 256.902 432.224 256.913 432.119 256.913ZM432.19 256.579C432.273 256.579 432.359 256.573 432.448 256.56C432.537 256.544 432.621 256.525 432.701 256.503C432.78 256.481 432.846 256.46 432.896 256.441V255.697L432.233 255.759C432.096 255.771 431.998 255.813 431.937 255.883C431.877 255.95 431.847 256.045 431.847 256.169C431.847 256.296 431.875 256.396 431.932 256.47C431.993 256.543 432.079 256.579 432.19 256.579ZM434.752 256.913C434.654 256.913 434.561 256.902 434.475 256.88C434.389 256.861 434.31 256.826 434.237 256.775C434.167 256.721 434.105 256.648 434.051 256.556C433.997 256.463 433.955 256.347 433.927 256.207C433.898 256.064 433.884 255.892 433.884 255.692C433.884 255.409 433.917 255.175 433.984 254.99C434.051 254.803 434.157 254.663 434.304 254.57C434.453 254.478 434.649 254.432 434.891 254.432C434.98 254.432 435.08 254.438 435.191 254.451C435.306 254.464 435.395 254.477 435.458 254.489V253.449H435.864V256.866H435.463V256.713C435.412 256.738 435.347 256.767 435.267 256.799C435.188 256.831 435.104 256.858 435.015 256.88C434.926 256.902 434.838 256.913 434.752 256.913ZM434.814 256.551C434.894 256.551 434.973 256.543 435.053 256.527C435.135 256.508 435.212 256.486 435.282 256.46C435.352 256.435 435.411 256.411 435.458 256.389V254.833C435.42 254.827 435.369 254.82 435.306 254.814C435.242 254.804 435.175 254.798 435.105 254.795C435.038 254.788 434.976 254.785 434.919 254.785C434.763 254.785 434.641 254.819 434.552 254.885C434.463 254.952 434.399 255.054 434.361 255.191C434.323 255.324 434.304 255.491 434.304 255.692C434.304 255.873 434.316 256.021 434.342 256.136C434.37 256.247 434.409 256.333 434.456 256.393C434.504 256.454 434.558 256.495 434.619 256.517C434.682 256.54 434.747 256.551 434.814 256.551ZM436.533 256.866V254.48H436.934V256.866H436.533ZM436.533 253.974V253.53H436.934V253.974H436.533ZM437.576 255.744V255.372H439.022V255.744H437.576ZM440.194 256.913C439.969 256.913 439.797 256.851 439.679 256.727C439.565 256.603 439.507 256.42 439.507 256.179C439.507 256.02 439.534 255.891 439.588 255.792C439.646 255.693 439.73 255.619 439.841 255.568C439.956 255.517 440.094 255.485 440.257 255.472L440.972 255.401V255.205C440.972 255.049 440.937 254.939 440.867 254.876C440.797 254.812 440.696 254.78 440.562 254.78C440.479 254.78 440.382 254.784 440.271 254.79C440.163 254.796 440.053 254.804 439.942 254.814C439.833 254.823 439.738 254.833 439.655 254.842L439.636 254.537C439.713 254.521 439.805 254.505 439.913 254.489C440.024 254.473 440.139 254.461 440.257 254.451C440.377 254.438 440.487 254.432 440.586 254.432C440.77 254.432 440.921 254.459 441.039 254.513C441.157 254.567 441.243 254.652 441.297 254.766C441.354 254.877 441.383 255.022 441.383 255.2V256.393C441.389 256.46 441.416 256.509 441.464 256.541C441.512 256.57 441.572 256.589 441.645 256.598L441.631 256.913C441.561 256.913 441.496 256.909 441.435 256.899C441.375 256.893 441.321 256.883 441.273 256.87C441.225 256.855 441.182 256.836 441.144 256.813C441.106 256.788 441.069 256.759 441.034 256.727C440.974 256.753 440.898 256.78 440.805 256.808C440.713 256.837 440.614 256.861 440.509 256.88C440.404 256.902 440.299 256.913 440.194 256.913ZM440.266 256.579C440.349 256.579 440.435 256.573 440.524 256.56C440.613 256.544 440.697 256.525 440.777 256.503C440.856 256.481 440.921 256.46 440.972 256.441V255.697L440.309 255.759C440.172 255.771 440.074 255.813 440.013 255.883C439.953 255.95 439.922 256.045 439.922 256.169C439.922 256.296 439.951 256.396 440.008 256.47C440.069 256.543 440.155 256.579 440.266 256.579ZM442.093 256.866V253.449H442.499V256.866H442.093ZM443.169 255.744V255.372H444.614V255.744H443.169ZM446.073 256.913C446.003 256.913 445.917 256.91 445.815 256.904C445.717 256.901 445.616 256.894 445.515 256.885C445.413 256.875 445.324 256.867 445.247 256.861V253.449H445.653V254.59C445.729 254.555 445.831 254.52 445.958 254.485C446.089 254.45 446.213 254.432 446.331 254.432C446.55 254.432 446.723 254.473 446.851 254.556C446.981 254.636 447.073 254.764 447.127 254.943C447.185 255.121 447.213 255.351 447.213 255.635C447.213 255.953 447.178 256.206 447.108 256.393C447.042 256.578 446.925 256.711 446.76 256.794C446.595 256.874 446.366 256.913 446.073 256.913ZM446.068 256.551C446.278 256.551 446.434 256.519 446.536 256.455C446.638 256.392 446.706 256.293 446.741 256.159C446.776 256.023 446.793 255.848 446.793 255.635C446.793 255.437 446.778 255.277 446.746 255.153C446.717 255.029 446.665 254.938 446.588 254.881C446.512 254.82 446.409 254.79 446.278 254.79C446.167 254.79 446.052 254.806 445.935 254.838C445.82 254.866 445.726 254.893 445.653 254.919V256.527C445.72 256.533 445.795 256.54 445.877 256.546C445.963 256.549 446.027 256.551 446.068 256.551ZM448.312 256.913C448.086 256.913 447.915 256.851 447.797 256.727C447.682 256.603 447.625 256.42 447.625 256.179C447.625 256.02 447.652 255.891 447.706 255.792C447.764 255.693 447.848 255.619 447.959 255.568C448.074 255.517 448.212 255.485 448.374 255.472L449.09 255.401V255.205C449.09 255.049 449.055 254.939 448.985 254.876C448.915 254.812 448.813 254.78 448.68 254.78C448.597 254.78 448.5 254.784 448.389 254.79C448.281 254.796 448.171 254.804 448.059 254.814C447.951 254.823 447.856 254.833 447.773 254.842L447.754 254.537C447.83 254.521 447.923 254.505 448.031 254.489C448.142 254.473 448.257 254.461 448.374 254.451C448.495 254.438 448.605 254.432 448.704 254.432C448.888 254.432 449.039 254.459 449.157 254.513C449.275 254.567 449.361 254.652 449.415 254.766C449.472 254.877 449.501 255.022 449.501 255.2V256.393C449.507 256.46 449.534 256.509 449.582 256.541C449.629 256.57 449.69 256.589 449.763 256.598L449.749 256.913C449.679 256.913 449.613 256.909 449.553 256.899C449.493 256.893 449.439 256.883 449.391 256.87C449.343 256.855 449.3 256.836 449.262 256.813C449.224 256.788 449.187 256.759 449.152 256.727C449.092 256.753 449.015 256.78 448.923 256.808C448.831 256.837 448.732 256.861 448.627 256.88C448.522 256.902 448.417 256.913 448.312 256.913ZM448.384 256.579C448.467 256.579 448.553 256.573 448.642 256.56C448.731 256.544 448.815 256.525 448.895 256.503C448.974 256.481 449.039 256.46 449.09 256.441V255.697L448.427 255.759C448.29 255.771 448.191 255.813 448.131 255.883C448.071 255.95 448.04 256.045 448.04 256.169C448.04 256.296 448.069 256.396 448.126 256.47C448.187 256.543 448.273 256.579 448.384 256.579ZM450.946 256.913C450.847 256.913 450.755 256.902 450.669 256.88C450.583 256.861 450.504 256.826 450.431 256.775C450.361 256.721 450.298 256.648 450.244 256.556C450.19 256.463 450.149 256.347 450.12 256.207C450.092 256.064 450.077 255.892 450.077 255.692C450.077 255.409 450.111 255.175 450.178 254.99C450.244 254.803 450.351 254.663 450.497 254.57C450.647 254.478 450.842 254.432 451.084 254.432C451.173 254.432 451.274 254.438 451.385 254.451C451.499 254.464 451.588 254.477 451.652 254.489V253.449H452.058V256.866H451.657V256.713C451.606 256.738 451.541 256.767 451.461 256.799C451.382 256.831 451.297 256.858 451.208 256.88C451.119 256.902 451.032 256.913 450.946 256.913ZM451.008 256.551C451.087 256.551 451.167 256.543 451.247 256.527C451.329 256.508 451.406 256.486 451.476 256.46C451.546 256.435 451.604 256.411 451.652 256.389V254.833C451.614 254.827 451.563 254.82 451.499 254.814C451.436 254.804 451.369 254.798 451.299 254.795C451.232 254.788 451.17 254.785 451.113 254.785C450.957 254.785 450.835 254.819 450.745 254.885C450.656 254.952 450.593 255.054 450.555 255.191C450.516 255.324 450.497 255.491 450.497 255.692C450.497 255.873 450.51 256.021 450.535 256.136C450.564 256.247 450.602 256.333 450.65 256.393C450.698 256.454 450.752 256.495 450.812 256.517C450.876 256.54 450.941 256.551 451.008 256.551ZM453.261 256.913C453.035 256.913 452.864 256.851 452.746 256.727C452.631 256.603 452.574 256.42 452.574 256.179C452.574 256.02 452.601 255.891 452.655 255.792C452.713 255.693 452.797 255.619 452.908 255.568C453.023 255.517 453.161 255.485 453.323 255.472L454.039 255.401V255.205C454.039 255.049 454.004 254.939 453.934 254.876C453.864 254.812 453.762 254.78 453.629 254.78C453.546 254.78 453.449 254.784 453.338 254.79C453.23 254.796 453.12 254.804 453.008 254.814C452.9 254.823 452.805 254.833 452.722 254.842L452.703 254.537C452.779 254.521 452.872 254.505 452.98 254.489C453.091 254.473 453.206 254.461 453.323 254.451C453.444 254.438 453.554 254.432 453.653 254.432C453.837 254.432 453.988 254.459 454.106 254.513C454.224 254.567 454.31 254.652 454.364 254.766C454.421 254.877 454.45 255.022 454.45 255.2V256.393C454.456 256.46 454.483 256.509 454.531 256.541C454.578 256.57 454.639 256.589 454.712 256.598L454.698 256.913C454.628 256.913 454.562 256.909 454.502 256.899C454.442 256.893 454.388 256.883 454.34 256.87C454.292 256.855 454.249 256.836 454.211 256.813C454.173 256.788 454.136 256.759 454.101 256.727C454.041 256.753 453.964 256.78 453.872 256.808C453.78 256.837 453.681 256.861 453.576 256.88C453.471 256.902 453.366 256.913 453.261 256.913ZM453.333 256.579C453.416 256.579 453.502 256.573 453.591 256.56C453.68 256.544 453.764 256.525 453.844 256.503C453.923 256.481 453.988 256.46 454.039 256.441V255.697L453.376 255.759C453.239 255.771 453.14 255.813 453.08 255.883C453.02 255.95 452.989 256.045 452.989 256.169C452.989 256.296 453.018 256.396 453.075 256.47C453.136 256.543 453.222 256.579 453.333 256.579ZM455.112 256.866V256.288H455.551V256.866H455.112ZM457.082 256.913C456.827 256.913 456.627 256.872 456.48 256.789C456.337 256.703 456.235 256.567 456.175 256.379C456.118 256.191 456.089 255.943 456.089 255.635C456.089 255.345 456.123 255.111 456.189 254.933C456.256 254.755 456.363 254.628 456.509 254.551C456.659 254.472 456.851 254.432 457.086 254.432C457.144 254.432 457.212 254.437 457.292 254.446C457.371 254.453 457.452 254.462 457.535 254.475C457.621 254.485 457.694 254.494 457.754 254.504L457.74 254.838C457.683 254.831 457.619 254.825 457.549 254.819C457.479 254.812 457.409 254.807 457.339 254.804C457.273 254.798 457.217 254.795 457.172 254.795C456.997 254.795 456.861 254.823 456.762 254.881C456.666 254.935 456.6 255.022 456.562 255.143C456.523 255.264 456.504 255.428 456.504 255.635C456.504 255.86 456.52 256.04 456.552 256.174C456.587 256.307 456.652 256.404 456.748 256.465C456.843 256.522 456.985 256.551 457.172 256.551C457.217 256.551 457.274 256.549 457.344 256.546C457.414 256.54 457.484 256.533 457.554 256.527C457.627 256.521 457.692 256.516 457.75 256.513L457.759 256.842C457.696 256.855 457.621 256.866 457.535 256.875C457.452 256.885 457.37 256.893 457.287 256.899C457.207 256.909 457.139 256.913 457.082 256.913ZM459.212 256.913C458.945 256.913 458.735 256.867 458.582 256.775C458.433 256.683 458.328 256.544 458.267 256.36C458.207 256.172 458.177 255.934 458.177 255.644C458.177 255.371 458.21 255.145 458.277 254.967C458.344 254.785 458.453 254.652 458.606 254.566C458.759 254.477 458.961 254.432 459.212 254.432C459.467 254.432 459.67 254.477 459.823 254.566C459.976 254.652 460.085 254.785 460.152 254.967C460.219 255.145 460.252 255.371 460.252 255.644C460.252 255.934 460.221 256.172 460.157 256.36C460.097 256.544 459.992 256.683 459.842 256.775C459.693 256.867 459.483 256.913 459.212 256.913ZM459.212 256.565C459.39 256.565 459.524 256.535 459.613 256.474C459.702 256.411 459.761 256.311 459.79 256.174C459.818 256.037 459.833 255.86 459.833 255.644C459.833 255.431 459.813 255.261 459.775 255.134C459.74 255.006 459.678 254.916 459.589 254.862C459.5 254.807 459.374 254.78 459.212 254.78C459.053 254.78 458.927 254.807 458.835 254.862C458.746 254.916 458.683 255.006 458.644 255.134C458.609 255.261 458.592 255.431 458.592 255.644C458.592 255.86 458.606 256.037 458.635 256.174C458.663 256.311 458.722 256.411 458.811 256.474C458.9 256.535 459.034 256.565 459.212 256.565ZM460.817 256.866V254.48H461.218V254.642C461.294 254.597 461.397 254.551 461.528 254.504C461.658 254.456 461.782 254.432 461.9 254.432C462.059 254.432 462.186 254.451 462.282 254.489C462.377 254.527 462.455 254.588 462.516 254.671C462.579 254.636 462.657 254.601 462.749 254.566C462.842 254.527 462.94 254.496 463.045 254.47C463.15 254.445 463.254 254.432 463.355 254.432C463.575 254.432 463.742 254.47 463.856 254.547C463.974 254.62 464.055 254.744 464.1 254.919C464.148 255.091 464.171 255.32 464.171 255.606V256.866H463.766V255.625C463.766 255.425 463.753 255.264 463.728 255.143C463.705 255.019 463.661 254.93 463.594 254.876C463.527 254.822 463.425 254.795 463.289 254.795C463.165 254.795 463.044 254.814 462.926 254.852C462.808 254.887 462.718 254.922 462.654 254.957C462.673 255.04 462.686 255.141 462.692 255.262C462.702 255.38 462.706 255.503 462.706 255.63V256.866H462.306V255.644C462.306 255.434 462.294 255.267 462.272 255.143C462.25 255.019 462.204 254.93 462.134 254.876C462.067 254.822 461.964 254.795 461.824 254.795C461.709 254.795 461.595 254.814 461.48 254.852C461.369 254.887 461.281 254.922 461.218 254.957V256.866H460.817Z" fill="#015EA5"/>
<rect x="411.822" y="263.562" width="84.1595" height="5.0126" rx="2.5063" fill="white"/>
<rect x="411.822" y="271.824" width="59.1367" height="2.22836" rx="1.11418" fill="white"/>
<path d="M509.788 220.27H353.693V228.016H509.788V220.27Z" fill="white"/>
<path d="M359.775 225.719C360.643 225.719 361.346 225.014 361.346 224.144C361.346 223.275 360.643 222.57 359.775 222.57C358.908 222.57 358.205 223.275 358.205 224.144C358.205 225.014 358.908 225.719 359.775 225.719Z" fill="#37AC50"/>
<path d="M368.513 224.144C368.514 224.458 368.423 224.765 368.251 225.026C368.078 225.287 367.832 225.491 367.544 225.612C367.256 225.733 366.938 225.766 366.631 225.706C366.324 225.646 366.042 225.496 365.821 225.275C365.599 225.054 365.448 224.772 365.386 224.464C365.325 224.157 365.356 223.839 365.475 223.549C365.594 223.259 365.796 223.012 366.056 222.838C366.316 222.663 366.622 222.57 366.934 222.57C367.141 222.569 367.346 222.609 367.538 222.688C367.729 222.766 367.903 222.882 368.05 223.028C368.197 223.175 368.313 223.349 368.392 223.54C368.472 223.732 368.513 223.937 368.513 224.144Z" fill="#FFC800"/>
<path d="M374.1 225.719C374.967 225.719 375.67 225.014 375.67 224.144C375.67 223.275 374.967 222.57 374.1 222.57C373.232 222.57 372.529 223.275 372.529 224.144C372.529 225.014 373.232 225.719 374.1 225.719Z" fill="#FF3200"/>
<path d="M436.163 304.961C435.773 305.351 435.773 305.984 436.163 306.375L442.527 312.739C442.918 313.129 443.551 313.129 443.942 312.739C444.332 312.348 444.332 311.715 443.942 311.325L438.285 305.668L443.942 300.011C444.332 299.62 444.332 298.987 443.942 298.597C443.551 298.206 442.918 298.206 442.527 298.597L436.163 304.961ZM461.918 304.668H436.87V306.668H461.918V304.668Z" fill="white"/>
<path d="M479.656 317.403C480.047 317.012 480.047 316.379 479.656 315.988L473.292 309.624C472.902 309.234 472.269 309.234 471.878 309.624C471.488 310.015 471.488 310.648 471.878 311.039L477.535 316.695L471.878 322.352C471.488 322.743 471.488 323.376 471.878 323.767C472.269 324.157 472.902 324.157 473.292 323.767L479.656 317.403ZM478.949 315.695H455.906V317.695H478.949V315.695Z" fill="white"/>
<path opacity="0.2" d="M278.39 90.4763H210.043V129.782H278.39V90.4763Z" fill="black"/>
<path opacity="0.1" d="M278.39 129.78H210.043V169.086H278.39V129.78Z" fill="black"/>
<path opacity="0.2" d="M370.82 123.38H309.246C307.905 123.38 306.818 124.47 306.818 125.814V174.333C306.818 175.677 307.905 176.766 309.246 176.766H370.82C372.161 176.766 373.248 175.677 373.248 174.333V125.814C373.248 124.47 372.161 123.38 370.82 123.38Z" fill="#A4C340"/>
<path opacity="0.2" d="M259.168 109.733H190.82V149.039H259.168V109.733Z" fill="black"/>
<path opacity="0.1" d="M259.168 149.04H190.82V188.346H259.168V149.04Z" fill="black"/>
<path opacity="0.2" d="M353.124 50.7219H272.958C271.213 50.7219 269.799 52.1399 269.799 53.8891V117.054C269.799 118.803 271.213 120.221 272.958 120.221H353.124C354.869 120.221 356.284 118.803 356.284 117.054V53.8891C356.284 52.1399 354.869 50.7219 353.124 50.7219Z" fill="#A4C340"/>
<path opacity="0.2" d="M351.605 142.65H290.031C288.691 142.65 287.604 143.74 287.604 145.084V193.602C287.604 194.946 288.691 196.036 290.031 196.036H351.605C352.946 196.036 354.033 194.946 354.033 193.602V145.084C354.033 143.74 352.946 142.65 351.605 142.65Z" fill="#A4C340"/>
<g filter="url(#filter1_d_5168_57094)">
<path d="M361.283 40.243H191.75C182.322 40.243 177.608 40.243 174.679 43.172C171.75 46.1009 171.75 50.815 171.75 60.243V180.267C171.75 189.695 171.75 194.409 174.679 197.338C177.608 200.267 182.322 200.267 191.75 200.267H361.283C370.711 200.267 375.425 200.267 378.354 197.338C381.283 194.409 381.283 189.695 381.283 180.267V60.243C381.283 50.815 381.283 46.1009 378.354 43.172C375.425 40.243 370.711 40.243 361.283 40.243Z" fill="white"/>
</g>
<rect x="180.01" y="61.7666" width="48.6805" height="5.67139" fill="#EFF2F5"/>
<rect x="180.01" y="71.5659" width="30.5737" height="2.5779" fill="#EFF2F5"/>
<rect x="180.01" y="87.2815" width="48.6805" height="5.67139" fill="#EFF2F5"/>
<rect x="180.01" y="97.0808" width="30.5737" height="2.5779" fill="#EFF2F5"/>
<rect x="180.01" y="112.797" width="48.6805" height="5.67139" fill="#EFF2F5"/>
<rect x="180.01" y="122.596" width="30.5737" height="2.5779" fill="#EFF2F5"/>
<path d="M240.486 50.2449H377.957V192.037C377.957 193.041 377.423 194.003 376.471 194.713C375.52 195.423 374.229 195.822 372.883 195.822H245.561C244.215 195.822 242.924 195.423 241.973 194.713C241.021 194.003 240.486 193.041 240.486 192.037V50.2449Z" fill="#EFF2F5"/>
<path d="M250.867 61.2597V65.0454H250.099V63.4755H248.69V65.0454H247.922V61.2597H248.69V62.8074H250.099V61.2597H250.867ZM251.623 62.2618H252.369V65.0454H251.623V62.2618ZM251.623 61.1539H252.369V61.9055H251.623V61.1539ZM254.133 66.3259C253.736 66.3259 253.426 66.2665 253.204 66.1477C252.985 66.0327 252.875 65.8434 252.875 65.5799C252.875 65.4425 252.907 65.3201 252.97 65.2124C253.037 65.1085 253.139 65.0009 253.276 64.8895C253.209 64.845 253.157 64.7875 253.12 64.7169C253.087 64.6464 253.07 64.5722 253.07 64.4943C253.07 64.4386 253.083 64.3811 253.109 64.3217C253.139 64.2623 253.198 64.1621 253.287 64.021C253.035 63.8355 252.909 63.5645 252.909 63.2082C252.909 62.8705 253.011 62.62 253.215 62.4566C253.423 62.2896 253.71 62.2061 254.078 62.2061C254.234 62.2061 254.421 62.2302 254.64 62.2785L255.536 62.2507V62.8464L255.119 62.813C255.167 62.8909 255.199 62.9577 255.213 63.0134C255.232 63.069 255.241 63.1451 255.241 63.2416C255.241 63.5757 255.147 63.8151 254.957 63.9598C254.768 64.1008 254.48 64.1714 254.094 64.1714C253.983 64.1714 253.898 64.1639 253.838 64.1491C253.801 64.2382 253.783 64.3142 253.783 64.3773C253.783 64.4553 253.82 64.5035 253.894 64.5221C253.972 64.5369 254.115 64.5462 254.323 64.5499C254.608 64.5573 254.835 64.5796 255.002 64.6167C255.173 64.6538 255.304 64.7299 255.397 64.845C255.49 64.9563 255.536 65.1215 255.536 65.3405C255.536 65.6782 255.421 65.9269 255.191 66.0865C254.961 66.2461 254.608 66.3259 254.133 66.3259ZM254.083 63.6035C254.365 63.6035 254.506 63.4662 254.506 63.1915C254.506 62.9206 254.365 62.7851 254.083 62.7851C253.798 62.7851 253.655 62.9206 253.655 63.1915C253.655 63.4662 253.798 63.6035 254.083 63.6035ZM254.184 65.7135C254.395 65.7135 254.547 65.6894 254.64 65.6411C254.737 65.5929 254.785 65.5186 254.785 65.4184C254.785 65.3256 254.75 65.2662 254.679 65.2403C254.612 65.218 254.532 65.205 254.44 65.2013C254.351 65.1976 254.291 65.1957 254.261 65.1957L253.76 65.1568C253.66 65.257 253.61 65.3572 253.61 65.4574C253.61 65.5465 253.656 65.6114 253.749 65.6522C253.846 65.6931 253.991 65.7135 254.184 65.7135ZM255.988 61.1483H256.734V62.3954C256.875 62.3249 257 62.2748 257.107 62.2451C257.219 62.2117 257.337 62.195 257.464 62.195C257.805 62.195 258.046 62.3045 258.187 62.5235C258.332 62.7387 258.404 63.0765 258.404 63.5367V65.0454H257.658V63.5534C257.658 63.301 257.629 63.1229 257.569 63.0189C257.51 62.915 257.395 62.8631 257.224 62.8631C257.091 62.8631 256.951 62.8853 256.807 62.9299L256.734 62.9521V65.0454H255.988V61.1483ZM259.032 63.2249H260.68V63.9041H259.032V63.2249ZM261.405 61.2597H262.797C263.695 61.2597 264.144 61.6976 264.144 62.5736C264.144 63.0189 264.029 63.3585 263.799 63.5924C263.572 63.8262 263.238 63.9431 262.797 63.9431H262.173V65.0454H261.405V61.2597ZM262.791 63.2862C263.173 63.2862 263.365 63.0486 263.365 62.5736C263.365 62.3434 263.318 62.1764 263.225 62.0725C263.136 61.9686 262.992 61.9166 262.791 61.9166H262.173V63.2862H262.791ZM265.68 65.1122C265.246 65.1122 264.933 65.0027 264.74 64.7838C264.547 64.5648 264.45 64.2103 264.45 63.7204C264.45 63.2082 264.55 62.8259 264.751 62.5736C264.955 62.3212 265.27 62.195 265.697 62.195C266.091 62.195 266.387 62.3008 266.588 62.5123C266.792 62.7202 266.894 63.0338 266.894 63.4532L266.838 63.9709H265.202C265.209 64.1008 265.231 64.201 265.268 64.2716C265.309 64.3384 265.372 64.3866 265.458 64.4163C265.547 64.4423 265.669 64.4553 265.825 64.4553C265.948 64.4553 266.094 64.4516 266.265 64.4441C266.436 64.4367 266.56 64.4293 266.638 64.4219L266.794 64.4052L266.805 64.9563C266.386 65.0603 266.011 65.1122 265.68 65.1122ZM266.159 63.4031C266.159 63.1804 266.124 63.0264 266.053 62.941C265.987 62.8519 265.866 62.8074 265.692 62.8074C265.513 62.8074 265.387 62.8538 265.313 62.9466C265.239 63.0356 265.2 63.1878 265.196 63.4031H266.159ZM267.427 62.2618H268.168V62.5569C268.487 62.3713 268.784 62.2507 269.058 62.195V62.9466C268.78 63.0022 268.522 63.0672 268.285 63.1414L268.173 63.1804V65.0454H267.427V62.2618ZM269.632 62.8965H269.332V62.2618H269.632V62.1393C269.632 61.8684 269.658 61.6568 269.71 61.5047C269.762 61.3525 269.846 61.2448 269.961 61.1818C270.076 61.1149 270.237 61.0815 270.445 61.0815L271.08 61.1316L271.069 61.7607L270.607 61.7385C270.529 61.7385 270.471 61.7793 270.434 61.861C270.397 61.9389 270.378 62.0335 270.378 62.1449V62.2618H271.052V62.8965H270.378V65.0454H269.632V62.8965ZM272.602 65.1122C272.183 65.1122 271.864 64.986 271.645 64.7336C271.43 64.4776 271.322 64.1157 271.322 63.648C271.322 63.1841 271.43 62.8259 271.645 62.5736C271.864 62.3212 272.183 62.195 272.602 62.195C273.022 62.195 273.339 62.3212 273.554 62.5736C273.773 62.8259 273.883 63.1841 273.883 63.648C273.883 64.1157 273.773 64.4776 273.554 64.7336C273.339 64.986 273.022 65.1122 272.602 65.1122ZM272.602 64.4776C272.781 64.4776 272.912 64.4126 272.998 64.2827C273.083 64.1528 273.126 63.9412 273.126 63.648C273.126 63.3548 273.083 63.1451 272.998 63.0189C272.912 62.8927 272.781 62.8297 272.602 62.8297C272.424 62.8297 272.293 62.8927 272.207 63.0189C272.122 63.1451 272.079 63.3548 272.079 63.648C272.079 63.9412 272.122 64.1528 272.207 64.2827C272.293 64.4126 272.424 64.4776 272.602 64.4776ZM274.43 62.2618H275.17V62.5569C275.489 62.3713 275.786 62.2507 276.061 62.195V62.9466C275.783 63.0022 275.525 63.0672 275.287 63.1414L275.176 63.1804V65.0454H274.43V62.2618ZM276.501 62.2618H277.242V62.4177C277.379 62.3397 277.498 62.2841 277.598 62.2507C277.702 62.2135 277.809 62.195 277.921 62.195C278.051 62.195 278.175 62.2173 278.294 62.2618C278.416 62.3026 278.517 62.3676 278.594 62.4566C278.769 62.3676 278.932 62.3026 279.084 62.2618C279.24 62.2173 279.398 62.195 279.558 62.195C279.903 62.195 280.148 62.3008 280.292 62.5123C280.437 62.7239 280.51 63.0653 280.51 63.5367V65.0454H279.764V63.559C279.764 63.3103 279.736 63.1321 279.68 63.0245C279.624 62.9169 279.52 62.8631 279.368 62.8631C279.261 62.8631 279.118 62.889 278.94 62.941L278.856 62.9688C278.871 63.2175 278.878 63.4291 278.878 63.6035V65.0454H278.132V63.6146C278.132 63.4142 278.121 63.262 278.099 63.1581C278.08 63.0542 278.041 62.98 277.982 62.9354C277.926 62.8872 277.841 62.8631 277.726 62.8631C277.607 62.8631 277.47 62.889 277.314 62.941L277.247 62.9633V65.0454H276.501V62.2618ZM281.851 65.1122C281.275 65.1122 280.988 64.8079 280.988 64.1992C280.988 63.9097 281.064 63.7019 281.216 63.5757C281.372 63.4458 281.62 63.3697 281.962 63.3474L282.558 63.3029V63.1303C282.558 63.0189 282.532 62.941 282.48 62.8965C282.431 62.8519 282.348 62.8297 282.229 62.8297C282.107 62.8297 281.938 62.8352 281.722 62.8464C281.507 62.8538 281.327 62.8631 281.182 62.8742L281.16 62.3564C281.561 62.2488 281.94 62.195 282.296 62.195C282.652 62.195 282.908 62.2692 283.064 62.4177C283.224 62.5661 283.304 62.8037 283.304 63.1303V64.2883C283.311 64.3811 283.326 64.4441 283.348 64.4776C283.374 64.511 283.42 64.5351 283.487 64.5499L283.465 65.1122C283.272 65.1122 283.118 65.0992 283.003 65.0732C282.892 65.0473 282.78 64.9953 282.669 64.9174C282.398 65.0473 282.125 65.1122 281.851 65.1122ZM282.012 64.5054C282.153 64.5054 282.307 64.4831 282.474 64.4386L282.558 64.4163V63.8206L282.051 63.8652C281.843 63.8837 281.739 63.9951 281.739 64.1992C281.739 64.4033 281.83 64.5054 282.012 64.5054ZM284.015 62.2618H284.755V62.4177C284.896 62.336 285.021 62.2785 285.128 62.2451C285.24 62.2117 285.358 62.195 285.485 62.195C285.826 62.195 286.069 62.3045 286.214 62.5235C286.359 62.7424 286.431 63.0802 286.431 63.5367V65.0454H285.685V63.559C285.685 63.3029 285.653 63.1229 285.59 63.0189C285.531 62.915 285.416 62.8631 285.245 62.8631C285.123 62.8631 284.983 62.889 284.828 62.941L284.761 62.9633V65.0454H284.015V62.2618ZM288.1 65.1122C287.699 65.1122 287.407 64.9972 287.226 64.767C287.047 64.5332 286.958 64.1621 286.958 63.6536C286.958 63.1377 287.051 62.7666 287.237 62.5402C287.422 62.31 287.725 62.195 288.144 62.195C288.252 62.195 288.371 62.2043 288.5 62.2228C288.63 62.2414 288.805 62.2729 289.024 62.3175L289.002 62.9076C288.686 62.8779 288.467 62.8631 288.345 62.8631C288.174 62.8631 288.044 62.8872 287.955 62.9354C287.866 62.98 287.803 63.0579 287.766 63.1693C287.732 63.2806 287.715 63.4402 287.715 63.648C287.715 63.8596 287.732 64.021 287.766 64.1324C287.803 64.2437 287.866 64.3235 287.955 64.3718C288.048 64.42 288.181 64.4441 288.356 64.4441L289.002 64.3996L289.024 64.9953C288.63 65.0732 288.322 65.1122 288.1 65.1122ZM290.646 65.1122C290.212 65.1122 289.898 65.0027 289.705 64.7838C289.512 64.5648 289.416 64.2103 289.416 63.7204C289.416 63.2082 289.516 62.8259 289.716 62.5736C289.92 62.3212 290.236 62.195 290.663 62.195C291.056 62.195 291.353 62.3008 291.553 62.5123C291.758 62.7202 291.86 63.0338 291.86 63.4532L291.804 63.9709H290.167C290.175 64.1008 290.197 64.201 290.234 64.2716C290.275 64.3384 290.338 64.3866 290.423 64.4163C290.512 64.4423 290.635 64.4553 290.791 64.4553C290.913 64.4553 291.06 64.4516 291.231 64.4441C291.401 64.4367 291.526 64.4293 291.604 64.4219L291.759 64.4052L291.771 64.9563C291.351 65.0603 290.976 65.1122 290.646 65.1122ZM291.125 63.4031C291.125 63.1804 291.09 63.0264 291.019 62.941C290.952 62.8519 290.832 62.8074 290.657 62.8074C290.479 62.8074 290.353 62.8538 290.279 62.9466C290.204 63.0356 290.165 63.1878 290.162 63.4031H291.125Z" fill="#002448"/>
<path d="M247.844 80.4225V77.0058H248.245V78.1606C248.327 78.1224 248.437 78.0842 248.574 78.0461C248.711 78.0079 248.841 77.9888 248.965 77.9888C249.185 77.9888 249.353 78.0286 249.471 78.1081C249.589 78.1845 249.668 78.3085 249.71 78.4803C249.754 78.6521 249.776 78.878 249.776 79.1579V80.4225H249.371V79.177C249.371 78.9766 249.358 78.8159 249.333 78.6951C249.31 78.5742 249.266 78.4867 249.199 78.4326C249.132 78.3785 249.027 78.3515 248.884 78.3515C248.77 78.3515 248.652 78.3674 248.531 78.3992C248.413 78.4278 248.318 78.4565 248.245 78.4851V80.4225H247.844ZM251.208 80.475C251.043 80.475 250.911 80.4495 250.812 80.3986C250.713 80.3477 250.642 80.2602 250.597 80.1362C250.556 80.0089 250.535 79.8308 250.535 79.6017V78.3849H250.206V78.0365H250.535V77.3207H250.941V78.0365H251.671V78.3849H250.941V79.4872C250.941 79.6494 250.947 79.7767 250.96 79.8689C250.976 79.958 251.006 80.0216 251.051 80.0598C251.098 80.0948 251.172 80.1123 251.27 80.1123C251.302 80.1123 251.342 80.1107 251.39 80.1075C251.44 80.1044 251.491 80.1012 251.542 80.098C251.596 80.0916 251.642 80.0869 251.681 80.0837L251.704 80.4225C251.634 80.432 251.55 80.4432 251.452 80.4559C251.356 80.4686 251.275 80.475 251.208 80.475ZM252.886 80.475C252.72 80.475 252.588 80.4495 252.49 80.3986C252.391 80.3477 252.32 80.2602 252.275 80.1362C252.234 80.0089 252.213 79.8308 252.213 79.6017V78.3849H251.884V78.0365H252.213V77.3207H252.619V78.0365H253.349V78.3849H252.619V79.4872C252.619 79.6494 252.625 79.7767 252.638 79.8689C252.654 79.958 252.684 80.0216 252.728 80.0598C252.776 80.0948 252.849 80.1123 252.948 80.1123C252.98 80.1123 253.019 80.1107 253.067 80.1075C253.118 80.1044 253.169 80.1012 253.22 80.098C253.274 80.0916 253.32 80.0869 253.358 80.0837L253.382 80.4225C253.312 80.432 253.228 80.4432 253.129 80.4559C253.034 80.4686 252.953 80.475 252.886 80.475ZM253.776 81.4723V78.0365H254.177V78.2035C254.228 78.1717 254.291 78.1399 254.368 78.1081C254.444 78.0731 254.525 78.0445 254.611 78.0222C254.7 77.9999 254.786 77.9888 254.869 77.9888C255.174 77.9888 255.397 78.0858 255.537 78.2799C255.677 78.474 255.747 78.7809 255.747 79.2009C255.747 79.5126 255.71 79.7624 255.637 79.9501C255.567 80.1346 255.454 80.2682 255.298 80.3509C255.146 80.4304 254.947 80.4702 254.702 80.4702C254.606 80.4702 254.508 80.4638 254.406 80.4511C254.307 80.4384 254.231 80.4273 254.177 80.4177V81.4723H253.776ZM254.668 80.1171C254.837 80.1171 254.969 80.0869 255.064 80.0264C255.16 79.9628 255.227 79.8642 255.265 79.7306C255.306 79.5938 255.327 79.4172 255.327 79.2009C255.327 78.8891 255.281 78.6696 255.189 78.5424C255.096 78.4119 254.967 78.3467 254.802 78.3467C254.729 78.3467 254.653 78.3562 254.573 78.3753C254.497 78.3944 254.423 78.4167 254.353 78.4421C254.283 78.4676 254.225 78.4946 254.177 78.5233V80.0741C254.228 80.0805 254.299 80.09 254.392 80.1028C254.487 80.1123 254.579 80.1171 254.668 80.1171ZM257.065 80.4702C256.989 80.4702 256.897 80.4654 256.788 80.4559C256.683 80.4463 256.58 80.4352 256.478 80.4225C256.376 80.4066 256.286 80.3923 256.206 80.3795L256.23 80.036C256.31 80.0455 256.399 80.0566 256.497 80.0694C256.599 80.0821 256.698 80.0932 256.793 80.1028C256.889 80.1091 256.967 80.1123 257.027 80.1123C257.151 80.1123 257.255 80.1012 257.337 80.0789C257.42 80.0566 257.482 80.0185 257.523 79.9644C257.568 79.9103 257.59 79.8324 257.59 79.7306C257.59 79.6542 257.573 79.5954 257.538 79.554C257.506 79.5126 257.445 79.4776 257.356 79.449C257.27 79.4204 257.143 79.3949 256.975 79.3727C256.796 79.344 256.647 79.3074 256.526 79.2629C256.408 79.2184 256.321 79.1532 256.264 79.0673C256.209 78.9814 256.182 78.8589 256.182 78.6998C256.182 78.5185 256.224 78.3769 256.306 78.2751C256.389 78.1701 256.497 78.097 256.631 78.0556C256.765 78.0111 256.905 77.9888 257.051 77.9888C257.143 77.9888 257.243 77.9936 257.352 78.0031C257.46 78.0127 257.565 78.0254 257.666 78.0413C257.768 78.054 257.856 78.0668 257.929 78.0795L257.919 78.4231C257.843 78.4103 257.752 78.3992 257.647 78.3897C257.546 78.3769 257.444 78.3674 257.342 78.361C257.24 78.3515 257.151 78.3467 257.075 78.3467C256.983 78.3467 256.9 78.3562 256.827 78.3753C256.753 78.3944 256.695 78.4294 256.65 78.4803C256.609 78.528 256.588 78.5948 256.588 78.6807C256.588 78.7475 256.604 78.8016 256.636 78.843C256.668 78.8843 256.726 78.9193 256.812 78.948C256.898 78.9734 257.024 79.0005 257.189 79.0291C257.387 79.0609 257.544 79.1007 257.662 79.1484C257.783 79.1961 257.87 79.2645 257.924 79.3536C257.978 79.4395 258.005 79.5604 258.005 79.7162C258.005 79.9994 257.921 80.1966 257.752 80.308C257.587 80.4161 257.358 80.4702 257.065 80.4702ZM258.51 78.9098V78.3324H258.954V78.9098H258.51ZM258.51 80.4225V79.8451H258.954V80.4225H258.51ZM259.783 80.5084L259.41 80.3843L260.761 77.0344L261.133 77.1633L259.783 80.5084ZM261.796 80.5084L261.424 80.3843L262.774 77.0344L263.146 77.1633L261.796 80.5084ZM263.981 80.4225L263.432 78.0365H263.847L264.291 80.0741H264.372L264.906 78.0842H265.322L265.861 80.0741H265.942L266.386 78.0365H266.796L266.247 80.4225H265.584L265.112 78.6187L264.639 80.4225H263.981ZM267.806 80.4702C267.58 80.4702 267.408 80.4082 267.291 80.2841C267.176 80.16 267.119 79.9771 267.119 79.7353C267.119 79.5763 267.146 79.4474 267.2 79.3488C267.257 79.2502 267.342 79.1754 267.453 79.1245C267.567 79.0736 267.706 79.0418 267.868 79.0291L268.584 78.9575V78.7619C268.584 78.606 268.549 78.4962 268.479 78.4326C268.409 78.369 268.307 78.3372 268.174 78.3372C268.091 78.3372 267.994 78.3403 267.882 78.3467C267.774 78.3531 267.665 78.361 267.553 78.3706C267.445 78.3801 267.35 78.3897 267.267 78.3992L267.248 78.0938C267.324 78.0779 267.416 78.062 267.525 78.0461C267.636 78.0302 267.75 78.0174 267.868 78.0079C267.989 77.9952 268.099 77.9888 268.197 77.9888C268.382 77.9888 268.533 78.0159 268.651 78.0699C268.768 78.124 268.854 78.2083 268.908 78.3228C268.966 78.4342 268.994 78.5789 268.994 78.7571V79.9501C269.001 80.0169 269.028 80.0662 269.075 80.098C269.123 80.1266 269.184 80.1457 269.257 80.1553L269.242 80.4702C269.172 80.4702 269.107 80.4654 269.047 80.4559C268.986 80.4495 268.932 80.44 268.885 80.4273C268.837 80.4114 268.794 80.3923 268.756 80.37C268.718 80.3445 268.681 80.3159 268.646 80.2841C268.586 80.3096 268.509 80.3366 268.417 80.3652C268.325 80.3939 268.226 80.4177 268.121 80.4368C268.016 80.4591 267.911 80.4702 267.806 80.4702ZM267.878 80.1362C267.96 80.1362 268.046 80.1298 268.135 80.1171C268.224 80.1012 268.309 80.0821 268.388 80.0598C268.468 80.0376 268.533 80.0169 268.584 79.9978V79.2534L267.921 79.3154C267.784 79.3281 267.685 79.3695 267.625 79.4395C267.564 79.5063 267.534 79.6017 267.534 79.7258C267.534 79.853 267.563 79.9532 267.62 80.0264C267.68 80.0996 267.766 80.1362 267.878 80.1362ZM270.44 80.4702C270.341 80.4702 270.249 80.4591 270.163 80.4368C270.077 80.4177 269.997 80.3827 269.924 80.3318C269.854 80.2777 269.792 80.2046 269.738 80.1123C269.684 80.0201 269.643 79.9039 269.614 79.764C269.585 79.6208 269.571 79.449 269.571 79.2486C269.571 78.9655 269.605 78.7316 269.671 78.5471C269.738 78.3594 269.845 78.2195 269.991 78.1272C270.141 78.0349 270.336 77.9888 270.578 77.9888C270.667 77.9888 270.767 77.9952 270.879 78.0079C270.993 78.0206 271.082 78.0333 271.146 78.0461V77.0058H271.551V80.4225H271.151V80.2698C271.1 80.2952 271.035 80.3239 270.955 80.3557C270.875 80.3875 270.791 80.4145 270.702 80.4368C270.613 80.4591 270.526 80.4702 270.44 80.4702ZM270.502 80.1075C270.581 80.1075 270.661 80.0996 270.74 80.0837C270.823 80.0646 270.899 80.0423 270.969 80.0169C271.039 79.9914 271.098 79.9676 271.146 79.9453V78.3897C271.108 78.3833 271.057 78.3769 270.993 78.3706C270.93 78.361 270.863 78.3547 270.793 78.3515C270.726 78.3451 270.664 78.3419 270.607 78.3419C270.451 78.3419 270.328 78.3753 270.239 78.4421C270.15 78.5089 270.087 78.6107 270.048 78.7475C270.01 78.8812 269.991 79.0482 269.991 79.2486C269.991 79.4299 270.004 79.5779 270.029 79.6924C270.058 79.8037 270.096 79.8896 270.144 79.9501C270.191 80.0105 270.246 80.0519 270.306 80.0741C270.37 80.0964 270.435 80.1075 270.502 80.1075ZM272.221 80.4225V78.0365H272.621V80.4225H272.221ZM272.221 77.5307V77.0869H272.621V77.5307H272.221ZM273.264 79.3011V78.9289H274.71V79.3011H273.264ZM275.882 80.4702C275.656 80.4702 275.484 80.4082 275.367 80.2841C275.252 80.16 275.195 79.9771 275.195 79.7353C275.195 79.5763 275.222 79.4474 275.276 79.3488C275.333 79.2502 275.418 79.1754 275.529 79.1245C275.643 79.0736 275.782 79.0418 275.944 79.0291L276.66 78.9575V78.7619C276.66 78.606 276.625 78.4962 276.555 78.4326C276.485 78.369 276.383 78.3372 276.249 78.3372C276.167 78.3372 276.07 78.3403 275.958 78.3467C275.85 78.3531 275.74 78.361 275.629 78.3706C275.521 78.3801 275.425 78.3897 275.343 78.3992L275.324 78.0938C275.4 78.0779 275.492 78.062 275.6 78.0461C275.712 78.0302 275.826 78.0174 275.944 78.0079C276.065 77.9952 276.175 77.9888 276.273 77.9888C276.458 77.9888 276.609 78.0159 276.727 78.0699C276.844 78.124 276.93 78.2083 276.984 78.3228C277.042 78.4342 277.07 78.5789 277.07 78.7571V79.9501C277.077 80.0169 277.104 80.0662 277.151 80.098C277.199 80.1266 277.259 80.1457 277.333 80.1553L277.318 80.4702C277.248 80.4702 277.183 80.4654 277.123 80.4559C277.062 80.4495 277.008 80.44 276.96 80.4273C276.913 80.4114 276.87 80.3923 276.832 80.37C276.793 80.3445 276.757 80.3159 276.722 80.2841C276.661 80.3096 276.585 80.3366 276.493 80.3652C276.401 80.3939 276.302 80.4177 276.197 80.4368C276.092 80.4591 275.987 80.4702 275.882 80.4702ZM275.954 80.1362C276.036 80.1362 276.122 80.1298 276.211 80.1171C276.3 80.1012 276.385 80.0821 276.464 80.0598C276.544 80.0376 276.609 80.0169 276.66 79.9978V79.2534L275.997 79.3154C275.86 79.3281 275.761 79.3695 275.701 79.4395C275.64 79.5063 275.61 79.6017 275.61 79.7258C275.61 79.853 275.639 79.9532 275.696 80.0264C275.756 80.0996 275.842 80.1362 275.954 80.1362ZM277.781 80.4225V77.0058H278.186V80.4225H277.781ZM278.856 79.3011V78.9289H280.302V79.3011H278.856ZM281.76 80.4702C281.69 80.4702 281.605 80.467 281.503 80.4607C281.404 80.4575 281.304 80.4511 281.202 80.4416C281.1 80.432 281.011 80.4241 280.935 80.4177V77.0058H281.34V78.1463C281.417 78.1113 281.519 78.0763 281.646 78.0413C281.776 78.0063 281.9 77.9888 282.018 77.9888C282.238 77.9888 282.411 78.0302 282.538 78.1129C282.669 78.1924 282.761 78.3213 282.815 78.4994C282.872 78.6776 282.901 78.9082 282.901 79.1913C282.901 79.5095 282.866 79.7624 282.796 79.9501C282.729 80.1346 282.613 80.2682 282.448 80.3509C282.282 80.4304 282.053 80.4702 281.76 80.4702ZM281.756 80.1075C281.966 80.1075 282.121 80.0757 282.223 80.0121C282.325 79.9485 282.393 79.8499 282.428 79.7162C282.463 79.5794 282.481 79.4045 282.481 79.1913C282.481 78.9941 282.465 78.8334 282.433 78.7094C282.405 78.5853 282.352 78.4946 282.276 78.4374C282.199 78.3769 282.096 78.3467 281.966 78.3467C281.854 78.3467 281.74 78.3626 281.622 78.3944C281.507 78.4231 281.414 78.4501 281.34 78.4755V80.0837C281.407 80.09 281.482 80.0964 281.565 80.1028C281.651 80.1059 281.714 80.1075 281.756 80.1075ZM284 80.4702C283.774 80.4702 283.602 80.4082 283.484 80.2841C283.37 80.16 283.313 79.9771 283.313 79.7353C283.313 79.5763 283.34 79.4474 283.394 79.3488C283.451 79.2502 283.535 79.1754 283.647 79.1245C283.761 79.0736 283.9 79.0418 284.062 79.0291L284.778 78.9575V78.7619C284.778 78.606 284.743 78.4962 284.673 78.4326C284.603 78.369 284.501 78.3372 284.367 78.3372C284.285 78.3372 284.188 78.3403 284.076 78.3467C283.968 78.3531 283.858 78.361 283.747 78.3706C283.639 78.3801 283.543 78.3897 283.461 78.3992L283.442 78.0938C283.518 78.0779 283.61 78.062 283.718 78.0461C283.83 78.0302 283.944 78.0174 284.062 78.0079C284.183 77.9952 284.293 77.9888 284.391 77.9888C284.576 77.9888 284.727 78.0159 284.844 78.0699C284.962 78.124 285.048 78.2083 285.102 78.3228C285.159 78.4342 285.188 78.5789 285.188 78.7571V79.9501C285.194 80.0169 285.221 80.0662 285.269 80.098C285.317 80.1266 285.377 80.1457 285.45 80.1553L285.436 80.4702C285.366 80.4702 285.301 80.4654 285.241 80.4559C285.18 80.4495 285.126 80.44 285.078 80.4273C285.031 80.4114 284.988 80.3923 284.949 80.37C284.911 80.3445 284.875 80.3159 284.84 80.2841C284.779 80.3096 284.703 80.3366 284.611 80.3652C284.518 80.3939 284.42 80.4177 284.315 80.4368C284.21 80.4591 284.105 80.4702 284 80.4702ZM284.071 80.1362C284.154 80.1362 284.24 80.1298 284.329 80.1171C284.418 80.1012 284.502 80.0821 284.582 80.0598C284.662 80.0376 284.727 80.0169 284.778 79.9978V79.2534L284.114 79.3154C283.978 79.3281 283.879 79.3695 283.819 79.4395C283.758 79.5063 283.728 79.6017 283.728 79.7258C283.728 79.853 283.756 79.9532 283.814 80.0264C283.874 80.0996 283.96 80.1362 284.071 80.1362ZM286.633 80.4702C286.535 80.4702 286.442 80.4591 286.357 80.4368C286.271 80.4177 286.191 80.3827 286.118 80.3318C286.048 80.2777 285.986 80.2046 285.932 80.1123C285.878 80.0201 285.836 79.9039 285.808 79.764C285.779 79.6208 285.765 79.449 285.765 79.2486C285.765 78.9655 285.798 78.7316 285.865 78.5471C285.932 78.3594 286.038 78.2195 286.185 78.1272C286.334 78.0349 286.53 77.9888 286.772 77.9888C286.861 77.9888 286.961 77.9952 287.072 78.0079C287.187 78.0206 287.276 78.0333 287.34 78.0461V77.0058H287.745V80.4225H287.344V80.2698C287.293 80.2952 287.228 80.3239 287.149 80.3557C287.069 80.3875 286.985 80.4145 286.896 80.4368C286.807 80.4591 286.719 80.4702 286.633 80.4702ZM286.695 80.1075C286.775 80.1075 286.854 80.0996 286.934 80.0837C287.017 80.0646 287.093 80.0423 287.163 80.0169C287.233 79.9914 287.292 79.9676 287.34 79.9453V78.3897C287.301 78.3833 287.251 78.3769 287.187 78.3706C287.123 78.361 287.056 78.3547 286.986 78.3515C286.92 78.3451 286.858 78.3419 286.8 78.3419C286.645 78.3419 286.522 78.3753 286.433 78.4421C286.344 78.5089 286.28 78.6107 286.242 78.7475C286.204 78.8812 286.185 79.0482 286.185 79.2486C286.185 79.4299 286.198 79.5779 286.223 79.6924C286.252 79.8037 286.29 79.8896 286.338 79.9501C286.385 80.0105 286.439 80.0519 286.5 80.0741C286.563 80.0964 286.629 80.1075 286.695 80.1075ZM288.949 80.4702C288.723 80.4702 288.551 80.4082 288.433 80.2841C288.319 80.16 288.262 79.9771 288.262 79.7353C288.262 79.5763 288.289 79.4474 288.343 79.3488C288.4 79.2502 288.484 79.1754 288.596 79.1245C288.71 79.0736 288.849 79.0418 289.011 79.0291L289.727 78.9575V78.7619C289.727 78.606 289.692 78.4962 289.622 78.4326C289.552 78.369 289.45 78.3372 289.316 78.3372C289.234 78.3372 289.137 78.3403 289.025 78.3467C288.917 78.3531 288.807 78.361 288.696 78.3706C288.588 78.3801 288.492 78.3897 288.41 78.3992L288.391 78.0938C288.467 78.0779 288.559 78.062 288.667 78.0461C288.779 78.0302 288.893 78.0174 289.011 78.0079C289.132 77.9952 289.242 77.9888 289.34 77.9888C289.525 77.9888 289.676 78.0159 289.793 78.0699C289.911 78.124 289.997 78.2083 290.051 78.3228C290.108 78.4342 290.137 78.5789 290.137 78.7571V79.9501C290.143 80.0169 290.17 80.0662 290.218 80.098C290.266 80.1266 290.326 80.1457 290.399 80.1553L290.385 80.4702C290.315 80.4702 290.25 80.4654 290.19 80.4559C290.129 80.4495 290.075 80.44 290.027 80.4273C289.98 80.4114 289.937 80.3923 289.898 80.37C289.86 80.3445 289.824 80.3159 289.789 80.2841C289.728 80.3096 289.652 80.3366 289.56 80.3652C289.467 80.3939 289.369 80.4177 289.264 80.4368C289.159 80.4591 289.054 80.4702 288.949 80.4702ZM289.02 80.1362C289.103 80.1362 289.189 80.1298 289.278 80.1171C289.367 80.1012 289.451 80.0821 289.531 80.0598C289.611 80.0376 289.676 80.0169 289.727 79.9978V79.2534L289.063 79.3154C288.927 79.3281 288.828 79.3695 288.767 79.4395C288.707 79.5063 288.677 79.6017 288.677 79.7258C288.677 79.853 288.705 79.9532 288.763 80.0264C288.823 80.0996 288.909 80.1362 289.02 80.1362ZM290.8 80.4225V79.8451H291.239V80.4225H290.8ZM292.769 80.4702C292.515 80.4702 292.314 80.4288 292.168 80.3461C292.025 80.2602 291.923 80.1234 291.862 79.9358C291.805 79.7481 291.777 79.4999 291.777 79.1913C291.777 78.9018 291.81 78.668 291.877 78.4899C291.944 78.3117 292.05 78.1845 292.197 78.1081C292.346 78.0286 292.539 77.9888 292.774 77.9888C292.831 77.9888 292.9 77.9936 292.979 78.0031C293.059 78.0095 293.14 78.019 293.222 78.0318C293.308 78.0413 293.382 78.0508 293.442 78.0604L293.428 78.3944C293.37 78.3881 293.307 78.3817 293.237 78.3753C293.167 78.369 293.097 78.3642 293.027 78.361C292.96 78.3547 292.904 78.3515 292.86 78.3515C292.685 78.3515 292.548 78.3801 292.449 78.4374C292.354 78.4915 292.287 78.5789 292.249 78.6998C292.211 78.8207 292.192 78.9845 292.192 79.1913C292.192 79.4172 292.208 79.5969 292.239 79.7306C292.274 79.8642 292.34 79.9612 292.435 80.0216C292.531 80.0789 292.672 80.1075 292.86 80.1075C292.904 80.1075 292.962 80.1059 293.032 80.1028C293.102 80.0964 293.172 80.09 293.242 80.0837C293.315 80.0773 293.38 80.0725 293.437 80.0694L293.447 80.3986C293.383 80.4114 293.308 80.4225 293.222 80.432C293.14 80.4416 293.057 80.4495 292.974 80.4559C292.895 80.4654 292.826 80.4702 292.769 80.4702ZM294.9 80.4702C294.632 80.4702 294.423 80.4241 294.27 80.3318C294.12 80.2396 294.015 80.1012 293.955 79.9167C293.894 79.729 293.864 79.4904 293.864 79.2009C293.864 78.9273 293.898 78.7014 293.964 78.5233C294.031 78.3419 294.141 78.2083 294.294 78.1224C294.446 78.0333 294.648 77.9888 294.9 77.9888C295.154 77.9888 295.358 78.0333 295.511 78.1224C295.663 78.2083 295.773 78.3419 295.84 78.5233C295.907 78.7014 295.94 78.9273 295.94 79.2009C295.94 79.4904 295.908 79.729 295.845 79.9167C295.784 80.1012 295.679 80.2396 295.53 80.3318C295.38 80.4241 295.17 80.4702 294.9 80.4702ZM294.9 80.1219C295.078 80.1219 295.211 80.0916 295.301 80.0312C295.39 79.9676 295.448 79.8674 295.477 79.7306C295.506 79.5938 295.52 79.4172 295.52 79.2009C295.52 78.9877 295.501 78.8175 295.463 78.6903C295.428 78.563 295.366 78.4724 295.277 78.4183C295.188 78.3642 295.062 78.3372 294.9 78.3372C294.741 78.3372 294.615 78.3642 294.523 78.4183C294.434 78.4724 294.37 78.563 294.332 78.6903C294.297 78.8175 294.279 78.9877 294.279 79.2009C294.279 79.4172 294.294 79.5938 294.322 79.7306C294.351 79.8674 294.41 79.9676 294.499 80.0312C294.588 80.0916 294.722 80.1219 294.9 80.1219ZM296.504 80.4225V78.0365H296.905V78.1988C296.981 78.1542 297.085 78.1081 297.215 78.0604C297.346 78.0127 297.47 77.9888 297.587 77.9888C297.747 77.9888 297.874 78.0079 297.969 78.0461C298.065 78.0842 298.143 78.1447 298.203 78.2274C298.267 78.1924 298.345 78.1574 298.437 78.1224C298.529 78.0842 298.628 78.0524 298.733 78.027C298.838 78.0015 298.941 77.9888 299.043 77.9888C299.262 77.9888 299.429 78.027 299.544 78.1033C299.662 78.1765 299.743 78.3006 299.787 78.4755C299.835 78.6473 299.859 78.8764 299.859 79.1627V80.4225H299.453V79.1818C299.453 78.9814 299.441 78.8207 299.415 78.6998C299.393 78.5758 299.348 78.4867 299.282 78.4326C299.215 78.3785 299.113 78.3515 298.976 78.3515C298.852 78.3515 298.731 78.3706 298.613 78.4087C298.496 78.4437 298.405 78.4787 298.341 78.5137C298.361 78.5964 298.373 78.6982 298.38 78.8191C298.389 78.9368 298.394 79.0593 298.394 79.1866V80.4225H297.993V79.2009C297.993 78.9909 297.982 78.8239 297.96 78.6998C297.937 78.5758 297.891 78.4867 297.821 78.4326C297.755 78.3785 297.651 78.3515 297.511 78.3515C297.397 78.3515 297.282 78.3706 297.168 78.4087C297.056 78.4437 296.969 78.4787 296.905 78.5137V80.4225H296.504Z" fill="#015EA5"/>
<rect x="247.51" y="86.9109" width="98.0922" height="4.90238" rx="2.45119" fill="white"/>
<rect x="247.51" y="95.3815" width="59.1367" height="2.22836" rx="1.11418" fill="white"/>
<path d="M380.985 40H171.607V50.3904H380.985V40Z" fill="white"/>
<path d="M179.769 47.3137C180.932 47.3137 181.875 46.3684 181.875 45.2022C181.875 44.0361 180.932 43.0908 179.769 43.0908C178.605 43.0908 177.662 44.0361 177.662 45.2022C177.662 46.3684 178.605 47.3137 179.769 47.3137Z" fill="#37AC50"/>
<path d="M191.483 45.2023C191.485 45.6225 191.363 46.034 191.132 46.3845C190.9 46.735 190.57 47.0088 190.184 47.1712C189.797 47.3335 189.371 47.3771 188.959 47.2965C188.548 47.2159 188.169 47.0146 187.872 46.7182C187.575 46.4218 187.372 46.0436 187.29 45.6316C187.207 45.2195 187.248 44.7922 187.408 44.4037C187.568 44.0152 187.839 43.6831 188.188 43.4493C188.536 43.2156 188.946 43.0909 189.366 43.0908C189.643 43.0894 189.918 43.1429 190.175 43.2484C190.432 43.3538 190.665 43.5091 190.862 43.7053C191.059 43.9015 191.215 44.1348 191.322 44.3917C191.428 44.6486 191.483 44.9241 191.483 45.2023Z" fill="#FFC800"/>
<path d="M198.979 47.3137C200.143 47.3137 201.086 46.3684 201.086 45.2022C201.086 44.0361 200.143 43.0908 198.979 43.0908C197.816 43.0908 196.873 44.0361 196.873 45.2022C196.873 46.3684 197.816 47.3137 198.979 47.3137Z" fill="#FF3200"/>
<path d="M325.206 168.296H286.504C279.109 168.296 272.89 162.262 272.646 154.849C272.424 148.071 277.28 142.359 283.854 141.447C285.539 134.913 291.482 130.257 298.344 130.257C303.898 130.257 308.987 133.168 311.892 137.925C313.1 137.547 314.364 137.358 315.65 137.358C322.446 137.358 328.255 142.681 328.954 149.393C332.379 151.027 334.708 154.516 334.829 158.305C334.918 160.973 333.965 163.473 332.135 165.362C330.328 167.251 327.856 168.296 325.206 168.296ZM298.344 132.846C292.391 132.846 287.28 137.069 286.182 142.881L285.994 143.87L284.996 143.937C279.331 144.303 275.041 149.06 275.229 154.761C275.429 160.795 280.484 165.695 286.504 165.695H325.206C327.158 165.695 328.965 164.94 330.284 163.562C331.614 162.184 332.313 160.35 332.246 158.394C332.147 155.349 330.151 152.571 327.269 151.493L326.47 151.193L326.437 150.338C326.204 144.615 321.371 139.958 315.661 139.958C314.32 139.958 313.023 140.214 311.803 140.714L310.717 141.158L310.173 140.114C307.834 135.635 303.311 132.846 298.344 132.846Z" fill="white"/>
<path d="M314.053 155.694L303.377 145.337L293.377 155.694H299.231L299.574 166.407H308.543L308.199 155.694H314.053Z" fill="white"/>
<g clip-path="url(#clip0_5168_57094)">
<path d="M358.431 180.711C360.065 182.319 361.361 183.098 363.658 183.394C365.677 183.656 367.661 183.725 369.636 184.241C373.413 185.23 377.905 187.184 380.156 190.483C382.434 193.816 383.165 197.995 383.932 201.893C384.352 204.025 384.804 206.161 385.273 208.284C385.505 209.339 385.683 210.403 385.893 211.458C386.088 212.442 386.66 213.688 386.52 214.67C385.113 213.862 383.82 211.87 382.622 210.731C381.932 210.076 379.084 207.957 380.258 210.419C380.985 211.948 382.671 213.528 383.862 214.811C385.15 216.2 386.41 217.689 387.759 219.026C389.431 220.683 389.763 218.925 390.766 217.534C391.896 215.968 393.815 214.028 394.449 212.204C395.2 210.032 393.024 209.719 391.844 211.235C391.18 212.092 390.665 213.219 390.138 214.168C389.912 214.579 389.389 216.059 388.889 216.227C387.255 209.642 387.785 202.712 386.179 196.111C385.45 193.115 384.145 189.861 382.099 187.517C380.118 185.243 377.194 183.76 374.396 182.67C371.13 181.394 368.017 180.947 364.531 180.726C361.366 180.523 359.59 179.095 358.504 176.141C357.468 173.319 357.421 170.124 357.604 167.149C357.682 165.867 357.662 163.465 358.555 162.455C358.756 162.23 359.301 162.236 359.381 161.932C359.532 161.365 358.585 161.233 358.248 161.243C355.219 161.365 355.501 169.009 355.526 170.9C355.571 173.998 356.231 178.325 358.431 180.711C358.784 181.056 358.153 180.412 358.431 180.711Z" fill="#00C7C7"/>
</g>
<path d="M44.8331 210.866C-33.5588 254.214 -0.0115662 416.379 75.3722 418.84C329.764 427.146 284.808 368.242 272.542 320.922C259.725 271.483 147.92 330.133 112.995 286.889C95.5981 265.349 83.3909 189.543 44.8331 210.864V210.866Z" fill="#E3F5FF"/>
<path d="M384.736 414.149L383.799 418.876L311.747 419.585L310.778 413.481L384.736 414.149Z" fill="#003959"/>
<path d="M340.508 394.726L327.116 346.378L300.022 363.393L310.169 398.438L340.508 394.726Z" fill="#FABCC6"/>
<path d="M384.305 414.082C384.317 413.904 384.569 409.67 382.479 404.939C380.549 400.567 376.169 394.968 366.267 393.13C347.709 389.687 337.805 384.962 337.707 384.913L337.287 384.711L337.155 385.158C337.146 385.186 336.324 387.902 334.121 390.685C331.186 394.393 327.323 396.459 322.638 396.821C321.799 396.887 320.992 396.918 320.242 396.918C314.036 396.918 312.321 394.706 311.188 393.242C310.595 392.479 310.084 391.817 309.166 391.817C308.887 391.817 308.588 391.879 308.256 392.008L307.96 392.123L311.217 414.074L384.281 414.453L384.305 414.08V414.082Z" fill="#00C7C7"/>
<path d="M341.475 385.357C341.325 385.236 341.153 385.143 340.959 385.085C340.175 384.858 339.355 385.326 339.127 386.13L336.114 396.814C335.886 397.618 336.34 398.456 337.124 398.684C337.908 398.911 338.728 398.443 338.956 397.639L341.969 386.955C342.139 386.349 341.926 385.725 341.475 385.357Z" fill="#003959"/>
<path d="M346.951 386.949C346.802 386.828 346.629 386.735 346.436 386.677C345.651 386.45 344.831 386.918 344.603 387.722L341.591 398.406C341.363 399.21 341.816 400.048 342.6 400.276C343.385 400.503 344.205 400.035 344.433 399.231L347.445 388.547C347.616 387.941 347.403 387.318 346.951 386.949Z" fill="#003959"/>
<path d="M352.49 388.554C352.341 388.433 352.168 388.339 351.975 388.282C351.191 388.054 350.37 388.522 350.142 389.326L347.13 400.01C346.902 400.814 347.356 401.653 348.14 401.88C348.924 402.108 349.744 401.64 349.972 400.836L352.984 390.152C353.155 389.545 352.942 388.922 352.49 388.554Z" fill="#003959"/>
<path d="M303.387 387.637C303.387 387.637 297.398 329.72 262.95 315.333C245.92 308.221 217.677 309.65 202.24 310.193C163.893 311.542 144.758 311.956 144.758 311.956C127.992 296.605 163.433 298.092 172.196 274.714C172.196 274.714 240.93 254.399 292.501 291.584C334.414 321.806 339.58 381.521 339.58 381.521C337.999 393.775 317.624 396.187 303.387 387.635V387.637Z" fill="#00283F"/>
<path d="M176.787 259.407C174.237 259.271 167.264 258.628 151.261 255.718C138.212 253.346 136.086 241.875 134.213 231.755C133.121 225.856 132.089 220.286 129.081 217.005C128.118 215.957 126.902 215.446 125.364 215.446C115.752 215.446 98.178 235.644 95.8452 238.375L145.543 279.477L176.787 259.407Z" fill="#00C7C7"/>
<path d="M176.638 268.533C169.959 267.555 160.879 269.18 162.083 265.942C165.523 256.692 181.857 254.195 193.598 255.775C202.094 256.92 210.36 258.99 210.183 260.966C209.995 263.051 207.737 260.747 194.914 259.522C207.871 262.06 209.778 263.689 209.403 264.915C208.7 267.214 196.314 263.26 195.626 262.76C196.314 263.26 208.719 266.817 207.886 268.857C207.298 270.299 204.78 269.18 204.143 268.812C204.143 268.812 207.045 271.044 204.047 271.32C202.386 271.474 194.034 268.818 187.098 267.668C182.083 266.836 178.048 268.74 176.636 268.533H176.638Z" fill="#FABCC6"/>
<path d="M193.53 265.623C193.53 265.623 201.747 267.755 204.146 268.812L193.53 265.623Z" fill="white"/>
<path d="M264.348 416.319V420L227.219 419.634L191.467 389.227L195.093 384.212L232.064 415.607L264.348 416.319Z" fill="#003959"/>
<path d="M227.105 389.814L251.338 363.655L227.908 348.693L206.483 374.01L227.105 389.814Z" fill="#FABCC6"/>
<path d="M264.138 416.534L264.208 416.232C264.257 416.019 265.361 410.994 262.082 406.773C259.419 403.346 254.694 401.504 248.03 401.3C242.065 393.764 239.161 388.941 237.772 386.218C236.249 383.229 236.168 382.038 236.168 382.027L236.13 381.353L235.559 381.71C235.521 381.736 231.59 384.185 226.452 384.185C223.009 384.185 219.811 383.104 216.942 380.972C210.354 376.077 210.542 372.877 210.665 370.76C210.738 369.527 210.8 368.463 209.268 367.908L209.004 367.812L195.054 384.789L231.648 416.994L264.134 416.538L264.138 416.534Z" fill="#00C7C7"/>
<path d="M238.684 384.697C238.652 384.508 238.582 384.325 238.473 384.154C238.032 383.467 237.106 383.282 236.405 383.74L227.103 389.816C226.402 390.273 226.192 391.2 226.635 391.888C227.076 392.575 228.002 392.76 228.703 392.302L238.005 386.227C238.533 385.882 238.782 385.271 238.684 384.697Z" fill="#003959"/>
<path d="M241.766 389.487C241.734 389.298 241.664 389.115 241.555 388.945C241.114 388.258 240.188 388.072 239.487 388.53L230.185 394.606C229.484 395.063 229.274 395.991 229.717 396.678C230.158 397.365 231.084 397.55 231.785 397.093L241.087 391.017C241.615 390.672 241.864 390.062 241.766 389.487Z" fill="#003959"/>
<path d="M244.883 394.335C244.851 394.146 244.781 393.963 244.672 393.792C244.231 393.105 243.305 392.92 242.604 393.378L233.303 399.453C232.602 399.911 232.391 400.838 232.834 401.526C233.275 402.213 234.202 402.398 234.902 401.94L244.204 395.864C244.732 395.52 244.981 394.909 244.883 394.335Z" fill="#003959"/>
<path d="M214.021 363.313C214.021 363.313 246.49 318.748 222.764 312.898C204.841 308.479 185.431 316.416 170.855 321.518C139.498 332.493 127.555 320.403 127.555 320.403C110.789 305.052 110.64 300.078 119.402 276.702C119.402 276.702 217.673 256.67 250.327 282.376C285.029 309.694 262.764 365.211 247.227 385.038C232.605 390.759 213.942 380.316 214.021 363.313Z" fill="#003959"/>
<path d="M163.994 323.657C97.5988 345.144 58.1099 255.339 88.5169 213.159C93.0163 208.504 102.047 207.827 113.651 208.708C117.72 209.017 122.563 211.219 126.316 213.644C130.036 216.048 131.742 220.62 130.528 224.874C117.188 271.62 169.625 269.372 169.625 269.372C152.19 288.45 156.035 296.277 163.994 323.659V323.657Z" fill="#00B2B2"/>
<path d="M108.787 208.127L112.345 198.417L120.557 204.599L118.399 209.494C118.399 209.494 124.556 219.164 118.742 222.665C112.093 226.671 108.107 211.288 108.787 208.129V208.127Z" fill="#FABCC6"/>
<path d="M145.043 174.478C145.043 174.478 113.54 144.22 102.989 169.275C97.3083 182.764 112.406 204.82 117.284 201.671C122.162 198.521 123.562 192.023 120.408 187.151C118.822 184.698 128.626 185.225 134.405 184.647C144.376 183.645 145.043 174.478 145.043 174.478Z" fill="#003959"/>
<path d="M132.075 170.334C126.241 168.779 115.548 172.351 111.571 178.234C109.321 177.866 106.897 179.989 106.055 183.153C105.333 185.862 105.989 188.483 107.535 189.688C106.74 198.4 110.805 206.159 117.659 207.983C125.593 210.094 134.248 203.468 136.997 193.179C139.746 182.891 140.008 172.445 132.075 170.334Z" fill="#FABCC6"/>
<path d="M109.054 177.886C109.054 177.886 124.647 188.349 140.492 172.33C140.492 172.33 122.278 158.069 116.484 165.249C110.691 172.432 109.054 177.886 109.054 177.886Z" fill="#003959"/>
<path d="M125.112 204.629C125.681 204.629 126.046 204.593 126.078 204.589C126.45 204.553 126.724 204.218 126.684 203.847C126.647 203.475 126.319 203.206 125.94 203.242C125.852 203.249 119.781 203.796 118.232 199.747C118.097 199.398 117.707 199.223 117.357 199.357C117.007 199.492 116.832 199.882 116.967 200.231C117.772 202.339 119.625 203.759 122.323 204.342C123.406 204.575 124.416 204.629 125.116 204.629H125.112Z" fill="#003959"/>
<path d="M131.675 190.867C131.175 192.352 131.482 193.794 132.36 194.089C133.239 194.384 134.358 193.419 134.858 191.937C135.357 190.452 135.051 189.01 134.172 188.715C133.294 188.42 132.174 189.385 131.675 190.867Z" fill="#003959"/>
<path d="M124.712 188.529C124.212 190.015 124.519 191.456 125.397 191.751C126.276 192.046 127.396 191.081 127.895 189.6C128.395 188.114 128.088 186.672 127.21 186.377C126.331 186.083 125.212 187.047 124.712 188.529Z" fill="#003959"/>
<path d="M127.507 197.574C127.769 197.574 128.017 197.421 128.13 197.166C128.597 196.092 131.036 189.309 131.937 186.797C133.694 187.809 136.443 187.209 136.804 187.121C137.169 187.034 137.395 186.67 137.307 186.306C137.22 185.942 136.859 185.716 136.491 185.8C135.634 186 132.998 186.328 132.166 185.235L131.408 184.241L130.985 185.417C130.949 185.516 127.426 195.368 126.879 196.62C126.73 196.962 126.887 197.363 127.229 197.512C127.317 197.548 127.408 197.567 127.499 197.567L127.507 197.574Z" fill="#003959"/>
<path d="M219.266 271.342L172.429 271.77L172.482 268.694L217.923 268.406L219.266 271.342Z" fill="#3AEC6C"/>
<path d="M233.096 220.77L219.336 271.445L217.923 268.407L230.201 220.838L233.096 220.77Z" fill="#3AEC6C"/>
<path d="M251.646 221.99L238.24 269.946L219.265 271.339L232.358 220.798L251.646 221.99Z" fill="#50FF81"/>
<path d="M238.399 245.708C238.099 247.707 236.91 249.186 235.745 249.011C234.579 248.837 233.878 247.073 234.179 245.074C234.479 243.074 235.668 241.595 236.833 241.77C237.999 241.944 238.7 243.708 238.399 245.708Z" fill="white"/>
<path d="M162.116 274.829C155.38 275.493 147.091 279.628 147.299 275.773C147.894 264.762 162.93 257.788 174.73 256.469C183.271 255.514 191.43 253.302 191.842 255.512C192.276 257.841 189.85 258.237 177.108 260.226C190.367 259.637 192.689 260.926 192.689 262.362C192.689 265.06 179.562 263.949 178.75 263.581C179.562 263.949 192.589 264.619 192.387 267.068C192.244 268.8 189.483 268.23 188.759 267.991C188.759 267.991 192.219 269.681 189.407 270.759C187.847 271.357 179.002 270.623 171.963 271.163C166.876 271.555 163.539 274.686 162.116 274.827V274.829Z" fill="#FABCC6"/>
<path d="M177.564 267.263C177.564 267.263 186.127 267.461 188.756 267.994L177.564 267.263Z" fill="white"/>
<path d="M81.5422 229.18C69.5929 288.669 123.343 314.359 163.807 285.433C170.164 279.478 166.834 264.85 154.67 263.325C92.7502 291.409 112.951 231.026 105.801 219.245C95.2939 201.93 84.2862 215.53 81.5444 229.18H81.5422Z" fill="#00C7C7"/>
<defs>
<filter id="filter0_d_5168_57094" x="308.799" y="180.452" width="256.211" height="219.301" filterUnits="userSpaceOnUse" color-interpolation-filters="sRGB">
<feFlood flood-opacity="0" result="BackgroundImageFix"/>
<feColorMatrix in="SourceAlpha" type="matrix" values="0 0 0 0 0 0 0 0 0 0 0 0 0 0 0 0 0 0 127 0" result="hardAlpha"/>
<feOffset dx="5" dy="10"/>
<feGaussianBlur stdDeviation="25"/>
<feComposite in2="hardAlpha" operator="out"/>
<feColorMatrix type="matrix" values="0 0 0 0 0 0 0 0 0 0.141176 0 0 0 0 0.282353 0 0 0 0.07 0"/>
<feBlend mode="normal" in2="BackgroundImageFix" result="effect1_dropShadow_5168_57094"/>
<feBlend mode="normal" in="SourceGraphic" in2="effect1_dropShadow_5168_57094" result="shape"/>
</filter>
<filter id="filter1_d_5168_57094" x="126.75" y="0.243042" width="309.533" height="260.024" filterUnits="userSpaceOnUse" color-interpolation-filters="sRGB">
<feFlood flood-opacity="0" result="BackgroundImageFix"/>
<feColorMatrix in="SourceAlpha" type="matrix" values="0 0 0 0 0 0 0 0 0 0 0 0 0 0 0 0 0 0 127 0" result="hardAlpha"/>
<feOffset dx="5" dy="10"/>
<feGaussianBlur stdDeviation="25"/>
<feComposite in2="hardAlpha" operator="out"/>
<feColorMatrix type="matrix" values="0 0 0 0 0 0 0 0 0 0.141176 0 0 0 0 0.282353 0 0 0 0.07 0"/>
<feBlend mode="normal" in2="BackgroundImageFix" result="effect1_dropShadow_5168_57094"/>
<feBlend mode="normal" in="SourceGraphic" in2="effect1_dropShadow_5168_57094" result="shape"/>
</filter>
<clipPath id="clip0_5168_57094">
<rect width="65.5079" height="15.5346" fill="white" transform="matrix(0.606868 0.794803 0.793407 -0.608691 348.148 168.604)"/>
</clipPath>
</defs>
</svg>
