<svg width="649" height="420" viewBox="0 0 649 420" fill="none" xmlns="http://www.w3.org/2000/svg">
<path opacity="0.2" d="M192.253 85.5001H130.645V120.93H192.253V85.5001Z" fill="black"/>
<path opacity="0.1" d="M192.253 120.928H130.645V156.358H192.253V120.928Z" fill="black"/>
<path opacity="0.2" d="M174.927 102.858H113.318V138.288H174.927V102.858Z" fill="black"/>
<path opacity="0.1" d="M174.927 138.29H113.318V173.721H174.927V138.29Z" fill="black"/>
<path opacity="0.2" d="M259.619 49.6668H187.358C185.785 49.6668 184.51 50.9449 184.51 52.5216V109.459C184.51 111.035 185.785 112.313 187.358 112.313H259.619C261.192 112.313 262.467 111.035 262.467 109.459V52.5216C262.467 50.9449 261.192 49.6668 259.619 49.6668Z" fill="#A4C340"/>
<path opacity="0.2" d="M258.25 132.526H202.747C201.538 132.526 200.559 133.508 200.559 134.72V178.454C200.559 179.666 201.538 180.648 202.747 180.648H258.25C259.458 180.648 260.438 179.666 260.438 178.454V134.72C260.438 133.508 259.458 132.526 258.25 132.526Z" fill="#A4C340"/>
<g filter="url(#filter0_d_5168_56172)">
<path d="M246 40H116C106.572 40 101.858 40 98.9289 42.9289C96 45.8579 96 50.5719 96 60V164C96 173.428 96 178.142 98.9289 181.071C101.858 184 106.572 184 116 184H246C255.428 184 260.142 184 263.071 181.071C266 178.142 266 173.428 266 164V60C266 50.5719 266 45.8579 263.071 42.9289C260.142 40 255.428 40 246 40Z" fill="white"/>
</g>
<path d="M101 53H261V175.723C261 176.592 260.378 177.426 259.27 178.04C258.163 178.655 256.66 179 255.094 179H106.906C105.34 179 103.837 178.655 102.73 178.04C101.622 177.426 101 176.592 101 175.723V53Z" fill="#EFF2F5"/>
<path d="M193 86.3887C193 79.7613 187.627 74.3924 181 74.397C174.373 74.4015 169 79.7778 169 86.4052C169 93.0326 174.373 98.4015 181 98.397C187.627 98.3924 193 93.0162 193 86.3887Z" fill="#BADDF0"/>
<rect x="130" y="110.417" width="101.756" height="6.06068" rx="3.03034" fill="white"/>
<rect x="149" y="135" width="64" height="6" rx="3" fill="white"/>
<rect x="145" y="123.407" width="71.5016" height="2.69428" rx="1.34714" fill="white"/>
<rect x="158" y="148" width="45" height="3" rx="1.5" fill="white"/>
<path d="M106 48.9999C107.105 48.9999 108 48.1045 108 46.9999C108 45.8953 107.105 44.9999 106 44.9999C104.895 44.9999 104 45.8953 104 46.9999C104 48.1045 104.895 48.9999 106 48.9999Z" fill="#37AC50"/>
<path d="M116.645 46.9895C116.647 47.3854 116.531 47.7732 116.313 48.1034C116.094 48.4337 115.782 48.6917 115.417 48.8446C115.052 48.9976 114.649 49.0387 114.261 48.9627C113.872 48.8868 113.515 48.6971 113.234 48.4178C112.953 48.1385 112.762 47.7822 112.684 47.394C112.606 47.0057 112.645 46.6031 112.796 46.237C112.947 45.8709 113.203 45.558 113.532 45.3377C113.861 45.1175 114.248 44.9999 114.644 44.9999C114.907 44.9986 115.166 45.049 115.409 45.1484C115.652 45.2477 115.872 45.3941 116.058 45.5789C116.244 45.7638 116.391 45.9836 116.492 46.2257C116.593 46.4677 116.645 46.7273 116.645 46.9895Z" fill="#FFC800"/>
<path d="M123.318 48.9999C124.423 48.9999 125.318 48.1045 125.318 46.9999C125.318 45.8953 124.423 44.9999 123.318 44.9999C122.214 44.9999 121.318 45.8953 121.318 46.9999C121.318 48.1045 122.214 48.9999 123.318 48.9999Z" fill="#FF3200"/>
<path opacity="0.2" d="M312.253 126.5H250.645V161.93H312.253V126.5Z" fill="black"/>
<path opacity="0.1" d="M312.253 161.928H250.645V197.358H312.253V161.928Z" fill="black"/>
<path opacity="0.2" d="M294.927 143.858H233.318V179.288H294.927V143.858Z" fill="black"/>
<path opacity="0.1" d="M294.927 179.29H233.318V214.721H294.927V179.29Z" fill="black"/>
<path opacity="0.2" d="M379.619 90.6668H307.358C305.785 90.6668 304.51 91.9449 304.51 93.5216V150.459C304.51 152.035 305.785 153.313 307.358 153.313H379.619C381.192 153.313 382.467 152.035 382.467 150.459V93.5216C382.467 91.9449 381.192 90.6668 379.619 90.6668Z" fill="#A4C340"/>
<path opacity="0.2" d="M378.25 173.526H322.747C321.538 173.526 320.559 174.508 320.559 175.72V219.454C320.559 220.666 321.538 221.648 322.747 221.648H378.25C379.458 221.648 380.438 220.666 380.438 219.454V175.72C380.438 174.508 379.458 173.526 378.25 173.526Z" fill="#A4C340"/>
<g filter="url(#filter1_d_5168_56172)">
<path d="M366 81H236C226.572 81 221.858 81 218.929 83.9289C216 86.8579 216 91.5719 216 101V205C216 214.428 216 219.142 218.929 222.071C221.858 225 226.572 225 236 225H366C375.428 225 380.142 225 383.071 222.071C386 219.142 386 214.428 386 205V101C386 91.5719 386 86.8579 383.071 83.9289C380.142 81 375.428 81 366 81Z" fill="white"/>
</g>
<path d="M221 94H381V216.723C381 217.592 380.378 218.426 379.27 219.04C378.163 219.655 376.66 220 375.094 220H226.906C225.34 220 223.837 219.655 222.73 219.04C221.622 218.426 221 217.592 221 216.723V94Z" fill="#EFF2F5"/>
<path d="M313 127.389C313 120.761 307.627 115.392 301 115.397C294.373 115.402 289 120.778 289 127.405C289 134.033 294.373 139.402 301 139.397C307.627 139.392 313 134.016 313 127.389Z" fill="#50FF81"/>
<rect x="250" y="151.417" width="101.756" height="6.06068" rx="3.03034" fill="white"/>
<rect x="269" y="176" width="64" height="6" rx="3" fill="white"/>
<rect x="265" y="164.407" width="71.5016" height="2.69428" rx="1.34714" fill="white"/>
<rect x="278" y="189" width="45" height="3" rx="1.5" fill="white"/>
<path d="M226 89.9999C227.105 89.9999 228 89.1045 228 87.9999C228 86.8953 227.105 85.9999 226 85.9999C224.895 85.9999 224 86.8953 224 87.9999C224 89.1045 224.895 89.9999 226 89.9999Z" fill="#37AC50"/>
<path d="M236.645 87.9895C236.647 88.3854 236.531 88.7732 236.313 89.1034C236.094 89.4337 235.782 89.6917 235.417 89.8446C235.052 89.9976 234.649 90.0387 234.261 89.9627C233.872 89.8868 233.515 89.6971 233.234 89.4178C232.953 89.1385 232.762 88.7822 232.684 88.394C232.606 88.0057 232.645 87.6031 232.796 87.237C232.947 86.8709 233.203 86.558 233.532 86.3377C233.861 86.1175 234.248 85.9999 234.644 85.9999C234.907 85.9986 235.166 86.049 235.409 86.1484C235.652 86.2477 235.872 86.3941 236.058 86.5789C236.244 86.7638 236.391 86.9836 236.492 87.2257C236.593 87.4677 236.645 87.7273 236.645 87.9895Z" fill="#FFC800"/>
<path d="M243.318 89.9999C244.423 89.9999 245.318 89.1045 245.318 87.9999C245.318 86.8953 244.423 85.9999 243.318 85.9999C242.214 85.9999 241.318 86.8953 241.318 87.9999C241.318 89.1045 242.214 89.9999 243.318 89.9999Z" fill="#FF3200"/>
<path d="M0 419H649V420H0V419Z" fill="#E3F5FF"/>
<path d="M301.834 240.23L321 243.118C321 243.118 320.131 189.006 318.944 159.148C318.524 148.588 308.647 148.055 308.738 158.94C308.778 163.762 308.323 175.79 308.559 183.341C306.935 178.301 299.088 178.771 298.742 183.551C297.322 178.761 287.701 179.582 288.019 184.293C286.846 179.083 279.216 178.431 279.017 185.853C278.915 189.665 279.284 195.979 280.011 205.873C280.917 218.19 284.287 239.704 284.287 239.704L298.841 250C300.069 246.798 301.069 243.535 301.834 240.23Z" fill="#FABCC6"/>
<path d="M450.637 264.677C447.673 282.64 400.092 355.255 338.001 345.638C266.112 334.506 278.495 233.568 278.495 233.568C278.495 233.568 297.266 210.254 323.311 231.151C323.311 231.151 318.255 282.58 360.172 285.064C377.244 286.077 384.399 265.099 393.671 252.504C402.943 239.909 453.601 246.715 450.637 264.677Z" fill="#00B2B2"/>
<path d="M349.266 346.982C360.013 346.982 370.827 344.649 381.546 340.006C393.725 334.736 405.584 326.605 416.819 315.842C436.858 296.639 449.606 273.828 451.113 264.753C452.057 259.011 447.797 253.829 439.104 250.158C424.206 243.862 399.647 243.576 393.288 252.211C391.086 255.205 389.047 258.592 386.889 262.181C380.036 273.564 372.951 285.334 360.199 284.582C349.435 283.952 340.859 279.964 334.714 272.752C321.415 257.172 323.765 231.444 323.79 231.198L323.781 230.94L323.583 230.779C316.057 224.741 304.287 218.682 290.934 224.084C286 226.104 281.607 229.249 278.103 233.269L278.022 233.373L278.003 233.509C277.971 233.761 274.967 259.13 280.806 285.533C284.242 301.068 290.021 313.921 297.985 323.737C307.955 336.014 321.387 343.569 337.904 346.113C341.664 346.694 345.462 346.984 349.266 346.982ZM450.172 264.598C448.697 273.545 436.058 296.079 416.165 315.159C384.903 345.121 356.436 348.018 338.062 345.172C321.786 342.653 308.556 335.24 298.733 323.136C290.868 313.437 285.148 300.719 281.744 285.338C276.156 260.09 278.708 235.788 278.937 233.745C282.354 229.91 286.593 226.897 291.337 224.93C295.743 223.12 300.55 222.511 305.268 223.167C311.105 223.983 317.007 226.734 322.809 231.352C322.482 236.301 322.63 241.269 323.252 246.189C324.228 253.996 326.877 265.052 333.972 273.366C340.302 280.779 349.102 284.872 360.133 285.526C360.552 285.552 360.964 285.564 361.369 285.564C373.91 285.564 380.911 273.932 387.688 262.669C389.833 259.102 391.863 255.743 394.04 252.774C396.784 249.047 403.705 246.774 413.028 246.541C421.938 246.321 431.54 247.999 438.73 251.034C449.858 255.73 450.685 261.551 450.172 264.602V264.598Z" fill="#00B2B2"/>
<path d="M306.942 203C307.104 203 307.265 202.988 307.425 202.966C307.861 202.895 308.276 202.746 308.642 202.529C309.008 202.312 309.318 202.031 309.552 201.704C312.846 197.483 309.51 183.88 309.365 183.299C309.354 183.25 309.333 183.204 309.301 183.164C309.269 183.123 309.229 183.088 309.181 183.061C309.134 183.034 309.081 183.015 309.025 183.006C308.969 182.997 308.912 182.998 308.856 183.009C308.801 183.019 308.748 183.039 308.702 183.067C308.656 183.096 308.616 183.132 308.586 183.173C308.556 183.215 308.536 183.261 308.527 183.31C308.518 183.358 308.52 183.408 308.534 183.456C308.568 183.593 311.938 197.329 308.849 201.29C308.679 201.534 308.451 201.745 308.181 201.908C307.911 202.071 307.604 202.183 307.28 202.237C306.978 202.278 306.67 202.262 306.376 202.19C306.082 202.118 305.81 201.992 305.578 201.82C303.788 200.627 302.173 197.108 300.925 191.64C300.233 188.614 299.83 185.75 299.657 184.393C299.606 183.924 299.569 183.627 299.558 183.549C299.547 183.451 299.491 183.361 299.403 183.299C299.315 183.237 299.203 183.208 299.09 183.218C298.977 183.227 298.873 183.275 298.801 183.351C298.729 183.427 298.695 183.525 298.707 183.622C298.707 183.701 298.744 183.988 298.8 184.44C299.132 187.532 300.085 198.566 297.192 201.304C297.026 201.482 296.815 201.624 296.575 201.72C296.336 201.817 296.074 201.864 295.81 201.859C291.39 201.771 289.285 189.164 288.843 184.315C288.836 184.217 288.784 184.126 288.699 184.061C288.614 183.996 288.503 183.964 288.39 183.97C288.277 183.976 288.172 184.021 288.097 184.094C288.023 184.167 287.985 184.264 287.992 184.361C288.216 188.381 288.321 199.245 286.153 201.228C286.083 201.3 285.996 201.359 285.899 201.401C285.801 201.443 285.695 201.468 285.586 201.474C285.163 201.475 284.744 201.399 284.358 201.25C283.972 201.101 283.626 200.883 283.345 200.61C279.577 197.297 279.853 186.032 279.855 185.92C279.857 185.871 279.847 185.823 279.827 185.778C279.807 185.733 279.777 185.691 279.739 185.656C279.7 185.621 279.654 185.593 279.603 185.573C279.552 185.554 279.497 185.543 279.441 185.542C279.329 185.541 279.221 185.578 279.139 185.645C279.058 185.711 279.009 185.803 279.004 185.9C279.004 186.376 278.721 197.591 282.738 201.115C283.099 201.456 283.537 201.727 284.025 201.914C284.513 202.101 285.041 202.198 285.575 202.2H285.606C285.832 202.194 286.054 202.147 286.259 202.063C286.463 201.978 286.644 201.858 286.792 201.709C288.414 200.222 288.874 195.007 288.959 190.666C289.129 191.52 289.325 192.408 289.549 193.292C291.087 199.395 293.195 202.514 295.81 202.568C296.195 202.572 296.576 202.503 296.926 202.366C297.276 202.229 297.588 202.028 297.839 201.775C299.629 200.082 300.091 195.751 300.094 191.728C301.076 196.075 302.67 200.811 305.07 202.406C305.599 202.78 306.259 202.99 306.942 203Z" fill="#DA8A97"/>
<path d="M323.076 193.403C317.552 187.751 289.378 190.845 289.378 190.845C289.378 190.845 286.696 199.637 295.627 199.567C304.559 199.497 309.283 198.098 309.283 201.26C309.283 204.422 302.938 203.648 303.1 209.839C303.424 222.356 320.477 218.41 320.477 218.41C320.477 218.41 328.599 199.054 323.076 193.403Z" fill="#FABCC6"/>
<path d="M520.336 266.468C479.639 252.803 440.021 239.298 400.372 248.084C400.372 248.084 422.874 307.896 391.449 419.478L518.659 417.589C531.712 365.392 530.753 315.241 520.336 266.468Z" fill="#00C7C7"/>
<path d="M455.153 237.944C455.31 238.014 455.468 238.08 455.625 238.143C458.116 239.706 460.979 240.576 463.919 240.661C467.802 240.952 471.693 240.198 475.189 238.48L480.465 236.71C479.581 242.572 479.521 253.011 479.521 258.746C479.521 263.173 473.14 280.008 460.382 276.964C447.624 273.92 450.943 258.879 452.41 253.669C453.407 250.052 454.568 242.38 455.153 237.944Z" fill="#FABCC6"/>
<path d="M463.285 227.43C456.368 227.43 450.76 221.512 450.76 214.211C450.76 206.911 456.368 200.993 463.285 200.993C470.203 200.993 475.811 206.911 475.811 214.211C475.811 221.512 470.203 227.43 463.285 227.43Z" fill="#003959"/>
<path d="M479.637 240.648C472.719 240.648 467.112 234.73 467.112 227.43C467.112 220.13 472.719 214.211 479.637 214.211C486.554 214.211 492.162 220.13 492.162 227.43C492.162 234.73 486.554 240.648 479.637 240.648Z" fill="#003959"/>
<path d="M482.352 226.105C475.434 226.105 469.826 220.186 469.826 212.886C469.826 205.586 475.434 199.668 482.352 199.668C489.269 199.668 494.877 205.586 494.877 212.886C494.877 220.186 489.269 226.105 482.352 226.105Z" fill="#003959"/>
<path d="M469.826 216.468C462.909 216.468 457.301 210.55 457.301 203.25C457.301 195.95 462.909 190.031 469.826 190.031C476.744 190.031 482.352 195.95 482.352 203.25C482.352 210.55 476.744 216.468 469.826 216.468Z" fill="#003959"/>
<path d="M464.268 207.188C465.674 212.31 475.928 211.281 478.998 216.428C481.056 219.89 480.958 223.038 481.257 222.771C489.56 215.53 490.514 231.135 481.22 231.425C481.166 231.425 480.962 235.832 480.354 240.623C477.306 242.537 461.955 250.231 454.983 243.771C450.33 236.921 454.693 208.731 464.268 207.188Z" fill="#FABCC6"/>
<path d="M470.229 237.137C470.229 237.137 465.94 237.157 463.463 234C463.463 234 462.395 235.773 458 235.568C458 235.568 460.105 238.852 464.111 239.047C468.117 239.243 470.229 237.137 470.229 237.137Z" fill="#003959"/>
<path d="M467.13 221.052C466.982 221.955 467.7 222.796 468.735 222.941C469.77 223.086 470.729 222.45 470.88 221.546C471.031 220.643 470.311 219.802 469.276 219.657C468.241 219.513 467.281 220.148 467.13 221.052Z" fill="#003959"/>
<path d="M459.548 220.079C459.505 220.285 459.504 220.497 459.544 220.703C459.585 220.91 459.666 221.106 459.783 221.28C459.901 221.454 460.052 221.603 460.227 221.718C460.403 221.833 460.6 221.912 460.807 221.949C461.24 221.98 461.668 221.843 462.003 221.567C462.339 221.292 462.556 220.898 462.609 220.467C462.652 220.261 462.654 220.049 462.613 219.842C462.573 219.636 462.492 219.44 462.374 219.266C462.257 219.092 462.106 218.943 461.93 218.828C461.755 218.713 461.558 218.634 461.351 218.597C460.918 218.565 460.489 218.701 460.153 218.977C459.818 219.253 459.601 219.648 459.548 220.079Z" fill="#003959"/>
<path d="M473.073 219.953C473.166 219.952 473.256 219.924 473.333 219.872C473.41 219.821 473.47 219.747 473.506 219.661C473.542 219.576 473.552 219.481 473.535 219.39C473.517 219.299 473.474 219.214 473.409 219.148C473.318 219.056 471.138 216.903 466.84 217.599C466.715 217.619 466.603 217.688 466.528 217.79C466.454 217.893 466.423 218.021 466.443 218.146C466.463 218.272 466.532 218.384 466.635 218.458C466.738 218.533 466.866 218.563 466.991 218.543C470.814 217.929 472.717 219.802 472.736 219.824C472.827 219.91 472.948 219.957 473.073 219.953Z" fill="#003959"/>
<path d="M463.59 218.033C463.677 218.033 463.761 218.009 463.835 217.965C463.909 217.92 463.969 217.856 464.009 217.779C464.049 217.703 464.067 217.616 464.062 217.53C464.056 217.444 464.027 217.361 463.977 217.29C463.452 216.544 462.089 215.367 460.63 216.242C460.577 216.274 460.53 216.316 460.493 216.366C460.457 216.416 460.43 216.473 460.415 216.533C460.4 216.593 460.397 216.656 460.407 216.717C460.416 216.778 460.437 216.837 460.469 216.89C460.501 216.943 460.543 216.99 460.593 217.027C460.643 217.063 460.7 217.09 460.76 217.105C460.82 217.12 460.883 217.123 460.944 217.113C461.005 217.104 461.064 217.083 461.117 217.051C462.174 216.421 463.162 217.775 463.203 217.835C463.248 217.896 463.306 217.946 463.373 217.98C463.44 218.015 463.515 218.033 463.59 218.033Z" fill="#003959"/>
<path d="M466.132 229.429H466.384C466.508 229.421 466.625 229.364 466.707 229.271C466.79 229.178 466.834 229.056 466.828 228.932C466.819 228.807 466.762 228.691 466.669 228.608C466.576 228.524 466.455 228.48 466.33 228.485C465.613 228.525 463.628 228.381 463.058 227.269C462.568 226.309 464.405 222.692 465.868 220.435C465.902 220.383 465.925 220.325 465.936 220.264C465.947 220.203 465.946 220.14 465.933 220.079C465.92 220.019 465.895 219.961 465.86 219.91C465.825 219.859 465.78 219.816 465.728 219.782C465.676 219.748 465.618 219.725 465.557 219.714C465.496 219.703 465.433 219.704 465.373 219.717C465.312 219.73 465.254 219.754 465.203 219.79C465.152 219.825 465.109 219.87 465.075 219.922C465.037 219.979 464.131 221.379 463.319 223.007C462.152 225.333 461.794 226.866 462.218 227.701C463.033 229.294 465.361 229.429 466.132 229.429Z" fill="#003959"/>
<path d="M504.633 380.923C504.633 380.923 487.299 381.377 477.931 372.798C468.564 364.219 454.773 372.179 454.773 377.05C454.773 381.92 425.084 372.002 433.185 382.652C426.981 382.652 426.652 390.645 430.541 393.834C425.662 394.474 423.684 401.539 429.885 404.728C429.885 404.728 425.015 410.238 431.927 412.827C441.321 416.346 507.644 415.309 505.969 411.736L504.633 380.923Z" fill="#FABCC6"/>
<path d="M518.607 265.782C535.663 272.128 615.531 299.954 604.478 368.968C594.725 429.787 487.843 418.744 487.843 418.744C470.476 413.31 470.476 379.145 487.843 370.069C487.843 370.069 538.85 371.902 543.123 354.619C544.894 347.454 527.741 343.1 513.655 336.313C493.399 326.551 500.435 259.02 518.607 265.782Z" fill="#00B2B2"/>
<g filter="url(#filter2_d_5168_56172)">
<circle cx="241" cy="70" r="30" fill="white"/>
</g>
<path d="M231.625 82.4687C231.125 82.4687 230.688 82.2812 230.312 81.9062C229.938 81.5312 229.75 81.0937 229.75 80.5937V61.75H231.625V80.5937H246.438V82.4687H231.625ZM235.375 78.7187C234.875 78.7187 234.438 78.5312 234.062 78.1562C233.688 77.7812 233.5 77.3437 233.5 76.8437V59.3437C233.5 58.8437 233.688 58.4062 234.062 58.0312C234.438 57.6562 234.875 57.4688 235.375 57.4688H249.125C249.625 57.4688 250.062 57.6562 250.438 58.0312C250.812 58.4062 251 58.8437 251 59.3437V76.8437C251 77.3437 250.812 77.7812 250.438 78.1562C250.062 78.5312 249.625 78.7187 249.125 78.7187H235.375Z" fill="#00C7C7"/>
<path d="M183.612 359.382C183.612 359.382 149.75 322.139 151.329 285.492C173.241 303.575 180.181 329.664 183.613 359.382H183.612Z" fill="white"/>
<path d="M183.982 360.163L183.388 359.51C183.302 359.416 174.813 350.023 166.628 336.273C161.82 328.196 158.057 320.216 155.44 312.555C152.168 302.973 150.692 293.866 151.053 285.485L151.076 284.966L151.532 285.342C161.801 293.817 169.369 304.502 174.668 318.01C178.969 328.971 181.899 342.111 183.891 359.363L183.983 360.163H183.982ZM151.587 286.024C151.311 294.216 152.786 303.098 155.975 312.437C158.582 320.072 162.334 328.026 167.127 336.079C174.038 347.693 181.166 356.188 183.241 358.577C181.255 341.762 178.357 328.894 174.137 318.138C168.943 304.898 161.564 294.387 151.587 286.024Z" fill="#8ABCD8"/>
<path d="M151.421 285.467L151.246 285.514L183.537 359.402L183.712 359.355L151.421 285.467Z" fill="#8ABCD8"/>
<path d="M183.609 358.627C183.609 358.627 164.1 305.556 178.603 260.881C187.898 289.455 190.82 321.379 183.608 358.627H183.609Z" fill="white"/>
<path d="M183.695 359.644L183.344 358.689C183.295 358.556 178.426 345.189 175.394 326.536C173.614 315.58 172.805 304.969 172.991 294.999C173.224 282.531 175.022 271.034 178.336 260.828L178.605 260L178.874 260.828C181.242 268.108 183.168 275.547 184.598 282.938C186.091 290.656 187.092 298.58 187.576 306.492C188.078 314.71 188.038 323.182 187.456 331.671C186.853 340.455 185.652 349.536 183.885 358.661L183.695 359.643V359.644ZM178.607 261.773C175.475 271.735 173.773 282.909 173.546 295C173.36 304.95 174.166 315.538 175.943 326.473C178.499 342.201 182.363 354.162 183.53 357.579C185.189 348.811 186.322 340.092 186.901 331.649C187.482 323.174 187.522 314.717 187.021 306.514C186.538 298.617 185.538 290.707 184.049 283.005C182.677 275.91 180.847 268.772 178.607 261.774V261.773Z" fill="#8ABCD8"/>
<path d="M178.697 260.876L178.512 260.882L183.528 358.628L183.713 358.623L178.697 260.876Z" fill="#8ABCD8"/>
<path d="M183.428 359.931L183.446 359.36C183.449 359.272 183.761 350.539 187.189 340.126C189.203 334.006 191.884 328.51 195.157 323.791C199.253 317.882 204.294 313.179 210.14 309.812L210.508 309.599L210.578 309.954C211.951 317 209.97 325.595 204.852 334.81C200.035 343.483 192.603 352.256 183.925 359.515L183.428 359.931ZM210.096 310.38C204.476 313.692 199.616 318.27 195.647 323.995C192.397 328.682 189.733 334.143 187.73 340.226C184.822 349.054 184.164 356.667 184.031 358.786C192.447 351.648 199.646 343.092 204.344 334.635C209.333 325.653 211.318 317.277 210.096 310.381V310.38Z" fill="#8ABCD8"/>
<path d="M210.211 309.962L183.648 359.345L183.819 359.402L210.382 310.018L210.211 309.962Z" fill="#8ABCD8"/>
<path d="M178.342 420L169.447 352.27H200.173L191.684 419.901L178.342 420Z" fill="#D2ECFA"/>
<defs>
<filter id="filter0_d_5168_56172" x="51" y="0" width="270" height="244" filterUnits="userSpaceOnUse" color-interpolation-filters="sRGB">
<feFlood flood-opacity="0" result="BackgroundImageFix"/>
<feColorMatrix in="SourceAlpha" type="matrix" values="0 0 0 0 0 0 0 0 0 0 0 0 0 0 0 0 0 0 127 0" result="hardAlpha"/>
<feOffset dx="5" dy="10"/>
<feGaussianBlur stdDeviation="25"/>
<feComposite in2="hardAlpha" operator="out"/>
<feColorMatrix type="matrix" values="0 0 0 0 0 0 0 0 0 0.141176 0 0 0 0 0.282353 0 0 0 0.07 0"/>
<feBlend mode="normal" in2="BackgroundImageFix" result="effect1_dropShadow_5168_56172"/>
<feBlend mode="normal" in="SourceGraphic" in2="effect1_dropShadow_5168_56172" result="shape"/>
</filter>
<filter id="filter1_d_5168_56172" x="171" y="41" width="270" height="244" filterUnits="userSpaceOnUse" color-interpolation-filters="sRGB">
<feFlood flood-opacity="0" result="BackgroundImageFix"/>
<feColorMatrix in="SourceAlpha" type="matrix" values="0 0 0 0 0 0 0 0 0 0 0 0 0 0 0 0 0 0 127 0" result="hardAlpha"/>
<feOffset dx="5" dy="10"/>
<feGaussianBlur stdDeviation="25"/>
<feComposite in2="hardAlpha" operator="out"/>
<feColorMatrix type="matrix" values="0 0 0 0 0 0 0 0 0 0.141176 0 0 0 0 0.282353 0 0 0 0.07 0"/>
<feBlend mode="normal" in2="BackgroundImageFix" result="effect1_dropShadow_5168_56172"/>
<feBlend mode="normal" in="SourceGraphic" in2="effect1_dropShadow_5168_56172" result="shape"/>
</filter>
<filter id="filter2_d_5168_56172" x="166" y="0" width="160" height="160" filterUnits="userSpaceOnUse" color-interpolation-filters="sRGB">
<feFlood flood-opacity="0" result="BackgroundImageFix"/>
<feColorMatrix in="SourceAlpha" type="matrix" values="0 0 0 0 0 0 0 0 0 0 0 0 0 0 0 0 0 0 127 0" result="hardAlpha"/>
<feOffset dx="5" dy="10"/>
<feGaussianBlur stdDeviation="25"/>
<feComposite in2="hardAlpha" operator="out"/>
<feColorMatrix type="matrix" values="0 0 0 0 0 0 0 0 0 0.141176 0 0 0 0 0.282353 0 0 0 0.07 0"/>
<feBlend mode="normal" in2="BackgroundImageFix" result="effect1_dropShadow_5168_56172"/>
<feBlend mode="normal" in="SourceGraphic" in2="effect1_dropShadow_5168_56172" result="shape"/>
</filter>
</defs>
</svg>
