<svg width="510" height="401" viewBox="0 0 510 401" fill="none" xmlns="http://www.w3.org/2000/svg">
<path d="M494.291 61.84V69.1378H342.07V61.84C342.07 59.7477 343.78 58 345.873 58H490.457C492.581 57.9938 494.291 59.7415 494.291 61.84Z" fill="#BADDF0"/>
<path d="M327 73.4642V356.062C327 358.467 328.948 360.415 331.354 360.415H469.542V69.1106H331.354C328.948 69.1106 327 71.065 327 73.4642Z" fill="#E3F5FF"/>
<path d="M462.891 150.507V173.809C462.891 174.542 462.308 175.125 461.575 175.125H332.651C331.919 175.125 331.336 174.542 331.336 173.809V150.507C331.336 149.774 331.919 149.172 332.651 149.172H461.575C462.308 149.172 462.891 149.774 462.891 150.507Z" fill="#BADDF0"/>
<path d="M505.307 69.111H469.25V360.416H505.307C507.712 360.416 509.66 358.468 509.66 356.062V73.4647C509.66 71.0655 507.712 69.111 505.307 69.111Z" fill="#BADDF0"/>
<path d="M342.07 376.235V360.399H494.291V376.235C494.291 378.327 492.581 380.075 490.488 380.075H345.91C343.774 380.075 342.07 378.327 342.07 376.235Z" fill="#BADDF0"/>
<path d="M349.795 365.316V375.176C349.795 376.147 349.006 376.93 348.041 376.93C347.07 376.93 346.287 376.141 346.287 375.176V365.316C346.287 364.345 347.076 363.543 348.041 363.543C349.006 363.543 349.795 364.351 349.795 365.316Z" fill="white"/>
<path d="M358.559 365.316V375.176C358.559 376.147 357.769 376.93 356.805 376.93C355.834 376.93 355.051 376.141 355.051 375.176V365.316C355.051 364.345 355.84 363.543 356.805 363.543C357.776 363.543 358.559 364.351 358.559 365.316Z" fill="white"/>
<path d="M367.326 365.316V375.176C367.326 376.147 366.537 376.93 365.572 376.93C364.601 376.93 363.818 376.141 363.818 375.176V365.316C363.818 364.345 364.608 363.543 365.572 363.543C366.537 363.543 367.326 364.351 367.326 365.316Z" fill="white"/>
<path d="M376.098 365.316V375.176C376.098 376.147 375.309 376.93 374.344 376.93C373.373 376.93 372.59 376.141 372.59 375.176V365.316C372.59 364.345 373.379 363.543 374.344 363.543C375.309 363.543 376.098 364.351 376.098 365.316Z" fill="white"/>
<path d="M384.861 365.316V375.176C384.861 376.147 384.072 376.93 383.107 376.93C382.137 376.93 381.354 376.141 381.354 375.176V365.316C381.354 364.345 382.143 363.543 383.107 363.543C384.078 363.543 384.861 364.351 384.861 365.316Z" fill="white"/>
<path d="M393.633 365.316V375.176C393.633 376.147 392.844 376.93 391.879 376.93C390.908 376.93 390.125 376.141 390.125 375.176V365.316C390.125 364.345 390.914 363.543 391.879 363.543C392.844 363.543 393.633 364.351 393.633 365.316Z" fill="white"/>
<path d="M402.401 365.316V375.176C402.401 376.147 401.611 376.93 400.647 376.93C399.682 376.93 398.893 376.141 398.893 375.176V365.316C398.893 364.345 399.682 363.543 400.647 363.543C401.611 363.543 402.401 364.351 402.401 365.316Z" fill="white"/>
<path d="M411.164 365.316V375.176C411.164 376.147 410.375 376.93 409.41 376.93C408.439 376.93 407.656 376.141 407.656 375.176V365.316C407.656 364.345 408.446 363.543 409.41 363.543C410.381 363.543 411.164 364.351 411.164 365.316Z" fill="white"/>
<path d="M419.934 365.316V375.176C419.934 376.147 419.144 376.93 418.18 376.93C417.209 376.93 416.426 376.141 416.426 375.176V365.316C416.426 364.345 417.215 363.543 418.18 363.543C419.144 363.543 419.934 364.351 419.934 365.316Z" fill="white"/>
<path d="M428.705 365.316V375.176C428.705 376.147 427.916 376.93 426.951 376.93C425.98 376.93 425.197 376.141 425.197 375.176V365.316C425.197 364.345 425.987 363.543 426.951 363.543C427.916 363.543 428.705 364.351 428.705 365.316Z" fill="white"/>
<path d="M437.469 365.316V375.176C437.469 376.147 436.68 376.93 435.715 376.93C434.744 376.93 433.961 376.141 433.961 375.176V365.316C433.961 364.345 434.75 363.543 435.715 363.543C436.686 363.543 437.469 364.351 437.469 365.316Z" fill="white"/>
<path d="M446.24 365.316V375.176C446.24 376.147 445.451 376.93 444.486 376.93C443.522 376.93 442.732 376.141 442.732 375.176V365.316C442.732 364.345 443.522 363.543 444.486 363.543C445.451 363.543 446.24 364.351 446.24 365.316Z" fill="white"/>
<path d="M455.008 365.316V375.176C455.008 376.147 454.219 376.93 453.254 376.93C452.289 376.93 451.5 376.141 451.5 375.176V365.316C451.5 364.345 452.289 363.543 453.254 363.543C454.219 363.543 455.008 364.351 455.008 365.316Z" fill="white"/>
<path d="M463.772 365.316V375.176C463.772 376.147 462.982 376.93 462.018 376.93C461.047 376.93 460.264 376.141 460.264 375.176V365.316C460.264 364.345 461.053 363.543 462.018 363.543C462.989 363.543 463.772 364.351 463.772 365.316Z" fill="white"/>
<path d="M472.541 365.316V375.176C472.541 376.147 471.752 376.93 470.787 376.93C469.816 376.93 469.033 376.141 469.033 375.176V365.316C469.033 364.345 469.823 363.543 470.787 363.543C471.752 363.543 472.541 364.351 472.541 365.316Z" fill="white"/>
<path d="M481.313 365.316V375.176C481.313 376.147 480.523 376.93 479.559 376.93C478.588 376.93 477.805 376.141 477.805 375.176V365.316C477.805 364.345 478.594 363.543 479.559 363.543C480.523 363.543 481.313 364.351 481.313 365.316Z" fill="white"/>
<path d="M490.076 365.316V375.176C490.076 376.147 489.287 376.93 488.322 376.93C487.351 376.93 486.568 376.141 486.568 375.176V365.316C486.568 364.345 487.358 363.543 488.322 363.543C489.293 363.543 490.076 364.351 490.076 365.316Z" fill="white"/>
<g filter="url(#filter0_d_5168_56261)">
<path d="M463.758 140.814V117.518C463.758 116.785 463.163 116.196 462.437 116.196H333.519C332.786 116.196 332.197 116.791 332.197 117.518V140.814C332.197 141.547 332.792 142.136 333.519 142.136H462.437C463.163 142.136 463.758 141.547 463.758 140.814Z" fill="white"/>
</g>
<path d="M460.102 121.758V136.573C460.102 137.632 459.244 138.477 458.198 138.477H406.693C405.635 138.477 404.789 137.638 404.789 136.573V121.758C404.789 120.7 405.628 119.854 406.693 119.854H458.198C459.244 119.86 460.102 120.7 460.102 121.758Z" fill="#BADDF0"/>
<path d="M456.004 129.158C456.004 130.348 455.033 131.313 453.843 131.313H437.017C435.827 131.313 434.875 130.342 434.875 129.158C434.875 127.987 435.827 127.016 437.017 127.016H453.843C455.033 127.022 456.004 127.993 456.004 129.158Z" fill="white"/>
<path d="M399.006 132.671C400.94 132.671 402.507 131.103 402.507 129.17C402.507 127.236 400.94 125.668 399.006 125.668C397.072 125.668 395.504 127.236 395.504 129.17C395.504 131.103 397.072 132.671 399.006 132.671Z" fill="#E3F5FF"/>
<path d="M387.556 132.671C389.49 132.671 391.058 131.103 391.058 129.17C391.058 127.236 389.49 125.668 387.556 125.668C385.622 125.668 384.055 127.236 384.055 129.17C384.055 131.103 385.622 132.671 387.556 132.671Z" fill="#E3F5FF"/>
<path d="M376.105 132.671C378.039 132.671 379.607 131.103 379.607 129.17C379.607 127.236 378.039 125.668 376.105 125.668C374.171 125.668 372.604 127.236 372.604 129.17C372.604 131.103 374.171 132.671 376.105 132.671Z" fill="#E3F5FF"/>
<path d="M364.654 132.671C366.588 132.671 368.156 131.103 368.156 129.17C368.156 127.236 366.588 125.668 364.654 125.668C362.72 125.668 361.152 127.236 361.152 129.17C361.152 131.103 362.72 132.671 364.654 132.671Z" fill="#E3F5FF"/>
<path d="M346.512 136.917C350.792 136.917 354.261 133.448 354.261 129.168C354.261 124.889 350.792 121.419 346.512 121.419C342.233 121.419 338.764 124.889 338.764 129.168C338.764 133.448 342.233 136.917 346.512 136.917Z" fill="#BADDF0"/>
<g filter="url(#filter1_d_5168_56261)">
<path d="M426.932 173.803V150.507C426.932 149.774 426.337 149.185 425.61 149.185H296.693C295.96 149.185 295.371 149.78 295.371 150.507V173.803C295.371 174.536 295.966 175.125 296.693 175.125H425.61C426.343 175.125 426.932 174.536 426.932 173.803Z" fill="white"/>
</g>
<path d="M423.28 154.751V169.566C423.28 170.625 422.422 171.471 421.375 171.471H369.871C368.812 171.471 367.967 170.631 367.967 169.566V154.751C367.967 153.693 368.806 152.847 369.871 152.847H421.375C422.415 152.853 423.28 153.693 423.28 154.751Z" fill="#BADDF0"/>
<path d="M419.183 162.151C419.183 163.341 418.213 164.306 417.029 164.306H400.203C399.013 164.306 398.061 163.335 398.061 162.151C398.061 160.98 399.013 160.009 400.203 160.009H417.029C418.213 160.015 419.183 160.98 419.183 162.151Z" fill="white"/>
<path d="M365.681 162.163C365.681 164.099 364.115 165.665 362.179 165.665C360.244 165.665 358.678 164.099 358.678 162.163C358.678 160.227 360.244 158.661 362.179 158.661C364.115 158.661 365.681 160.227 365.681 162.163Z" fill="#E3F5FF"/>
<path d="M354.23 162.163C354.23 164.099 352.664 165.665 350.728 165.665C348.793 165.665 347.227 164.099 347.227 162.163C347.227 160.227 348.793 158.661 350.728 158.661C352.664 158.661 354.23 160.227 354.23 162.163Z" fill="#E3F5FF"/>
<path d="M342.777 162.163C342.777 164.099 341.211 165.665 339.275 165.665C337.339 165.665 335.773 164.099 335.773 162.163C335.773 160.227 337.339 158.661 339.275 158.661C341.211 158.661 342.777 160.227 342.777 162.163Z" fill="#E3F5FF"/>
<path d="M331.326 162.163C331.326 164.099 329.76 165.665 327.824 165.665C325.888 165.665 324.322 164.099 324.322 162.163C324.322 160.227 325.888 158.661 327.824 158.661C329.76 158.661 331.326 160.227 331.326 162.163Z" fill="#E3F5FF"/>
<path d="M315.17 167.64C318.196 164.614 318.196 159.708 315.17 156.682C312.144 153.655 307.238 153.655 304.212 156.682C301.186 159.708 301.186 164.614 304.212 167.64C307.238 170.666 312.144 170.666 315.17 167.64Z" fill="#BADDF0"/>
<g filter="url(#filter2_d_5168_56261)">
<path d="M463.758 206.797V183.5C463.758 182.767 463.163 182.178 462.437 182.178H333.519C332.786 182.178 332.197 182.773 332.197 183.5V206.797C332.197 207.529 332.792 208.118 333.519 208.118H462.437C463.163 208.125 463.758 207.529 463.758 206.797Z" fill="white"/>
</g>
<path d="M460.102 187.745V202.56C460.102 203.618 459.244 204.464 458.198 204.464H406.693C405.635 204.464 404.789 203.625 404.789 202.56V187.745C404.789 186.686 405.628 185.841 406.693 185.841H458.198C459.244 185.841 460.102 186.686 460.102 187.745Z" fill="#BADDF0"/>
<path d="M456.004 195.14C456.004 196.33 455.033 197.301 453.843 197.301H437.017C435.827 197.301 434.875 196.33 434.875 195.14C434.875 193.969 435.827 192.998 437.017 192.998H453.843C455.033 192.998 456.004 193.969 456.004 195.14Z" fill="white"/>
<path d="M399.006 198.654C400.94 198.654 402.507 197.086 402.507 195.152C402.507 193.218 400.94 191.651 399.006 191.651C397.072 191.651 395.504 193.218 395.504 195.152C395.504 197.086 397.072 198.654 399.006 198.654Z" fill="#E3F5FF"/>
<path d="M387.556 198.654C389.49 198.654 391.058 197.086 391.058 195.152C391.058 193.218 389.49 191.651 387.556 191.651C385.622 191.651 384.055 193.218 384.055 195.152C384.055 197.086 385.622 198.654 387.556 198.654Z" fill="#E3F5FF"/>
<path d="M376.105 198.654C378.039 198.654 379.607 197.086 379.607 195.152C379.607 193.218 378.039 191.651 376.105 191.651C374.171 191.651 372.604 193.218 372.604 195.152C372.604 197.086 374.171 198.654 376.105 198.654Z" fill="#E3F5FF"/>
<path d="M364.654 198.654C366.588 198.654 368.156 197.086 368.156 195.152C368.156 193.218 366.588 191.651 364.654 191.651C362.72 191.651 361.152 193.218 361.152 195.152C361.152 197.086 362.72 198.654 364.654 198.654Z" fill="#E3F5FF"/>
<path d="M346.512 202.9C350.792 202.9 354.261 199.431 354.261 195.151C354.261 190.871 350.792 187.402 346.512 187.402C342.233 187.402 338.764 190.871 338.764 195.151C338.764 199.431 342.233 202.9 346.512 202.9Z" fill="#BADDF0"/>
<g filter="url(#filter3_d_5168_56261)">
<path d="M463.758 239.786V216.489C463.758 215.756 463.163 215.167 462.437 215.167H333.519C332.786 215.167 332.197 215.762 332.197 216.489V239.786C332.197 240.519 332.792 241.107 333.519 241.107H462.437C463.163 241.114 463.758 240.519 463.758 239.786Z" fill="white"/>
</g>
<path d="M460.102 220.738V235.553C460.102 236.612 459.244 237.457 458.198 237.457H406.693C405.635 237.457 404.789 236.618 404.789 235.553V220.738C404.789 219.679 405.628 218.834 406.693 218.834H458.198C459.244 218.834 460.102 219.673 460.102 220.738Z" fill="#BADDF0"/>
<path d="M456.004 228.138C456.004 229.328 455.033 230.299 453.843 230.299H437.017C435.827 230.299 434.875 229.328 434.875 228.138C434.875 226.966 435.827 225.996 437.017 225.996H453.843C455.033 225.996 456.004 226.966 456.004 228.138Z" fill="white"/>
<path d="M399.006 231.643C400.94 231.643 402.507 230.075 402.507 228.141C402.507 226.207 400.94 224.639 399.006 224.639C397.072 224.639 395.504 226.207 395.504 228.141C395.504 230.075 397.072 231.643 399.006 231.643Z" fill="#E3F5FF"/>
<path d="M387.556 231.643C389.49 231.643 391.058 230.075 391.058 228.141C391.058 226.207 389.49 224.639 387.556 224.639C385.622 224.639 384.055 226.207 384.055 228.141C384.055 230.075 385.622 231.643 387.556 231.643Z" fill="#E3F5FF"/>
<path d="M376.105 231.643C378.039 231.643 379.607 230.075 379.607 228.141C379.607 226.207 378.039 224.639 376.105 224.639C374.171 224.639 372.604 226.207 372.604 228.141C372.604 230.075 374.171 231.643 376.105 231.643Z" fill="#E3F5FF"/>
<path d="M364.654 231.643C366.588 231.643 368.156 230.075 368.156 228.141C368.156 226.207 366.588 224.639 364.654 224.639C362.72 224.639 361.152 226.207 361.152 228.141C361.152 230.075 362.72 231.643 364.654 231.643Z" fill="#E3F5FF"/>
<path d="M346.512 235.893C350.792 235.893 354.261 232.424 354.261 228.144C354.261 223.865 350.792 220.395 346.512 220.395C342.233 220.395 338.764 223.865 338.764 228.144C338.764 232.424 342.233 235.893 346.512 235.893Z" fill="#BADDF0"/>
<g filter="url(#filter4_d_5168_56261)">
<path d="M463.758 272.779V249.483C463.758 248.75 463.163 248.161 462.437 248.161H333.519C332.786 248.161 332.197 248.756 332.197 249.483V272.779C332.197 273.512 332.792 274.101 333.519 274.101H462.437C463.163 274.101 463.758 273.512 463.758 272.779Z" fill="white"/>
</g>
<path d="M460.102 253.723V268.538C460.102 269.597 459.244 270.442 458.198 270.442H406.693C405.635 270.442 404.789 269.603 404.789 268.538V253.723C404.789 252.665 405.628 251.819 406.693 251.819H458.198C459.244 251.825 460.102 252.665 460.102 253.723Z" fill="#BADDF0"/>
<path d="M456.004 261.123C456.004 262.313 455.033 263.284 453.843 263.284H437.017C435.827 263.284 434.875 262.313 434.875 261.123C434.875 259.951 435.827 258.98 437.017 258.98H453.843C455.033 258.986 456.004 259.951 456.004 261.123Z" fill="white"/>
<path d="M399.006 264.64C400.94 264.64 402.507 263.072 402.507 261.138C402.507 259.205 400.94 257.637 399.006 257.637C397.072 257.637 395.504 259.205 395.504 261.138C395.504 263.072 397.072 264.64 399.006 264.64Z" fill="#E3F5FF"/>
<path d="M387.556 264.64C389.49 264.64 391.058 263.072 391.058 261.138C391.058 259.205 389.49 257.637 387.556 257.637C385.622 257.637 384.055 259.205 384.055 261.138C384.055 263.072 385.622 264.64 387.556 264.64Z" fill="#E3F5FF"/>
<path d="M376.105 264.64C378.039 264.64 379.607 263.072 379.607 261.138C379.607 259.205 378.039 257.637 376.105 257.637C374.171 257.637 372.604 259.205 372.604 261.138C372.604 263.072 374.171 264.64 376.105 264.64Z" fill="#E3F5FF"/>
<path d="M364.654 264.64C366.588 264.64 368.156 263.072 368.156 261.138C368.156 259.205 366.588 257.637 364.654 257.637C362.72 257.637 361.152 259.205 361.152 261.138C361.152 263.072 362.72 264.64 364.654 264.64Z" fill="#E3F5FF"/>
<path d="M354.085 262.82C355.011 258.642 352.374 254.505 348.196 253.578C344.018 252.652 339.88 255.289 338.954 259.467C338.028 263.645 340.664 267.783 344.843 268.709C349.021 269.635 353.158 266.999 354.085 262.82Z" fill="#BADDF0"/>
<g filter="url(#filter5_d_5168_56261)">
<path d="M463.758 305.777V282.48C463.758 281.747 463.163 281.159 462.437 281.159H333.519C332.786 281.159 332.197 281.754 332.197 282.48V305.777C332.197 306.51 332.792 307.099 333.519 307.099H462.437C463.163 307.099 463.758 306.504 463.758 305.777Z" fill="white"/>
</g>
<path d="M460.102 286.721V301.536C460.102 302.594 459.244 303.44 458.198 303.44H406.693C405.635 303.44 404.789 302.601 404.789 301.536V286.721C404.789 285.662 405.628 284.816 406.693 284.816H458.198C459.244 284.816 460.102 285.662 460.102 286.721Z" fill="#BADDF0"/>
<path d="M456.004 294.116C456.004 295.306 455.033 296.277 453.843 296.277H437.017C435.827 296.277 434.875 295.306 434.875 294.116C434.875 292.945 435.827 291.974 437.017 291.974H453.843C455.033 291.974 456.004 292.945 456.004 294.116Z" fill="white"/>
<path d="M399.006 297.629C400.94 297.629 402.507 296.061 402.507 294.128C402.507 292.194 400.94 290.626 399.006 290.626C397.072 290.626 395.504 292.194 395.504 294.128C395.504 296.061 397.072 297.629 399.006 297.629Z" fill="#E3F5FF"/>
<path d="M387.556 297.629C389.49 297.629 391.058 296.061 391.058 294.128C391.058 292.194 389.49 290.626 387.556 290.626C385.622 290.626 384.055 292.194 384.055 294.128C384.055 296.061 385.622 297.629 387.556 297.629Z" fill="#E3F5FF"/>
<path d="M376.105 297.629C378.039 297.629 379.607 296.061 379.607 294.128C379.607 292.194 378.039 290.626 376.105 290.626C374.171 290.626 372.604 292.194 372.604 294.128C372.604 296.061 374.171 297.629 376.105 297.629Z" fill="#E3F5FF"/>
<path d="M364.654 297.629C366.588 297.629 368.156 296.061 368.156 294.128C368.156 292.194 366.588 290.626 364.654 290.626C362.72 290.626 361.152 292.194 361.152 294.128C361.152 296.061 362.72 297.629 364.654 297.629Z" fill="#E3F5FF"/>
<path d="M346.929 301.876C351.208 301.876 354.677 298.406 354.677 294.127C354.677 289.847 351.208 286.378 346.929 286.378C342.649 286.378 339.18 289.847 339.18 294.127C339.18 298.406 342.649 301.876 346.929 301.876Z" fill="#BADDF0"/>
<g filter="url(#filter6_d_5168_56261)">
<path d="M463.758 338.898V315.602C463.758 314.869 463.163 314.28 462.437 314.28H333.519C332.786 314.28 332.197 314.875 332.197 315.602V338.898C332.197 339.631 332.792 340.22 333.519 340.22H462.437C463.163 340.227 463.758 339.631 463.758 338.898Z" fill="white"/>
</g>
<path d="M346.929 335.254C351.208 335.254 354.677 331.785 354.677 327.505C354.677 323.226 351.208 319.756 346.929 319.756C342.649 319.756 339.18 323.226 339.18 327.505C339.18 331.785 342.649 335.254 346.929 335.254Z" fill="#50FF81"/>
<path d="M460.102 319.709V334.524C460.102 335.583 459.244 336.429 458.198 336.429H406.693C405.635 336.429 404.789 335.589 404.789 334.524V319.709C404.789 318.651 405.628 317.805 406.693 317.805H458.198C459.244 317.805 460.102 318.644 460.102 319.709Z" fill="#BADDF0"/>
<path d="M456.004 327.109C456.004 328.299 455.033 329.27 453.843 329.27H437.017C435.827 329.27 434.875 328.299 434.875 327.109C434.875 325.938 435.827 324.967 437.017 324.967H453.843C455.033 324.967 456.004 325.938 456.004 327.109Z" fill="white"/>
<path d="M399.006 330.618C400.94 330.618 402.507 329.051 402.507 327.117C402.507 325.183 400.94 323.615 399.006 323.615C397.072 323.615 395.504 325.183 395.504 327.117C395.504 329.051 397.072 330.618 399.006 330.618Z" fill="#E3F5FF"/>
<path d="M387.556 330.618C389.49 330.618 391.058 329.051 391.058 327.117C391.058 325.183 389.49 323.615 387.556 323.615C385.622 323.615 384.055 325.183 384.055 327.117C384.055 329.051 385.622 330.618 387.556 330.618Z" fill="#E3F5FF"/>
<path d="M376.105 330.618C378.039 330.618 379.607 329.051 379.607 327.117C379.607 325.183 378.039 323.615 376.105 323.615C374.171 323.615 372.604 325.183 372.604 327.117C372.604 329.051 374.171 330.618 376.105 330.618Z" fill="#E3F5FF"/>
<path d="M364.654 330.618C366.588 330.618 368.156 329.051 368.156 327.117C368.156 325.183 366.588 323.615 364.654 323.615C362.72 323.615 361.152 325.183 361.152 327.117C361.152 329.051 362.72 330.618 364.654 330.618Z" fill="#E3F5FF"/>
<path d="M23.2767 298.871C20.4809 297.532 18.2194 295.877 16.5553 293.953C14.4941 291.569 13.3438 288.751 13.1398 285.579C12.9283 282.301 12.1806 277.64 11.151 272.398C10.8597 272.592 10.5536 272.77 10.2382 272.932C10.2011 272.95 10.1659 272.967 10.1288 272.986C11.1102 278.026 11.8208 282.492 12.023 285.651C12.2437 289.072 13.483 292.113 15.7074 294.686C17.4717 296.729 19.8557 298.476 22.7906 299.881C27.7533 302.257 32.5212 302.829 32.7216 302.853L32.8496 301.742C32.8032 301.736 28.0687 301.168 23.273 298.873L23.2767 298.871Z" fill="#BADDF0"/>
<path d="M32.7295 302.863H32.7184C32.518 302.839 27.7445 302.266 22.7837 299.889C19.8469 298.483 17.4629 296.733 15.6968 294.691C13.4705 292.116 12.2294 289.073 12.0086 285.648C11.8212 282.736 11.183 278.474 10.1144 272.985V272.975L10.1385 272.963C10.1682 272.948 10.1997 272.933 10.2294 272.918C10.5467 272.755 10.8546 272.577 11.1403 272.384L11.1533 272.374L11.157 272.391C12.2832 278.124 12.9529 282.56 13.1458 285.574C13.3499 288.745 14.4983 291.561 16.5576 293.943C18.2199 295.867 20.4814 297.52 23.2753 298.859C28.0581 301.151 32.8 301.722 32.8482 301.728H32.8594L32.7277 302.863H32.7295ZM10.1367 272.988C11.2053 278.476 11.8416 282.736 12.0308 285.647C12.2516 289.066 13.4909 292.103 15.7135 294.676C17.4778 296.717 19.8599 298.464 22.793 299.869C27.6815 302.21 32.3863 302.8 32.7091 302.837L32.8353 301.748C32.5755 301.717 27.9412 301.119 23.266 298.88C20.4684 297.54 18.2069 295.886 16.5409 293.958C14.4779 291.572 13.3277 288.752 13.1236 285.576C12.9288 282.565 12.2609 278.135 11.1385 272.411C10.8547 272.599 10.5522 272.777 10.2387 272.937C10.209 272.951 10.1775 272.966 10.146 272.981L10.1367 272.987V272.988Z" fill="#BADDF0"/>
<path d="M33.9034 379.63C30.806 379.63 28.2951 377.119 28.2951 374.022C28.2951 370.924 30.806 368.413 33.9034 368.413C37.0008 368.413 39.5117 370.924 39.5117 374.022C39.5117 377.119 37.0008 379.63 33.9034 379.63Z" fill="#E3F5FF"/>
<path d="M96.3585 379.63C93.2611 379.63 90.7502 377.119 90.7502 374.022C90.7502 370.925 93.2611 368.414 96.3585 368.414C99.4559 368.414 101.967 370.925 101.967 374.022C101.967 377.119 99.4559 379.63 96.3585 379.63Z" fill="#E3F5FF"/>
<path d="M101.647 304.024L26.6947 302.794C26.7633 298.657 30.1714 295.358 34.3085 295.427L94.2803 296.41C98.4175 296.479 101.716 299.887 101.647 304.024Z" fill="#E3F5FF"/>
<path d="M69.707 329.504H60.1545V302.943H69.707V329.504ZM60.776 328.897H69.0855V303.55H60.776V328.897Z" fill="#E3F5FF"/>
<path d="M69.7168 329.514H60.142V302.931H69.7168V329.514ZM60.1643 329.492H69.6946V302.951H60.1643V329.492ZM69.0953 328.907H60.7635V303.537H69.0953V328.907ZM60.7858 328.885H69.073V303.558H60.7858V328.885Z" fill="#E3F5FF"/>
<path d="M68.3789 365.376H61.4942V328.98H68.3789V365.376ZM62.1157 364.754H67.7593V329.602H62.1157V364.754Z" fill="#E3F5FF"/>
<path d="M68.3887 365.389H61.4817V328.971H68.3887V365.389ZM61.504 365.366H68.3664V328.993H61.504V365.366ZM67.7672 364.767H62.1032V329.592H67.7672V364.767ZM62.1236 364.745H67.7449V329.614H62.1236V364.745Z" fill="#E3F5FF"/>
<path d="M11.5174 283.969L0.000211716 200.594L1.21539 200.425C5.80334 199.791 10.0481 203.08 10.6955 207.768L19.8659 274.163C20.5133 278.853 17.3187 283.168 12.7307 283.8L11.5155 283.969H11.5174Z" fill="#E3F5FF"/>
<path d="M103.223 372.493H26.6448C26.6448 367.84 30.4165 364.07 35.0675 364.07H94.8C99.4529 364.07 103.223 367.842 103.223 372.493Z" fill="white"/>
<path d="M96.6986 155.199C95.919 152.332 97.4271 149.426 100.067 148.708C102.707 147.99 105.479 149.733 106.258 152.6C107.038 155.468 105.53 158.374 102.89 159.092C100.25 159.809 97.4781 158.067 96.6986 155.199Z" fill="#003959"/>
<path d="M93.4217 150.275C92.6426 147.407 94.1512 144.501 96.7912 143.784C99.4312 143.067 102.203 144.81 102.982 147.677C103.761 150.544 102.252 153.45 99.6124 154.168C96.9724 154.885 94.2007 153.142 93.4217 150.275Z" fill="#003959"/>
<path d="M82.3021 159.116C81.5225 156.249 83.0306 153.342 85.6705 152.625C88.3104 151.907 91.0824 153.649 91.8619 156.517C92.6415 159.384 91.1334 162.29 88.4935 163.008C85.8536 163.726 83.0816 161.983 82.3021 159.116Z" fill="#003959"/>
<path d="M87.4388 153.969C86.6592 151.101 88.1673 148.195 90.8072 147.477C93.4471 146.76 96.2191 148.502 96.9986 151.369C97.7782 154.237 96.2701 157.143 93.6302 157.861C90.9904 158.578 88.2184 156.836 87.4388 153.969Z" fill="#003959"/>
<path d="M102.312 153.943C99.5682 152.834 98.2432 149.711 99.3522 146.967C100.461 144.224 103.584 142.899 106.328 144.008C109.071 145.117 110.396 148.24 109.287 150.983C108.178 153.727 105.055 155.052 102.312 153.943Z" fill="#003959"/>
<path d="M164.599 355.519L170.543 366.148L190.518 365.404L193.15 359.333L182.631 343.208L164.599 355.519Z" fill="#F3A4B1"/>
<path d="M230.615 374.739L230.597 379.288L167.586 379.538V374.436L230.615 374.739Z" fill="#00283F"/>
<path d="M230.682 376.294C230.682 376.294 231.542 365.713 217.17 363.47C202.798 361.228 191.327 355.517 191.327 355.517C191.327 355.517 188.772 363.172 179.923 363.684C169.882 364.266 173.589 359.732 166.881 360.126L167.471 375.303L230.682 376.29V376.294Z" fill="#00B2B2"/>
<path d="M230.682 376.296L211.653 376.122L211.072 362.263C212.881 362.612 215.062 363.145 217.17 363.473C231.542 365.716 230.682 376.296 230.682 376.296Z" fill="#E3F5FF"/>
<path d="M198.307 358.309C198.194 358.233 198.063 358.173 197.914 358.138C197.315 357.993 196.69 358.281 196.515 358.78L194.215 365.405C194.042 365.904 194.386 366.425 194.985 366.57C195.584 366.715 196.209 366.427 196.384 365.928L198.684 359.303C198.814 358.928 198.651 358.539 198.307 358.309Z" fill="#E3F5FF"/>
<path d="M202.483 359.317C202.37 359.241 202.238 359.182 202.09 359.146C201.491 359.002 200.865 359.289 200.691 359.788L198.391 366.413C198.218 366.912 198.561 367.434 199.161 367.578C199.76 367.723 200.385 367.435 200.559 366.936L202.86 360.311C202.99 359.937 202.826 359.547 202.483 359.317Z" fill="#E3F5FF"/>
<path d="M206.71 360.336C206.597 360.26 206.465 360.2 206.316 360.165C205.717 360.02 205.092 360.308 204.918 360.807L202.617 367.432C202.445 367.931 202.788 368.452 203.387 368.597C203.986 368.742 204.612 368.454 204.786 367.955L207.086 361.33C207.216 360.955 207.053 360.566 206.71 360.336Z" fill="#E3F5FF"/>
<path d="M158.042 357.263C158.042 357.263 134.538 288.145 122.301 286.527C93.7367 282.754 118.465 242.36 139.154 266.012C160.196 290.067 187.093 347.621 187.093 347.621C193.234 356.638 158.042 357.263 158.042 357.263Z" fill="#00283F"/>
<path d="M186.051 354.321L190.277 364.76L205.371 369.28L212.697 359.111L202.796 341.761L186.051 354.321Z" fill="#FABCC6"/>
<path d="M251.51 374.742L251.491 379.291L188.481 379.541V374.44L251.51 374.742Z" fill="#003959"/>
<path d="M251.576 376.296C251.576 376.296 252.437 365.716 238.065 363.473C223.692 361.23 211.568 356.002 211.568 356.002C211.568 356.002 209.665 363.174 200.817 363.688C190.779 364.271 194.484 359.737 187.775 360.13L188.365 375.307L251.576 376.294V376.296Z" fill="#00C7C7"/>
<path d="M219.21 358.311C219.097 358.235 218.965 358.175 218.816 358.14C218.217 357.996 217.592 358.283 217.418 358.782L215.117 365.407C214.945 365.906 215.288 366.427 215.887 366.572C216.486 366.717 217.111 366.429 217.284 365.93L219.584 359.305C219.714 358.931 219.551 358.541 219.208 358.311H219.21Z" fill="#003959"/>
<path d="M223.384 359.32C223.27 359.244 223.139 359.184 222.99 359.149C222.391 359.004 221.766 359.292 221.591 359.791L219.291 366.416C219.118 366.915 219.462 367.436 220.061 367.581C220.66 367.726 221.285 367.438 221.46 366.939L223.76 360.314C223.89 359.939 223.727 359.55 223.384 359.32Z" fill="#003959"/>
<path d="M227.608 360.338C227.495 360.262 227.363 360.203 227.215 360.167C226.616 360.023 225.99 360.31 225.816 360.809L223.516 367.434C223.343 367.933 223.686 368.455 224.286 368.599C224.885 368.744 225.51 368.456 225.684 367.957L227.985 361.332C228.115 360.958 227.951 360.568 227.608 360.338Z" fill="#003959"/>
<path d="M170.681 358.228C170.681 358.228 171.011 359.248 140.68 307.306C123.436 277.774 94.6001 300.959 43.9749 295.399C14.2581 292.135 16.6754 251.016 16.6754 251.016C16.6754 251.016 128.36 239.445 156.206 269.576C179.354 294.623 205.119 344.714 205.119 344.714C211.26 353.73 170.681 358.226 170.681 358.226V358.228Z" fill="#003959"/>
<path d="M101.567 231.489L124.071 230.192C124.377 230.183 126.776 226.738 126.982 226.51C126.982 226.51 130.028 225.914 133.579 225.22C137.13 224.527 144.603 228.617 144.603 228.617C145.183 228.831 148.085 229.37 147.872 229.951L144.516 232.101C140.581 233.198 136.486 227.771 127.023 234.571C123.735 236.932 99.8827 231.448 101.567 231.491V231.489Z" fill="#FABCC6"/>
<path d="M124.572 226.591C134.748 237.96 115.43 239.956 115.43 239.956C76.7912 241.346 57.6509 214.911 59.6786 188.237C60.2945 180.127 98.1948 184.059 95.6049 188.47C75.5741 222.608 93.1597 225.359 124.57 226.591H124.572Z" fill="#00C7C7"/>
<path d="M17.257 270.805C6.06638 239.361 17.7969 185.615 51.2614 170.519C78.867 158.065 93.5492 172.447 95.5807 179.135C99.3765 191.637 92.0836 192.708 77.6889 207.102C63.2943 221.497 75.9228 244.85 75.9228 244.85C58.5005 258.974 44.9684 280.465 17.257 270.805Z" fill="#00C7C7"/>
<path d="M179.615 235.749L129.396 235.905L129.474 232.603L178.196 232.59L179.615 235.749Z" fill="#3AEC6C"/>
<path d="M194.77 181.537L179.687 235.856L178.193 232.588L191.666 181.591L194.77 181.537Z" fill="#3AEC6C"/>
<path d="M214.648 182.974L199.963 236.074L179.609 235.749L193.976 181.567L214.648 182.974Z" fill="#50FF81"/>
<path d="M200.3 208.343C199.964 210.488 198.682 212.068 197.434 211.873C196.185 211.679 195.445 209.781 195.781 207.636C196.116 205.491 197.398 203.911 198.647 204.106C199.895 204.3 200.636 206.198 200.3 208.343Z" fill="white"/>
<path d="M83.1018 168.019L89.5765 160.988L93.543 171.11L91.005 174.128C91.005 174.128 89.1554 180.965 84.9329 179.475C80.7104 177.985 81.3579 170.945 83.1018 168.023V168.019Z" fill="#FABCC6"/>
<path d="M96.3349 154.42C94.9213 157.463 91.977 158.201 88.7898 157.136C87.7842 156.875 86.608 157.732 86.1071 159.129C85.6786 160.323 86.0811 162.21 86.736 162.821C86.0515 166.731 87.4002 169.742 90.4372 170.861C93.951 172.154 98.1215 169.523 99.7504 164.984C101.379 160.444 99.8506 155.715 96.3368 154.422L96.3349 154.42Z" fill="#FABCC6"/>
<path d="M82.7159 235.901H245.133V242.801H82.7159V235.901Z" fill="#E3F5FF"/>
<path d="M82.7034 242.812H245.143V235.891H82.7034V242.812ZM245.12 242.79H82.7257V235.913H245.12V242.79Z" fill="#E3F5FF"/>
<path d="M233.824 242.896V380.381H236.818V242.896" fill="#E3F5FF"/>
<path d="M233.812 380.392H236.828V242.896H236.806V380.37H233.834V242.896H233.812V380.392Z" fill="#E3F5FF"/>
<path d="M91.0445 242.897V380.382H93.5898V242.897" fill="#E3F5FF"/>
<path d="M91.032 380.393H93.5996V242.897H93.5792V380.371H91.0524V242.897H91.032V380.393Z" fill="#E3F5FF"/>
<path d="M90.929 152.859C90.1495 149.991 91.6576 147.085 94.2974 146.367C96.9373 145.65 99.7093 147.392 100.489 150.26C101.268 153.127 99.7603 156.033 97.1205 156.751C94.4806 157.468 91.7086 155.726 90.929 152.859Z" fill="#003959"/>
<path d="M81.8684 228.723C81.8684 228.723 110.817 231.35 112.478 231.394C114.138 231.439 119.767 226.319 119.767 226.319C121.212 224.949 123.401 224.734 125.084 225.797L135.377 230.958C136.262 231.402 136.62 232.48 136.178 233.365L134.397 236.929C133.97 237.782 132.88 238.049 132.108 237.487L130.421 236.261L124.661 236.075C122.924 236.34 120.411 240.561 115.353 240.427C110.296 240.294 65.4535 237.3 65.4535 237.3C63.6094 237.186 79.7795 228.435 81.8666 228.723H81.8684Z" fill="#FABCC6"/>
<path d="M126.524 233.581L131.685 233.718L134.861 235.998" fill="#F7F8F9"/>
<path d="M111.762 231.348C119.216 244.661 111.298 248.778 111.298 248.778C92.2804 255.791 69.632 254.236 58.573 247.377C36.7 233.812 29.6742 181.068 57.3949 170.714C70.6486 165.764 58.5359 201.093 75.4536 222.395C81.6315 230.174 95.8888 230.873 111.76 231.348H111.762Z" fill="#00B2B2"/>
<path d="M200 235.5C257 235.5 288.5 233 288.5 275C288.5 317 313.5 327.5 347 327.5" stroke="#00C7C7"/>
<path d="M423.028 89.6614C424.488 90.3353 425.2 91.5767 425.2 93.3856C425.2 94.2014 425.022 94.9108 424.666 95.5493C424.31 96.1877 423.776 96.7197 423.099 97.1454C422.423 97.571 421.604 97.8902 420.678 98.1385C419.716 98.3868 418.683 98.4932 417.508 98.4932L414.089 98.4932L403.334 82L416.297 82C419.111 82 421.247 82.3547 422.601 83.0641C423.99 83.7735 424.666 84.9085 424.666 86.5046C424.666 87.1785 424.524 87.7815 424.239 88.3135C423.954 88.7746 423.562 89.2357 423.028 89.6614ZM414.766 88.1007L416.796 88.1007C417.864 88.1007 418.576 87.9943 418.933 87.817C419.289 87.6041 419.467 87.2495 419.467 86.7529C419.467 86.3273 419.253 86.0435 418.861 85.8307C418.47 85.6179 417.65 85.5115 416.44 85.5115L414.73 85.5115L414.73 88.1007L414.766 88.1007ZM414.766 91.6122L414.766 94.8044L417.081 94.8044C418.149 94.8044 418.897 94.6625 419.324 94.4142C419.752 94.166 419.965 93.7403 419.965 93.1374C419.965 92.1087 418.933 91.5767 416.903 91.5767L414.766 91.5767L414.766 91.6122Z" fill="#003959"/>
<path d="M400.414 85.5073L392.936 98.4181L401.02 98.4181L409.068 98.4181L400.414 85.5073Z" fill="#1AE3E3"/>
<path d="M393.328 82L397.53 82L388.057 98.4223L383.784 91.222L379.474 98.4223L377.516 94.8399L384.888 82L389.09 82L385.885 87.5332L387.95 91.0801L393.328 82Z" fill="#003959"/>
<path d="M370 82L380.506 82L375.235 91.0801L370 82Z" fill="#003959"/>
<path fill-rule="evenodd" clip-rule="evenodd" d="M388.125 102.184L388.303 102.361C388.339 102.379 388.366 102.405 388.392 102.432C388.419 102.459 388.446 102.485 388.481 102.503C388.539 102.464 388.597 102.416 388.66 102.362C388.714 102.317 388.772 102.268 388.837 102.219C388.891 102.166 388.944 102.104 388.998 102.042C389.051 101.98 389.104 101.918 389.158 101.864C389.051 101.758 388.944 101.652 388.837 101.51C388.731 101.403 388.588 101.297 388.481 101.226C388.467 101.241 388.446 101.255 388.421 101.273C388.387 101.297 388.345 101.326 388.303 101.368C388.257 101.391 388.226 101.428 388.191 101.471C388.171 101.495 388.15 101.52 388.125 101.545L387.947 101.723C387.876 101.793 387.84 101.829 387.805 101.9C387.822 101.935 387.849 101.962 387.876 101.989C387.903 102.015 387.929 102.042 387.947 102.077C387.983 102.077 388.054 102.113 388.125 102.184ZM385.381 102.713C385.595 102.642 385.844 102.606 386.129 102.606L386.129 101.365L387.269 101.365L387.269 105.586L386.093 105.586L386.093 104.983C385.987 105.231 385.844 105.409 385.702 105.515C385.559 105.621 385.381 105.657 385.203 105.657C385.061 105.657 384.918 105.621 384.812 105.55C384.705 105.48 384.598 105.373 384.527 105.267C384.455 105.125 384.384 104.983 384.349 104.841C384.313 104.699 384.277 104.522 384.277 104.344C384.277 104.025 384.313 103.742 384.42 103.529C384.527 103.316 384.633 103.139 384.812 102.997C384.954 102.855 385.168 102.784 385.381 102.713ZM386.022 104.451C386.058 104.344 386.093 104.238 386.129 104.061C386.165 103.919 386.2 103.706 386.236 103.458L386.093 103.458L385.987 103.458C385.844 103.458 385.737 103.458 385.666 103.493C385.595 103.493 385.524 103.529 385.488 103.564C385.453 103.6 385.417 103.671 385.417 103.706C385.381 103.742 385.381 103.812 385.381 103.883C385.381 103.915 385.388 103.954 385.396 103.997C385.406 104.05 385.417 104.109 385.417 104.167C385.433 104.216 385.442 104.265 385.45 104.31L385.45 104.31C385.46 104.364 385.469 104.412 385.488 104.451C385.524 104.557 385.559 104.628 385.595 104.664C385.631 104.699 385.702 104.735 385.737 104.735C385.773 104.735 385.844 104.699 385.88 104.664C385.951 104.628 385.987 104.557 386.022 104.451L386.022 104.451ZM379.077 104.383L378.401 101.581L377.225 101.581L376.584 104.383L376.549 104.383L375.979 101.581L374.732 101.581L375.658 105.554L376.371 105.554L376.371 105.554C376.549 105.554 376.727 105.554 376.869 105.518C377.012 105.483 377.118 105.447 377.225 105.376C377.332 105.305 377.403 105.199 377.475 105.057C377.521 104.965 377.552 104.859 377.587 104.738L377.587 104.738L377.587 104.738C377.607 104.671 377.627 104.6 377.653 104.525L377.795 103.887L378.187 105.554L378.935 105.554L378.935 105.554C379.113 105.554 379.291 105.554 379.433 105.518C379.576 105.483 379.683 105.447 379.789 105.376C379.896 105.305 379.968 105.199 380.039 105.057C380.11 104.915 380.146 104.738 380.181 104.525L380.715 101.581L379.505 101.581L379.077 104.383ZM382.708 102.606C382.423 102.606 382.173 102.641 381.96 102.677C381.746 102.748 381.533 102.818 381.354 102.96C381.176 103.102 381.07 103.28 380.963 103.492C380.856 103.705 380.82 103.989 380.82 104.308C380.82 104.486 380.856 104.663 380.892 104.805C380.927 104.947 380.998 105.089 381.07 105.23C381.141 105.337 381.248 105.443 381.354 105.514C381.461 105.585 381.604 105.621 381.746 105.621C381.924 105.621 382.102 105.585 382.245 105.479C382.387 105.372 382.53 105.195 382.636 104.947L382.636 105.55L383.812 105.55L383.812 102.641C383.598 102.606 383.384 102.606 383.206 102.606L383.206 102.606L382.708 102.606ZM382.672 104.06C382.636 104.237 382.601 104.344 382.565 104.45L382.565 104.45C382.53 104.556 382.494 104.627 382.423 104.663C382.387 104.698 382.316 104.734 382.28 104.734C382.245 104.734 382.173 104.698 382.138 104.663C382.102 104.627 382.067 104.556 382.031 104.45C382.012 104.412 382.003 104.363 381.993 104.309L381.993 104.309L381.993 104.309C381.985 104.264 381.976 104.215 381.96 104.166C381.96 104.108 381.949 104.049 381.939 103.996C381.931 103.953 381.924 103.914 381.924 103.883C381.924 103.812 381.924 103.741 381.96 103.705C381.96 103.67 381.995 103.599 382.031 103.563C382.067 103.528 382.138 103.492 382.209 103.492C382.28 103.457 382.387 103.457 382.53 103.457L382.53 103.457L382.636 103.457L382.779 103.457C382.743 103.705 382.708 103.918 382.672 104.06ZM398.699 101.794C398.77 101.865 398.841 101.971 398.913 102.113C398.958 102.181 399.003 102.278 399.058 102.394L399.058 102.394L399.058 102.394C399.089 102.46 399.123 102.533 399.162 102.61L400.017 105.554L398.806 105.554L398.521 104.631L397.488 104.631L397.239 105.554L396.028 105.554L389.083 105.554L387.908 105.554L387.908 102.645L389.083 102.645L389.083 104.383L396.349 104.383L397.096 101.581L397.915 101.581C398.094 101.581 398.236 101.581 398.378 101.617C398.485 101.652 398.592 101.723 398.699 101.794ZM397.88 102.752L397.631 103.78L398.2 103.78L397.915 102.752L397.88 102.752ZM409.634 103.493C409.777 103.387 409.884 103.28 409.955 103.139C410.026 102.997 410.062 102.855 410.062 102.677C410.062 102.358 409.955 102.074 409.706 101.862C409.456 101.649 409.136 101.578 408.708 101.578L406.785 101.578L406.785 104.38L401.55 104.38L401.55 101.365L400.375 101.365L400.375 105.55L401.408 105.55L401.55 105.55L406.785 105.55L407.498 105.55L407.996 105.55L407.996 105.018C408.103 105.231 408.21 105.409 408.388 105.479C408.53 105.55 408.744 105.621 408.958 105.621C409.171 105.621 409.349 105.586 409.528 105.515C409.67 105.444 409.812 105.373 409.919 105.267C410.026 105.16 410.097 105.054 410.169 104.912C410.204 104.77 410.24 104.628 410.24 104.451C410.24 104.274 410.204 104.096 410.097 103.919C409.991 103.741 409.848 103.6 409.634 103.493ZM408.032 102.606L408.495 102.606C408.602 102.606 408.673 102.606 408.744 102.642C408.815 102.677 408.851 102.748 408.851 102.855C408.851 102.939 408.829 102.979 408.802 103.027C408.795 103.04 408.787 103.053 408.78 103.068C408.708 103.103 408.637 103.139 408.53 103.139L408.032 103.139L408.032 102.606ZM408.851 104.486C408.78 104.522 408.708 104.557 408.602 104.557L407.961 104.557L407.961 104.025L408.602 104.025C408.708 104.025 408.78 104.061 408.851 104.096C408.922 104.132 408.922 104.203 408.922 104.309C408.958 104.38 408.922 104.451 408.851 104.486ZM411.7 102.677C411.914 102.641 412.163 102.606 412.448 102.606L412.946 102.606C413.124 102.606 413.338 102.606 413.552 102.641L413.552 105.55L412.377 105.55L412.377 104.947C412.27 105.195 412.127 105.372 411.985 105.479C411.843 105.585 411.664 105.621 411.486 105.621C411.344 105.621 411.202 105.585 411.095 105.514C410.988 105.443 410.881 105.337 410.81 105.23C410.739 105.089 410.667 104.947 410.632 104.805C410.596 104.663 410.561 104.486 410.561 104.308C410.561 103.989 410.596 103.705 410.703 103.492C410.81 103.28 410.917 103.102 411.095 102.96C411.273 102.818 411.486 102.748 411.7 102.677ZM412.305 104.45C412.341 104.344 412.377 104.237 412.412 104.06C412.448 103.918 412.483 103.705 412.519 103.457L412.377 103.457L412.27 103.457C412.127 103.457 412.021 103.457 411.949 103.492C411.878 103.492 411.807 103.528 411.771 103.563C411.736 103.599 411.7 103.67 411.7 103.705C411.664 103.741 411.664 103.812 411.664 103.883C411.664 103.914 411.672 103.953 411.68 103.996L411.68 103.997L411.68 103.997C411.689 104.049 411.7 104.108 411.7 104.166C411.716 104.215 411.725 104.264 411.733 104.309L411.733 104.309C411.743 104.363 411.752 104.412 411.771 104.45C411.807 104.556 411.843 104.627 411.878 104.663C411.914 104.698 411.985 104.734 412.021 104.734C412.056 104.734 412.127 104.698 412.163 104.663C412.234 104.627 412.27 104.556 412.305 104.45ZM415.865 102.606C415.581 102.606 415.331 102.642 415.118 102.713C414.904 102.784 414.69 102.855 414.548 102.997C414.37 103.139 414.263 103.316 414.156 103.529C414.049 103.741 414.014 104.025 414.014 104.344C414.014 104.522 414.049 104.699 414.085 104.841C414.121 104.983 414.192 105.125 414.263 105.267C414.334 105.373 414.441 105.479 414.548 105.55C414.655 105.621 414.797 105.657 414.94 105.657C415.118 105.657 415.296 105.621 415.438 105.515C415.581 105.409 415.723 105.231 415.83 104.983L415.83 105.586L417.005 105.586L417.005 101.365L415.83 101.365L415.83 102.606L415.865 102.606ZM415.865 104.061C415.83 104.238 415.794 104.344 415.759 104.451C415.723 104.557 415.687 104.628 415.616 104.664C415.581 104.699 415.509 104.735 415.474 104.735C415.438 104.735 415.367 104.699 415.331 104.664C415.296 104.628 415.26 104.557 415.224 104.451C415.205 104.412 415.196 104.364 415.187 104.31L415.187 104.31C415.178 104.265 415.17 104.216 415.153 104.167C415.153 104.109 415.142 104.05 415.133 103.997L415.133 103.997C415.125 103.954 415.118 103.915 415.118 103.883C415.118 103.812 415.118 103.741 415.153 103.706C415.153 103.671 415.189 103.6 415.224 103.564C415.26 103.529 415.331 103.493 415.402 103.493C415.474 103.458 415.581 103.458 415.723 103.458L415.83 103.458L415.972 103.458C415.937 103.706 415.901 103.919 415.865 104.061ZM419.356 102.606L419.89 102.606C419.979 102.606 420.077 102.615 420.175 102.623C420.273 102.632 420.371 102.641 420.46 102.641L420.46 105.55L419.285 105.55L419.285 104.947C419.178 105.195 419.036 105.372 418.893 105.479C418.751 105.585 418.573 105.621 418.395 105.621C418.252 105.621 418.11 105.585 418.003 105.514C417.896 105.443 417.789 105.337 417.718 105.23C417.647 105.089 417.576 104.947 417.54 104.805C417.504 104.663 417.469 104.486 417.469 104.308C417.469 103.989 417.504 103.705 417.611 103.492C417.718 103.28 417.825 103.102 418.003 102.96C418.181 102.818 418.395 102.748 418.608 102.677C418.822 102.641 419.071 102.606 419.356 102.606ZM419.214 104.45C419.249 104.344 419.285 104.237 419.32 104.06C419.356 103.918 419.392 103.705 419.427 103.457L419.285 103.457L419.178 103.457C419.036 103.457 418.929 103.457 418.858 103.492C418.786 103.492 418.715 103.528 418.679 103.563C418.644 103.599 418.608 103.67 418.608 103.705C418.573 103.741 418.573 103.812 418.573 103.883C418.573 103.914 418.58 103.953 418.588 103.996C418.597 104.049 418.608 104.108 418.608 104.166C418.625 104.215 418.633 104.264 418.642 104.309C418.651 104.363 418.66 104.412 418.679 104.45C418.715 104.556 418.751 104.627 418.786 104.663C418.822 104.698 418.893 104.734 418.929 104.734C418.964 104.734 419.036 104.698 419.071 104.663C419.142 104.627 419.178 104.556 419.214 104.45Z" fill="#1AE3E3"/>
<defs>
<filter id="filter0_d_5168_56261" x="277.197" y="76.196" width="231.561" height="125.94" filterUnits="userSpaceOnUse" color-interpolation-filters="sRGB">
<feFlood flood-opacity="0" result="BackgroundImageFix"/>
<feColorMatrix in="SourceAlpha" type="matrix" values="0 0 0 0 0 0 0 0 0 0 0 0 0 0 0 0 0 0 127 0" result="hardAlpha"/>
<feOffset dx="-5" dy="10"/>
<feGaussianBlur stdDeviation="25"/>
<feComposite in2="hardAlpha" operator="out"/>
<feColorMatrix type="matrix" values="0 0 0 0 0 0 0 0 0 0.141176 0 0 0 0 0.282353 0 0 0 0.12 0"/>
<feBlend mode="normal" in2="BackgroundImageFix" result="effect1_dropShadow_5168_56261"/>
<feBlend mode="normal" in="SourceGraphic" in2="effect1_dropShadow_5168_56261" result="shape"/>
</filter>
<filter id="filter1_d_5168_56261" x="240.371" y="109.185" width="231.561" height="125.94" filterUnits="userSpaceOnUse" color-interpolation-filters="sRGB">
<feFlood flood-opacity="0" result="BackgroundImageFix"/>
<feColorMatrix in="SourceAlpha" type="matrix" values="0 0 0 0 0 0 0 0 0 0 0 0 0 0 0 0 0 0 127 0" result="hardAlpha"/>
<feOffset dx="-5" dy="10"/>
<feGaussianBlur stdDeviation="25"/>
<feComposite in2="hardAlpha" operator="out"/>
<feColorMatrix type="matrix" values="0 0 0 0 0 0 0 0 0 0.141176 0 0 0 0 0.282353 0 0 0 0.12 0"/>
<feBlend mode="normal" in2="BackgroundImageFix" result="effect1_dropShadow_5168_56261"/>
<feBlend mode="normal" in="SourceGraphic" in2="effect1_dropShadow_5168_56261" result="shape"/>
</filter>
<filter id="filter2_d_5168_56261" x="277.197" y="142.178" width="231.561" height="125.94" filterUnits="userSpaceOnUse" color-interpolation-filters="sRGB">
<feFlood flood-opacity="0" result="BackgroundImageFix"/>
<feColorMatrix in="SourceAlpha" type="matrix" values="0 0 0 0 0 0 0 0 0 0 0 0 0 0 0 0 0 0 127 0" result="hardAlpha"/>
<feOffset dx="-5" dy="10"/>
<feGaussianBlur stdDeviation="25"/>
<feComposite in2="hardAlpha" operator="out"/>
<feColorMatrix type="matrix" values="0 0 0 0 0 0 0 0 0 0.141176 0 0 0 0 0.282353 0 0 0 0.12 0"/>
<feBlend mode="normal" in2="BackgroundImageFix" result="effect1_dropShadow_5168_56261"/>
<feBlend mode="normal" in="SourceGraphic" in2="effect1_dropShadow_5168_56261" result="shape"/>
</filter>
<filter id="filter3_d_5168_56261" x="277.197" y="175.167" width="231.561" height="125.94" filterUnits="userSpaceOnUse" color-interpolation-filters="sRGB">
<feFlood flood-opacity="0" result="BackgroundImageFix"/>
<feColorMatrix in="SourceAlpha" type="matrix" values="0 0 0 0 0 0 0 0 0 0 0 0 0 0 0 0 0 0 127 0" result="hardAlpha"/>
<feOffset dx="-5" dy="10"/>
<feGaussianBlur stdDeviation="25"/>
<feComposite in2="hardAlpha" operator="out"/>
<feColorMatrix type="matrix" values="0 0 0 0 0 0 0 0 0 0.141176 0 0 0 0 0.282353 0 0 0 0.12 0"/>
<feBlend mode="normal" in2="BackgroundImageFix" result="effect1_dropShadow_5168_56261"/>
<feBlend mode="normal" in="SourceGraphic" in2="effect1_dropShadow_5168_56261" result="shape"/>
</filter>
<filter id="filter4_d_5168_56261" x="277.197" y="208.161" width="231.561" height="125.94" filterUnits="userSpaceOnUse" color-interpolation-filters="sRGB">
<feFlood flood-opacity="0" result="BackgroundImageFix"/>
<feColorMatrix in="SourceAlpha" type="matrix" values="0 0 0 0 0 0 0 0 0 0 0 0 0 0 0 0 0 0 127 0" result="hardAlpha"/>
<feOffset dx="-5" dy="10"/>
<feGaussianBlur stdDeviation="25"/>
<feComposite in2="hardAlpha" operator="out"/>
<feColorMatrix type="matrix" values="0 0 0 0 0 0 0 0 0 0.141176 0 0 0 0 0.282353 0 0 0 0.12 0"/>
<feBlend mode="normal" in2="BackgroundImageFix" result="effect1_dropShadow_5168_56261"/>
<feBlend mode="normal" in="SourceGraphic" in2="effect1_dropShadow_5168_56261" result="shape"/>
</filter>
<filter id="filter5_d_5168_56261" x="277.197" y="241.159" width="231.561" height="125.94" filterUnits="userSpaceOnUse" color-interpolation-filters="sRGB">
<feFlood flood-opacity="0" result="BackgroundImageFix"/>
<feColorMatrix in="SourceAlpha" type="matrix" values="0 0 0 0 0 0 0 0 0 0 0 0 0 0 0 0 0 0 127 0" result="hardAlpha"/>
<feOffset dx="-5" dy="10"/>
<feGaussianBlur stdDeviation="25"/>
<feComposite in2="hardAlpha" operator="out"/>
<feColorMatrix type="matrix" values="0 0 0 0 0 0 0 0 0 0.141176 0 0 0 0 0.282353 0 0 0 0.12 0"/>
<feBlend mode="normal" in2="BackgroundImageFix" result="effect1_dropShadow_5168_56261"/>
<feBlend mode="normal" in="SourceGraphic" in2="effect1_dropShadow_5168_56261" result="shape"/>
</filter>
<filter id="filter6_d_5168_56261" x="277.197" y="274.28" width="231.561" height="125.94" filterUnits="userSpaceOnUse" color-interpolation-filters="sRGB">
<feFlood flood-opacity="0" result="BackgroundImageFix"/>
<feColorMatrix in="SourceAlpha" type="matrix" values="0 0 0 0 0 0 0 0 0 0 0 0 0 0 0 0 0 0 127 0" result="hardAlpha"/>
<feOffset dx="-5" dy="10"/>
<feGaussianBlur stdDeviation="25"/>
<feComposite in2="hardAlpha" operator="out"/>
<feColorMatrix type="matrix" values="0 0 0 0 0 0 0 0 0 0.141176 0 0 0 0 0.282353 0 0 0 0.12 0"/>
<feBlend mode="normal" in2="BackgroundImageFix" result="effect1_dropShadow_5168_56261"/>
<feBlend mode="normal" in="SourceGraphic" in2="effect1_dropShadow_5168_56261" result="shape"/>
</filter>
</defs>
</svg>
