<svg width="510" height="420" viewBox="0 0 510 420" fill="none" xmlns="http://www.w3.org/2000/svg">
<path opacity="0.2" d="M250.783 90.4763H182.436V129.782H250.783V90.4763Z" fill="black"/>
<path opacity="0.1" d="M250.783 129.78H182.436V169.086H250.783V129.78Z" fill="black"/>
<path opacity="0.2" d="M343.213 123.38H281.639C280.298 123.38 279.211 124.47 279.211 125.814V174.333C279.211 175.677 280.298 176.766 281.639 176.766H343.213C344.554 176.766 345.641 175.677 345.641 174.333V125.814C345.641 124.47 344.554 123.38 343.213 123.38Z" fill="#A4C340"/>
<path opacity="0.2" d="M231.56 109.733H163.213V149.039H231.56V109.733Z" fill="black"/>
<path opacity="0.1" d="M231.56 149.04H163.213V188.346H231.56V149.04Z" fill="black"/>
<path opacity="0.2" d="M325.517 50.722H245.351C243.606 50.722 242.191 52.1399 242.191 53.8891V117.054C242.191 118.803 243.606 120.221 245.351 120.221H325.517C327.262 120.221 328.676 118.803 328.676 117.054V53.8891C328.676 52.1399 327.262 50.722 325.517 50.722Z" fill="#A4C340"/>
<path opacity="0.2" d="M323.998 142.65H262.424C261.083 142.65 259.996 143.74 259.996 145.084V193.602C259.996 194.946 261.083 196.036 262.424 196.036H323.998C325.339 196.036 326.426 194.946 326.426 193.602V145.084C326.426 143.74 325.339 142.65 323.998 142.65Z" fill="#A4C340"/>
<g filter="url(#filter0_d_5168_56026)">
<path d="M333.675 40.2431H164.143C154.714 40.2431 150 40.2431 147.072 43.172C144.143 46.1009 144.143 50.815 144.143 60.2431V180.267C144.143 189.695 144.143 194.409 147.072 197.338C150 200.267 154.714 200.267 164.143 200.267H333.675C343.103 200.267 347.817 200.267 350.746 197.338C353.675 194.409 353.675 189.695 353.675 180.267V60.2431C353.675 50.815 353.675 46.1009 350.746 43.172C347.817 40.2431 343.103 40.2431 333.675 40.2431Z" fill="white"/>
</g>
<rect x="152.402" y="61.7667" width="48.6805" height="5.67139" fill="#EFF2F5"/>
<rect x="152.402" y="71.566" width="30.5737" height="2.5779" fill="#EFF2F5"/>
<rect x="152.402" y="87.2815" width="48.6805" height="5.67139" fill="#EFF2F5"/>
<rect x="152.402" y="97.0808" width="30.5737" height="2.5779" fill="#EFF2F5"/>
<rect x="152.402" y="112.797" width="48.6805" height="5.67139" fill="#EFF2F5"/>
<rect x="152.402" y="122.596" width="30.5737" height="2.5779" fill="#EFF2F5"/>
<path d="M213 50.2449H350.471V192.037C350.471 193.041 349.936 194.003 348.985 194.713C348.033 195.423 346.743 195.822 345.397 195.822H218.074C216.729 195.822 215.438 195.423 214.486 194.713C213.535 194.003 213 193.041 213 192.037V50.2449Z" fill="#EFF2F5"/>
<path d="M332 160C332 132.386 309.614 110 282 110C254.386 110 232 132.386 232 160" stroke="#50FF81" stroke-width="8" stroke-linecap="round"/>
<path d="M270.932 162.096C270.234 162.096 269.714 161.939 269.372 161.624C269.031 161.309 268.86 160.821 268.86 160.16V156.56H269.964V160.184C269.964 160.819 270.287 161.136 270.932 161.136C271.578 161.136 271.9 160.819 271.9 160.184V156.56H273.004V160.16C273.004 160.821 272.834 161.309 272.492 161.624C272.151 161.939 271.631 162.096 270.932 162.096ZM274.008 158H275.072V158.216C275.28 158.093 275.453 158.011 275.592 157.968C275.736 157.925 275.888 157.904 276.048 157.904C276.56 157.904 276.938 158.075 277.184 158.416C277.434 158.752 277.56 159.291 277.56 160.032C277.56 160.544 277.498 160.949 277.376 161.248C277.253 161.547 277.061 161.763 276.8 161.896C276.538 162.029 276.192 162.096 275.76 162.096C275.546 162.096 275.32 162.075 275.08 162.032V163.68H274.008V158ZM275.656 161.168C275.954 161.168 276.165 161.083 276.288 160.912C276.41 160.736 276.472 160.443 276.472 160.032C276.472 159.627 276.416 159.331 276.304 159.144C276.192 158.957 276.008 158.864 275.752 158.864C275.565 158.864 275.373 158.904 275.176 158.984L275.08 159.024V161.12C275.32 161.152 275.512 161.168 275.656 161.168ZM281.181 157.536H279.725V156.56H283.725V157.536H282.285V162H281.181V157.536ZM284.328 158H285.4V162H284.328V158ZM284.328 156.408H285.4V157.488H284.328V156.408ZM286.391 158H287.455V158.224C287.652 158.112 287.823 158.032 287.967 157.984C288.116 157.931 288.271 157.904 288.431 157.904C288.617 157.904 288.796 157.936 288.967 158C289.143 158.059 289.287 158.152 289.399 158.28C289.649 158.152 289.884 158.059 290.103 158C290.327 157.936 290.553 157.904 290.783 157.904C291.279 157.904 291.631 158.056 291.839 158.36C292.047 158.664 292.151 159.155 292.151 159.832V162H291.079V159.864C291.079 159.507 291.039 159.251 290.959 159.096C290.879 158.941 290.729 158.864 290.511 158.864C290.356 158.864 290.151 158.901 289.895 158.976L289.775 159.016C289.796 159.373 289.807 159.677 289.807 159.928V162H288.735V159.944C288.735 159.656 288.719 159.437 288.687 159.288C288.66 159.139 288.604 159.032 288.519 158.968C288.439 158.899 288.316 158.864 288.151 158.864C287.98 158.864 287.783 158.901 287.559 158.976L287.463 159.008V162H286.391V158ZM294.669 162.096C294.045 162.096 293.595 161.939 293.317 161.624C293.04 161.309 292.901 160.8 292.901 160.096C292.901 159.36 293.045 158.811 293.333 158.448C293.627 158.085 294.08 157.904 294.693 157.904C295.259 157.904 295.685 158.056 295.973 158.36C296.267 158.659 296.413 159.109 296.413 159.712L296.333 160.456H293.981C293.992 160.643 294.024 160.787 294.077 160.888C294.136 160.984 294.227 161.053 294.349 161.096C294.477 161.133 294.653 161.152 294.877 161.152C295.053 161.152 295.264 161.147 295.509 161.136C295.755 161.125 295.933 161.115 296.045 161.104L296.269 161.08L296.285 161.872C295.683 162.021 295.144 162.096 294.669 162.096ZM295.357 159.64C295.357 159.32 295.307 159.099 295.205 158.976C295.109 158.848 294.936 158.784 294.685 158.784C294.429 158.784 294.248 158.851 294.141 158.984C294.035 159.112 293.979 159.331 293.973 159.64H295.357Z" fill="#003959"/>
<path d="M265.6 136.92L262.74 138.76L261.48 136.7L265.84 133.8H268.36V147H265.6V136.92ZM276.791 147.2C275.058 147.2 273.771 146.66 272.931 145.58C272.091 144.487 271.671 142.747 271.671 140.36C271.671 137.973 272.091 136.24 272.931 135.16C273.771 134.067 275.058 133.52 276.791 133.52C278.525 133.52 279.811 134.067 280.651 135.16C281.491 136.24 281.911 137.973 281.911 140.36C281.911 142.747 281.491 144.487 280.651 145.58C279.811 146.66 278.525 147.2 276.791 147.2ZM276.791 144.8C277.338 144.8 277.778 144.66 278.111 144.38C278.445 144.087 278.685 143.62 278.831 142.98C278.991 142.327 279.071 141.453 279.071 140.36C279.071 139.267 278.991 138.4 278.831 137.76C278.685 137.107 278.445 136.64 278.111 136.36C277.778 136.067 277.338 135.92 276.791 135.92C276.245 135.92 275.805 136.067 275.471 136.36C275.138 136.64 274.891 137.107 274.731 137.76C274.585 138.4 274.511 139.267 274.511 140.36C274.511 141.453 274.585 142.327 274.731 142.98C274.891 143.62 275.138 144.087 275.471 144.38C275.805 144.66 276.245 144.8 276.791 144.8ZM287.983 147.2C286.249 147.2 284.963 146.66 284.123 145.58C283.283 144.487 282.863 142.747 282.863 140.36C282.863 137.973 283.283 136.24 284.123 135.16C284.963 134.067 286.249 133.52 287.983 133.52C289.716 133.52 291.003 134.067 291.843 135.16C292.683 136.24 293.103 137.973 293.103 140.36C293.103 142.747 292.683 144.487 291.843 145.58C291.003 146.66 289.716 147.2 287.983 147.2ZM287.983 144.8C288.529 144.8 288.969 144.66 289.303 144.38C289.636 144.087 289.876 143.62 290.023 142.98C290.183 142.327 290.263 141.453 290.263 140.36C290.263 139.267 290.183 138.4 290.023 137.76C289.876 137.107 289.636 136.64 289.303 136.36C288.969 136.067 288.529 135.92 287.983 135.92C287.436 135.92 286.996 136.067 286.663 136.36C286.329 136.64 286.083 137.107 285.923 137.76C285.776 138.4 285.703 139.267 285.703 140.36C285.703 141.453 285.776 142.327 285.923 142.98C286.083 143.62 286.329 144.087 286.663 144.38C286.996 144.66 287.436 144.8 287.983 144.8ZM296.074 147.16L300.774 133.02L302.234 133.54L297.534 147.64L296.074 147.16ZM296.254 139.38C294.654 139.38 293.854 138.407 293.854 136.46C293.854 134.527 294.654 133.56 296.254 133.56C297.854 133.56 298.654 134.527 298.654 136.46C298.654 138.407 297.854 139.38 296.254 139.38ZM296.254 137.78C296.548 137.78 296.694 137.34 296.694 136.46C296.694 135.593 296.548 135.16 296.254 135.16C295.961 135.16 295.814 135.593 295.814 136.46C295.814 137.34 295.961 137.78 296.254 137.78ZM302.094 147.24C300.494 147.24 299.694 146.267 299.694 144.32C299.694 142.387 300.494 141.42 302.094 141.42C303.694 141.42 304.494 142.387 304.494 144.32C304.494 146.267 303.694 147.24 302.094 147.24ZM302.094 145.64C302.388 145.64 302.534 145.2 302.534 144.32C302.534 143.453 302.388 143.02 302.094 143.02C301.801 143.02 301.654 143.453 301.654 144.32C301.654 145.2 301.801 145.64 302.094 145.64Z" fill="#00C7C7"/>
<path d="M220.131 64.3828L221.712 62.0279V61.9277H220.131V61.2596H222.636V61.9277L221.055 64.2771V64.3773H222.636V65.0453H220.131V64.3828ZM224.258 65.1122C223.824 65.1122 223.51 65.0027 223.317 64.7837C223.124 64.5647 223.028 64.2103 223.028 63.7203C223.028 63.2082 223.128 62.8259 223.328 62.5735C223.533 62.3211 223.848 62.1949 224.275 62.1949C224.668 62.1949 224.965 62.3007 225.166 62.5123C225.37 62.7201 225.472 63.0337 225.472 63.4531L225.416 63.9709H223.779C223.787 64.1008 223.809 64.201 223.846 64.2715C223.887 64.3383 223.95 64.3866 224.036 64.4163C224.125 64.4422 224.247 64.4552 224.403 64.4552C224.525 64.4552 224.672 64.4515 224.843 64.4441C225.014 64.4367 225.138 64.4292 225.216 64.4218L225.372 64.4051L225.383 64.9563C224.963 65.0602 224.589 65.1122 224.258 65.1122ZM224.737 63.403C224.737 63.1803 224.702 63.0263 224.631 62.9409C224.564 62.8519 224.444 62.8073 224.269 62.8073C224.091 62.8073 223.965 62.8537 223.891 62.9465C223.817 63.0356 223.778 63.1877 223.774 63.403H224.737ZM226.005 62.2617H226.745V62.5568C227.065 62.3712 227.362 62.2506 227.636 62.1949V62.9465C227.358 63.0022 227.1 63.0671 226.862 63.1414L226.751 63.1803V65.0453H226.005V62.2617ZM229.212 65.1122C228.793 65.1122 228.474 64.986 228.255 64.7336C228.039 64.4775 227.932 64.1156 227.932 63.648C227.932 63.184 228.039 62.8259 228.255 62.5735C228.474 62.3211 228.793 62.1949 229.212 62.1949C229.632 62.1949 229.949 62.3211 230.164 62.5735C230.383 62.8259 230.493 63.184 230.493 63.648C230.493 64.1156 230.383 64.4775 230.164 64.7336C229.949 64.986 229.632 65.1122 229.212 65.1122ZM229.212 64.4775C229.39 64.4775 229.522 64.4125 229.607 64.2826C229.693 64.1527 229.735 63.9412 229.735 63.648C229.735 63.3548 229.693 63.1451 229.607 63.0189C229.522 62.8927 229.39 62.8296 229.212 62.8296C229.034 62.8296 228.902 62.8927 228.817 63.0189C228.732 63.1451 228.689 63.3548 228.689 63.648C228.689 63.9412 228.732 64.1527 228.817 64.2826C228.902 64.4125 229.034 64.4775 229.212 64.4775ZM233.604 61.2596C234.035 61.2596 234.365 61.3209 234.595 61.4434C234.826 61.5621 234.985 61.7514 235.074 62.0112C235.167 62.271 235.213 62.631 235.213 63.0913C235.213 63.57 235.169 63.9486 235.08 64.227C234.991 64.5053 234.829 64.7113 234.595 64.8449C234.365 64.9785 234.035 65.0453 233.604 65.0453H232.33V61.2596H233.604ZM233.604 64.3773C233.846 64.3773 234.024 64.329 234.139 64.2325C234.258 64.136 234.334 63.9987 234.367 63.8206C234.404 63.6387 234.423 63.3807 234.423 63.0467C234.423 62.7498 234.404 62.5252 234.367 62.3731C234.33 62.2209 234.254 62.1096 234.139 62.039C234.024 61.9648 233.846 61.9277 233.604 61.9277H233.098V64.3773H233.604ZM236.949 65.1122C236.529 65.1122 236.21 64.986 235.991 64.7336C235.776 64.4775 235.668 64.1156 235.668 63.648C235.668 63.184 235.776 62.8259 235.991 62.5735C236.21 62.3211 236.529 62.1949 236.949 62.1949C237.368 62.1949 237.685 62.3211 237.901 62.5735C238.12 62.8259 238.229 63.184 238.229 63.648C238.229 64.1156 238.12 64.4775 237.901 64.7336C237.685 64.986 237.368 65.1122 236.949 65.1122ZM236.949 64.4775C237.127 64.4775 237.259 64.4125 237.344 64.2826C237.429 64.1527 237.472 63.9412 237.472 63.648C237.472 63.3548 237.429 63.1451 237.344 63.0189C237.259 62.8927 237.127 62.8296 236.949 62.8296C236.77 62.8296 236.639 62.8927 236.553 63.0189C236.468 63.1451 236.425 63.3548 236.425 63.648C236.425 63.9412 236.468 64.1527 236.553 64.2826C236.639 64.4125 236.77 64.4775 236.949 64.4775ZM238.564 62.2617H239.299L239.639 64.4107H239.772L240.196 62.3174H240.964L241.387 64.4107H241.521L241.86 62.2617H242.595L242.066 65.0453H240.897L240.58 63.3418L240.262 65.0453H239.093L238.564 62.2617ZM243.076 62.2617H243.817V62.4176C243.958 62.336 244.082 62.2784 244.19 62.245C244.301 62.2116 244.42 62.1949 244.546 62.1949C244.888 62.1949 245.131 62.3044 245.275 62.5234C245.42 62.7424 245.493 63.0801 245.493 63.5366V65.0453H244.747V63.5589C244.747 63.3028 244.715 63.1228 244.652 63.0189C244.593 62.915 244.478 62.863 244.307 62.863C244.184 62.863 244.045 62.889 243.889 62.9409L243.822 62.9632V65.0453H243.076V62.2617ZM247.1 65.1122C246.885 65.1122 246.718 65.0788 246.599 65.0119C246.48 64.9451 246.395 64.8357 246.343 64.6835C246.291 64.5313 246.265 64.3216 246.265 64.0544V62.8964H245.936V62.2617H246.265V61.4879H247.011V62.2617H247.696V62.8964H247.011V64.0377C247.011 64.1824 247.024 64.2882 247.05 64.355C247.076 64.4181 247.141 64.4478 247.245 64.4441L247.668 64.433L247.701 65.0286C247.553 65.0621 247.436 65.0843 247.351 65.0955C247.269 65.1066 247.185 65.1122 247.1 65.1122ZM248.182 62.2617H248.928V65.0453H248.182V62.2617ZM248.182 61.1539H248.928V61.9054H248.182V61.1539ZM249.617 62.2617H250.357V62.4176C250.495 62.3397 250.613 62.284 250.714 62.2506C250.817 62.2135 250.925 62.1949 251.036 62.1949C251.166 62.1949 251.291 62.2172 251.409 62.2617C251.532 62.3026 251.632 62.3675 251.71 62.4566C251.885 62.3675 252.048 62.3026 252.2 62.2617C252.356 62.2172 252.514 62.1949 252.673 62.1949C253.018 62.1949 253.263 62.3007 253.408 62.5123C253.553 62.7238 253.625 63.0653 253.625 63.5366V65.0453H252.879V63.5589C252.879 63.3102 252.851 63.1321 252.796 63.0244C252.74 62.9168 252.636 62.863 252.484 62.863C252.376 62.863 252.233 62.889 252.055 62.9409L251.972 62.9688C251.987 63.2174 251.994 63.429 251.994 63.6034V65.0453H251.248V63.6146C251.248 63.4142 251.237 63.262 251.215 63.1581C251.196 63.0541 251.157 62.9799 251.098 62.9354C251.042 62.8871 250.957 62.863 250.842 62.863C250.723 62.863 250.586 62.889 250.43 62.9409L250.363 62.9632V65.0453H249.617V62.2617ZM255.378 65.1122C254.944 65.1122 254.63 65.0027 254.437 64.7837C254.244 64.5647 254.148 64.2103 254.148 63.7203C254.148 63.2082 254.248 62.8259 254.448 62.5735C254.653 62.3211 254.968 62.1949 255.395 62.1949C255.788 62.1949 256.085 62.3007 256.286 62.5123C256.49 62.7201 256.592 63.0337 256.592 63.4531L256.536 63.9709H254.899C254.907 64.1008 254.929 64.201 254.966 64.2715C255.007 64.3383 255.07 64.3866 255.155 64.4163C255.245 64.4422 255.367 64.4552 255.523 64.4552C255.645 64.4552 255.792 64.4515 255.963 64.4441C256.133 64.4367 256.258 64.4292 256.336 64.4218L256.492 64.4051L256.503 64.9563C256.083 65.0602 255.708 65.1122 255.378 65.1122ZM255.857 63.403C255.857 63.1803 255.822 63.0263 255.751 62.9409C255.684 62.8519 255.564 62.8073 255.389 62.8073C255.211 62.8073 255.085 62.8537 255.011 62.9465C254.937 63.0356 254.898 63.1877 254.894 63.403H255.857Z" fill="#002448"/>
<path d="M220.236 78.4223V75.0056H220.637V76.1604C220.72 76.1222 220.83 76.0841 220.966 76.0459C221.103 76.0077 221.234 75.9886 221.358 75.9886C221.577 75.9886 221.746 76.0284 221.864 76.1079C221.981 76.1843 222.061 76.3083 222.102 76.4801C222.147 76.6519 222.169 76.8778 222.169 77.1577V78.4223H221.763V77.1768C221.763 76.9764 221.751 76.8158 221.725 76.6949C221.703 76.574 221.658 76.4865 221.592 76.4324C221.525 76.3783 221.42 76.3513 221.277 76.3513C221.162 76.3513 221.044 76.3672 220.924 76.399C220.806 76.4276 220.71 76.4563 220.637 76.4849V78.4223H220.236ZM223.601 78.4748C223.435 78.4748 223.303 78.4493 223.205 78.3984C223.106 78.3475 223.034 78.2601 222.99 78.136C222.949 78.0087 222.928 77.8306 222.928 77.6015V76.3847H222.599V76.0363H222.928V75.3206H223.334V76.0363H224.064V76.3847H223.334V77.487C223.334 77.6493 223.34 77.7765 223.353 77.8688C223.369 77.9578 223.399 78.0215 223.443 78.0596C223.491 78.0946 223.564 78.1121 223.663 78.1121C223.695 78.1121 223.734 78.1105 223.782 78.1074C223.833 78.1042 223.884 78.101 223.935 78.0978C223.989 78.0914 224.035 78.0867 224.073 78.0835L224.097 78.4223C224.027 78.4318 223.943 78.443 223.844 78.4557C223.749 78.4684 223.668 78.4748 223.601 78.4748ZM225.278 78.4748C225.113 78.4748 224.981 78.4493 224.882 78.3984C224.784 78.3475 224.712 78.2601 224.668 78.136C224.626 78.0087 224.606 77.8306 224.606 77.6015V76.3847H224.276V76.0363H224.606V75.3206H225.011V76.0363H225.741V76.3847H225.011V77.487C225.011 77.6493 225.018 77.7765 225.03 77.8688C225.046 77.9578 225.076 78.0215 225.121 78.0596C225.169 78.0946 225.242 78.1121 225.34 78.1121C225.372 78.1121 225.412 78.1105 225.46 78.1074C225.511 78.1042 225.562 78.101 225.612 78.0978C225.667 78.0914 225.713 78.0867 225.751 78.0835L225.775 78.4223C225.705 78.4318 225.62 78.443 225.522 78.4557C225.426 78.4684 225.345 78.4748 225.278 78.4748ZM226.169 79.4721V76.0363H226.569V76.2034C226.62 76.1716 226.684 76.1397 226.76 76.1079C226.837 76.0729 226.918 76.0443 227.004 76.022C227.093 75.9998 227.179 75.9886 227.261 75.9886C227.567 75.9886 227.79 76.0857 227.929 76.2797C228.069 76.4738 228.139 76.7808 228.139 77.2007C228.139 77.5125 228.103 77.7622 228.03 77.9499C227.96 78.1344 227.847 78.268 227.691 78.3507C227.538 78.4303 227.339 78.47 227.094 78.47C226.999 78.47 226.9 78.4637 226.799 78.4509C226.7 78.4382 226.624 78.4271 226.569 78.4175V79.4721H226.169ZM227.061 78.1169C227.23 78.1169 227.362 78.0867 227.457 78.0262C227.553 77.9626 227.619 77.864 227.657 77.7304C227.699 77.5936 227.72 77.417 227.72 77.2007C227.72 76.8889 227.673 76.6694 227.581 76.5422C227.489 76.4117 227.36 76.3465 227.195 76.3465C227.121 76.3465 227.045 76.3561 226.966 76.3752C226.889 76.3942 226.816 76.4165 226.746 76.442C226.676 76.4674 226.617 76.4944 226.569 76.5231V78.074C226.62 78.0803 226.692 78.0899 226.784 78.1026C226.88 78.1121 226.972 78.1169 227.061 78.1169ZM229.458 78.47C229.381 78.47 229.289 78.4652 229.181 78.4557C229.076 78.4462 228.973 78.435 228.871 78.4223C228.769 78.4064 228.678 78.3921 228.599 78.3794L228.623 78.0358C228.702 78.0453 228.791 78.0565 228.89 78.0692C228.992 78.0819 229.09 78.093 229.186 78.1026C229.281 78.1089 229.359 78.1121 229.42 78.1121C229.544 78.1121 229.647 78.101 229.73 78.0787C229.813 78.0565 229.875 78.0183 229.916 77.9642C229.96 77.9101 229.983 77.8322 229.983 77.7304C229.983 77.654 229.965 77.5952 229.93 77.5538C229.898 77.5125 229.838 77.4775 229.749 77.4488C229.663 77.4202 229.536 77.3948 229.367 77.3725C229.189 77.3438 229.039 77.3073 228.919 77.2627C228.801 77.2182 228.713 77.153 228.656 77.0671C228.602 76.9812 228.575 76.8587 228.575 76.6996C228.575 76.5183 228.616 76.3767 228.699 76.2749C228.782 76.17 228.89 76.0968 229.024 76.0554C229.157 76.0109 229.297 75.9886 229.443 75.9886C229.536 75.9886 229.636 75.9934 229.744 76.0029C229.852 76.0125 229.957 76.0252 230.059 76.0411C230.161 76.0538 230.248 76.0666 230.322 76.0793L230.312 76.4229C230.236 76.4101 230.145 76.399 230.04 76.3895C229.938 76.3767 229.836 76.3672 229.735 76.3608C229.633 76.3513 229.544 76.3465 229.467 76.3465C229.375 76.3465 229.292 76.3561 229.219 76.3752C229.146 76.3942 229.087 76.4292 229.043 76.4801C229.001 76.5279 228.981 76.5947 228.981 76.6806C228.981 76.7474 228.997 76.8014 229.028 76.8428C229.06 76.8842 229.119 76.9191 229.205 76.9478C229.291 76.9732 229.416 77.0003 229.582 77.0289C229.779 77.0607 229.937 77.1005 230.054 77.1482C230.175 77.1959 230.263 77.2643 230.317 77.3534C230.371 77.4393 230.398 77.5602 230.398 77.7161C230.398 77.9992 230.314 78.1964 230.145 78.3078C229.98 78.4159 229.75 78.47 229.458 78.47ZM230.903 76.9096V76.3322H231.347V76.9096H230.903ZM230.903 78.4223V77.8449H231.347V78.4223H230.903ZM232.175 78.5082L231.803 78.3841L233.153 75.0342L233.526 75.1631L232.175 78.5082ZM234.188 78.5082L233.816 78.3841L235.167 75.0342L235.539 75.1631L234.188 78.5082ZM236.373 78.4223L235.825 76.0363H236.24L236.683 78.074H236.765L237.299 76.0841H237.714L238.253 78.074H238.335L238.778 76.0363H239.189L238.64 78.4223H237.977L237.504 76.6185L237.032 78.4223H236.373ZM240.199 78.47C239.973 78.47 239.801 78.408 239.683 78.2839C239.569 78.1598 239.512 77.9769 239.512 77.7351C239.512 77.5761 239.539 77.4472 239.593 77.3486C239.65 77.25 239.734 77.1752 239.846 77.1243C239.96 77.0734 240.098 77.0416 240.261 77.0289L240.976 76.9573V76.7617C240.976 76.6058 240.941 76.496 240.872 76.4324C240.802 76.3688 240.7 76.337 240.566 76.337C240.483 76.337 240.386 76.3402 240.275 76.3465C240.167 76.3529 240.057 76.3608 239.946 76.3704C239.838 76.3799 239.742 76.3895 239.659 76.399L239.64 76.0936C239.717 76.0777 239.809 76.0618 239.917 76.0459C240.028 76.03 240.143 76.0173 240.261 76.0077C240.382 75.995 240.491 75.9886 240.59 75.9886C240.774 75.9886 240.926 76.0157 241.043 76.0697C241.161 76.1238 241.247 76.2081 241.301 76.3227C241.358 76.434 241.387 76.5788 241.387 76.7569V77.9499C241.393 78.0167 241.42 78.066 241.468 78.0978C241.516 78.1264 241.576 78.1455 241.649 78.1551L241.635 78.47C241.565 78.47 241.5 78.4652 241.439 78.4557C241.379 78.4493 241.325 78.4398 241.277 78.4271C241.229 78.4112 241.186 78.3921 241.148 78.3698C241.11 78.3444 241.074 78.3157 241.039 78.2839C240.978 78.3094 240.902 78.3364 240.809 78.365C240.717 78.3937 240.619 78.4175 240.514 78.4366C240.409 78.4589 240.304 78.47 240.199 78.47ZM240.27 78.136C240.353 78.136 240.439 78.1296 240.528 78.1169C240.617 78.101 240.701 78.0819 240.781 78.0596C240.86 78.0374 240.926 78.0167 240.976 77.9976V77.2532L240.313 77.3152C240.176 77.3279 240.078 77.3693 240.017 77.4393C239.957 77.5061 239.927 77.6015 239.927 77.7256C239.927 77.8529 239.955 77.9531 240.013 78.0262C240.073 78.0994 240.159 78.136 240.27 78.136ZM242.832 78.47C242.734 78.47 242.641 78.4589 242.555 78.4366C242.47 78.4175 242.39 78.3825 242.317 78.3316C242.247 78.2776 242.185 78.2044 242.131 78.1121C242.077 78.0199 242.035 77.9038 242.007 77.7638C241.978 77.6206 241.964 77.4488 241.964 77.2484C241.964 76.9653 241.997 76.7315 242.064 76.5469C242.131 76.3592 242.237 76.2193 242.384 76.127C242.533 76.0348 242.729 75.9886 242.971 75.9886C243.06 75.9886 243.16 75.995 243.271 76.0077C243.386 76.0204 243.475 76.0332 243.538 76.0459V75.0056H243.944V78.4223H243.543V78.2696C243.492 78.2951 243.427 78.3237 243.348 78.3555C243.268 78.3873 243.184 78.4143 243.095 78.4366C243.006 78.4589 242.918 78.47 242.832 78.47ZM242.894 78.1074C242.974 78.1074 243.053 78.0994 243.133 78.0835C243.216 78.0644 243.292 78.0421 243.362 78.0167C243.432 77.9912 243.491 77.9674 243.538 77.9451V76.3895C243.5 76.3831 243.449 76.3767 243.386 76.3704C243.322 76.3608 243.255 76.3545 243.185 76.3513C243.119 76.3449 243.056 76.3417 242.999 76.3417C242.843 76.3417 242.721 76.3752 242.632 76.442C242.543 76.5088 242.479 76.6106 242.441 76.7474C242.403 76.881 242.384 77.048 242.384 77.2484C242.384 77.4297 242.396 77.5777 242.422 77.6922C242.45 77.8035 242.489 77.8894 242.536 77.9499C242.584 78.0103 242.638 78.0517 242.699 78.074C242.762 78.0962 242.827 78.1074 242.894 78.1074ZM244.613 78.4223V76.0363H245.014V78.4223H244.613ZM244.613 75.5305V75.0867H245.014V75.5305H244.613ZM245.657 77.3009V76.9287H247.102V77.3009H245.657ZM248.275 78.47C248.049 78.47 247.877 78.408 247.759 78.2839C247.645 78.1598 247.587 77.9769 247.587 77.7351C247.587 77.5761 247.614 77.4472 247.669 77.3486C247.726 77.25 247.81 77.1752 247.921 77.1243C248.036 77.0734 248.174 77.0416 248.337 77.0289L249.052 76.9573V76.7617C249.052 76.6058 249.017 76.496 248.947 76.4324C248.877 76.3688 248.776 76.337 248.642 76.337C248.559 76.337 248.462 76.3402 248.351 76.3465C248.243 76.3529 248.133 76.3608 248.022 76.3704C247.913 76.3799 247.818 76.3895 247.735 76.399L247.716 76.0936C247.793 76.0777 247.885 76.0618 247.993 76.0459C248.104 76.03 248.219 76.0173 248.337 76.0077C248.457 75.995 248.567 75.9886 248.666 75.9886C248.85 75.9886 249.001 76.0157 249.119 76.0697C249.237 76.1238 249.323 76.2081 249.377 76.3227C249.434 76.434 249.463 76.5788 249.463 76.7569V77.9499C249.469 78.0167 249.496 78.066 249.544 78.0978C249.592 78.1264 249.652 78.1455 249.725 78.1551L249.711 78.47C249.641 78.47 249.576 78.4652 249.515 78.4557C249.455 78.4493 249.401 78.4398 249.353 78.4271C249.305 78.4112 249.262 78.3921 249.224 78.3698C249.186 78.3444 249.149 78.3157 249.114 78.2839C249.054 78.3094 248.978 78.3364 248.885 78.365C248.793 78.3937 248.694 78.4175 248.59 78.4366C248.485 78.4589 248.38 78.47 248.275 78.47ZM248.346 78.136C248.429 78.136 248.515 78.1296 248.604 78.1169C248.693 78.101 248.777 78.0819 248.857 78.0596C248.936 78.0374 249.001 78.0167 249.052 77.9976V77.2532L248.389 77.3152C248.252 77.3279 248.154 77.3693 248.093 77.4393C248.033 77.5061 248.003 77.6015 248.003 77.7256C248.003 77.8529 248.031 77.9531 248.088 78.0262C248.149 78.0994 248.235 78.136 248.346 78.136ZM250.173 78.4223V75.0056H250.579V78.4223H250.173ZM251.249 77.3009V76.9287H252.694V77.3009H251.249ZM254.153 78.47C254.083 78.47 253.997 78.4668 253.895 78.4605C253.797 78.4573 253.696 78.4509 253.595 78.4414C253.493 78.4318 253.404 78.4239 253.327 78.4175V75.0056H253.733V76.1461C253.809 76.1111 253.911 76.0761 254.038 76.0411C254.169 76.0061 254.293 75.9886 254.411 75.9886C254.63 75.9886 254.804 76.03 254.931 76.1127C255.061 76.1922 255.153 76.3211 255.208 76.4992C255.265 76.6774 255.293 76.908 255.293 77.1911C255.293 77.5093 255.258 77.7622 255.188 77.9499C255.122 78.1344 255.006 78.268 254.84 78.3507C254.675 78.4303 254.446 78.47 254.153 78.47ZM254.148 78.1074C254.358 78.1074 254.514 78.0755 254.616 78.0119C254.718 77.9483 254.786 77.8497 254.821 77.7161C254.856 77.5793 254.874 77.4043 254.874 77.1911C254.874 76.9939 254.858 76.8333 254.826 76.7092C254.797 76.5851 254.745 76.4944 254.668 76.4372C254.592 76.3767 254.489 76.3465 254.358 76.3465C254.247 76.3465 254.132 76.3624 254.015 76.3942C253.9 76.4229 253.806 76.4499 253.733 76.4754V78.0835C253.8 78.0899 253.875 78.0962 253.957 78.1026C254.043 78.1058 254.107 78.1074 254.148 78.1074ZM256.392 78.47C256.167 78.47 255.995 78.408 255.877 78.2839C255.763 78.1598 255.705 77.9769 255.705 77.7351C255.705 77.5761 255.732 77.4472 255.786 77.3486C255.844 77.25 255.928 77.1752 256.039 77.1243C256.154 77.0734 256.292 77.0416 256.454 77.0289L257.17 76.9573V76.7617C257.17 76.6058 257.135 76.496 257.065 76.4324C256.995 76.3688 256.893 76.337 256.76 76.337C256.677 76.337 256.58 76.3402 256.469 76.3465C256.361 76.3529 256.251 76.3608 256.14 76.3704C256.031 76.3799 255.936 76.3895 255.853 76.399L255.834 76.0936C255.91 76.0777 256.003 76.0618 256.111 76.0459C256.222 76.03 256.337 76.0173 256.454 76.0077C256.575 75.995 256.685 75.9886 256.784 75.9886C256.968 75.9886 257.119 76.0157 257.237 76.0697C257.355 76.1238 257.441 76.2081 257.495 76.3227C257.552 76.434 257.581 76.5788 257.581 76.7569V77.9499C257.587 78.0167 257.614 78.066 257.662 78.0978C257.709 78.1264 257.77 78.1455 257.843 78.1551L257.829 78.47C257.759 78.47 257.694 78.4652 257.633 78.4557C257.573 78.4493 257.519 78.4398 257.471 78.4271C257.423 78.4112 257.38 78.3921 257.342 78.3698C257.304 78.3444 257.267 78.3157 257.232 78.2839C257.172 78.3094 257.095 78.3364 257.003 78.365C256.911 78.3937 256.812 78.4175 256.707 78.4366C256.602 78.4589 256.497 78.47 256.392 78.47ZM256.464 78.136C256.547 78.136 256.633 78.1296 256.722 78.1169C256.811 78.101 256.895 78.0819 256.975 78.0596C257.054 78.0374 257.119 78.0167 257.17 77.9976V77.2532L256.507 77.3152C256.37 77.3279 256.272 77.3693 256.211 77.4393C256.151 77.5061 256.12 77.6015 256.12 77.7256C256.12 77.8529 256.149 77.9531 256.206 78.0262C256.267 78.0994 256.353 78.136 256.464 78.136ZM259.026 78.47C258.927 78.47 258.835 78.4589 258.749 78.4366C258.663 78.4175 258.584 78.3825 258.511 78.3316C258.441 78.2776 258.379 78.2044 258.324 78.1121C258.27 78.0199 258.229 77.9038 258.2 77.7638C258.172 77.6206 258.157 77.4488 258.157 77.2484C258.157 76.9653 258.191 76.7315 258.258 76.5469C258.324 76.3592 258.431 76.2193 258.577 76.127C258.727 76.0348 258.923 75.9886 259.164 75.9886C259.253 75.9886 259.354 75.995 259.465 76.0077C259.579 76.0204 259.669 76.0332 259.732 76.0459V75.0056H260.138V78.4223H259.737V78.2696C259.686 78.2951 259.621 78.3237 259.541 78.3555C259.462 78.3873 259.377 78.4143 259.288 78.4366C259.199 78.4589 259.112 78.47 259.026 78.47ZM259.088 78.1074C259.168 78.1074 259.247 78.0994 259.327 78.0835C259.409 78.0644 259.486 78.0421 259.556 78.0167C259.626 77.9912 259.684 77.9674 259.732 77.9451V76.3895C259.694 76.3831 259.643 76.3767 259.579 76.3704C259.516 76.3608 259.449 76.3545 259.379 76.3513C259.312 76.3449 259.25 76.3417 259.193 76.3417C259.037 76.3417 258.915 76.3752 258.826 76.442C258.736 76.5088 258.673 76.6106 258.635 76.7474C258.596 76.881 258.577 77.048 258.577 77.2484C258.577 77.4297 258.59 77.5777 258.616 77.6922C258.644 77.8035 258.682 77.8894 258.73 77.9499C258.778 78.0103 258.832 78.0517 258.892 78.074C258.956 78.0962 259.021 78.1074 259.088 78.1074ZM261.341 78.47C261.116 78.47 260.944 78.408 260.826 78.2839C260.712 78.1598 260.654 77.9769 260.654 77.7351C260.654 77.5761 260.681 77.4472 260.735 77.3486C260.793 77.25 260.877 77.1752 260.988 77.1243C261.103 77.0734 261.241 77.0416 261.403 77.0289L262.119 76.9573V76.7617C262.119 76.6058 262.084 76.496 262.014 76.4324C261.944 76.3688 261.842 76.337 261.709 76.337C261.626 76.337 261.529 76.3402 261.418 76.3465C261.31 76.3529 261.2 76.3608 261.088 76.3704C260.98 76.3799 260.885 76.3895 260.802 76.399L260.783 76.0936C260.859 76.0777 260.952 76.0618 261.06 76.0459C261.171 76.03 261.286 76.0173 261.403 76.0077C261.524 75.995 261.634 75.9886 261.733 75.9886C261.917 75.9886 262.068 76.0157 262.186 76.0697C262.304 76.1238 262.39 76.2081 262.444 76.3227C262.501 76.434 262.53 76.5788 262.53 76.7569V77.9499C262.536 78.0167 262.563 78.066 262.611 78.0978C262.658 78.1264 262.719 78.1455 262.792 78.1551L262.778 78.47C262.708 78.47 262.643 78.4652 262.582 78.4557C262.522 78.4493 262.468 78.4398 262.42 78.4271C262.372 78.4112 262.329 78.3921 262.291 78.3698C262.253 78.3444 262.216 78.3157 262.181 78.2839C262.121 78.3094 262.044 78.3364 261.952 78.365C261.86 78.3937 261.761 78.4175 261.656 78.4366C261.551 78.4589 261.446 78.47 261.341 78.47ZM261.413 78.136C261.496 78.136 261.582 78.1296 261.671 78.1169C261.76 78.101 261.844 78.0819 261.924 78.0596C262.003 78.0374 262.068 78.0167 262.119 77.9976V77.2532L261.456 77.3152C261.319 77.3279 261.221 77.3693 261.16 77.4393C261.1 77.5061 261.069 77.6015 261.069 77.7256C261.069 77.8529 261.098 77.9531 261.155 78.0262C261.216 78.0994 261.302 78.136 261.413 78.136ZM263.192 78.4223V77.8449H263.631V78.4223H263.192ZM265.162 78.47C264.907 78.47 264.707 78.4287 264.56 78.346C264.417 78.2601 264.316 78.1233 264.255 77.9356C264.198 77.7479 264.169 77.4997 264.169 77.1911C264.169 76.9017 264.203 76.6678 264.269 76.4897C264.336 76.3115 264.443 76.1843 264.589 76.1079C264.739 76.0284 264.931 75.9886 265.167 75.9886C265.224 75.9886 265.292 75.9934 265.372 76.0029C265.451 76.0093 265.532 76.0188 265.615 76.0316C265.701 76.0411 265.774 76.0507 265.835 76.0602L265.82 76.3942C265.763 76.3879 265.699 76.3815 265.629 76.3752C265.559 76.3688 265.489 76.364 265.419 76.3608C265.353 76.3545 265.297 76.3513 265.252 76.3513C265.077 76.3513 264.941 76.3799 264.842 76.4372C264.747 76.4913 264.68 76.5788 264.642 76.6996C264.603 76.8205 264.584 76.9844 264.584 77.1911C264.584 77.417 264.6 77.5968 264.632 77.7304C264.667 77.864 264.732 77.961 264.828 78.0215C264.923 78.0787 265.065 78.1074 265.252 78.1074C265.297 78.1074 265.354 78.1058 265.424 78.1026C265.494 78.0962 265.564 78.0899 265.634 78.0835C265.707 78.0771 265.773 78.0724 265.83 78.0692L265.839 78.3984C265.776 78.4112 265.701 78.4223 265.615 78.4318C265.532 78.4414 265.45 78.4493 265.367 78.4557C265.287 78.4652 265.219 78.47 265.162 78.47ZM267.292 78.47C267.025 78.47 266.815 78.4239 266.662 78.3316C266.513 78.2394 266.408 78.101 266.347 77.9165C266.287 77.7288 266.257 77.4902 266.257 77.2007C266.257 76.9271 266.29 76.7012 266.357 76.5231C266.424 76.3417 266.534 76.2081 266.686 76.1222C266.839 76.0332 267.041 75.9886 267.292 75.9886C267.547 75.9886 267.75 76.0332 267.903 76.1222C268.056 76.2081 268.166 76.3417 268.232 76.5231C268.299 76.7012 268.333 76.9271 268.333 77.2007C268.333 77.4902 268.301 77.7288 268.237 77.9165C268.177 78.101 268.072 78.2394 267.922 78.3316C267.773 78.4239 267.563 78.47 267.292 78.47ZM267.292 78.1217C267.47 78.1217 267.604 78.0914 267.693 78.031C267.782 77.9674 267.841 77.8672 267.87 77.7304C267.898 77.5936 267.913 77.417 267.913 77.2007C267.913 76.9875 267.894 76.8173 267.855 76.6901C267.82 76.5628 267.758 76.4722 267.669 76.4181C267.58 76.364 267.455 76.337 267.292 76.337C267.133 76.337 267.008 76.364 266.915 76.4181C266.826 76.4722 266.763 76.5628 266.724 76.6901C266.689 76.8173 266.672 76.9875 266.672 77.2007C266.672 77.417 266.686 77.5936 266.715 77.7304C266.744 77.8672 266.802 77.9674 266.891 78.031C266.981 78.0914 267.114 78.1217 267.292 78.1217ZM268.897 78.4223V76.0363H269.298V76.1986C269.374 76.1541 269.477 76.1079 269.608 76.0602C269.738 76.0125 269.862 75.9886 269.98 75.9886C270.139 75.9886 270.266 76.0077 270.362 76.0459C270.457 76.0841 270.535 76.1445 270.596 76.2272C270.659 76.1922 270.737 76.1572 270.829 76.1222C270.922 76.0841 271.02 76.0523 271.125 76.0268C271.23 76.0014 271.334 75.9886 271.435 75.9886C271.655 75.9886 271.822 76.0268 271.937 76.1032C272.054 76.1763 272.135 76.3004 272.18 76.4754C272.228 76.6472 272.251 76.8762 272.251 77.1625V78.4223H271.846V77.1816C271.846 76.9812 271.833 76.8205 271.808 76.6996C271.785 76.5756 271.741 76.4865 271.674 76.4324C271.607 76.3783 271.505 76.3513 271.369 76.3513C271.245 76.3513 271.124 76.3704 271.006 76.4086C270.888 76.4435 270.798 76.4785 270.734 76.5135C270.753 76.5963 270.766 76.6981 270.772 76.8189C270.782 76.9366 270.787 77.0591 270.787 77.1864V78.4223H270.386V77.2007C270.386 76.9907 270.375 76.8237 270.352 76.6996C270.33 76.5756 270.284 76.4865 270.214 76.4324C270.147 76.3783 270.044 76.3513 269.904 76.3513C269.789 76.3513 269.675 76.3704 269.56 76.4086C269.449 76.4435 269.361 76.4785 269.298 76.5135V78.4223H268.897Z" fill="#015EA5"/>
<rect x="219.902" y="84.9108" width="98.0922" height="4.90238" rx="2.45119" fill="white"/>
<rect x="219.902" y="93.3814" width="59.1367" height="2.22836" rx="1.11418" fill="white"/>
<path d="M353.377 40H144V50.3904H353.377V40Z" fill="white"/>
<path d="M152.161 47.3136C153.324 47.3136 154.268 46.3683 154.268 45.2022C154.268 44.0361 153.324 43.0908 152.161 43.0908C150.998 43.0908 150.055 44.0361 150.055 45.2022C150.055 46.3683 150.998 47.3136 152.161 47.3136Z" fill="#37AC50"/>
<path d="M163.876 45.2022C163.878 45.6225 163.755 46.034 163.524 46.3845C163.293 46.735 162.963 47.0088 162.576 47.1711C162.189 47.3335 161.763 47.3771 161.352 47.2965C160.94 47.2158 160.562 47.0145 160.265 46.7181C159.968 46.4218 159.765 46.0436 159.682 45.6315C159.6 45.2195 159.641 44.7922 159.801 44.4037C159.961 44.0152 160.232 43.683 160.581 43.4493C160.929 43.2156 161.339 43.0908 161.758 43.0908C162.036 43.0893 162.311 43.1429 162.568 43.2483C162.824 43.3538 163.058 43.5091 163.255 43.7053C163.451 43.9015 163.608 44.1348 163.714 44.3917C163.821 44.6486 163.876 44.924 163.876 45.2022Z" fill="#FFC800"/>
<path d="M171.372 47.3136C172.535 47.3136 173.478 46.3683 173.478 45.2022C173.478 44.0361 172.535 43.0908 171.372 43.0908C170.209 43.0908 169.266 44.0361 169.266 45.2022C169.266 46.3683 170.209 47.3136 171.372 47.3136Z" fill="#FF3200"/>
<path d="M257.088 237.529L243.515 239.392L233.935 258.287L224.088 300.335L233.935 342.383L268.531 346.109L273.854 336.262L279.975 266.271L267.467 239.392L257.088 237.529Z" fill="#00B2B2"/>
<path d="M264.939 245.646L262.343 227.304L247.935 231.485L246.375 246.435C246.375 246.435 264.634 249.091 264.939 245.647V245.646Z" fill="#FABCC6"/>
<path d="M255.804 226.117C266.082 226.117 274.414 217.601 274.414 207.097C274.414 196.594 266.082 188.078 255.804 188.078C245.527 188.078 237.195 196.594 237.195 207.097C237.195 217.601 245.527 226.117 255.804 226.117Z" fill="#003959"/>
<path d="M255.023 196.766C256.131 206.382 270.709 201.345 270.709 214.305C276.515 214.358 275.327 223.872 270.25 223.678C269.067 229.425 263.87 236.273 256.56 236.555C249.712 236.82 243.689 231.205 241.418 223.229C234.677 223.733 234.399 213.869 240.502 214.711C241.083 204.885 245.733 197.332 255.025 196.768L255.023 196.766Z" fill="#FABCC6"/>
<path d="M256.43 223.885C256.106 223.885 255.824 223.648 255.779 223.319C255.764 223.219 255.433 220.826 255.477 218.285C255.54 214.566 256.351 212.539 257.955 212.094C261.114 211.214 265.903 211.973 266.106 212.005C266.465 212.064 266.707 212.402 266.651 212.759C266.593 213.118 266.252 213.363 265.897 213.305C265.85 213.297 261.189 212.558 258.31 213.361C257.396 213.615 256.844 215.418 256.795 218.308C256.753 220.747 257.08 223.112 257.084 223.137C257.135 223.496 256.883 223.829 256.524 223.879C256.494 223.883 256.462 223.885 256.432 223.885H256.43Z" fill="#003959"/>
<path d="M256.602 230.872C254.536 230.872 252.748 230.072 252.639 230.021C252.308 229.87 252.163 229.479 252.313 229.148C252.464 228.817 252.855 228.673 253.184 228.823C253.218 228.838 256.627 230.357 259.018 228.972C259.332 228.789 259.737 228.896 259.917 229.21C260.1 229.524 259.992 229.927 259.678 230.109C258.695 230.679 257.614 230.871 256.6 230.871L256.602 230.872Z" fill="#003959"/>
<path d="M262.932 220.584C262.8 220.584 262.667 220.579 262.535 220.566C260.17 220.346 258.78 218.223 258.722 218.133C258.525 217.826 258.615 217.42 258.919 217.222C259.224 217.027 259.63 217.113 259.828 217.418C259.843 217.442 260.946 219.101 262.665 219.255C263.876 219.364 265.151 218.714 266.459 217.324C266.709 217.059 267.125 217.048 267.39 217.296C267.655 217.546 267.666 217.961 267.418 218.227C265.942 219.791 264.436 220.583 262.932 220.583V220.584Z" fill="#003959"/>
<path d="M248.905 220.584C248.773 220.584 248.639 220.579 248.508 220.566C246.142 220.346 244.753 218.223 244.695 218.133C244.497 217.826 244.587 217.42 244.892 217.222C245.197 217.027 245.603 217.115 245.8 217.418C245.815 217.442 246.919 219.101 248.638 219.255C249.845 219.362 251.123 218.714 252.432 217.324C252.682 217.059 253.098 217.048 253.363 217.296C253.628 217.546 253.639 217.961 253.391 218.227C251.915 219.791 250.409 220.583 248.905 220.583V220.584Z" fill="#003959"/>
<path d="M252.913 212.986C252.839 212.986 252.764 212.973 252.691 212.946C252.64 212.928 247.498 211.113 245.057 212.862C244.762 213.074 244.35 213.006 244.139 212.709C243.927 212.414 243.995 212.002 244.292 211.792C247.293 209.641 252.901 211.623 253.138 211.707C253.481 211.829 253.657 212.207 253.535 212.55C253.439 212.818 253.185 212.986 252.917 212.986H252.913Z" fill="#003959"/>
<path d="M256.25 339.437L255.377 339.432C255.378 339.162 255.511 312.066 255.365 290.09C255.219 268.109 255.374 245.864 255.377 245.642L256.25 245.648C256.249 245.87 256.094 268.11 256.239 290.085C256.385 312.067 256.251 339.167 256.25 339.437Z" fill="black"/>
<path d="M260.386 296.424C260.319 297.069 259.742 297.537 259.097 297.47C258.452 297.402 257.984 296.826 258.051 296.181C258.119 295.535 258.695 295.067 259.341 295.135C259.986 295.202 260.454 295.779 260.386 296.424Z" fill="black"/>
<path d="M258.893 274.456C259.542 274.456 260.068 273.93 260.068 273.281C260.068 272.633 259.542 272.107 258.893 272.107C258.245 272.107 257.719 272.633 257.719 273.281C257.719 273.93 258.245 274.456 258.893 274.456Z" fill="black"/>
<path d="M260.386 321.467C260.319 322.113 259.742 322.581 259.097 322.513C258.452 322.446 257.984 321.869 258.051 321.224C258.119 320.579 258.695 320.111 259.341 320.178C259.986 320.246 260.454 320.822 260.386 321.467Z" fill="black"/>
<path d="M227.914 339.556C227.14 344.691 225.363 349.627 225.363 349.627C241.192 344.679 274.257 344.051 288.708 353.524C289.588 351.221 284.531 344.277 285.256 341.802C270.385 333.883 245.161 337.332 227.914 339.554V339.556Z" fill="black"/>
<path d="M288.941 354.245L288.447 353.922C281.984 349.685 271.006 347.1 257.536 346.643C245.831 346.246 233.558 347.564 225.504 350.082L224.592 350.367L224.915 349.468C224.933 349.419 226.685 344.514 227.442 339.486L227.496 339.131L228.846 338.957C237.344 337.86 247.919 336.494 258.059 336.395C269.984 336.277 278.952 337.91 285.478 341.384L285.82 341.566L285.711 341.937C285.402 342.992 286.485 345.365 287.44 347.46C288.586 349.972 289.666 352.344 289.152 353.693L288.941 354.245ZM253.393 345.622C254.788 345.622 256.183 345.645 257.57 345.692C270.784 346.14 281.66 348.631 288.335 352.724C288.261 351.549 287.375 349.605 286.576 347.854C285.553 345.609 284.581 343.477 284.725 342.061C278.369 338.773 269.643 337.231 258.07 337.344C247.986 337.443 237.443 338.804 228.97 339.899L228.328 339.981C227.733 343.703 226.637 347.296 226.109 348.906C233.261 346.823 243.335 345.624 253.391 345.624L253.393 345.622Z" fill="white"/>
<path d="M281.921 338C282.64 337.416 282.749 336.36 282.166 335.64C281.582 334.921 280.525 334.812 279.806 335.395C279.087 335.979 278.977 337.036 279.561 337.755C280.145 338.474 281.201 338.584 281.921 338Z" fill="white"/>
<path d="M278.803 351.782C279.523 351.198 279.632 350.141 279.048 349.422C278.465 348.703 277.408 348.593 276.689 349.177C275.97 349.761 275.86 350.817 276.444 351.537C277.028 352.256 278.084 352.365 278.803 351.782Z" fill="white"/>
<path d="M254.054 246.457L250.151 258.664L252.103 265.358L238.533 350.494L257.088 374.233L274.223 352.171L259.219 264.732L261.154 258.582L258.045 245.646L254.054 246.457Z" fill="#50FF81"/>
<path d="M259.166 264.315L252.049 264.941L252.125 265.812L259.243 265.185L259.166 264.315Z" fill="#003959"/>
<path d="M261.618 282.095L247.27 293.615L247.816 294.296L262.165 282.776L261.618 282.095Z" fill="#003959"/>
<path d="M265.495 302.485L243.219 319.102L243.741 319.802L266.017 303.185L265.495 302.485Z" fill="#003959"/>
<path d="M269.096 323.274L239.648 341.675L240.111 342.416L269.559 324.015L269.096 323.274Z" fill="#003959"/>
<path d="M274.037 340.994L247.215 361.605L247.747 362.298L274.569 341.687L274.037 340.994Z" fill="#003959"/>
<path d="M266.6 239.004C266.6 239.004 273.098 251.913 272.341 299.113C271.992 320.762 267.001 347.771 272.938 361.74C278.875 375.71 319.263 355.662 319.263 355.662C319.263 355.662 299.023 324.932 298.04 296.303C297.095 268.767 297.572 246.745 297.572 246.745L266.6 239.004Z" fill="#00C7C7"/>
<path d="M244.36 239.004C244.36 239.004 237.737 251.913 238.494 299.113C238.843 320.762 243.833 347.771 237.897 361.74C231.96 375.71 191.572 355.662 191.572 355.662C191.572 355.662 211.812 324.932 212.795 296.303C213.74 268.767 213.263 247.245 213.263 247.245L244.36 239.004Z" fill="#00C7C7"/>
<path d="M255.775 245.874C259.697 244.027 263.41 242.274 264.638 237.823L266.629 239.899C266.706 249.163 264.835 254.754 260.22 258.955L255.775 245.874Z" fill="#00B2B2"/>
<path d="M251.084 258.955C246.527 254.786 244.599 248.923 244.674 239.543L246.65 237.762C247.86 242.258 251.589 244.019 255.528 245.874L251.084 258.955Z" fill="#00B2B2"/>
<path d="M266.598 370.889C266.598 370.889 230.102 348.659 224.946 346.915C199.338 338.251 134.221 309.939 124.525 353.524C103.386 448.553 249.319 413.797 249.319 413.797C261.07 387.424 269.594 387.791 266.598 370.889Z" fill="#003959"/>
<path d="M214.775 370.029C196.821 369.16 161.787 365.702 161.436 365.667L161.522 364.797C161.874 364.832 196.886 368.288 214.817 369.157L214.775 370.029Z" fill="#00283F"/>
<path d="M161.73 357.187L161.213 357.892L173.286 366.757L173.803 366.053L161.73 357.187Z" fill="#00283F"/>
<path d="M273.278 355.008C273.278 355.008 390.523 288.771 393.855 366.688C397.199 444.864 242.367 409.412 242.367 409.412L273.278 355.006V355.008Z" fill="#003959"/>
<path d="M263.348 373.726L263.242 372.858L333.913 364.152L342.593 357.174L343.141 357.856L334.267 364.99L334.144 365.005L263.348 373.726Z" fill="#00283F"/>
<path d="M446.903 258.977C443.849 259.168 437.64 260.909 437.64 260.909C437.554 260.754 437.462 260.598 437.364 260.441C437.364 260.441 444.387 256.023 449.121 253.144C453.854 250.265 451.069 247.394 446.535 249.747C442.001 252.098 435.078 257.624 435.078 257.624C434.968 257.512 434.856 257.401 434.743 257.291C434.743 257.291 439.032 249.753 442.979 246.479C446.928 243.207 445.025 241.321 440.745 244.247C436.467 247.172 431.945 254.943 431.945 254.943C431.938 254.938 430.469 248.576 426.705 246.055C422.483 243.227 419.499 245.194 421.504 247.964C421.504 247.964 429.856 253.165 425.921 258.147C423.642 261.033 420.998 263.282 417.694 261.59C407.801 256.528 423.754 251.871 420.079 247.495C420.079 247.495 404.55 252.516 412.608 264.644C413.774 266.399 400.68 278.932 400.68 278.932L417.195 289.589L427.575 276.372C427.575 276.372 433.082 270.332 437.153 266.042C437.263 265.926 439.507 263.517 446.894 262.217C450.823 261.526 449.954 258.785 446.9 258.977H446.903Z" fill="#FABCC6"/>
<path d="M406.751 269.519C416.384 268.729 425.2 278.425 427.927 287.569C364.644 363.543 323.539 313.604 304.784 297.476C288.517 283.488 281.71 251.72 289.548 247.767C317.065 233.893 344.846 336.187 406.751 269.519Z" fill="#00C7C7"/>
<path d="M421.785 287.519C422.394 285.898 421.573 284.092 419.953 283.484C418.332 282.875 416.526 283.696 415.917 285.316C415.309 286.937 416.13 288.743 417.75 289.351C419.371 289.96 421.177 289.139 421.785 287.519Z" fill="white"/>
<path d="M60.6766 259.715C63.7305 259.906 69.9394 261.647 69.9394 261.647C70.0255 261.492 70.1179 261.336 70.2152 261.179C70.2152 261.179 63.1926 256.761 58.4588 253.882C53.7251 251.002 56.5106 248.132 61.0447 250.484C65.5788 252.837 72.5016 258.362 72.5016 258.362C72.6114 258.25 72.7238 258.139 72.8361 258.029C72.8361 258.029 68.5479 250.491 64.6004 247.217C60.6516 243.945 62.5548 242.059 66.8343 244.984C71.1126 247.91 75.6342 255.681 75.6342 255.681C75.6416 255.676 77.1106 249.314 80.8746 246.793C85.0967 243.965 88.0807 245.932 86.0752 248.702C86.0752 248.702 77.7234 253.903 81.6584 258.885C83.9373 261.77 86.5819 264.019 89.8854 262.328C99.7785 257.266 83.825 252.609 87.5004 248.233C87.5004 248.233 103.03 253.254 94.9711 265.382C93.8054 267.137 106.9 279.67 106.9 279.67L90.3846 290.326L80.0047 277.11C80.0047 277.11 74.4972 271.069 70.4261 266.78C70.3163 266.664 68.0724 264.255 60.6853 262.955C56.7565 262.263 57.6251 259.523 60.6791 259.715H60.6766Z" fill="#FABCC6"/>
<path d="M100.828 270.259C91.1953 269.469 82.3793 279.164 79.6523 288.309C142.935 364.282 186.344 316.648 205.1 300.519C221.367 286.532 229.094 251.745 221.285 247.735C196.865 235.198 162.733 336.927 100.828 270.257V270.259Z" fill="#00C7C7"/>
<path d="M91.8647 287.355C91.9824 285.628 90.678 284.133 88.9513 284.015C87.2245 283.898 85.7293 285.202 85.6116 286.929C85.4939 288.656 86.7982 290.151 88.525 290.268C90.2517 290.386 91.7469 289.082 91.8647 287.355Z" fill="white"/>
<path d="M228.361 375.547L266.858 392.638L274.647 370.772L243.722 357.719L228.361 375.547Z" fill="white"/>
<path d="M267.112 393.228L227.646 375.708L243.598 357.192L275.196 370.53L267.112 393.227V393.228ZM229.077 375.387L266.605 392.047L274.097 371.016L243.845 358.246L229.077 375.387Z" fill="black"/>
<path d="M225.625 343.615L223.525 347.447L219.491 344.903L180.912 353.005L182.538 360.004L250.184 347.556L248.363 339.438L225.625 343.615Z" fill="#00283F"/>
<path d="M182.537 360.003C182.537 360.003 183.38 373.74 202.796 371.902C219.849 370.288 232.224 377.152 232.224 377.152C232.224 377.152 231.112 369.624 239.375 366.403C248.168 362.973 256.056 362.923 256.056 362.923L250.185 347.554L182.538 360.002L182.537 360.003Z" fill="#00C7C7"/>
<path d="M219.103 373.116C219.006 373.116 218.907 373.099 218.81 373.061C218.396 372.899 218.191 372.432 218.352 372.018C219.466 369.161 219.821 366.021 219.375 362.937C219.312 362.497 219.617 362.089 220.058 362.025C220.498 361.96 220.907 362.267 220.97 362.708C221.456 366.066 221.069 369.488 219.853 372.605C219.728 372.923 219.425 373.118 219.102 373.118L219.103 373.116Z" fill="#00283F"/>
<path d="M212.67 372.691C212.572 372.691 212.474 372.674 212.376 372.636C211.962 372.474 211.757 372.007 211.918 371.593C213.034 368.736 213.387 365.596 212.942 362.512C212.878 362.072 213.184 361.664 213.624 361.6C214.065 361.535 214.473 361.842 214.537 362.283C215.022 365.641 214.635 369.063 213.42 372.18C213.295 372.498 212.992 372.693 212.668 372.693L212.67 372.691Z" fill="#00283F"/>
<path d="M207.027 372.396C206.93 372.396 206.831 372.378 206.734 372.341C206.319 372.179 206.115 371.712 206.276 371.298C207.391 368.441 207.745 365.301 207.299 362.217C207.235 361.776 207.541 361.368 207.982 361.305C208.422 361.24 208.83 361.547 208.894 361.987C209.379 365.346 208.993 368.768 207.777 371.884C207.652 372.202 207.349 372.397 207.026 372.397L207.027 372.396Z" fill="#00283F"/>
<path d="M212.107 385.817C211.931 385.817 211.76 385.804 211.594 385.778C210.714 385.642 209.527 385.066 208.873 383.095C208.305 381.381 208.493 379.771 209.431 378.311C212.864 372.969 225.566 371.529 226.105 371.47C226.42 371.434 226.729 371.591 226.889 371.866C227.048 372.141 227.032 372.485 226.845 372.743C226.82 372.777 224.354 376.182 221.332 379.448C217.377 383.724 214.351 385.815 212.106 385.815L212.107 385.817ZM224.37 373.349C223.122 373.556 221.391 373.89 219.566 374.387C215.046 375.62 212.01 377.279 210.786 379.182C210.115 380.227 209.989 381.341 210.402 382.587C210.883 384.037 211.601 384.148 211.839 384.184C212.792 384.333 215.141 383.768 220.149 378.353C221.855 376.507 223.38 374.62 224.369 373.347L224.37 373.349Z" fill="#00283F"/>
<path d="M218.423 390.951C217.643 390.951 216.677 390.635 215.655 389.552C214.413 388.237 213.901 386.697 214.132 384.974C214.976 378.674 225.843 371.978 226.305 371.696C226.577 371.53 226.921 371.54 227.183 371.721C227.445 371.902 227.576 372.22 227.516 372.533C227.508 372.575 226.721 376.711 225.374 380.956C223.474 386.951 221.47 390.181 219.251 390.831C219.009 390.902 218.731 390.951 218.423 390.951ZM225.544 374.126C222.536 376.2 216.291 380.974 215.728 385.187C215.564 386.423 215.922 387.489 216.825 388.445C217.874 389.554 218.569 389.351 218.797 389.283C221.522 388.484 224.197 380.229 225.543 374.125L225.544 374.126Z" fill="#00283F"/>
<path d="M276.126 393.441L249.83 405.2C247.155 390.347 244.115 385.627 238.531 382.769L264.027 373.011L276.126 393.44V393.441Z" fill="white"/>
<path d="M249.499 405.826L249.401 405.277C246.643 389.955 243.509 385.806 238.333 383.158L237.461 382.711L264.216 372.471L276.753 393.639L249.501 405.826H249.499ZM239.574 382.837C242.262 384.383 244.112 386.354 245.658 389.282C247.449 392.673 248.843 397.403 250.16 404.573L275.5 393.241L263.838 373.549L239.574 382.837Z" fill="black"/>
<path d="M284.531 360.25L286.416 364.648L291.081 362.303L332.275 375.216L329.761 382.673L257.346 361.946L260.19 353.289L284.531 360.25Z" fill="#00283F"/>
<path d="M329.759 382.673C329.759 382.673 327.387 397.557 306.417 393.499C288.001 389.934 272.666 394.986 272.666 394.986C272.666 394.986 275.796 388.02 267.131 383.634C257.908 378.965 249.316 378.077 249.316 378.077L257.342 361.946L329.758 382.674L329.759 382.673Z" fill="#00C7C7"/>
<path d="M288.601 393.101C288.216 393.101 287.862 392.846 287.752 392.458C286.756 388.932 286.697 385.162 287.581 381.553C287.697 381.08 288.175 380.789 288.648 380.906C289.121 381.022 289.411 381.5 289.294 381.973C288.483 385.287 288.536 388.748 289.449 391.979C289.582 392.448 289.309 392.935 288.84 393.067C288.76 393.089 288.679 393.101 288.599 393.101H288.601Z" fill="#00283F"/>
<path d="M295.657 393.318C295.273 393.318 294.918 393.064 294.809 392.675C293.813 389.15 293.754 385.379 294.638 381.77C294.754 381.297 295.232 381.006 295.705 381.124C296.178 381.24 296.467 381.718 296.351 382.191C295.54 385.504 295.592 388.965 296.506 392.196C296.638 392.665 296.366 393.152 295.897 393.284C295.817 393.307 295.736 393.318 295.656 393.318H295.657Z" fill="#00283F"/>
<path d="M301.839 393.594C301.454 393.594 301.1 393.339 300.99 392.951C299.994 389.426 299.936 385.655 300.819 382.046C300.935 381.573 301.413 381.284 301.886 381.4C302.359 381.516 302.649 381.994 302.533 382.467C301.722 385.78 301.774 389.241 302.688 392.472C302.82 392.941 302.548 393.428 302.078 393.56C301.999 393.583 301.917 393.594 301.838 393.594H301.839Z" fill="#00283F"/>
<path d="M295.161 407.698C292.659 407.698 289.466 405.098 285.414 399.763C282.466 395.881 280.137 391.91 280.115 391.87C279.939 391.569 279.956 391.193 280.16 390.911C280.363 390.627 280.715 390.491 281.056 390.562C281.637 390.683 295.33 393.596 298.506 399.783C299.374 401.474 299.408 403.249 298.608 405.056C298.246 405.873 297.791 406.511 297.253 406.95C296.7 407.402 296.063 407.652 295.358 407.692C295.293 407.695 295.226 407.696 295.16 407.696L295.161 407.698ZM282.749 392.793C283.694 394.288 285.161 396.514 286.828 398.708C291.708 405.131 294.206 405.992 295.26 405.931C295.522 405.916 296.317 405.871 296.994 404.342C297.577 403.026 297.557 401.8 296.936 400.589C295.803 398.381 292.661 396.25 287.853 394.425C285.923 393.692 284.081 393.148 282.749 392.793Z" fill="#00283F"/>
<path d="M287.674 412.623C287.289 412.623 286.89 412.553 286.479 412.387C284.129 411.443 282.287 407.711 280.851 400.977C279.832 396.206 279.413 391.615 279.408 391.569C279.377 391.222 279.553 390.889 279.857 390.719C280.162 390.549 280.537 390.576 280.817 390.785C281.291 391.142 292.429 399.59 292.681 406.547C292.749 408.45 292.028 410.075 290.537 411.375C289.828 411.994 288.823 412.623 287.675 412.623H287.674ZM281.401 393.525C281.621 395.283 282.001 397.925 282.578 400.624C284.265 408.52 286.158 410.358 287.136 410.751C287.378 410.849 288.114 411.144 289.375 410.046C290.46 409.099 290.965 407.976 290.915 406.612C290.825 404.132 288.895 400.872 285.332 397.184C283.896 395.698 282.457 394.416 281.4 393.525H281.401Z" fill="#00283F"/>
<path d="M410.15 148L408 145.85L422.6 131.3L430.95 139.65L443 127.6H436.65V124.6H448V135.95H445.05V129.8L430.9 143.95L422.55 135.6L410.15 148Z" fill="#BADDF0"/>
<path d="M78.65 148V145H85L72.95 132.95L64.6 141.3L50 126.75L52.15 124.6L64.55 137L72.9 128.65L87.05 142.8V136.65H90V148H78.65Z" fill="#BADDF0"/>
<defs>
<filter id="filter0_d_5168_56026" x="99.1426" y="0.243073" width="309.533" height="260.024" filterUnits="userSpaceOnUse" color-interpolation-filters="sRGB">
<feFlood flood-opacity="0" result="BackgroundImageFix"/>
<feColorMatrix in="SourceAlpha" type="matrix" values="0 0 0 0 0 0 0 0 0 0 0 0 0 0 0 0 0 0 127 0" result="hardAlpha"/>
<feOffset dx="5" dy="10"/>
<feGaussianBlur stdDeviation="25"/>
<feComposite in2="hardAlpha" operator="out"/>
<feColorMatrix type="matrix" values="0 0 0 0 0 0 0 0 0 0.141176 0 0 0 0 0.282353 0 0 0 0.07 0"/>
<feBlend mode="normal" in2="BackgroundImageFix" result="effect1_dropShadow_5168_56026"/>
<feBlend mode="normal" in="SourceGraphic" in2="effect1_dropShadow_5168_56026" result="shape"/>
</filter>
</defs>
</svg>
