<svg width="510" height="487" viewBox="0 0 510 487" fill="none" xmlns="http://www.w3.org/2000/svg">
<path d="M140.119 105.248C141.399 105.632 144.495 105.632 146.645 102.559" stroke="#003959" stroke-width="1.14911"/>
<path d="M143.054 11.7444C137.006 18.4625 140.686 116.484 142.701 161.287C143.22 172.825 153.522 181.476 164.954 179.896C217.549 172.631 271.214 174.558 325.777 184.206C337.941 186.357 349.001 176.768 348.6 164.415L343.799 16.8952C343.646 12.1999 340.358 8.19586 335.783 7.14785C298.567 -1.39545 158.027 -4.88986 143.054 11.7444Z" fill="#005280"/>
<path d="M183.186 42.4332C196.531 43.0703 209.889 43.4461 223.251 43.5576C227.052 43.5895 230.853 43.599 234.657 43.5895C236.236 43.5863 236.24 41.1303 234.657 41.1335C221.296 41.1686 207.935 40.9456 194.583 40.4582C190.785 40.3181 186.984 40.1588 183.189 39.9772C181.61 39.9008 181.613 42.3567 183.189 42.4332H183.186Z" fill="#73A7C3"/>
<path d="M166.243 30.9226C166.695 37.4718 166.383 44.0401 166.243 50.5957C166.23 51.2424 166.816 51.8476 167.469 51.8221C172.709 51.6278 177.943 52.5357 183.186 52.5484C183.848 52.5484 184.411 51.9846 184.411 51.322C184.411 44.5562 184.415 37.7904 184.431 31.0245C184.431 30.3588 183.867 29.8013 183.205 29.7981L167.469 29.6962C165.89 29.6866 165.886 32.1426 167.469 32.1522C172.715 32.1872 177.958 32.219 183.205 32.2541C182.797 31.8464 182.387 31.4354 181.979 31.0277C181.963 37.7935 181.96 44.5594 181.96 51.3252C182.368 50.9175 182.778 50.5066 183.186 50.0988C177.943 50.0829 172.712 49.1751 167.469 49.3725L168.694 50.5989C168.834 44.0433 169.146 37.475 168.694 30.9258C168.586 29.3585 166.132 29.3458 166.24 30.9258L166.243 30.9226Z" fill="#73A7C3"/>
<path d="M235.73 32.986C236.917 43.9503 236.911 55.0419 236.882 66.0539C236.851 78.1935 236.596 90.3364 236.742 102.479C236.812 108.324 236.965 114.173 237.443 119.999C237.535 121.108 239.14 121.802 239.729 120.62C239.869 120.343 239.633 120.521 239.025 121.152H238.372C237.446 120.865 237.815 120.728 237.554 120.362C237.567 120.378 237.564 120.41 237.57 120.429C237.596 120.486 237.573 120.569 237.605 120.627C237.449 120.337 237.58 120.391 237.599 120.633C237.611 120.779 237.624 120.923 237.637 121.069C237.694 121.792 237.732 122.519 237.767 123.245C237.873 125.417 237.946 127.593 238.019 129.769C238.165 134.168 238.248 138.576 238.519 142.969C238.557 143.609 238.563 144.297 238.707 144.925C238.945 145.986 240.458 146.642 241.056 145.441C241.76 144.03 239.643 142.788 238.936 144.202C238.796 144.479 239.031 144.301 239.639 143.67H240.292C241.218 143.957 240.849 144.094 241.11 144.46C241.097 144.444 241.101 144.412 241.094 144.393C241.069 144.336 241.091 144.25 241.059 144.195C241.215 144.485 241.085 144.431 241.066 144.189C241.053 144.043 241.04 143.899 241.027 143.753C240.97 143.03 240.932 142.303 240.897 141.577C240.792 139.405 240.719 137.229 240.645 135.053C240.499 130.654 240.416 126.246 240.146 121.853C240.107 121.213 240.101 120.525 239.958 119.897C239.719 118.836 238.207 118.18 237.608 119.381C238.369 119.588 239.133 119.795 239.894 120.002C238.993 109.003 239.108 97.9177 239.184 86.8898C239.267 74.7533 239.49 62.6136 239.2 50.4772C239.06 44.6383 238.808 38.7931 238.181 32.986C238.111 32.3266 237.669 31.7596 236.956 31.7596C236.348 31.7596 235.657 32.3235 235.73 32.986Z" fill="#73A7C3"/>
<path d="M200.657 42.5455C202.376 49.8942 202.764 57.4883 201.854 64.9804C201.774 65.6398 202.474 66.2068 203.079 66.2068C203.808 66.2068 204.225 65.6398 204.305 64.9804C205.241 57.2748 204.786 49.4514 203.019 41.8924C202.659 40.3539 200.294 41.0069 200.653 42.5455H200.657Z" fill="#73A7C3"/>
<path d="M190.013 67.9341C195.619 67.915 201.225 67.9436 206.828 67.9405C208.102 67.9405 209.391 67.8767 210.661 67.9405C211.155 67.9659 211.588 67.9882 211.689 68.5425C211.804 69.1828 211.693 69.925 211.68 70.5716C211.619 73.8685 211.559 77.1654 211.498 80.4624C211.906 80.0546 212.317 79.6437 212.724 79.236C205.243 79.5641 197.736 78.7996 190.271 79.5864C190.678 79.9941 191.089 80.405 191.496 80.8127C191.098 76.1174 191.633 71.4062 191.235 66.7109C191.105 65.1468 188.647 65.1341 188.781 66.7109C189.179 71.4062 188.644 76.1174 189.042 80.8127C189.093 81.418 189.564 82.1156 190.267 82.0391C197.733 81.2523 205.24 82.0168 212.721 81.6887C213.393 81.6601 213.934 81.1504 213.947 80.4624C213.998 77.6974 214.048 74.9325 214.099 72.1675C214.141 69.9664 214.777 66.6535 212.122 65.7266C211.12 65.3762 209.977 65.4845 208.929 65.4845C207.774 65.4845 206.615 65.4845 205.459 65.4845C202.96 65.4845 200.461 65.4781 197.959 65.4749C195.307 65.4718 192.655 65.4686 190.003 65.4749C188.424 65.4813 188.421 67.9341 190.003 67.9309L190.013 67.9341Z" fill="#73A7C3"/>
<path d="M234.658 43.5882C248.77 43.018 262.893 43.0977 277.008 42.8078C281.198 42.7218 285.387 42.6007 289.577 42.4287C291.15 42.365 291.159 39.9091 289.577 39.9728C275.464 40.543 261.342 40.4633 247.226 40.7532C243.037 40.8392 238.847 40.9603 234.658 41.1323C233.085 41.196 233.075 43.6519 234.658 43.5882Z" fill="#73A7C3"/>
<path d="M265.72 42.2192C266.468 50.1159 267.216 58.0126 267.965 65.906C268.111 67.4669 270.569 67.4796 270.419 65.906C269.671 58.0094 268.923 50.1127 268.178 42.2192C268.031 40.6584 265.574 40.6457 265.723 42.2192H265.72Z" fill="#73A7C3"/>
<path d="M258.218 68.8671C262.78 68.8512 267.342 68.8321 271.901 68.8162C273.041 68.813 274.18 68.8066 275.323 68.8034C275.989 68.8034 277.128 68.6282 277.619 69.2207C278.093 69.7909 278.214 70.9408 278.284 71.6321C278.389 72.6642 278.345 73.7058 278.325 74.741C278.306 75.7859 278.31 76.8243 278.45 77.8596C278.51 78.3183 278.545 78.8757 278.736 79.3026C278.758 79.3504 278.768 79.7135 278.889 79.5224C278.946 79.4332 278.695 79.5542 278.615 79.5638C276.546 79.7804 274.4 79.7199 272.324 79.6944C268.189 79.6434 263.968 79.4268 259.867 78.8598C258.896 78.726 258.629 78.3915 258.559 77.4136C258.482 76.2987 258.46 75.1711 258.441 74.053C258.403 71.9474 258.54 69.861 258.788 67.7713C258.868 67.112 258.167 66.545 257.562 66.545C256.833 66.545 256.413 67.112 256.337 67.7713C256.079 69.947 255.948 72.1163 255.996 74.3078C256.037 76.286 255.671 79.2293 257.48 80.564C258.307 81.1756 259.316 81.2584 260.31 81.3635C261.64 81.5005 262.968 81.6279 264.302 81.7394C266.686 81.9401 269.074 82.0866 271.468 82.1376C273.84 82.1886 276.259 82.2268 278.622 82.0229C279.621 81.9369 280.586 81.6184 281.041 80.6468C281.573 79.5128 280.926 78.2705 280.825 77.111C280.614 74.7315 281.038 72.3424 280.49 69.9884C280.264 69.0264 279.93 68.0198 279.198 67.3222C278.357 66.5195 277.167 66.3666 276.059 66.3475C270.118 66.2551 264.165 66.3889 258.221 66.4112C256.642 66.4175 256.639 68.8735 258.221 68.8671H258.218Z" fill="#73A7C3"/>
<path d="M287.792 27.4713C288.041 31.3767 288.124 35.2916 288.27 39.2032C288.337 41.0285 288.404 42.8537 288.506 44.679C288.563 45.7047 288.607 46.7559 289.028 47.7051C289.633 49.0621 290.887 49.6132 292.31 49.6833C295.245 49.8298 298.228 49.696 301.167 49.696C302.542 49.696 304.169 49.9126 305.493 49.4699C306.846 49.0175 307.476 47.7497 307.451 46.3832C307.425 44.9083 307.139 43.4207 307.056 41.9427C306.964 40.3054 306.926 38.6649 306.875 37.0244C306.821 35.3839 306.754 33.7466 306.594 32.1125C306.464 30.7555 306.403 29.2265 305.722 28.0065C304.949 26.624 303.506 26.1749 302.01 26.1335C300.495 26.0952 298.97 26.1558 297.455 26.1685C294.643 26.194 291.829 26.2163 289.018 26.2418C287.439 26.2545 287.436 28.7105 289.018 28.6977L295.694 28.6404C296.767 28.6308 297.84 28.6213 298.916 28.6117C300.106 28.6022 301.408 28.4397 302.583 28.6276C303.71 28.806 303.853 29.7935 303.99 30.7842C304.185 32.1667 304.27 33.5682 304.337 34.9635C304.477 37.8686 304.471 40.7832 304.723 43.6851C304.78 44.3573 304.863 45.023 304.939 45.692C304.977 46.0264 305.136 46.7208 304.907 47.0107C304.672 47.307 304.102 47.2305 303.767 47.2369C303.048 47.2464 302.325 47.2433 301.606 47.2433C299.002 47.2433 296.394 47.2241 293.79 47.2305C293.166 47.2305 292.447 47.3293 291.836 47.1764C291.364 47.0585 291.224 46.7336 291.116 46.2908C290.951 45.6123 290.96 44.8829 290.925 44.1884C290.839 42.5256 290.779 40.866 290.718 39.2032C290.572 35.2947 290.489 31.3767 290.241 27.4713C290.142 25.9009 287.687 25.8914 287.786 27.4713H287.792Z" fill="#73A7C3"/>
<path d="M247.242 121.045C242.553 121.045 237.86 121.016 233.177 120.809C228.507 120.605 223.859 120.169 219.182 120.08C213.722 119.978 208.256 120.127 202.812 120.532C200.087 120.736 197.324 120.921 194.624 121.344C193.526 121.516 192.488 121.943 191.801 122.848C191.107 123.759 190.925 124.896 190.839 126.011C190.358 132.213 190.107 138.44 189.744 144.649H192.198C192.218 143.999 192.24 143.349 192.259 142.699C192.31 141.119 189.855 141.119 189.804 142.699C189.785 143.349 189.763 143.999 189.744 144.649C189.693 146.235 192.106 146.216 192.198 144.649C192.51 139.32 192.822 133.99 193.138 128.664C193.204 127.537 193.16 126.339 193.399 125.23C193.628 124.16 194.261 123.864 195.28 123.711C197.875 123.326 200.523 123.154 203.137 122.962C208.263 122.59 213.407 122.443 218.545 122.523C223.168 122.593 227.755 122.991 232.368 123.224C237.322 123.475 242.292 123.498 247.248 123.498C248.827 123.498 248.831 121.042 247.248 121.042L247.242 121.045Z" fill="#73A7C3"/>
<path d="M239.849 123.501C250.161 124.055 260.482 124.447 270.806 124.67C273.305 124.724 275.804 124.768 278.307 124.8C280.15 124.826 281.789 125.246 283.104 126.622C284.483 128.062 284.747 130.094 285.142 131.971C285.661 134.43 286.068 136.914 286.348 139.415C286.501 140.772 286.574 142.132 286.702 143.492C286.797 144.537 287.138 145.716 288.306 145.996C291.028 146.649 290.636 141.667 288.08 143.014C286.682 143.75 287.921 145.872 289.318 145.136L289.417 145.085C289.21 145.142 289.003 145.196 288.796 145.254H288.879C288.672 145.2 288.465 145.142 288.258 145.088C287.685 144.661 287.644 144.218 288.131 143.76L288.752 143.591C289.57 143.597 289.08 144.031 289.156 143.499C289.182 143.323 289.127 143.056 289.115 142.871C289.076 142.294 289.029 141.721 288.978 141.145C288.873 139.995 288.745 138.848 288.593 137.701C288.303 135.51 287.937 133.331 287.478 131.171C287.084 129.311 286.746 127.39 285.606 125.819C284.626 124.469 283.295 123.459 281.735 122.873C279.924 122.188 277.928 122.347 276.027 122.319C273.745 122.284 271.462 122.239 269.179 122.185C264.614 122.08 260.052 121.94 255.49 121.768C250.275 121.573 245.064 121.331 239.856 121.051C238.277 120.965 238.283 123.421 239.856 123.507L239.849 123.501Z" fill="#73A7C3"/>
<path d="M181.434 148.592C189.151 147.776 196.91 147.369 204.671 147.388C204.805 147.388 205.314 147.467 205.422 147.394H205.528C205.301 147.139 205.225 147.114 205.292 147.311C205.203 147.413 205.432 148.407 205.451 148.595C205.553 149.56 205.633 150.525 205.693 151.491C205.754 152.459 205.792 153.427 205.811 154.396C205.817 154.826 205.824 155.256 205.82 155.689C205.82 155.756 205.766 156.24 205.817 156.336C205.766 156.642 205.836 156.619 206.027 156.269C205.957 156.288 205.887 156.304 205.814 156.323C205.397 156.307 204.897 156.473 204.487 156.536C204.009 156.61 203.531 156.68 203.051 156.75C202.096 156.887 201.141 157.008 200.182 157.123C198.263 157.349 196.337 157.537 194.411 157.686C190.017 158.021 185.614 158.142 181.208 158.062C181.603 158.362 181.998 158.664 182.393 158.964C181.641 155.75 181.52 152.414 182.081 149.159C181.578 149.446 181.075 149.729 180.572 150.016C180.846 150.102 181.122 150.188 181.396 150.277C182.905 150.755 183.552 148.385 182.049 147.91C181.775 147.824 181.498 147.738 181.224 147.649C180.635 147.464 179.824 147.869 179.715 148.506C179.075 152.214 179.168 155.953 180.027 159.617C180.152 160.145 180.686 160.509 181.212 160.518C185.614 160.598 190.02 160.477 194.414 160.142C196.556 159.98 198.696 159.766 200.825 159.502C201.895 159.371 202.962 159.228 204.025 159.072C205.018 158.929 206.276 158.932 207.173 158.438C207.902 158.037 208.211 157.345 208.265 156.543C208.345 155.409 208.272 154.243 208.227 153.109C208.151 151.035 208.119 148.805 207.68 146.77C207.177 144.438 204.537 144.926 202.726 144.938C200.571 144.951 198.415 144.999 196.26 145.078C191.307 145.26 186.359 145.617 181.428 146.139C180.769 146.209 180.202 146.652 180.202 147.366C180.202 147.974 180.766 148.662 181.428 148.592H181.434Z" fill="#73A7C3"/>
<path d="M227.039 147.996C234.469 149.755 241.916 147.611 249.346 147.047C248.951 146.748 248.556 146.445 248.162 146.146C248.69 149.716 249.222 153.284 249.75 156.855C250.145 156.336 250.54 155.82 250.935 155.3C245.608 155.794 240.257 156.043 234.909 156.027C233.607 156.024 232.298 156.027 230.996 155.963C230.292 155.928 228.659 155.918 228.363 155.16C228.175 154.683 228.29 153.918 228.277 153.402C228.261 152.762 228.261 152.125 228.277 151.484C228.315 150.105 228.43 148.726 228.634 147.359C228.733 146.7 228.468 146.047 227.777 145.849C227.201 145.684 226.364 146.05 226.268 146.706C225.845 149.567 225.511 152.692 225.96 155.568C226.424 158.521 230.372 158.419 232.639 158.457C238.745 158.559 244.854 158.317 250.935 157.753C251.797 157.674 252.243 157.037 252.119 156.199C251.59 152.628 251.059 149.06 250.53 145.489C250.457 144.996 249.833 144.55 249.346 144.588C242.183 145.129 234.848 147.318 227.691 145.623C226.157 145.26 225.501 147.627 227.039 147.99V147.996Z" fill="#73A7C3"/>
<path d="M274.702 147.641C275.001 149.014 275.297 150.387 275.596 151.76C275.746 152.445 275.895 153.133 276.045 153.818C276.172 154.404 276.284 155.015 276.701 155.474C277.586 156.455 279.241 156.162 280.429 156.165C281.785 156.169 283.141 156.165 284.497 156.159C290.084 156.127 295.672 155.987 301.255 155.751C301.854 155.726 302.57 155.207 302.481 154.525C302.083 151.41 301.615 148.307 301.061 145.214C300.797 143.739 300.237 142.726 298.556 142.79C297.053 142.847 295.544 143.032 294.045 143.15C287.815 143.647 281.581 144.144 275.351 144.644C273.788 144.768 273.775 147.224 275.351 147.1C280.938 146.654 286.525 146.208 292.112 145.762C293.51 145.65 294.904 145.539 296.302 145.427C296.945 145.376 297.591 145.322 298.234 145.274C298.422 145.259 298.607 145.243 298.795 145.236C298.575 144.975 298.495 144.94 298.559 145.134C298.476 145.3 298.718 145.998 298.753 146.192C299.243 148.96 299.67 151.741 300.027 154.531C300.434 154.124 300.845 153.713 301.252 153.305C296.213 153.518 291.167 153.652 286.121 153.7C284.873 153.713 283.625 153.719 282.377 153.719C281.728 153.719 281.075 153.719 280.426 153.719C280.155 153.719 279.884 153.719 279.611 153.716C279.369 153.716 278.843 153.601 278.633 153.709C278.436 153.662 278.414 153.716 278.566 153.872L278.512 153.646C278.503 153.34 278.372 152.999 278.305 152.696C278.168 152.063 278.028 151.429 277.891 150.795C277.614 149.527 277.341 148.259 277.064 146.995C276.729 145.453 274.361 146.106 274.698 147.648L274.702 147.641Z" fill="#73A7C3"/>
<path d="M227.951 32.7131C232.624 33.0125 237.31 33.0444 241.987 32.7896C243.114 32.729 244.244 32.6653 245.368 32.5538C246.371 32.4551 247.329 32.2003 247.905 31.2988C248.36 30.5884 248.475 29.7252 248.472 28.897C248.469 27.7216 248.38 26.5398 248.332 25.3675C248.239 23.1855 248.281 20.9462 248.045 18.7769C247.899 17.4263 246.791 17.2543 245.654 17.2829L242.105 17.3753C237.479 17.4964 232.853 17.5792 228.228 17.7385C227.056 17.7799 226.092 18.1844 225.993 19.4968C225.901 20.7359 226.047 22.0451 226.088 23.2843C226.178 26.0014 226.295 28.7154 226.448 31.4294C226.534 32.9998 228.989 33.0094 228.903 31.4294C228.759 28.8237 228.642 26.218 228.556 23.6092C228.533 22.9562 228.514 22.3063 228.495 21.6533C228.482 21.1723 228.629 20.3091 228.451 19.8599C228.482 19.4681 228.301 19.5828 227.909 20.2008L228.393 20.188C228.715 20.1785 229.04 20.1721 229.361 20.1626C230.007 20.1466 230.65 20.1275 231.297 20.1116C233.824 20.0447 236.352 19.981 238.88 19.9141C241.411 19.8472 244.012 19.5956 246.539 19.7325C246.333 19.6752 246.126 19.621 245.919 19.5637C245.865 19.5064 245.814 19.449 245.76 19.3917C245.702 19.1846 245.648 18.9776 245.591 18.7705C245.855 21.2615 245.814 23.8194 245.915 26.3232C245.957 27.3584 246.18 28.553 245.976 29.5755C245.893 29.9864 245.775 30.0437 245.368 30.0979C244.731 30.1807 244.079 30.1998 243.436 30.2444C238.281 30.5916 233.105 30.5884 227.951 30.2572C226.375 30.1552 226.381 32.6112 227.951 32.7131Z" fill="#73A7C3"/>
<path d="M509.994 145.098L509.679 298.705C509.653 311.679 495.235 319.433 484.411 312.288C416.85 267.695 335.663 225.386 273.594 217.872C258.765 216.075 247.438 203.78 247.1 188.837L244.076 55.753C243.796 43.3808 254.238 33.3977 266.568 34.3724C350.183 40.9918 425.064 73.8717 467.261 86.6357C492.934 94.4017 510.344 118.261 509.994 145.095V145.098Z" fill="#004368"/>
<path d="M311.42 74.4417C311.687 92.1335 312.2 109.822 312.732 127.508C313.266 145.34 313.798 163.172 314.1 181.01C314.285 191.869 314.387 202.728 314.387 213.587C314.387 215.693 317.66 215.696 317.66 213.587C317.66 194.666 317.338 175.748 316.848 156.836C316.393 139.348 315.807 121.863 315.339 104.375C315.071 94.3983 314.845 84.4216 314.696 74.4448C314.664 72.3393 311.391 72.3329 311.423 74.4448L311.42 74.4417Z" fill="#73A7C3"/>
<path d="M269.087 103.494C274.32 104.571 279.554 105.644 284.788 106.721C285.654 106.899 286.555 106.469 286.8 105.577C287.023 104.768 286.526 103.743 285.657 103.564C280.423 102.488 275.19 101.414 269.956 100.337C269.09 100.159 268.189 100.589 267.944 101.481C267.721 102.29 268.218 103.316 269.087 103.494Z" fill="#73A7C3"/>
<path d="M271.183 71.2812C273.991 71.5201 276.799 71.7877 279.559 72.3706C282.157 72.9185 284.688 73.7404 287.206 74.5686C289.212 75.2279 290.071 72.068 288.075 71.4118C285.493 70.5613 282.902 69.7235 280.237 69.1725C277.257 68.5577 274.214 68.2646 271.183 68.0066C270.301 67.9301 269.547 68.8125 269.547 69.6439C269.547 70.5931 270.298 71.2048 271.183 71.2812Z" fill="#73A7C3"/>
<path d="M338.178 82.4903C343.126 84.1531 348.136 85.6248 353.195 86.899C355.239 87.415 356.108 84.2582 354.064 83.7422C349.002 82.4648 343.995 80.9964 339.047 79.3336C337.048 78.6615 336.189 81.8214 338.178 82.4903Z" fill="#73A7C3"/>
<path d="M379.383 92.237C390.299 94.8841 401.165 97.7318 412.014 100.65C423.781 103.813 435.528 107.043 447.294 110.203C454.843 112.232 462.397 114.232 469.964 116.198C472.005 116.726 472.874 113.57 470.833 113.041C457.911 109.687 445.021 106.211 432.141 102.711C420.957 99.6717 409.773 96.6137 398.557 93.6927C392.47 92.1064 386.371 90.5614 380.255 89.0802C378.208 88.5833 377.336 91.74 379.386 92.237H379.383Z" fill="#73A7C3"/>
<path d="M284.114 123.211C286.212 123.513 288.317 123.8 290.399 124.192C291.994 124.491 293.576 124.851 295.168 125.173C296.034 125.348 296.935 124.921 297.18 124.029C297.403 123.22 296.906 122.191 296.037 122.016C294.448 121.691 292.863 121.334 291.268 121.035C289.186 120.643 287.081 120.353 284.984 120.054C284.111 119.93 283.226 120.271 282.972 121.197C282.761 121.965 283.233 123.083 284.114 123.211Z" fill="#73A7C3"/>
<path d="M284.116 139.242C285.106 139.433 286.1 139.592 287.099 139.729C287.631 139.802 288.159 139.869 288.691 139.939C288.888 139.965 289.086 139.99 289.28 140.016C289.376 140.029 289.474 140.041 289.57 140.054C289.331 140.022 289.496 140.044 289.64 140.064C291.528 140.337 293.358 140.78 295.166 141.389C296.004 141.672 296.956 141.064 297.178 140.245C297.424 139.35 296.876 138.515 296.036 138.232C294.23 137.624 292.397 137.174 290.509 136.907C289.598 136.776 288.682 136.668 287.768 136.547C287.949 136.572 287.835 136.556 287.723 136.54C287.612 136.525 287.504 136.509 287.392 136.493C287.163 136.461 286.934 136.426 286.701 136.388C286.125 136.298 285.552 136.196 284.982 136.085C284.116 135.919 283.215 136.327 282.97 137.229C282.751 138.028 283.241 139.076 284.113 139.242H284.116Z" fill="#73A7C3"/>
<path d="M269.898 88.7724C274.345 89.8427 278.84 90.7028 283.371 91.3494C284.243 91.4736 285.128 91.136 285.383 90.2058C285.593 89.4382 285.122 88.3169 284.24 88.1927C279.71 87.546 275.214 86.6859 270.767 85.6156C268.72 85.1219 267.848 88.2787 269.898 88.7724Z" fill="#73A7C3"/>
<path d="M269.602 162.326C273.958 163.489 278.402 164.263 282.891 164.674C283.772 164.754 284.527 163.865 284.527 163.037C284.527 162.084 283.776 161.482 282.891 161.399C278.695 161.014 274.543 160.256 270.472 159.166C268.434 158.622 267.565 161.778 269.602 162.323V162.326Z" fill="#73A7C3"/>
<path d="M270.129 148.307C274.589 148.912 278.931 150.237 283.417 150.655C284.299 150.737 285.053 149.842 285.053 149.017C285.053 148.065 284.302 147.463 283.417 147.38C283.15 147.354 282.879 147.329 282.611 147.297C282.497 147.284 282.379 147.268 282.264 147.256C281.978 147.221 282.471 147.288 282.191 147.246C281.701 147.176 281.211 147.096 280.724 147.004C279.788 146.832 278.858 146.628 277.928 146.424C275.633 145.921 273.331 145.465 271.001 145.147C270.126 145.029 269.244 145.357 268.989 146.29C268.779 147.055 269.25 148.186 270.132 148.304L270.129 148.307Z" fill="#73A7C3"/>
<path d="M285.938 181.788C285.957 181.788 286.486 181.861 286.136 181.813C286.257 181.829 286.378 181.845 286.499 181.861C286.737 181.893 286.979 181.928 287.218 181.96C287.61 182.014 288.001 182.068 288.393 182.125C288.979 182.208 289.564 182.297 290.15 182.38C291.961 182.638 293.779 182.858 295.6 183.068C296.453 183.167 297.272 182.243 297.237 181.431C297.192 180.459 296.514 179.899 295.6 179.793C294.537 179.669 293.474 179.545 292.41 179.408C292.242 179.386 292.07 179.363 291.901 179.341C291.809 179.328 291.713 179.319 291.621 179.303C291.72 179.319 292.019 179.357 291.748 179.319C291.455 179.277 291.159 179.236 290.866 179.195C289.224 178.959 287.584 178.723 285.938 178.507C285.085 178.392 284.267 179.341 284.302 180.144C284.346 181.128 285.025 181.66 285.938 181.781V181.788Z" fill="#73A7C3"/>
<path d="M273.33 197.119C277.895 197.8 282.448 198.587 286.978 199.473C287.844 199.642 288.745 199.227 288.99 198.329C289.21 197.526 288.719 196.485 287.847 196.316C283.317 195.427 278.764 194.644 274.199 193.962C273.327 193.831 272.442 194.182 272.187 195.105C271.974 195.876 272.451 196.988 273.33 197.119Z" fill="#73A7C3"/>
<path d="M335.884 101.748C340.857 103.121 345.829 104.491 350.805 105.864C352.84 106.425 353.705 103.268 351.674 102.707C346.702 101.334 341.729 99.9645 336.753 98.5916C334.719 98.0309 333.853 101.188 335.884 101.748Z" fill="#73A7C3"/>
<path d="M374.376 110.472C383.955 113.67 393.738 116.123 403.394 119.063C405.412 119.678 406.275 116.518 404.263 115.906C394.607 112.966 384.824 110.513 375.245 107.315C373.243 106.646 372.383 109.806 374.376 110.472Z" fill="#73A7C3"/>
<path d="M426.714 127.501C442.345 131.626 457.858 136.201 473.225 141.224C477.574 142.645 481.907 144.104 486.23 145.594C487.064 145.881 488.019 145.266 488.242 144.451C488.491 143.553 487.937 142.728 487.099 142.438C471.815 137.166 456.381 132.33 440.82 127.954C436.417 126.714 432.005 125.514 427.583 124.348C425.545 123.809 424.676 126.966 426.714 127.504V127.501Z" fill="#73A7C3"/>
<path d="M335.96 116.199C338.141 116.508 340.277 116.992 342.356 117.725C344.384 118.438 346.358 119.308 348.363 120.088C349.188 120.41 350.159 119.735 350.375 118.945C350.63 118.018 350.06 117.253 349.232 116.932C347.227 116.151 345.256 115.282 343.225 114.568C341.146 113.836 339.01 113.351 336.829 113.042C335.957 112.918 335.072 113.256 334.817 114.186C334.607 114.954 335.078 116.075 335.96 116.199Z" fill="#73A7C3"/>
<path d="M368.827 136.487C368.891 136.494 369.508 136.576 369.129 136.522C369.276 136.541 369.422 136.564 369.569 136.586C369.912 136.64 370.253 136.697 370.594 136.761C371.224 136.882 371.854 137.022 372.475 137.182C373.771 137.516 375.038 137.937 376.28 138.434C377.075 138.752 378.11 138.086 378.292 137.29C378.508 136.344 378.002 135.618 377.149 135.277C374.471 134.203 371.686 133.544 368.827 133.209C367.974 133.111 367.156 134.034 367.191 134.847C367.235 135.818 367.913 136.376 368.827 136.484V136.487Z" fill="#73A7C3"/>
<path d="M390.897 143.717C406.631 148.932 422.316 154.299 437.947 159.816C442.375 161.38 446.8 162.957 451.222 164.544C452.053 164.843 453.015 164.206 453.234 163.4C453.483 162.492 452.926 161.686 452.092 161.387C436.492 155.784 420.835 150.33 405.131 145.03C400.68 143.526 396.227 142.039 391.767 140.561C389.764 139.898 388.905 143.058 390.897 143.717Z" fill="#73A7C3"/>
<path d="M463.423 169.396C471.828 171.441 480.089 174.025 488.449 176.242C490.487 176.78 491.356 173.623 489.318 173.085C480.958 170.871 472.7 168.284 464.292 166.239C462.245 165.742 461.373 168.899 463.423 169.396Z" fill="#73A7C3"/>
<path d="M365.522 155.682C368.976 156.415 372.433 157.147 375.891 157.88C376.725 158.058 377.699 157.635 377.903 156.737C378.09 155.915 377.654 154.911 376.76 154.723C373.302 153.991 369.848 153.258 366.391 152.525C365.557 152.347 364.583 152.771 364.379 153.669C364.191 154.491 364.627 155.494 365.522 155.682Z" fill="#73A7C3"/>
<path d="M393.039 163.56C402.204 166.491 411.319 169.581 420.376 172.833C421.207 173.132 422.168 172.495 422.388 171.689C422.636 170.781 422.079 169.976 421.245 169.676C412.188 166.424 403.074 163.334 393.908 160.403C391.896 159.76 391.037 162.92 393.039 163.56Z" fill="#73A7C3"/>
<path d="M442.139 178.982C454.488 182.74 466.672 187.034 478.648 191.857C482.023 193.217 485.378 194.619 488.715 196.062C489.527 196.412 490.469 196.301 490.953 195.476C491.357 194.784 491.182 193.59 490.367 193.236C478.34 188.034 466.096 183.342 453.661 179.214C450.124 178.042 446.574 176.911 443.012 175.828C440.993 175.213 440.131 178.373 442.143 178.985L442.139 178.982Z" fill="#73A7C3"/>
<path d="M332.523 161.385C338.282 162.8 343.983 164.437 349.615 166.291C351.621 166.95 352.48 163.79 350.484 163.134C344.852 161.28 339.151 159.643 333.392 158.229C331.348 157.725 330.475 160.882 332.523 161.385Z" fill="#73A7C3"/>
<path d="M332.63 172.681C338.389 174.095 344.091 175.732 349.722 177.586C351.728 178.246 352.588 175.086 350.592 174.429C344.96 172.576 339.258 170.938 333.499 169.524C331.455 169.021 330.583 172.177 332.63 172.681Z" fill="#73A7C3"/>
<path d="M366.773 171.913C373.589 174.06 380.405 176.207 387.221 178.354C389.233 178.988 390.096 175.828 388.09 175.197C381.274 173.051 374.458 170.904 367.642 168.757C365.63 168.123 364.767 171.283 366.773 171.913Z" fill="#73A7C3"/>
<path d="M408.742 184.053C419.092 187.94 429.273 192.262 439.425 196.633C450.116 201.236 460.774 205.918 471.522 210.387C477.128 212.719 482.763 214.993 488.449 217.128C489.276 217.44 490.241 216.78 490.461 215.984C490.712 215.067 490.149 214.283 489.318 213.971C478.968 210.085 468.787 205.762 458.635 201.392C447.945 196.789 437.286 192.106 426.538 187.637C420.932 185.305 415.297 183.031 409.611 180.897C408.784 180.585 407.819 181.241 407.599 182.04C407.348 182.958 407.911 183.741 408.742 184.053Z" fill="#73A7C3"/>
<path d="M363.37 194.189C366.668 195.352 370.049 196.174 373.411 197.117C374.236 197.346 375.229 196.833 375.423 195.973C375.62 195.104 375.162 194.205 374.28 193.96C370.918 193.017 367.537 192.195 364.239 191.033C363.431 190.749 362.415 191.354 362.227 192.176C362.02 193.091 362.504 193.884 363.37 194.189Z" fill="#73A7C3"/>
<path d="M392.012 202.926C402.689 208.105 413.577 212.839 424.643 217.126C425.468 217.445 426.439 216.776 426.655 215.983C426.91 215.059 426.34 214.288 425.512 213.969C414.71 209.787 404.087 205.155 393.661 200.1C392.865 199.715 391.894 199.883 391.423 200.686C391.003 201.403 391.213 202.54 392.008 202.926H392.012Z" fill="#73A7C3"/>
<path d="M443.631 223.058C454.621 227.177 464.767 233.188 475.393 238.113C478.408 239.511 481.464 240.827 484.578 241.992C485.405 242.301 486.37 241.648 486.59 240.849C486.841 239.931 486.278 239.148 485.447 238.836C474.457 234.717 464.311 228.706 453.685 223.781C450.67 222.383 447.614 221.067 444.5 219.901C443.672 219.592 442.708 220.245 442.488 221.045C442.237 221.962 442.8 222.746 443.631 223.058Z" fill="#73A7C3"/>
<path d="M331.987 207.925C334.734 208.501 337.507 209.043 340.175 209.925C342.961 210.846 345.654 212.053 348.363 213.171C349.181 213.509 350.162 212.805 350.375 212.028C350.633 211.088 350.054 210.352 349.232 210.014C346.523 208.896 343.83 207.686 341.044 206.768C338.373 205.889 335.604 205.345 332.856 204.768C331.993 204.586 331.089 205.023 330.844 205.912C330.621 206.724 331.118 207.743 331.987 207.925Z" fill="#73A7C3"/>
<path d="M363.371 219.019C368.076 220.682 372.74 222.463 377.356 224.361C378.174 224.699 379.155 223.998 379.368 223.217C379.626 222.278 379.046 221.542 378.225 221.204C373.609 219.306 368.945 217.525 364.24 215.862C363.406 215.569 362.451 216.197 362.228 217.006C361.979 217.911 362.533 218.723 363.371 219.019Z" fill="#73A7C3"/>
<path d="M398.408 231.327C410.592 236.58 422.488 242.502 434.201 248.729C445.439 254.705 456.527 260.977 467.383 267.622C472.133 270.53 476.844 273.509 481.448 276.646C483.192 277.835 484.832 275 483.1 273.821C474.135 267.708 464.804 262.124 455.403 256.718C443.783 250.035 431.969 243.677 419.951 237.74C413.396 234.5 406.775 231.394 400.06 228.499C399.249 228.148 398.306 228.257 397.822 229.085C397.418 229.776 397.593 230.974 398.408 231.324V231.327Z" fill="#73A7C3"/>
<path d="M9.5689 99.6978C27.8966 91.5622 64.7111 79.8622 138.085 70.5926C152.478 68.7737 169.701 71.3953 169.701 91.0144L169.354 189.836C169.354 197.458 163 211.634 154.331 213.596C130.486 218.998 83.3062 232.043 44.3014 247.307C27.1803 254.009 11.7974 262.527 4.11549 255.869C0.476696 252.716 -0.0963415 247.317 0.0118991 243.163C0.0246332 200.128 0.0341839 157.093 0.0469181 114.055C-0.408329 108.088 3.33234 102.466 9.5689 99.6946V99.6978Z" fill="#004368"/>
<path d="M44.1015 105.148C44.8337 121.811 45.5246 138.474 46.1963 155.14C46.8298 170.835 47.4506 186.533 48.1032 202.227C48.5044 211.876 48.915 221.525 49.3385 231.17C49.4308 233.269 52.7035 233.279 52.6111 231.17C51.8789 214.507 51.1881 197.844 50.5164 181.178C49.8828 165.484 49.2621 149.786 48.6094 134.091C48.2083 124.443 47.7976 114.794 47.3742 105.148C47.2819 103.049 44.0092 103.04 44.1015 105.148Z" fill="#73A7C3"/>
<path d="M11.5151 130.921C14.982 129.965 18.4488 129.006 21.9157 128.051C22.7403 127.825 23.3292 126.878 23.0586 126.038C22.7848 125.193 21.9316 124.652 21.0466 124.894C17.5797 125.85 14.1129 126.808 10.646 127.764C9.82144 127.99 9.23248 128.936 9.50309 129.777C9.77687 130.621 10.6301 131.163 11.5151 130.921Z" fill="#73A7C3"/>
<path d="M13.4741 155.244C16.941 154.288 20.4078 153.33 23.8747 152.374C24.6992 152.148 25.2882 151.202 25.0176 150.361C24.7438 149.517 23.8906 148.972 23.0056 149.217C19.5387 150.173 16.0718 151.132 12.605 152.087C11.7804 152.314 11.1915 153.26 11.4621 154.101C11.7359 154.945 12.589 155.486 13.4741 155.244Z" fill="#73A7C3"/>
<path d="M15.3471 181.001C18.814 180.045 22.2809 179.087 25.7478 178.131C26.5723 177.905 27.1613 176.959 26.8906 176.118C26.6169 175.274 25.7637 174.729 24.8786 174.974C21.4118 175.93 17.9449 176.889 14.478 177.844C13.6535 178.07 13.0645 179.016 13.3351 179.857C13.6089 180.702 14.4621 181.243 15.3471 181.001Z" fill="#73A7C3"/>
<path d="M18.6782 207.612C22.1451 206.657 25.6119 205.698 29.0788 204.742C29.9033 204.516 30.4923 203.57 30.2217 202.729C29.9479 201.885 29.0947 201.34 28.2097 201.585C24.7428 202.541 21.2759 203.5 17.8091 204.456C16.9845 204.682 16.3956 205.628 16.6662 206.469C16.94 207.313 17.7931 207.858 18.6782 207.612Z" fill="#73A7C3"/>
<path d="M21.5301 235.745C24.3412 234.79 27.1554 233.831 29.9665 232.875C30.7751 232.601 31.3927 231.738 31.1094 230.862C30.8484 230.059 29.9633 229.422 29.0974 229.718C26.2863 230.674 23.4721 231.633 20.661 232.589C19.8524 232.862 19.2348 233.726 19.5181 234.602C19.7792 235.404 20.6642 236.042 21.5301 235.745Z" fill="#73A7C3"/>
<path d="M65.8562 110.476C75.671 107.208 85.6514 104.417 95.6923 101.933C106.628 99.2251 117.675 96.8647 128.827 95.221C134.194 94.4278 139.6 93.8194 145.021 93.5901C147.119 93.5009 147.129 90.2263 145.021 90.3154C134.621 90.755 124.265 92.4688 114.068 94.4788C102.913 96.6767 91.853 99.3748 80.9111 102.458C75.5691 103.965 70.2526 105.567 64.9839 107.322C62.9941 107.985 63.8473 111.148 65.853 110.479L65.8562 110.476Z" fill="#73A7C3"/>
<path d="M83.7546 125.742C91.2009 123.694 98.7427 122.158 106.335 120.776C113.966 119.384 121.623 118.081 129.314 117.065C133.676 116.488 138.047 116.001 142.43 115.625C143.312 115.548 144.067 114.927 144.067 113.988C144.067 113.159 143.316 112.274 142.43 112.35C134.526 113.026 126.653 114.074 118.818 115.322C111.098 116.552 103.372 117.88 95.7183 119.479C91.4078 120.381 87.1291 121.419 82.8855 122.585C80.8575 123.143 81.7171 126.302 83.7546 125.742Z" fill="#73A7C3"/>
<path d="M65.8575 152.179C76.6529 148.474 87.6011 145.234 98.6767 142.479C109.749 139.724 120.942 137.452 132.215 135.672C138.557 134.668 144.921 133.831 151.304 133.146C152.183 133.05 152.94 132.461 152.94 131.508C152.94 130.696 152.189 129.776 151.304 129.871C139.814 131.104 128.373 132.824 117.033 135.051C105.786 137.258 94.6336 139.956 83.6185 143.135C77.3597 144.941 71.1486 146.907 64.9884 149.022C64.1543 149.309 63.6004 150.146 63.8455 151.035C64.0684 151.847 65.0171 152.465 65.8575 152.179Z" fill="#73A7C3"/>
<path d="M90.2206 164.03C98.4182 161.081 106.708 158.354 115.164 156.236C120.993 154.773 126.889 153.655 132.832 152.786C135.844 152.343 138.862 151.948 141.88 151.534C142.755 151.413 143.236 150.292 143.023 149.521C142.765 148.578 141.89 148.256 141.011 148.377C135.605 149.123 130.193 149.814 124.823 150.798C118.026 152.044 111.328 153.745 104.715 155.745C99.5484 157.312 94.4324 159.048 89.3515 160.877C88.5206 161.176 87.9635 161.992 88.2086 162.89C88.4283 163.693 89.3865 164.333 90.2206 164.034V164.03Z" fill="#73A7C3"/>
<path d="M115.339 172.871C124.664 170.816 134.039 168.994 143.453 167.408C144.325 167.261 144.812 166.184 144.596 165.394C144.341 164.471 143.459 164.104 142.584 164.251C133.167 165.837 123.794 167.659 114.47 169.714C112.413 170.166 113.286 173.323 115.339 172.871Z" fill="#73A7C3"/>
<path d="M115.699 188.421C125.157 186.765 134.616 185.108 144.071 183.449C144.943 183.296 145.43 182.229 145.214 181.435C144.962 180.515 144.074 180.139 143.202 180.292C133.743 181.948 124.285 183.605 114.83 185.264C113.958 185.417 113.47 186.484 113.687 187.278C113.938 188.198 114.827 188.574 115.699 188.421Z" fill="#73A7C3"/>
<path d="M67.7487 220.04C78.2544 215.997 88.9734 212.512 99.7879 209.4C111 206.177 122.337 203.358 133.772 201.042C139.827 199.815 145.911 198.735 152.027 197.866C152.902 197.742 153.383 196.627 153.17 195.853C152.912 194.91 152.036 194.585 151.158 194.709C140.025 196.292 128.991 198.548 118.061 201.185C106.715 203.921 95.4678 207.084 84.37 210.7C78.49 212.614 72.6514 214.663 66.8796 216.883C66.0551 217.201 65.4852 217.985 65.7367 218.896C65.9532 219.686 66.921 220.358 67.7487 220.04Z" fill="#73A7C3"/>
<path d="M386.65 369.051C386.65 369.051 501.913 440.458 489.389 468.579C481.971 485.233 470.412 486.915 470.412 486.915H298.959C298.959 486.915 341.845 364.531 386.65 369.054V369.051Z" fill="#FABCC6"/>
<path d="M187.058 452.209L149.104 486.915H48.3254C48.3254 486.915 18.5274 463.585 93.3025 407.48C168.078 351.375 194.533 445.377 187.058 452.213V452.209Z" fill="#FABCC6"/>
<path d="M73.5615 422.878C72.7401 422.971 72.2371 422.002 72.7879 421.387C85.2546 407.518 164.385 324.474 283.908 336.531C376.785 345.899 432.057 394.27 439.577 404.556C439.943 405.056 439.625 405.76 439.007 405.811C431.338 406.445 392.027 411.248 381.413 443.698L382.069 486.915H149.104L146.404 451.257C146.029 446.275 143.176 441.819 138.815 439.385C127.128 432.861 102.121 419.616 73.5615 422.878Z" fill="#00C7C7"/>
<path d="M253.188 358.751L249.273 371.003L251.231 377.722L237.619 463.173L256.231 487L273.42 464.857L258.37 377.093L260.31 370.92L257.192 357.937L253.188 358.751Z" fill="#50FF81"/>
<path d="M258.317 376.675L251.178 377.304L251.255 378.177L258.394 377.548L258.317 376.675Z" fill="#003959"/>
<path d="M260.778 394.521L246.385 406.084L246.933 406.768L261.327 395.205L260.778 394.521Z" fill="#003959"/>
<path d="M264.666 414.986L242.32 431.664L242.844 432.367L265.19 415.689L264.666 414.986Z" fill="#003959"/>
<path d="M268.276 435.853L238.736 454.322L239.201 455.066L268.74 436.597L268.276 435.853Z" fill="#003959"/>
<path d="M273.234 453.637L246.328 474.324L246.862 475.02L273.768 454.332L273.234 453.637Z" fill="#003959"/>
<path d="M85.4893 413.785C92.283 413.011 99.2295 413.278 105.982 414.314C112.317 415.285 118.764 416.856 124.548 419.678C128.926 421.812 133.039 424.564 136.881 427.546C141.255 430.938 145.432 434.755 148.823 439.144C151.669 442.83 154.655 447.793 153.881 452.539C153.773 453.198 154.053 453.851 154.738 454.049C155.324 454.218 156.142 453.845 156.247 453.192C157.024 448.423 154.996 443.795 152.385 439.912C149.189 435.156 145.031 431.066 140.635 427.431C136.502 424.017 132.074 420.882 127.34 418.356C121.779 415.387 115.622 413.584 109.449 412.428C101.592 410.956 93.4482 410.424 85.4893 411.332C84.8303 411.409 84.2637 411.842 84.2637 412.559C84.2637 413.164 84.8272 413.861 85.4893 413.785Z" fill="#003959"/>
<path d="M430.06 397.569C423.228 397.432 416.281 399.576 409.978 402.022C406.807 403.255 403.684 404.644 400.698 406.278C398.613 407.421 396.598 408.708 394.586 409.976C390.816 412.352 387.146 414.888 383.762 417.796C379.75 421.246 376.217 425.19 373.027 429.404C367.882 436.198 363.648 443.649 359.777 451.227C359.06 452.632 361.177 453.874 361.897 452.466C367.764 440.977 374.51 429.487 384.147 420.73C387.334 417.834 390.807 415.321 394.426 412.989C398.842 410.145 403.315 407.472 408.154 405.402C411.777 403.85 415.527 402.548 419.344 401.554C422.836 400.643 426.44 399.955 430.063 400.028C431.642 400.06 431.642 397.604 430.063 397.572L430.06 397.569Z" fill="#003959"/>
<path d="M161.392 359.886C165.317 360.994 168.858 362.992 171.656 365.979C174.266 368.764 176.056 372.181 177.711 375.59C179.831 379.954 181.538 384.519 182.591 389.262C183.753 394.502 184.291 399.923 184.673 405.268C185.441 415.987 185.106 426.776 184.142 437.473C183.422 445.465 182.143 453.394 179.764 461.068C178.399 465.473 177.03 469.878 175.664 474.284C175.626 474.408 175.588 474.529 175.549 474.653C175.091 476.17 177.46 476.816 177.915 475.306C179.169 471.156 180.484 467.021 181.77 462.877C184.034 455.579 185.473 448.144 186.291 440.544C187.462 429.653 187.898 418.599 187.278 407.658C186.962 402.099 186.393 396.531 185.437 391.046C184.581 386.124 183.005 381.381 180.981 376.823C179.29 373.016 177.402 369.197 174.817 365.909C172.331 362.746 169.109 360.265 165.403 358.694C164.308 358.229 163.188 357.841 162.042 357.516C160.52 357.086 159.87 359.456 161.389 359.883L161.392 359.886Z" fill="#003959"/>
<path d="M341.02 348.877C337.423 352.636 335.08 357.436 333.358 362.297C331.174 368.47 329.993 374.978 329.324 381.48C327.662 397.623 329.27 414.168 333.081 429.904C335.446 439.668 338.763 449.199 343.052 458.283C343.726 459.71 345.843 458.465 345.172 457.044C337.827 441.487 333.377 424.492 331.785 407.374C330.486 393.393 330.785 378.68 334.984 365.173C336.618 359.921 338.973 354.563 342.755 350.613C343.847 349.473 342.116 347.733 341.02 348.877Z" fill="#003959"/>
<path d="M95.4412 441.733C98.0549 441.577 151.72 445.66 170.041 457.447C188.366 469.233 194.001 464.649 225.212 467.923C256.424 471.198 275.423 486.912 275.423 486.912H48.3248C48.3248 486.912 41.1268 445.004 95.4412 441.733Z" fill="#FABCC6"/>
<path d="M95.4324 443.037C102.401 443.55 109.37 444.095 116.342 444.569C122.381 444.983 128.468 445.206 134.418 446.404C137.863 447.098 141.225 448.127 144.465 449.491C145.08 449.749 145.809 449.21 145.974 448.634C146.175 447.927 145.726 447.379 145.118 447.124C139.4 444.719 133.374 443.512 127.22 442.906C120.656 442.26 114.047 441.951 107.469 441.467C103.458 441.17 99.4437 440.877 95.4324 440.581C93.8566 440.466 93.8629 442.922 95.4324 443.037Z" fill="#DA8A97"/>
<path d="M416.753 434.53C416.753 434.53 360.474 441.729 321.211 464.32L278.714 468.579C278.714 468.579 260.552 475.128 249.327 481.021L238.102 486.915H456.015C456.015 486.915 482.19 437.805 416.753 434.53Z" fill="#FABCC6"/>
<path d="M385.233 441.793C388.875 440.204 392.771 439.153 396.633 438.267C401.739 437.098 406.935 436.302 412.153 435.849C415.413 435.566 418.682 435.426 421.955 435.426C423.534 435.426 423.537 432.97 421.955 432.97C411.268 432.963 400.351 434.343 390.107 437.448C388.028 438.079 385.984 438.805 383.994 439.672C383.383 439.939 383.252 440.825 383.555 441.351C383.915 441.981 384.631 442.055 385.233 441.79V441.793Z" fill="#DA8A97"/>
<path d="M240.305 486.29C245.558 483.611 251.135 481.617 256.388 478.941C257.795 478.224 256.554 476.103 255.15 476.82C249.897 479.499 244.319 481.493 239.066 484.168C237.659 484.885 238.901 487.007 240.305 486.29Z" fill="#261D38"/>
<path d="M239.578 309.229C239.578 309.229 226.872 317.773 223.689 311.813C220.508 305.853 225.608 299.906 225.385 296.038C225.099 291.123 223.026 291.248 220.699 283.351C219.111 277.964 217.875 273.779 218.624 268.453C218.843 266.882 220.133 257.708 226.678 253.755C229.639 251.968 231.74 250.7 234.544 250.627C235.601 250.598 237.617 250.719 239.377 249.433C240.202 248.83 240.647 248.152 240.797 247.935C242.541 245.384 247.705 241.275 251.131 239.72C257.797 236.691 267.103 239.134 272.454 243.702C275.701 246.473 275.472 248.305 279.35 250.602C283.555 253.093 285.997 252.226 288.802 255.083C291.237 257.562 291.842 260.703 292.141 262.267C292.877 266.086 291.619 266.793 291.476 272.259C291.301 278.923 293.103 280.207 291.788 283.943C290.492 287.629 288.521 287.001 286.841 290.429C283.577 297.093 289.422 302.728 286.573 308.656C284.937 312.058 281.451 313.456 278.519 314.629C263.543 320.627 244.092 311.456 239.581 309.223L239.578 309.229Z" fill="#002D46"/>
<path d="M231.79 276.913C227.136 282.219 224.637 289.071 224.442 296.127C224.105 308.273 226.607 329.361 247.555 332.237C277.222 336.311 289.145 319.432 287.69 299.934C286.235 280.436 279.546 268.65 258.315 267.487C244.75 266.745 236.9 271.086 231.79 276.916V276.913Z" fill="#FABCC6"/>
<path d="M232.724 311.865C232.724 311.865 232.784 324.757 229.649 337.83C227.118 348.38 235.058 356.98 244.14 358.704C254.095 360.59 267.511 361.211 273.464 351.288C275.718 347.533 276.316 339.528 275.428 335.243C273.349 325.222 280.716 314.057 282.384 300.888C285.211 278.59 233.265 295.295 232.724 311.869V311.865Z" fill="#FABCC6"/>
<path d="M238.708 329.905C246.23 337.671 259.267 337.984 268.789 334.107C270.788 333.291 272.819 332.272 274.332 330.695C275.424 329.555 273.692 327.816 272.597 328.959C271.527 330.074 270.117 330.861 268.573 331.552C266.605 332.431 264.491 333.017 262.377 333.425C257.522 334.368 252.324 334.285 247.618 332.673C244.906 331.743 242.442 330.23 240.443 328.169C239.341 327.032 237.606 328.771 238.708 329.905Z" fill="#003959"/>
<path d="M259.346 314.091C259.584 314.419 259.798 314.763 259.97 315.132C259.989 315.17 260.056 315.33 259.979 315.145C259.903 314.96 259.966 315.12 259.982 315.161C260.021 315.256 260.052 315.355 260.084 315.454C260.145 315.648 260.186 315.846 260.215 316.046L260.17 315.722C260.199 315.96 260.202 316.196 260.17 316.432L260.215 316.107C260.193 316.25 260.119 316.4 260.107 316.54C260.186 316.355 260.208 316.308 260.167 316.397C260.154 316.426 260.138 316.454 260.126 316.483C260.094 316.54 260.059 316.598 260.024 316.655C259.9 316.875 260.269 316.4 260.081 316.582C260.052 316.61 260.024 316.639 259.995 316.668C259.922 316.741 259.779 316.811 260.11 316.585C260.065 316.613 260.024 316.649 259.976 316.677C259.887 316.735 259.791 316.789 259.696 316.833C259.607 316.878 259.428 316.926 259.795 316.795C259.734 316.817 259.677 316.843 259.616 316.862C259.368 316.948 259.11 317.005 258.852 317.043L259.177 316.999C258.827 317.047 258.477 317.05 258.126 317.008L258.451 317.053C258.254 317.024 258.056 316.986 257.865 316.926C257.824 316.913 257.786 316.9 257.744 316.884C257.512 316.798 257.834 316.919 257.83 316.926C257.827 316.932 257.569 316.789 257.547 316.776C256.993 316.451 256.178 316.629 255.869 317.216C255.557 317.805 255.716 318.55 256.309 318.894C257.674 319.694 259.368 319.643 260.785 319.015C261.37 318.757 261.889 318.337 262.205 317.776C262.66 316.97 262.714 316.053 262.536 315.164C262.37 314.336 261.956 313.53 261.46 312.851C261.265 312.584 261.055 312.377 260.727 312.288C260.434 312.208 260.043 312.243 259.782 312.412C259.269 312.743 258.935 313.536 259.343 314.091H259.346Z" fill="#003959"/>
<path d="M248.459 323.095C251.668 325.821 256.201 326.787 260.215 325.414C260.843 325.2 261.256 324.57 261.072 323.904C260.903 323.292 260.193 322.83 259.563 323.047C256.414 324.124 252.763 323.541 250.194 321.359C249.687 320.929 248.955 320.862 248.459 321.359C248.019 321.798 247.952 322.665 248.459 323.095Z" fill="#003959"/>
<path d="M245.544 305.047C245.496 304.57 245.349 304.12 245.06 303.783C243.828 302.34 241.739 303.2 241.364 305.188C241.122 306.465 241.144 308.672 242.688 309C243.984 309.274 245.005 308.153 245.333 307.01C245.493 306.449 245.61 305.723 245.54 305.051L245.544 305.047Z" fill="#003959"/>
<path d="M272.298 303.683C271.894 302.838 271.073 302.246 270.086 302.628C268.363 303.294 268.306 305.865 269.207 307.177C269.946 308.254 271.299 308.244 272.04 307.199C272.664 306.32 272.763 304.941 272.403 303.944C272.372 303.855 272.337 303.769 272.295 303.683H272.298Z" fill="#003959"/>
<path d="M238.272 300.394C238.731 300.085 239.189 299.779 239.676 299.514C239.813 299.438 239.956 299.374 240.096 299.301C240.392 299.148 239.797 299.397 240.141 299.282C240.415 299.186 240.685 299.097 240.969 299.024C241.535 298.877 242.115 298.769 242.691 298.68C242.761 298.67 243.194 298.594 242.755 298.667C242.92 298.638 243.089 298.626 243.258 298.607C243.55 298.575 243.843 298.552 244.139 298.533C244.993 298.476 245.817 297.82 245.776 296.896C245.738 296.058 245.053 295.198 244.139 295.259C242.786 295.348 241.414 295.53 240.099 295.864C238.82 296.192 237.709 296.839 236.623 297.568C235.913 298.043 235.537 299.033 236.037 299.808C236.492 300.515 237.514 300.903 238.275 300.394H238.272Z" fill="#003959"/>
<path d="M270.374 298.001C270.441 297.988 270.508 297.976 270.575 297.966L270.138 298.023C270.476 297.982 270.81 297.985 271.148 298.023L270.712 297.966C271.714 298.103 272.689 298.476 273.618 298.864L273.227 298.699C273.691 298.896 274.147 299.11 274.599 299.342C275.36 299.734 276.41 299.565 276.837 298.756C277.231 298.007 277.063 296.934 276.251 296.517C275.261 296.004 274.226 295.564 273.169 295.207C271.972 294.806 270.759 294.596 269.505 294.841C268.665 295.004 268.104 296.058 268.362 296.854C268.652 297.753 269.473 298.173 270.374 297.998V298.001Z" fill="#003959"/>
<path d="M220.797 290.625C220.797 290.625 219.106 303.583 225.215 298.343C231.325 293.106 234.798 277.237 239.576 280.148C244.355 283.059 260.527 283.54 265.086 282.945C277.585 281.311 280.736 291.864 287.291 295.881C295.47 300.891 292.522 289.535 289.361 283.059C286.409 277.01 269.635 257.449 259.174 260.07C248.713 262.689 218.756 272.876 220.793 290.628L220.797 290.625Z" fill="#002D46"/>
<path d="M233.844 303.582C234.956 298.809 231.99 294.037 227.219 292.925C222.449 291.812 217.68 294.78 216.568 299.553C215.456 304.327 218.422 309.098 223.193 310.211C227.963 311.323 232.732 308.356 233.844 303.582Z" fill="#FABCC6"/>
<path d="M222.628 298.963C222.653 299.017 222.676 299.071 222.701 299.128C222.638 298.972 222.628 298.959 222.679 299.084C222.711 299.167 222.743 299.253 222.774 299.335C222.844 299.533 222.908 299.734 222.962 299.934C223.016 300.135 223.067 300.339 223.109 300.546C223.125 300.635 223.144 300.721 223.156 300.81C223.166 300.871 223.176 300.928 223.185 300.989C223.163 300.826 223.16 300.791 223.169 300.883C223.207 301.288 223.236 301.689 223.226 302.094C223.223 302.304 223.211 302.514 223.188 302.721C223.179 302.807 223.16 302.903 223.16 302.989C223.166 302.642 223.15 303.021 223.134 303.107C223.074 303.438 223.083 303.754 223.258 304.053C223.408 304.308 223.698 304.55 223.991 304.617C224.589 304.754 225.379 304.435 225.5 303.76C225.869 301.686 225.608 299.641 224.742 297.724C224.478 297.137 223.58 296.949 223.064 297.284C222.456 297.676 222.341 298.335 222.625 298.963H222.628Z" fill="#003959"/>
<path d="M293.696 304.533C294.821 299.762 291.869 294.983 287.101 293.857C282.334 292.731 277.557 295.685 276.432 300.455C275.307 305.226 278.259 310.005 283.027 311.131C287.794 312.257 292.571 309.303 293.696 304.533Z" fill="#FABCC6"/>
<path d="M285.992 298.884C285.136 301.018 285.826 303.512 286.565 305.573C286.781 306.175 287.412 306.647 288.074 306.43C288.666 306.239 289.163 305.567 288.93 304.92C288.746 304.407 288.574 303.891 288.431 303.366C288.36 303.114 288.297 302.859 288.243 302.605C288.211 302.461 288.182 302.321 288.157 302.178C288.15 302.143 288.093 301.757 288.112 301.92C288.134 302.082 288.09 301.703 288.087 301.668C288.077 301.55 288.071 301.432 288.064 301.311C288.055 301.082 288.058 300.849 288.074 300.62C288.08 300.534 288.058 300.206 288.08 300.518C288.074 300.419 288.122 300.292 288.144 300.196C288.195 299.97 288.268 299.75 288.354 299.534C288.593 298.935 288.093 298.161 287.498 298.024C286.788 297.861 286.247 298.24 285.989 298.881L285.992 298.884Z" fill="#003959"/>
<path d="M148.936 486.999L141.319 405.301C140.717 398.848 145.783 393.274 152.248 393.274H368.303C374.972 393.274 380.099 399.187 379.174 405.806L367.822 486.999H148.936Z" fill="white"/>
<path d="M291.897 442.677C293.698 443.509 294.576 445.041 294.576 447.273C294.576 448.28 294.357 449.155 293.918 449.943C293.478 450.731 292.819 451.388 291.985 451.913C291.15 452.438 290.14 452.832 288.998 453.139C287.812 453.445 286.538 453.576 285.089 453.576H280.872L267.607 433.223H283.596C287.066 433.223 289.701 433.66 291.37 434.536C293.083 435.411 293.918 436.812 293.918 438.782C293.918 439.613 293.742 440.357 293.39 441.014C293.039 441.583 292.556 442.152 291.897 442.677ZM281.707 440.751H284.21C285.528 440.751 286.407 440.62 286.846 440.401C287.285 440.138 287.505 439.701 287.505 439.088C287.505 438.563 287.241 438.213 286.758 437.95C286.275 437.687 285.265 437.556 283.771 437.556H281.663V440.751H281.707ZM281.707 445.085V449.024H284.562C285.88 449.024 286.802 448.849 287.329 448.543C287.856 448.236 288.12 447.711 288.12 446.967C288.12 445.698 286.846 445.041 284.342 445.041H281.707V445.085Z" fill="#003959"/>
<path d="M264.005 437.551L254.781 453.484H264.752H274.679L264.005 437.551Z" fill="#00C7C7"/>
<path d="M255.264 433.223H260.447L248.763 453.489L243.492 444.603L238.178 453.489L235.762 449.068L244.854 433.223H250.037L246.084 440.051L248.631 444.428L255.264 433.223Z" fill="#003959"/>
<path d="M226.494 433.223H239.452L232.951 444.428L226.494 433.223Z" fill="#003959"/>
<path fill-rule="evenodd" clip-rule="evenodd" d="M248.844 458.129L249.064 458.348C249.108 458.37 249.141 458.403 249.174 458.436C249.207 458.468 249.24 458.501 249.284 458.523C249.355 458.476 249.426 458.416 249.505 458.349C249.571 458.294 249.642 458.233 249.723 458.173C249.789 458.108 249.855 458.031 249.921 457.954C249.986 457.878 250.052 457.801 250.118 457.736C249.986 457.604 249.855 457.473 249.723 457.298C249.591 457.167 249.415 457.036 249.284 456.948C249.265 456.966 249.24 456.984 249.21 457.006V457.006L249.21 457.006L249.21 457.006L249.21 457.006L249.21 457.006C249.167 457.036 249.116 457.072 249.064 457.123C249.007 457.151 248.969 457.198 248.925 457.251L248.925 457.251C248.901 457.28 248.876 457.311 248.844 457.342L248.625 457.561C248.537 457.648 248.493 457.692 248.449 457.779C248.471 457.823 248.504 457.856 248.537 457.889C248.57 457.922 248.603 457.954 248.625 457.998C248.669 457.998 248.757 458.042 248.844 458.129ZM245.465 458.783C245.729 458.695 246.036 458.651 246.387 458.651V457.119H247.793V462.328H246.343V461.584C246.212 461.89 246.036 462.109 245.86 462.241C245.685 462.372 245.465 462.416 245.245 462.416C245.07 462.416 244.894 462.372 244.762 462.284C244.631 462.197 244.499 462.065 244.411 461.934C244.323 461.759 244.235 461.584 244.191 461.409C244.147 461.234 244.104 461.015 244.104 460.796C244.104 460.402 244.147 460.052 244.279 459.789C244.411 459.527 244.543 459.308 244.762 459.133C244.938 458.958 245.202 458.87 245.465 458.783ZM246.256 460.927C246.299 460.796 246.343 460.665 246.387 460.446C246.431 460.271 246.475 460.008 246.519 459.702H246.343H246.212H246.212C246.036 459.702 245.904 459.702 245.816 459.746C245.729 459.746 245.641 459.789 245.597 459.833C245.553 459.877 245.509 459.964 245.509 460.008C245.465 460.052 245.465 460.139 245.465 460.227C245.465 460.266 245.474 460.315 245.484 460.368C245.496 460.433 245.509 460.505 245.509 460.577C245.529 460.637 245.54 460.698 245.55 460.754C245.562 460.82 245.573 460.88 245.597 460.927C245.641 461.059 245.685 461.146 245.729 461.19C245.772 461.234 245.86 461.278 245.904 461.278C245.948 461.278 246.036 461.234 246.08 461.19C246.168 461.146 246.212 461.059 246.256 460.927ZM237.689 460.844L236.854 457.386H235.405L234.614 460.844H234.57L233.867 457.386H232.33L233.472 462.288H234.351H234.351C234.57 462.288 234.79 462.288 234.965 462.245C235.141 462.201 235.273 462.157 235.405 462.07C235.536 461.982 235.624 461.851 235.712 461.676C235.769 461.563 235.807 461.431 235.851 461.282L235.851 461.282C235.875 461.2 235.901 461.112 235.932 461.019L236.107 460.231L236.591 462.288H237.513H237.513C237.733 462.288 237.952 462.288 238.128 462.245C238.304 462.201 238.435 462.157 238.567 462.07C238.699 461.982 238.787 461.851 238.875 461.676C238.963 461.501 239.006 461.282 239.05 461.019L239.709 457.386H238.216L237.689 460.844ZM242.17 458.651C241.818 458.651 241.511 458.695 241.247 458.739C240.984 458.826 240.72 458.914 240.501 459.089C240.281 459.264 240.149 459.483 240.017 459.746C239.886 460.008 239.842 460.358 239.842 460.752C239.842 460.971 239.886 461.19 239.93 461.365C239.974 461.54 240.061 461.715 240.149 461.891C240.237 462.022 240.369 462.153 240.501 462.241C240.632 462.328 240.808 462.372 240.984 462.372C241.203 462.372 241.423 462.328 241.599 462.197C241.774 462.066 241.95 461.847 242.082 461.54V462.284H243.531V458.695C243.268 458.651 243.004 458.651 242.784 458.651H242.784H242.17ZM242.126 460.446C242.082 460.665 242.038 460.796 241.994 460.928L241.994 460.928C241.95 461.059 241.906 461.146 241.818 461.19C241.774 461.234 241.686 461.278 241.642 461.278C241.599 461.278 241.511 461.234 241.467 461.19C241.423 461.146 241.379 461.059 241.335 460.928C241.311 460.88 241.3 460.82 241.288 460.754L241.288 460.754C241.278 460.698 241.267 460.638 241.247 460.577C241.247 460.505 241.234 460.433 241.222 460.368C241.212 460.315 241.203 460.267 241.203 460.227C241.203 460.14 241.203 460.052 241.247 460.008C241.247 459.965 241.291 459.877 241.335 459.833C241.379 459.789 241.467 459.746 241.555 459.746C241.642 459.702 241.774 459.702 241.95 459.702H241.95H242.082H242.257C242.213 460.008 242.17 460.271 242.126 460.446ZM261.891 457.649C261.979 457.736 262.067 457.867 262.154 458.043C262.21 458.126 262.266 458.246 262.334 458.389C262.372 458.471 262.414 458.56 262.462 458.655L263.516 462.288H262.023L261.671 461.15H260.397L260.09 462.288H258.597H250.032H248.582V458.699H250.032V460.844H258.992L259.914 457.386H260.925C261.144 457.386 261.32 457.386 261.496 457.43C261.627 457.474 261.759 457.561 261.891 457.649ZM260.881 458.83L260.573 460.1H261.276L260.925 458.83H260.881ZM275.375 459.745C275.551 459.614 275.683 459.483 275.77 459.308C275.858 459.133 275.902 458.958 275.902 458.739C275.902 458.345 275.77 457.995 275.463 457.732C275.156 457.469 274.76 457.382 274.233 457.382H271.861V460.84H265.405V457.119H263.955V462.284H265.229H265.405H271.861H272.74H273.355V461.628C273.486 461.89 273.618 462.109 273.838 462.197C274.014 462.284 274.277 462.372 274.541 462.372C274.804 462.372 275.024 462.328 275.243 462.24L275.243 462.24C275.419 462.153 275.595 462.065 275.727 461.934C275.858 461.803 275.946 461.671 276.034 461.496C276.078 461.321 276.122 461.146 276.122 460.927C276.122 460.708 276.078 460.49 275.946 460.271C275.814 460.052 275.639 459.877 275.375 459.745ZM273.399 458.651H273.97C274.101 458.651 274.189 458.651 274.277 458.695C274.365 458.739 274.409 458.826 274.409 458.958C274.409 459.061 274.381 459.111 274.348 459.17C274.339 459.186 274.33 459.202 274.321 459.22C274.233 459.264 274.145 459.308 274.014 459.308H273.399V458.651ZM274.409 460.971C274.321 461.015 274.233 461.059 274.101 461.059H273.311V460.402H274.101C274.233 460.402 274.321 460.446 274.409 460.49C274.497 460.533 274.497 460.621 274.497 460.752C274.541 460.84 274.497 460.927 274.409 460.971ZM277.923 458.739C278.187 458.695 278.494 458.651 278.845 458.651H279.46C279.68 458.651 279.943 458.651 280.207 458.695V462.284H278.757V461.54C278.626 461.847 278.45 462.066 278.274 462.197C278.099 462.328 277.879 462.372 277.659 462.372C277.484 462.372 277.308 462.328 277.176 462.241C277.045 462.153 276.913 462.022 276.825 461.891L276.825 461.89L276.825 461.89L276.825 461.89C276.737 461.715 276.649 461.54 276.605 461.365C276.561 461.19 276.518 460.971 276.518 460.752C276.518 460.358 276.561 460.008 276.693 459.746C276.825 459.483 276.957 459.264 277.176 459.089C277.396 458.914 277.659 458.826 277.923 458.739ZM278.67 460.928C278.714 460.796 278.757 460.665 278.801 460.446C278.845 460.271 278.889 460.008 278.933 459.702H278.757H278.626C278.45 459.702 278.318 459.702 278.23 459.746C278.143 459.746 278.055 459.789 278.011 459.833C277.967 459.877 277.923 459.965 277.923 460.008C277.879 460.052 277.879 460.14 277.879 460.227C277.879 460.267 277.888 460.315 277.898 460.368C277.91 460.433 277.923 460.505 277.923 460.577C277.943 460.638 277.954 460.698 277.964 460.754L277.964 460.754L277.964 460.754C277.976 460.82 277.987 460.88 278.011 460.928C278.055 461.059 278.099 461.146 278.143 461.19C278.187 461.234 278.274 461.278 278.318 461.278C278.362 461.278 278.45 461.234 278.494 461.19C278.582 461.146 278.626 461.059 278.67 460.928ZM283.061 458.651C282.71 458.651 282.403 458.695 282.139 458.782C281.876 458.87 281.612 458.958 281.436 459.133C281.217 459.308 281.085 459.527 280.953 459.789C280.821 460.052 280.778 460.402 280.778 460.796C280.778 461.015 280.821 461.234 280.865 461.409C280.909 461.584 280.997 461.759 281.085 461.934L281.085 461.934L281.085 461.934C281.173 462.065 281.305 462.197 281.436 462.284C281.568 462.372 281.744 462.416 281.919 462.416C282.139 462.416 282.359 462.372 282.534 462.24C282.71 462.109 282.886 461.89 283.017 461.584V462.328H284.467V457.119H283.017V458.651H283.061ZM283.061 460.446C283.017 460.665 282.974 460.796 282.93 460.927C282.886 461.059 282.842 461.146 282.754 461.19C282.71 461.234 282.622 461.277 282.578 461.277C282.534 461.277 282.446 461.234 282.403 461.19C282.359 461.146 282.315 461.059 282.271 460.927C282.247 460.88 282.236 460.82 282.224 460.754L282.224 460.754C282.214 460.698 282.203 460.637 282.183 460.577C282.183 460.505 282.17 460.433 282.158 460.368C282.148 460.314 282.139 460.266 282.139 460.227C282.139 460.139 282.139 460.052 282.183 460.008C282.183 459.964 282.227 459.877 282.271 459.833C282.315 459.789 282.403 459.745 282.49 459.745C282.578 459.702 282.71 459.702 282.886 459.702H283.017H283.193C283.149 460.008 283.105 460.271 283.061 460.446ZM287.365 458.651H288.024C288.133 458.651 288.254 458.662 288.375 458.673C288.496 458.684 288.617 458.695 288.726 458.695V462.284H287.277V461.54C287.145 461.847 286.97 462.066 286.794 462.197C286.618 462.328 286.399 462.372 286.179 462.372C286.003 462.372 285.828 462.328 285.696 462.241C285.564 462.153 285.432 462.022 285.345 461.891L285.345 461.89C285.257 461.715 285.169 461.54 285.125 461.365C285.081 461.19 285.037 460.971 285.037 460.752C285.037 460.358 285.081 460.008 285.213 459.746C285.345 459.483 285.476 459.264 285.696 459.089C285.916 458.914 286.179 458.826 286.443 458.739C286.706 458.695 287.013 458.651 287.365 458.651ZM287.189 460.928C287.233 460.796 287.277 460.665 287.321 460.446C287.365 460.271 287.409 460.008 287.453 459.702H287.277H287.145C286.97 459.702 286.838 459.702 286.75 459.746C286.662 459.746 286.574 459.789 286.53 459.833C286.486 459.877 286.443 459.965 286.443 460.008C286.399 460.052 286.399 460.14 286.399 460.227V460.227C286.399 460.267 286.407 460.315 286.417 460.368C286.429 460.433 286.443 460.505 286.443 460.577C286.463 460.638 286.474 460.698 286.484 460.754C286.496 460.82 286.507 460.88 286.53 460.928C286.574 461.059 286.618 461.146 286.662 461.19C286.706 461.234 286.794 461.278 286.838 461.278C286.882 461.278 286.97 461.234 287.013 461.19C287.101 461.146 287.145 461.059 287.189 460.928Z" fill="#00C7C7"/>
<path d="M404.227 329.208C415.223 333.292 425.814 338.834 435.811 345.071C447.029 352.07 457.71 360.161 466.815 369.79C471.505 374.75 475.751 380.149 479.085 386.119C480.113 387.957 482.94 386.31 481.908 384.465C475.595 373.16 466.207 363.706 456.23 355.599C445.909 347.212 434.626 339.991 422.8 333.925C417.05 330.979 411.151 328.3 405.096 326.048C404.268 325.739 403.303 326.392 403.084 327.192C402.832 328.106 403.396 328.896 404.227 329.205V329.208Z" fill="#73A7C3"/>
<path d="M8.70963 331.286C9.17124 330.694 9.70608 330.162 10.2632 329.662C11.0782 328.929 11.5685 328.556 12.2656 328.047C14.3668 326.511 16.5921 325.148 18.8524 323.858C25.0539 320.319 31.577 317.328 38.202 314.674C42.7226 312.862 47.3101 311.215 51.9485 309.724C53.9446 309.081 53.0914 305.921 51.0794 306.567C42.9996 309.167 35.0598 312.237 27.362 315.824C21.7653 318.433 16.1655 321.274 11.1164 324.861C9.43866 326.052 7.66861 327.333 6.39519 328.973C5.85399 329.671 5.7171 330.608 6.39519 331.289C6.95868 331.853 8.16206 331.99 8.70963 331.289V331.286Z" fill="#73A7C3"/>
<path d="M339.533 306.91L317.148 303.85L316.326 300.987L333.344 285.349L334.723 290.153L322.858 300.431L338.159 302.125L339.533 306.91Z" fill="#73A7C3"/>
<path d="M350.788 276.393L348.285 308.795L342.742 310.388L345.246 277.987L350.788 276.393Z" fill="#73A7C3"/>
<path d="M358.608 296.251L370.678 286.692L355.171 284.279L353.793 279.474L376.511 283.695L377.332 286.559L359.98 301.036L358.606 296.251H358.608Z" fill="#73A7C3"/>
<path d="M324.747 271.24L320.459 253.445L322.375 251.981L339.177 260.215L335.961 262.672L324.717 256.746L327.948 268.792L324.745 271.238L324.747 271.24Z" fill="#73A7C3"/>
<path d="M143.764 264.084C143.156 262.42 142.606 261 142.04 259.716L144.288 258.897L145.387 261.64L145.503 261.598C145.452 259.465 146.562 257.703 148.286 257.076C148.579 256.969 148.793 256.925 149.048 256.897L149.931 259.321C149.647 259.358 149.374 259.426 149.024 259.552C147.215 260.213 146.431 262.053 146.783 264.11C146.853 264.482 146.942 264.912 147.102 265.349L149.848 272.884L147.309 273.811L143.766 264.086L143.764 264.084Z" fill="#73A7C3"/>
<path d="M152.301 260.835L151.663 259.082L166.722 253.587L167.36 255.34L152.301 260.835ZM154.387 266.558L153.749 264.805L168.808 259.31L169.446 261.063L154.387 266.558Z" fill="#73A7C3"/>
<path d="M169.598 255.316C171.671 254.56 171.547 253.314 171.176 252.293C170.878 251.476 170.463 250.7 170.048 249.926C169.633 249.15 169.229 248.404 168.932 247.587C167.953 244.9 169.288 243.123 171.77 242.216L172.384 241.993L172.969 243.6L172.445 243.792C170.723 244.42 170.481 245.567 171.055 247.145C171.3 247.816 171.643 248.485 172.014 249.143C172.397 249.83 172.74 250.499 173.028 251.288C173.738 253.146 173.262 254.379 172.076 255.209L172.097 255.268C173.528 255.111 174.706 255.804 175.359 257.684C175.647 258.473 175.824 259.233 175.964 259.977C176.113 260.748 176.27 261.452 176.526 262.154C177.122 263.789 178.123 264.449 179.757 263.852L180.281 263.66L180.866 265.266L180.253 265.489C177.83 266.373 175.639 265.983 174.562 263.032C174.273 262.243 174.092 261.384 173.922 260.554C173.751 259.723 173.581 258.892 173.292 258.103C172.963 257.198 172.213 256.049 170.14 256.805L169.598 255.316Z" fill="#73A7C3"/>
<path d="M181.148 277.726C177.246 279.979 173.554 283.61 170.913 289.744C168.316 295.775 168.311 300.914 169.255 305.338L166.92 304.33C165.998 300.599 165.563 295.27 168.407 288.662C171.315 282.001 175.453 278.644 178.811 276.716L181.146 277.724L181.148 277.726Z" fill="#73A7C3"/>
<path d="M173.98 307.375C177.83 305.058 181.587 301.455 184.215 295.357C186.826 289.291 186.865 284.167 185.873 279.763L188.176 280.755C189.146 284.467 189.548 289.783 186.673 296.456C183.813 303.097 179.691 306.422 176.285 308.367L173.983 307.375H173.98Z" fill="#73A7C3"/>
<path d="M110.552 305.151L107.82 307.732L109.514 309.527L112.246 306.947L110.552 305.151Z" fill="#73A7C3"/>
<path d="M111.4 305.673L108.288 308.612L109.982 310.408L113.095 307.468L111.4 305.673Z" fill="#73A7C3"/>
<path d="M129.517 329.437C128.635 330.271 127.236 330.203 126.438 329.288L109.925 310.348L113.038 307.408L129.662 326.476C130.417 327.342 130.353 328.649 129.518 329.438L129.517 329.437Z" fill="#73A7C3"/>
<path d="M91.0227 287.191C85.5614 292.348 85.3134 300.958 90.4685 306.423C95.6226 311.887 104.228 312.136 109.69 306.977C115.151 301.82 115.399 293.21 110.244 287.745C105.09 282.281 96.4839 282.032 91.0227 287.191ZM109.068 288.627C113.607 293.438 113.387 301.019 108.58 305.56C103.772 310.101 96.1958 309.882 91.6571 305.072C87.1183 300.261 87.3379 292.68 92.1447 288.139C96.9515 283.598 104.529 283.816 109.068 288.627Z" fill="#73A7C3"/>
<path d="M90.1727 297.393C91.0235 291.056 96.8478 286.608 103.181 287.46C105.01 287.706 106.681 288.367 108.113 289.334C106.51 287.751 104.398 286.657 101.992 286.333C96.1005 285.541 90.6836 289.677 89.892 295.573C89.7115 296.916 89.7875 298.234 90.0809 299.478C90.0492 298.793 90.0788 298.096 90.1727 297.391V297.393Z" fill="#73A7C3"/>
</svg>
