<svg width="510" height="435" viewBox="0 0 510 435" fill="none" xmlns="http://www.w3.org/2000/svg">
<g clip-path="url(#clip0_5228_157)">
<g clip-path="url(#clip1_5228_157)">
<path d="M385.534 80.3381C348.235 80.3381 317.998 110.483 317.998 147.669C317.998 184.855 348.235 215 385.534 215C422.833 215 453.07 184.855 453.07 147.669C453.07 110.483 422.833 80.3381 385.534 80.3381Z" fill="#004368"/>
<path d="M385.535 96.0093C356.917 96.0093 333.718 119.138 333.718 147.669C333.718 176.199 356.917 199.328 385.535 199.328C414.152 199.328 437.352 176.199 437.352 147.669C437.352 119.138 414.152 96.0093 385.535 96.0093Z" fill="#003959"/>
<path d="M385.534 110.19C364.771 110.19 347.94 126.97 347.94 147.67C347.94 168.37 364.771 185.15 385.534 185.15C406.297 185.15 423.129 168.37 423.129 147.67C423.129 126.97 406.297 110.19 385.534 110.19Z" fill="#004368"/>
<path d="M385.532 123.93C372.382 123.93 361.721 134.559 361.721 147.669C361.721 160.78 372.382 171.408 385.532 171.408C398.683 171.408 409.344 160.78 409.344 147.669C409.344 134.559 398.683 123.93 385.532 123.93Z" fill="#003959"/>
<path d="M374.061 145.803C373.03 152.123 377.333 158.079 383.671 159.107C390.01 160.135 395.984 155.846 397.016 149.526C398.047 143.207 393.744 137.251 387.406 136.223C381.067 135.194 375.092 139.484 374.061 145.803Z" fill="#004368"/>
<path d="M491.378 97.7604C491.532 98.0899 491.55 98.4669 491.427 98.8093C491.303 99.1516 491.049 99.4314 490.719 99.5875L385.898 148.828C385.736 148.904 385.559 148.947 385.38 148.956C385.2 148.964 385.021 148.937 384.852 148.876C384.683 148.815 384.528 148.721 384.395 148.6C384.262 148.48 384.155 148.334 384.079 148.172C384.001 148.01 383.956 147.834 383.947 147.655C383.937 147.475 383.964 147.296 384.026 147.127C384.087 146.958 384.181 146.803 384.303 146.671C384.426 146.539 384.573 146.432 384.737 146.358L489.545 97.1042C489.875 96.95 490.254 96.9325 490.597 97.0555C490.94 97.1784 491.221 97.4318 491.378 97.7604Z" fill="#316785"/>
<path d="M486.511 115.773L510 104.734L489.557 100.128L466.069 111.167L486.511 115.773Z" fill="#1F516D"/>
<path d="M474.352 90.0399L497.828 79.0003L488.381 97.6569L464.905 108.684L474.352 90.0399Z" fill="#1F516D"/>
</g>
<path d="M0 435.001L91.0112 390.137H123.618L284.414 271.215L365.793 352.61L404.436 365.485L480 435.001H0Z" fill="url(#paint0_linear_5228_157)"/>
<path d="M404.436 365.485L365.793 352.61L284.414 271.215L299.505 353.108L367.212 420.829V377.385L462.121 435.001H480L404.436 365.485Z" fill="url(#paint1_linear_5228_157)"/>
<path d="M76.3809 416.717L91.2464 421.585L219.76 364.413V421.585L288.225 275.027L284.414 271.215L123.618 390.137H91.0113L0 435.001L76.3809 416.717Z" fill="url(#paint2_linear_5228_157)"/>
<path d="M137.546 98.1311C137.426 98.1527 137.294 98.1731 137.167 98.1899C135.171 98.9501 132.923 98.9901 130.423 98.31C127.159 97.5466 124.006 95.9327 120.963 93.4682L120.308 90.8613C120.435 96.0223 120.952 104.52 119.805 105.212C117.11 106.839 124.317 111.023 130.232 115.488C135.383 119.375 145.995 122.268 142.682 117.798C136.761 109.814 138.021 101.956 137.546 98.1311Z" fill="#FABCC6"/>
<path d="M139.805 54.3082C136.565 50.6691 130.996 51.046 127.799 53.4225C124.118 56.159 122.33 61.8241 117.195 64.5354C100.557 73.3271 117.718 92.7792 122.125 92.0603C125.623 91.4902 122.149 87.4622 124.549 84.8589C130.009 78.9502 149.651 65.372 139.805 54.3082Z" fill="#002D46"/>
<path d="M127.64 81.8805L130.375 63.4798C128.335 68.804 123.183 69.8914 123.183 69.8914C126.724 65.783 126.682 60.0219 126.682 60.0219C125.673 65.9835 119.295 69.0237 118.072 69.553C118.688 69.2433 120.667 67.8798 123.544 62.3396C125.021 59.4938 125.534 57.2206 125.633 55.5391C123.193 58.4616 121.225 62.4068 117.195 64.5408C100.557 73.3325 117.718 92.7846 122.125 92.0657C125.623 91.4956 122.149 87.4676 124.549 84.8643C125.331 84.0169 126.405 83.0159 127.64 81.8805Z" fill="#002D46"/>
<path d="M128.161 68.4023C126.945 72.7748 119.873 69.3241 117.234 73.7194C115.468 76.6611 116.667 82.3154 116.412 82.0934C109.332 75.8942 114.852 88.0525 117.723 87.8413C117.769 87.8413 118.969 94.3957 120.667 96.7158C122.365 99.0358 135.013 102.967 140.992 97.4575C141.977 95.0811 136.339 69.7442 128.161 68.4023Z" fill="#FABCC6"/>
<path d="M127.59 92.0353C127.59 92.0353 130.757 92.8039 133.495 92.2455C136.236 91.6709 136.573 90.1721 136.573 90.1721C136.573 90.1721 136.342 94.1143 133.557 94.8488C130.775 95.567 127.587 92.0516 127.587 92.0516L127.59 92.0353Z" fill="#003959"/>
<path d="M125.73 83.2469C126.406 83.0342 126.782 82.3137 126.569 81.6375C126.356 80.9614 125.635 80.5857 124.959 80.7985C124.283 81.0112 123.907 81.7317 124.12 82.4078C124.332 83.0839 125.053 83.4596 125.73 83.2469Z" fill="#003959"/>
<path d="M133.917 79.327C134.129 80.0023 133.753 80.7239 133.077 80.9364C132.402 81.1488 131.68 80.7726 131.467 80.0973C131.255 79.422 131.631 78.7004 132.307 78.4879C132.982 78.2755 133.704 78.6517 133.917 79.327Z" fill="#003959"/>
<path d="M121.373 80.5808C121.23 80.6261 121.072 80.6268 120.953 80.5715C120.753 80.4789 120.735 80.266 120.912 80.095C120.938 80.071 123.451 77.6937 126.666 78.2927C126.905 78.3363 127.003 78.5255 126.884 78.7151C126.765 78.9046 126.477 79.0212 126.238 78.976C123.676 78.4986 121.652 80.4111 121.632 80.4313C121.56 80.4993 121.47 80.5504 121.371 80.5816L121.373 80.5808Z" fill="#003959"/>
<path d="M130.394 79.0882C130.305 79.116 130.21 79.1211 130.112 79.0992C129.807 79.0275 129.607 78.7183 129.663 78.3999C129.674 78.3407 129.942 76.9068 131.123 76.2316C131.923 75.7754 132.914 75.7799 134.07 76.2479C134.363 76.3666 134.517 76.7088 134.413 77.0116C134.308 77.3143 133.986 77.4654 133.693 77.3467C132.868 77.0136 132.195 76.9863 131.693 77.2683C130.962 77.6812 130.772 78.6467 130.769 78.6568C130.728 78.8714 130.579 79.033 130.392 79.0919L130.394 79.0882Z" fill="#003959"/>
<path d="M130.506 88.4736C130.312 88.5345 130.092 88.4279 129.992 88.2164C129.881 87.9813 129.958 87.7042 130.164 87.5974L132.464 86.4058L128.767 80.2271C128.633 80.0041 128.682 79.7188 128.875 79.5862C129.066 79.4542 129.331 79.5271 129.465 79.7501L133.43 86.377C133.499 86.4916 133.522 86.628 133.495 86.7557C133.467 86.8834 133.389 86.987 133.284 87.0425L130.568 88.4489C130.55 88.4597 130.528 88.4666 130.508 88.4729L130.506 88.4736Z" fill="#003959"/>
<path d="M113.266 116.863L118.658 111.303L137.822 113.88L143.328 109.781L147.048 110.66C147.048 110.66 169.79 134.619 173.867 152.218C177.943 169.817 190.834 268.04 190.834 268.04L168.005 271.788C168.005 271.788 149.813 166.709 139.246 150.159C128.678 133.609 113.266 116.863 113.266 116.863Z" fill="#E3F5FF"/>
<path d="M141.167 110.195L135.072 111.488L132.293 114.899L132.846 118.324L136.309 119.151C136.309 119.151 149.188 135.154 153.042 153.404C158.933 181.289 166.002 235.068 166.002 235.068L180.715 249.579L190.879 232.085C190.879 232.085 176.265 172.125 168.799 154.516C157.919 128.831 142.708 116.408 142.708 116.408L143.245 114.283L141.167 110.195Z" fill="#50FF81"/>
<path d="M135.074 111.488C134.653 110.801 127.809 110.344 123.704 107.026C120.74 104.632 120.497 100.969 120.497 100.969L116.859 112.759L135.53 123.856C135.53 123.856 134.174 118.815 134.609 115.35C134.834 113.551 135.074 111.488 135.074 111.488Z" fill="#D2ECFA"/>
<path d="M137.785 103.605C137.785 103.605 143.44 106.866 145.409 109.509C147.378 112.152 145.85 119.34 145.85 119.34C144.692 115.484 142.154 112.739 138.671 110.777C138.287 109.514 137.858 107.096 137.785 103.605Z" fill="#D2ECFA"/>
<path d="M299.508 81.1114C299.508 81.1114 300.922 73.3543 289.018 67.7276C274.659 60.9439 273.306 68.4478 273.306 68.4478C273.306 68.4478 270.862 79.5199 275.946 83.1314C281.029 86.7429 295.266 88.0331 296.41 86.9721C297.555 85.9111 299.508 81.1114 299.508 81.1114Z" fill="#009E9E"/>
<path d="M293.856 52.8442C292.199 49.4835 290.526 47.2127 288.277 49.049C286.029 50.8854 285.619 58.6329 284.375 56.2564C283.387 53.8559 290.159 51.3055 284.615 49.696C281.665 51.9344 279.223 54.0912 278.207 58.418C277.699 60.5784 276.18 66.9529 276.094 70.3003C276.085 70.6412 285.786 82.5175 286.534 82.239C288.055 81.6737 289.119 70.2835 290.833 69.0725C297.783 64.1719 295.047 55.2602 293.856 52.8442Z" fill="#FABCC6"/>
<path d="M276.741 65.3281C275.37 71.6185 287.394 76.0102 289.879 71.3845L286.897 89.3879L271.602 82.165L276.741 65.3281Z" fill="#E3F5FF"/>
<path d="M273.598 67.5742C238.918 130.416 200.158 120.912 160.133 113.206C163.074 128.104 179.5 179.418 179.5 179.418C179.5 179.418 177.556 207.801 246.01 165.442C285.154 141.22 299.506 81.1104 299.506 81.1104C296.4 88.8963 272.78 80.3579 273.598 67.5742Z" fill="#00B2B2"/>
<path d="M192.56 282.75C192.56 282.75 203.551 174.633 181.265 131.838C170.779 111.694 154.555 111.942 154.555 111.942C154.555 111.942 158.469 119.54 167.543 141.578C169.862 147.208 172.305 156.877 174.806 170.318C176.81 181.089 186.221 229.46 186.686 259.626C187.15 289.793 192.56 282.75 192.56 282.75Z" fill="#00C7C7"/>
<path d="M179.224 172.925L185.26 169.294C182.029 151.891 177.365 136.015 172.42 128.508C166.429 119.42 160.624 114.547 155.966 112.078L145.859 110.381C151.499 115.954 156.934 119.623 167.849 148.745C173.839 164.721 181.576 207.931 185.129 236.722C190.829 230.171 190.703 206.875 187.485 183.144L179.224 172.925Z" fill="#00B2B2"/>
<path d="M254.672 302.202L255.526 302.569C255.526 302.569 259.096 301.691 266.621 299.551C270.561 298.43 275.547 292.651 275.215 290.617C270.485 287.838 268.228 288.118 264.461 289.932C261.429 291.391 255.411 296.456 255.411 296.456L254.672 302.202Z" fill="#00365C"/>
<path d="M251.461 298.547C253.013 299.088 253.209 301.692 254.671 302.202C254.671 302.202 258.099 301.343 265.625 299.201C269.564 298.081 274.205 292.497 273.872 290.462C272.76 288.155 268.803 286.678 263.465 289.582C261.684 290.55 258.271 292.897 255.837 294.611C254.231 295.743 253.507 293.158 253.507 293.158L251.461 298.547Z" fill="#00C7C7"/>
<path d="M257.343 297.849C257.257 297.849 257.172 297.821 257.104 297.768C257.035 297.715 256.986 297.641 256.964 297.558C256.69 296.539 256.789 295.561 257.113 294.62C257.036 294.274 256.988 293.923 256.97 293.569C256.965 293.483 256.989 293.398 257.038 293.327C257.086 293.256 257.157 293.202 257.238 293.175C257.32 293.148 257.409 293.148 257.49 293.176C257.572 293.204 257.642 293.258 257.69 293.329C258.095 292.614 258.553 291.93 259.06 291.283C259.111 291.216 259.183 291.167 259.264 291.144C259.344 291.12 259.431 291.124 259.51 291.153C259.589 291.182 259.656 291.236 259.702 291.307C259.748 291.377 259.771 291.46 259.766 291.545C259.751 291.775 259.742 291.998 259.743 292.215C260.024 291.57 260.397 290.968 260.849 290.428C260.905 290.363 260.98 290.317 261.064 290.298C261.148 290.279 261.236 290.288 261.314 290.324C261.392 290.359 261.456 290.42 261.497 290.495C261.538 290.571 261.553 290.658 261.539 290.743C261.503 291.024 261.52 291.309 261.59 291.583C262.141 290.503 262.918 289.561 263.811 289C263.879 288.957 263.959 288.936 264.039 288.94C264.119 288.944 264.197 288.972 264.261 289.021C264.324 289.07 264.372 289.137 264.396 289.214C264.42 289.291 264.421 289.373 264.397 289.45L264.361 289.57C264.56 289.271 264.784 288.97 265.04 288.645C265.093 288.578 265.166 288.53 265.248 288.509C265.331 288.487 265.418 288.493 265.497 288.525C265.576 288.557 265.642 288.614 265.686 288.687C265.729 288.76 265.748 288.846 265.739 288.93L265.293 293.258C265.286 293.328 265.261 293.394 265.22 293.45C265.179 293.506 265.124 293.551 265.06 293.579C264.996 293.607 264.927 293.618 264.857 293.61C264.788 293.602 264.722 293.576 264.667 293.535C264.351 293.308 264.07 293.035 263.833 292.727C263.703 293.301 263.603 293.882 263.534 294.467C263.525 294.534 263.5 294.598 263.459 294.652C263.419 294.706 263.365 294.749 263.304 294.777C263.242 294.804 263.174 294.815 263.107 294.809C263.04 294.803 262.975 294.779 262.919 294.741C262.454 294.411 262.043 294.012 261.7 293.557C261.52 294.222 261.474 294.915 261.566 295.598C261.579 295.676 261.567 295.756 261.534 295.828C261.5 295.9 261.445 295.96 261.377 296C261.309 296.04 261.23 296.059 261.15 296.054C261.071 296.048 260.996 296.019 260.933 295.97C260.516 295.648 260.141 295.275 259.816 294.86C259.712 295.577 259.66 296.301 259.66 297.026C259.659 297.103 259.636 297.178 259.593 297.242C259.551 297.306 259.49 297.356 259.419 297.386C259.348 297.416 259.27 297.425 259.194 297.411C259.119 297.397 259.049 297.361 258.993 297.308C258.385 296.725 257.938 296.281 257.619 295.805C257.542 296.323 257.577 296.851 257.72 297.354C257.746 297.454 257.732 297.561 257.68 297.651C257.627 297.741 257.542 297.807 257.441 297.834C257.409 297.843 257.376 297.849 257.343 297.849ZM257.943 294.665C258.11 295.196 258.403 295.592 258.903 296.105C258.942 295.325 259.049 294.549 259.225 293.788C259.099 293.449 259.018 293.095 258.985 292.735C258.569 293.34 258.219 293.987 257.939 294.665H257.943ZM260.053 293.743C260.227 294.105 260.458 294.437 260.738 294.725C260.77 294.016 260.907 293.316 261.145 292.648C261.014 292.382 260.911 292.103 260.837 291.816C260.488 292.419 260.223 293.068 260.049 293.743H260.053ZM262.012 292.61C262.238 293.005 262.521 293.363 262.852 293.675C262.953 292.962 263.12 292.26 263.349 291.578C263.292 291.189 263.297 290.792 263.363 290.404C262.782 291.052 262.323 291.799 262.009 292.61H262.012ZM264.172 291.633C264.248 291.924 264.394 292.193 264.597 292.415L264.812 290.338C264.557 290.749 264.342 291.183 264.167 291.633H264.172Z" fill="#003959"/>
<path d="M146.441 316.544L203.056 296.904L248.916 302.461C248.916 302.461 255.83 296.443 257.524 292.5L201.604 268.975L157.997 268.182L130.82 274.046L146.441 316.544Z" fill="#002D46"/>
<path d="M118.964 388.787L118.661 389.739C118.661 389.739 115.436 392.019 108.402 396.621C104.718 399.031 96.5224 399.01 95.1016 397.308C96.1816 391.513 97.9936 389.877 102.117 388.096C105.436 386.663 113.782 385.344 113.782 385.344L118.964 388.787Z" fill="#00365C"/>
<path d="M118.258 383.609C117.606 385.251 119.578 387.242 118.964 388.788C118.964 388.788 115.855 390.966 108.822 395.569C105.139 397.978 97.34 397.814 95.924 396.112C94.8344 393.584 96.4208 389.334 102.536 387.044C104.576 386.279 108.883 385.162 111.986 384.393C114.036 383.885 112.447 381.479 112.447 381.479L118.258 383.609Z" fill="#00C7C7"/>
<path d="M104.47 391.166C104.389 391.166 104.31 391.142 104.243 391.095L100.418 388.411C100.347 388.362 100.294 388.292 100.267 388.211C100.239 388.129 100.239 388.041 100.266 387.96C100.293 387.879 100.346 387.808 100.417 387.76C100.487 387.711 100.572 387.687 100.658 387.69C101.171 387.712 101.64 387.754 102.077 387.816C101.982 387.772 101.883 387.726 101.78 387.681C101.706 387.648 101.644 387.594 101.602 387.526C101.56 387.457 101.54 387.378 101.545 387.297C101.55 387.217 101.579 387.14 101.628 387.077C101.678 387.014 101.746 386.967 101.823 386.944C102.923 386.608 104.26 386.649 105.543 386.977C105.359 386.699 105.122 386.459 104.844 386.273C104.773 386.227 104.717 386.16 104.687 386.08C104.657 386.001 104.653 385.913 104.677 385.832C104.7 385.75 104.75 385.678 104.818 385.627C104.885 385.575 104.968 385.547 105.053 385.547C105.853 385.559 106.646 385.694 107.405 385.946C107.2 385.76 106.978 385.586 106.74 385.4C106.673 385.349 106.624 385.277 106.601 385.196C106.577 385.115 106.581 385.028 106.611 384.949C106.64 384.87 106.695 384.802 106.766 384.756C106.837 384.711 106.921 384.689 107.006 384.695C107.904 384.74 108.797 384.854 109.678 385.034C109.641 384.95 109.635 384.856 109.66 384.768C109.685 384.68 109.74 384.604 109.815 384.552C109.891 384.5 109.982 384.476 110.073 384.484C110.165 384.492 110.25 384.532 110.315 384.596C110.59 384.86 110.843 385.147 111.069 385.454C112.058 385.852 112.92 386.458 113.553 387.394C113.611 387.481 113.633 387.587 113.613 387.689C113.593 387.792 113.533 387.882 113.447 387.941C113.36 387.999 113.254 388.021 113.151 388.001C113.049 387.981 112.958 387.921 112.9 387.834C112.57 387.351 112.142 386.942 111.645 386.634C111.82 387.24 111.866 387.927 111.912 388.858C111.916 388.935 111.897 389.011 111.858 389.077C111.819 389.144 111.761 389.197 111.692 389.231C111.623 389.265 111.546 389.278 111.47 389.268C111.393 389.258 111.322 389.226 111.263 389.176C110.66 388.652 110.018 388.173 109.343 387.743C109.458 388.317 109.498 388.903 109.463 389.487C109.461 389.567 109.434 389.644 109.387 389.709C109.339 389.773 109.274 389.822 109.198 389.848C109.122 389.874 109.041 389.876 108.964 389.855C108.887 389.833 108.818 389.789 108.767 389.727C108.262 389.155 107.645 388.692 106.955 388.365C107.092 388.979 107.13 389.611 107.068 390.237C107.061 390.305 107.037 390.369 106.998 390.424C106.958 390.479 106.906 390.523 106.844 390.552C106.783 390.581 106.716 390.593 106.648 390.588C106.581 390.583 106.516 390.561 106.46 390.523C105.918 390.155 105.357 389.817 104.78 389.509C104.874 389.935 104.902 390.374 104.861 390.809C104.853 390.907 104.808 390.999 104.735 391.065C104.663 391.132 104.567 391.169 104.469 391.169L104.47 391.166ZM102.082 388.617L104.076 390.015C104.046 389.663 103.925 389.326 103.725 389.035C103.193 388.84 102.642 388.7 102.082 388.617ZM104.216 388.377C104.949 388.678 105.652 389.047 106.317 389.48C106.303 388.965 106.21 388.455 106.04 387.969C105.123 387.637 104.151 387.482 103.176 387.513C103.568 387.743 103.919 388.036 104.216 388.381V388.377ZM106.636 387.334C107.369 387.62 108.053 388.017 108.665 388.511C108.633 388.051 108.522 387.6 108.339 387.177C107.642 386.827 106.9 386.577 106.133 386.436C106.337 386.716 106.507 387.019 106.642 387.338L106.636 387.334ZM108.928 386.592C109.685 386.994 110.405 387.464 111.077 387.996C111.011 387.174 110.896 386.637 110.566 386.106C109.789 385.84 108.983 385.665 108.166 385.585C108.467 385.883 108.724 386.224 108.928 386.596V386.592Z" fill="#003959"/>
<path d="M113.264 316.545L109.215 385.258C109.215 385.258 123.418 385.932 127.026 382.445L167.684 275.359L113.324 294.55L113.264 316.545Z" fill="#002D46"/>
<path d="M76.8742 173.372C66.3142 155.598 78.9562 139.429 92.1898 128.545C161.979 71.14 189.87 251.663 170.7 278.223C151.53 304.783 110.261 298.708 110.261 298.708C110.261 298.708 120.375 246.588 76.8742 173.372Z" fill="#00C7C7"/>
<path d="M150.214 138.323C139.88 121.303 117.08 111.959 117.08 111.959C117.08 111.959 109.791 116.54 102.988 121.276C129.337 135.277 136.083 157.523 144.019 178.814L156.473 179.632L150.2 194.021C156.602 208.611 169.625 237.241 176.567 242.084C177.728 201.311 169.546 170.152 150.214 138.323Z" fill="#00B2B2"/>
<path d="M120.455 267.547L157.587 249.777C157.587 249.777 153.943 269.737 131.897 276.368C113.958 281.762 120.455 267.547 120.455 267.547Z" fill="#00B2B2"/>
<path d="M84.6947 258.531C84.5048 259.942 84.0672 261.309 83.4023 262.568C91.1543 264.535 96.6431 263.442 103.236 266.078C115.466 270.97 121.064 266.965 117.289 264.939C121.183 266.162 122.909 261.242 117.565 260.456C122.302 261.112 121.913 257.555 118.3 256.473C123.29 255.859 123.244 250.742 112.393 249.938C109.782 249.745 110.687 248.799 109.214 247.325C106.289 244.4 104.174 248.098 100.362 248.097C99.3791 248.097 93.7619 247.63 84.9779 245.527C84.9419 249.847 85.2383 254.107 84.6947 258.531Z" fill="#FABCC6"/>
<path d="M98.1458 247.447C92.2994 246.156 87.1514 245.336 82.619 243.182L72.4922 264.475C72.4922 264.475 80.2562 266.418 85.0538 266.86C89.8514 267.301 95.8106 267.187 95.8106 267.187C95.8106 267.187 98.543 267.162 99.9422 257.799C100.708 252.684 98.1458 247.447 98.1458 247.447Z" fill="#E3F5FF"/>
<path d="M53.4797 225.02C54.3701 216.028 78.4529 217.788 97.648 201.042C112.888 187.752 120.195 115.676 94.9877 126.352C61.0793 140.715 1.15966 182.425 2.37766 220.072C3.74326 262.428 80.8169 274.813 80.8169 274.813C87.0569 272.679 95.5769 255.411 89.5913 244.447C89.5913 244.447 52.5425 234.509 53.4797 225.02Z" fill="#00B2B2"/>
<path d="M289.004 101C290.109 101 291.005 100.105 291.005 99C291.005 97.8954 290.108 97 289.002 97C287.896 97 287 97.8954 287.001 99C287.001 100.105 287.898 101 289.004 101Z" fill="white"/>
<path d="M67.0036 263C68.1094 263 69.0055 262.105 69.0051 261C69.0047 259.895 68.1079 259 67.0022 259C65.8964 259 65.0003 259.895 65.0007 261C65.0011 262.105 65.8979 263 67.0036 263Z" fill="white"/>
<path d="M74.0036 265C75.1094 265 76.0055 264.105 76.0051 263C76.0047 261.895 75.1079 261 74.0022 261C72.8964 261 72.0003 261.895 72.0007 263C72.0011 264.105 72.8979 265 74.0036 265Z" fill="white"/>
<path d="M292.004 93C293.109 93 294.005 92.1046 294.005 91C294.005 89.8954 293.108 89 292.002 89C290.896 89 290 89.8954 290.001 91C290.001 92.1046 290.898 93 292.004 93Z" fill="white"/>
<path d="M288 0H284V271.619L288 275V0Z" fill="#005280"/>
<rect width="68" height="34" transform="matrix(-1 0 0 1 352 0)" fill="#005280"/>
<path d="M341.325 12.9133C342.646 13.5224 343.29 14.6446 343.29 16.2796C343.29 17.017 343.129 17.6582 342.807 18.2353C342.485 18.8124 342.002 19.2933 341.39 19.678C340.778 20.0627 340.037 20.3513 339.2 20.5757C338.331 20.8001 337.397 20.8963 336.335 20.8963H333.244L323.52 5.98828H335.24C337.784 5.98828 339.715 6.30888 340.939 6.95009C342.195 7.59129 342.807 8.61722 342.807 10.0599C342.807 10.6691 342.678 11.2141 342.42 11.695C342.163 12.1118 341.808 12.5286 341.325 12.9133ZM333.855 11.5026H335.691C336.657 11.5026 337.301 11.4065 337.623 11.2462C337.945 11.0538 338.106 10.7332 338.106 10.2844C338.106 9.89963 337.912 9.64315 337.558 9.45079C337.204 9.25843 336.463 9.16225 335.369 9.16225H333.823V11.5026H333.855ZM333.855 14.6766V17.562H335.948C336.914 17.562 337.59 17.4338 337.977 17.2094C338.363 16.985 338.556 16.6002 338.556 16.0552C338.556 15.1255 337.623 14.6446 335.787 14.6446H333.855V14.6766Z" fill="white"/>
<path d="M320.879 9.1582L314.117 20.8281H321.426H328.703L320.879 9.1582Z" fill="#1AE3E3"/>
<path d="M314.472 5.98828H318.271L309.707 20.8322L305.843 14.3239L301.947 20.8322L300.176 17.5941L306.841 5.98828H310.64L307.742 10.9897L309.61 14.1957L314.472 5.98828Z" fill="white"/>
<path d="M293.383 5.98828H302.881L298.116 14.1957L293.383 5.98828Z" fill="white"/>
<path fill-rule="evenodd" clip-rule="evenodd" d="M309.766 24.2309L309.927 24.3912C309.96 24.4072 309.984 24.4312 310.008 24.4553C310.032 24.4793 310.056 24.5034 310.088 24.5194C310.141 24.4847 310.193 24.4406 310.25 24.3922L310.25 24.3922L310.25 24.3922L310.25 24.3922C310.299 24.3511 310.351 24.307 310.41 24.2629C310.459 24.2148 310.507 24.1587 310.555 24.1026C310.604 24.0465 310.652 23.9904 310.7 23.9423L310.7 23.9423C310.604 23.8461 310.507 23.75 310.41 23.6217C310.314 23.5255 310.185 23.4294 310.088 23.3652C310.075 23.3785 310.056 23.3918 310.034 23.4074C310.003 23.4294 309.965 23.4559 309.927 23.4935C309.886 23.5142 309.858 23.5483 309.826 23.5871C309.808 23.6083 309.789 23.6311 309.766 23.6538L309.605 23.8141C309.541 23.8782 309.509 23.9103 309.477 23.9744C309.493 24.0064 309.517 24.0305 309.541 24.0545C309.565 24.0786 309.589 24.1026 309.605 24.1347C309.638 24.1347 309.702 24.1667 309.766 24.2309ZM307.287 24.7085C307.48 24.6444 307.706 24.6123 307.963 24.6123V23.4902H308.994V27.3054H307.931V26.7604C307.834 26.9848 307.706 27.1451 307.577 27.2413C307.448 27.3375 307.287 27.3695 307.126 27.3695C306.997 27.3695 306.869 27.3375 306.772 27.2733C306.675 27.2092 306.579 27.113 306.514 27.0169C306.45 26.8886 306.386 26.7604 306.353 26.6321C306.321 26.5039 306.289 26.3436 306.289 26.1833C306.289 25.8947 306.321 25.6383 306.418 25.4459C306.514 25.2535 306.611 25.0932 306.772 24.965C306.901 24.8368 307.094 24.7726 307.287 24.7085ZM307.867 26.2795C307.899 26.1833 307.931 26.0871 307.963 25.9268C307.995 25.7986 308.028 25.6062 308.06 25.3818H307.931H307.834C307.706 25.3818 307.609 25.3818 307.545 25.4138C307.48 25.4138 307.416 25.4459 307.384 25.478C307.352 25.51 307.319 25.5741 307.319 25.6062C307.287 25.6383 307.287 25.7024 307.287 25.7665C307.287 25.7953 307.294 25.8306 307.301 25.8695C307.31 25.9171 307.319 25.97 307.319 26.023C307.334 26.0671 307.342 26.1112 307.35 26.1522C307.358 26.2006 307.366 26.2448 307.384 26.2795C307.416 26.3757 307.448 26.4398 307.48 26.4718C307.513 26.5039 307.577 26.536 307.609 26.536C307.641 26.536 307.706 26.5039 307.738 26.4718C307.802 26.4398 307.834 26.3757 307.867 26.2795L307.867 26.2795ZM301.588 26.2183L300.977 23.6855H299.914L299.334 26.2183H299.302L298.787 23.6855H297.66L298.497 27.2763H299.141H299.141C299.302 27.2763 299.463 27.2763 299.592 27.2442C299.721 27.2122 299.817 27.1801 299.914 27.116C300.011 27.0519 300.075 26.9557 300.139 26.8274C300.181 26.7446 300.209 26.6485 300.241 26.5389C300.259 26.4788 300.278 26.4147 300.3 26.3465L300.429 25.7695L300.783 27.2763H301.46H301.46C301.621 27.2763 301.782 27.2763 301.91 27.2442C302.039 27.2122 302.136 27.1801 302.232 27.116C302.329 27.0519 302.393 26.9557 302.458 26.8274C302.522 26.6992 302.554 26.5389 302.587 26.3465L303.07 23.6855H301.975L301.588 26.2183ZM304.874 24.6133C304.617 24.6133 304.391 24.6453 304.198 24.6774C304.005 24.7415 303.812 24.8056 303.651 24.9339C303.49 25.0621 303.393 25.2224 303.297 25.4148C303.2 25.6071 303.168 25.8636 303.168 26.1522C303.168 26.3125 303.2 26.4728 303.232 26.601C303.265 26.7293 303.329 26.8575 303.393 26.9857C303.458 27.0819 303.554 27.1781 303.651 27.2422C303.747 27.3063 303.876 27.3384 304.005 27.3384C304.166 27.3384 304.327 27.3063 304.456 27.2102C304.585 27.114 304.713 26.9537 304.81 26.7293V27.2743H305.872V24.6453C305.679 24.6133 305.486 24.6133 305.325 24.6133H305.325H304.874ZM304.842 25.9277C304.81 26.088 304.778 26.1842 304.746 26.2804L304.746 26.2804C304.713 26.3766 304.681 26.4407 304.617 26.4728C304.585 26.5048 304.52 26.5369 304.488 26.5369C304.456 26.5369 304.391 26.5048 304.359 26.4728C304.327 26.4407 304.295 26.3766 304.263 26.2804C304.245 26.2457 304.237 26.2016 304.228 26.1532C304.221 26.1121 304.213 26.068 304.198 26.0239C304.198 25.971 304.188 25.918 304.18 25.8704C304.173 25.8316 304.166 25.7963 304.166 25.7674C304.166 25.7033 304.166 25.6392 304.198 25.6071C304.198 25.5751 304.23 25.511 304.263 25.4789C304.295 25.4468 304.359 25.4148 304.424 25.4148C304.488 25.3827 304.585 25.3827 304.713 25.3827H304.713H304.81H304.939C304.907 25.6071 304.874 25.7995 304.842 25.9277ZM319.33 23.8779C319.395 23.942 319.459 24.0382 319.524 24.1664C319.565 24.2278 319.606 24.3151 319.655 24.4203C319.683 24.48 319.714 24.5456 319.749 24.6153L320.522 27.2763H319.427L319.169 26.4427H318.236L318.01 27.2763H316.916H310.637H309.574V24.6473H310.637V26.2183H317.205L317.881 23.6855H318.622C318.783 23.6855 318.912 23.6855 319.041 23.7176C319.137 23.7497 319.234 23.8138 319.33 23.8779ZM318.59 24.7435L318.364 25.6733H318.88L318.622 24.7435H318.59ZM329.215 25.4138C329.344 25.3177 329.441 25.2215 329.505 25.0932C329.57 24.965 329.602 24.8368 329.602 24.6765C329.602 24.3879 329.505 24.1314 329.28 23.9391C329.054 23.7467 328.765 23.6826 328.378 23.6826H326.64V26.2154H321.906V23.4902H320.844V27.2733H321.778H321.906H326.64H327.283H327.734V26.7924C327.831 26.9848 327.927 27.1451 328.088 27.2092C328.217 27.2733 328.41 27.3375 328.604 27.3375C328.797 27.3375 328.958 27.3054 329.119 27.2413L329.119 27.2413C329.248 27.1771 329.376 27.113 329.473 27.0169C329.57 26.9207 329.634 26.8245 329.698 26.6963C329.731 26.568 329.763 26.4398 329.763 26.2795C329.763 26.1192 329.731 25.9589 329.634 25.7986C329.537 25.6383 329.409 25.51 329.215 25.4138ZM327.766 24.6123H328.185C328.282 24.6123 328.346 24.6123 328.41 24.6444C328.475 24.6765 328.507 24.7406 328.507 24.8368C328.507 24.9129 328.487 24.9488 328.463 24.9923L328.462 24.9923C328.456 25.0038 328.449 25.0158 328.443 25.0291C328.378 25.0612 328.314 25.0932 328.217 25.0932H327.766V24.6123ZM328.507 26.3115C328.443 26.3436 328.378 26.3757 328.282 26.3757H327.702V25.8947H328.282C328.378 25.8947 328.443 25.9268 328.507 25.9589C328.571 25.9909 328.571 26.055 328.571 26.1512C328.604 26.2153 328.571 26.2795 328.507 26.3115ZM331.081 24.6774C331.274 24.6453 331.5 24.6133 331.757 24.6133H332.208C332.369 24.6133 332.562 24.6133 332.755 24.6453V27.2743H331.693V26.7293C331.596 26.9537 331.467 27.114 331.339 27.2102C331.21 27.3063 331.049 27.3384 330.888 27.3384C330.759 27.3384 330.63 27.3063 330.534 27.2422C330.437 27.1781 330.341 27.0819 330.276 26.9857C330.212 26.8575 330.147 26.7293 330.115 26.601C330.083 26.4728 330.051 26.3125 330.051 26.1522C330.051 25.8636 330.083 25.6071 330.18 25.4148C330.276 25.2224 330.373 25.0621 330.534 24.9339C330.695 24.8056 330.888 24.7415 331.081 24.6774ZM331.628 26.2804C331.661 26.1842 331.693 26.088 331.725 25.9277C331.757 25.7995 331.789 25.6071 331.822 25.3827H331.693H331.596C331.467 25.3827 331.371 25.3827 331.306 25.4148C331.242 25.4148 331.178 25.4468 331.145 25.4789C331.113 25.511 331.081 25.5751 331.081 25.6071C331.049 25.6392 331.049 25.7033 331.049 25.7674C331.049 25.7963 331.055 25.8316 331.063 25.8704L331.063 25.8705C331.071 25.9181 331.081 25.971 331.081 26.0239C331.096 26.068 331.104 26.1121 331.111 26.1531L331.111 26.1532C331.12 26.2016 331.128 26.2457 331.145 26.2804C331.178 26.3766 331.21 26.4407 331.242 26.4728C331.274 26.5048 331.339 26.5369 331.371 26.5369C331.403 26.5369 331.467 26.5048 331.5 26.4728C331.564 26.4407 331.596 26.3766 331.628 26.2804ZM334.85 24.6123C334.592 24.6123 334.367 24.6444 334.174 24.7085C333.981 24.7726 333.788 24.8368 333.659 24.965C333.498 25.0932 333.401 25.2535 333.305 25.4459C333.208 25.6383 333.176 25.8947 333.176 26.1833C333.176 26.3436 333.208 26.5039 333.24 26.6321C333.272 26.7604 333.337 26.8886 333.401 27.0169C333.466 27.113 333.562 27.2092 333.659 27.2733C333.755 27.3375 333.884 27.3695 334.013 27.3695C334.174 27.3695 334.335 27.3375 334.464 27.2413C334.592 27.1451 334.721 26.9848 334.818 26.7604V27.3054H335.88V23.4902H334.818V24.6123H334.85ZM334.85 25.9268C334.818 26.0871 334.786 26.1833 334.753 26.2795C334.721 26.3757 334.689 26.4398 334.625 26.4718C334.592 26.5039 334.528 26.536 334.496 26.536C334.464 26.536 334.399 26.5039 334.367 26.4718C334.335 26.4398 334.303 26.3757 334.27 26.2795C334.253 26.2448 334.245 26.2006 334.236 26.1522L334.236 26.1522C334.229 26.1112 334.221 26.0671 334.206 26.023C334.206 25.9701 334.196 25.9171 334.188 25.8695L334.188 25.8695C334.18 25.8306 334.174 25.7953 334.174 25.7665C334.174 25.7024 334.174 25.6383 334.206 25.6062C334.206 25.5741 334.238 25.51 334.27 25.478C334.303 25.4459 334.367 25.4138 334.431 25.4138C334.496 25.3818 334.592 25.3818 334.721 25.3818H334.818H334.947C334.914 25.6062 334.882 25.7986 334.85 25.9268ZM338.003 24.6133H338.486C338.567 24.6133 338.655 24.6213 338.744 24.6293C338.832 24.6373 338.921 24.6453 339.001 24.6453V27.2743H337.939V26.7293C337.842 26.9537 337.713 27.114 337.585 27.2102C337.456 27.3063 337.295 27.3384 337.134 27.3384C337.005 27.3384 336.876 27.3063 336.78 27.2422C336.683 27.1781 336.587 27.0819 336.522 26.9857C336.458 26.8575 336.393 26.7293 336.361 26.601C336.329 26.4728 336.297 26.3125 336.297 26.1522C336.297 25.8636 336.329 25.6071 336.426 25.4148C336.522 25.2224 336.619 25.0621 336.78 24.9339C336.941 24.8056 337.134 24.7415 337.327 24.6774C337.52 24.6453 337.746 24.6133 338.003 24.6133ZM337.874 26.2804C337.907 26.1842 337.939 26.088 337.971 25.9277C338.003 25.7995 338.035 25.6071 338.068 25.3827H337.939H337.842C337.713 25.3827 337.617 25.3827 337.553 25.4148C337.488 25.4148 337.424 25.4468 337.392 25.4789C337.359 25.511 337.327 25.5751 337.327 25.6071C337.295 25.6392 337.295 25.7033 337.295 25.7674C337.295 25.7963 337.301 25.8316 337.309 25.8704C337.317 25.918 337.327 25.971 337.327 26.0239C337.342 26.068 337.35 26.1121 337.357 26.1532C337.366 26.2016 337.374 26.2457 337.392 26.2804C337.424 26.3766 337.456 26.4407 337.488 26.4728C337.52 26.5048 337.585 26.5369 337.617 26.5369C337.649 26.5369 337.713 26.5048 337.746 26.4728C337.81 26.4407 337.842 26.3766 337.874 26.2804Z" fill="#1AE3E3"/>
<path d="M279.68 54.7163C281.552 51.1804 284.511 48.9972 287.632 47.0156C287.632 47.0156 290.006 50.1566 286.14 54.7163C282.275 59.276 282.809 61.4904 282.809 61.4904L279.68 54.7163Z" fill="#FABCC6"/>
<path d="M291.955 46.8884C288.568 44.968 282.808 52.6099 283.411 56.4902C284.015 60.3706 295.342 48.8003 291.955 46.8884Z" fill="#FABCC6"/>
<path d="M294.367 52.8594C291.444 50.2921 284.243 56.5873 284.037 60.5145C283.832 64.4416 297.29 55.4279 294.367 52.8594Z" fill="#FABCC6"/>
<path d="M296.294 58.6513C293.933 55.5595 285.636 60.3172 284.663 64.1267C283.69 67.9363 298.657 61.7431 296.294 58.6513Z" fill="#FABCC6"/>
<path d="M295.77 63.3469C293.641 60.5347 286.103 64.8148 285.21 68.2678C284.317 71.7209 297.899 66.159 295.77 63.3469Z" fill="#FABCC6"/>
</g>
<defs>
<linearGradient id="paint0_linear_5228_157" x1="285" y1="271" x2="285" y2="455" gradientUnits="userSpaceOnUse">
<stop stop-color="#004166"/>
<stop offset="1" stop-color="#004F7B" stop-opacity="0.1"/>
</linearGradient>
<linearGradient id="paint1_linear_5228_157" x1="284" y1="271" x2="312.237" y2="443.222" gradientUnits="userSpaceOnUse">
<stop stop-color="#005484" stop-opacity="0.4"/>
<stop offset="1" stop-color="#00507D" stop-opacity="0.16"/>
</linearGradient>
<linearGradient id="paint2_linear_5228_157" x1="281.5" y1="271" x2="158" y2="455" gradientUnits="userSpaceOnUse">
<stop stop-color="#004368"/>
<stop offset="1" stop-color="#004F7B" stop-opacity="0.16"/>
</linearGradient>
<clipPath id="clip0_5228_157">
<rect width="510" height="435" fill="white"/>
</clipPath>
<clipPath id="clip1_5228_157">
<rect width="192" height="136" fill="white" transform="matrix(-1 0 0 -1 510 215)"/>
</clipPath>
</defs>
</svg>
