<svg width="505" height="649" viewBox="0 0 505 649" fill="none" xmlns="http://www.w3.org/2000/svg">
<g clip-path="url(#clip0_5168_55273)">
<path d="M131.75 475.25V0.75H309.199V475.25H131.75Z" stroke="#BADDF0" stroke-width="1.5"/>
<path d="M298.77 16.6235H142.178V453.635H298.77V16.6235Z" fill="#E3F5FF"/>
<path d="M295.182 23.4126H145.764V44.8649H295.182V23.4126Z" fill="white"/>
<path d="M181.312 32.5166H151.441V40.8633H181.312V32.5166Z" fill="#BADDF0"/>
<path d="M216.784 32.5166H186.914V40.8633H216.784V32.5166Z" fill="#BADDF0"/>
<path d="M252.257 32.5166H222.387V40.8633H252.257V32.5166Z" fill="#BADDF0"/>
<path d="M287.73 32.5166H257.859V40.8633H287.73V32.5166Z" fill="#BADDF0"/>
<path d="M295.182 53.7986H145.764V75.2509H295.182V53.7986Z" fill="white"/>
<path d="M181.312 62.9026H151.441V71.2493H181.312V62.9026Z" fill="#BADDF0"/>
<path d="M216.784 62.9026H186.914V71.2493H216.784V62.9026Z" fill="#BADDF0"/>
<path d="M252.257 62.9026H222.387V71.2493H252.257V62.9026Z" fill="#BADDF0"/>
<path d="M287.73 62.9026H257.859V71.2493H287.73V62.9026Z" fill="#BADDF0"/>
<path d="M295.182 84.1848H145.764V105.637H295.182V84.1848Z" fill="white"/>
<path d="M181.312 93.2888H151.441V101.636H181.312V93.2888Z" fill="#BADDF0"/>
<path d="M216.784 93.2888H186.914V101.636H216.784V93.2888Z" fill="#BADDF0"/>
<path d="M252.257 93.2888H222.387V101.636H252.257V93.2888Z" fill="#BADDF0"/>
<path d="M287.73 93.2888H257.859V101.636H287.73V93.2888Z" fill="#BADDF0"/>
<path d="M295.182 114.573H145.764V136.025H295.182V114.573Z" fill="white"/>
<path d="M181.312 123.677H151.441V132.023H181.312V123.677Z" fill="#BADDF0"/>
<path d="M216.784 123.677H186.914V132.023H216.784V123.677Z" fill="#BADDF0"/>
<path d="M252.257 123.677H222.387V132.023H252.257V123.677Z" fill="#BADDF0"/>
<path d="M287.73 123.677H257.859V132.023H287.73V123.677Z" fill="#BADDF0"/>
<path d="M295.182 144.958H145.764V166.411H295.182V144.958Z" fill="white"/>
<path d="M181.312 154.063H151.441V162.409H181.312V154.063Z" fill="#BADDF0"/>
<path d="M216.784 154.063H186.914V162.409H216.784V154.063Z" fill="#BADDF0"/>
<path d="M252.257 154.063H222.387V162.409H252.257V154.063Z" fill="#BADDF0"/>
<path d="M287.73 154.063H257.859V162.409H287.73V154.063Z" fill="#BADDF0"/>
<path d="M295.182 175.345H145.764V196.797H295.182V175.345Z" fill="white"/>
<path d="M181.312 184.449H151.441V192.795H181.312V184.449Z" fill="#BADDF0"/>
<path d="M216.784 184.449H186.914V192.795H216.784V184.449Z" fill="#BADDF0"/>
<path d="M252.257 184.449H222.387V192.795H252.257V184.449Z" fill="#BADDF0"/>
<path d="M287.73 184.449H257.859V192.795H287.73V184.449Z" fill="#BADDF0"/>
<path d="M295.182 205.731H145.764V227.183H295.182V205.731Z" fill="white"/>
<path d="M181.312 214.836H151.441V223.183H181.312V214.836Z" fill="#BADDF0"/>
<path d="M216.784 214.836H186.914V223.183H216.784V214.836Z" fill="#BADDF0"/>
<path d="M252.257 214.836H222.387V223.183H252.257V214.836Z" fill="#BADDF0"/>
<path d="M287.73 214.836H257.859V223.183H287.73V214.836Z" fill="#BADDF0"/>
<path d="M295.182 236.119H145.764V257.571H295.182V236.119Z" fill="white"/>
<path d="M181.312 245.223H151.441V253.569H181.312V245.223Z" fill="#BADDF0"/>
<path d="M216.784 245.223H186.914V253.569H216.784V245.223Z" fill="#BADDF0"/>
<path d="M252.257 245.223H222.387V253.569H252.257V245.223Z" fill="#BADDF0"/>
<path d="M287.73 245.223H257.859V253.569H287.73V245.223Z" fill="#BADDF0"/>
<path d="M295.182 266.505H145.764V287.957H295.182V266.505Z" fill="white"/>
<path d="M181.312 275.609H151.441V283.956H181.312V275.609Z" fill="#BADDF0"/>
<path d="M216.784 275.609H186.914V283.956H216.784V275.609Z" fill="#BADDF0"/>
<path d="M252.257 275.609H222.387V283.956H252.257V275.609Z" fill="#BADDF0"/>
<path d="M287.73 275.609H257.859V283.956H287.73V275.609Z" fill="#BADDF0"/>
<path d="M295.182 296.891H145.764V318.343H295.182V296.891Z" fill="white"/>
<path d="M181.312 305.995H151.441V314.342H181.312V305.995Z" fill="#BADDF0"/>
<path d="M216.784 305.995H186.914V314.342H216.784V305.995Z" fill="#BADDF0"/>
<path d="M252.257 305.995H222.387V314.342H252.257V305.995Z" fill="#BADDF0"/>
<path d="M287.73 305.995H257.859V314.342H287.73V305.995Z" fill="#BADDF0"/>
<path d="M295.182 327.279H145.764V348.731H295.182V327.279Z" fill="white"/>
<path d="M181.312 336.383H151.441V344.729H181.312V336.383Z" fill="#BADDF0"/>
<path d="M216.784 336.383H186.914V344.729H216.784V336.383Z" fill="#BADDF0"/>
<path d="M252.257 336.383H222.387V344.729H252.257V336.383Z" fill="#BADDF0"/>
<path d="M287.73 336.383H257.859V344.729H287.73V336.383Z" fill="#BADDF0"/>
<path d="M295.182 357.665H145.764V379.117H295.182V357.665Z" fill="white"/>
<path d="M181.312 366.769H151.441V375.116H181.312V366.769Z" fill="#BADDF0"/>
<path d="M216.784 366.769H186.914V375.116H216.784V366.769Z" fill="#BADDF0"/>
<path d="M252.257 366.769H222.387V375.116H252.257V366.769Z" fill="#BADDF0"/>
<path d="M287.73 366.769H257.859V375.116H287.73V366.769Z" fill="#BADDF0"/>
<path d="M295.182 388.051H145.764V409.503H295.182V388.051Z" fill="white"/>
<path d="M181.312 397.155H151.441V405.502H181.312V397.155Z" fill="#BADDF0"/>
<path d="M216.784 397.155H186.914V405.502H216.784V397.155Z" fill="#BADDF0"/>
<path d="M252.257 397.155H222.387V405.502H252.257V397.155Z" fill="#BADDF0"/>
<path d="M287.73 397.155H257.859V405.502H287.73V397.155Z" fill="#BADDF0"/>
<path d="M295.182 418.438H145.764V439.891H295.182V418.438Z" fill="white"/>
<path d="M181.312 427.542H151.441V435.889H181.312V427.542Z" fill="#BADDF0"/>
<path d="M216.784 427.542H186.914V435.889H216.784V427.542Z" fill="#BADDF0"/>
<path d="M252.257 427.542H222.387V435.889H252.257V427.542Z" fill="#BADDF0"/>
<path d="M287.73 427.542H257.859V435.889H287.73V427.542Z" fill="#BADDF0"/>
<path d="M326.801 475.25V0.75H504.249V475.25H326.801Z" stroke="#BADDF0" stroke-width="1.5"/>
<path d="M493.823 16.6235H337.23V453.635H493.823V16.6235Z" fill="#E3F5FF"/>
<path d="M490.235 23.4126H340.816V44.8649H490.235V23.4126Z" fill="white"/>
<path d="M376.366 32.5166H346.496V40.8633H376.366V32.5166Z" fill="#BADDF0"/>
<path d="M411.837 32.5166H381.967V40.8633H411.837V32.5166Z" fill="#BADDF0"/>
<path d="M447.308 32.5166H417.438V40.8633H447.308V32.5166Z" fill="#BADDF0"/>
<path d="M482.781 32.5166H452.91V40.8633H482.781V32.5166Z" fill="#BADDF0"/>
<path d="M490.235 53.7986H340.816V75.2509H490.235V53.7986Z" fill="white"/>
<path d="M376.366 62.9026H346.496V71.2493H376.366V62.9026Z" fill="#BADDF0"/>
<path d="M411.837 62.9026H381.967V71.2493H411.837V62.9026Z" fill="#BADDF0"/>
<path d="M447.308 62.9026H417.438V71.2493H447.308V62.9026Z" fill="#BADDF0"/>
<path d="M482.781 62.9026H452.91V71.2493H482.781V62.9026Z" fill="#BADDF0"/>
<path d="M490.235 84.1848H340.816V105.637H490.235V84.1848Z" fill="white"/>
<path d="M376.366 93.2888H346.496V101.636H376.366V93.2888Z" fill="#BADDF0"/>
<path d="M411.837 93.2888H381.967V101.636H411.837V93.2888Z" fill="#BADDF0"/>
<path d="M447.308 93.2888H417.438V101.636H447.308V93.2888Z" fill="#BADDF0"/>
<path d="M482.781 93.2888H452.91V101.636H482.781V93.2888Z" fill="#BADDF0"/>
<path d="M490.235 114.573H340.816V136.025H490.235V114.573Z" fill="white"/>
<path d="M376.366 123.677H346.496V132.023H376.366V123.677Z" fill="#BADDF0"/>
<path d="M411.837 123.677H381.967V132.023H411.837V123.677Z" fill="#BADDF0"/>
<path d="M447.308 123.677H417.438V132.023H447.308V123.677Z" fill="#BADDF0"/>
<path d="M482.781 123.677H452.91V132.023H482.781V123.677Z" fill="#BADDF0"/>
<path d="M490.235 144.958H340.816V166.411H490.235V144.958Z" fill="white"/>
<path d="M376.366 154.063H346.496V162.409H376.366V154.063Z" fill="#BADDF0"/>
<path d="M411.837 154.063H381.967V162.409H411.837V154.063Z" fill="#BADDF0"/>
<path d="M447.308 154.063H417.438V162.409H447.308V154.063Z" fill="#BADDF0"/>
<path d="M482.781 154.063H452.91V162.409H482.781V154.063Z" fill="#BADDF0"/>
<path d="M490.235 175.345H340.816V196.797H490.235V175.345Z" fill="white"/>
<path d="M376.366 184.449H346.496V192.795H376.366V184.449Z" fill="#BADDF0"/>
<path d="M411.837 184.449H381.967V192.795H411.837V184.449Z" fill="#BADDF0"/>
<path d="M447.308 184.449H417.438V192.795H447.308V184.449Z" fill="#BADDF0"/>
<path d="M482.781 184.449H452.91V192.795H482.781V184.449Z" fill="#BADDF0"/>
<path d="M490.235 205.731H340.816V227.183H490.235V205.731Z" fill="white"/>
<path d="M376.366 214.836H346.496V223.183H376.366V214.836Z" fill="#BADDF0"/>
<path d="M411.837 214.836H381.967V223.183H411.837V214.836Z" fill="#BADDF0"/>
<path d="M447.308 214.836H417.438V223.183H447.308V214.836Z" fill="#BADDF0"/>
<path d="M482.781 214.836H452.91V223.183H482.781V214.836Z" fill="#BADDF0"/>
<path d="M490.235 236.119H340.816V257.571H490.235V236.119Z" fill="white"/>
<path d="M376.366 245.223H346.496V253.569H376.366V245.223Z" fill="#BADDF0"/>
<path d="M411.837 245.223H381.967V253.569H411.837V245.223Z" fill="#BADDF0"/>
<path d="M447.308 245.223H417.438V253.569H447.308V245.223Z" fill="#BADDF0"/>
<path d="M482.781 245.223H452.91V253.569H482.781V245.223Z" fill="#BADDF0"/>
<path d="M490.235 266.505H340.816V287.957H490.235V266.505Z" fill="white"/>
<path d="M376.366 275.609H346.496V283.956H376.366V275.609Z" fill="#BADDF0"/>
<path d="M411.837 275.609H381.967V283.956H411.837V275.609Z" fill="#BADDF0"/>
<path d="M447.308 275.609H417.438V283.956H447.308V275.609Z" fill="#BADDF0"/>
<path d="M482.781 275.609H452.91V283.956H482.781V275.609Z" fill="#BADDF0"/>
<path d="M490.235 296.891H340.816V318.343H490.235V296.891Z" fill="white"/>
<path d="M376.366 305.995H346.496V314.342H376.366V305.995Z" fill="#BADDF0"/>
<path d="M411.837 305.995H381.967V314.342H411.837V305.995Z" fill="#BADDF0"/>
<path d="M447.308 305.995H417.438V314.342H447.308V305.995Z" fill="#BADDF0"/>
<path d="M482.781 305.995H452.91V314.342H482.781V305.995Z" fill="#BADDF0"/>
<path d="M490.235 327.279H340.816V348.731H490.235V327.279Z" fill="white"/>
<path d="M376.366 336.383H346.496V344.729H376.366V336.383Z" fill="#BADDF0"/>
<path d="M411.837 336.383H381.967V344.729H411.837V336.383Z" fill="#BADDF0"/>
<path d="M447.308 336.383H417.438V344.729H447.308V336.383Z" fill="#BADDF0"/>
<path d="M482.781 336.383H452.91V344.729H482.781V336.383Z" fill="#BADDF0"/>
<path d="M490.235 357.665H340.816V379.117H490.235V357.665Z" fill="white"/>
<path d="M376.366 366.769H346.496V375.116H376.366V366.769Z" fill="#BADDF0"/>
<path d="M411.837 366.769H381.967V375.116H411.837V366.769Z" fill="#BADDF0"/>
<path d="M447.308 366.769H417.438V375.116H447.308V366.769Z" fill="#BADDF0"/>
<path d="M482.781 366.769H452.91V375.116H482.781V366.769Z" fill="#BADDF0"/>
<path d="M490.235 388.051H340.816V409.503H490.235V388.051Z" fill="white"/>
<path d="M376.366 397.155H346.496V405.502H376.366V397.155Z" fill="#BADDF0"/>
<path d="M411.837 397.155H381.967V405.502H411.837V397.155Z" fill="#BADDF0"/>
<path d="M447.308 397.155H417.438V405.502H447.308V397.155Z" fill="#BADDF0"/>
<path d="M482.781 397.155H452.91V405.502H482.781V397.155Z" fill="#BADDF0"/>
<path d="M490.235 418.438H340.816V439.891H490.235V418.438Z" fill="white"/>
<path d="M376.366 427.542H346.496V435.889H376.366V427.542Z" fill="#BADDF0"/>
<path d="M411.837 427.542H381.967V435.889H411.837V427.542Z" fill="#BADDF0"/>
<path d="M447.308 427.542H417.438V435.889H447.308V427.542Z" fill="#BADDF0"/>
<path d="M482.781 427.542H452.91V435.889H482.781V427.542Z" fill="#BADDF0"/>
</g>
<path d="M221.03 278.698C206.75 267.502 227.273 236.539 236.622 219.41C243.389 207.012 247.997 201.077 251.363 202.609C254.913 204.225 245.895 219.757 245.895 219.757C245.895 219.757 257.039 202.373 260.651 204.325C264.556 206.437 252.353 223.123 252.353 223.123C252.353 223.123 263.427 205.558 266.535 208.141C268.734 209.968 259.091 228.2 259.091 228.2C259.091 228.2 268.634 216.254 270.683 217.812C272.869 219.475 262.501 237.251 256.594 247.236C252.326 254.453 226.029 282.616 221.03 278.698Z" fill="#FABCC6"/>
<path d="M100.966 279.069C100.966 279.069 166.674 317.727 190.473 329.52C214.513 341.433 257.843 248.661 257.843 248.661C259.64 239.141 243.221 225.836 229.273 227.782C221.242 242.01 210.293 262.824 200.328 276.26C197.14 280.561 192.822 281.575 189.509 279.552C166.716 265.642 122.139 234.481 122.139 234.481" fill="#00A9A9"/>
<path d="M226.077 599.407C226.077 599.407 281.828 627.812 284.281 633.862C286.734 639.912 285.879 642.299 283.144 642.223L183.326 639.469C181.702 639.423 180.457 637.98 180.66 636.378L186.895 587.182C187.115 585.442 188.92 584.4 190.565 585.061L225.605 599.162C225.77 599.227 225.926 599.309 226.075 599.407H226.077Z" fill="#00C7C7"/>
<path d="M270.698 633.379C270.513 633.379 270.328 633.317 270.175 633.19C269.828 632.901 269.781 632.385 270.07 632.039L275.385 625.664C275.673 625.317 276.189 625.27 276.536 625.56C276.882 625.849 276.93 626.365 276.639 626.711L271.325 633.086C271.163 633.281 270.931 633.38 270.696 633.38L270.698 633.379Z" fill="#003959"/>
<path d="M264.663 631.676C264.478 631.676 264.293 631.615 264.14 631.488C263.793 631.199 263.746 630.683 264.035 630.336L270.671 622.376C270.96 622.03 271.476 621.982 271.822 622.273C272.169 622.562 272.216 623.077 271.928 623.424L265.291 631.384C265.13 631.578 264.897 631.678 264.663 631.678V631.676Z" fill="#003959"/>
<path d="M257.614 630.162C257.429 630.162 257.244 630.1 257.091 629.973C256.744 629.684 256.697 629.169 256.986 628.822L264.89 619.342C265.178 618.995 265.694 618.948 266.041 619.239C266.388 619.527 266.435 620.043 266.146 620.39L258.242 629.87C258.081 630.064 257.848 630.164 257.614 630.164V630.162Z" fill="#003959"/>
<path d="M285.655 639.013L286.098 648.954L180.353 648.15L180.659 636.379L285.655 639.013Z" fill="#003959"/>
<path d="M180.163 632.173L105.193 355.695C96.9422 328.822 134.3 351.003 161.796 345.817L249.5 610.285C238.232 620.144 193.783 637.404 180.162 632.171L180.163 632.173Z" fill="#003959"/>
<g style="mix-blend-mode:multiply" opacity="0.5">
<path d="M189.519 495.29C175.827 436.43 129.811 287.923 106.121 275.003C86.9802 264.564 137.057 504.356 157.831 549.821C162.768 560.628 196.52 525.38 189.519 495.29Z" fill="#00283F"/>
</g>
<path d="M56.5727 558.749C56.5727 558.749 45.8854 618.308 41.061 622.337C36.2367 626.364 33.8418 626.28 33.17 623.746L8.67605 531.217C8.27841 529.712 9.25163 528.143 10.7587 527.862L57.0647 519.164C58.7025 518.857 60.1351 520.208 59.9808 521.915L56.6671 558.247C56.6508 558.418 56.6199 558.587 56.5727 558.752V558.749Z" fill="#00C7C7"/>
<path d="M47.22 593.908C47.22 594.093 47.1582 594.279 47.0311 594.431C46.7424 594.778 46.2268 594.825 45.88 594.537L39.505 589.222C39.1582 588.933 39.111 588.418 39.4015 588.071C39.6902 587.724 40.2059 587.677 40.5527 587.967L46.9276 593.282C47.1219 593.443 47.2218 593.676 47.2218 593.91L47.22 593.908Z" fill="#003959"/>
<path d="M45.518 599.943C45.518 600.129 45.4562 600.314 45.3291 600.466C45.0404 600.813 44.5248 600.86 44.178 600.572L36.2179 593.935C35.8711 593.647 35.8239 593.131 36.1144 592.784C36.4031 592.437 36.9188 592.39 37.2656 592.679L45.2257 599.315C45.4199 599.477 45.5198 599.709 45.5198 599.943L45.518 599.943Z" fill="#003959"/>
<path d="M44.0045 606.991C44.0045 607.176 43.9428 607.362 43.8157 607.514C43.527 607.861 43.0113 607.908 42.6645 607.62L33.1847 599.716C32.8379 599.427 32.7907 598.911 33.0812 598.565C33.3699 598.218 33.8856 598.171 34.2324 598.459L43.7122 606.363C43.9065 606.525 44.0063 606.757 44.0063 606.991L44.0045 606.991Z" fill="#003959"/>
<path d="M36.7617 625.109L27.8647 628.434L-0.000957489 531.032L10.7589 527.86L36.7617 625.109Z" fill="#003959"/>
<path d="M56.5749 559.565C56.9308 559.565 57.2576 559.331 57.3611 558.971C57.421 558.757 57.4628 558.537 57.4828 558.317C57.5245 557.869 57.1923 557.469 56.7438 557.43C56.2899 557.39 55.8958 557.72 55.8559 558.169C55.845 558.288 55.8232 558.408 55.7887 558.524C55.6652 558.958 55.9176 559.41 56.3516 559.534C56.426 559.556 56.5023 559.565 56.5749 559.565Z" fill="white"/>
<path d="M36.7626 625.926C36.8679 625.926 36.9732 625.906 37.0767 625.862C37.1493 625.832 38.8815 625.1 41.5687 622.975C42.3876 622.329 44.8806 620.361 51.4644 589.25C54.6927 574.004 57.3509 559.039 57.3781 558.89C57.4562 558.445 57.1602 558.022 56.7154 557.942C56.2723 557.864 55.8475 558.16 55.7676 558.605C55.7403 558.754 53.0858 573.695 49.8647 588.916C47.9745 597.848 46.2624 605.123 44.7753 610.543C42.3931 619.226 41.1093 621.256 40.5556 621.694C38.0662 623.66 36.4611 624.348 36.4448 624.355C36.029 624.53 35.8347 625.009 36.0091 625.425C36.1398 625.737 36.443 625.926 36.7626 625.926Z" fill="white"/>
<path d="M22.5143 523.513C22.5143 523.513 106.865 494.352 101.338 472.689C95.8109 451.028 68.2848 348.538 68.2848 348.538C74.4781 321.117 97.0347 326.835 127.52 321.86C127.52 321.86 168.61 447.031 176.764 490.928C184.062 530.218 59.2316 588.477 59.2316 588.477C44.5552 591.435 22.0713 544.039 22.5143 523.509V523.513Z" fill="#003959"/>
<path d="M78.7704 394.381C78.7704 394.381 55.6909 301.99 49.0073 261.01C42.3237 220.029 78.9375 216.895 97.5975 222.898C106.445 225.745 125.937 231.098 131.569 251.169C153.859 330.579 168.721 361.446 168.721 361.446C154.564 403.507 108.461 416.879 78.7704 394.381Z" fill="#00C7C7"/>
<path d="M154.215 284.821C154.261 284.821 154.308 284.821 154.353 284.821V229.631H213.963C213.961 229.493 213.958 229.355 213.958 229.217C213.958 212.529 227.487 199 244.175 199C260.863 199 274.392 212.529 274.392 229.217C274.392 229.355 274.388 229.493 274.386 229.631H333.996V283.719C317.371 283.794 303.917 297.292 303.917 313.934C303.917 330.577 317.371 344.075 333.996 344.15V409.276H274.666C274.592 392.651 261.094 379.197 244.451 379.197C227.808 379.197 214.31 392.651 214.235 409.276H154.353V345.254C154.308 345.254 154.261 345.254 154.215 345.254C137.527 345.254 123.998 331.725 123.998 315.037C123.998 298.348 137.527 284.82 154.215 284.82V284.821Z" fill="#003959"/>
<path d="M284.36 305.894C287.076 307.147 288.401 309.456 288.401 312.821C288.401 314.339 288.07 315.658 287.408 316.846C286.745 318.034 285.752 319.023 284.493 319.815C283.234 320.607 281.711 321.201 279.988 321.662C278.2 322.124 276.278 322.322 274.092 322.322H267.733L247.727 291.642H271.84C277.073 291.642 281.048 292.302 283.565 293.622C286.149 294.941 287.408 297.053 287.408 300.022C287.408 301.275 287.143 302.397 286.613 303.386C286.083 304.244 285.354 305.102 284.36 305.894ZM268.991 302.991H272.767C274.755 302.991 276.08 302.793 276.742 302.463C277.405 302.067 277.736 301.407 277.736 300.483C277.736 299.692 277.338 299.164 276.61 298.768C275.881 298.372 274.357 298.174 272.105 298.174H268.925V302.991H268.991ZM268.991 309.522V315.46H273.297C275.285 315.46 276.676 315.197 277.471 314.735C278.266 314.273 278.663 313.481 278.663 312.359C278.663 310.446 276.742 309.456 272.966 309.456H268.991V309.522Z" fill="white"/>
<path d="M242.294 298.166L228.383 322.182H243.421H258.392L242.294 298.166Z" fill="#1AE3E3"/>
<path d="M229.112 291.642H236.929L219.308 322.19L211.358 308.797L203.343 322.19L199.699 315.526L213.412 291.642H221.229L215.267 301.935L219.109 308.533L229.112 291.642Z" fill="white"/>
<path d="M185.721 291.642H205.263L195.459 308.533L185.721 291.642Z" fill="white"/>
<path fill-rule="evenodd" clip-rule="evenodd" d="M219.428 329.185L219.759 329.515C219.826 329.548 219.875 329.598 219.925 329.647C219.975 329.697 220.024 329.746 220.091 329.779C220.198 329.708 220.306 329.617 220.424 329.517L220.424 329.517L220.424 329.517L220.424 329.517C220.524 329.433 220.632 329.342 220.753 329.251C220.852 329.152 220.952 329.037 221.051 328.922C221.15 328.806 221.25 328.691 221.349 328.592L221.349 328.592C221.15 328.394 220.952 328.196 220.753 327.932C220.554 327.734 220.289 327.536 220.091 327.404C220.063 327.431 220.024 327.459 219.979 327.491C219.915 327.536 219.837 327.591 219.759 327.668C219.674 327.711 219.616 327.781 219.55 327.861L219.55 327.861C219.514 327.904 219.475 327.951 219.428 327.998L219.097 328.328C218.965 328.46 218.898 328.526 218.832 328.658C218.865 328.724 218.915 328.773 218.965 328.823C219.014 328.872 219.064 328.922 219.097 328.988C219.163 328.988 219.296 329.054 219.428 329.185ZM214.327 330.169C214.724 330.037 215.188 329.971 215.718 329.971V327.662H217.838V335.513H215.652V334.392C215.453 334.853 215.188 335.183 214.923 335.381C214.658 335.579 214.327 335.645 213.996 335.645C213.731 335.645 213.466 335.579 213.267 335.447C213.068 335.315 212.87 335.117 212.737 334.919C212.605 334.656 212.472 334.392 212.406 334.128C212.34 333.864 212.273 333.534 212.273 333.204C212.273 332.61 212.34 332.082 212.538 331.687C212.737 331.291 212.936 330.961 213.267 330.697C213.532 330.433 213.929 330.301 214.327 330.169ZM215.519 333.402C215.585 333.204 215.652 333.006 215.718 332.676C215.784 332.412 215.85 332.016 215.917 331.555H215.652H215.453C215.188 331.555 214.989 331.555 214.857 331.621C214.724 331.621 214.592 331.687 214.526 331.753C214.459 331.818 214.393 331.95 214.393 332.016C214.327 332.082 214.327 332.214 214.327 332.346C214.327 332.406 214.34 332.478 214.355 332.558L214.355 332.558L214.355 332.558C214.373 332.656 214.393 332.765 214.393 332.874C214.423 332.965 214.44 333.056 214.455 333.14C214.473 333.24 214.49 333.331 214.526 333.402C214.592 333.6 214.658 333.732 214.724 333.798C214.791 333.864 214.923 333.93 214.989 333.93C215.056 333.93 215.188 333.864 215.254 333.798C215.387 333.732 215.453 333.6 215.519 333.402L215.519 333.402ZM202.601 333.276L201.343 328.064H199.157L197.964 333.276H197.898L196.838 328.064H194.52L196.242 335.454H197.567H197.567C197.898 335.454 198.229 335.454 198.494 335.388C198.759 335.322 198.958 335.256 199.157 335.124C199.355 334.992 199.488 334.794 199.62 334.53C199.706 334.36 199.764 334.162 199.83 333.936L199.83 333.936C199.866 333.813 199.905 333.681 199.952 333.54L200.217 332.353L200.945 335.454H202.337H202.337C202.668 335.454 202.999 335.454 203.264 335.388C203.529 335.322 203.728 335.256 203.926 335.124C204.125 334.992 204.258 334.794 204.39 334.53C204.523 334.266 204.589 333.936 204.655 333.54L205.649 328.064H203.396L202.601 333.276ZM209.358 329.97C208.828 329.97 208.365 330.036 207.967 330.102C207.57 330.234 207.172 330.366 206.841 330.63C206.51 330.894 206.311 331.224 206.113 331.62C205.914 332.016 205.848 332.544 205.848 333.137C205.848 333.467 205.914 333.797 205.98 334.061C206.046 334.325 206.179 334.589 206.311 334.853C206.444 335.051 206.643 335.249 206.841 335.381C207.04 335.513 207.305 335.579 207.57 335.579C207.901 335.579 208.232 335.513 208.497 335.315C208.762 335.117 209.027 334.787 209.226 334.325V335.447H211.412V330.036C211.014 329.97 210.617 329.97 210.286 329.97H210.286H209.358ZM209.292 332.676C209.226 333.005 209.16 333.203 209.093 333.401L209.093 333.401C209.027 333.599 208.961 333.731 208.828 333.797C208.762 333.863 208.63 333.929 208.563 333.929C208.497 333.929 208.365 333.863 208.299 333.797C208.232 333.731 208.166 333.599 208.1 333.401C208.064 333.33 208.048 333.239 208.029 333.139C208.014 333.055 207.998 332.964 207.967 332.873C207.967 332.765 207.947 332.656 207.929 332.558C207.914 332.478 207.901 332.405 207.901 332.346C207.901 332.214 207.901 332.082 207.967 332.016C207.967 331.95 208.034 331.818 208.1 331.752C208.166 331.686 208.299 331.62 208.431 331.62C208.563 331.554 208.762 331.554 209.027 331.554H209.027H209.226H209.491C209.425 332.016 209.358 332.412 209.292 332.676ZM239.104 328.46C239.236 328.592 239.369 328.79 239.501 329.054C239.586 329.18 239.67 329.36 239.772 329.576C239.829 329.699 239.893 329.834 239.965 329.978L241.555 335.454H239.302L238.772 333.738H236.851L236.388 335.454H234.135H221.217H219.031V330.044H221.217V333.276H234.731L236.123 328.064H237.646C237.977 328.064 238.242 328.064 238.507 328.13C238.706 328.196 238.905 328.328 239.104 328.46ZM237.58 330.241L237.116 332.155H238.176L237.646 330.241H237.58ZM259.441 331.621C259.706 331.423 259.904 331.225 260.037 330.961C260.169 330.697 260.236 330.433 260.236 330.103C260.236 329.509 260.037 328.981 259.573 328.586C259.109 328.19 258.513 328.058 257.718 328.058H254.141V333.27H244.403V327.662H242.217V335.447H244.138H244.403H254.141H255.466H256.393V334.458C256.592 334.853 256.791 335.183 257.122 335.315C257.387 335.447 257.785 335.579 258.182 335.579C258.579 335.579 258.911 335.513 259.242 335.381C259.507 335.249 259.772 335.117 259.971 334.919C260.169 334.722 260.302 334.524 260.434 334.26L260.434 334.26C260.501 333.996 260.567 333.732 260.567 333.402C260.567 333.072 260.501 332.742 260.302 332.412C260.103 332.082 259.838 331.818 259.441 331.621ZM256.46 329.971H257.321C257.52 329.971 257.652 329.971 257.785 330.037C257.917 330.103 257.983 330.235 257.983 330.433C257.983 330.59 257.942 330.664 257.892 330.753C257.878 330.777 257.865 330.801 257.851 330.829C257.718 330.895 257.586 330.961 257.387 330.961H256.46V329.971ZM257.983 333.468C257.851 333.534 257.718 333.6 257.52 333.6H256.327V332.61H257.52C257.718 332.61 257.851 332.676 257.983 332.742C258.116 332.808 258.116 332.94 258.116 333.138C258.182 333.27 258.116 333.402 257.983 333.468ZM263.284 330.102C263.681 330.036 264.145 329.97 264.675 329.97H265.602C265.933 329.97 266.331 329.97 266.728 330.036V335.447H264.542V334.325C264.344 334.787 264.079 335.117 263.814 335.315C263.549 335.513 263.217 335.579 262.886 335.579C262.621 335.579 262.356 335.513 262.158 335.381C261.959 335.249 261.76 335.051 261.628 334.853L261.628 334.853C261.495 334.589 261.363 334.325 261.297 334.061C261.23 333.797 261.164 333.467 261.164 333.137C261.164 332.544 261.23 332.016 261.429 331.62C261.628 331.224 261.826 330.894 262.158 330.63C262.489 330.366 262.886 330.234 263.284 330.102ZM264.41 333.401C264.476 333.203 264.542 333.005 264.609 332.676C264.675 332.412 264.741 332.016 264.807 331.554H264.542H264.344C264.079 331.554 263.88 331.554 263.747 331.62C263.615 331.62 263.482 331.686 263.416 331.752C263.35 331.818 263.284 331.95 263.284 332.016C263.217 332.082 263.217 332.214 263.217 332.346C263.217 332.405 263.231 332.478 263.246 332.558C263.264 332.656 263.284 332.765 263.284 332.873C263.314 332.964 263.331 333.055 263.346 333.139C263.364 333.239 263.38 333.33 263.416 333.401C263.482 333.599 263.549 333.731 263.615 333.797C263.681 333.863 263.814 333.929 263.88 333.929C263.946 333.929 264.079 333.863 264.145 333.797C264.277 333.731 264.344 333.599 264.41 333.401L264.41 333.401ZM271.034 329.971C270.504 329.971 270.041 330.037 269.643 330.169C269.246 330.301 268.848 330.433 268.583 330.697C268.252 330.961 268.054 331.291 267.855 331.687C267.656 332.082 267.59 332.61 267.59 333.204C267.59 333.534 267.656 333.864 267.722 334.128C267.789 334.392 267.921 334.655 268.053 334.919L268.054 334.919C268.186 335.117 268.385 335.315 268.583 335.447C268.782 335.579 269.047 335.645 269.312 335.645C269.643 335.645 269.974 335.579 270.239 335.381C270.504 335.183 270.769 334.853 270.968 334.392V335.513H273.154V327.662H270.968V329.971H271.034ZM271.034 332.676C270.968 333.006 270.902 333.204 270.836 333.402L270.836 333.402C270.769 333.6 270.703 333.732 270.571 333.798C270.504 333.864 270.372 333.93 270.306 333.93C270.239 333.93 270.107 333.864 270.041 333.798C269.974 333.732 269.908 333.6 269.842 333.402C269.806 333.331 269.79 333.24 269.772 333.14C269.756 333.056 269.74 332.965 269.71 332.874C269.71 332.765 269.689 332.656 269.671 332.558C269.657 332.478 269.643 332.406 269.643 332.346C269.643 332.214 269.643 332.082 269.71 332.016C269.71 331.95 269.776 331.818 269.842 331.753C269.908 331.687 270.041 331.621 270.173 331.621C270.306 331.555 270.504 331.555 270.769 331.555H270.968H271.233C271.167 332.016 271.101 332.412 271.034 332.676ZM277.524 329.97H278.518C278.684 329.97 278.866 329.987 279.048 330.003C279.23 330.02 279.412 330.036 279.578 330.036V335.447H277.392V334.325C277.193 334.787 276.928 335.117 276.663 335.315C276.398 335.513 276.067 335.579 275.736 335.579C275.471 335.579 275.206 335.513 275.007 335.381C274.809 335.249 274.61 335.051 274.477 334.853L274.477 334.853C274.345 334.589 274.212 334.325 274.146 334.061C274.08 333.797 274.014 333.467 274.014 333.137C274.014 332.544 274.08 332.016 274.279 331.62C274.477 331.224 274.676 330.894 275.007 330.63C275.338 330.366 275.736 330.234 276.133 330.102C276.531 330.036 276.994 329.97 277.524 329.97ZM277.259 333.401C277.326 333.203 277.392 333.005 277.458 332.676C277.524 332.412 277.591 332.016 277.657 331.554H277.392H277.193C276.928 331.554 276.729 331.554 276.597 331.62C276.465 331.62 276.332 331.686 276.266 331.752C276.2 331.818 276.133 331.95 276.133 332.016C276.067 332.082 276.067 332.214 276.067 332.346C276.067 332.405 276.08 332.478 276.095 332.558C276.113 332.656 276.133 332.765 276.133 332.873C276.164 332.964 276.18 333.055 276.195 333.139C276.214 333.239 276.23 333.33 276.266 333.401C276.332 333.599 276.398 333.731 276.465 333.797C276.531 333.863 276.663 333.929 276.73 333.929C276.796 333.929 276.928 333.863 276.994 333.797C277.127 333.731 277.193 333.599 277.259 333.401L277.259 333.401Z" fill="#1AE3E3"/>
<g style="mix-blend-mode:multiply" opacity="0.5">
<path d="M90.2104 277C113.126 283.715 84.1205 317.808 107.694 325.67C131.267 333.532 158.354 331.971 151.87 348.189C137.827 383.31 48.6742 345.071 54.1467 312.873C59.6193 280.675 82.7279 274.809 90.2104 277Z" fill="#00B2B2"/>
</g>
<path d="M76.6435 222.179L85.4751 203.301L101.023 206.511L97.5986 222.894L104.012 236.29C104.012 236.29 78.5173 225.712 76.6435 222.177V222.179Z" fill="#FABCC6"/>
<path d="M121.705 156.394C114.873 145.24 110.49 159.164 95.5923 156.479C84.1509 154.416 74.2618 159.414 71.3093 175.55C68.2249 192.393 91.0097 213.794 95.7817 208.968C100.554 204.145 100.513 196.363 95.687 191.591C93.2587 189.186 106.256 190.032 111.028 185.209C115.8 180.386 129.795 169.605 121.702 156.394H121.705Z" fill="#003959"/>
<path d="M99.77 171.018C92.7218 170.71 86.4211 175.908 83.3603 183.629C80.702 183.778 78.4732 186.812 78.3041 190.637C78.1621 193.914 79.5724 196.745 81.6388 197.729C82.9274 207.885 96.185 221.572 104.464 221.934C114.045 222.354 115.591 206.756 116.136 194.31C116.68 181.864 109.351 171.434 99.77 171.014V171.018Z" fill="#FABCC6"/>
<path d="M80.4 183.863C80.4 183.863 100.827 191.896 114.873 169.608C114.873 169.608 90.4987 157.893 85.6962 167.558C80.8937 177.221 80.4 183.867 80.4 183.867V183.863Z" fill="#003959"/>
<path d="M108.52 193.272C104.497 193.272 102.954 190.003 102.936 189.948L102.66 189.36L114.765 184.198L114.839 185.062C115.059 187.486 114.361 192.28 110.118 193.107C109.549 193.217 109.016 193.272 108.501 193.272H108.52ZM104.423 189.984C105.066 190.884 106.72 192.482 109.898 191.876C113.13 191.252 113.589 187.743 113.626 186.072L104.423 189.984Z" fill="#003959"/>
<path d="M94.8162 200.412C92.2446 200.412 89.7834 198.778 88.5343 197.529L87.873 196.867L100.419 190.365L100.713 190.989C100.713 190.989 102.825 195.471 98.4166 199.09C97.2778 200.027 96.0286 200.394 94.8162 200.394V200.412ZM90.2057 197.18C91.6201 198.3 94.8346 200.302 97.5531 198.061C100.235 195.857 100.033 193.414 99.7207 192.257L90.1873 197.198L90.2057 197.18Z" fill="#003959"/>
<path d="M103.899 188.614L100.051 190.313L100.563 191.473L104.411 189.773L103.899 188.614Z" fill="#003959"/>
<path d="M82.2427 196.014L82.1855 197.372L88.8291 197.651L88.8863 196.293L82.2427 196.014Z" fill="#003959"/>
<path d="M100.363 208.39C100.363 208.39 107.236 210.088 109.617 208.39C109.617 208.39 110.276 212.543 105.768 212.733C101.263 212.922 100.363 208.39 100.363 208.39Z" fill="#003959"/>
<path d="M79.7773 214.599L71.9806 222.91L99.6466 250.576L104.01 236.293C92.1604 231.104 82.8985 224.513 79.7773 214.599Z" fill="#00A9A9"/>
<path d="M97.597 222.897L98.4704 218.719L113.125 248.041L104.01 236.294L97.597 222.897Z" fill="#00A9A9"/>
<path d="M106.526 248.042C105.882 248.042 105.36 247.52 105.36 246.877C105.36 246.233 105.882 245.711 106.526 245.711C107.169 245.711 107.691 246.233 107.691 246.877C107.691 247.52 107.169 248.042 106.526 248.042Z" fill="#50FF81"/>
<path d="M106.526 248.585C107.468 248.585 108.236 247.817 108.236 246.875C108.236 245.933 107.468 245.165 106.526 245.165C105.584 245.165 104.816 245.933 104.816 246.875C104.816 247.817 105.584 248.585 106.526 248.585ZM106.526 246.254C106.867 246.254 107.147 246.532 107.147 246.875C107.147 247.218 106.869 247.496 106.526 247.496C106.183 247.496 105.905 247.218 105.905 246.875C105.905 246.532 106.183 246.254 106.526 246.254Z" fill="#50FF81"/>
<path d="M108.543 254.082C107.9 254.082 107.378 253.56 107.378 252.917C107.378 252.273 107.9 251.751 108.543 251.751C109.187 251.751 109.709 252.273 109.709 252.917C109.709 253.56 109.187 254.082 108.543 254.082Z" fill="#50FF81"/>
<path d="M108.544 254.627C109.486 254.627 110.254 253.859 110.254 252.917C110.254 251.975 109.486 251.207 108.544 251.207C107.601 251.207 106.833 251.975 106.833 252.917C106.833 253.859 107.601 254.627 108.544 254.627ZM108.544 252.296C108.885 252.296 109.164 252.574 109.164 252.917C109.164 253.26 108.887 253.538 108.544 253.538C108.2 253.538 107.923 253.26 107.923 252.917C107.923 252.574 108.2 252.296 108.544 252.296Z" fill="#50FF81"/>
<path d="M110.875 261.475C110.232 261.475 109.71 260.953 109.71 260.309C109.71 259.665 110.232 259.144 110.875 259.144C111.519 259.144 112.041 259.665 112.041 260.309C112.041 260.953 111.519 261.475 110.875 261.475Z" fill="#50FF81"/>
<path d="M110.876 262.02C111.818 262.02 112.586 261.252 112.586 260.31C112.586 259.367 111.818 258.599 110.876 258.599C109.933 258.599 109.165 259.367 109.165 260.31C109.165 261.252 109.931 262.02 110.876 262.02ZM110.876 259.689C111.217 259.689 111.497 259.966 111.497 260.31C111.497 260.653 111.219 260.93 110.876 260.93C110.532 260.93 110.255 260.653 110.255 260.31C110.255 259.966 110.532 259.689 110.876 259.689Z" fill="#50FF81"/>
<path d="M92.2736 358.038C98.9009 337.368 142.16 347.527 165.258 350.899C181.977 353.339 190.549 356.045 190.228 360.457C189.89 365.109 168.72 361.445 168.72 361.445C168.72 361.445 192.851 366.725 192.161 371.587C191.415 376.845 167.627 370.087 167.627 370.087C167.627 370.087 191.932 375.211 190.326 379.774C189.191 382.999 164.731 379.754 164.731 379.754C164.731 379.754 182.095 385.497 181.2 388.442C180.243 391.585 155.994 387.34 142.342 384.862C132.472 383.071 89.9549 365.272 92.2754 358.038H92.2736Z" fill="#FABCC6"/>
<path d="M49.8706 240.722C49.8706 240.722 34.2846 316.353 30.9418 347.95C27.5646 379.867 140.315 388.913 140.315 388.913C151.741 386.975 159.845 363.028 151.868 348.19C125.161 343.903 77.7508 341.514 80.9646 325.09C87.0999 293.744 94.045 257.975 94.045 257.975L49.8724 240.722H49.8706Z" fill="#00C7C7"/>
<path d="M482.567 501.311C483.209 497.384 483.137 493.397 482.349 489.463L482.34 489.412L477.443 490.4C476.929 487.855 476.091 485.461 474.974 483.249L479.436 480.999C477.64 477.436 475.231 474.257 472.282 471.547L468.901 475.227C467.036 473.514 464.947 472.058 462.696 470.9L464.982 466.456C461.422 464.624 457.608 463.46 453.645 463L453.069 467.963C450.603 467.677 448.067 467.715 445.506 468.112L444.739 463.173C444.264 463.248 443.784 463.331 443.312 463.427C439.868 464.116 436.582 465.328 433.544 467.035L435.992 471.392C433.762 472.646 431.739 474.186 429.957 475.955L426.435 472.41C423.606 475.224 421.323 478.489 419.655 482.115L424.194 484.205C423.143 486.488 422.394 488.92 421.986 491.442L417.052 490.639C416.414 494.561 416.488 498.536 417.273 502.46V502.481L422.177 501.502C422.687 504.048 423.525 506.445 424.639 508.653L420.177 510.9C421.971 514.464 424.376 517.645 427.322 520.358L430.706 516.681C432.571 518.397 434.657 519.854 436.908 521.015L434.619 525.456C438.179 527.291 441.99 528.458 445.954 528.921L446.533 523.957C448.998 524.247 451.535 524.208 454.095 523.814L454.859 528.753C455.343 528.679 455.829 528.592 456.31 528.497C459.745 527.81 463.025 526.602 466.054 524.9L463.61 520.543C465.842 519.293 467.865 517.753 469.647 515.986L473.169 519.531C476.001 516.72 478.284 513.458 479.955 509.832L475.416 507.74C476.467 505.457 477.219 503.027 477.631 500.506L482.564 501.311H482.567ZM452.496 509.387C445.079 510.868 437.869 506.057 436.388 498.643C434.908 491.23 439.716 484.016 447.132 482.536C454.549 481.056 461.759 485.867 463.24 493.28C464.72 500.694 459.912 507.907 452.496 509.387Z" fill="#E3F5FF"/>
<path d="M461.939 532.78L463.706 529.483C460.817 527.934 457.564 527.301 454.296 527.653C454.281 527.653 454.266 527.656 454.251 527.659L454.666 531.378C453.389 531.518 452.18 531.846 451.058 532.33L449.575 528.898C446.569 530.196 444.051 532.351 442.29 535.129L445.45 537.132C444.785 538.179 444.274 539.331 443.943 540.546L440.332 539.564C439.801 541.519 439.643 543.539 439.86 545.566C439.992 546.786 440.26 547.992 440.657 549.144L444.194 547.924C444.609 549.123 445.197 550.234 445.928 551.23L442.91 553.445C444.85 556.089 447.51 558.068 450.598 559.163L451.849 555.638C453.007 556.05 454.239 556.295 455.514 556.346L455.365 560.082C456.161 560.115 456.973 560.088 457.77 560.002C460.232 559.736 462.542 558.942 464.631 557.638L462.653 554.463C463.721 553.797 464.673 552.976 465.491 552.036L468.317 554.489C470.472 552.003 471.812 548.971 472.191 545.718L468.475 545.285C468.58 544.375 468.589 543.438 468.487 542.489C468.454 542.173 468.407 541.862 468.353 541.555L472.033 540.88C471.442 537.651 469.905 534.711 467.592 532.381L464.936 535.016C464.055 534.129 463.047 533.374 461.942 532.783L461.939 532.78ZM456.684 549.875C453.341 550.234 450.342 547.816 449.984 544.477C449.625 541.134 452.043 538.135 455.382 537.776C458.725 537.418 461.724 539.836 462.083 543.175C462.441 546.518 460.023 549.517 456.684 549.875Z" fill="#E3F5FF"/>
<path d="M386.174 595.16L387.941 591.862C385.052 590.313 381.799 589.68 378.531 590.032C378.516 590.032 378.501 590.035 378.486 590.038L378.901 593.757C377.623 593.897 376.415 594.225 375.292 594.709L373.809 591.277C370.804 592.575 368.285 594.73 366.524 597.508L369.685 599.511C369.019 600.558 368.509 601.707 368.177 602.925L364.566 601.943C364.035 603.898 363.877 605.919 364.095 607.945C364.226 609.166 364.495 610.371 364.892 611.523L368.428 610.303C368.843 611.502 369.431 612.613 370.162 613.61L367.145 615.824C369.085 618.468 371.744 620.447 374.833 621.542L376.083 618.018C377.241 618.429 378.474 618.674 379.748 618.725L379.599 622.461C380.396 622.494 381.208 622.467 382.004 622.381C384.467 622.115 386.777 621.321 388.866 620.017L386.887 616.842C387.955 616.176 388.907 615.355 389.725 614.415L392.551 616.868C394.709 614.382 396.046 611.35 396.425 608.097L392.71 607.664C392.814 606.754 392.823 605.817 392.722 604.868C392.689 604.552 392.641 604.241 392.587 603.934L396.267 603.259C395.676 600.03 394.139 597.091 391.826 594.76L389.17 597.395C388.29 596.509 387.281 595.754 386.177 595.163L386.174 595.16ZM380.918 612.255C377.576 612.613 374.576 610.195 374.218 606.856C373.86 603.513 376.277 600.514 379.617 600.156C382.959 599.797 385.959 602.215 386.317 605.554C386.675 608.897 384.258 611.896 380.918 612.255Z" fill="#E3F5FF"/>
<path d="M449.7 575.998C450.341 572.07 450.27 568.083 449.482 564.15L449.473 564.099L444.575 565.087C444.062 562.541 443.223 560.147 442.107 557.936L446.569 555.686C444.772 552.122 442.364 548.944 439.415 546.234L436.034 549.914C434.169 548.201 432.08 546.744 429.829 545.586L432.115 541.143C428.555 539.31 424.741 538.146 420.777 537.687L420.201 542.65C417.736 542.363 415.199 542.402 412.639 542.799L411.872 537.86C411.397 537.934 410.917 538.018 410.445 538.113C407.001 538.803 403.715 540.014 400.677 541.722L403.124 546.079C400.895 547.332 398.872 548.872 397.09 550.642L393.568 547.096C390.739 549.911 388.456 553.176 386.787 556.802L391.327 558.891C390.276 561.174 389.527 563.606 389.118 566.128L384.185 565.326C383.546 569.247 383.621 573.222 384.406 577.147V577.168L389.309 576.189C389.82 578.735 390.658 581.131 391.772 583.34L387.31 585.587C389.103 589.15 391.509 592.332 394.455 595.045L397.839 591.368C399.704 593.084 401.79 594.54 404.041 595.701L401.752 600.142C405.312 601.978 409.123 603.144 413.086 603.607L413.665 598.644C416.131 598.933 418.667 598.895 421.228 598.501L421.992 603.44C422.476 603.365 422.962 603.279 423.443 603.183C426.878 602.497 430.158 601.288 433.187 599.587L430.742 595.23C432.975 593.979 434.998 592.439 436.78 590.672L440.302 594.218C443.134 591.407 445.417 588.145 447.088 584.519L442.549 582.426C443.599 580.143 444.352 577.714 444.763 575.192L449.697 575.998H449.7ZM419.628 584.074C412.212 585.554 405.002 580.743 403.521 573.33C402.041 565.913 406.849 558.703 414.265 557.223C421.682 555.742 428.892 560.553 430.372 567.967C431.853 575.383 427.045 582.594 419.628 584.074Z" fill="#E3F5FF"/>
<defs>
<clipPath id="clip0_5168_55273">
<rect width="374" height="476" fill="white" transform="translate(131)"/>
</clipPath>
</defs>
</svg>
