<svg width="26" height="34" viewBox="0 0 26 34" fill="none" xmlns="http://www.w3.org/2000/svg">
<path d="M12.9993 33.6668C12.2493 33.6668 11.5896 33.4863 11.0202 33.1252C10.4507 32.764 10.0827 32.264 9.91601 31.6252H9.33268C8.66602 31.6252 8.08268 31.3752 7.58268 30.8752C7.08268 30.3752 6.83268 29.7918 6.83268 29.1252V23.1668C4.99935 21.9724 3.5549 20.4446 2.49935 18.5835C1.44379 16.7224 0.916016 14.6668 0.916016 12.4168C0.916016 9.05572 2.08963 6.20155 4.43685 3.85433C6.78407 1.50711 9.63824 0.333496 12.9993 0.333496C16.3605 0.333496 19.2146 1.50711 21.5618 3.85433C23.9091 6.20155 25.0827 9.05572 25.0827 12.4168C25.0827 14.6668 24.5549 16.7224 23.4993 18.5835C22.4438 20.4446 20.9993 21.9724 19.166 23.1668V29.1252C19.166 29.7918 18.916 30.3752 18.416 30.8752C17.916 31.3752 17.3327 31.6252 16.666 31.6252H16.0827C15.916 32.264 15.548 32.764 14.9785 33.1252C14.4091 33.4863 13.7493 33.6668 12.9993 33.6668ZM9.33268 29.1252H16.666V27.2918H9.33268V29.1252ZM9.33268 25.6252H16.666V23.9585H9.33268V25.6252ZM8.95768 21.4585H12.041V15.7502L8.20768 11.9168L9.49935 10.6252L12.9993 14.1252L16.4993 10.6252L17.791 11.9168L13.9577 15.7502V21.4585H17.041C18.7077 20.6807 20.048 19.4724 21.0618 17.8335C22.0757 16.1946 22.5827 14.3891 22.5827 12.4168C22.5827 9.72238 21.6591 7.45155 19.8118 5.60433C17.9646 3.75711 15.6938 2.8335 12.9993 2.8335C10.3049 2.8335 8.03407 3.75711 6.18685 5.60433C4.33963 7.45155 3.41602 9.72238 3.41602 12.4168C3.41602 14.3891 3.92296 16.1946 4.93685 17.8335C5.95074 19.4724 7.29102 20.6807 8.95768 21.4585Z" fill="#00C7C7"/>
</svg>
