<svg width="510" height="524" viewBox="0 0 510 524" fill="none" xmlns="http://www.w3.org/2000/svg">
<path fill-rule="evenodd" clip-rule="evenodd" d="M450.226 369.742C450.226 369.742 382.922 400.532 409.008 448H455.739C455.739 448.002 405.681 418.942 450.226 369.742Z" fill="url(#paint0_linear_5228_44880)"/>
<path d="M462.528 369.223L467.053 373.344L488.652 358L462.528 369.223Z" fill="#8ABCD8"/>
<path d="M455.431 366.546L451.728 375.403L488.652 358L438.974 363.457L455.431 366.546Z" fill="#E3F5FF"/>
<path d="M438.974 363.457L472.504 361.912L455.43 366.545L438.974 363.457Z" fill="#8ABCD8"/>
<path d="M509.136 280.897C509.344 279.067 509.451 277.21 509.451 275.326C509.451 273.441 509.341 271.584 509.136 269.755L502.011 267.652C501.335 263.938 500.173 260.394 498.593 257.089L503.12 251.202C501.28 247.949 499.079 244.929 496.573 242.195L489.593 244.681C486.91 242.125 483.893 239.917 480.611 238.132L480.816 230.722C477.474 229.193 473.931 228.03 470.236 227.283L466.05 233.398C464.23 233.158 462.375 233.032 460.49 233.032C458.605 233.032 456.75 233.158 454.929 233.398L450.744 227.283C447.048 228.03 443.506 229.193 440.164 230.722L440.369 238.132C437.087 239.917 434.07 242.125 431.386 244.681L424.406 242.195C421.9 244.929 419.7 247.951 417.86 251.202L422.386 257.089C420.809 260.394 419.647 263.938 418.969 267.652L411.844 269.755C411.636 271.584 411.528 273.441 411.528 275.326C411.528 277.21 411.638 279.067 411.844 280.897L418.986 283.002C419.667 286.704 420.831 290.237 422.409 293.533L417.86 299.447C419.7 302.7 421.9 305.72 424.406 308.454L431.446 305.948C434.115 308.482 437.114 310.672 440.371 312.444L440.164 319.93C443.506 321.459 447.048 322.621 450.744 323.368L454.977 317.183C456.782 317.419 458.622 317.541 460.49 317.541C462.357 317.541 464.197 317.419 466.003 317.183L470.236 323.368C473.931 322.621 477.474 321.459 480.816 319.93L480.608 312.444C483.865 310.672 486.864 308.482 489.533 305.948L496.573 308.454C499.079 305.72 501.28 302.698 503.12 299.447L498.571 293.533C500.151 290.237 501.312 286.704 501.993 283.002L509.136 280.897ZM461.161 295.858C449.297 296.237 439.6 286.531 439.978 274.654C440.321 263.898 449.071 255.139 459.816 254.796C471.681 254.417 481.377 264.123 480.999 276C480.656 286.754 471.903 295.515 461.161 295.858Z" fill="#E3F5FF"/>
<path d="M460.49 308.808C442.047 308.808 427.043 293.788 427.043 275.326C427.043 256.863 442.047 241.844 460.49 241.844C478.931 241.844 493.937 256.863 493.937 275.326C493.935 293.788 478.931 308.808 460.49 308.808ZM460.49 244.242C443.368 244.242 429.439 258.186 429.439 275.326C429.439 292.465 443.368 306.409 460.49 306.409C477.612 306.409 491.541 292.465 491.541 275.326C491.541 258.186 477.612 244.242 460.49 244.242Z" fill="white"/>
<path d="M445.083 281.824H371.014C370.453 281.824 370 281.37 370 280.809V173.015C370 172.454 370.453 172 371.014 172H445.083C445.644 172 446.097 172.454 446.097 173.015V280.809C446.097 281.37 445.642 281.824 445.083 281.824Z" fill="#E3F5FF"/>
<path d="M443.601 174.188H372.436V279.214H443.601V174.188Z" fill="white"/>
<path fill-rule="evenodd" clip-rule="evenodd" d="M423.529 241.538H392.503C389.659 241.538 387.354 243.844 387.354 246.693C387.354 249.538 389.659 251.848 392.503 251.848H423.529C426.373 251.848 428.679 249.538 428.679 246.693C428.679 243.846 426.373 241.538 423.529 241.538Z" fill="#E3F5FF"/>
<path fill-rule="evenodd" clip-rule="evenodd" d="M395.656 245.876L394.321 245.68L393.725 244.47C393.703 244.424 393.66 244.399 393.61 244.399C393.56 244.399 393.518 244.427 393.495 244.47L392.899 245.68L391.565 245.876C391.515 245.883 391.477 245.916 391.462 245.963C391.447 246.011 391.46 246.058 391.495 246.094L392.461 247.036L392.233 248.367C392.226 248.417 392.243 248.462 392.283 248.492C392.324 248.522 392.374 248.525 392.419 248.502L393.613 247.873L394.807 248.502C394.852 248.525 394.902 248.522 394.942 248.492C394.982 248.462 395.002 248.417 394.992 248.367L394.764 247.036L395.731 246.094C395.766 246.058 395.778 246.011 395.763 245.963C395.743 245.916 395.706 245.883 395.656 245.876ZM402.858 245.876L401.524 245.68L400.928 244.47C400.906 244.424 400.863 244.399 400.813 244.399C400.763 244.399 400.72 244.427 400.698 244.47L400.102 245.68L398.768 245.876C398.718 245.883 398.68 245.916 398.665 245.963C398.65 246.011 398.662 246.058 398.698 246.094L399.664 247.036L399.436 248.367C399.429 248.417 399.446 248.462 399.486 248.492C399.526 248.522 399.576 248.525 399.619 248.502L400.813 247.873L402.007 248.502C402.052 248.525 402.102 248.522 402.142 248.492C402.182 248.462 402.202 248.417 402.192 248.367L401.965 247.036L402.931 246.094C402.966 246.058 402.979 246.011 402.964 245.963C402.946 245.916 402.908 245.883 402.858 245.876ZM410.064 245.876L408.729 245.68L408.133 244.47C408.111 244.424 408.068 244.399 408.018 244.399C407.968 244.399 407.926 244.427 407.903 244.47L407.307 245.68L405.973 245.876C405.923 245.883 405.885 245.916 405.87 245.963C405.855 246.011 405.868 246.058 405.903 246.094L406.869 247.036L406.641 248.367C406.634 248.417 406.651 248.462 406.691 248.492C406.731 248.522 406.781 248.525 406.824 248.502L408.018 247.873L409.212 248.502C409.257 248.525 409.305 248.522 409.348 248.492C409.388 248.462 409.408 248.417 409.398 248.367L409.17 247.036L410.136 246.094C410.171 246.058 410.184 246.011 410.169 245.963C410.151 245.916 410.111 245.883 410.064 245.876ZM417.266 245.876L415.932 245.68L415.336 244.47C415.313 244.424 415.271 244.399 415.221 244.399C415.171 244.399 415.128 244.427 415.106 244.47L414.51 245.68L413.175 245.876C413.125 245.883 413.088 245.916 413.073 245.963C413.058 246.011 413.07 246.058 413.105 246.094L414.072 247.036L413.844 248.367C413.836 248.417 413.854 248.462 413.894 248.492C413.934 248.522 413.984 248.525 414.029 248.502L415.223 247.873L416.418 248.502C416.463 248.525 416.513 248.522 416.553 248.492C416.593 248.462 416.613 248.417 416.603 248.367L416.375 247.036L417.341 246.094C417.376 246.058 417.389 246.011 417.374 245.963C417.354 245.916 417.316 245.883 417.266 245.876ZM424.571 245.963C424.556 245.916 424.519 245.883 424.469 245.876L423.134 245.68L422.539 244.47C422.516 244.424 422.474 244.399 422.423 244.399C422.373 244.399 422.331 244.427 422.308 244.47L421.712 245.68L420.378 245.876C420.328 245.883 420.29 245.916 420.275 245.963C420.26 246.011 420.273 246.058 420.308 246.094L421.274 247.036L421.047 248.367C421.039 248.417 421.057 248.462 421.097 248.492C421.137 248.522 421.187 248.525 421.232 248.502L422.426 247.873L423.62 248.502C423.665 248.525 423.713 248.522 423.753 248.492C423.793 248.462 423.813 248.417 423.803 248.367L423.575 247.036L424.541 246.094C424.574 246.058 424.586 246.011 424.571 245.963Z" fill="white"/>
<path fill-rule="evenodd" clip-rule="evenodd" d="M408.018 187.942C403.887 187.942 400.15 189.618 397.443 192.328C394.737 195.037 393.062 198.781 393.062 202.913C393.062 206.179 394.106 209.201 395.881 211.662C399.05 208.675 403.322 206.843 408.018 206.843C412.715 206.843 416.986 208.675 420.155 211.662C421.928 209.201 422.974 206.179 422.974 202.913C422.974 198.778 421.299 195.037 418.593 192.328C415.887 189.618 412.149 187.942 408.018 187.942ZM403.271 196.164C402.318 191.004 413.719 191.004 412.765 196.164C412.274 198.816 411.127 201.578 408.949 203.274C408.394 203.708 407.643 203.708 407.087 203.274C404.906 201.578 403.76 198.816 403.271 196.164ZM408.018 185.183C417.802 185.183 425.731 193.122 425.731 202.913C425.731 212.707 417.799 220.644 408.018 220.644C398.237 220.644 390.306 212.705 390.306 202.913C390.306 193.122 398.234 185.183 408.018 185.183Z" fill="#E3F5FF"/>
<path fill-rule="evenodd" clip-rule="evenodd" d="M429.213 230.571H386.826C385.889 230.571 385.131 229.812 385.131 228.872C385.131 227.935 385.889 227.173 386.826 227.173H429.213C430.149 227.173 430.908 227.932 430.908 228.87C430.908 229.812 430.149 230.571 429.213 230.571Z" fill="#E3F5FF"/>
<path fill-rule="evenodd" clip-rule="evenodd" d="M423.65 259.096H392.438C391.89 259.096 391.444 258.65 391.444 258.101C391.444 257.553 391.89 257.106 392.438 257.106H423.65C424.198 257.106 424.644 257.553 424.644 258.101C424.646 258.65 424.2 259.096 423.65 259.096Z" fill="#E3F5FF"/>
<path fill-rule="evenodd" clip-rule="evenodd" d="M423.65 235.518H392.438C391.89 235.518 391.444 235.072 391.444 234.523C391.444 233.974 391.89 233.528 392.438 233.528H423.65C424.198 233.528 424.644 233.974 424.644 234.523C424.646 235.072 424.2 235.518 423.65 235.518Z" fill="#E3F5FF"/>
<path fill-rule="evenodd" clip-rule="evenodd" d="M423.627 263.657H392.416C391.867 263.657 391.422 263.211 391.422 262.662C391.422 262.113 391.867 261.667 392.416 261.667H423.627C424.176 261.667 424.621 262.113 424.621 262.662C424.621 263.211 424.176 263.657 423.627 263.657Z" fill="#E3F5FF"/>
<path fill-rule="evenodd" clip-rule="evenodd" d="M418.2 268.218H397.839C397.29 268.218 396.845 267.772 396.845 267.223C396.845 266.675 397.29 266.229 397.839 266.229H418.2C418.748 266.229 419.194 266.675 419.194 267.223C419.196 267.772 418.751 268.218 418.2 268.218Z" fill="#E3F5FF"/>
<path d="M410 113.622C425.256 113.622 437.624 101.255 437.624 85.9981C437.624 70.7418 425.256 58.374 410 58.374C394.744 58.374 382.376 70.7418 382.376 85.9981C382.376 101.255 394.744 113.622 410 113.622Z" fill="white"/>
<path d="M410 113.999C402.521 113.999 395.49 111.086 390.201 105.798C384.913 100.51 382 93.4782 382 85.9989C382 78.5197 384.913 71.4892 390.201 66.2C395.49 60.9129 402.522 58 410 58C417.478 58 424.51 60.9129 429.799 66.201C435.087 71.4892 438 78.5208 438 86C438 93.4792 435.087 100.51 429.799 105.799C424.511 111.087 417.479 114 410 114V113.999ZM410 58.7496C402.721 58.7496 395.878 61.5843 390.731 66.7311C385.584 71.8779 382.75 78.721 382.75 86C382.75 93.279 385.584 100.122 390.731 105.269C395.878 110.416 402.721 113.25 410 113.25C417.279 113.25 424.122 110.416 429.269 105.269C434.416 100.122 437.25 93.279 437.25 86C437.25 78.721 434.416 71.8779 429.269 66.7311C424.122 61.5843 417.279 58.7496 410 58.7496Z" fill="#BADDF0"/>
<path d="M421.54 94.3808L417.649 90.6555C417.124 90.1763 415.975 89.9277 414.582 90.6143C413.275 91.2596 411.175 92.2688 407.439 87.3621C403.702 82.4589 405.071 80.535 406.187 79.5949C406.355 79.453 407.622 78.0361 406.953 76.6145L404.961 72.9244C403.285 70.0713 400.84 72.2111 400.698 72.33C396.702 75.6938 397.733 83.4864 403.176 90.6312C408.62 97.7773 415.844 100.822 420.128 97.8367C420.281 97.73 422.862 95.7588 421.54 94.382V94.3808Z" fill="#BADDF0"/>
<path d="M279.001 83.4339C301.885 83.4339 320.437 64.8822 320.437 41.9977C320.437 19.1131 301.885 0.561523 279.001 0.561523C256.116 0.561523 237.564 19.1131 237.564 41.9977C237.564 64.8822 256.116 83.4339 279.001 83.4339Z" fill="white"/>
<path d="M279 83.9984C267.781 83.9984 257.235 79.6291 249.302 71.6969C241.369 63.7646 237 53.2172 237 41.9984C237 30.7795 241.369 20.2338 249.302 12.2999C257.235 4.36931 267.783 0 279 0C290.217 0 300.765 4.36931 308.698 12.3015C316.631 20.2338 321 30.7812 321 42C321 53.2188 316.631 63.7646 308.698 71.6985C300.766 79.6307 290.219 84 279 84V83.9984ZM279 1.12445C268.082 1.12445 257.817 5.3765 250.097 13.0967C242.377 20.8169 238.124 31.0815 238.124 42C238.124 52.9185 242.377 63.1831 250.097 70.9033C257.817 78.6235 268.082 82.8755 279 82.8755C289.918 82.8755 300.183 78.6235 307.903 70.9033C315.623 63.1831 319.876 52.9185 319.876 42C319.876 31.0815 315.623 20.8169 307.903 13.0967C300.183 5.3765 289.918 1.12445 279 1.12445Z" fill="#BADDF0"/>
<path d="M255.778 56.4076C255.859 56.4076 255.936 56.3684 255.982 56.2988L262.597 46.5156H302.168C302.305 46.5156 302.415 46.4046 302.415 46.2689V25.9937C302.415 25.857 302.304 25.7471 302.168 25.7471H255.778C255.642 25.7471 255.532 25.8581 255.532 25.9937V56.1609C255.532 56.2697 255.602 56.365 255.707 56.3975C255.73 56.4054 255.755 56.4087 255.779 56.4087L255.778 56.4076ZM301.922 46.0211H262.466C262.384 46.0211 262.307 46.0615 262.262 46.1299L256.026 55.3536V26.2393H301.923V46.02L301.922 46.0211Z" fill="#8ABCD8"/>
<path d="M285.241 30.715H294.361C294.498 30.715 294.607 30.604 294.607 30.4684C294.607 30.3327 294.496 30.2217 294.361 30.2217H285.241C285.105 30.2217 284.995 30.3327 284.995 30.4684C284.995 30.604 285.106 30.715 285.241 30.715Z" fill="#8ABCD8"/>
<path d="M264.024 30.715H282.768C282.905 30.715 283.015 30.604 283.015 30.4684C283.015 30.3327 282.904 30.2217 282.768 30.2217H264.024C263.888 30.2217 263.778 30.3327 263.778 30.4684C263.778 30.604 263.889 30.715 264.024 30.715Z" fill="#8ABCD8"/>
<path d="M278.342 36.1555H294.361C294.498 36.1555 294.607 36.0445 294.607 35.9088C294.607 35.7731 294.496 35.6621 294.361 35.6621H278.342C278.205 35.6621 278.095 35.7731 278.095 35.9088C278.095 36.0445 278.206 36.1555 278.342 36.1555Z" fill="#8ABCD8"/>
<path d="M264.024 36.1555H273.396C273.533 36.1555 273.643 36.0445 273.643 35.9088C273.643 35.7731 273.532 35.6621 273.396 35.6621H264.024C263.887 35.6621 263.777 35.7731 263.777 35.9088C263.777 36.0445 263.888 36.1555 264.024 36.1555Z" fill="#8ABCD8"/>
<path d="M285.241 41.5969H294.361C294.498 41.5969 294.607 41.4859 294.607 41.3502C294.607 41.2145 294.496 41.1035 294.361 41.1035H285.241C285.105 41.1035 284.995 41.2145 284.995 41.3502C284.995 41.4859 285.106 41.5969 285.241 41.5969Z" fill="#8ABCD8"/>
<path d="M264.024 41.5969H282.768C282.905 41.5969 283.015 41.4859 283.015 41.3502C283.015 41.2145 282.904 41.1035 282.768 41.1035H264.024C263.888 41.1035 263.778 41.2145 263.778 41.3502C263.778 41.4859 263.889 41.5969 264.024 41.5969Z" fill="#8ABCD8"/>
<path d="M129 144.622C144.256 144.622 156.624 132.255 156.624 116.998C156.624 101.742 144.256 89.374 129 89.374C113.744 89.374 101.376 101.742 101.376 116.998C101.376 132.255 113.744 144.622 129 144.622Z" fill="white"/>
<path d="M129 144.999C121.521 144.999 114.49 142.086 109.201 136.798C103.913 131.51 101 124.478 101 116.999C101 109.52 103.913 102.489 109.201 97.2C114.49 91.9129 121.522 89 129 89C136.478 89 143.51 91.9129 148.799 97.201C154.087 102.489 157 109.521 157 117C157 124.479 154.087 131.51 148.799 136.799C143.511 142.087 136.479 145 129 145V144.999ZM129 89.7496C121.721 89.7496 114.878 92.5843 109.731 97.7311C104.584 102.878 101.75 109.721 101.75 117C101.75 124.279 104.584 131.122 109.731 136.269C114.878 141.416 121.721 144.25 129 144.25C136.279 144.25 143.122 141.416 148.269 136.269C153.416 131.122 156.25 124.279 156.25 117C156.25 109.721 153.416 102.878 148.269 97.7311C143.122 92.5843 136.279 89.7496 129 89.7496Z" fill="#BADDF0"/>
<path d="M136.589 130.478L113.214 120.35L120.811 103.089L144.186 113.217L136.589 130.478Z" fill="#E3F5FF"/>
<path d="M136.589 130.726C136.556 130.726 136.523 130.719 136.491 130.706L113.116 120.577C113.056 120.551 113.008 120.502 112.984 120.44C112.96 120.378 112.961 120.311 112.988 120.25L120.585 102.989C120.64 102.864 120.785 102.807 120.91 102.862L144.285 112.99C144.346 113.016 144.393 113.066 144.418 113.128C144.441 113.189 144.44 113.257 144.413 113.318L136.816 130.579C136.776 130.671 136.685 130.727 136.589 130.727V130.726ZM113.541 120.222L136.461 130.153L143.858 113.345L120.938 103.414L113.541 120.222Z" fill="#8ABCD8"/>
<path d="M128.477 117.848C128.394 117.848 128.316 117.806 128.27 117.736L122.899 109.565C122.824 109.45 122.855 109.297 122.97 109.222C123.085 109.146 123.238 109.178 123.313 109.292L128.595 117.328L138.129 115.711C138.263 115.687 138.393 115.778 138.415 115.913C138.438 116.048 138.348 116.176 138.213 116.199L128.518 117.843C128.505 117.845 128.49 117.847 128.477 117.847V117.848Z" fill="#8ABCD8"/>
<path d="M239.872 233.749C239.872 233.749 240.979 198.77 249.367 187.776C252.196 184.069 267.589 168.475 268.902 167.413C274.308 171.606 264.053 180.919 265.035 180.521C268.19 179.243 280.014 172.032 285.332 167.883C290.65 163.735 293.141 167.197 289.037 170.986C286.262 173.546 275.727 180.833 275.727 180.833C275.727 180.833 287.495 174.499 292.297 172.223C297.605 169.707 298.685 173.641 294.039 176.721C289.395 179.801 278.571 186.181 278.571 186.181C278.571 186.181 288.018 182.055 293.414 179.711C299.11 177.238 299.359 181.711 293.965 184.328C289.398 186.545 278.671 191.898 278.671 191.898C278.671 191.898 286.871 188.771 291.572 187.102C295.783 185.606 297.546 189.391 289.85 192.857C281.574 196.585 277.289 199.218 265.277 204.619C258.343 207.737 260.699 229.537 260.699 229.537L239.872 233.749Z" fill="#FABCC6"/>
<path d="M122.662 265.125C151.108 257.842 231.392 261.859 227.109 214.725C231.357 208.781 256.543 201.334 264.826 207.607C268.904 303.53 174.725 296.956 131.7 295.998C116.105 295.65 105.15 269.608 122.662 265.125Z" fill="#00B2B2"/>
<path d="M444.452 503.806L445 515.088C429.074 523.287 344.055 527.315 344.055 516.789L344.265 502.004C364.182 509.119 404.355 506.445 444.452 503.806Z" fill="#003959"/>
<path d="M324.909 438.842L354.062 485.231L388.819 483.582L362.002 432.385L324.909 438.842Z" fill="#FABCC6"/>
<path d="M347.532 474.846C344.855 484.589 343.577 493.792 344.555 502.122C344.051 513.753 425.85 509.915 444.565 506.214C444.596 504.632 444.617 500.455 442.69 495.934C439.435 488.296 431.771 481.408 421.824 481.195C398.395 480.693 383.775 469.677 380.794 468.267C380.283 469.486 380.504 479.35 366.054 483.586C351.958 487.718 348.198 474.783 347.532 474.846Z" fill="#00C7C7"/>
<path d="M389.24 470.446C389.054 470.287 388.834 470.162 388.586 470.082C387.586 469.759 386.52 470.299 386.205 471.287L382.013 484.417C381.698 485.406 382.252 486.47 383.252 486.793C384.252 487.117 385.318 486.577 385.633 485.588L389.825 472.458C390.062 471.713 389.807 470.927 389.24 470.446Z" fill="#003959"/>
<path d="M396.224 472.702C396.038 472.543 395.817 472.418 395.57 472.338C394.57 472.015 393.504 472.555 393.188 473.543L388.997 486.673C388.681 487.661 389.235 488.726 390.235 489.049C391.235 489.372 392.301 488.832 392.617 487.844L396.808 474.714C397.046 473.97 396.792 473.183 396.224 472.702Z" fill="#003959"/>
<path d="M403.273 474.983C403.086 474.824 402.866 474.699 402.619 474.619C401.619 474.296 400.553 474.836 400.237 475.824L396.046 488.954C395.73 489.943 396.284 491.007 397.284 491.33C398.284 491.654 399.35 491.114 399.666 490.125L403.857 476.996C404.095 476.252 403.839 475.464 403.273 474.983Z" fill="#003959"/>
<path d="M386.221 471.558L386.663 469.748C386.881 468.859 392.099 447.911 400.865 444.446C403.075 443.573 405.315 443.844 407.524 445.256C409.642 446.61 410.669 448.332 410.577 450.377C410.19 458.941 388.797 470.212 387.887 470.689L386.221 471.558ZM408.755 449.207C408.482 448.252 407.77 447.416 406.6 446.668C404.857 445.555 403.187 445.339 401.495 446.008C398.259 447.287 394.961 451.827 391.958 459.137C390.477 462.744 389.406 466.219 388.823 468.268C395.609 464.487 408.618 456.078 408.879 450.304C408.895 449.922 408.855 449.557 408.755 449.207Z" fill="#003959"/>
<path d="M386.221 470.36L387.605 469.097C388.285 468.476 404.387 453.905 413.617 455.833C415.944 456.319 417.654 457.776 418.695 460.162C419.694 462.451 419.581 464.449 418.356 466.1C413.224 473.017 389.116 470.654 388.091 470.55L386.221 470.36ZM417.47 461.747C417.386 461.453 417.275 461.147 417.136 460.832C416.314 458.948 415.048 457.852 413.266 457.479C409.859 456.767 404.568 458.737 397.966 463.173C394.709 465.362 391.867 467.666 390.232 469.051C397.994 469.629 413.529 469.771 416.988 465.109C417.685 464.166 417.846 463.061 417.47 461.747Z" fill="#003959"/>
<path d="M307.534 456.81C307.534 456.81 284.508 415.561 262.631 405.685C244.557 397.526 206.878 397.453 196.675 397.184C168.403 396.439 146.831 366.843 162.473 346.232C162.473 346.232 243.327 350.672 273.945 354.168C330.338 360.605 370.078 439.624 370.078 439.624C358.686 447.603 317.832 462.137 307.534 456.81Z" fill="#003959"/>
<path d="M10.1797 510.986L0.26063 505.584C-3.69383 492.705 38.463 420.179 51.3251 418.491L63.8425 426.362L10.1797 510.986Z" fill="#003959"/>
<path d="M122.508 451.471L73.0721 443.457L56.3975 473.998L108.726 486.51L122.508 451.471Z" fill="#FABCC6"/>
<path d="M85.8552 445.43L63.5898 426.554C50.8101 423.403 4.36166 494.378 8.0639 509.835C9.39853 510.685 12.955 512.875 17.8182 513.582C26.0339 514.776 34.3775 510.613 41.2623 503.43C55.9319 488.126 66.9866 480.468 69.7421 478.655C68.9664 477.584 67.4403 475.223 66.3985 471.963C65.0842 467.853 64.5594 461.618 68.2363 454.557C75.0159 441.526 85.5637 446.031 85.8552 445.43Z" fill="#00C7C7"/>
<path d="M68.2451 480.3C68.477 480.223 68.6988 480.101 68.8953 479.931C69.6912 479.245 69.785 478.054 69.1044 477.269L60.0725 466.86C59.3919 466.075 58.1954 465.995 57.3995 466.681C56.6035 467.367 56.5097 468.558 57.1903 469.343L66.2222 479.752C66.7343 480.343 67.5378 480.534 68.2451 480.3Z" fill="#003959"/>
<path d="M60.582 485.65C60.8139 485.573 61.0357 485.451 61.2322 485.282C62.0281 484.596 62.1219 483.405 61.4413 482.62L52.4094 472.21C51.7288 471.426 50.5323 471.346 49.7364 472.032C48.9404 472.717 48.8466 473.909 49.5272 474.693L58.5591 485.103C59.0712 485.692 59.876 485.884 60.582 485.65Z" fill="#003959"/>
<path d="M54.1747 492.226C54.4067 492.148 54.6285 492.027 54.825 491.857C55.6209 491.171 55.7147 489.98 55.0341 489.195L46.0022 478.786C45.3216 478.001 44.1251 477.921 43.3291 478.607C42.5332 479.293 42.4394 480.484 43.12 481.269L52.1519 491.678C52.6639 492.269 53.4688 492.46 54.1747 492.226Z" fill="#003959"/>
<path d="M68.0157 478.031L69.3313 479.351C69.9777 480 85.1517 495.354 83.5509 504.643C83.1466 506.985 81.7486 508.757 79.3949 509.909C77.1376 511.014 75.1312 510.994 73.4341 509.852C66.3211 505.065 67.8243 480.931 67.8927 479.907L68.0157 478.031ZM75.3809 508.905C76.3378 509.169 77.4227 508.995 78.6699 508.386C80.528 507.477 81.5813 506.162 81.8905 504.37C82.4824 500.942 80.3201 495.764 75.6394 489.395C73.3289 486.252 70.9207 483.531 69.4733 481.967C69.1716 489.729 69.5861 505.214 74.3808 508.44C74.6964 508.653 75.031 508.808 75.3809 508.905Z" fill="#003959"/>
<path d="M69.0373 478.656L69.396 480.495C69.5722 481.4 73.6382 502.732 67.1907 509.611C65.5645 511.346 63.4314 512.047 60.8508 511.696C58.3768 511.359 56.7291 510.223 55.9559 508.317C52.7201 500.336 67.2794 480.976 67.9004 480.156L69.0373 478.656ZM60.136 509.825C60.4313 509.907 60.7494 509.97 61.0917 510.017C63.1285 510.294 64.7242 509.784 65.9688 508.455C68.3491 505.917 69.4201 500.374 69.0665 492.427C68.8916 488.506 68.4023 484.881 68.0703 482.764C63.5378 489.092 55.3349 502.285 57.5174 507.664C57.9572 508.751 58.8178 509.462 60.136 509.825Z" fill="#003959"/>
<path d="M93.3977 446.753C93.3977 446.753 121.481 449.921 154.381 448.613C197.814 446.887 115.634 375.029 117.045 371.911C128.699 346.142 155.895 327.773 168.824 350.184C168.824 350.184 288.222 474.099 181.979 499.058C131.202 510.986 94.2076 509.024 94.2076 509.024C91.2697 495.428 84.4926 454.178 93.3977 446.753Z" fill="#003959"/>
<path d="M132.155 267.373C127.273 262.606 87.7299 258.81 88.9669 300.531C90.7096 359.337 124.402 388.888 124.402 388.888C147.214 390.34 195.32 369.483 187.582 346.233C187.582 346.233 165.346 339.866 153.909 309.664C152.484 305.901 156.777 299.991 153.368 292.878C149.957 285.765 135.708 270.843 132.155 267.373Z" fill="#00C7C7"/>
<path d="M242.416 305.424C242.416 305.424 248.853 280.6 257.698 267.128C260.816 262.379 274.418 239.479 275.688 237.86C283.165 238.873 271.124 256.92 275.015 256.181C279.089 255.408 291.562 240.966 296.751 234.593C301.94 228.22 305.838 231.656 301.993 237.27C299.394 241.064 288.862 252.58 288.862 252.58C288.862 252.58 301.116 241.862 306.199 237.854C311.819 233.424 314.17 237.803 309.492 242.722C304.813 247.641 293.692 258.16 293.692 258.16C293.692 258.16 303.79 250.692 309.562 246.442C315.655 241.957 317.164 247.203 311.471 251.777C306.649 255.65 295.366 264.922 295.366 264.922C295.366 264.922 304.254 258.981 309.383 255.72C313.978 252.798 317.101 256.815 308.903 263.022C300.088 269.697 288.065 279.89 275.266 289.569C267.878 295.156 263.344 318.408 263.344 318.408L242.416 305.424Z" fill="#FABCC6"/>
<path d="M105.696 279.3C169.411 314.274 201.311 340.101 250.85 276.568C266.807 266.998 279.402 289.561 279.387 298.201C240.806 376.681 169.548 385.559 92.8341 307.053C83.3447 297.342 96.6301 274.322 105.696 279.3Z" fill="#00B2B2"/>
<path d="M128.724 254.086L109.261 245.104C107.823 254.18 105.134 261.223 101.328 270.461C102.35 277.236 124.122 285.359 130.425 284.382C140.131 282.878 123.901 265.82 123.901 265.82L128.724 254.086Z" fill="#FABCC6"/>
<path d="M83.0097 208.838C73.7357 205.952 61.451 215.86 65.6265 230.942C70.5872 248.858 100.362 240.44 98.2999 230.181C96.6724 222.074 91.4699 211.471 83.0097 208.838Z" fill="#003959"/>
<path d="M123.545 230.311C123.545 230.311 118.943 220.296 108.06 221.331C89.4964 223.096 91.9351 239.874 96.4616 247.556C102.618 258.003 106.965 255.14 106.965 255.14C106.965 255.14 107.93 254.646 107.303 251.701C104.074 248.11 109.867 240.76 111.219 235.212C112.441 230.197 123.545 230.311 123.545 230.311Z" fill="#003959"/>
<path d="M107.289 228.628C110.57 234.541 108.178 240.216 102.523 244.147C100.862 245.476 100.833 248.411 102.518 250.881C103.961 252.997 106.21 254.113 108.014 253.77C113.614 259.526 124.828 260.532 130.387 256.91C136.821 252.719 134.346 243.638 128.863 235.596C123.382 227.557 113.721 224.437 107.289 228.628Z" fill="#FABCC6"/>
<path d="M124.151 249.504C124.151 249.504 126.811 249.897 129.019 249.232C131.229 248.554 131.393 247.296 131.393 247.296C131.393 247.296 131.5 250.555 129.267 251.368C127.034 252.168 124.15 249.517 124.15 249.517L124.151 249.504Z" fill="#003959"/>
<path d="M124.746 239.385C123.966 239.25 123.22 238.927 122.56 238.428C121.455 237.593 120.721 236.364 120.493 234.967C120.017 232.066 121.894 229.331 124.673 228.868C126.028 228.642 127.39 228.982 128.508 229.827C129.613 230.662 130.346 231.892 130.575 233.288C130.804 234.684 130.5 236.088 129.72 237.235C128.929 238.397 127.749 239.161 126.395 239.387C125.841 239.481 125.284 239.478 124.746 239.385ZM126.088 230.09C125.687 230.022 125.279 230.02 124.871 230.087C122.778 230.436 121.371 232.531 121.735 234.759C121.912 235.846 122.482 236.8 123.334 237.443C124.174 238.077 125.188 238.332 126.194 238.165C127.201 237.999 128.079 237.424 128.672 236.553C129.273 235.667 129.507 234.58 129.33 233.493C129.153 232.407 128.584 231.452 127.733 230.81C127.232 230.436 126.67 230.191 126.088 230.09Z" fill="#003959"/>
<path d="M114.063 247.491C111.538 247.057 109.425 244.988 108.97 242.219C108.697 240.552 109.058 238.878 109.991 237.508C110.933 236.119 112.344 235.207 113.961 234.939C115.579 234.668 117.204 235.077 118.54 236.085C119.858 237.081 120.734 238.548 121.01 240.217C121.283 241.883 120.922 243.558 119.991 244.928C119.05 246.316 117.638 247.229 116.021 247.497C115.352 247.606 114.695 247.601 114.063 247.491ZM115.651 236.397C115.176 236.317 114.687 236.314 114.198 236.395C112.997 236.595 111.947 237.279 111.239 238.319C110.522 239.377 110.244 240.674 110.454 241.972C110.888 244.631 113.275 246.454 115.776 246.038C116.977 245.838 118.028 245.154 118.735 244.114C119.453 243.056 119.731 241.758 119.52 240.461C119.307 239.164 118.631 238.025 117.612 237.258C117.016 236.808 116.348 236.517 115.651 236.397Z" fill="#003959"/>
<path d="M119.412 238.176L118.733 237.138L121.146 235.604L121.825 236.642L119.412 238.176Z" fill="#003959"/>
<path d="M100.628 246.744L101.127 245.223L109.577 242.204L110.066 243.717L100.628 246.744Z" fill="#003959"/>
<defs>
<linearGradient id="paint0_linear_5228_44880" x1="429.369" y1="369.742" x2="429.369" y2="448" gradientUnits="userSpaceOnUse">
<stop stop-color="#E3F5FF"/>
<stop offset="1" stop-color="#E3F5FF" stop-opacity="0"/>
</linearGradient>
</defs>
</svg>
