<svg width="520" height="466" viewBox="0 0 520 466" fill="none" xmlns="http://www.w3.org/2000/svg">
<path d="M51.2674 466H177.363C186.238 466 192.654 458.677 191.62 449.727L158.483 162.731C157.449 153.78 149.342 146.458 140.468 146.458H14.3707C5.49504 146.458 -0.920078 153.78 0.113122 162.731L33.2509 449.727C34.2841 458.677 42.3917 466 51.266 466H51.2674Z" fill="#005280"/>
<path d="M8.50349 191.504L11.1277 191.45C11.3436 191.445 11.4837 191.142 11.4384 190.776L10.1431 180.387C10.0979 180.021 9.88344 179.725 9.66609 179.729L7.04185 179.783C6.82596 179.787 6.68592 180.091 6.73115 180.457L8.02649 190.846C8.07171 191.212 8.28614 191.508 8.50349 191.504Z" fill="#004368"/>
<path d="M10.314 205.872L12.9383 205.818C13.1542 205.814 13.2942 205.51 13.249 205.144L11.9536 194.755C11.9084 194.389 11.694 194.093 11.4766 194.097L8.8524 194.151C8.63651 194.156 8.49647 194.459 8.54169 194.825L9.83704 205.214C9.88226 205.58 10.0967 205.876 10.314 205.872Z" fill="#004368"/>
<path d="M64.3708 466.001C60.169 466.001 56.0139 464.339 52.6668 461.323C49.3197 458.305 47.2071 454.313 46.718 450.083L13.4259 162.269C12.9367 158.038 14.1276 154.057 16.7788 151.06C19.4038 148.092 23.1411 146.458 27.3021 146.458H153.99C158.192 146.458 162.347 148.12 165.694 151.136C169.041 154.153 171.154 158.145 171.643 162.375L204.937 450.188C205.426 454.418 204.235 458.4 201.584 461.397C198.959 464.365 195.221 465.999 191.06 465.999H64.3708V466.001Z" fill="#004368"/>
<path d="M58.1512 436.888C54.519 436.888 51.2208 433.933 50.7963 430.299L20.9392 173.883C20.7365 172.144 21.2281 170.51 22.3206 169.282C23.403 168.067 24.9463 167.397 26.6647 167.397H158.52C162.152 167.397 165.45 170.353 165.873 173.986L195.732 430.402C195.935 432.14 195.443 433.774 194.35 435.002C193.268 436.217 191.725 436.887 190.006 436.887H58.1512V436.888Z" fill="#003959"/>
<path d="M27.5382 183.729H31.1063L30.4425 178.024H26.873L27.5382 183.729Z" fill="#004368"/>
<path d="M32.6047 183.727H36.1727L35.1794 175.2H31.6113L32.6047 183.727Z" fill="#004368"/>
<path d="M37.6904 183.728H41.2584L39.7414 170.69H36.1719L37.6904 183.728Z" fill="#004368"/>
<path d="M159.596 183.726H163.024L162.266 177.207H158.838L159.596 183.726Z" fill="#004368"/>
<path d="M155.489 183.726H158.917L158.157 177.207H154.73L155.489 183.726Z" fill="#004368"/>
<path d="M151.375 183.726H154.802L154.043 177.207H150.615L151.375 183.726Z" fill="#004368"/>
<path d="M147.26 183.726H150.688L149.929 177.207H146.502L147.26 183.726Z" fill="#004368"/>
<path d="M143.149 183.726H146.575L145.817 177.207H142.389L143.149 183.726Z" fill="#004368"/>
<path d="M159.169 209.065H36.9503L36.1699 199.983H158.389L159.169 209.065Z" fill="#004368"/>
<path d="M133.257 222.141H38.4386L37.6582 213.057H132.476L133.257 222.141Z" fill="#004368"/>
<path d="M138.106 278.325H43.2863L42.5059 269.241H137.326L138.106 278.325Z" fill="#004368"/>
<path d="M126.552 343.938H101.181L91.7035 309.118L81.5684 308.439L81.5917 308.084L91.9792 308.782L92.0128 308.903L101.452 343.584H126.552V343.938Z" fill="#004368"/>
<path d="M126.246 331.813H98.0158V331.458H125.943L128.607 314.608H93.2852V314.254H129.022L126.246 331.813Z" fill="#004368"/>
<path d="M125.158 314.387L122.832 331.592L123.183 331.64L125.51 314.435L125.158 314.387Z" fill="#004368"/>
<path d="M121.056 314.42L119.727 331.624L120.08 331.651L121.41 314.447L121.056 314.42Z" fill="#004368"/>
<path d="M116.948 314.42L116.617 331.624L116.972 331.631L117.302 314.427L116.948 314.42Z" fill="#004368"/>
<path d="M113.216 314.417L112.861 314.431L113.528 331.636L113.882 331.622L113.216 314.417Z" fill="#004368"/>
<path d="M109.101 314.408L108.748 314.442L110.414 331.646L110.767 331.612L109.101 314.408Z" fill="#004368"/>
<path d="M104.979 314.411L104.629 314.465L107.292 331.67L107.643 331.615L104.979 314.411Z" fill="#004368"/>
<path d="M100.882 314.394L100.535 314.468L104.198 331.673L104.545 331.599L100.882 314.394Z" fill="#004368"/>
<path d="M96.764 314.392L96.4219 314.485L101.084 331.69L101.426 331.598L96.764 314.392Z" fill="#004368"/>
<path d="M128.387 316.946H94.0645V317.3H128.387V316.946Z" fill="#004368"/>
<path d="M128.022 319.307H94.709V319.662H128.022V319.307Z" fill="#004368"/>
<path d="M127.652 321.671H95.3496V322.025H127.652V321.671Z" fill="#004368"/>
<path d="M127.287 324.033H95.9941V324.387H127.287V324.033Z" fill="#004368"/>
<path d="M126.92 326.395H96.6387V326.749H126.92V326.395Z" fill="#004368"/>
<path d="M126.551 328.756H97.2793V329.111H126.551V328.756Z" fill="#004368"/>
<path d="M104.472 348.289C103.173 348.289 102.117 347.233 102.117 345.935C102.117 344.636 103.173 343.58 104.472 343.58C105.77 343.58 106.826 344.636 106.826 345.935C106.826 347.233 105.77 348.289 104.472 348.289ZM104.472 343.936C103.369 343.936 102.473 344.833 102.473 345.935C102.473 347.036 103.37 347.933 104.472 347.933C105.573 347.933 106.47 347.036 106.47 345.935C106.47 344.833 105.573 343.936 104.472 343.936Z" fill="#004368"/>
<path d="M104.474 347.039C103.866 347.039 103.371 346.544 103.371 345.936C103.371 345.328 103.866 344.833 104.474 344.833C105.082 344.833 105.577 345.328 105.577 345.936C105.577 346.544 105.082 347.039 104.474 347.039ZM104.474 345.189C104.061 345.189 103.727 345.524 103.727 345.936C103.727 346.347 104.063 346.683 104.474 346.683C104.885 346.683 105.221 346.347 105.221 345.936C105.221 345.524 104.885 345.189 104.474 345.189Z" fill="#004368"/>
<path d="M126.556 348.289C125.257 348.289 124.201 347.233 124.201 345.935C124.201 344.636 125.257 343.58 126.556 343.58C127.854 343.58 128.91 344.636 128.91 345.935C128.91 347.233 127.854 348.289 126.556 348.289ZM126.556 343.936C125.453 343.936 124.557 344.833 124.557 345.935C124.557 347.036 125.454 347.933 126.556 347.933C127.657 347.933 128.554 347.036 128.554 345.935C128.554 344.833 127.657 343.936 126.556 343.936Z" fill="#004368"/>
<path d="M126.558 347.039C125.95 347.039 125.455 346.544 125.455 345.936C125.455 345.328 125.95 344.833 126.558 344.833C127.166 344.833 127.661 345.328 127.661 345.936C127.661 346.544 127.166 347.039 126.558 347.039ZM126.558 345.189C126.145 345.189 125.811 345.524 125.811 345.936C125.811 346.347 126.147 346.683 126.558 346.683C126.969 346.683 127.305 346.347 127.305 345.936C127.305 345.524 126.969 345.189 126.558 345.189Z" fill="#004368"/>
<path d="M94.9984 289.804H115.769L117.399 302.142H124.501L109.091 312.62L90.4297 302.142H96.6278L94.9984 289.804Z" fill="#004368"/>
<path d="M119.311 269.076H48.8039L45.3555 232.457H115.863L119.311 269.076Z" fill="#004368"/>
<path d="M106.249 260.725H74.9299L66.9551 257.11H104.751L106.249 260.725Z" fill="#003959"/>
<path d="M92.5448 260.726H61.2261L51.9238 241.743H83.2425L92.5448 260.726Z" fill="#003959"/>
<path d="M396.258 402.612L412.829 302.665L493.088 306.073L471.64 402.612H396.258Z" fill="#50FF81"/>
<path d="M493.088 306.074L502.924 322.49L488.263 402.613H471.641L493.088 306.074Z" fill="#1AD34E"/>
<path d="M496.095 448.791H401.389L366.12 319.213L328.693 316.704L328.835 314.592L367.767 317.202L403.006 446.675H496.095V448.791Z" fill="#005280"/>
<path d="M495.296 403.671H389.918V401.554H493.488L503.273 339.658H372.318V337.541H505.75L495.296 403.671Z" fill="#005280"/>
<path d="M490.553 338.464L481.875 402.477L483.972 402.761L492.65 338.749L490.553 338.464Z" fill="#005280"/>
<path d="M475.258 338.513L470.299 402.526L472.409 402.69L477.368 338.676L475.258 338.513Z" fill="#005280"/>
<path d="M459.977 338.576L458.736 402.589L460.853 402.63L462.093 338.617L459.977 338.576Z" fill="#005280"/>
<path d="M446.836 338.536L444.721 338.618L447.202 402.631L449.317 402.549L446.836 338.536Z" fill="#005280"/>
<path d="M431.546 338.484L429.439 338.688L435.637 402.701L437.744 402.497L431.546 338.484Z" fill="#005280"/>
<path d="M416.246 338.46L414.154 338.783L424.064 402.797L426.156 402.473L416.246 338.46Z" fill="#005280"/>
<path d="M400.971 338.378L398.9 338.818L412.53 402.832L414.6 402.391L400.971 338.378Z" fill="#005280"/>
<path d="M385.674 338.342L383.631 338.896L400.975 402.91L403.018 402.356L385.674 338.342Z" fill="#005280"/>
<path d="M502.927 347.561H375.221V349.677H502.927V347.561Z" fill="#005280"/>
<path d="M501.561 356.35H377.613V358.467H501.561V356.35Z" fill="#005280"/>
<path d="M500.194 365.138H380.006V367.254H500.194V365.138Z" fill="#005280"/>
<path d="M498.829 373.927H382.398V376.044H498.829V373.927Z" fill="#005280"/>
<path d="M497.463 382.717H384.791V384.833H497.463V382.717Z" fill="#005280"/>
<path d="M496.094 391.507H387.182V393.623H496.094V391.507Z" fill="#005280"/>
<path d="M413.934 464.988C408.885 464.988 404.777 460.88 404.777 455.832C404.777 450.783 408.885 446.675 413.934 446.675C418.982 446.675 423.09 450.783 423.09 455.832C423.09 460.88 418.982 464.988 413.934 464.988ZM413.934 448.792C410.052 448.792 406.894 451.95 406.894 455.832C406.894 459.713 410.052 462.871 413.934 462.871C417.815 462.871 420.974 459.713 420.974 455.832C420.974 451.95 417.815 448.792 413.934 448.792Z" fill="#005280"/>
<path d="M413.932 460.331C411.451 460.331 409.432 458.312 409.432 455.831C409.432 453.35 411.451 451.331 413.932 451.331C416.413 451.331 418.432 453.35 418.432 455.831C418.432 458.312 416.413 460.331 413.932 460.331ZM413.932 453.449C412.617 453.449 411.548 454.518 411.548 455.832C411.548 457.147 412.617 458.216 413.932 458.216C415.246 458.216 416.315 457.147 416.315 455.832C416.315 454.518 415.246 453.449 413.932 453.449Z" fill="#005280"/>
<path d="M496.092 464.988C491.043 464.988 486.936 460.88 486.936 455.832C486.936 450.783 491.043 446.675 496.092 446.675C501.141 446.675 505.248 450.783 505.248 455.832C505.248 460.88 501.141 464.988 496.092 464.988ZM496.092 448.792C492.21 448.792 489.052 451.95 489.052 455.832C489.052 459.713 492.21 462.871 496.092 462.871C499.974 462.871 503.132 459.713 503.132 455.832C503.132 451.95 499.974 448.792 496.092 448.792Z" fill="#005280"/>
<path d="M496.09 460.331C493.609 460.331 491.59 458.312 491.59 455.831C491.59 453.35 493.609 451.331 496.09 451.331C498.571 451.331 500.59 453.35 500.59 455.831C500.59 458.312 498.571 460.331 496.09 460.331ZM496.09 453.449C494.776 453.449 493.706 454.518 493.706 455.832C493.706 457.147 494.776 458.216 496.09 458.216C497.404 458.216 498.474 457.147 498.474 455.832C498.474 454.518 497.404 453.449 496.09 453.449Z" fill="#005280"/>
<path d="M327.867 319.46C327.867 319.46 333.069 323.472 337.845 316.677C342.622 309.882 333.609 307.823 333.609 307.823L327.867 319.46Z" fill="#FABCC6"/>
<path d="M316.044 316.358C316.044 316.358 320.447 320.779 324.627 330.715C272.376 365.924 236.992 324.063 232.563 308.688C228.273 293.796 220.24 280.354 232.7 278.916C255.256 276.312 250.956 349.083 316.044 316.359V316.358Z" fill="#00B2B2"/>
<path d="M305.999 319.98C305.999 319.98 319.32 311.925 324.971 308.787C330.622 305.649 335.671 308.005 337.274 310.933C338.879 313.86 335.811 317.274 331.891 319.208C327.454 321.398 325.979 319.172 327.795 317.557C329.611 315.942 331.401 313.825 330.074 313.825C328.746 313.825 327.852 317.742 324.748 321.103C321.193 324.95 314.675 324.419 314.675 324.419L305.996 319.978L305.999 319.98Z" fill="#FABCC6"/>
<path d="M74.0779 377.919L74.6103 381.526L70.6558 381.875L49.1367 406.755L53.7346 410.585L92.3513 368.126L87.0605 363.651L74.0779 377.919Z" fill="#002D46"/>
<path d="M88.707 394.625L113.89 400.683L123.836 383.823L96.5433 377.361L88.707 394.625Z" fill="#FABCC6"/>
<path d="M53.7344 410.585C53.7344 410.585 61.2001 419.29 73.1572 408.256C83.6586 398.566 95.3181 396.875 95.3181 396.875C95.3181 396.875 90.7961 392.433 94.6573 386.117C98.7665 379.394 105.84 379.313 105.84 379.313L92.3511 368.128L53.7344 410.585Z" fill="#00C7C7"/>
<path d="M84.1841 400.935C83.9011 400.935 83.64 400.748 83.5598 400.462C82.8625 397.995 81.5161 395.727 79.6679 393.899C79.4126 393.647 79.4097 393.236 79.6621 392.982C79.9144 392.727 80.3258 392.725 80.5796 392.976C82.5868 394.96 84.0499 397.427 84.8084 400.108C84.9062 400.453 84.7049 400.812 84.3606 400.91C84.3023 400.926 84.2425 400.935 84.1841 400.935Z" fill="#002D46"/>
<path d="M79.6997 403.903C79.4167 403.903 79.1556 403.716 79.0754 403.43C78.3781 400.963 77.0317 398.695 75.1835 396.867C74.9283 396.615 74.9253 396.203 75.1777 395.95C75.43 395.694 75.8414 395.693 76.0952 395.944C78.1024 397.928 79.5655 400.394 80.3241 403.075C80.4218 403.421 80.2205 403.78 79.8762 403.878C79.8179 403.894 79.7581 403.903 79.6997 403.903Z" fill="#002D46"/>
<path d="M75.8052 406.559C75.5222 406.559 75.2611 406.372 75.1809 406.086C74.4836 403.619 73.1372 401.351 71.289 399.523C71.0337 399.271 71.0308 398.86 71.2832 398.606C71.5355 398.351 71.9469 398.349 72.2007 398.6C74.2079 400.584 75.671 403.051 76.4295 405.732C76.5273 406.077 76.326 406.436 75.9817 406.534C75.9219 406.55 75.8635 406.559 75.8052 406.559Z" fill="#002D46"/>
<path d="M84.8006 413.305C84.2521 413.305 83.5913 413.125 82.8299 412.602C81.5987 411.754 80.9175 410.597 80.8052 409.164C80.3909 403.89 88.0915 396.516 88.4197 396.206C88.6064 396.029 88.8792 395.978 89.1155 396.077C89.3533 396.177 89.5094 396.406 89.5152 396.662C89.5152 396.697 89.5911 400.208 89.2293 403.906C88.7187 409.12 87.648 412.098 85.9574 413.013C85.6598 413.174 85.2718 413.306 84.8021 413.306L84.8006 413.305ZM88.2272 398.249C86.1456 400.454 81.8175 405.498 82.0991 409.061C82.1808 410.1 82.6607 410.908 83.5651 411.531C84.6212 412.258 85.1609 411.966 85.3389 411.869C87.4395 410.735 88.1922 403.475 88.2272 398.249Z" fill="#002D46"/>
<path d="M91.3426 413.532C91.1048 413.532 90.8466 413.511 90.5651 413.465C89.0903 413.22 87.9832 412.463 87.2728 411.211C84.6602 406.612 88.5025 396.668 88.6673 396.246C88.7607 396.007 88.9868 395.845 89.2435 395.835C89.5017 395.823 89.7395 395.964 89.8532 396.195C89.8693 396.226 91.4272 399.374 92.6686 402.876C94.419 407.814 94.7137 410.965 93.5715 412.511C93.2068 413.004 92.5373 413.533 91.3441 413.533L91.3426 413.532ZM89.3616 398.179C88.412 401.058 86.6338 407.461 88.4004 410.569C88.9153 411.475 89.6928 412.003 90.7766 412.183C92.0413 412.393 92.406 411.898 92.5256 411.736C93.9449 409.816 91.5468 402.924 89.3616 398.177V398.179Z" fill="#002D46"/>
<path d="M111.551 379.561C111.551 379.561 148.86 388.732 165.58 381.466C191.876 370.038 198.083 322.308 198.083 322.308L225.138 349.486C225.138 349.486 212.633 395.287 182.619 411.92C152.603 428.552 108.463 411.718 108.463 411.718C99.746 403.941 105.384 382.718 111.55 379.562L111.551 379.561Z" fill="#002D46"/>
<path d="M107.863 394.139C106.179 393.603 105.241 393.268 105.201 393.253L105.639 392.031C105.648 392.034 106.597 392.372 108.257 392.9L107.863 394.137V394.139Z" fill="black"/>
<path d="M199.745 366.526L198.516 366.109C199.066 364.491 199.292 363.515 199.293 363.507L200.559 363.798C200.549 363.841 200.316 364.847 199.745 366.528V366.526Z" fill="black"/>
<path d="M362.286 437.066L341.578 416.224L322.375 421.528L342.86 444.587L362.286 437.066Z" fill="#FABCC6"/>
<path d="M361.153 455.678L362.766 452.406L366.217 454.368L398.064 446.13L396.46 440.365L340.553 453.347L342.362 460.036L361.153 455.678Z" fill="#002D46"/>
<path d="M396.459 440.364C396.459 440.364 395.263 428.959 379.155 431.242C365.006 433.246 354.453 428.008 354.453 428.008C354.453 428.008 355.649 434.232 348.882 437.234C341.679 440.43 336.074 437.812 336.074 437.812L340.554 453.346L396.459 440.364Z" fill="#00C7C7"/>
<path d="M365.003 440.124C364.697 440.124 364.424 439.906 364.366 439.594C363.842 436.821 364.041 433.961 364.941 431.322C365.056 430.982 365.425 430.801 365.765 430.916C366.105 431.032 366.286 431.401 366.17 431.741C365.343 434.166 365.161 436.798 365.642 439.352C365.709 439.705 365.477 440.044 365.124 440.111C365.084 440.118 365.043 440.122 365.003 440.122V440.124Z" fill="#003959"/>
<path d="M370.376 440.228C370.07 440.228 369.797 440.011 369.739 439.699C369.215 436.926 369.414 434.065 370.314 431.427C370.429 431.087 370.798 430.906 371.138 431.021C371.478 431.136 371.659 431.505 371.543 431.845C370.716 434.271 370.534 436.903 371.015 439.457C371.082 439.81 370.85 440.148 370.497 440.215C370.457 440.223 370.416 440.227 370.376 440.227V440.228Z" fill="#003959"/>
<path d="M375.089 440.254C374.783 440.254 374.51 440.037 374.452 439.725C373.928 436.952 374.127 434.091 375.027 431.452C375.142 431.113 375.511 430.932 375.851 431.047C376.191 431.162 376.372 431.531 376.256 431.871C375.429 434.297 375.247 436.928 375.728 439.483C375.795 439.836 375.563 440.174 375.21 440.241C375.17 440.249 375.129 440.253 375.089 440.253V440.254Z" fill="#003959"/>
<path d="M360.461 432.495C360.381 432.495 360.3 432.48 360.223 432.45C359.984 432.356 359.823 432.13 359.812 431.873C359.81 431.838 359.664 428.33 359.952 424.625C360.357 419.401 361.367 416.402 363.038 415.454C363.677 415.092 364.741 414.858 366.173 415.801C367.422 416.623 368.126 417.766 368.268 419.199C368.789 424.463 361.238 431.99 360.917 432.308C360.793 432.431 360.629 432.496 360.461 432.496V432.495ZM364.235 416.433C363.946 416.433 363.768 416.534 363.68 416.583C361.603 417.762 360.996 425.034 361.068 430.259C363.104 428.012 367.329 422.883 366.977 419.324C366.875 418.287 366.379 417.489 365.461 416.885C364.926 416.532 364.525 416.433 364.236 416.433H364.235Z" fill="#002D46"/>
<path d="M360.057 432.697C359.816 432.697 359.595 432.565 359.482 432.349C359.466 432.318 357.846 429.204 356.533 425.726C354.683 420.825 354.324 417.68 355.436 416.112C355.86 415.512 356.722 414.85 358.422 415.096C359.901 415.311 361.024 416.046 361.759 417.283C364.465 421.828 360.823 431.848 360.667 432.273C360.578 432.513 360.356 432.68 360.099 432.696C360.085 432.696 360.072 432.696 360.057 432.696V432.697ZM357.72 416.341C356.865 416.341 356.595 416.723 356.496 416.863C355.115 418.81 357.653 425.653 359.933 430.355C360.824 427.456 362.473 421.019 360.643 417.947C360.109 417.051 359.323 416.539 358.235 416.381C358.042 416.354 357.872 416.342 357.72 416.342V416.341Z" fill="#002D46"/>
<path d="M342.425 416.981C342.474 430.347 333.306 436.911 320.392 440.399C320.392 440.399 289.863 390.493 215.557 374.481C192.168 369.441 179.49 353.122 188.41 333.663C190.461 328.995 191.592 321.899 202.125 325.327C210.406 324.832 223.331 330.374 233.021 343.152C275.732 354.238 315.294 381.846 342.425 416.982V416.981Z" fill="#003451"/>
<path d="M185.088 341.516C191.069 303.823 211.012 280.253 230.021 278.396C239.275 277.491 240.846 278.959 248.194 284.699C253.756 289.044 255.754 306.286 255.754 306.286C213.247 330.777 229.962 339.784 229.962 339.784C220.619 328.207 191.738 335.866 185.089 341.517L185.088 341.516Z" fill="#00B2B2"/>
<path d="M241.127 280.26L248.766 276.142L252.75 281.875L248.197 284.699C248.197 284.699 248.035 293.208 244.636 291.931C241.237 290.655 239.485 281.752 241.127 280.26Z" fill="#FABCC6"/>
<path d="M261.527 253.641C261.609 252.734 261.496 251.796 261.157 250.887C259.949 247.643 256.341 245.993 253.098 247.199C251.363 247.845 250.084 249.178 249.454 250.774C247.934 249.977 246.095 249.805 244.361 250.452C241.383 251.561 239.749 254.692 240.435 257.705C240.417 257.712 240.4 257.717 240.381 257.724C237.138 258.932 235.488 262.54 236.693 265.784C237.302 267.418 238.517 268.647 239.991 269.31C239.312 270.774 239.194 272.499 239.803 274.133C241.011 277.377 244.619 279.027 247.863 277.821C251.107 276.613 252.757 273.005 251.551 269.761C250.942 268.127 249.727 266.898 248.253 266.235C248.822 265.008 248.996 263.6 248.681 262.218C248.7 262.211 248.716 262.207 248.735 262.199C250.47 261.553 251.748 260.22 252.378 258.624C253.187 259.047 254.087 259.294 255.013 259.337C254.931 260.244 255.044 261.182 255.382 262.091C256.59 265.335 260.198 266.985 263.442 265.779C266.686 264.571 268.336 260.963 267.13 257.719C266.225 255.287 263.969 253.752 261.531 253.644L261.527 253.641Z" fill="#002D46"/>
<path d="M251.292 260.428C243.357 260.428 242.581 265.437 243.284 269.457C240.355 268.775 239.119 274.832 244.344 276.09C245.282 281.225 254.787 287.52 260.078 285.694C263.414 284.544 264.375 276.061 260.783 270.655C260.102 269.63 261.051 268.364 260.501 267.198C258.626 263.228 255.074 260.428 251.29 260.428H251.292Z" fill="#FABCC6"/>
<path d="M253.395 280.164C253.395 280.164 255.15 280.289 256.557 279.745C257.965 279.193 258.01 278.364 258.01 278.364C258.01 278.364 258.241 280.485 256.825 281.126C255.408 281.759 253.395 280.173 253.395 280.173V280.164Z" fill="#003959"/>
<path d="M256.801 274.357C256.444 274.214 256.114 273.974 255.847 273.662C255.402 273.145 255.179 272.468 255.215 271.773C255.286 270.321 256.471 269.189 257.852 269.261C258.529 269.296 259.144 269.599 259.589 270.125C260.035 270.642 260.257 271.319 260.222 272.014C260.186 272.718 259.892 273.359 259.402 273.831C258.903 274.313 258.253 274.553 257.585 274.526C257.308 274.509 257.041 274.455 256.792 274.348L256.801 274.357ZM258.413 270C258.226 269.929 258.03 269.884 257.834 269.867C256.792 269.813 255.901 270.677 255.847 271.8C255.82 272.343 255.99 272.869 256.337 273.27C256.676 273.662 257.13 273.894 257.638 273.92C258.137 273.947 258.618 273.76 258.992 273.404C259.375 273.038 259.598 272.54 259.625 271.996C259.652 271.453 259.482 270.927 259.135 270.526C258.939 270.294 258.689 270.116 258.422 270H258.413Z" fill="#003959"/>
<path d="M250.839 277.159C249.672 276.687 248.879 275.457 248.941 274.076C248.985 273.239 249.333 272.473 249.921 271.902C250.518 271.332 251.284 271.038 252.095 271.074C252.897 271.109 253.636 271.484 254.171 272.107C254.697 272.731 254.964 273.533 254.928 274.361C254.884 275.199 254.536 275.965 253.948 276.535C253.351 277.106 252.585 277.4 251.774 277.364C251.445 277.346 251.133 277.275 250.839 277.159ZM252.754 271.956C252.532 271.867 252.3 271.813 252.059 271.804C251.462 271.778 250.892 271.991 250.438 272.428C249.983 272.865 249.716 273.462 249.68 274.112C249.609 275.448 250.571 276.58 251.81 276.642C252.407 276.669 252.977 276.455 253.431 276.019C253.886 275.582 254.153 274.985 254.189 274.335C254.224 273.684 254.019 273.061 253.61 272.588C253.369 272.312 253.084 272.098 252.754 271.965V271.956Z" fill="#003959"/>
<path d="M254.372 273.206L254.158 272.636L255.468 272.146L255.691 272.716L254.372 273.206Z" fill="#003959"/>
<path d="M245.822 275.238L245.76 274.623L249.252 274.293L249.315 274.908L245.822 275.238Z" fill="#003959"/>
<path d="M250.429 255.952C248.238 256.51 246.659 258.24 246.182 260.299C245.427 260.08 244.609 260.052 243.794 260.259C241.349 260.881 239.871 263.366 240.491 265.813C241.114 268.257 243.598 269.736 246.045 269.115C247.395 268.772 248.448 267.86 249.016 266.701C250.276 267.406 251.795 267.653 253.304 267.27C256.427 266.476 258.317 263.298 257.523 260.174C256.728 257.05 253.55 255.16 250.427 255.955L250.429 255.952Z" fill="#002D46"/>
<path d="M310.798 316.358C310.798 316.358 315.2 320.779 319.381 330.715C267.13 365.924 231.746 324.063 227.317 308.688C223.027 293.796 214.994 280.354 227.454 278.916C250.01 276.312 245.71 349.083 310.798 316.359V316.358Z" fill="#00C7C7"/>
<path d="M482.919 187.491L482.733 186.958L483.559 186.669L483.745 187.203L482.918 187.49L482.919 187.491ZM481.818 184.383C481.508 183.526 481.191 182.663 480.875 181.817L481.695 181.51C482.012 182.359 482.331 183.225 482.641 184.086L481.818 184.384L481.818 184.383ZM479.904 179.259C479.577 178.414 479.242 177.557 478.905 176.714L479.719 176.39C480.056 177.237 480.393 178.096 480.721 178.944L479.904 179.259ZM477.879 174.18C477.532 173.337 477.179 172.489 476.825 171.658L477.63 171.316C477.984 172.15 478.34 173.002 478.688 173.848L477.878 174.182L477.879 174.18ZM475.743 169.148C475.379 168.318 475.005 167.478 474.631 166.651L475.43 166.29C475.804 167.12 476.18 167.964 476.545 168.797L475.743 169.148ZM473.491 164.166C473.108 163.344 472.715 162.512 472.322 161.695L473.111 161.316C473.505 162.136 473.9 162.97 474.284 163.796L473.491 164.166ZM471.124 159.238C470.721 158.426 470.308 157.604 469.897 156.796L470.677 156.398C471.091 157.208 471.505 158.034 471.909 158.849L471.124 159.237L471.124 159.238ZM468.638 154.369C468.217 153.567 467.784 152.757 467.352 151.958L468.121 151.542C468.555 152.343 468.99 153.157 469.412 153.963L468.637 154.371L468.638 154.369ZM466.035 149.563C465.595 148.773 465.142 147.973 464.689 147.186L465.448 146.749C465.904 147.541 466.358 148.344 466.801 149.137L466.037 149.563L466.035 149.563ZM463.312 144.824C462.848 144.042 462.375 143.253 461.905 142.481L462.652 142.025C463.125 142.8 463.601 143.592 464.064 144.377L463.312 144.823L463.312 144.824ZM460.469 140.157C459.983 139.381 459.49 138.605 459.003 137.852L459.738 137.377C460.227 138.135 460.723 138.914 461.211 139.692L460.469 140.157ZM457.506 135.564C456.999 134.803 456.485 134.04 455.979 133.298L456.701 132.804C457.211 133.548 457.726 134.315 458.234 135.079L457.505 135.563L457.506 135.564ZM454.422 131.053C453.897 130.307 453.364 129.558 452.834 128.828L453.544 128.315C454.075 129.049 454.61 129.801 455.138 130.549L454.422 131.053ZM451.219 126.626C450.675 125.894 450.122 125.161 449.572 124.444L450.268 123.912C450.818 124.632 451.375 125.369 451.92 126.102L451.219 126.624L451.219 126.626ZM447.896 122.287C447.334 121.573 446.76 120.853 446.191 120.151L446.871 119.599C447.443 120.304 448.018 121.027 448.584 121.743L447.896 122.285L447.896 122.287ZM444.456 118.04C443.878 117.346 443.284 116.644 442.692 115.953L443.356 115.384C443.951 116.077 444.546 116.782 445.128 117.48L444.456 118.04ZM440.9 113.891C440.299 113.21 439.687 112.523 439.079 111.854L439.727 111.266C440.337 111.938 440.952 112.627 441.556 113.313L440.9 113.891ZM437.231 109.841C436.615 109.18 435.984 108.51 435.354 107.855L435.986 107.25C436.617 107.907 437.251 108.58 437.87 109.244L437.23 109.84L437.231 109.841ZM433.45 105.896C432.811 105.247 432.161 104.598 431.519 103.963L432.133 103.34C432.779 103.978 433.433 104.63 434.073 105.282L433.45 105.896ZM429.56 102.057C428.908 101.431 428.239 100.799 427.575 100.179L428.173 99.5387C428.839 100.161 429.511 100.796 430.167 101.425L429.562 102.056L429.56 102.057ZM425.564 98.3293C424.895 97.7218 424.21 97.1093 423.528 96.5069L424.107 95.8513C424.792 96.4564 425.481 97.0716 426.152 97.6819L425.564 98.3293ZM421.466 94.7137C420.781 94.1261 420.079 93.5321 419.38 92.9482L419.94 92.2761C420.641 92.8613 421.348 93.458 422.035 94.0485L421.465 94.7124L421.466 94.7137ZM417.27 91.2132C416.563 90.6399 415.845 90.0658 415.135 89.5058L415.677 88.8186C416.389 89.38 417.11 89.9568 417.821 90.5328L417.27 91.2132ZM412.978 87.8289C412.255 87.2755 411.522 86.7212 410.799 86.181L411.321 85.4788C412.049 86.0217 412.785 86.5773 413.51 87.1335L412.977 87.8275L412.978 87.8289ZM408.596 84.5621C407.864 84.0326 407.116 83.4981 406.373 82.9735L406.877 82.2577C407.624 82.7849 408.376 83.3207 409.11 83.853L408.597 84.562L408.596 84.5621ZM404.128 81.4154C403.382 80.9056 402.621 80.3909 401.862 79.8861L402.347 79.1568C403.108 79.6628 403.874 80.1802 404.623 80.6913L404.128 81.414L404.128 81.4154ZM399.577 78.3887C398.814 77.8959 398.039 77.4024 397.271 76.9201L397.736 76.1787C398.506 76.6623 399.284 77.1586 400.051 77.6541L399.576 78.3887L399.577 78.3887ZM394.948 75.4816C394.173 75.0086 393.386 74.5346 392.607 74.0735L393.053 73.3199C393.835 73.7839 394.627 74.259 395.405 74.7334L394.95 75.4801L394.948 75.4816ZM390.246 72.6941C389.457 72.2407 388.658 71.7865 387.868 71.3463L388.295 70.5822C389.088 71.0251 389.891 71.4805 390.682 71.9367L390.246 72.6955L390.246 72.6941ZM385.474 70.0272C384.68 69.5975 383.874 69.1655 383.073 68.7435L383.481 67.9687C384.284 68.3921 385.095 68.8252 385.89 69.2578L385.473 70.0273L385.474 70.0272ZM380.657 67.4899C379.852 67.0783 379.035 66.666 378.224 66.2649L378.613 65.481C379.427 65.8847 380.249 66.2983 381.055 66.7113L380.657 67.4899ZM375.776 65.0686C374.965 64.6778 374.137 64.285 373.313 63.9009L373.682 63.1077C374.51 63.4932 375.341 63.8887 376.154 64.2794L375.776 65.0672L375.776 65.0686ZM370.835 62.7616C370.013 62.389 369.174 62.0158 368.344 61.6509L368.696 60.85C369.529 61.2162 370.37 61.5907 371.196 61.9646L370.835 62.7616ZM365.841 60.5701C365.011 60.2169 364.164 59.8631 363.324 59.5163L363.658 58.7076C364.501 59.0557 365.351 59.4108 366.184 59.7653L365.841 60.5701ZM360.796 58.4909C359.957 58.1557 359.103 57.8199 358.256 57.4924L358.572 56.6759C359.421 57.0047 360.278 57.3404 361.121 57.6768L360.796 58.4894L360.796 58.4909ZM355.705 56.5224C354.86 56.2065 353.997 55.8887 353.143 55.5792L353.441 54.7563C354.3 55.0671 355.164 55.3848 356.012 55.702L355.705 56.5224ZM350.571 54.6643C349.719 54.3663 348.851 54.0678 347.989 53.7762L348.269 52.9471C349.134 53.24 350.005 53.5398 350.86 53.839L350.571 54.6657L350.571 54.6643ZM345.398 52.9135C344.541 52.6334 343.665 52.3528 342.797 52.0777L343.061 51.2436C343.932 51.5186 344.81 51.8005 345.67 52.0819L345.398 52.9135ZM340.189 51.2685C339.327 51.0061 338.448 50.7418 337.572 50.4847L337.819 49.6456C338.697 49.9042 339.58 50.1683 340.444 50.432L340.189 51.2685ZM334.947 49.7275C334.077 49.4817 333.192 49.2352 332.315 48.9956L332.546 48.1516C333.426 48.3911 334.313 48.6389 335.186 48.8861L334.947 49.7275ZM329.677 48.2889C328.806 48.0592 327.916 47.8305 327.032 47.6074L327.247 46.7585C328.133 46.983 329.026 47.2129 329.9 47.4425L329.677 48.2889ZM324.381 46.9496C323.507 46.7376 322.615 46.5237 321.724 46.317L321.922 45.4646C322.815 45.6726 323.712 45.8863 324.587 46.0997L324.379 46.9497L324.381 46.9496ZM319.062 45.7065C318.173 45.507 317.275 45.3109 316.394 45.1212L316.578 44.2652C317.462 44.4548 318.363 44.6522 319.253 44.8516L319.062 45.705L319.062 45.7065ZM88.999 58.0677L88.7398 57.2317C88.7483 57.2283 89.6721 56.9438 91.3864 56.4507L91.6284 57.2921C89.9241 57.7816 89.0077 58.0658 88.999 58.0677ZM313.722 44.5595C312.838 44.3773 311.937 44.196 311.045 44.02L311.214 43.1619C312.109 43.3377 313.012 43.5204 313.899 43.7025L313.722 44.5595ZM94.2654 56.5482L94.0321 55.7049C94.8883 55.4679 95.7807 55.2245 96.6819 54.9822L96.9095 55.8272C96.0097 56.0695 95.1202 56.3113 94.2654 56.5482ZM99.5575 55.1251L99.3357 54.2782C100.175 54.0582 101.063 53.8298 101.993 53.5916L102.209 54.4402C101.28 54.6769 100.396 54.9052 99.5575 55.1251ZM308.364 43.5041C307.478 43.3366 306.573 43.1715 305.679 43.0103L305.834 42.1487C306.731 42.3097 307.637 42.4761 308.525 42.6435L308.364 43.5041ZM104.867 53.7712L104.655 52.9223C105.512 52.7087 106.4 52.4904 107.32 52.2675L107.526 53.1181C106.609 53.3409 105.721 53.5591 104.867 53.7712ZM302.992 42.5401C302.099 42.3875 301.194 42.2371 300.299 42.0905L300.44 41.2267C301.338 41.3731 302.246 41.5248 303.14 41.6773L302.992 42.5401ZM110.191 52.4793L109.989 51.627C110.856 51.4216 111.747 51.2119 112.66 51.001L112.858 51.8535C111.946 52.0643 111.056 52.2725 110.191 52.4778L110.191 52.4793ZM297.604 41.6631C296.717 41.5263 295.809 41.3892 294.907 41.2576L295.033 40.3917C295.939 40.5245 296.849 40.6615 297.737 40.7982L297.604 41.6631ZM115.527 51.2423L115.334 50.388C116.208 50.1909 117.1 49.9914 118.011 49.7894L118.199 50.6439C117.29 50.8444 116.4 51.0438 115.527 51.2423ZM292.205 40.8714C291.308 40.7469 290.398 40.6245 289.502 40.5072L289.615 39.639C290.514 39.7562 291.425 39.8799 292.325 40.0043L292.205 40.8714ZM120.874 50.0601L120.69 49.2039C121.569 49.0139 122.463 48.823 123.373 48.6313L123.553 49.4878C122.645 49.6794 121.752 49.8701 120.874 50.0586L120.874 50.0601ZM286.797 40.1635C285.905 40.0533 284.995 39.9455 284.089 39.8405L284.191 38.9715C285.098 39.0765 286.011 39.1855 286.904 39.2957L286.797 40.165L286.797 40.1635ZM126.234 48.9299L126.057 48.0733C126.939 47.8919 127.835 47.7097 128.744 47.5268L128.917 48.3851C128.009 48.5679 127.115 48.75 126.234 48.9314L126.234 48.9299ZM131.603 47.8503L131.435 46.9917C132.321 46.8174 133.219 46.6439 134.128 46.4697L134.292 47.33C133.386 47.504 132.488 47.6775 131.603 47.8503ZM281.38 39.5379C280.481 39.4413 279.568 39.3453 278.669 39.2545L278.757 38.3833C279.658 38.4741 280.572 38.57 281.474 38.6679L281.38 39.5379ZM136.983 46.8227L136.823 45.9622C137.712 45.7965 138.612 45.6301 139.52 45.4663L139.677 46.3269C138.77 46.4921 137.872 46.6569 136.984 46.8226L136.983 46.8227ZM275.946 38.9907C275.037 38.9063 274.128 38.8233 273.221 38.7446L273.296 37.8727C274.206 37.9512 275.117 38.0341 276.028 38.1184L275.946 38.9893L275.946 38.9907ZM142.371 45.8443L142.218 44.982C143.11 44.8249 144.011 44.6672 144.92 44.5106L145.068 45.3732C144.161 45.5297 143.261 45.6858 142.371 45.8443ZM270.493 38.5191C269.583 38.4464 268.674 38.378 267.764 38.3111L267.827 37.4384C268.738 37.5052 269.651 37.5734 270.562 37.646L270.493 38.5191ZM147.769 44.915L147.625 44.0522C148.52 43.9022 149.422 43.7533 150.331 43.6055L150.472 44.4699C149.564 44.6177 148.664 44.7665 147.771 44.9164L147.769 44.915ZM265.034 38.1223C264.122 38.0628 263.211 38.0062 262.303 37.9524L262.354 37.0789C263.266 37.1325 264.179 37.189 265.091 37.2499L265.034 38.1237L265.034 38.1223ZM153.174 44.035L153.038 43.1704C153.934 43.0291 154.837 42.8889 155.748 42.7482L155.88 43.6131C154.972 43.7522 154.069 43.8923 153.174 44.0336L153.174 44.035ZM259.57 37.8002C258.658 37.7524 257.746 37.7076 256.836 37.6656L256.876 36.7912C257.788 36.8331 258.701 36.8779 259.615 36.9256L259.57 37.8002ZM158.588 43.2057L158.46 42.3406C159.359 42.2064 160.263 42.0749 161.174 41.9445L161.299 42.8113C160.39 42.9416 159.485 43.0746 158.588 43.2072L158.588 43.2057ZM254.102 37.5485C253.189 37.5125 252.278 37.4793 251.366 37.4491L251.396 36.5738C252.307 36.6041 253.222 36.637 254.136 36.673L254.102 37.5471L254.102 37.5485ZM164.009 42.4256L163.889 41.5586C164.789 41.4332 165.694 41.3104 166.606 41.1872L166.722 42.0545C165.813 42.176 164.908 42.3003 164.009 42.4256ZM248.631 37.3671C247.718 37.3428 246.806 37.3213 245.894 37.3028L245.912 36.4282C246.825 36.4467 247.739 36.468 248.653 36.4937L248.63 37.3686L248.631 37.3671ZM169.438 41.6978L169.326 40.8303C170.228 40.7135 171.135 40.5979 172.046 40.485L172.154 41.3542C171.242 41.4686 170.337 41.5826 169.438 41.6992L169.438 41.6978ZM174.872 41.0208L174.767 40.1514C175.67 40.0434 176.578 39.9365 177.49 39.8323L177.59 40.7019C176.679 40.806 175.773 40.9128 174.872 41.0208ZM243.158 37.2545C242.245 37.2419 241.332 37.2306 240.422 37.2237L240.429 36.3482C241.341 36.3565 242.256 36.3661 243.172 36.3801L243.158 37.2559L243.158 37.2545ZM180.311 40.396L180.215 39.5262C181.12 39.4268 182.029 39.3286 182.941 39.2332L183.033 40.1032C182.121 40.1987 181.214 40.2967 180.311 40.396ZM237.683 37.2091C236.769 37.2068 235.857 37.2072 234.946 37.2106L234.943 36.3357C235.856 36.3322 236.769 36.3317 237.685 36.334L237.683 37.2091ZM185.757 39.8235L185.669 38.9532C186.575 38.8626 187.484 38.7731 188.398 38.6864L188.481 39.5583C187.569 39.645 186.661 39.7344 185.757 39.825L185.757 39.8235ZM232.209 37.2281C231.295 37.2359 230.382 37.2481 229.471 37.2616L229.458 36.3858C230.371 36.3722 231.285 36.3614 232.2 36.352L232.209 37.2266L232.209 37.2281ZM191.208 39.3047L191.13 38.4325C192.037 38.3505 192.947 38.2713 193.861 38.1933L193.936 39.0657C193.023 39.1437 192.114 39.2228 191.208 39.3047ZM226.735 37.3098C225.82 37.3294 224.908 37.3503 223.998 37.374L223.974 36.4988C224.886 36.4749 225.801 36.4524 226.716 36.4343L226.733 37.3099L226.735 37.3098ZM196.664 38.8398L196.594 37.9671C197.502 37.8938 198.414 37.8233 199.328 37.7555L199.393 38.6285C198.479 38.6962 197.57 38.7666 196.664 38.8398ZM221.261 37.4543C220.347 37.4841 219.436 37.5152 218.526 37.5491L218.492 36.6744C219.404 36.6404 220.318 36.6077 221.234 36.5793L221.261 37.4543ZM202.124 38.4316L202.063 37.5584C202.973 37.4953 203.884 37.4335 204.8 37.3744L204.856 38.2478C203.944 38.3068 203.032 38.3671 202.126 38.4315L202.124 38.4316ZM215.79 37.6601C214.876 37.7001 213.964 37.7414 213.055 37.7856L213.012 36.9113C213.923 36.8671 214.837 36.8257 215.752 36.7856L215.79 37.6601ZM207.588 38.0802L207.537 37.2064C208.258 37.1639 208.98 37.1227 209.706 37.0828L210.275 37.0515L210.323 37.9255L209.754 37.9568C209.03 37.9965 208.309 38.0362 207.589 38.0801L207.588 38.0802Z" fill="#005280"/>
<path d="M91.3953 105.061C112.176 105.061 129.023 88.2145 129.023 67.4333C129.023 46.6522 112.176 29.8057 91.3953 29.8057C70.6141 29.8057 53.7676 46.6522 53.7676 67.4333C53.7676 88.2145 70.6141 105.061 91.3953 105.061Z" fill="#003959"/>
<path d="M91.3975 105.571C81.2098 105.571 71.6333 101.603 64.4287 94.4C57.2255 87.1969 53.2578 77.6189 53.2578 67.4312C53.2578 57.2435 57.2255 47.667 64.4287 40.4624C71.6319 33.2592 81.2098 29.2915 91.3975 29.2915C101.585 29.2915 111.162 33.2592 118.366 40.4624C125.569 47.6655 129.537 57.2435 129.537 67.4312C129.537 77.6189 125.569 87.1954 118.366 94.4C111.163 101.603 101.585 105.571 91.3975 105.571ZM91.3975 30.3141C81.4826 30.3141 72.1614 34.1753 65.1508 41.1859C58.1402 48.1965 54.2789 57.5177 54.2789 67.4327C54.2789 77.3476 58.1402 86.6688 65.1508 93.6794C72.1614 100.69 81.4826 104.551 91.3975 104.551C101.312 104.551 110.634 100.69 117.644 93.6794C124.655 86.6688 128.516 77.3476 128.516 67.4327C128.516 57.5177 124.655 48.1965 117.644 41.1859C110.634 34.1753 101.312 30.3141 91.3975 30.3141Z" fill="#004368"/>
<path d="M102.769 76.0715L98.9941 79.6353L101.335 82.1153L105.11 78.5515L102.769 76.0715Z" fill="#004368"/>
<path d="M103.946 76.7916L99.6445 80.8521L101.986 83.3321L106.287 79.2716L103.946 76.7916Z" fill="#004368"/>
<path d="M128.977 109.614C127.758 110.765 125.825 110.672 124.722 109.408L101.9 83.2476L106.202 79.188L129.177 105.524C130.22 106.72 130.132 108.526 128.979 109.615L128.977 109.614Z" fill="#005280"/>
<path d="M75.7755 51.2636C68.2281 58.3865 67.8853 70.2795 75.0097 77.8269C82.1326 85.3743 94.0256 85.7171 101.573 78.5927C109.12 71.4698 109.463 59.5768 102.339 52.0294C95.2159 44.482 83.3229 44.1392 75.7755 51.2636ZM100.714 53.2474C106.986 59.8919 106.683 70.3626 100.04 76.6351C93.3954 82.9076 82.9247 82.6042 76.6522 75.9612C70.3797 69.3167 70.6831 58.846 77.3261 52.5735C83.9691 46.301 94.4413 46.603 100.714 53.2474Z" fill="#005280"/>
<path d="M74.6002 65.3528C75.776 56.6005 83.8252 50.4578 92.5775 51.6336C95.1055 51.9734 97.4146 52.8866 99.3941 54.2228C97.1783 52.0362 94.2594 50.5249 90.935 50.0771C82.7924 48.9831 75.3063 54.6969 74.2122 62.8394C73.9628 64.6949 74.0678 66.5154 74.4733 68.2338C74.4296 67.2871 74.4704 66.3243 74.6002 65.3514V65.3528Z" fill="#004368"/>
<path d="M242.897 75.7656C263.678 75.7656 280.525 58.9191 280.525 38.1379C280.525 17.3567 263.678 0.510254 242.897 0.510254C222.116 0.510254 205.27 17.3567 205.27 38.1379C205.27 58.9191 222.116 75.7656 242.897 75.7656Z" fill="#003959"/>
<path d="M242.899 76.2779C232.712 76.2779 223.135 72.3102 215.931 65.107C208.727 57.9039 204.76 48.3259 204.76 38.1382C204.76 27.9505 208.727 18.374 215.931 11.1694C223.135 3.96772 232.713 0 242.899 0C253.086 0 262.664 3.96772 269.868 11.1709C277.071 18.374 281.039 27.952 281.039 38.1397C281.039 48.3274 277.071 57.9039 269.868 65.1085C262.665 72.3117 253.087 76.2794 242.899 76.2794V76.2779ZM242.899 1.0211C232.985 1.0211 223.663 4.88234 216.653 11.8929C209.642 18.9036 205.781 28.2248 205.781 38.1397C205.781 48.0546 209.642 57.3758 216.653 64.3864C223.663 71.3971 232.985 75.2583 242.899 75.2583C252.814 75.2583 262.136 71.3971 269.146 64.3864C276.157 57.3758 280.018 48.0546 280.018 38.1397C280.018 28.2248 276.157 18.9036 269.146 11.8929C262.136 4.88234 252.814 1.0211 242.899 1.0211Z" fill="#004368"/>
<path d="M201.588 4.97852L259.225 29.6557V36.1295L202.065 60.8271L201.588 4.97852Z" fill="#005280"/>
<path d="M201.572 60.7882C205.538 60.7882 208.753 48.3233 208.753 32.9471C208.753 17.5709 205.538 5.10596 201.572 5.10596C197.606 5.10596 194.391 17.5709 194.391 32.9471C194.391 48.3233 197.606 60.7882 201.572 60.7882Z" fill="#004368"/>
<path d="M266.313 41.2822L260.369 42.4564V22.6558L266.313 23.83V41.2822Z" fill="#004368"/>
<path d="M261.325 22.2959H244.833V43.3904H250.486L240.909 60.6821C239.916 62.4763 241.213 64.6775 243.264 64.6775H249.091C250.122 64.6775 251.063 64.0882 251.513 63.1605L261.369 43.6122C261.404 43.5392 261.324 22.2959 261.324 22.2959H261.325Z" fill="#004368"/>
<path d="M392.768 118.012C413.549 118.012 430.396 101.166 430.396 80.3845C430.396 59.6033 413.549 42.7568 392.768 42.7568C371.987 42.7568 355.141 59.6033 355.141 80.3845C355.141 101.166 371.987 118.012 392.768 118.012Z" fill="#003959"/>
<path d="M392.771 118.523C382.583 118.523 373.006 114.555 365.802 107.352C358.599 100.149 354.631 90.5706 354.631 80.3829C354.631 70.1952 358.599 60.6187 365.802 53.414C373.005 46.2109 382.583 42.2432 392.771 42.2432C402.958 42.2432 412.535 46.2109 419.739 53.414C426.943 60.6172 430.91 70.1952 430.91 80.3829C430.91 90.5706 426.943 100.147 419.739 107.352C412.536 114.555 402.958 118.523 392.771 118.523ZM392.771 43.2657C382.856 43.2657 373.534 47.127 366.524 54.1376C359.513 61.1482 355.652 70.4694 355.652 80.3843C355.652 90.2992 359.513 99.6204 366.524 106.631C373.534 113.642 382.856 117.503 392.771 117.503C402.685 117.503 412.007 113.642 419.017 106.631C426.028 99.6204 429.889 90.2992 429.889 80.3843C429.889 70.4694 426.028 61.1482 419.017 54.1376C412.007 47.127 402.685 43.2657 392.771 43.2657Z" fill="#004368"/>
<path d="M416.278 96.0185C405.411 114.184 387.722 123.6 376.772 117.049C375.921 116.54 368.774 112.272 368.774 112.272C368.774 112.272 366.597 89.0502 376.622 72.2939C386.363 56.0117 408.143 46.4644 408.143 46.4644C408.143 46.4644 414.993 50.5838 416.128 51.2635C427.079 57.8147 427.147 77.8531 416.278 96.0185Z" fill="#004368"/>
<path d="M408.302 91.2343C419.17 73.0683 419.102 53.0308 408.151 46.4794C397.2 39.9279 379.513 49.3433 368.645 67.5094C357.777 85.6754 357.844 105.713 368.795 112.264C379.746 118.816 397.434 109.4 408.302 91.2343Z" fill="#005280"/>
<path d="M399.222 86.6279C407.467 72.8472 408.541 58.3201 401.622 54.1807C394.703 50.0414 382.41 57.8573 374.166 71.638C365.922 85.4188 364.847 99.9459 371.766 104.085C378.685 108.225 390.978 100.409 399.222 86.6279Z" fill="#003959"/>
<path d="M394.492 84.1556C400.72 73.7452 402.098 63.1098 397.569 60.4007C393.041 57.6916 384.321 63.9347 378.093 74.3451C371.865 84.7555 370.487 95.391 375.016 98.1001C379.544 100.809 388.264 94.566 394.492 84.1556Z" fill="#004368"/>
<path d="M391.469 82.2945C395.432 75.6706 396.311 68.9048 393.432 67.1826C390.553 65.4603 385.007 69.4338 381.044 76.0577C377.082 82.6816 376.203 89.4474 379.082 91.1697C381.96 92.8919 387.507 88.9184 391.469 82.2945Z" fill="#003959"/>
<path d="M388.549 80.549C391.53 75.5664 392.601 70.7222 390.941 69.7291C389.281 68.7361 385.519 71.9702 382.538 76.9528C379.557 81.9354 378.486 86.7796 380.146 87.7727C381.806 88.7658 385.568 85.5316 388.549 80.549Z" fill="#005280"/>
<path d="M378.805 73.1722C378.435 73.1722 378.066 73.0249 377.793 72.7331C371.961 66.5015 365.773 61.5681 359.399 58.0686C354.328 55.2839 349.129 53.3978 343.946 52.4598C335.198 50.8771 329.547 52.5547 329.492 52.5722C328.76 52.7954 327.985 52.384 327.762 51.6517C327.539 50.9194 327.95 50.1449 328.682 49.9217C328.938 49.8429 335.039 48.0312 344.441 49.732C349.917 50.724 355.399 52.7107 360.733 55.6384C367.365 59.2794 373.786 64.3936 379.818 70.8383C380.34 71.397 380.312 72.2736 379.752 72.7973C379.485 73.0468 379.145 73.1708 378.805 73.1708V73.1722Z" fill="#50FF81"/>
<path d="M363.525 65.0912L373.859 67.0547L371.543 56.4658L384.028 77.5881L363.525 65.0912Z" fill="#50FF81"/>
<path d="M328.265 57.8369C328.09 57.8369 327.915 57.7742 327.775 57.6473C327.476 57.3774 327.454 56.915 327.724 56.6174L333.309 50.4558L327.849 44.1804C327.585 43.877 327.617 43.416 327.921 43.152C328.224 42.8879 328.685 42.92 328.949 43.2234L334.835 49.9875C335.077 50.2661 335.073 50.6819 334.825 50.9561L328.805 57.5991C328.66 57.7581 328.463 57.8384 328.264 57.8384L328.265 57.8369Z" fill="#50FF81"/>
<path d="M332.55 60.3356C332.377 60.3356 332.203 60.2743 332.063 60.1488C331.762 59.8804 331.738 59.4195 332.008 59.119L339.67 50.5738L333.456 42.9316C333.202 42.6194 333.249 42.1599 333.563 41.9061C333.875 41.6523 334.334 41.6989 334.588 42.0126L341.195 50.1391C341.421 50.4177 341.41 50.8189 341.171 51.0858L333.093 60.0949C332.948 60.2553 332.75 60.337 332.55 60.337V60.3356Z" fill="#50FF81"/>
<path d="M471.335 219.563C492.116 219.563 508.962 202.717 508.962 181.936C508.962 161.155 492.116 144.308 471.335 144.308C450.554 144.308 433.707 161.155 433.707 181.936C433.707 202.717 450.554 219.563 471.335 219.563Z" fill="#003959"/>
<path d="M471.337 220.074C461.149 220.074 451.573 216.106 444.368 208.903C437.165 201.7 433.197 192.122 433.197 181.934C433.197 171.746 437.165 162.17 444.368 154.965C451.571 147.762 461.149 143.794 471.337 143.794C481.525 143.794 491.101 147.762 498.306 154.965C505.509 162.168 509.477 171.746 509.477 181.934C509.477 192.122 505.509 201.698 498.306 208.903C491.103 216.106 481.525 220.074 471.337 220.074ZM471.337 144.817C461.422 144.817 452.101 148.678 445.09 155.689C438.08 162.699 434.218 172.021 434.218 181.936C434.218 191.851 438.08 201.172 445.09 208.182C452.101 215.193 461.422 219.054 471.337 219.054C481.252 219.054 490.573 215.193 497.582 208.182C504.593 201.172 508.454 191.851 508.454 181.936C508.454 172.021 504.593 162.699 497.582 155.689C490.572 148.678 481.25 144.817 471.337 144.817Z" fill="#A8E0FF"/>
<path d="M503.499 151.618L443.998 166.851C441.142 167.582 439.419 170.491 440.15 173.347L448.094 204.377C448.826 207.234 451.734 208.957 454.591 208.225L514.091 192.992C516.947 192.261 518.67 189.353 517.939 186.496L509.995 155.466C509.264 152.61 506.355 150.887 503.499 151.618Z" fill="#005280"/>
<path d="M454.071 197.514L453.634 197.627L452.913 194.811C452.853 194.577 452.804 194.353 452.764 194.14C452.736 194.189 452.704 194.238 452.668 194.292C452.631 194.346 452.462 194.577 452.16 194.984L451.844 194.737L452.683 193.66L453.06 193.564L454.073 197.514H454.071Z" fill="#004368"/>
<path d="M458.172 196.464L455.575 197.129L455.476 196.743L456.249 195.43C456.484 195.029 456.634 194.746 456.7 194.582C456.766 194.419 456.808 194.267 456.824 194.124C456.842 193.981 456.831 193.835 456.792 193.687C456.738 193.477 456.632 193.325 456.471 193.234C456.312 193.144 456.118 193.128 455.892 193.186C455.729 193.229 455.58 193.296 455.447 193.386C455.314 193.478 455.176 193.618 455.031 193.806L454.715 193.561C455.001 193.166 455.358 192.912 455.787 192.803C456.157 192.708 456.474 192.728 456.732 192.864C456.992 193 457.163 193.229 457.244 193.55C457.308 193.8 457.301 194.066 457.224 194.346C457.147 194.628 456.963 195.004 456.672 195.478L456.025 196.546L456.031 196.568L458.063 196.047L458.169 196.463L458.172 196.464Z" fill="#004368"/>
<path d="M460.414 192.671C460.478 192.923 460.461 193.148 460.36 193.343C460.259 193.54 460.087 193.698 459.841 193.819L459.846 193.841C460.173 193.8 460.434 193.841 460.63 193.963C460.824 194.086 460.955 194.28 461.022 194.542C461.118 194.919 461.062 195.243 460.853 195.511C460.644 195.781 460.299 195.976 459.817 196.1C459.609 196.154 459.413 196.186 459.231 196.199C459.049 196.213 458.866 196.199 458.682 196.163L458.573 195.736C458.766 195.776 458.965 195.794 459.17 195.788C459.374 195.782 459.563 195.757 459.737 195.714C460.42 195.539 460.693 195.184 460.555 194.649C460.433 194.169 459.995 194.026 459.241 194.22L458.852 194.319L458.752 193.933L459.146 193.832C459.454 193.753 459.682 193.622 459.826 193.441C459.972 193.259 460.013 193.047 459.951 192.805C459.902 192.612 459.797 192.478 459.636 192.402C459.476 192.327 459.282 192.318 459.054 192.376C458.881 192.42 458.725 192.486 458.583 192.572C458.442 192.658 458.29 192.789 458.125 192.965L457.82 192.72C457.95 192.551 458.111 192.402 458.305 192.275C458.497 192.149 458.712 192.055 458.945 191.995C459.329 191.898 459.65 191.909 459.906 192.03C460.164 192.151 460.332 192.366 460.41 192.672L460.414 192.671Z" fill="#004368"/>
<path d="M464.456 193.888L463.87 194.039L464.102 194.946L463.672 195.055L463.44 194.148L461.519 194.64L461.418 194.247L462.61 191.095L463.085 190.972L463.765 193.629L464.351 193.479L464.456 193.887V193.888ZM463.336 193.741L462.999 192.428C462.934 192.17 462.868 191.877 462.802 191.549L462.78 191.554C462.738 191.75 462.694 191.913 462.648 192.046L461.863 194.119L463.336 193.741Z" fill="#004368"/>
<path d="M468.56 191.233C468.976 191.127 469.331 191.146 469.622 191.292C469.914 191.438 470.105 191.688 470.197 192.047C470.302 192.456 470.254 192.81 470.053 193.109C469.851 193.408 469.523 193.617 469.065 193.734C468.62 193.847 468.263 193.863 467.992 193.78L467.881 193.349C468.028 193.397 468.2 193.42 468.4 193.419C468.598 193.417 468.789 193.392 468.972 193.346C469.288 193.264 469.516 193.127 469.653 192.933C469.79 192.739 469.822 192.5 469.751 192.217C469.609 191.665 469.201 191.476 468.525 191.649C468.355 191.693 468.132 191.777 467.859 191.903L467.589 191.814L467.264 189.928L469.229 189.425L469.335 189.837L467.754 190.243L467.958 191.455C468.155 191.36 468.356 191.287 468.56 191.235V191.233Z" fill="#004368"/>
<path d="M470.72 191.452C470.521 190.676 470.523 190.056 470.727 189.595C470.93 189.133 471.328 188.826 471.919 188.675C472.123 188.622 472.286 188.599 472.413 188.603L472.512 188.99C472.362 188.98 472.197 188.999 472.019 189.044C471.596 189.152 471.306 189.368 471.15 189.689C470.994 190.009 470.978 190.456 471.1 191.028L471.132 191.019C471.251 190.659 471.525 190.424 471.954 190.313C472.308 190.222 472.616 190.257 472.876 190.419C473.135 190.581 473.312 190.847 473.405 191.214C473.51 191.626 473.481 191.977 473.316 192.269C473.153 192.562 472.879 192.756 472.498 192.854C472.089 192.959 471.725 192.888 471.407 192.642C471.089 192.397 470.86 192.001 470.72 191.452ZM472.396 192.475C472.651 192.409 472.829 192.278 472.93 192.081C473.03 191.884 473.04 191.633 472.963 191.328C472.896 191.067 472.778 190.879 472.609 190.762C472.439 190.647 472.224 190.622 471.962 190.689C471.801 190.73 471.66 190.802 471.542 190.904C471.424 191.004 471.34 191.124 471.29 191.263C471.24 191.4 471.23 191.532 471.264 191.658C471.312 191.843 471.392 192.006 471.504 192.149C471.618 192.291 471.752 192.392 471.908 192.451C472.065 192.511 472.228 192.52 472.397 192.476L472.396 192.475Z" fill="#004368"/>
<path d="M474.775 192.214L475.507 188.258L473.353 188.809L473.246 188.396L475.876 187.722L475.968 188.081L475.272 192.087L474.775 192.214Z" fill="#004368"/>
<path d="M477.717 187.189C478.077 187.097 478.384 187.107 478.637 187.221C478.891 187.335 479.056 187.539 479.132 187.835C479.181 188.029 479.167 188.223 479.087 188.414C479.006 188.605 478.852 188.801 478.62 189.001C478.98 189.072 479.249 189.174 479.427 189.308C479.605 189.443 479.723 189.621 479.78 189.841C479.864 190.169 479.816 190.459 479.638 190.713C479.459 190.967 479.171 191.145 478.773 191.247C478.351 191.355 478.004 191.346 477.729 191.219C477.454 191.092 477.273 190.86 477.187 190.522C477.072 190.07 477.257 189.647 477.743 189.253C477.459 189.176 477.241 189.071 477.091 188.935C476.941 188.799 476.84 188.632 476.789 188.429C476.716 188.143 476.763 187.888 476.931 187.663C477.098 187.438 477.36 187.281 477.715 187.19L477.717 187.189ZM477.804 187.555C477.58 187.613 477.416 187.713 477.316 187.853C477.215 187.994 477.189 188.155 477.234 188.334C477.276 188.5 477.367 188.629 477.503 188.721C477.64 188.812 477.866 188.881 478.182 188.926C478.413 188.753 478.564 188.589 478.64 188.438C478.716 188.286 478.732 188.127 478.69 187.962C478.643 187.78 478.541 187.653 478.384 187.578C478.226 187.504 478.032 187.497 477.803 187.555H477.804ZM477.634 190.418C477.689 190.634 477.807 190.785 477.988 190.866C478.169 190.948 478.397 190.955 478.668 190.885C478.936 190.817 479.129 190.7 479.247 190.535C479.364 190.37 479.394 190.179 479.339 189.959C479.294 189.784 479.184 189.647 479.009 189.546C478.834 189.445 478.556 189.377 478.173 189.339C477.934 189.523 477.772 189.701 477.688 189.871C477.603 190.042 477.586 190.224 477.635 190.418H477.634Z" fill="#004368"/>
<path d="M485.136 189.559L484.698 189.671L483.977 186.856C483.918 186.621 483.868 186.398 483.829 186.185C483.801 186.233 483.769 186.283 483.732 186.337C483.696 186.391 483.527 186.621 483.225 187.028L482.908 186.782L483.747 185.705L484.125 185.609L485.137 189.559H485.136Z" fill="#004368"/>
<path d="M489.236 188.509L486.64 189.174L486.541 188.788L487.314 187.475C487.549 187.074 487.699 186.791 487.765 186.627C487.83 186.464 487.873 186.312 487.889 186.169C487.906 186.026 487.896 185.88 487.857 185.732C487.803 185.521 487.696 185.37 487.536 185.279C487.377 185.189 487.183 185.173 486.956 185.231C486.793 185.274 486.644 185.341 486.512 185.431C486.379 185.523 486.24 185.663 486.096 185.851L485.779 185.606C486.065 185.211 486.423 184.957 486.851 184.848C487.222 184.753 487.539 184.773 487.797 184.909C488.056 185.045 488.227 185.274 488.309 185.594C488.373 185.845 488.366 186.111 488.288 186.391C488.211 186.672 488.027 187.049 487.737 187.523L487.089 188.591L487.095 188.613L489.127 188.092L489.234 188.507L489.236 188.509Z" fill="#004368"/>
<path d="M491.48 184.716C491.544 184.968 491.526 185.193 491.426 185.388C491.325 185.585 491.153 185.743 490.907 185.864L490.912 185.886C491.239 185.845 491.5 185.886 491.696 186.008C491.89 186.131 492.021 186.325 492.088 186.588C492.184 186.964 492.128 187.288 491.919 187.556C491.709 187.826 491.365 188.021 490.883 188.145C490.675 188.199 490.479 188.231 490.297 188.245C490.114 188.258 489.932 188.245 489.747 188.208L489.637 187.781C489.83 187.822 490.03 187.839 490.234 187.833C490.44 187.827 490.628 187.803 490.802 187.759C491.484 187.584 491.757 187.229 491.62 186.694C491.497 186.216 491.06 186.071 490.306 186.265L489.916 186.364L489.817 185.978L490.211 185.877C490.519 185.798 490.746 185.667 490.891 185.486C491.036 185.304 491.077 185.092 491.016 184.85C490.966 184.658 490.861 184.523 490.701 184.448C490.54 184.372 490.346 184.363 490.119 184.421C489.945 184.465 489.789 184.531 489.648 184.617C489.506 184.703 489.354 184.834 489.19 185.011L488.885 184.766C489.015 184.596 489.175 184.448 489.369 184.321C489.562 184.194 489.776 184.1 490.009 184.041C490.393 183.943 490.714 183.955 490.971 184.076C491.229 184.197 491.397 184.411 491.474 184.717L491.48 184.716Z" fill="#004368"/>
<path d="M495.523 185.933L494.936 186.083L495.168 186.99L494.738 187.1L494.506 186.192L492.585 186.684L492.484 186.292L493.676 183.139L494.152 183.017L494.831 185.673L495.418 185.523L495.523 185.931V185.933ZM494.403 185.785L494.066 184.473C494 184.214 493.934 183.921 493.869 183.593L493.847 183.599C493.805 183.794 493.761 183.958 493.714 184.09L492.929 186.163L494.403 185.785Z" fill="#004368"/>
<path d="M498.191 183.645C498.607 183.539 498.962 183.558 499.253 183.704C499.545 183.849 499.736 184.1 499.828 184.459C499.933 184.868 499.885 185.222 499.684 185.521C499.482 185.82 499.154 186.029 498.696 186.145C498.251 186.259 497.894 186.275 497.622 186.192L497.512 185.76C497.659 185.809 497.831 185.832 498.031 185.83C498.231 185.829 498.42 185.804 498.603 185.757C498.919 185.676 499.147 185.539 499.284 185.345C499.421 185.151 499.453 184.911 499.382 184.628C499.24 184.077 498.832 183.887 498.156 184.061C497.986 184.105 497.762 184.189 497.49 184.315L497.22 184.226L496.895 182.34L498.859 181.836L498.966 182.249L497.385 182.655L497.589 183.867C497.786 183.772 497.987 183.699 498.191 183.647V183.645Z" fill="#004368"/>
<path d="M500.349 183.864C500.15 183.088 500.152 182.468 500.356 182.007C500.559 181.544 500.957 181.238 501.548 181.086C501.752 181.034 501.915 181.011 502.042 181.015L502.141 181.401C501.991 181.393 501.826 181.41 501.648 181.455C501.225 181.563 500.935 181.779 500.779 182.1C500.623 182.421 500.607 182.867 500.729 183.439L500.761 183.431C500.88 183.07 501.154 182.835 501.583 182.725C501.937 182.634 502.245 182.669 502.505 182.831C502.764 182.993 502.941 183.258 503.034 183.626C503.139 184.037 503.11 184.389 502.945 184.681C502.78 184.974 502.507 185.168 502.127 185.266C501.718 185.371 501.354 185.299 501.036 185.054C500.718 184.809 500.489 184.412 500.349 183.864ZM502.025 184.886C502.28 184.821 502.458 184.689 502.558 184.493C502.659 184.296 502.669 184.045 502.592 183.74C502.525 183.479 502.407 183.291 502.238 183.174C502.068 183.059 501.852 183.034 501.591 183.101C501.429 183.142 501.289 183.213 501.171 183.315C501.053 183.416 500.968 183.536 500.919 183.674C500.869 183.811 500.859 183.944 500.893 184.069C500.941 184.255 501.021 184.418 501.133 184.561C501.247 184.703 501.381 184.803 501.537 184.863C501.693 184.923 501.857 184.932 502.026 184.888L502.025 184.886Z" fill="#004368"/>
<path d="M504.402 184.625L505.135 180.669L502.981 181.221L502.875 180.808L505.505 180.134L505.597 180.493L504.901 184.498L504.404 184.625H504.402Z" fill="#004368"/>
<path d="M507.346 179.603C507.706 179.511 508.012 179.521 508.266 179.635C508.52 179.749 508.685 179.953 508.761 180.249C508.81 180.443 508.796 180.637 508.716 180.828C508.635 181.019 508.481 181.215 508.249 181.414C508.609 181.486 508.877 181.588 509.055 181.722C509.233 181.856 509.352 182.034 509.408 182.255C509.493 182.583 509.445 182.873 509.267 183.127C509.088 183.381 508.8 183.559 508.402 183.661C507.98 183.769 507.632 183.76 507.357 183.633C507.083 183.506 506.902 183.274 506.816 182.936C506.701 182.484 506.886 182.061 507.372 181.668C507.088 181.591 506.87 181.486 506.72 181.35C506.57 181.215 506.469 181.047 506.418 180.844C506.345 180.558 506.392 180.303 506.56 180.078C506.727 179.854 506.988 179.696 507.344 179.606L507.346 179.603ZM507.433 179.969C507.209 180.027 507.045 180.126 506.945 180.266C506.844 180.408 506.818 180.568 506.863 180.748C506.905 180.914 506.994 181.042 507.131 181.134C507.268 181.226 507.495 181.295 507.811 181.34C508.042 181.166 508.193 181.003 508.269 180.851C508.345 180.7 508.361 180.541 508.319 180.376C508.272 180.193 508.17 180.067 508.012 179.992C507.855 179.918 507.661 179.91 507.432 179.969H507.433ZM507.263 182.832C507.318 183.048 507.436 183.198 507.617 183.28C507.798 183.362 508.026 183.369 508.297 183.299C508.565 183.231 508.758 183.114 508.876 182.949C508.993 182.784 509.023 182.593 508.968 182.373C508.923 182.198 508.813 182.061 508.638 181.96C508.463 181.859 508.185 181.791 507.802 181.753C507.563 181.937 507.401 182.115 507.317 182.285C507.232 182.456 507.215 182.638 507.264 182.832H507.263Z" fill="#004368"/>
<path d="M461.304 179.812L448.324 183.135L450.309 190.888L463.289 187.565L461.304 179.812Z" fill="#FFC500"/>
<path d="M453.771 187.727L452.865 184.191L457.937 182.893L458.843 186.429L453.771 187.727ZM453.115 184.338L453.918 187.478L458.594 186.28L457.79 183.141L453.115 184.338Z" fill="black"/>
<path d="M453.389 185.858L449.291 186.907L449.342 187.105L453.44 186.056L453.389 185.858Z" fill="black"/>
<path d="M462.274 183.552L458.268 184.577L458.318 184.775L462.324 183.749L462.274 183.552Z" fill="black"/>
<path d="M450.113 190.08L450.062 189.882L454.062 188.858L452.566 183.019L448.567 184.043L448.516 183.844L452.714 182.769L454.311 189.005L450.113 190.08Z" fill="black"/>
<path d="M458.986 187.808L457.389 181.572L461.587 180.497L461.638 180.695L457.638 181.719L459.133 187.558L463.133 186.534L463.184 186.733L458.986 187.808Z" fill="black"/>
<path d="M468.955 164.433L470.29 164.092C470.917 163.932 471.394 163.91 471.722 164.025C472.05 164.14 472.266 164.401 472.37 164.805C472.441 165.085 472.422 165.336 472.313 165.558C472.204 165.78 472.005 165.956 471.721 166.086L471.73 166.118C472.478 166.057 472.933 166.343 473.095 166.973C473.203 167.395 473.145 167.761 472.92 168.071C472.695 168.382 472.326 168.602 471.814 168.734L470.167 169.155L468.958 164.432L468.955 164.433ZM470.021 166.315L470.926 166.083C471.314 165.984 471.576 165.851 471.716 165.686C471.855 165.522 471.889 165.294 471.814 165.005C471.746 164.74 471.603 164.573 471.382 164.505C471.162 164.436 470.847 164.455 470.433 164.56L469.625 164.767L470.021 166.315ZM470.141 166.78L470.593 168.547L471.578 168.295C471.959 168.197 472.227 168.05 472.382 167.853C472.536 167.656 472.574 167.4 472.494 167.085C472.42 166.792 472.265 166.602 472.033 166.515C471.801 166.427 471.483 166.436 471.08 166.538L470.141 166.779V166.78Z" fill="#004368"/>
<path d="M476.545 167.52L476.308 167.043L476.282 167.05C476.162 167.317 476.025 167.513 475.869 167.637C475.713 167.761 475.504 167.856 475.242 167.923C474.89 168.013 474.593 167.993 474.348 167.863C474.103 167.733 473.936 167.501 473.852 167.167C473.668 166.452 474.145 165.931 475.28 165.603L475.876 165.43L475.82 165.209C475.748 164.932 475.636 164.741 475.483 164.64C475.329 164.538 475.121 164.521 474.858 164.588C474.564 164.664 474.253 164.839 473.926 165.116L473.656 164.748C473.806 164.608 473.979 164.486 474.173 164.379C474.367 164.273 474.568 164.193 474.777 164.139C475.198 164.031 475.535 164.044 475.787 164.18C476.038 164.315 476.218 164.589 476.323 165.002L476.941 167.418L476.545 167.52ZM475.236 167.453C475.57 167.367 475.809 167.209 475.952 166.977C476.097 166.745 476.126 166.465 476.041 166.136L475.96 165.816L475.429 165.977C475.006 166.101 474.715 166.247 474.558 166.411C474.399 166.578 474.352 166.783 474.415 167.031C474.464 167.225 474.561 167.358 474.704 167.43C474.847 167.501 475.025 167.51 475.235 167.456L475.236 167.453Z" fill="#004368"/>
<path d="M480.474 166.515L479.887 164.225C479.813 163.936 479.692 163.738 479.526 163.63C479.358 163.522 479.135 163.503 478.855 163.574C478.484 163.669 478.239 163.838 478.118 164.083C477.997 164.328 477.995 164.68 478.114 165.141L478.589 166.998L478.052 167.135L477.146 163.595L477.583 163.482L477.794 163.945L477.82 163.937C477.886 163.735 478.006 163.56 478.179 163.414C478.353 163.268 478.561 163.163 478.805 163.1C479.231 162.991 479.578 163.011 479.847 163.163C480.115 163.313 480.306 163.615 480.423 164.067L481.014 166.376L480.477 166.513L480.474 166.515Z" fill="#004368"/>
<path d="M482.176 164.148C482.235 163.994 482.333 163.785 482.467 163.522L483.3 162.018L483.936 161.855L482.888 163.731L484.944 165.371L484.295 165.537L482.616 164.183L482.3 164.635L482.64 165.96L482.111 166.096L480.824 161.069L481.354 160.933L482.036 163.598C482.067 163.716 482.105 163.902 482.152 164.154L482.178 164.147L482.176 164.148Z" fill="#004368"/>
<path d="M491.714 163.637L491.087 163.798L487.491 160.495L487.465 160.502C487.618 160.959 487.745 161.381 487.844 161.769L488.531 164.453L488.024 164.582L486.814 159.859L487.434 159.7L491.02 162.988L491.046 162.981C491.027 162.924 490.969 162.74 490.874 162.428C490.778 162.116 490.715 161.893 490.684 161.755L489.99 159.045L490.504 158.914L491.713 163.637H491.714Z" fill="#004368"/>
<path d="M495.113 162.769L494.877 162.292L494.85 162.299C494.731 162.566 494.594 162.762 494.438 162.886C494.281 163.01 494.073 163.105 493.81 163.172C493.459 163.262 493.161 163.242 492.916 163.112C492.671 162.982 492.505 162.75 492.42 162.416C492.238 161.701 492.713 161.18 493.848 160.852L494.445 160.679L494.388 160.458C494.316 160.181 494.204 159.99 494.051 159.89C493.898 159.787 493.689 159.77 493.427 159.837C493.132 159.913 492.821 160.088 492.494 160.365L492.225 159.997C492.375 159.857 492.547 159.735 492.741 159.628C492.935 159.522 493.136 159.442 493.345 159.388C493.767 159.28 494.103 159.293 494.356 159.429C494.607 159.564 494.786 159.838 494.893 160.251L495.511 162.667L495.114 162.769H495.113ZM493.804 162.702C494.138 162.616 494.378 162.458 494.521 162.226C494.665 161.994 494.694 161.714 494.61 161.385L494.528 161.065L493.997 161.226C493.574 161.35 493.284 161.496 493.126 161.66C492.967 161.827 492.92 162.032 492.983 162.28C493.033 162.474 493.129 162.607 493.272 162.677C493.415 162.749 493.593 162.757 493.803 162.703L493.804 162.702Z" fill="#004368"/>
<path d="M501.127 161.227L500.537 158.924C500.464 158.642 500.351 158.445 500.195 158.336C500.038 158.225 499.833 158.203 499.579 158.269C499.245 158.355 499.023 158.514 498.912 158.746C498.801 158.978 498.799 159.294 498.901 159.693L499.407 161.669L498.87 161.806L498.281 159.503C498.208 159.221 498.094 159.024 497.938 158.915C497.782 158.804 497.575 158.782 497.318 158.848C496.982 158.934 496.762 159.097 496.657 159.34C496.552 159.58 496.559 159.93 496.676 160.39L497.152 162.247L496.615 162.384L495.709 158.844L496.145 158.731L496.357 159.194L496.383 159.186C496.44 158.988 496.548 158.817 496.708 158.673C496.867 158.529 497.061 158.428 497.29 158.37C497.843 158.228 498.257 158.336 498.53 158.692L498.556 158.685C498.615 158.473 498.73 158.286 498.902 158.127C499.074 157.968 499.289 157.856 499.545 157.79C499.947 157.688 500.272 157.715 500.524 157.869C500.777 158.024 500.96 158.327 501.076 158.779L501.666 161.089L501.13 161.226L501.127 161.227Z" fill="#004368"/>
<path d="M504.281 160.488C503.758 160.622 503.304 160.569 502.92 160.328C502.537 160.087 502.271 159.683 502.127 159.117C501.981 158.547 502.006 158.057 502.2 157.65C502.395 157.241 502.729 156.977 503.203 156.856C503.647 156.742 504.035 156.799 504.369 157.024C504.703 157.248 504.93 157.601 505.052 158.08L505.139 158.42L502.7 159.044C502.817 159.457 503.004 159.746 503.257 159.911C503.511 160.075 503.82 160.11 504.182 160.019C504.563 159.921 504.92 159.744 505.251 159.491L505.374 159.969C505.205 160.099 505.041 160.204 504.881 160.283C504.72 160.361 504.522 160.431 504.283 160.493L504.281 160.488ZM503.311 157.305C503.027 157.378 502.824 157.529 502.703 157.758C502.582 157.987 502.547 158.268 502.601 158.604L504.452 158.13C504.366 157.791 504.224 157.552 504.028 157.41C503.831 157.269 503.593 157.234 503.313 157.305H503.311Z" fill="#004368"/>
<path d="M454.751 201.535L454.563 201.583L454.252 200.371C454.226 200.27 454.206 200.174 454.188 200.082C454.177 200.102 454.162 200.124 454.147 200.147C454.131 200.171 454.058 200.27 453.929 200.445L453.793 200.338L454.155 199.876L454.318 199.834L454.753 201.535H454.751Z" fill="#004368"/>
<path d="M456.515 201.083L455.397 201.368L455.355 201.202L455.688 200.638C455.788 200.464 455.854 200.343 455.882 200.273C455.909 200.203 455.928 200.137 455.936 200.076C455.943 200.015 455.939 199.952 455.923 199.888C455.899 199.797 455.854 199.732 455.785 199.694C455.717 199.655 455.634 199.647 455.536 199.673C455.466 199.691 455.402 199.72 455.345 199.76C455.288 199.799 455.228 199.859 455.167 199.94L455.031 199.835C455.154 199.665 455.308 199.557 455.492 199.509C455.651 199.468 455.787 199.477 455.899 199.535C456.012 199.593 456.084 199.692 456.119 199.83C456.147 199.937 456.144 200.051 456.111 200.172C456.077 200.293 455.998 200.455 455.873 200.66L455.594 201.119L455.597 201.128L456.472 200.903L456.518 201.083H456.515Z" fill="#004368"/>
<path d="M457.483 199.448C457.511 199.556 457.504 199.654 457.46 199.739C457.416 199.823 457.342 199.892 457.237 199.943L457.239 199.952C457.381 199.934 457.493 199.952 457.576 200.004C457.66 200.057 457.717 200.14 457.746 200.254C457.787 200.415 457.763 200.554 457.673 200.671C457.582 200.787 457.434 200.871 457.226 200.925C457.136 200.948 457.053 200.962 456.974 200.967C456.895 200.973 456.816 200.967 456.738 200.951L456.691 200.767C456.774 200.784 456.86 200.792 456.948 200.79C457.035 200.787 457.117 200.777 457.191 200.758C457.485 200.682 457.603 200.531 457.544 200.3C457.492 200.095 457.304 200.032 456.978 200.115L456.811 200.157L456.768 199.991L456.938 199.947C457.07 199.914 457.168 199.857 457.231 199.778C457.293 199.699 457.311 199.609 457.285 199.505C457.263 199.422 457.218 199.364 457.149 199.332C457.081 199.299 456.996 199.295 456.898 199.32C456.824 199.339 456.757 199.367 456.695 199.405C456.634 199.441 456.569 199.498 456.498 199.574L456.367 199.469C456.423 199.396 456.493 199.332 456.576 199.278C456.659 199.222 456.751 199.183 456.851 199.157C457.016 199.114 457.155 199.119 457.266 199.171C457.377 199.224 457.45 199.316 457.483 199.447V199.448Z" fill="#004368"/>
<path d="M459.221 199.973L458.968 200.037L459.069 200.428L458.884 200.475L458.783 200.084L457.956 200.295L457.912 200.126L458.424 198.77L458.628 198.717L458.922 199.861L459.174 199.796L459.219 199.972L459.221 199.973ZM458.738 199.909L458.593 199.344C458.566 199.233 458.536 199.107 458.509 198.965L458.5 198.968C458.482 199.053 458.462 199.123 458.443 199.179L458.105 200.071L458.738 199.909Z" fill="#004368"/>
<path d="M485.438 192.239L485.606 192.195L485.466 193.666L485.311 193.705L484.484 192.483L484.651 192.44L485.183 193.232C485.244 193.323 485.297 193.413 485.342 193.502C485.339 193.397 485.342 193.291 485.352 193.183L485.438 192.239Z" fill="#004368"/>
<path d="M486.904 193.298L486.627 192.913L486.087 193.052L486.032 193.523L485.873 193.564L486.06 192.076L486.191 192.042L487.066 193.259L486.904 193.3V193.298ZM486.543 192.785L486.279 192.409C486.245 192.36 486.207 192.302 486.166 192.231C486.168 192.293 486.166 192.363 486.157 192.439L486.106 192.897L486.543 192.786V192.785Z" fill="#004368"/>
<path d="M487.252 193.209L486.908 191.863L487.064 191.823L487.372 193.028L487.966 192.876L488.002 193.018L487.252 193.21V193.209Z" fill="#004368"/>
<path d="M488.229 192.958L487.885 191.612L488.041 191.573L488.385 192.919L488.229 192.958Z" fill="#004368"/>
<path d="M489.654 191.863C489.711 192.085 489.694 192.27 489.603 192.419C489.513 192.568 489.354 192.67 489.128 192.728L488.754 192.823L488.41 191.476L488.823 191.371C489.032 191.317 489.21 191.334 489.355 191.421C489.501 191.507 489.6 191.654 489.654 191.863ZM489.49 191.911C489.444 191.736 489.367 191.615 489.256 191.548C489.145 191.481 489.002 191.471 488.829 191.514L488.601 191.573L488.877 192.648L489.068 192.6C489.255 192.552 489.383 192.47 489.453 192.355C489.523 192.239 489.536 192.091 489.49 191.911Z" fill="#004368"/>
<path d="M485.946 195.693L485.79 195.732L485.48 194.526L485.055 194.635L485.02 194.497L486.029 194.239L486.064 194.377L485.638 194.487L485.947 195.693H485.946Z" fill="#004368"/>
<path d="M487.598 195.272L487.442 195.311L487.28 194.678L486.571 194.859L486.733 195.492L486.577 195.531L486.232 194.185L486.389 194.146L486.536 194.719L487.245 194.538L487.097 193.965L487.254 193.925L487.598 195.272Z" fill="#004368"/>
<path d="M487.979 194.578L488.121 195.138L487.965 195.177L487.621 193.831L487.99 193.736C488.155 193.694 488.285 193.694 488.381 193.736C488.476 193.78 488.54 193.864 488.572 193.991C488.617 194.169 488.559 194.312 488.394 194.421L488.915 194.933L488.73 194.98L488.26 194.503L487.98 194.575L487.979 194.578ZM487.944 194.443L488.158 194.388C488.269 194.36 488.343 194.316 488.384 194.26C488.425 194.203 488.434 194.13 488.41 194.042C488.387 193.953 488.345 193.896 488.282 193.87C488.219 193.844 488.13 193.847 488.014 193.876L487.811 193.928L487.942 194.443H487.944Z" fill="#004368"/>
<path d="M489.799 193.273L490.023 194.144C490.062 194.297 490.046 194.429 489.976 194.54C489.906 194.651 489.789 194.729 489.627 194.769C489.465 194.81 489.328 194.799 489.217 194.733C489.107 194.667 489.031 194.556 488.991 194.402L488.77 193.534L488.926 193.494L489.15 194.373C489.179 194.485 489.232 194.564 489.309 194.607C489.387 194.651 489.484 194.658 489.602 194.628C489.716 194.599 489.795 194.546 489.842 194.47C489.887 194.394 489.896 194.3 489.866 194.187L489.642 193.311L489.798 193.271L489.799 193.273Z" fill="#004368"/>
</svg>
