<svg width="530" height="683" viewBox="0 0 530 683" fill="none" xmlns="http://www.w3.org/2000/svg">
<path opacity="0.15" d="M85.7899 589.848C120.317 623.191 138.055 661.713 125.408 675.891C112.761 690.069 74.5202 674.532 39.9929 641.189C5.46678 607.848 0.375 555.148 0.375 555.148C0.375 555.148 51.2626 556.507 85.7899 589.85V589.848Z" fill="url(#paint0_linear_5126_50232)"/>
<path d="M111.482 681.48C102.803 681.48 91.7579 677.963 79.4311 671.262C66.2801 664.114 52.5609 653.799 39.7577 641.435C31.8586 633.806 24.8541 624.524 18.9395 613.845C14.2106 605.307 10.1647 595.861 6.91253 585.77C1.37721 568.591 0.0491412 555.314 0.0365409 555.181L0 554.798L0.384309 554.808C4.79819 554.927 16.7143 556.093 30.2218 559.667C40.137 562.289 49.4927 565.786 58.0294 570.057C68.7057 575.399 78.1257 581.975 86.026 589.605C102.754 605.759 116.098 623.626 123.598 639.915C127.253 647.854 129.322 654.992 129.748 661.132C130.191 667.539 128.817 672.581 125.662 676.118C122.689 679.451 118.304 681.247 112.63 681.459C112.252 681.473 111.868 681.48 111.481 681.48H111.482ZM0.756018 555.501C1.01684 557.8 2.5755 570.095 7.56648 585.579C10.8048 595.625 14.8331 605.027 19.5406 613.525C25.4211 624.141 32.3815 633.368 40.2302 640.947C52.9906 653.269 66.6581 663.546 79.7561 670.665C91.9822 677.311 102.915 680.8 111.479 680.8C111.859 680.8 112.235 680.794 112.606 680.779C118.088 680.575 122.31 678.854 125.155 675.665C128.183 672.27 129.5 667.397 129.07 661.178C128.65 655.122 126.602 648.063 122.981 640.2C115.516 623.986 102.224 606.191 85.5548 590.095C77.7073 582.516 68.3478 575.981 57.7371 570.67C49.2445 566.421 39.9341 562.94 30.0668 560.329C16.9978 556.87 5.42947 555.674 0.756018 555.501Z" fill="url(#paint1_linear_5126_50232)"/>
<path d="M122.567 673.553L0.181641 555.367L0.57225 554.929L122.958 673.116L122.567 673.553Z" fill="url(#paint2_linear_5126_50232)"/>
<path d="M36.7167 590.246L7.39453 586.415L7.44115 586.02L36.2454 589.782L31.0592 560.332L31.4359 560.26L36.7167 590.246Z" fill="url(#paint3_linear_5126_50232)"/>
<path d="M58.5877 611.365L16.8379 608.032L16.8669 607.634L58.1367 610.929L51.8201 567.634L52.1994 567.575L58.5877 611.365Z" fill="url(#paint4_linear_5126_50232)"/>
<path d="M82.0565 634.043L81.8108 634.012L27.4707 626.913L27.5186 626.517L81.6129 633.584L75.0948 581.007L75.4741 580.956L82.0565 634.043Z" fill="url(#paint5_linear_5126_50232)"/>
<path d="M103.707 654.952L103.451 654.912L44.4707 645.62L44.5287 645.225L103.252 654.477L95.5234 600.097L95.9014 600.038L103.707 654.952Z" fill="url(#paint6_linear_5126_50232)"/>
<path d="M95.0906 680.957H257.948C269.411 680.957 277.697 671.581 276.362 660.124L233.564 292.703C232.229 281.244 221.759 271.87 210.295 271.87H47.4379C35.9746 271.87 27.6888 281.246 29.024 292.703L71.822 660.124C73.1573 671.583 83.6272 680.957 95.0906 680.957Z" fill="#BADDF0"/>
<path d="M39.7895 329.643L43.1572 329.574C43.4351 329.568 43.6136 329.179 43.5554 328.708L41.8931 315.383C41.8349 314.913 41.5588 314.532 41.2808 314.538L37.9131 314.607C37.6351 314.613 37.4567 315.002 37.5149 315.473L39.1772 328.798C39.2354 329.268 39.5115 329.649 39.7895 329.643Z" fill="white"/>
<path d="M42.1078 348.069L45.4755 347.999C45.7535 347.994 45.9319 347.605 45.8737 347.134L44.2115 333.808C44.1532 333.339 43.8771 332.958 43.5992 332.964L40.2315 333.033C39.9535 333.039 39.7751 333.427 39.8333 333.899L41.4955 347.224C41.5537 347.693 41.8299 348.074 42.1078 348.069Z" fill="white"/>
<path d="M110.557 680.336C105.167 680.336 99.8337 678.218 95.5387 674.374C91.2437 670.529 88.5337 665.441 87.9046 660.049L45.1066 292.629C44.4794 287.239 46.0062 282.167 49.4073 278.348C52.7745 274.567 57.5672 272.487 62.9064 272.487H225.764C231.155 272.487 236.487 274.605 240.782 278.45C245.077 282.294 247.787 287.382 248.416 292.774L291.216 660.194C291.843 665.584 290.317 670.656 286.915 674.475C283.548 678.254 278.756 680.336 273.416 680.336H110.559H110.557Z" fill="#E3F5FF"/>
<path d="M103.487 644.32C98.8465 644.32 94.6323 640.545 94.0914 635.904L55.7838 307.035C55.5246 304.818 56.1519 302.733 57.5472 301.167C58.9276 299.616 60.8976 298.762 63.0911 298.762H232.262C236.903 298.762 241.117 302.537 241.658 307.178L279.966 636.047C280.225 638.264 279.598 640.35 278.202 641.916C276.822 643.466 274.852 644.32 272.658 644.32H103.487Z" fill="white"/>
<path d="M139.907 550.665H97.2438L95.5273 535.963H138.19L139.907 550.665Z" fill="#BADDF0"/>
<path d="M250.277 550.665H195.478L193.762 535.963H248.56L250.277 550.665Z" fill="#BADDF0"/>
<path d="M193.748 550.665H141.892L140.176 535.963H192.031L193.748 550.665Z" fill="#E3F5FF"/>
<path d="M153.61 532.491H95.1774L93.4609 517.79H151.893L153.61 532.491Z" fill="#E3F5FF"/>
<path d="M257.666 532.491H210.396L208.68 517.79H255.949L257.666 532.491Z" fill="#BADDF0"/>
<path d="M208.729 532.491H155.66L153.943 517.79H207.012L208.729 532.491Z" fill="#E3F5FF"/>
<path d="M144.949 513.766H92.945L91.2285 499.066H143.232L144.949 513.766Z" fill="#E3F5FF"/>
<path d="M255.434 513.766H199.343L197.627 499.066H253.717L255.434 513.766Z" fill="#E3F5FF"/>
<path d="M197.607 513.766H146.871L145.154 499.066H195.891L197.607 513.766Z" fill="#E3F5FF"/>
<path d="M255.772 487.618H83.6411L70.0293 370.132H242.16L255.772 487.618Z" fill="white"/>
<path d="M105.625 483.812H91.2352L87.3984 450.68H101.786L105.625 483.812Z" fill="#E3F5FF"/>
<path d="M128.774 483.811H114.387L109.109 438.262H123.497L128.774 483.811Z" fill="#E3F5FF"/>
<path d="M151.918 483.811H137.53L133.355 447.776H147.743L151.918 483.811Z" fill="#E3F5FF"/>
<path d="M175.064 483.81H160.677L154.104 427.076H168.491L175.064 483.81Z" fill="#E3F5FF"/>
<path d="M198.213 483.81H183.825L176.23 418.26H190.62L198.213 483.81Z" fill="#E3F5FF"/>
<path d="M221.359 483.812H206.971L200.639 429.162H215.028L221.359 483.812Z" fill="#E3F5FF"/>
<path d="M244.505 483.81H230.118L221.635 410.597H236.024L244.505 483.81Z" fill="#E3F5FF"/>
<path d="M209.313 417.643C210.779 416.09 210.554 413.498 208.811 411.853C207.067 410.209 204.466 410.134 203 411.687C201.534 413.24 201.759 415.832 203.502 417.476C205.246 419.121 207.847 419.195 209.313 417.643Z" fill="#BADDF0"/>
<path d="M94.0605 438.783L92.1543 436.862L113.68 417.124L138.588 433.415L158.24 407.47L181.159 398.352L205.765 414.197L225.042 386.36L227.196 387.999L206.814 417.428L181.395 401.061L160.063 409.549L139.561 436.616L114.382 420.15L94.0605 438.783Z" fill="#BADDF0"/>
<path d="M117.21 421.747C118.675 420.194 118.45 417.602 116.707 415.957C114.964 414.313 112.362 414.238 110.896 415.791C109.43 417.344 109.655 419.936 111.399 421.58C113.142 423.225 115.744 423.299 117.21 421.747Z" fill="#BADDF0"/>
<path d="M96.2683 440.782C97.7341 439.229 97.509 436.637 95.7656 434.993C94.0222 433.348 91.4206 433.274 89.9548 434.826C88.489 436.379 88.7141 438.971 90.4575 440.616C92.2009 442.26 94.8025 442.335 96.2683 440.782Z" fill="#BADDF0"/>
<path d="M142.216 437.784C143.681 436.231 143.456 433.639 141.713 431.994C139.969 430.35 137.368 430.275 135.902 431.828C134.436 433.381 134.661 435.973 136.405 437.617C138.148 439.262 140.75 439.336 142.216 437.784Z" fill="#BADDF0"/>
<path d="M162.309 411.463C163.775 409.91 163.55 407.318 161.807 405.673C160.063 404.029 157.462 403.954 155.996 405.507C154.53 407.06 154.755 409.652 156.499 411.296C158.242 412.941 160.844 413.016 162.309 411.463Z" fill="#BADDF0"/>
<path d="M184.507 403.271C185.972 401.719 185.747 399.127 184.004 397.482C182.261 395.837 179.659 395.763 178.193 397.316C176.727 398.868 176.952 401.46 178.696 403.105C180.439 404.75 183.041 404.824 184.507 403.271Z" fill="#BADDF0"/>
<path d="M229.27 390.139C230.736 388.586 230.511 385.994 228.768 384.349C227.024 382.705 224.423 382.63 222.957 384.183C221.491 385.736 221.716 388.328 223.459 389.972C225.203 391.617 227.804 391.691 229.27 390.139Z" fill="#BADDF0"/>
<path d="M167.728 618.705C174.976 594.717 169.54 586.72 173.164 578.224L291.404 577.725C294.575 583.222 298.93 594.838 302.73 610.209C308.166 632.199 294.273 664.85 287.327 682.675H145.982C150.815 669.348 161.929 637.896 167.728 618.705Z" fill="#003959"/>
<path d="M493.763 178.038H435.445C435.003 178.047 434.564 177.96 434.159 177.783C433.755 177.605 433.393 177.342 433.101 177.01C432.808 176.679 432.591 176.288 432.465 175.865C432.338 175.441 432.306 174.995 432.37 174.558C432.502 173.613 432.964 172.745 433.676 172.108C434.387 171.471 435.301 171.107 436.255 171.08H494.573C495.015 171.071 495.454 171.158 495.858 171.335C496.263 171.513 496.624 171.776 496.917 172.107C497.209 172.438 497.426 172.829 497.553 173.252C497.679 173.675 497.712 174.121 497.649 174.558C497.517 175.504 497.055 176.372 496.343 177.009C495.632 177.646 494.718 178.011 493.763 178.038Z" fill="black"/>
<path d="M493.747 178.183H435.429C434.968 178.193 434.511 178.103 434.089 177.919C433.667 177.734 433.291 177.46 432.986 177.115C432.681 176.77 432.455 176.363 432.324 175.921C432.193 175.48 432.16 175.015 432.227 174.56C432.361 173.575 432.841 172.67 433.581 172.007C434.322 171.344 435.274 170.965 436.268 170.939H494.586C495.046 170.929 495.502 171.02 495.924 171.204C496.345 171.389 496.722 171.663 497.026 172.007C497.331 172.352 497.557 172.759 497.688 173.2C497.82 173.641 497.853 174.105 497.787 174.56C497.654 175.545 497.174 176.451 496.433 177.114C495.693 177.778 494.741 178.157 493.747 178.183ZM436.232 171.222C435.317 171.245 434.44 171.592 433.757 172.201C433.074 172.81 432.629 173.642 432.503 174.548C432.443 174.967 432.475 175.394 432.597 175.799C432.719 176.204 432.928 176.578 433.208 176.894C433.489 177.211 433.836 177.462 434.224 177.632C434.611 177.801 435.032 177.884 435.455 177.874H493.78C494.695 177.852 495.572 177.505 496.255 176.896C496.937 176.286 497.381 175.454 497.506 174.548C497.566 174.129 497.534 173.703 497.412 173.298C497.291 172.893 497.082 172.519 496.802 172.203C496.521 171.886 496.175 171.635 495.787 171.465C495.4 171.296 494.98 171.213 494.557 171.222H436.232Z" fill="black"/>
<path d="M332.147 217.445H325.117L326.427 206.208H333.457L332.147 217.445Z" fill="black"/>
<path d="M343.194 217.445H336.164L338.12 200.653H345.15L343.194 217.445Z" fill="black"/>
<path d="M354.243 217.445H347.215L350.205 191.77H357.235L354.243 217.445Z" fill="black"/>
<path d="M420.514 315.581C420.514 315.581 477.054 248.568 492.859 223.007C508.663 197.446 474.941 172.719 452.392 202.269C429.842 231.819 359.41 321.352 359.41 321.352L420.514 315.581Z" fill="white"/>
<path d="M359.41 322.658C359.165 322.658 358.924 322.589 358.716 322.46C358.508 322.33 358.341 322.144 358.233 321.923C358.126 321.702 358.083 321.456 358.109 321.212C358.135 320.968 358.23 320.736 358.381 320.544C359.094 319.648 429.067 230.673 451.353 201.475C456.929 194.169 463.657 189.522 470.808 188.032C477.156 186.709 483.507 187.942 488.683 191.503C493.364 194.696 496.625 199.58 497.778 205.126C499.04 211.203 497.724 217.625 493.976 223.693C478.302 249.042 422.085 315.752 421.519 316.422C421.299 316.684 420.983 316.849 420.642 316.88L359.536 322.653L359.41 322.658ZM475.721 190.111C468.553 190.111 460.496 193.803 453.433 203.059C433.198 229.57 373.687 305.305 362.319 319.764L419.86 314.329C424.614 308.669 476.814 246.472 491.747 222.32C499.352 210.008 494.727 198.833 487.202 193.656C483.823 191.337 479.819 190.101 475.721 190.111Z" fill="black"/>
<path d="M464.721 430.813H213.179C205.7 430.813 200.364 424.819 201.26 417.426L250.088 14.5755C250.987 7.18206 257.774 1.18799 265.254 1.18799H516.798C524.274 1.18799 529.612 7.18206 528.716 14.5755L479.886 417.423C478.99 424.819 472.2 430.813 464.721 430.813Z" fill="white"/>
<path d="M464.721 432.001H213.179C209.208 432.001 205.655 430.459 203.174 427.663C200.692 424.867 199.609 421.191 200.084 417.283L248.91 14.4328C249.875 6.47398 257.206 0 265.254 0H516.798C520.769 0 524.322 1.54188 526.801 4.33816C529.28 7.13444 530.366 10.8098 529.89 14.7179L481.065 417.568C480.1 425.527 472.768 432.001 464.721 432.001ZM265.254 2.37577C258.362 2.37577 252.094 7.9137 251.27 14.7298L202.451 417.568C202.061 420.792 202.952 423.819 204.963 426.085C206.974 428.352 209.909 429.625 213.191 429.625H464.721C471.613 429.625 477.88 424.09 478.705 417.283L527.535 14.4328C527.927 11.2089 527.034 8.18454 525.023 5.91567C523.012 3.64681 520.077 2.37577 516.798 2.37577H265.254Z" fill="#E8F5FC"/>
<path d="M440.975 410.118L240.241 410.058C231.963 410.058 226.055 403.301 227.044 394.974L241.917 269.845C242.905 261.515 250.418 254.768 258.696 254.771L459.424 254.839C467.702 254.839 473.611 261.596 472.622 269.923L457.751 395.053C456.765 403.37 449.252 410.12 440.975 410.118Z" fill="white"/>
<path d="M440.981 410.721L240.243 410.652C236.103 410.652 232.385 409.034 229.785 406.1C227.131 403.114 225.947 399.132 226.458 394.891L241.329 269.764C242.353 261.157 250.146 254.158 258.704 254.158L459.431 254.227C463.573 254.227 467.288 255.844 469.888 258.776C472.54 261.765 473.724 265.744 473.215 269.985L458.345 395.115C457.335 403.72 449.539 410.721 440.981 410.721ZM258.693 255.365C250.726 255.365 243.482 261.886 242.517 269.907L227.646 395.036C227.171 398.928 228.262 402.572 230.684 405.3C233.06 407.97 236.452 409.443 240.243 409.445L440.971 409.514C448.938 409.514 456.182 402.99 457.147 394.972L472.02 269.843C472.481 265.951 471.402 262.307 468.98 259.579C466.604 256.906 463.212 255.434 459.421 255.434L258.693 255.365Z" fill="#D2ECFA"/>
<path d="M359.168 289.124L253.611 289.089L255.696 271.548L361.252 271.584L359.168 289.124Z" fill="#BADDF0"/>
<path d="M391.57 318.779L250.086 318.731L251.486 306.966L392.97 307.016L391.57 318.779Z" fill="#BADDF0"/>
<path d="M409.421 334.658L248.201 334.601L249.599 322.839L410.821 322.894L409.421 334.658Z" fill="#BADDF0"/>
<path d="M361.34 350.512L246.312 350.474L247.71 338.709L362.737 338.749L361.34 350.512Z" fill="#BADDF0"/>
<path d="M404.027 227.454H261.492C251.487 227.454 244.276 219.27 245.471 209.268L258.039 104.059C259.227 94.0547 268.396 85.8726 278.405 85.8726H420.939C430.945 85.8726 438.153 94.0547 436.957 104.059L424.392 209.28C423.197 219.27 414.032 227.454 404.027 227.454Z" fill="white"/>
<path d="M404.028 228.048H261.494C256.503 228.048 252.025 226.095 248.878 222.553C245.701 218.972 244.282 214.237 244.883 209.196L257.451 103.975C258.682 93.6597 268.082 85.2661 278.406 85.2661H420.94C425.931 85.2661 430.406 87.2166 433.553 90.7613C436.7 94.3059 438.152 99.0765 437.55 104.115L424.983 209.338C423.749 219.654 414.35 228.048 404.028 228.048ZM278.406 86.4516C268.661 86.4516 259.794 94.3748 258.63 104.113L246.062 209.336C245.501 214.026 246.818 218.44 249.767 221.761C252.686 225.047 256.85 226.857 261.494 226.857H404.028C413.772 226.857 422.639 218.934 423.801 209.194L436.369 103.973C436.93 99.2808 435.613 94.869 432.664 91.5477C429.715 88.2263 425.582 86.4516 420.94 86.4516H278.406Z" fill="#D2ECFA"/>
<path d="M402.649 127.939L270.967 127.891L272.267 115.945L403.95 115.995L402.649 127.939Z" fill="#BADDF0"/>
<path d="M418.659 143.931L269.967 143.873L271.258 131.937L419.948 131.992L418.659 143.931Z" fill="#BADDF0"/>
<path d="M374.657 159.924L267.967 159.885L269.263 147.93L375.953 147.971L374.657 159.924Z" fill="#BADDF0"/>
<path d="M335.191 154.725H455.968C461.099 154.725 464.797 158.923 464.184 164.052L459.606 202.457L481.319 231.315L442.076 218.724H327.548C322.417 218.724 318.719 214.528 319.332 209.399L324.748 164.06C325.359 158.923 330.06 154.725 335.191 154.725Z" fill="white"/>
<path d="M429.046 176.916L337.957 176.887L338.857 169.919L429.945 169.948L429.046 176.916Z" fill="#BADDF0"/>
<path d="M427.046 189.909L335.957 189.881L336.857 182.913L427.945 182.942L427.046 189.909Z" fill="#BADDF0"/>
<path d="M425.048 202.903L333.959 202.875L334.859 195.907L425.947 195.936L425.048 202.903Z" fill="#BADDF0"/>
<path d="M482.908 232.453L441.973 219.31H327.547C326.289 219.331 325.041 219.081 323.887 218.578C322.734 218.075 321.702 217.331 320.861 216.395C319.176 214.494 318.423 211.983 318.741 209.32L324.155 163.981C324.804 158.55 329.755 154.131 335.19 154.131H455.966C457.224 154.109 458.471 154.358 459.625 154.859C460.778 155.361 461.81 156.104 462.652 157.039C464.337 158.939 465.09 161.448 464.772 164.114L460.213 202.28L482.908 232.453ZM335.19 155.319C330.337 155.319 325.921 159.269 325.337 164.123L319.92 209.46C319.644 211.784 320.293 213.974 321.75 215.606C322.48 216.416 323.375 217.06 324.375 217.494C325.375 217.929 326.457 218.143 327.547 218.122H442.158L442.248 218.151L479.709 230.177L458.977 202.618L463.593 163.976C463.746 162.881 463.661 161.765 463.346 160.705C463.03 159.645 462.49 158.666 461.763 157.832C461.034 157.021 460.139 156.377 459.139 155.943C458.139 155.508 457.057 155.294 455.966 155.314L335.19 155.319Z" fill="#D2ECFA"/>
<path d="M500.533 75.0248H263.33C258.743 75.0248 255.622 69.9906 256.349 63.766L258.108 48.725C258.84 42.472 263.18 37.3926 267.788 37.3926H505.001C509.588 37.3926 512.708 42.4268 511.981 48.6514L510.22 63.69C509.478 69.943 505.141 75.0248 500.533 75.0248Z" fill="#BADDF0"/>
<path d="M480.952 59.2044C480.035 59.2062 479.124 59.052 478.259 58.7483C477.254 58.4025 476.338 57.8372 475.578 57.0933C474.818 56.3495 474.234 55.4459 473.867 54.4481C473.102 52.4074 473.225 50.0957 474.214 47.9385C475.208 45.778 476.937 44.0404 479.093 43.0349C483.557 40.9538 488.472 42.6904 490.05 46.9051C491.625 51.1197 489.277 56.2395 484.821 58.3088C483.612 58.8857 482.292 59.1914 480.952 59.2044ZM482.753 43.971C481.701 43.9773 480.663 44.2133 479.711 44.6623C476.199 46.2992 474.35 50.3286 475.593 53.6451C475.882 54.4284 476.343 55.1375 476.94 55.721C477.538 56.3045 478.258 56.7478 479.048 57.0187C480.747 57.5899 482.603 57.4687 484.213 56.6814C487.725 55.0445 489.574 51.0152 488.334 47.6986C487.447 45.3442 485.228 43.971 482.753 43.971Z" fill="#8ABCD8"/>
<path d="M498.406 67.23L495.863 69.3563L485.518 56.5794L488.061 54.4531L498.406 67.23Z" fill="#8ABCD8"/>
<path d="M453.978 66.9972H269.864C266.406 66.9972 263.922 64.17 264.329 60.7157L265.408 51.6877C265.819 48.231 268.985 45.4038 272.443 45.4038H456.556C460.014 45.4038 462.498 48.231 462.091 51.6877L461.012 60.7157C460.601 64.1772 457.436 66.9972 453.978 66.9972Z" fill="white"/>
<path d="M453.976 67.5976H269.862C268.987 67.6123 268.12 67.439 267.318 67.0894C266.516 66.7398 265.798 66.222 265.214 65.571C264.629 64.905 264.195 64.1212 263.94 63.2727C263.686 62.4241 263.617 61.5308 263.738 60.6532L264.814 51.6252C265.264 47.8739 268.684 44.8187 272.441 44.8187H456.555C457.43 44.8046 458.298 44.9788 459.1 45.3292C459.902 45.6797 460.619 46.1983 461.203 46.8499C461.787 47.5156 462.222 48.2991 462.476 49.1472C462.731 49.9953 462.8 50.8882 462.679 51.7654L461.6 60.7934C461.153 64.5447 457.733 67.5976 453.976 67.5976ZM272.441 46.0042C269.266 46.0042 266.373 48.589 265.996 51.763L264.917 60.791C264.817 61.5022 264.872 62.2264 265.077 62.9147C265.282 63.6029 265.632 64.239 266.105 64.7799C266.578 65.3052 267.159 65.7227 267.807 66.0039C268.456 66.2851 269.158 66.4235 269.865 66.4097H453.978C457.154 66.4097 460.044 63.8272 460.424 60.6508L461.503 51.6229C461.602 50.9117 461.547 50.1876 461.342 49.4995C461.137 48.8114 460.786 48.1752 460.314 47.6339C459.841 47.1092 459.26 46.6922 458.612 46.411C457.963 46.1299 457.262 45.9911 456.555 46.0042H272.441Z" fill="#8ABCD8"/>
<path d="M136.473 217.615L138.263 171.739C138.263 171.739 153.344 168.302 174.231 169.309C183.605 169.76 210.602 167.456 233.186 166.916C257.465 166.335 271.327 164.73 274.296 167.484C278.114 171.027 264.192 179.332 234.078 180.439C252.211 180.054 277.268 174.66 278.022 180.654C279.087 189.11 260.646 191.926 237.622 194.864C255.018 194.125 278.065 188.357 278.065 195.893C278.065 202.136 264.659 202.971 238.5 207.178C271.951 203.476 274.523 207.098 273.321 211.451C272.18 215.591 258.89 216.254 235.76 219.235C231.974 219.732 228.187 220.037 216.162 220.394C216.195 220.394 242.114 224.291 241.233 231.656C240.305 239.407 190.493 226.052 175.833 220.992C148.766 221.325 135.187 220.673 136.473 217.615Z" fill="#FABCC6"/>
<path d="M179.813 203.917C185.262 177.853 173.455 167.594 166.87 164.723C158.469 164.723 137.307 165.172 119.869 166.97C74.5709 175.583 31.6972 203.807 31.9977 258.857C31.9977 325.89 97.0497 377.569 116.123 386.557C135.196 395.545 118.166 386.931 123.275 388.804C128.384 390.676 159.037 319.898 143.029 313.157C114.079 298.927 101.477 278.33 107.608 258.857C113.739 239.383 158.696 224.514 166.87 224.514C171.298 220.769 176.748 217.399 179.813 203.917Z" fill="#00C7C7"/>
<path d="M282.229 499.755L381.287 499.718C385.372 499.718 388.288 496.05 387.8 491.53L380.462 423.61C379.972 419.09 376.265 415.427 372.177 415.428L273.119 415.465C269.034 415.465 266.117 419.133 266.605 423.653L273.946 491.573C274.437 496.1 278.144 499.763 282.229 499.755Z" fill="white"/>
<path d="M263.402 483.69L362.459 483.652C366.544 483.652 369.46 479.985 368.972 475.465L361.633 407.545C361.144 403.023 357.437 399.36 353.349 399.361L254.29 399.4C250.205 399.4 247.289 403.066 247.777 407.588L255.117 475.506C255.608 480.028 259.315 483.69 263.402 483.69Z" fill="white"/>
<path d="M241.809 402.531H242.58L241.416 391.755H240.644L241.809 402.531Z" fill="#BFC2C4"/>
<path d="M236.788 397.572L246.527 397.568L246.434 396.714L236.696 396.718L236.788 397.572Z" fill="#BFC2C4"/>
<path d="M225.971 319.902C225.764 319.902 206.708 313.003 203.726 308.786L199.349 299.857C197.213 307.579 191.289 324.133 188.246 331.202C185.9 336.641 199.58 364.826 199.58 364.826C199.58 364.826 214.892 358.652 216.056 351.378C216.863 346.325 224.264 325.7 225.971 319.902Z" fill="#FABCC6"/>
<path d="M237.072 295.904C230.444 311.176 223.086 333.663 203.678 311.661C195.491 302.382 193.753 290.843 198.834 275.571C204.122 259.672 235.387 254.446 245.944 260.061C256.502 265.676 243.698 280.634 237.072 295.904Z" fill="#003959"/>
<path d="M241.842 279.867C237.631 285.353 237.968 278.64 231.932 283.184C227.889 286.233 228.237 294.517 227.902 294.134C218.991 283.987 216.278 297.162 221.913 306.479C221.95 306.54 227.904 338.222 233.63 327.703C238.495 318.766 247.757 309.932 242.3 296.63C239.652 290.169 245.245 282.552 241.842 279.867Z" fill="#FABCC6"/>
<path d="M243.221 313.86C236.982 311.531 233.507 311.147 231.359 308.351C229.212 305.554 228.107 291.861 228.107 291.861H224.168C222.929 305.649 220.057 314.575 214.972 316.859C214.972 316.859 221.749 334.918 235.332 334.84C246.1 334.779 244.118 326.589 243.221 313.86Z" fill="#003959"/>
<path d="M219.973 348.834V339.252C219.973 339.252 216.458 320.887 191.431 318.848L182.977 331.225L219.973 348.834Z" fill="#00C7C7"/>
<path d="M142.937 313.482C183.743 330.848 260.172 364.103 274.379 385.668C274.379 385.668 233.782 466.111 292.375 579.277L172.543 580.617C80.5165 401.576 123.849 322.377 142.937 313.482Z" fill="#00C7C7"/>
<path d="M356.501 379.454C356.501 379.454 355.069 351.527 365.265 327.367C378.742 295.43 412.728 302.57 438.811 297.357C455.938 293.937 459.96 302.42 445.358 307.044C438.893 309.092 435.079 309.616 424.893 312.607C453.046 307.372 459.99 306.77 461.525 310.113C464.236 316.005 459.256 321.029 424.066 324.442C462.067 320.61 463.447 324.286 463.929 327.092C464.219 328.778 459.789 334.033 425.722 334.455C430.1 333.983 457.575 334.397 456.787 341.112C455.79 349.606 429.081 339.336 415.593 342.73C398.801 346.953 403.779 385.663 403.779 385.663L356.501 379.454Z" fill="#FABCC6"/>
<path d="M236.813 434.354C239.999 455.571 273.774 517.647 340.536 506.285C417.813 493.13 404.501 373.885 404.501 373.885C404.501 373.885 384.326 346.346 356.327 371.029C356.327 371.029 359.47 435.23 321.658 434.432C303.281 434.042 286.162 382.041 255.277 369.701C238.128 362.848 233.632 413.136 236.813 434.354Z" fill="#00C7C7"/>
<path d="M363.135 332.936C363.135 332.936 372.926 301.441 403.156 288.239C429.317 276.811 429.445 288.701 424.684 291.543C419.922 294.385 406.882 294.839 402.741 304.172" fill="#FABCC6"/>
<path d="M42.671 681.675H438.463V683.001H42.671V681.675Z" fill="#BADDF0"/>
<path d="M239.471 292.861C240.299 292.861 240.971 292.414 240.971 291.861C240.971 291.309 240.299 290.861 239.471 290.861C238.642 290.861 237.971 291.309 237.971 291.861C237.971 292.414 238.642 292.861 239.471 292.861Z" fill="#003959"/>
<path d="M236.323 291.398C236.223 291.466 236.093 291.482 235.972 291.426C235.769 291.333 235.667 291.077 235.743 290.853C235.754 290.821 236.847 287.701 239.741 288.121C239.956 288.151 240.115 288.371 240.095 288.612C240.075 288.853 239.886 289.021 239.67 288.989C237.363 288.655 236.482 291.166 236.474 291.192C236.443 291.281 236.39 291.352 236.321 291.399L236.323 291.398Z" fill="#003959"/>
<defs>
<linearGradient id="paint0_linear_5126_50232" x1="64.9314" y1="555.148" x2="64.9314" y2="681.139" gradientUnits="userSpaceOnUse">
<stop stop-color="#00C7C7"/>
<stop offset="1" stop-color="#50FF81"/>
</linearGradient>
<linearGradient id="paint1_linear_5126_50232" x1="64.9145" y1="554.798" x2="64.9145" y2="681.48" gradientUnits="userSpaceOnUse">
<stop stop-color="#00C7C7"/>
<stop offset="1" stop-color="#50FF81"/>
</linearGradient>
<linearGradient id="paint2_linear_5126_50232" x1="61.5697" y1="554.929" x2="61.5697" y2="673.553" gradientUnits="userSpaceOnUse">
<stop stop-color="#00C7C7"/>
<stop offset="1" stop-color="#50FF81"/>
</linearGradient>
<linearGradient id="paint3_linear_5126_50232" x1="22.0556" y1="560.26" x2="22.0556" y2="590.246" gradientUnits="userSpaceOnUse">
<stop stop-color="#00C7C7"/>
<stop offset="1" stop-color="#50FF81"/>
</linearGradient>
<linearGradient id="paint4_linear_5126_50232" x1="37.7128" y1="567.575" x2="37.7128" y2="611.365" gradientUnits="userSpaceOnUse">
<stop stop-color="#00C7C7"/>
<stop offset="1" stop-color="#50FF81"/>
</linearGradient>
<linearGradient id="paint5_linear_5126_50232" x1="54.7636" y1="580.956" x2="54.7636" y2="634.043" gradientUnits="userSpaceOnUse">
<stop stop-color="#00C7C7"/>
<stop offset="1" stop-color="#50FF81"/>
</linearGradient>
<linearGradient id="paint6_linear_5126_50232" x1="74.089" y1="600.038" x2="74.089" y2="654.952" gradientUnits="userSpaceOnUse">
<stop stop-color="#00C7C7"/>
<stop offset="1" stop-color="#50FF81"/>
</linearGradient>
</defs>
</svg>
