<svg width="48" height="48" viewBox="0 0 48 48" fill="none" xmlns="http://www.w3.org/2000/svg">
<path fill-rule="evenodd" clip-rule="evenodd" d="M10.901 45.0998C11.501 45.6998 12.201 45.9998 13.001 45.9998H35.001C35.801 45.9998 36.501 45.6998 37.101 45.0998C37.701 44.4998 38.001 43.7998 38.001 42.9998V35H35.0018V15H38.001V4.99976C38.001 4.19976 37.701 3.49976 37.101 2.89976C36.501 2.29976 35.801 1.99976 35.001 1.99976H13.001C12.201 1.99976 11.501 2.29976 10.901 2.89976C10.301 3.49976 10.001 4.19976 10.001 4.99976V42.9998C10.001 43.7998 10.301 44.4998 10.901 45.0998ZM13.001 42.9998V41.4998H35.001V42.9998H13.001ZM35.001 38.4998H13.001V9.49976H35.001V38.4998ZM35.001 6.49976H13.001V4.99976H35.001V6.49976Z" fill="#00C7C7"/>
<path d="M36.3873 24.7796L29.665 21.6768V28.8853L36.3873 31.9882V24.7796Z" fill="#00C7C7"/>
<path d="M36.9989 23.7142L43.4845 20.7207L36.9986 17.7268L30.5127 20.7206L36.9989 23.7142Z" fill="#00C7C7"/>
<path d="M36.999 13.9998C30.9239 13.9998 25.999 18.9246 25.999 24.9998C25.999 31.0748 30.9239 35.9998 36.999 35.9998C43.0742 35.9998 47.999 31.0748 47.999 24.9998C47.999 18.9246 43.0742 13.9998 36.999 13.9998ZM45.2001 29.8322L37.2556 33.4989C37.1733 33.5359 37.0862 33.555 36.999 33.555C36.9119 33.555 36.8248 33.5359 36.7424 33.4989L28.7986 29.8322C28.5819 29.732 28.4435 29.516 28.4435 29.2772V20.7217C28.4435 20.483 28.5819 20.2669 28.7986 20.1667L36.7424 16.5C36.9071 16.426 37.0909 16.426 37.2556 16.5L45.2001 20.1667C45.4161 20.2669 45.5546 20.483 45.5546 20.7217V29.2772C45.5546 29.516 45.4161 29.732 45.2001 29.8322Z" fill="#00C7C7"/>
<path d="M37.6104 24.7794V31.9877L44.3326 28.8848V21.6768L37.6104 24.7794Z" fill="#00C7C7"/>
</svg>
