<svg width="175" height="175" viewBox="0 0 175 175" fill="none" xmlns="http://www.w3.org/2000/svg">
<path d="M89.1262 143.872C93.6889 148.477 105.03 153.105 108.21 158.901C110.07 162.291 108.794 165.697 108.49 167.808C107.412 175.306 96.1342 175.345 91.6319 174.795C82.888 173.727 76.7534 165.302 75.3884 156.405C74.3339 149.533 71.9552 144.567 70.4539 141.746L70.7055 137.998C74.5694 131.992 74.9032 116.348 85.946 125.395C88.7116 127.661 82.467 137.151 89.1271 143.873L89.1262 143.872Z" fill="#003959"/>
<path d="M96.2298 168.994C91.2082 168.994 86.6036 167.475 83.2643 164.718C80.5776 162.5 78.45 159.579 76.7595 155.787C75.2927 152.498 74.3866 149.087 73.5871 146.077C72.7574 142.953 72.0396 140.252 70.9261 138.599C70.6108 135.289 70.6488 130.435 71.0215 126.497C71.224 124.36 71.5169 122.566 71.8692 121.308C72.3695 119.522 72.8707 119.201 73.1253 119.169C74.9331 118.938 75.9692 118.595 76.7259 118.344C77.2096 118.184 77.559 118.068 77.8851 118.068C78.6997 118.068 79.5941 118.816 82.5582 121.297C83.5797 122.152 84.8513 123.216 86.4494 124.526C87.9949 125.792 88.3541 126.636 89.2227 128.674C89.8982 130.258 90.8228 132.428 92.7713 135.987C93.9995 138.23 94.9572 140.031 95.802 141.62C99.2367 148.078 100.052 149.613 105.411 154.864C108.438 157.83 109.375 160.495 108.544 163.772C107.535 166.75 102.243 168.994 96.2293 168.994H96.2298Z" fill="#00C7C7"/>
<path d="M82.727 146.258C82.5548 146.258 82.381 146.207 82.2297 146.101C81.8384 145.826 81.744 145.286 82.019 144.895C83.3986 142.935 85.0035 141.48 86.7895 140.571C88.2377 139.833 89.8003 139.455 91.4334 139.445C91.4544 139.445 91.4753 139.445 91.4962 139.445C94.2297 139.445 96.2078 140.483 96.2915 140.528C96.7135 140.753 96.8731 141.277 96.6478 141.699C96.4229 142.12 95.8998 142.279 95.4779 142.056C95.4609 142.047 93.7766 141.176 91.4953 141.176C91.4544 141.176 91.4135 141.176 91.3721 141.177C90.0222 141.196 88.7312 141.518 87.535 142.135C86.0201 142.916 84.6415 144.18 83.437 145.891C83.2682 146.131 83 146.259 82.7275 146.259L82.727 146.258Z" fill="#003959"/>
<path d="M84.3218 149.225C84.1495 149.225 83.9758 149.174 83.8244 149.068C83.4332 148.793 83.3388 148.253 83.6137 147.863C84.9933 145.902 86.5982 144.447 88.3842 143.538C89.8324 142.8 91.395 142.422 93.0282 142.413C93.0491 142.413 93.07 142.413 93.091 142.413C95.8239 142.413 97.8026 143.45 97.8863 143.495C98.3082 143.72 98.4678 144.244 98.2425 144.666C98.0177 145.087 97.494 145.246 97.0721 145.023C97.0405 145.006 95.3003 144.111 92.9664 144.144C91.6164 144.162 90.3254 144.485 89.1292 145.102C87.6143 145.883 86.2357 147.147 85.0313 148.858C84.8624 149.098 84.5943 149.226 84.3218 149.226V149.225Z" fill="#003959"/>
<path d="M86.0436 152.448C85.8713 152.448 85.6976 152.397 85.5462 152.29C85.155 152.016 85.0606 151.475 85.3355 151.085C86.7151 149.124 88.32 147.669 90.106 146.76C91.5542 146.023 93.1168 145.644 94.75 145.635C94.7709 145.635 94.7918 145.635 94.8128 145.635C97.5462 145.635 99.5244 146.673 99.6081 146.717C100.03 146.942 100.19 147.466 99.9643 147.888C99.7395 148.309 99.2158 148.469 98.7939 148.245C98.7618 148.228 97.0235 147.334 94.6882 147.366C93.3382 147.385 92.0472 147.707 90.851 148.324C89.3361 149.105 87.9575 150.369 86.7531 152.08C86.5842 152.32 86.3161 152.448 86.0436 152.448V152.448Z" fill="#003959"/>
<path d="M81.2932 143.25C81.1209 143.25 80.9472 143.199 80.7959 143.093C80.4046 142.818 80.3102 142.278 80.5851 141.887C81.9648 139.927 83.5697 138.472 85.3556 137.563C86.8039 136.825 88.3665 136.447 89.9996 136.437C92.7647 136.422 94.7735 137.475 94.8577 137.52C95.2796 137.745 95.4392 138.269 95.2139 138.691C94.9891 139.112 94.4655 139.271 94.0436 139.048C94.0114 139.031 92.2727 138.137 89.9378 138.169C88.5879 138.187 87.2968 138.51 86.1007 139.126C84.5858 139.908 83.2071 141.171 82.0027 142.883C81.8338 143.122 81.5657 143.251 81.2932 143.251V143.25Z" fill="#003959"/>
<path d="M88.9863 56.1622C88.9863 56.1622 81.3553 59.4559 82.3958 67.5676C83.0951 73.018 88.9269 72.9762 91.2136 72.772C93.5003 72.5674 95.5106 70.2522 95.5106 70.2522C95.5106 70.2522 97.8382 67.6619 98.3365 65.3982C98.8348 63.1341 95.2289 55.6533 95.2289 55.6533L88.9858 56.1622H88.9863Z" fill="#003959"/>
<path d="M63.5401 40.4523C67.0989 40.8728 90.437 41.1601 96.9273 54.2667C103.418 67.3733 93.786 71.6046 93.786 71.6046C93.786 71.6046 101.844 63.9445 95.1768 58.15C90.1713 53.7996 85.1297 58.1145 83.4518 61.5093C82.8479 62.7308 82.5296 64.1516 82.5296 64.1516C82.5296 64.1516 87.3347 56.0987 60.0519 49.2051C55.7997 48.1309 59.9808 40.0319 63.5396 40.4523H63.5401Z" fill="#00B2B2"/>
<path d="M84.5284 51.1797L84.5332 62.1597L90.1627 63.4454L90.1072 51.4465L84.5284 51.1797Z" fill="#E3F5FF"/>
<path d="M82.8099 72.1125C82.4333 70.6047 83.4328 70.1969 83.6153 69.7224C81.6337 68.954 81.5753 66.4064 83.4104 66.7345C81.2897 65.3716 81.3004 63.4822 83.6883 63.6586C81.6201 62.0371 82.1496 58.9067 84.3847 58.6165C84.2513 59.5294 84.5336 62.1596 87.2597 62.7098C88.8973 63.0398 90.1664 59.5916 90.1338 57.1106C92.9797 56.89 96.3783 60.4816 95.2917 68.2205C94.205 75.9588 83.4912 74.8389 82.8099 72.1125Z" fill="#FABCC6"/>
<path d="M39.4477 82.1967L44.1418 81.3218L45.8737 87.2267L40.9723 87.6243L39.4477 82.1967Z" fill="#FABCC6"/>
<path d="M44.4442 82.2304L39.6581 82.8267L39.7064 83.2135L44.4925 82.6172L44.4442 82.2304Z" fill="black"/>
<path d="M41.2617 81.708L36.8061 82.3112C36.8061 82.3112 38.0587 90.0943 38.1565 90.5255C38.6232 92.5724 39.6154 94.1229 41.8705 93.9397C44.1251 93.7569 48.5846 93.3953 48.5846 93.3953C48.5846 93.3953 48.6372 90.6519 45.6235 90.0812C43.8672 89.7482 42.8915 88.6346 42.8034 87.5497C41.0656 87.085 40.8413 85.1874 40.6457 84.3144C40.2184 82.407 41.2617 81.708 41.2617 81.708Z" fill="#00C7C7"/>
<path d="M43.1089 80.6349C43.1089 80.6349 39.8382 83.1362 43.7259 88.2225C43.7259 88.2225 79.8913 89.1962 80.0329 85.2774C80.1745 81.3586 76.1666 65.25 72.0735 64.4329C67.9804 63.6158 50.6143 67.5836 50.6143 67.5836L43.1094 80.6353L43.1089 80.6349Z" fill="#00283F"/>
<path d="M37.1979 82.5427C37.1804 82.3677 36.5969 82.4231 36.6066 82.6034C37.2889 94.9236 39.6612 95.0713 41.9158 94.8881C44.1704 94.7053 48.6674 94.3403 48.6674 94.3403C48.6674 94.3403 48.5871 93.2014 48.537 92.9078C47.7053 93.0065 43.9436 93.2884 41.6054 93.5314C38.5035 93.8537 37.5239 85.7658 37.1979 82.5427Z" fill="#003959"/>
<path d="M42.6894 90.5055C42.6165 90.5055 42.5478 90.4642 42.5147 90.3966C42.4758 90.3178 42.4948 90.2226 42.5615 90.1642L43.0715 89.718L41.704 90.0889C41.6188 90.1122 41.5293 90.0753 41.4845 89.9995C41.4403 89.9236 41.4524 89.8274 41.5142 89.7647L42.6792 88.5845L41.342 88.3755C41.2354 88.359 41.1629 88.2593 41.1794 88.1528C41.196 88.0464 41.2957 87.9735 41.4023 87.9905L43.1153 88.2578C43.1873 88.269 43.2471 88.3201 43.2705 88.3891C43.2934 88.4586 43.2754 88.5349 43.2243 88.5869L42.2992 89.5236L43.7834 89.1211C43.871 89.0973 43.9635 89.1372 44.0063 89.2169C44.0491 89.2966 44.0311 89.3958 43.963 89.4555L43.3625 89.981L45.0034 89.6612C45.109 89.6407 45.2112 89.7093 45.2321 89.8148C45.2526 89.9202 45.1839 90.0223 45.0783 90.0432L42.7279 90.5011C42.7152 90.5035 42.7031 90.5045 42.6904 90.5045L42.6894 90.5055Z" fill="#003959"/>
<path d="M42.4787 87.8235C42.4524 87.8235 42.4262 87.8181 42.4008 87.8074C42.3712 87.7948 41.6704 87.4866 41.0475 86.9641C40.1789 86.235 39.8937 85.4456 40.2227 84.681C40.3662 84.3475 40.5589 84.1857 40.7974 84.1993C41.046 84.2134 41.45 84.4107 42.0865 85.9526C42.4179 86.7561 42.6627 87.5649 42.6651 87.5732C42.687 87.6456 42.6651 87.7243 42.6077 87.7749C42.5712 87.807 42.5249 87.824 42.4782 87.824L42.4787 87.8235ZM40.773 84.5877C40.7327 84.5877 40.6592 84.6518 40.5808 84.8346C40.1093 85.9302 41.4431 86.8479 42.1493 87.2426C42.0475 86.9398 41.8981 86.5179 41.7249 86.0984C41.1259 84.6484 40.8091 84.5896 40.775 84.5877H40.773Z" fill="#003959"/>
<path d="M42.48 87.9145C42.4776 87.9145 42.4747 87.9145 42.4722 87.9145C42.2119 87.9038 39.9174 87.7857 39.5529 86.9156C39.4619 86.6988 39.5475 86.5768 39.6064 86.5233C39.7422 86.4003 39.9962 86.3197 41.3009 86.9161C41.9481 87.2121 42.5666 87.5451 42.5725 87.5485C42.6523 87.5917 42.6917 87.6841 42.6679 87.7716C42.6445 87.8561 42.5671 87.9145 42.48 87.9145ZM39.949 86.8305C40.1057 87.0522 40.5748 87.25 41.2615 87.3803C41.3252 87.3924 41.3885 87.4036 41.4508 87.4138C40.7461 87.0779 40.1933 86.8689 39.9495 86.8305H39.949Z" fill="#003959"/>
<path d="M32.7964 77.9667C32.7964 77.9667 28.1514 62.9143 38.5085 50.8061C45.849 42.2249 63.5411 40.4517 63.5411 40.4517C60.0602 46.4854 58.0898 56.0956 57.9433 62.9639L32.7959 77.9672L32.7964 77.9667Z" fill="#00C7C7"/>
<path d="M32.0191 76.9907C32.0191 76.9907 55.1241 57.8951 61.538 52.5215C68.7441 46.4849 74.1876 48.6037 77.2899 58.4672C82.3247 74.4752 91.0549 131.436 91.0549 131.436C91.0549 131.436 73.6737 144.977 61.7949 137.035C61.7949 137.035 64.4281 68.4688 60.2747 68.7876C54.9913 69.193 49.7001 82.007 41.8501 83.1036C34.0007 84.2002 32.0191 76.9912 32.0191 76.9912V76.9907Z" fill="#003959"/>
<path d="M25.1715 108.469C25.1706 107.044 25.5161 102.695 25.5161 102.695L21.1305 104.112L16.798 102L0.0571899 114.837C0.0571899 114.837 0.535554 116.04 2.14583 115.124C2.59062 114.871 6.01119 112.194 6.64284 111.724L0.717556 116.204C0.717556 116.204 1.63925 117.613 2.60473 116.918C3.56973 116.223 8.81616 112.065 8.81616 112.065L2.68113 117.18C2.68113 117.18 3.10159 118.322 4.94837 117.529C4.94837 117.529 5.23792 119.521 8.2687 117.654C11.2163 115.838 18.8443 110.192 20.6468 109.301C22.4493 108.41 22.6877 113.317 24.608 114.992C25.7156 115.958 27.3502 114.995 27.3502 114.995C27.3502 114.995 25.1749 111.928 25.1725 108.47L25.1715 108.469Z" fill="#FABCC6"/>
<path d="M10.3007 113.03L4.87213 117.177L5.10894 117.487L10.5375 113.34L10.3007 113.03Z" fill="black"/>
<path d="M35.5408 53.0073C22.5598 67.804 19.5324 76.7965 13.6139 102.257C16.1668 106.13 19.8628 108.766 26.3677 104.147C30.7542 71.6023 39.5108 65.2857 44.3625 56.0181C48.6776 47.7761 43.7742 43.6221 35.5408 53.0073Z" fill="#00B2B2"/>
<path d="M58.9933 37.8026C55.6209 41.2994 51.2048 42.026 48.0321 38.9722C44.8594 35.9183 45.0211 30.6084 48.3935 27.1117C51.7659 23.6149 60.497 24.788 60.497 24.788C60.497 24.788 62.3657 34.3059 58.9933 37.8026Z" fill="#003959"/>
<path d="M50.872 43.008C49.6595 41.9216 48.8607 40.1964 48.6788 38.2764L48.6515 37.9903L48.3971 37.8573C48.3281 37.8217 48.2616 37.7742 48.1986 37.7184C47.8003 37.361 47.578 36.6664 47.6339 35.9492C47.7088 34.9827 48.2651 34.1872 48.8785 34.167C52.0655 34.3344 54.305 32.8787 54.9731 30.2463C55.7327 30.4007 56.4554 30.7711 57.0842 31.3351C58.6367 32.7267 59.4819 35.1382 59.2905 37.6281C59.1205 39.8283 58.1969 41.7922 56.7561 43.0152C55.7552 43.8653 54.6093 44.2619 53.4432 44.1633C52.516 44.085 51.6268 43.6848 50.872 43.0092V43.008Z" fill="#FABCC6"/>
<path d="M53.3516 41.7501C53.3516 41.7501 54.5836 41.8375 55.5716 41.4565C56.5597 41.0692 56.591 40.4883 56.591 40.4883C56.591 40.4883 56.7536 41.975 55.7593 42.4247C54.765 42.8682 53.3516 41.7563 53.3516 41.7563V41.7501Z" fill="#003959"/>
<path d="M55.7416 37.6797C55.4915 37.5797 55.2601 37.4111 55.0725 37.1925C54.7598 36.8302 54.6035 36.3555 54.6285 35.8682C54.6785 34.8501 55.5102 34.0568 56.4795 34.1067C56.9548 34.1317 57.3863 34.3441 57.699 34.7126C58.0117 35.0749 58.168 35.5496 58.143 36.0369C58.118 36.5303 57.9116 36.9801 57.5676 37.3112C57.2174 37.6485 56.7609 37.8171 56.2919 37.7984C56.0981 37.7859 55.9104 37.7484 55.7353 37.6734L55.7416 37.6797ZM56.8735 34.6252C56.7422 34.5752 56.6046 34.544 56.467 34.5315C55.7354 34.494 55.11 35.0999 55.0725 35.887C55.0537 36.268 55.1725 36.6365 55.4164 36.9176C55.654 37.1925 55.973 37.3549 56.3294 37.3736C56.6796 37.3923 57.0174 37.2612 57.28 37.0113C57.5489 36.7552 57.7052 36.4054 57.724 36.0244C57.7428 35.6434 57.6239 35.2748 57.38 34.9937C57.2425 34.8313 57.0674 34.7064 56.8798 34.6252H56.8735Z" fill="#003959"/>
<path d="M51.5575 39.6436C50.7382 39.3125 50.1817 38.4505 50.2254 37.4823C50.2567 36.8952 50.5006 36.358 50.9134 35.9582C51.3323 35.5584 51.8702 35.3523 52.4392 35.3773C53.0021 35.4023 53.5211 35.6646 53.8963 36.1019C54.2653 36.5391 54.4529 37.1013 54.4279 37.6822C54.3966 38.2694 54.1527 38.8066 53.74 39.2063C53.321 39.6061 52.7832 39.8122 52.2141 39.7873C51.9827 39.7748 51.7638 39.7248 51.5575 39.6436ZM52.902 35.9957C52.7457 35.9332 52.583 35.8957 52.4142 35.8895C51.9952 35.8707 51.595 36.0207 51.276 36.3267C50.9571 36.6328 50.7695 37.0513 50.7445 37.5073C50.6945 38.4443 51.3699 39.2376 52.2391 39.2813C52.6581 39.3 53.0583 39.1501 53.3773 38.844C53.6962 38.538 53.8838 38.1195 53.9088 37.6635C53.9338 37.2075 53.79 36.7702 53.5023 36.4392C53.3335 36.2455 53.1334 36.0956 52.902 36.0019V35.9957Z" fill="#003959"/>
<path d="M54.04 36.876L53.8898 36.4755L54.8097 36.1313L54.9661 36.5318L54.04 36.876Z" fill="#003959"/>
<path d="M48.0368 38.2962L47.993 37.8647L50.4445 37.6333L50.4882 38.0648L48.0368 38.2962Z" fill="#003959"/>
<path d="M16.3799 101.325C17.1384 101.2 17.6522 100.485 17.5276 99.7274C17.403 98.9698 16.6871 98.4565 15.9286 98.581C15.1701 98.7055 14.6563 99.4206 14.7809 100.178C14.9055 100.936 15.6214 101.449 16.3799 101.325Z" fill="#50FF81"/>
<path d="M54.702 45.3369L55.5303 46.4145L55.1133 47.3026L54.2028 47.4946L53.3521 46.7727L54.1906 45.2742L54.702 45.3369Z" fill="#50FF81"/>
<path d="M54.2028 47.4945L50.0075 62.1026L56.3766 56.8194L55.1133 47.3025L54.2028 47.4945Z" fill="#50FF81"/>
<path d="M65.6287 38.8846L61.3624 37.8328C58.9005 38.7359 59.5516 43.9724 61.8782 44.1776L65.9392 42.7004L65.6287 38.8842V38.8846Z" fill="#003959"/>
<path d="M110.18 7.57446L65.539 38.8935C64.4071 39.1074 64.0869 41.7978 65.8495 42.7097L115.954 72.4183L110.18 7.57446H110.18Z" fill="#BADDF0"/>
<path d="M121.667 73.2499C133.041 72.3279 141.028 56.4012 139.506 37.6766C137.985 18.9521 127.531 4.52028 116.158 5.44232C104.784 6.36436 96.7972 22.2911 98.3186 41.0156C99.84 59.7402 110.294 74.172 121.667 73.2499Z" fill="#8ABCD8"/>
<path d="M171.015 -0.000234784L140.71 9.67773L140.828 10.0486L171.133 0.370621L171.015 -0.000234784Z" fill="#8ABCD8"/>
<path d="M174.943 43.6423H147.479V44.0321H174.943V43.6423Z" fill="#8ABCD8"/>
<path d="M138.622 70.0863L138.457 70.439L172.152 86.1833L172.317 85.8306L138.622 70.0863Z" fill="#8ABCD8"/>
</svg>
