<svg width="103" height="103" viewBox="0 0 103 103" fill="none" xmlns="http://www.w3.org/2000/svg">
<path d="M98.6389 45.2513C101.355 46.5048 102.68 48.8141 102.68 52.179C102.68 53.6965 102.349 55.016 101.686 56.2036C101.024 57.3912 100.03 58.3809 98.7714 59.1726C97.5128 59.9644 95.9891 60.5582 94.2667 61.02C92.4781 61.4819 90.557 61.6798 88.3709 61.6798H82.0113L62.0051 31H86.1185C91.3519 31 95.3267 31.6598 97.844 32.9793C100.428 34.2989 101.686 36.4102 101.686 39.3792C101.686 40.6328 101.421 41.7544 100.891 42.7441C100.361 43.6018 99.6326 44.4595 98.6389 45.2513ZM83.27 42.3482H87.046C89.0333 42.3482 90.3582 42.1503 91.0207 41.8204C91.6832 41.4245 92.0144 40.7648 92.0144 39.8411C92.0144 39.0493 91.6169 38.5215 90.8882 38.1256C90.1595 37.7298 88.6359 37.5318 86.3835 37.5318H83.2037V42.3482H83.27ZM83.27 48.8801V54.8181H87.5759C89.5633 54.8181 90.9545 54.5542 91.7494 54.0923C92.5443 53.6305 92.9418 52.8387 92.9418 51.7171C92.9418 49.8037 91.0207 48.8141 87.2447 48.8141H83.27V48.8801Z" fill="white"/>
<path d="M56.5742 37.5234L42.6626 61.5394H57.7004H72.6719L56.5742 37.5234Z" fill="#1AE3E3"/>
<path d="M43.3916 31H51.2085L33.5872 61.5478L25.6377 48.1543L17.622 61.5478L13.9785 54.8841L27.6914 31H35.5083L29.5462 41.2926L33.3885 47.8904L43.3916 31Z" fill="white"/>
<path d="M0 31H19.5425L9.73811 47.8904L0 31Z" fill="white"/>
<path fill-rule="evenodd" clip-rule="evenodd" d="M33.7073 68.5431L34.0385 68.873C34.1047 68.906 34.1544 68.9555 34.2041 69.005L34.2041 69.005C34.2537 69.0545 34.3034 69.1039 34.3697 69.1369C34.4772 69.0655 34.5848 68.9747 34.7029 68.8751L34.7029 68.8751L34.7029 68.8751L34.7031 68.8749C34.8031 68.7906 34.9106 68.6998 35.0321 68.6091C35.1314 68.5101 35.2308 68.3947 35.3301 68.2792C35.4295 68.1638 35.5289 68.0483 35.6282 67.9493L35.6282 67.9493C35.4295 67.7514 35.2308 67.5534 35.0321 67.2895C34.8333 67.0916 34.5684 66.8937 34.3697 66.7617C34.3422 66.789 34.3034 66.8164 34.258 66.8484C34.1937 66.8937 34.1161 66.9483 34.0385 67.0256C33.9529 67.0682 33.895 67.1384 33.829 67.2182L33.829 67.2182C33.7928 67.262 33.7542 67.3088 33.7073 67.3555L33.3761 67.6854C33.2436 67.8174 33.1774 67.8833 33.1111 68.0153C33.1442 68.0813 33.1939 68.1308 33.2436 68.1802C33.2933 68.2297 33.343 68.2792 33.3761 68.3452C33.4423 68.3452 33.5748 68.4112 33.7073 68.5431ZM28.6076 69.5267C29.005 69.3947 29.4687 69.3288 29.9986 69.3288V67.0195H32.1183V74.8709H29.9324V73.7493C29.7337 74.2111 29.4687 74.541 29.2038 74.739C28.9388 74.9369 28.6076 75.0029 28.2764 75.0029C28.0114 75.0029 27.7465 74.9369 27.5478 74.8049C27.349 74.673 27.1503 74.4751 27.0178 74.2771C26.8854 74.0132 26.7529 73.7493 26.6866 73.4854C26.6204 73.2215 26.5542 72.8916 26.5542 72.5617C26.5542 71.9679 26.6204 71.4401 26.8191 71.0442C27.0178 70.6483 27.2166 70.3184 27.5478 70.0545C27.8127 69.7906 28.2102 69.6587 28.6076 69.5267ZM29.7999 72.7596C29.8662 72.5617 29.9324 72.3637 29.9986 72.0339C30.0649 71.77 30.1311 71.3741 30.1973 70.9122H29.9324H29.7337C29.4687 70.9122 29.27 70.9122 29.1375 70.9782C29.005 70.9782 28.8726 71.0442 28.8063 71.1102C28.7401 71.1762 28.6738 71.3081 28.6738 71.3741C28.6076 71.4401 28.6076 71.572 28.6076 71.704C28.6076 71.7633 28.621 71.8359 28.6357 71.9159L28.6357 71.9159L28.6357 71.9159C28.6538 72.0139 28.6738 72.1228 28.6738 72.2318C28.7042 72.3226 28.7207 72.4134 28.736 72.4978C28.754 72.5974 28.7705 72.6882 28.8063 72.7596C28.8726 72.9576 28.9388 73.0895 29.005 73.1555C29.0713 73.2215 29.2038 73.2875 29.27 73.2875C29.3362 73.2875 29.4687 73.2215 29.535 73.1555C29.6674 73.0895 29.7337 72.9576 29.7999 72.7596L29.7999 72.7596ZM16.8815 72.6341L15.6229 67.4219H13.4368L12.2443 72.6341H12.1781L11.1182 67.4219H8.79956L10.5219 74.8114H11.8469H11.8469C12.1781 74.8114 12.5093 74.8114 12.7743 74.7454C13.0393 74.6795 13.238 74.6135 13.4368 74.4815C13.6355 74.3496 13.768 74.1516 13.9005 73.8877C13.986 73.7173 14.044 73.5194 14.1099 73.2939L14.1099 73.2939C14.1461 73.1702 14.1848 73.0383 14.2317 72.8981L14.4967 71.7104L15.2254 74.8114H16.6165H16.6166C16.9478 74.8114 17.279 74.8114 17.544 74.7454C17.809 74.6795 18.0077 74.6135 18.2064 74.4815C18.4052 74.3496 18.5377 74.1516 18.6702 73.8877C18.8026 73.6238 18.8689 73.2939 18.9351 72.8981L19.9288 67.4219H17.6765L16.8815 72.6341ZM23.6389 69.3281C23.109 69.3281 22.6453 69.3941 22.2478 69.4601C21.8504 69.592 21.453 69.724 21.1218 69.9879C20.7906 70.2518 20.5919 70.5817 20.3931 70.9776C20.1944 71.3734 20.1282 71.9013 20.1282 72.4951C20.1282 72.825 20.1944 73.1548 20.2607 73.4188C20.3269 73.6827 20.4594 73.9466 20.5919 74.2105C20.7243 74.4084 20.923 74.6064 21.1218 74.7383C21.3205 74.8703 21.5854 74.9363 21.8504 74.9363C22.1816 74.9363 22.5128 74.8703 22.7778 74.6723C23.0427 74.4744 23.3077 74.1445 23.5064 73.6827V74.8043H25.6923V69.3941C25.2949 69.3281 24.8974 69.3281 24.5663 69.3281H24.5662H23.6389ZM23.5726 72.0332C23.5064 72.3631 23.4402 72.561 23.3739 72.759L23.3739 72.759C23.3077 72.9569 23.2414 73.0889 23.109 73.1548C23.0427 73.2208 22.9102 73.2868 22.844 73.2868C22.7778 73.2868 22.6453 73.2208 22.579 73.1548C22.5128 73.0889 22.4466 72.9569 22.3803 72.759C22.3445 72.6875 22.328 72.5968 22.31 72.4971C22.2947 72.4127 22.2782 72.3219 22.2478 72.2312C22.2478 72.1222 22.2278 72.0132 22.2097 71.9153C22.195 71.8353 22.1816 71.7626 22.1816 71.7033C22.1816 71.5714 22.1816 71.4394 22.2478 71.3734C22.2478 71.3075 22.3141 71.1755 22.3803 71.1095C22.4466 71.0436 22.579 70.9776 22.7115 70.9776C22.844 70.9116 23.0427 70.9116 23.3077 70.9116H23.3077H23.5064H23.7714C23.7051 71.3734 23.6389 71.7693 23.5726 72.0332ZM53.383 67.8177C53.5155 67.9497 53.6479 68.1476 53.7804 68.4115C53.8649 68.5377 53.9494 68.7175 54.051 68.9339C54.1088 69.0569 54.1721 69.1917 54.2442 69.3352L55.8341 74.8114H53.5817L53.0517 73.096H51.1306L50.6669 74.8114H48.4145H35.4967H33.3105V69.4012H35.4967V72.6341H49.0108L50.4019 67.4219H51.9256C52.2568 67.4219 52.5218 67.4219 52.7868 67.4879C52.9855 67.5538 53.1842 67.6858 53.383 67.8177ZM51.8593 69.5992L51.3956 71.5125H52.4555L51.9256 69.5992H51.8593ZM73.7206 70.9782C73.9856 70.7803 74.1843 70.5824 74.3168 70.3184C74.4493 70.0545 74.5156 69.7906 74.5156 69.4607C74.5156 68.8669 74.3168 68.3391 73.8531 67.9432C73.3894 67.5474 72.7932 67.4154 71.9982 67.4154H68.421V72.6277H58.6829V67.0195H56.4968V74.8049H58.4179H58.6829H68.421H69.7459H70.6733V73.8153C70.8721 74.2111 71.0708 74.541 71.402 74.673C71.667 74.8049 72.0645 74.9369 72.462 74.9369C72.8594 74.9369 73.1907 74.8709 73.5219 74.739C73.7869 74.607 74.0519 74.4751 74.2506 74.2771C74.4493 74.0792 74.5818 73.8813 74.7143 73.6173C74.7806 73.3534 74.8468 73.0895 74.8468 72.7596C74.8468 72.4297 74.7806 72.0998 74.5818 71.77C74.3831 71.4401 74.1181 71.1762 73.7206 70.9782ZM70.7396 69.3288H71.6008C71.7995 69.3288 71.932 69.3288 72.0645 69.3947C72.197 69.4607 72.2632 69.5927 72.2632 69.7906C72.2632 69.9472 72.2217 70.0212 72.1716 70.1107C72.1584 70.1343 72.1446 70.1589 72.1307 70.1865C71.9982 70.2525 71.8657 70.3184 71.667 70.3184H70.7396V69.3288ZM72.2632 72.8256C72.1307 72.8916 71.9982 72.9576 71.7995 72.9576H70.6071V71.9679H71.7995C71.9982 71.9679 72.1307 72.0339 72.2632 72.0998C72.3957 72.1658 72.3957 72.2978 72.3957 72.4957C72.462 72.6277 72.3957 72.7596 72.2632 72.8256ZM77.563 69.4601C77.9605 69.3941 78.4241 69.3281 78.9541 69.3281H79.8814C80.2126 69.3281 80.6101 69.3281 81.0075 69.3941V74.8043H78.8216V73.6827C78.6229 74.1445 78.3579 74.4744 78.0929 74.6723C77.828 74.8703 77.4968 74.9363 77.1656 74.9363C76.9006 74.9363 76.6357 74.8703 76.437 74.7383C76.2382 74.6064 76.0395 74.4084 75.907 74.2105L75.907 74.2104C75.7745 73.9465 75.6421 73.6826 75.5758 73.4188C75.5096 73.1548 75.4434 72.825 75.4434 72.4951C75.4434 71.9013 75.5096 71.3734 75.7083 70.9776C75.907 70.5817 76.1058 70.2518 76.437 69.9879C76.7682 69.724 77.1656 69.592 77.563 69.4601ZM78.6891 72.7589C78.7554 72.561 78.8216 72.3631 78.8878 72.0332C78.9541 71.7693 79.0203 71.3734 79.0865 70.9116H78.8216H78.6229C78.3579 70.9116 78.1592 70.9116 78.0267 70.9776C77.8942 70.9776 77.7617 71.0436 77.6955 71.1095C77.6293 71.1755 77.563 71.3075 77.563 71.3734C77.4968 71.4394 77.4968 71.5714 77.4968 71.7033C77.4968 71.7626 77.5102 71.8353 77.5249 71.9153C77.543 72.0132 77.563 72.1222 77.563 72.2312C77.5934 72.3219 77.6099 72.4127 77.6251 72.4971C77.6432 72.5968 77.6596 72.6875 77.6955 72.759C77.7617 72.9569 77.828 73.0889 77.8942 73.1548C77.9605 73.2208 78.0929 73.2868 78.1592 73.2868C78.2254 73.2868 78.3579 73.2208 78.4241 73.1548C78.5566 73.0889 78.6229 72.9569 78.6891 72.759L78.6891 72.7589ZM85.3137 69.3288C84.7838 69.3288 84.3201 69.3947 83.9227 69.5267C83.5253 69.6587 83.1278 69.7906 82.8629 70.0545C82.5317 70.3184 82.3329 70.6483 82.1342 71.0442C81.9355 71.4401 81.8693 71.9679 81.8693 72.5617C81.8693 72.8916 81.9355 73.2215 82.0017 73.4854C82.068 73.7493 82.2004 74.0132 82.3329 74.277L82.3329 74.2771C82.4654 74.4751 82.6641 74.673 82.8629 74.8049C83.0616 74.9369 83.3265 75.0029 83.5915 75.0029C83.9227 75.0029 84.2539 74.9369 84.5189 74.739C84.7838 74.541 85.0488 74.2111 85.2475 73.7493V74.8709H87.4334V67.0195H85.2475V69.3288H85.3137ZM85.3137 72.0339C85.2475 72.3637 85.1813 72.5616 85.1151 72.7595L85.115 72.7596C85.0488 72.9576 84.9825 73.0895 84.8501 73.1555C84.7838 73.2215 84.6513 73.2875 84.5851 73.2875C84.5188 73.2875 84.3864 73.2215 84.3201 73.1555C84.2539 73.0895 84.1877 72.9576 84.1214 72.7596C84.0855 72.6882 84.0691 72.5974 84.051 72.4978C84.0358 72.4134 84.0193 72.3226 83.9889 72.2318C83.9889 72.1228 83.9689 72.0139 83.9508 71.9159C83.9361 71.8359 83.9227 71.7633 83.9227 71.704C83.9227 71.572 83.9227 71.4401 83.9889 71.3741C83.9889 71.3081 84.0552 71.1762 84.1214 71.1102C84.1877 71.0442 84.3201 70.9782 84.4526 70.9782C84.5851 70.9122 84.7838 70.9122 85.0488 70.9122H85.2475H85.5124C85.4462 71.3741 85.38 71.77 85.3137 72.0339ZM91.8049 69.3281H92.7985C92.9641 69.3281 93.1463 69.3446 93.3284 69.3611C93.5106 69.3776 93.6927 69.3941 93.8583 69.3941V74.8043H91.6724V73.6827C91.4737 74.1445 91.2087 74.4744 90.9438 74.6723C90.6788 74.8703 90.3476 74.9363 90.0164 74.9363C89.7515 74.9363 89.4865 74.8703 89.2878 74.7383C89.0891 74.6064 88.8903 74.4084 88.7579 74.2105L88.7578 74.2104C88.6254 73.9465 88.4929 73.6826 88.4267 73.4188C88.3604 73.1548 88.2942 72.825 88.2942 72.4951C88.2942 71.9013 88.3604 71.3734 88.5591 70.9776C88.7579 70.5817 88.9566 70.2518 89.2878 69.9879C89.619 69.724 90.0164 69.592 90.4139 69.4601C90.8113 69.3941 91.275 69.3281 91.8049 69.3281ZM91.54 72.7589C91.6062 72.561 91.6724 72.3631 91.7387 72.0332C91.8049 71.7693 91.8711 71.3734 91.9374 70.9116H91.6724H91.4737C91.2087 70.9116 91.01 70.9116 90.8775 70.9776C90.7451 70.9776 90.6126 71.0436 90.5463 71.1095C90.4801 71.1755 90.4139 71.3075 90.4139 71.3734C90.3476 71.4394 90.3476 71.5714 90.3476 71.7033C90.3476 71.7626 90.361 71.8353 90.3757 71.9153C90.3938 72.0132 90.4139 72.1222 90.4139 72.2312C90.4442 72.3219 90.4607 72.4127 90.476 72.4971C90.494 72.5968 90.5105 72.6875 90.5463 72.759C90.6126 72.9569 90.6788 73.0889 90.7451 73.1548C90.8113 73.2208 90.9438 73.2868 91.01 73.2868C91.0763 73.2868 91.2087 73.2208 91.275 73.1548C91.4075 73.0889 91.4737 72.9569 91.5399 72.759L91.54 72.7589Z" fill="#1AE3E3"/>
</svg>
