<svg width="52" height="52" viewBox="0 0 52 52" fill="none" xmlns="http://www.w3.org/2000/svg">
<circle cx="26" cy="26" r="26" fill="#1AE3E3"/>
<path d="M19.696 35.24C18.752 35.24 17.92 35.112 17.2 34.856C16.48 34.584 15.872 34.144 15.376 33.536C14.88 32.928 14.496 32.112 14.224 31.088C13.968 30.064 13.84 28.8 13.84 27.296C13.84 25.696 13.968 24.36 14.224 23.288C14.48 22.2 14.856 21.336 15.352 20.696C15.864 20.056 16.48 19.6 17.2 19.328C17.92 19.04 18.744 18.896 19.672 18.896C20.648 18.896 21.496 19.04 22.216 19.328C22.952 19.6 23.56 20.056 24.04 20.696C24.536 21.336 24.904 22.192 25.144 23.264C25.4 24.336 25.528 25.68 25.528 27.296C25.528 29.296 25.304 30.88 24.856 32.048C24.408 33.2 23.752 34.024 22.888 34.52C22.024 35 20.96 35.24 19.696 35.24ZM19.696 33.248C20.272 33.248 20.776 33.16 21.208 32.984C21.64 32.792 22 32.48 22.288 32.048C22.592 31.6 22.816 30.992 22.96 30.224C23.104 29.44 23.176 28.464 23.176 27.296C23.176 26.016 23.104 24.968 22.96 24.152C22.832 23.32 22.624 22.672 22.336 22.208C22.048 21.728 21.688 21.392 21.256 21.2C20.824 20.992 20.304 20.888 19.696 20.888C19.12 20.888 18.608 20.992 18.16 21.2C17.712 21.392 17.344 21.72 17.056 22.184C16.784 22.648 16.576 23.296 16.432 24.128C16.288 24.96 16.216 26.024 16.216 27.32C16.216 28.488 16.288 29.464 16.432 30.248C16.592 31.016 16.816 31.616 17.104 32.048C17.408 32.48 17.776 32.792 18.208 32.984C18.64 33.16 19.136 33.248 19.696 33.248ZM33.6783 35V21.68L29.7183 24.224L28.7583 22.52L33.8703 19.16H35.9583V35H33.6783Z" fill="#003C4F"/>
</svg>
