<svg width="52" height="52" viewBox="0 0 52 52" fill="none" xmlns="http://www.w3.org/2000/svg">
<circle cx="26" cy="26" r="26" fill="#C7FF50"/>
<path d="M19.696 35.24C18.752 35.24 17.92 35.112 17.2 34.856C16.48 34.584 15.872 34.144 15.376 33.536C14.88 32.928 14.496 32.112 14.224 31.088C13.968 30.064 13.84 28.8 13.84 27.296C13.84 25.696 13.968 24.36 14.224 23.288C14.48 22.2 14.856 21.336 15.352 20.696C15.864 20.056 16.48 19.6 17.2 19.328C17.92 19.04 18.744 18.896 19.672 18.896C20.648 18.896 21.496 19.04 22.216 19.328C22.952 19.6 23.56 20.056 24.04 20.696C24.536 21.336 24.904 22.192 25.144 23.264C25.4 24.336 25.528 25.68 25.528 27.296C25.528 29.296 25.304 30.88 24.856 32.048C24.408 33.2 23.752 34.024 22.888 34.52C22.024 35 20.96 35.24 19.696 35.24ZM19.696 33.248C20.272 33.248 20.776 33.16 21.208 32.984C21.64 32.792 22 32.48 22.288 32.048C22.592 31.6 22.816 30.992 22.96 30.224C23.104 29.44 23.176 28.464 23.176 27.296C23.176 26.016 23.104 24.968 22.96 24.152C22.832 23.32 22.624 22.672 22.336 22.208C22.048 21.728 21.688 21.392 21.256 21.2C20.824 20.992 20.304 20.888 19.696 20.888C19.12 20.888 18.608 20.992 18.16 21.2C17.712 21.392 17.344 21.72 17.056 22.184C16.784 22.648 16.576 23.296 16.432 24.128C16.288 24.96 16.216 26.024 16.216 27.32C16.216 28.488 16.288 29.464 16.432 30.248C16.592 31.016 16.816 31.616 17.104 32.048C17.408 32.48 17.776 32.792 18.208 32.984C18.64 33.16 19.136 33.248 19.696 33.248ZM27.9902 35V33.104L32.2863 28.616C32.9583 27.928 33.5343 27.312 34.0143 26.768C34.5103 26.208 34.8863 25.672 35.1423 25.16C35.3983 24.632 35.5263 24.08 35.5263 23.504C35.5263 22.528 35.2543 21.856 34.7103 21.488C34.1823 21.12 33.3743 20.936 32.2863 20.936C31.8703 20.936 31.4063 20.968 30.8943 21.032C30.3983 21.08 29.9183 21.144 29.4543 21.224C28.9903 21.288 28.5903 21.36 28.2543 21.44L28.1103 19.592C28.4463 19.48 28.8623 19.376 29.3583 19.28C29.8703 19.184 30.4223 19.104 31.0143 19.04C31.6063 18.96 32.1903 18.92 32.7663 18.92C34.4623 18.92 35.7343 19.264 36.5823 19.952C37.4463 20.624 37.8783 21.712 37.8783 23.216C37.8783 24.016 37.7583 24.728 37.5183 25.352C37.2783 25.976 36.9103 26.592 36.4143 27.2C35.9343 27.792 35.3103 28.448 34.5423 29.168L30.6543 33.032H38.2143V35H27.9902Z" fill="#003C4F"/>
</svg>
