<svg width="52" height="52" viewBox="0 0 52 52" fill="none" xmlns="http://www.w3.org/2000/svg">
<circle cx="26" cy="26" r="26" fill="#1AE3E3"/>
<path d="M19.696 35.24C18.752 35.24 17.92 35.112 17.2 34.856C16.48 34.584 15.872 34.144 15.376 33.536C14.88 32.928 14.496 32.112 14.224 31.088C13.968 30.064 13.84 28.8 13.84 27.296C13.84 25.696 13.968 24.36 14.224 23.288C14.48 22.2 14.856 21.336 15.352 20.696C15.864 20.056 16.48 19.6 17.2 19.328C17.92 19.04 18.744 18.896 19.672 18.896C20.648 18.896 21.496 19.04 22.216 19.328C22.952 19.6 23.56 20.056 24.04 20.696C24.536 21.336 24.904 22.192 25.144 23.264C25.4 24.336 25.528 25.68 25.528 27.296C25.528 29.296 25.304 30.88 24.856 32.048C24.408 33.2 23.752 34.024 22.888 34.52C22.024 35 20.96 35.24 19.696 35.24ZM19.696 33.248C20.272 33.248 20.776 33.16 21.208 32.984C21.64 32.792 22 32.48 22.288 32.048C22.592 31.6 22.816 30.992 22.96 30.224C23.104 29.44 23.176 28.464 23.176 27.296C23.176 26.016 23.104 24.968 22.96 24.152C22.832 23.32 22.624 22.672 22.336 22.208C22.048 21.728 21.688 21.392 21.256 21.2C20.824 20.992 20.304 20.888 19.696 20.888C19.12 20.888 18.608 20.992 18.16 21.2C17.712 21.392 17.344 21.72 17.056 22.184C16.784 22.648 16.576 23.296 16.432 24.128C16.288 24.96 16.216 26.024 16.216 27.32C16.216 28.488 16.288 29.464 16.432 30.248C16.592 31.016 16.816 31.616 17.104 32.048C17.408 32.48 17.776 32.792 18.208 32.984C18.64 33.16 19.136 33.248 19.696 33.248ZM33.0063 35.24C32.3983 35.24 31.7663 35.2 31.1103 35.12C30.4703 35.056 29.8543 34.976 29.2623 34.88C28.6863 34.784 28.2063 34.688 27.8223 34.592L27.9902 32.768C28.3583 32.832 28.8143 32.904 29.3583 32.984C29.9023 33.048 30.4703 33.112 31.0623 33.176C31.6703 33.224 32.2303 33.248 32.7422 33.248C33.8303 33.248 34.6383 33.016 35.1663 32.552C35.6943 32.088 35.9583 31.392 35.9583 30.464C35.9583 29.808 35.8223 29.288 35.5503 28.904C35.2943 28.52 34.9343 28.24 34.4703 28.064C34.0223 27.888 33.5103 27.792 32.9343 27.776H29.7423V25.832H32.9103C33.3103 25.832 33.7183 25.736 34.1343 25.544C34.5503 25.336 34.8943 25.04 35.1663 24.656C35.4543 24.256 35.5983 23.784 35.5983 23.24C35.5983 22.408 35.3583 21.816 34.8783 21.464C34.4143 21.096 33.6383 20.912 32.5503 20.912C32.0383 20.912 31.5103 20.936 30.9663 20.984C30.4223 21.032 29.9103 21.096 29.4303 21.176C28.9503 21.24 28.5423 21.304 28.2063 21.368L28.0623 19.568C28.3823 19.472 28.7983 19.376 29.3103 19.28C29.8223 19.168 30.3663 19.08 30.9423 19.016C31.5343 18.936 32.1103 18.896 32.6703 18.896C33.9503 18.896 34.9743 19.048 35.7423 19.352C36.5263 19.64 37.0863 20.088 37.4223 20.696C37.7743 21.304 37.9503 22.096 37.9503 23.072C37.9503 23.664 37.8623 24.168 37.6863 24.584C37.5103 24.984 37.2943 25.328 37.0383 25.616C36.7823 25.888 36.5263 26.112 36.2703 26.288C36.0303 26.448 35.8383 26.568 35.6943 26.648C36.2223 26.856 36.6783 27.096 37.0623 27.368C37.4463 27.624 37.7503 27.992 37.9743 28.472C38.1983 28.952 38.3103 29.6 38.3103 30.416C38.3103 31.52 38.1183 32.432 37.7343 33.152C37.3663 33.856 36.7903 34.384 36.0063 34.736C35.2223 35.072 34.2223 35.24 33.0063 35.24Z" fill="#003C4F"/>
</svg>
