<svg width="52" height="52" viewBox="0 0 52 52" fill="none" xmlns="http://www.w3.org/2000/svg">
<circle cx="26" cy="26" r="26" fill="#1AE3E3"/>
<path d="M19.696 35.24C18.752 35.24 17.92 35.112 17.2 34.856C16.48 34.584 15.872 34.144 15.376 33.536C14.88 32.928 14.496 32.112 14.224 31.088C13.968 30.064 13.84 28.8 13.84 27.296C13.84 25.696 13.968 24.36 14.224 23.288C14.48 22.2 14.856 21.336 15.352 20.696C15.864 20.056 16.48 19.6 17.2 19.328C17.92 19.04 18.744 18.896 19.672 18.896C20.648 18.896 21.496 19.04 22.216 19.328C22.952 19.6 23.56 20.056 24.04 20.696C24.536 21.336 24.904 22.192 25.144 23.264C25.4 24.336 25.528 25.68 25.528 27.296C25.528 29.296 25.304 30.88 24.856 32.048C24.408 33.2 23.752 34.024 22.888 34.52C22.024 35 20.96 35.24 19.696 35.24ZM19.696 33.248C20.272 33.248 20.776 33.16 21.208 32.984C21.64 32.792 22 32.48 22.288 32.048C22.592 31.6 22.816 30.992 22.96 30.224C23.104 29.44 23.176 28.464 23.176 27.296C23.176 26.016 23.104 24.968 22.96 24.152C22.832 23.32 22.624 22.672 22.336 22.208C22.048 21.728 21.688 21.392 21.256 21.2C20.824 20.992 20.304 20.888 19.696 20.888C19.12 20.888 18.608 20.992 18.16 21.2C17.712 21.392 17.344 21.72 17.056 22.184C16.784 22.648 16.576 23.296 16.432 24.128C16.288 24.96 16.216 26.024 16.216 27.32C16.216 28.488 16.288 29.464 16.432 30.248C16.592 31.016 16.816 31.616 17.104 32.048C17.408 32.48 17.776 32.792 18.208 32.984C18.64 33.16 19.136 33.248 19.696 33.248ZM33.1743 35.216C32.5823 35.216 31.9503 35.176 31.2783 35.096C30.6063 35.016 29.9583 34.928 29.3343 34.832C28.7263 34.72 28.2143 34.608 27.7983 34.496L28.0383 32.72C28.4383 32.784 28.9183 32.864 29.4783 32.96C30.0543 33.04 30.6463 33.112 31.2543 33.176C31.8623 33.224 32.4223 33.248 32.9343 33.248C33.9583 33.248 34.7583 32.968 35.3343 32.408C35.9263 31.832 36.2223 31 36.2223 29.912C36.2223 29.176 36.0943 28.6 35.8383 28.184C35.5983 27.768 35.2463 27.472 34.7823 27.296C34.3183 27.12 33.7823 27.032 33.1743 27.032C32.7103 27.032 32.2543 27.08 31.8063 27.176C31.3583 27.256 30.9423 27.368 30.5583 27.512C30.1743 27.64 29.8623 27.768 29.6223 27.896L28.0863 27.608L28.4943 19.16H37.9263V21.224H30.3663L29.9583 25.856C30.2143 25.744 30.5343 25.624 30.9183 25.496C31.3023 25.352 31.7183 25.232 32.1663 25.136C32.6143 25.04 33.0463 24.992 33.4622 24.992C34.5183 24.992 35.4223 25.144 36.1743 25.448C36.9423 25.752 37.5343 26.248 37.9503 26.936C38.3663 27.624 38.5743 28.544 38.5743 29.696C38.5743 30.928 38.3583 31.952 37.9263 32.768C37.4943 33.584 36.8703 34.2 36.0543 34.616C35.2543 35.016 34.2943 35.216 33.1743 35.216Z" fill="#003C4F"/>
</svg>
