<svg width="52" height="52" viewBox="0 0 52 52" fill="none" xmlns="http://www.w3.org/2000/svg">
<circle cx="26" cy="26" r="26" fill="#C7FF50"/>
<path d="M19.696 35.24C18.752 35.24 17.92 35.112 17.2 34.856C16.48 34.584 15.872 34.144 15.376 33.536C14.88 32.928 14.496 32.112 14.224 31.088C13.968 30.064 13.84 28.8 13.84 27.296C13.84 25.696 13.968 24.36 14.224 23.288C14.48 22.2 14.856 21.336 15.352 20.696C15.864 20.056 16.48 19.6 17.2 19.328C17.92 19.04 18.744 18.896 19.672 18.896C20.648 18.896 21.496 19.04 22.216 19.328C22.952 19.6 23.56 20.056 24.04 20.696C24.536 21.336 24.904 22.192 25.144 23.264C25.4 24.336 25.528 25.68 25.528 27.296C25.528 29.296 25.304 30.88 24.856 32.048C24.408 33.2 23.752 34.024 22.888 34.52C22.024 35 20.96 35.24 19.696 35.24ZM19.696 33.248C20.272 33.248 20.776 33.16 21.208 32.984C21.64 32.792 22 32.48 22.288 32.048C22.592 31.6 22.816 30.992 22.96 30.224C23.104 29.44 23.176 28.464 23.176 27.296C23.176 26.016 23.104 24.968 22.96 24.152C22.832 23.32 22.624 22.672 22.336 22.208C22.048 21.728 21.688 21.392 21.256 21.2C20.824 20.992 20.304 20.888 19.696 20.888C19.12 20.888 18.608 20.992 18.16 21.2C17.712 21.392 17.344 21.72 17.056 22.184C16.784 22.648 16.576 23.296 16.432 24.128C16.288 24.96 16.216 26.024 16.216 27.32C16.216 28.488 16.288 29.464 16.432 30.248C16.592 31.016 16.816 31.616 17.104 32.048C17.408 32.48 17.776 32.792 18.208 32.984C18.64 33.16 19.136 33.248 19.696 33.248ZM33.2703 35.24C31.2543 35.24 29.7903 34.52 28.8783 33.08C27.9663 31.624 27.5103 29.608 27.5103 27.032C27.5103 25.576 27.6543 24.336 27.9423 23.312C28.2303 22.272 28.6463 21.432 29.1903 20.792C29.7503 20.136 30.4143 19.664 31.1823 19.376C31.9663 19.072 32.8303 18.92 33.7743 18.92C34.2703 18.92 34.7903 18.944 35.3343 18.992C35.8943 19.04 36.4303 19.104 36.9423 19.184C37.4543 19.248 37.8863 19.312 38.2383 19.376L38.0223 21.176C37.7183 21.144 37.3263 21.112 36.8463 21.08C36.3663 21.032 35.8623 20.992 35.3343 20.96C34.8063 20.928 34.2943 20.912 33.7983 20.912C32.5183 20.912 31.5423 21.344 30.8703 22.208C30.1983 23.056 29.8463 24.28 29.8143 25.88C29.9743 25.848 30.1823 25.784 30.4383 25.688C30.7103 25.592 31.0223 25.496 31.3743 25.4C31.7423 25.288 32.1103 25.2 32.4783 25.136C32.8463 25.056 33.2063 25.016 33.5583 25.016C35.3023 25.016 36.6223 25.424 37.5183 26.24C38.4143 27.04 38.8623 28.296 38.8623 30.008C38.8623 31.128 38.6383 32.088 38.1903 32.888C37.7583 33.672 37.1263 34.264 36.2943 34.664C35.4623 35.048 34.4543 35.24 33.2703 35.24ZM33.2703 33.272C34.3423 33.272 35.1583 32.992 35.7183 32.432C36.2943 31.856 36.5823 31.04 36.5823 29.984C36.5823 28.976 36.2943 28.224 35.7183 27.728C35.1583 27.232 34.3743 26.984 33.3663 26.984C32.9503 26.984 32.5183 27.032 32.0703 27.128C31.6223 27.224 31.1983 27.336 30.7983 27.464C30.3983 27.576 30.0623 27.696 29.7903 27.824C29.8063 28.848 29.9263 29.776 30.1503 30.608C30.3743 31.44 30.7343 32.096 31.2303 32.576C31.7423 33.04 32.4223 33.272 33.2703 33.272Z" fill="#003C4F"/>
</svg>
