<svg width="36" height="36" viewBox="0 0 36 36" fill="none" xmlns="http://www.w3.org/2000/svg">
<path d="M16.8 27.9C14.3 27.6 12.2 26.5 10.5 24.6C8.8 22.8 8 20.6 8 18C8 15.2 9 12.8 10.9 10.9C12.8 9 15.2 8 18 8C20.6 8 22.8 8.8 24.6 10.5C26.5 12.2 27.5 14.3 27.9 16.8L26.2 16.3C25.8 14.3 24.8 12.7 23.3 11.5C21.8 10.2 20 9.6 17.9 9.6C15.6 9.6 13.6 10.4 11.9 12.1C10.2 13.8 9.4 15.7 9.4 18.1C9.4 20.2 10 22 11.3 23.5C12.6 25 14.2 26 16.1 26.4L16.8 27.9ZM19.2 36C19 36 18.8 36 18.6 36H18C15.5 36 13.2 35.5 11 34.6C8.8 33.7 6.9 32.4 5.3 30.7C3.7 29.1 2.4 27.2 1.5 25C0.6 22.8 0 20.5 0 18C0 15.5 0.5 13.2 1.4 11C2.3 8.8 3.6 6.9 5.2 5.3C6.9 3.7 8.8 2.4 11 1.4C13.2 0.4 15.5 0 18 0C20.5 0 22.8 0.5 25 1.4C27.2 2.3 29.1 3.6 30.7 5.2C32.3 6.8 33.6 8.7 34.6 10.9C35.6 13.1 36 15.4 36 17.9V18.5C36 18.7 36 18.9 36 19.1L34.5 18.6V18C34.5 13.4 32.9 9.6 29.7 6.4C26.5 3.1 22.6 1.6 18 1.6C13.4 1.6 9.6 3.1 6.4 6.4C3.2 9.7 1.6 13.4 1.6 18C1.6 22.6 3.2 26.5 6.4 29.7C9.6 32.9 13.5 34.5 18 34.5H18.8L19.2 36Z" fill="#26B5B5"/>
<path d="M34.0909 36L25.3636 26.7273L23.7273 32.0398L20 19L32.2727 22.9602L27.2727 24.6989L36 33.9716L34.0909 36Z" fill="#26B5B5"/>
</svg>
