<svg width="1110" height="87" viewBox="0 0 1110 87" fill="none" xmlns="http://www.w3.org/2000/svg">
<path d="M1 66.356C26 41.524 123.803 -44.0931 234 31.5324C344.197 107.158 425.945 82.285 481 59.801C615 5.07625 647 22.5043 749 66.356C851 110.208 870.81 72.666 938 31.5347C995 -3.35867 1063 6.35564 1109 50.9721" stroke="#26B5B5" stroke-width="1.5"/>
<mask id="mask0_4310_20436" style="mask-type:alpha" maskUnits="userSpaceOnUse" x="0" y="0" width="1110" height="87">
<path d="M1 66.356C26 41.524 123.803 -44.0931 234 31.5324C344.197 107.158 425.945 82.285 481 59.801C615 5.07625 647 22.5043 749 66.356C851 110.208 870.81 72.666 938 31.5347C995 -3.35867 1063 6.35564 1109 50.9721" stroke="#26B5B5" stroke-width="1.5"/>
</mask>
<g mask="url(#mask0_4310_20436)">
<rect y="-21" width="184" height="132" fill="#26B5B5"/>
<rect x="184" y="-21" width="203" height="132" fill="#C7FF50"/>
<rect x="387" y="4" width="293" height="132" fill="#26B5B5"/>
<rect x="679" y="-21.3828" width="284" height="132" fill="#C7FF50"/>
</g>
</svg>
