<svg width="461" height="461" viewBox="0 0 461 461" fill="none" xmlns="http://www.w3.org/2000/svg">
<g clip-path="url(#clip0_4139_648)">
<path d="M230.5 461C357.802 461 461 357.802 461 230.5C461 103.198 357.802 0 230.5 0C103.198 0 0 103.198 0 230.5C0 357.802 103.198 461 230.5 461Z" fill="#00516A"/>
<path d="M453.113 353.024H446.726C446.17 349.914 445.337 346.915 444.337 343.971L449.836 340.805L439.116 322.143L433.618 325.309C431.618 322.921 429.396 320.754 427.008 318.699L430.174 313.201L411.512 302.425L408.346 307.924C405.458 306.869 402.403 306.091 399.293 305.536V299.148H377.742V305.536C374.632 306.091 371.632 306.924 368.689 307.924L365.523 302.425L346.861 313.201L350.027 318.699C347.638 320.699 345.472 322.921 343.417 325.309L337.918 322.143L327.143 340.805L332.642 343.971C331.587 346.859 330.809 349.914 330.254 353.024H323.866V374.575H330.254C330.809 377.685 331.642 380.684 332.642 383.628L327.143 386.794L337.918 405.456L343.417 402.29C345.417 404.679 347.638 406.845 350.027 408.9L346.861 414.398L365.523 425.174L368.689 419.675C371.577 420.73 374.632 421.508 377.742 422.063V428.451H399.293V422.063C402.403 421.508 405.402 420.675 408.346 419.675L411.512 425.174L430.174 414.398L427.008 408.9C429.396 406.9 431.562 404.679 433.618 402.29L439.116 405.456L449.891 386.794L444.393 383.628C445.448 380.74 446.226 377.685 446.781 374.575H453.168V353.024H453.113ZM424.175 364.966C423.564 383.628 408.346 398.847 389.684 399.458C369.078 400.124 352.193 383.239 352.859 362.633C353.47 343.971 368.689 328.752 387.351 328.141C408.013 327.475 424.842 344.304 424.175 364.966Z" fill="#005A76"/>
<path d="M388.517 411.455C362.246 411.455 340.862 390.071 340.862 363.8C340.862 352.302 345.028 341.25 352.526 332.585C359.969 324.032 370.244 318.366 381.408 316.7C381.686 316.644 382.019 316.867 382.019 317.144C382.075 317.422 381.852 317.755 381.575 317.755C359.025 321.143 341.973 340.916 341.973 363.8C341.973 389.46 362.857 410.344 388.517 410.344C409.735 410.344 428.23 396.014 433.562 375.519C433.618 375.241 433.951 375.019 434.229 375.13C434.506 375.186 434.729 375.519 434.617 375.797C429.23 396.792 410.234 411.455 388.517 411.455Z" fill="#006584"/>
<path d="M244.563 192.938H48.0286C47.7662 192.938 47.5913 192.763 47.5913 192.5V52.9061C47.5913 52.6437 47.7662 52.4688 48.0286 52.4688H244.563C244.825 52.4688 245 52.6437 245 52.9061V192.5C245 192.719 244.825 192.938 244.563 192.938ZM48.466 192.063H244.125V53.3434H48.466V192.063Z" fill="#006584"/>
<path d="M48.5099 52.9023H244.082C244.344 52.9023 244.563 53.121 244.563 53.3834V65.2787H48.0288V53.3834C48.0288 53.121 48.2475 52.9023 48.5099 52.9023Z" fill="#006584"/>
<path opacity="0.1" d="M233.542 59.1583C233.542 60.7326 234.81 61.9571 236.341 61.9571C237.872 61.9571 239.14 60.6889 239.14 59.1583C239.14 57.5839 237.872 56.3594 236.341 56.3594C234.81 56.3594 233.542 57.6276 233.542 59.1583Z" fill="white"/>
<path d="M151.106 99.2188H62.6792V103.067H151.106V99.2188Z" fill="#006584"/>
<path d="M221.297 99.2188H162.083V103.067H221.297V99.2188Z" fill="#006584"/>
<path d="M110.173 111.594H62.6792V115.442H110.173V111.594Z" fill="#006584"/>
<path d="M215.437 111.594H121.149V115.442H215.437V111.594Z" fill="#006584"/>
<path d="M110.173 148.727H62.6792V152.575H110.173V148.727Z" fill="#006584"/>
<path d="M215.437 148.727H121.149V152.575H215.437V148.727Z" fill="#006584"/>
<path d="M191.996 123.973H91.8926V127.821H191.996V123.973Z" fill="#006584"/>
<path d="M145.246 136.348H91.8926V140.196H145.246V136.348Z" fill="#006584"/>
<path d="M71.2067 90.6032C71.0755 90.6032 70.9881 90.5594 70.9006 90.472L62.5477 82.1628C62.3728 81.9878 62.3728 81.7255 62.5477 81.5505L70.9006 73.1976C71.0755 73.0227 71.3379 73.0227 71.5129 73.1976C71.6878 73.3725 71.6878 73.6349 71.5129 73.8099L63.5098 81.8129L71.5566 89.8597C71.7315 90.0346 71.7315 90.297 71.5566 90.472C71.4254 90.5594 71.3379 90.6032 71.2067 90.6032Z" fill="#007498"/>
<path d="M84.8948 90.6039C84.7636 90.6039 84.6762 90.5602 84.5887 90.4727C84.4138 90.2978 84.4138 90.0354 84.5887 89.8605L92.6355 81.8137L84.5887 73.7669C84.4138 73.592 84.4138 73.3296 84.5887 73.1546C84.7636 72.9797 85.026 72.9797 85.201 73.1546L93.5539 81.5075C93.7288 81.6825 93.7288 81.9449 93.5539 82.1198L85.201 90.4727C85.1135 90.5602 84.9823 90.6039 84.8948 90.6039Z" fill="#007498"/>
<path d="M74.4867 90.08C74.4429 90.08 74.3555 90.08 74.3117 90.0363C74.0931 89.9488 74.0056 89.6865 74.0931 89.4678L81.2652 73.7678C81.3527 73.5491 81.6151 73.4617 81.8337 73.5491C82.0524 73.6366 82.1399 73.899 82.0524 74.1177L74.8365 89.8176C74.7928 89.9926 74.6616 90.08 74.4867 90.08Z" fill="#007498"/>
<path d="M414.912 304.316H291.65C285.776 304.316 281.027 299.568 281.027 293.694V71.6224C281.027 65.7489 285.776 61 291.65 61H414.912C420.785 61 425.534 65.7489 425.534 71.6224V293.694C425.534 299.568 420.744 304.316 414.912 304.316Z" fill="#006584"/>
<path d="M379.629 69.207V72.8312C379.629 74.7474 378.087 76.2887 376.171 76.2887H330.349C328.433 76.2887 326.891 74.7474 326.891 72.8312V69.207H287.776V293.195H418.703V69.207H379.629Z" fill="#005D7A"/>
<path d="M303.489 183.172L309.325 162.652H296.07V90.9219H408.57V162.652H329.688L303.489 183.172ZM296.615 162.132H310.026L304.423 181.767L329.48 162.132H408.077V91.442H296.615V162.132Z" fill="#087B9E"/>
<path d="M375.047 122.422H332.568C326.522 122.422 321.57 117.551 321.57 111.547C321.57 105.542 326.496 100.672 332.568 100.672H375.073C381.119 100.672 386.07 105.542 386.07 111.547C386.07 117.551 381.119 122.422 375.047 122.422ZM332.568 101.213C326.808 101.213 322.092 105.852 322.092 111.573C322.092 117.294 326.782 121.932 332.568 121.932H375.073C380.832 121.932 385.549 117.294 385.549 111.573C385.549 105.852 380.858 101.213 375.073 101.213H332.568Z" fill="#00789D"/>
<path d="M340.66 151.093C343.069 149.603 343.816 146.443 342.326 144.033C340.837 141.623 337.677 140.877 335.267 142.366C332.857 143.855 332.111 147.016 333.6 149.426C335.089 151.835 338.25 152.582 340.66 151.093Z" fill="#00789D"/>
<path d="M356.943 148.671C358.027 146.054 356.784 143.054 354.167 141.97C351.55 140.886 348.549 142.129 347.465 144.746C346.381 147.363 347.624 150.363 350.241 151.447C352.858 152.531 355.858 151.289 356.943 148.671Z" fill="#00789D"/>
<path d="M371.169 148.687C372.253 146.07 371.01 143.07 368.393 141.986C365.776 140.902 362.776 142.144 361.692 144.761C360.608 147.378 361.851 150.379 364.468 151.463C367.085 152.547 370.085 151.304 371.169 148.687Z" fill="#00789D"/>
<path d="M424.701 269.529H352.218C351.968 269.529 351.802 269.362 351.802 269.112V222.124C351.802 221.874 351.968 221.707 352.218 221.707H424.701C424.951 221.707 425.117 221.874 425.117 222.124V269.112C425.117 269.362 424.909 269.529 424.701 269.529ZM352.635 268.696H424.284V222.54H352.635V268.696Z" fill="#087B9E"/>
<path d="M390.084 232.414H360.924V257.408H390.084V232.414Z" fill="#015772"/>
<path d="M386.585 228.957H357.425V253.951H386.585V228.957Z" fill="#006584"/>
<path d="M419.452 232.79H393.333C393.083 232.79 392.917 232.624 392.917 232.374C392.917 232.124 393.083 231.957 393.333 231.957H419.452C419.702 231.957 419.868 232.124 419.868 232.374C419.868 232.582 419.702 232.79 419.452 232.79Z" fill="#087B9E"/>
<path d="M413.911 238.122H393.333C393.083 238.122 392.917 237.956 392.917 237.706C392.917 237.456 393.083 237.289 393.333 237.289H413.911C414.161 237.289 414.328 237.456 414.328 237.706C414.328 237.956 414.161 238.122 413.911 238.122Z" fill="#087B9E"/>
<path d="M417.41 242.997H393.375C393.125 242.997 392.958 242.831 392.958 242.581C392.958 242.331 393.125 242.164 393.375 242.164H417.41C417.66 242.164 417.827 242.331 417.827 242.581C417.827 242.789 417.619 242.997 417.41 242.997Z" fill="#087B9E"/>
<path d="M409.912 248.079H393.375C393.125 248.079 392.958 247.913 392.958 247.663C392.958 247.413 393.125 247.246 393.375 247.246H409.912C410.162 247.246 410.329 247.413 410.329 247.663C410.329 247.913 410.121 248.079 409.912 248.079Z" fill="#087B9E"/>
<path d="M46.7665 370.133L43.6006 386.462C38.4908 412.845 58.7081 437.339 85.5905 437.339H268.491L281.877 408.457C290.097 390.683 277.155 370.355 257.549 370.299L46.7665 370.133Z" fill="#00303F"/>
<path d="M229.667 332.809L202.729 273.046C196.231 258.716 182.734 248.774 167.071 246.996C130.469 242.886 89.1454 247.107 68.5948 249.829C60.9855 250.829 55.1536 257.049 54.5982 264.659L46.8223 370.522H206.284L202.674 352.138L223.557 347.25C229.389 345.195 232.278 338.53 229.667 332.809Z" fill="#1AE3E3"/>
<path d="M54.5426 387.183L36.3803 386.739C18.9956 386.35 5.83211 370.91 8.16488 353.691C12.4972 322.088 25.6607 250.05 73.5936 249.605L81.9804 272.211L64.7623 335.807L92.2557 338.195L85.1463 364.3C81.425 378.075 68.8169 387.517 54.5426 387.183Z" fill="#1AE3E3"/>
<path d="M201.229 326.309C197.73 314.367 203.951 301.704 215.504 297.149C230.556 291.206 252.773 282.375 264.436 277.987C284.098 270.544 314.147 262.491 315.257 266.712C315.868 269.1 311.98 271.044 301.316 275.599C302.094 275.932 304.205 277.432 304.371 279.764C304.649 283.208 301.983 284.208 301.761 284.43C302.038 284.541 305.038 285.652 305.649 287.929C306.315 290.484 305.149 292.373 303.483 293.65C304.149 293.872 306.815 295.316 307.259 297.538C307.87 300.426 305.426 302.592 303.149 303.425C298.984 304.925 287.486 308.757 281.654 311.59C276.656 313.978 237.054 341.749 218.336 340.972C208.339 340.472 203.507 333.862 201.229 326.309Z" fill="#F7AFBC"/>
<path d="M273.045 299.648C272.879 299.648 272.712 299.593 272.601 299.426C272.379 299.204 272.434 298.815 272.656 298.649C276.1 295.76 277.544 292.372 278.711 289.706C279.932 286.874 280.877 284.596 283.598 284.707C285.265 284.763 287.375 283.985 289.597 282.486C290.152 282.097 290.263 281.486 290.152 281.042C290.041 280.597 289.652 280.097 288.986 279.986L275.434 278.431C275.156 278.376 274.934 278.098 274.934 277.82C274.989 277.542 275.267 277.32 275.545 277.32L289.097 278.876C290.152 278.987 290.985 279.709 291.208 280.764C291.43 281.764 291.041 282.819 290.208 283.374C287.708 285.041 285.487 285.874 283.543 285.818C281.654 285.763 280.932 287.262 279.71 290.151C278.488 292.983 277.044 296.482 273.379 299.537C273.323 299.648 273.212 299.648 273.045 299.648Z" fill="#41193E"/>
<path d="M295.096 303.98C294.873 303.98 294.651 303.813 294.596 303.591C293.485 300.481 294.54 297.093 297.095 295.149L296.095 295.371C293.763 295.871 291.43 294.593 290.541 292.427C290.041 291.205 290.041 289.817 290.597 288.595C291.152 287.373 292.096 286.428 293.374 285.929L294.984 285.318C293.651 284.984 292.541 283.929 292.152 282.541C291.596 280.541 292.596 278.486 294.485 277.708L299.095 275.82C299.372 275.709 299.706 275.82 299.817 276.098C299.928 276.375 299.817 276.709 299.539 276.82L294.929 278.708C293.54 279.264 292.818 280.763 293.207 282.207C293.651 283.707 295.262 284.651 296.762 284.262L300.094 283.374C300.372 283.318 300.65 283.485 300.761 283.762C300.872 284.04 300.705 284.373 300.428 284.429L293.763 286.984C292.818 287.373 292.041 288.095 291.596 289.039C291.208 289.983 291.152 291.038 291.541 291.983C292.263 293.704 294.04 294.649 295.873 294.26L301.094 293.149C301.372 293.094 301.65 293.26 301.761 293.538C301.872 293.816 301.705 294.093 301.483 294.204L298.983 295.315C295.984 296.648 294.54 300.092 295.651 303.202C295.762 303.48 295.595 303.813 295.318 303.924C295.262 303.98 295.151 303.98 295.096 303.98Z" fill="#41193E"/>
<path d="M98.143 248.275C98.143 248.275 125.803 242.054 162.072 250.275L184.178 372.301L78.5366 405.793L81.3693 373.134L98.143 248.275Z" fill="#004459"/>
<path d="M163.905 353.912C159.906 351.413 145.021 338.305 136.467 341.748C127.803 345.192 122.859 354.19 121.249 363.354C121.249 363.41 121.304 363.41 121.304 363.465C121.971 365.965 123.304 369.575 126.469 372.463C130.08 375.74 132.524 374.907 136.856 377.74C144.187 382.572 144.187 389.959 147.187 389.181C149.242 388.682 149.408 384.405 148.575 380.406C147.687 376.351 145.409 374.074 145.909 373.63C146.465 373.13 148.52 375.74 151.297 378.74C152.574 380.128 153.852 386.127 156.74 385.849C159.073 385.627 159.35 379.017 156.573 374.018C154.574 370.464 150.908 369.131 151.297 368.464C151.575 367.964 153.796 368.853 155.463 370.186C158.184 372.352 159.517 378.517 162.239 378.184C164.849 377.906 165.016 372.13 162.739 367.353C160.795 363.354 156.629 362.021 157.073 361.244C157.406 360.688 159.406 360.911 163.294 362.521C166.515 363.91 171.959 368.631 173.903 365.465C175.513 362.799 169.903 357.689 163.905 353.912Z" fill="#F7AFBC"/>
<path d="M50.6544 337.419C42.6564 338.697 35.9358 344.195 33.2142 351.805C30.3815 359.692 30.326 369.8 42.7674 377.41C66.4284 391.906 129.524 365.135 129.524 365.135L141.022 341.307C111.584 334.698 79.2031 332.92 50.6544 337.419Z" fill="#F7AFBC"/>
<path d="M57.5974 337.029C57.3197 337.029 57.042 336.807 57.042 336.529C57.042 336.196 57.2642 335.974 57.5419 335.918L83.0913 334.363C83.4245 334.363 83.6467 334.585 83.7022 334.863C83.7022 335.196 83.4801 335.419 83.2024 335.474L57.5974 337.029Z" fill="#41193E"/>
<path d="M59.9859 331.252C59.9303 331.252 59.9303 331.252 59.8748 331.252C59.5971 331.196 59.3749 330.919 59.4304 330.585L64.1515 305.98C64.2071 305.703 64.4848 305.48 64.818 305.536C65.0957 305.591 65.3179 305.869 65.2624 306.202L60.5413 330.808C60.4302 331.085 60.208 331.252 59.9859 331.252Z" fill="#41193E"/>
<path d="M198.23 321.866C198.008 321.866 197.786 321.699 197.675 321.477L184.567 278.654C184.456 278.376 184.623 278.043 184.956 277.987C185.233 277.876 185.567 278.043 185.622 278.376L198.73 321.199C198.841 321.477 198.675 321.81 198.341 321.866C198.341 321.866 198.286 321.866 198.23 321.866Z" fill="#41193E"/>
<path d="M116.305 252.994L142.688 258.215L158.962 227.333L136.911 214.559L116.305 252.994Z" fill="#FABCC6"/>
<path d="M114.806 252.714C114.139 255.936 121.304 260.102 130.802 262.046C140.3 263.99 148.52 262.934 149.131 259.713C149.797 256.491 142.632 252.326 133.135 250.382C123.692 248.438 115.472 249.493 114.806 252.714Z" fill="#004459"/>
<path d="M170.014 231.11C166.626 236.609 149.019 233.11 149.019 233.11L134.245 220.113C130.69 211.782 134.578 202.173 142.91 198.618C151.241 195.064 160.85 198.951 164.405 207.283C164.46 207.227 173.458 225.501 170.014 231.11Z" fill="#FABCC6"/>
<path d="M164.46 211.949C164.46 211.949 170.57 214.56 170.847 215.837C171.181 217.337 166.793 220.225 166.793 220.225C166.793 220.225 164.571 211.894 164.46 211.949Z" fill="#F7AFBC"/>
<path d="M163.294 225.111C163.127 225.111 162.961 225.111 162.794 225.056C161.739 224.889 160.85 224.056 160.572 223.056C160.461 222.779 160.628 222.445 160.961 222.39C161.239 222.279 161.572 222.445 161.628 222.779C161.794 223.39 162.35 223.889 163.016 224C163.683 224.112 164.349 223.834 164.738 223.278C164.905 223.001 165.238 222.945 165.516 223.112C165.793 223.278 165.849 223.612 165.682 223.889C165.127 224.667 164.183 225.111 163.294 225.111Z" fill="#41193E"/>
<path d="M160.128 235C154.74 235 149.353 233.944 149.019 233.889C148.742 233.833 148.519 233.556 148.575 233.222C148.631 232.945 148.908 232.723 149.241 232.778C149.353 232.778 159.461 234.778 165.626 233.334C165.904 233.278 166.237 233.445 166.293 233.778C166.348 234.056 166.182 234.389 165.849 234.444C164.127 234.833 162.127 235 160.128 235Z" fill="#F0A5B1"/>
<path d="M124.748 197.505C120.638 191.062 109.14 198.227 106.03 190.84C105.475 189.507 105.53 187.896 104.753 186.674C103.753 185.119 101.698 184.675 99.9204 184.786C98.0319 184.841 95.9769 185.452 94.8105 187.007C93.6441 188.507 93.7552 191.062 95.3659 192.062C96.3101 192.617 97.421 192.562 98.4763 192.728C99.5316 192.895 100.698 193.506 100.865 194.561C101.142 196.116 99.1983 197.005 98.3652 198.338C97.0877 200.282 98.9206 203.392 101.253 203.226C102.309 203.115 103.253 202.559 104.253 202.226C105.252 201.893 106.585 202.059 107.085 202.948C107.585 203.892 106.974 205.003 106.141 205.67C105.308 206.336 104.308 206.669 103.531 207.336C101.531 209.113 102.142 212.834 104.475 214.056C106.808 215.278 110.085 213.89 110.973 211.39C111.473 210.057 111.751 208.169 113.195 208.113C114.306 208.113 114.917 209.391 114.917 210.502C114.917 211.613 114.528 212.668 114.75 213.723C115.139 215.556 117.361 216.556 119.194 216.111C125.581 214.667 127.969 202.559 124.748 197.505Z" fill="#003C4F"/>
<path d="M156.462 201.505C159.239 201.227 158.906 198.95 156.684 197.228C132.024 178.01 116.083 200.394 120.693 211.947C123.192 218.278 134.356 227.387 134.356 227.387L145.798 220.222L142.854 213.557C140.633 208.503 143.965 202.727 149.464 202.227L156.462 201.505Z" fill="#003C4F"/>
<path d="M137.356 183.343C136.522 180.788 134.523 178.455 131.912 177.956C129.246 177.456 126.192 179.566 126.358 182.232C126.414 183.121 126.747 183.954 126.692 184.787C126.636 185.676 125.858 186.565 125.025 186.342C123.192 185.843 125.192 182.066 123.415 181.455C122.526 181.122 121.693 182.177 121.637 183.065C121.582 184.01 122.026 184.898 122.137 185.843C122.248 186.787 121.804 187.953 120.86 188.009C119.86 188.12 119.249 186.953 119.193 185.954C119.082 184.01 120.193 182.232 120.86 180.399C121.526 178.567 121.637 176.178 120.082 175.012C118.805 174.068 116.694 174.568 115.972 175.956C115.416 177.011 115.583 178.289 115.583 179.455C115.583 180.622 115.194 182.01 114.083 182.455C112.862 182.899 111.529 181.899 110.862 180.733C110.251 179.566 109.918 178.178 109.029 177.178C107.474 175.456 104.419 175.623 102.919 177.345C101.42 179.122 101.586 181.955 103.142 183.676C104.419 185.121 106.53 185.898 107.196 187.731C107.641 189.064 107.196 190.508 106.974 191.897C106.363 195.562 107.752 199.45 110.473 201.95C116.861 207.726 123.415 203.727 129.191 199.728C132.19 197.673 135.189 195.285 136.8 192.008C138.078 189.342 138.244 186.176 137.356 183.343Z" fill="#003C4F"/>
<path d="M138.13 227.799C141.703 227.219 144.129 223.853 143.549 220.28C142.969 216.707 139.603 214.28 136.03 214.86C132.457 215.44 130.031 218.807 130.61 222.38C131.19 225.953 134.557 228.379 138.13 227.799Z" fill="#F7AFBC"/>
<path d="M164.349 214.558C164.794 215.669 164.516 216.835 163.738 217.113C162.961 217.446 161.961 216.78 161.517 215.669C161.072 214.558 161.35 213.392 162.128 213.114C162.905 212.781 163.905 213.392 164.349 214.558Z" fill="#41193E"/>
<path d="M157.962 210.502C157.851 210.502 157.795 210.502 157.684 210.447C157.407 210.336 157.295 209.947 157.462 209.725C157.74 209.225 158.073 208.725 158.462 208.336C160.017 206.781 161.739 207.003 162.128 207.003C162.405 207.059 162.628 207.336 162.572 207.614C162.516 207.892 162.239 208.114 161.961 208.058C161.739 208.003 160.406 207.892 159.295 209.058C158.962 209.391 158.74 209.725 158.517 210.169C158.351 210.391 158.184 210.502 157.962 210.502Z" fill="#41193E"/>
<path d="M231.889 367.191H164.683V369.802L234.11 371.912L231.889 367.191Z" fill="white"/>
<path d="M275.933 374.799H206.228L234.555 314.258H304.26L275.933 374.799Z" fill="#C7FF50"/>
<path d="M164.683 368.746C164.683 372.134 167.404 374.856 170.792 374.856H229.112L231.944 368.746H164.683Z" fill="#C7FF50"/>
</g>
<defs>
<clipPath id="clip0_4139_648">
<rect width="461" height="461" fill="white"/>
</clipPath>
</defs>
</svg>
