<svg width="33" height="33" viewBox="0 0 33 33" fill="none" xmlns="http://www.w3.org/2000/svg">
<path d="M19.9347 25.5315L25.3467 30.9435C26.85 32.4468 29.4558 32.4468 30.9591 30.9435C32.5627 29.4402 32.5627 26.8344 30.9591 25.3311L25.5471 19.9191C26.5494 18.0149 27.1507 15.81 27.1507 13.5049C27.1507 13.104 27.1507 12.7031 27.0505 12.4025L30.7587 8.69425C31.1596 8.29336 31.1596 7.69203 30.7587 7.29114C30.3578 6.89025 29.7565 6.89025 29.3556 7.29114L26.6496 9.99713C26.0483 7.69203 24.8456 5.68759 23.1418 3.98382C17.8301 -1.32794 9.3112 -1.32794 3.99944 3.98382C-1.31231 9.29558 -1.31231 17.8144 3.99944 23.1262C8.40921 27.536 14.9236 28.2375 19.9347 25.5315ZM29.4558 26.7342C30.2576 27.536 30.2576 28.7386 29.4558 29.5404C28.654 30.3422 27.4514 30.3422 26.6496 29.5404L21.5383 24.4291C22.0394 24.0282 22.5405 23.6273 23.0416 23.1262C23.5427 22.6251 23.9436 22.124 24.3445 21.6229L29.4558 26.7342ZM5.40255 5.38693C9.91254 0.876942 17.2287 0.876942 21.7387 5.38693C23.4425 7.0907 24.5449 9.29558 24.9458 11.7009L22.9414 13.7053L19.6341 10.398C19.2332 9.99713 18.6318 9.99713 18.231 10.398L13.0194 15.6096L10.7143 13.3045C10.3134 12.9036 9.71209 12.9036 9.3112 13.3045L5.30233 17.3133C4.90144 17.7142 4.90144 18.3155 5.30233 18.7164C5.70322 19.1173 6.30455 19.1173 6.70544 18.7164L10.0128 15.4091C11.5161 16.6118 12.6185 18.8167 13.721 17.7142L18.9325 12.5027L22.2398 15.81C22.6407 16.2109 23.242 16.2109 23.6429 15.81L25.046 14.4069C24.8456 17.2131 23.6429 19.7187 21.7387 21.7231C17.2287 26.2331 9.91254 26.2331 5.40255 21.7231C0.892567 17.2131 0.892567 9.89691 5.40255 5.38693Z" fill="#003C4F"/>
</svg>
