<svg width="42" height="42" viewBox="0 0 42 42" fill="none" xmlns="http://www.w3.org/2000/svg">
<path d="M13.5 21C13.5 14.2969 17.921 8.60797 24 6.69177V4.5C24 3.67154 23.3285 3 22.5 3H16.5C16.5 4.65683 15.1568 6 13.5 6C11.8432 6 10.5 4.65683 10.5 3H4.5C3.67163 3 3 3.67154 3 4.5V37.5C3 38.3285 3.67163 39 4.5 39H22.5C23.3285 39 24 38.3285 24 37.5V35.3081C17.921 33.3919 13.5 27.7031 13.5 21Z" fill="#26B5B5"/>
<path d="M25.5 35.6976V37.5C25.5 39.1545 24.1545 40.5 22.5 40.5H4.5C2.84546 40.5 1.5 39.1545 1.5 37.5V4.5C1.5 2.84546 2.84546 1.5 4.5 1.5H22.5C24.1545 1.5 25.5 2.84546 25.5 4.5V6.3024C25.9916 6.20215 26.4922 6.12671 27 6.07608V4.5C27 2.01855 24.9814 0 22.5 0H4.5C2.01855 0 0 2.01855 0 4.5V37.5C0 39.9814 2.01855 42 4.5 42H22.5C24.9814 42 27 39.9814 27 37.5V35.9239C26.4922 35.8733 25.9916 35.7979 25.5 35.6976Z" fill="#26B5B5"/>
<path d="M27.75 20.7299L19.5 16.9219V25.7687L27.75 29.5768V20.7299Z" fill="#26B5B5"/>
<path d="M28.4994 19.4224L36.459 15.7485L28.499 12.0742L20.5391 15.7484L28.4994 19.4224Z" fill="#26B5B5"/>
<path d="M28.5 7.5C21.0441 7.5 15 13.5441 15 21C15 28.4558 21.0441 34.5 28.5 34.5C35.9559 34.5 42 28.4558 42 21C42 13.5441 35.9559 7.5 28.5 7.5ZM38.5649 26.9308L28.8149 31.4308C28.7139 31.4762 28.6069 31.4996 28.5 31.4996C28.3931 31.4996 28.2861 31.4762 28.1851 31.4308L18.4358 26.9308C18.1699 26.8077 18 26.5426 18 26.2496V15.7496C18 15.4567 18.1699 15.1915 18.4358 15.0685L28.1851 10.5685C28.3872 10.4777 28.6128 10.4777 28.8149 10.5685L38.5649 15.0685C38.8301 15.1915 39 15.4567 39 15.7496V26.2496C39 26.5426 38.8301 26.8077 38.5649 26.9308Z" fill="#26B5B5"/>
<path d="M29.25 20.7296V29.5762L37.5 25.7681V16.9219L29.25 20.7296Z" fill="#26B5B5"/>
</svg>
