<svg width="32" height="32" viewBox="0 0 32 32" fill="none" xmlns="http://www.w3.org/2000/svg">
<g clip-path="url(#clip0_4246_18130)">
<path d="M0 0H32V32H0V0Z" fill="#017ACB"/>
<path d="M15.3666 11.8512H16.9016V14.5012H12.7516V26.2912L12.6416 26.3212C12.4916 26.3612 10.5166 26.3612 10.0916 26.3162L9.75156 26.2862V14.5012H5.60156V11.8512L6.91656 11.8362C7.63656 11.8262 9.48656 11.8262 11.0266 11.8362C12.5666 11.8462 14.5166 11.8512 15.3666 11.8512ZM27.0816 25.0412C26.4716 25.6862 25.8166 26.0462 24.7266 26.3412C24.2516 26.4712 24.1716 26.4762 23.1016 26.4712C22.0316 26.4663 21.9466 26.4662 21.4266 26.3312C20.0816 25.9862 18.9966 25.3112 18.2566 24.3562C18.0466 24.0862 17.7016 23.5262 17.7016 23.4562C17.7016 23.4362 17.7516 23.3912 17.8166 23.3612C17.8816 23.3312 18.0166 23.2462 18.1266 23.1812C18.2366 23.1162 18.4366 22.9962 18.5716 22.9262C18.7066 22.8562 19.0966 22.6262 19.4366 22.4212C19.7766 22.2162 20.0866 22.0512 20.1216 22.0512C20.1566 22.0512 20.2216 22.1212 20.2716 22.2062C20.5716 22.7112 21.2716 23.3562 21.7666 23.5762C22.0716 23.7062 22.7466 23.8512 23.0716 23.8512C23.3716 23.8512 23.9216 23.7212 24.2166 23.5862C24.5316 23.4412 24.6916 23.2962 24.8816 23.0062C25.0116 22.8012 25.0266 22.7462 25.0216 22.3562C25.0216 21.9962 25.0016 21.8962 24.9016 21.7312C24.6216 21.2712 24.2416 21.0312 22.7016 20.3512C21.1116 19.6462 20.3966 19.2262 19.8166 18.6613C19.3866 18.2413 19.3016 18.1262 19.0316 17.6012C18.6816 16.9262 18.6366 16.7062 18.6316 15.7012C18.6266 14.9962 18.6416 14.7662 18.7166 14.5262C18.8216 14.1662 19.1616 13.4712 19.3166 13.2962C19.6366 12.9212 19.7516 12.8062 19.9766 12.6212C20.6566 12.0612 21.7166 11.6912 22.7316 11.6562C22.8466 11.6562 23.2266 11.6762 23.5816 11.7012C24.6016 11.7862 25.2966 12.0362 25.9666 12.5712C26.4716 12.9712 27.2366 13.9113 27.1616 14.0363C27.1116 14.1113 25.1166 15.4412 24.9866 15.4812C24.9066 15.5062 24.8516 15.4762 24.7416 15.3462C24.0616 14.5312 23.7866 14.3562 23.1266 14.3162C22.6566 14.2862 22.4066 14.3412 22.0916 14.5512C21.7616 14.7712 21.6016 15.1062 21.6016 15.5712C21.6066 16.2512 21.8666 16.5712 22.8266 17.0462C23.4466 17.3512 23.9766 17.6012 24.0166 17.6012C24.0766 17.6012 25.3616 18.2412 25.6966 18.4412C27.2566 19.3562 27.8916 20.2962 28.0566 21.9162C28.1766 23.1362 27.8316 24.2512 27.0816 25.0412Z" fill="white"/>
</g>
<defs>
<clipPath id="clip0_4246_18130">
<rect width="32" height="32" fill="white"/>
</clipPath>
</defs>
</svg>
