<svg width="48" height="38" viewBox="0 0 48 38" fill="none" xmlns="http://www.w3.org/2000/svg">
<path d="M2.8125 37.2812H29.0947C28.6103 36.4506 28.3125 35.4978 28.3125 34.4688V31.6562H1.40625C0.629625 31.6562 0 32.2857 0 33.0625V34.4688C0 36.0219 1.25916 37.2812 2.8125 37.2812Z" fill="#26B5B5"/>
<path d="M2.8125 4.9375V28.8438H28.3125V11.9688C28.3125 8.86647 30.8352 6.34375 33.9375 6.34375H45.1875V4.9375C45.1875 2.61119 43.2951 0.71875 40.9688 0.71875H7.03125C4.70494 0.71875 2.8125 2.61119 2.8125 4.9375Z" fill="#26B5B5"/>
<path d="M45.1875 9.15625H33.9375C32.3871 9.15625 31.125 10.4183 31.125 11.9688V34.4688C31.125 36.0192 32.3871 37.2812 33.9375 37.2812H45.1875C46.7379 37.2812 48 36.0192 48 34.4688V11.9688C48 10.4183 46.7379 9.15625 45.1875 9.15625ZM39.5625 13.375C40.3391 13.375 40.9688 14.0044 40.9688 14.7812C40.9688 15.5579 40.3391 16.1875 39.5625 16.1875C38.7859 16.1875 38.1562 15.5579 38.1562 14.7812C38.1562 14.0044 38.7859 13.375 39.5625 13.375ZM40.9688 33.0625H38.1562C37.379 33.0625 36.75 32.4335 36.75 31.6562C36.75 30.879 37.379 30.25 38.1562 30.25H40.9688C41.746 30.25 42.375 30.879 42.375 31.6562C42.375 32.4335 41.746 33.0625 40.9688 33.0625Z" fill="#26B5B5"/>
</svg>
