<svg width="42" height="40" viewBox="0 0 42 40" fill="none" xmlns="http://www.w3.org/2000/svg">
<path d="M31.5208 21.3577C34.2984 21.3538 36.9611 20.2486 38.9252 18.2846C40.8892 16.3205 41.9944 13.6578 41.9983 10.8802C41.4195 -3.01565 21.6246 -3.01909 21.0508 10.8803C21.053 13.6571 22.1566 16.3196 24.1194 18.2838C26.0822 20.248 28.744 21.3535 31.5208 21.3577ZM24.6433 10.3327L27.2083 7.9027C27.3543 7.77018 27.5465 7.70019 27.7435 7.70775C27.9406 7.71531 28.1268 7.79982 28.2623 7.94314C28.3977 8.08646 28.4716 8.27717 28.468 8.47434C28.4645 8.67151 28.3837 8.85942 28.2432 8.99775L26.2483 10.8802L28.2433 12.7627C28.3152 12.8307 28.373 12.9121 28.4134 13.0024C28.4538 13.0927 28.4761 13.1901 28.4788 13.289C28.4816 13.3879 28.4649 13.4864 28.4296 13.5788C28.3944 13.6712 28.3412 13.7558 28.2733 13.8277C28.2053 13.8996 28.1239 13.9574 28.0336 13.9978C27.9433 14.0382 27.8459 14.0605 27.747 14.0633C27.6481 14.0661 27.5496 14.0493 27.4572 14.0141C27.3648 13.9788 27.2802 13.9257 27.2083 13.8577L24.6433 11.4277C24.5702 11.3565 24.5121 11.2713 24.4724 11.1773C24.4328 11.0833 24.4123 10.9823 24.4123 10.8802C24.4123 10.7781 24.4328 10.6771 24.4724 10.5831C24.5121 10.4891 24.5702 10.4039 24.6433 10.3327ZM38.6383 10.8802C38.6383 10.9824 38.6177 11.0836 38.5778 11.1776C38.5378 11.2717 38.4793 11.3567 38.4058 11.4277L35.8408 13.8577C35.6948 13.9905 35.5025 14.0607 35.3053 14.0532C35.1081 14.0458 34.9217 13.9613 34.7862 13.8178C34.6506 13.6744 34.5767 13.4836 34.5804 13.2862C34.5841 13.0889 34.665 12.9009 34.8058 12.7626L36.8008 10.8802L34.8058 8.9977C34.6654 8.85933 34.5848 8.67146 34.5813 8.47437C34.5778 8.27728 34.6517 8.08668 34.7871 7.94342C34.9225 7.80017 35.1087 7.71568 35.3056 7.70807C35.5026 7.70045 35.6947 7.77033 35.8408 7.9027L38.4058 10.3327C38.4799 10.4032 38.5388 10.4882 38.5788 10.5824C38.6188 10.6765 38.639 10.7779 38.6383 10.8802ZM33.0433 6.0052C33.2318 6.06556 33.3888 6.19797 33.4801 6.37356C33.5714 6.54916 33.5896 6.75373 33.5308 6.9427L30.9433 15.2602C30.9137 15.3543 30.8659 15.4416 30.8027 15.5172C30.7394 15.5928 30.6618 15.6552 30.5744 15.7008C30.487 15.7464 30.3915 15.7743 30.2933 15.783C30.195 15.7917 30.0961 15.781 30.002 15.7515C29.908 15.7219 29.8207 15.6741 29.7451 15.6108C29.6695 15.5475 29.6071 15.47 29.5615 15.3826C29.5158 15.2952 29.4879 15.1996 29.4792 15.1014C29.4705 15.0032 29.4812 14.9043 29.5108 14.8102L32.1058 6.5002C32.134 6.40558 32.1807 6.31754 32.2434 6.24122C32.306 6.16491 32.3832 6.10185 32.4705 6.05576C32.5579 6.00966 32.6535 5.98145 32.7518 5.97277C32.8502 5.96408 32.9493 5.97511 33.0433 6.0052Z" fill="#26B5B5"/>
<path d="M20.52 15.5905C19.4877 13.1671 19.277 10.4724 19.92 7.91797H3.615C2.6564 7.91848 1.7372 8.2995 1.05937 8.97734C0.381534 9.65517 0.000506742 10.5744 0 11.533V15.5905H20.52ZM16.5975 12.508H4.1625C3.96359 12.508 3.77282 12.429 3.63217 12.2883C3.49152 12.1476 3.4125 11.9569 3.4125 11.758C3.4125 11.5591 3.49152 11.3683 3.63217 11.2276C3.77282 11.087 3.96359 11.008 4.1625 11.008H16.5975C16.794 11.0116 16.9813 11.0922 17.119 11.2325C17.2567 11.3727 17.3338 11.5614 17.3338 11.758C17.3338 11.9545 17.2567 12.1432 17.119 12.2835C16.9813 12.4237 16.794 12.5043 16.5975 12.508Z" fill="#26B5B5"/>
<path d="M31.5225 22.8573C29.4654 22.8566 27.4432 22.3254 25.6512 21.3151C23.8592 20.3048 22.358 18.8495 21.2925 17.0898H0V35.9823C0.000512698 36.9409 0.381542 37.8601 1.05938 38.538C1.73721 39.2158 2.6564 39.5968 3.615 39.5973H36.5325C37.4911 39.5968 38.4103 39.2158 39.0881 38.538C39.7659 37.8601 40.147 36.9409 40.1475 35.9823V19.1748C39.0354 20.3424 37.6971 21.2711 36.2142 21.9042C34.7313 22.5374 33.1349 22.8617 31.5225 22.8573Z" fill="#26B5B5"/>
</svg>
