<svg width="48" height="48" viewBox="0 0 48 48" fill="none" xmlns="http://www.w3.org/2000/svg">
<g clip-path="url(#clip0_4243_16202)">
<path d="M47.1289 34.0879L46.2263 33.6367L25.8866 43.8065C24.7192 44.3979 23.2808 44.3979 22.1134 43.8065L1.77366 33.6367L0.871125 34.0879C0.394688 34.3261 0.09375 34.813 0.09375 35.3457C0.09375 35.8784 0.394688 36.3653 0.871125 36.6034L23.3711 47.8534C23.7669 48.0514 24.2331 48.0514 24.6289 47.8534L47.1289 36.6034C47.6053 36.3653 47.9062 35.8784 47.9062 35.3457C47.9062 34.813 47.6053 34.3261 47.1289 34.0879Z" fill="#26B5B5"/>
<path d="M47.1289 27.5254L46.2263 27.0742L25.8866 37.244C24.7192 37.8354 23.2808 37.8354 22.1134 37.244L1.77366 27.0742L0.871125 27.5254C0.394688 27.7636 0.09375 28.2505 0.09375 28.7832C0.09375 29.3159 0.394688 29.8028 0.871125 30.0409L23.3711 41.2909C23.7669 41.4889 24.2331 41.4889 24.6289 41.2909L47.1289 30.0409C47.6053 29.8028 47.9062 29.3159 47.9062 28.7832C47.9062 28.2505 47.6053 27.7636 47.1289 27.5254Z" fill="#26B5B5"/>
<path d="M11.6339 16.5487L14.4464 21.4201C14.8348 22.0927 15.6948 22.3232 16.3675 21.9348L17.5255 21.2662C18.2277 21.7986 18.9819 22.2373 19.782 22.5787V23.9062C19.782 24.6829 20.4117 25.3125 21.1883 25.3125H26.8133C27.5899 25.3125 28.2195 24.6829 28.2195 23.9062V22.5787C29.0197 22.2373 29.7739 21.7986 30.4761 21.2662L31.6341 21.9348C32.3067 22.3231 33.1667 22.0927 33.555 21.4201L36.3675 16.5487C36.7558 15.8761 36.5254 15.016 35.8529 14.6277L34.6997 13.9619C34.7545 13.524 34.782 13.0875 34.782 12.6562C34.782 12.225 34.7545 11.7885 34.6998 11.3506L35.8529 10.6848C36.5255 10.2965 36.7559 9.43641 36.3676 8.76384L33.5551 3.89241C33.1668 3.21984 32.3068 2.98931 31.6342 3.37772L30.4761 4.04625C29.7741 3.51394 29.0197 3.07509 28.2195 2.73375V1.40625C28.2195 0.629625 27.5899 0 26.8133 0H21.1883C20.4117 0 19.782 0.629625 19.782 1.40625V2.73375C18.9819 3.07509 18.2275 3.51394 17.5255 4.04625L16.3675 3.37762C15.6949 2.98931 14.8349 3.21975 14.4465 3.89231L11.634 8.76375C11.2457 9.43631 11.4762 10.2964 12.1487 10.6847L13.3019 11.3505C13.2471 11.7885 13.2195 12.225 13.2195 12.6562C13.2195 13.0875 13.2471 13.524 13.3018 13.9619L12.1486 14.6277C11.4761 15.016 11.2456 15.8761 11.6339 16.5487ZM24.0008 8.4375C26.327 8.4375 28.2195 10.33 28.2195 12.6562C28.2195 14.9825 26.327 16.875 24.0008 16.875C21.6746 16.875 19.782 14.9825 19.782 12.6562C19.782 10.33 21.6746 8.4375 24.0008 8.4375Z" fill="#26B5B5"/>
<path d="M0.871125 23.4768L23.3711 34.7268C23.7669 34.9248 24.2331 34.9248 24.6289 34.7268L47.1289 23.4768C47.6053 23.2387 47.9062 22.7517 47.9062 22.2191C47.9062 21.6864 47.6053 21.1994 47.1289 20.9613L39.2063 17C39.1133 17.3269 38.98 17.6477 38.8027 17.955L35.9901 22.8266C35.2389 24.1277 33.8384 24.9362 32.3352 24.9362C32.3351 24.9362 32.3352 24.9362 32.3351 24.9362C31.8647 24.9362 31.3982 24.8568 30.9558 24.7036C30.582 26.6501 28.8663 28.1253 26.8125 28.1253H21.1875C19.1337 28.1253 17.418 26.6501 17.0443 24.7036C16.6019 24.8569 16.1354 24.9362 15.6649 24.9362C14.1616 24.9362 12.7611 24.1278 12.0098 22.8264L9.19744 17.9553C9.02156 17.6508 8.88609 17.3306 8.79169 17.0011L0.871125 20.9613C0.394688 21.1994 0.09375 21.6864 0.09375 22.2191C0.09375 22.7517 0.394688 23.2387 0.871125 23.4768Z" fill="#26B5B5"/>
</g>
<defs>
<clipPath id="clip0_4243_16202">
<rect width="48" height="48" fill="white"/>
</clipPath>
</defs>
</svg>
