<svg width="36" height="36" viewBox="0 0 36 36" fill="none" xmlns="http://www.w3.org/2000/svg">
<path d="M11.2125 31.5C8.9375 31.5 7 30.7 5.4 29.1C3.8 27.5 3 25.5625 3 23.2875C3 21.1375 3.71875 19.2812 5.15625 17.7188C6.59375 16.1562 8.3875 15.2875 10.5375 15.1125L4.5 3H15L18 9L21 3H31.5L25.5 15.0375C27.625 15.2375 29.4062 16.1187 30.8438 17.6812C32.2812 19.2437 33 21.1 33 23.25C33 25.55 32.2 27.5 30.6 29.1C29 30.7 27.05 31.5 24.75 31.5C24.525 31.5 24.2938 31.4937 24.0562 31.4812C23.8188 31.4688 23.5875 31.4375 23.3625 31.3875C24.8375 30.6125 25.9375 29.4813 26.6625 27.9937C27.3875 26.5063 27.75 24.925 27.75 23.25C27.75 20.525 26.8062 18.2187 24.9187 16.3312C23.0312 14.4437 20.725 13.5 18 13.5C15.275 13.5 12.9688 14.4437 11.0812 16.3312C9.19375 18.2187 8.25 20.525 8.25 23.25C8.25 24.9 8.625 26.45 9.375 27.9C10.125 29.35 11.2 30.5125 12.6 31.3875C12.375 31.4375 12.1437 31.4688 11.9062 31.4812C11.6687 31.4937 11.4375 31.5 11.2125 31.5Z" fill="#26B5B5"/>
<path d="M18.5088 30.75C16.4279 30.75 14.6562 30.0217 13.1937 28.5651C11.7312 27.1085 11 25.3397 11 23.2588C11 21.1779 11.7283 19.4062 13.1849 17.9437C14.6415 16.4812 16.4103 15.75 18.4912 15.75C20.5721 15.75 22.3438 16.4783 23.8062 17.9349C25.2687 19.3915 26 21.1603 26 23.2412C26 25.3221 25.2717 27.0938 23.8151 28.5562C22.3585 30.0187 20.5897 30.75 18.5088 30.75ZM18.5 27L19.6625 24.4125L22.25 23.25L19.6625 22.0875L18.5 19.5L17.3375 22.0875L14.75 23.25L17.3375 24.4125L18.5 27Z" fill="#26B5B5"/>
</svg>
