<svg width="460" height="460" viewBox="0 0 460 460" fill="none" xmlns="http://www.w3.org/2000/svg">
<path d="M230 458.996C357.025 458.996 460 356.247 460 229.498C460 102.75 357.025 0 230 0C102.975 0 0 102.75 0 229.498C0 356.247 102.975 458.996 230 458.996Z" fill="#04617E"/>
<path d="M396.166 374.338H250.198C245.721 374.338 242.466 370.054 243.597 365.679L269.402 266.046C270.187 263.006 272.911 260.887 276.004 260.887H421.971C426.449 260.887 429.704 265.171 428.573 269.546L402.767 369.179C401.983 372.219 399.282 374.338 396.166 374.338Z" fill="#1A7794"/>
<path d="M391.783 373.535H245.816C241.338 373.535 238.083 369.32 239.214 364.991L265.02 266.809C265.804 263.815 268.528 261.719 271.621 261.719H417.588C422.066 261.719 425.321 265.933 424.19 270.263L398.385 368.445C397.6 371.439 394.876 373.535 391.783 373.535Z" fill="#419CB9"/>
<path d="M391.781 374.293H245.814C243.436 374.293 241.244 373.211 239.789 371.345C238.335 369.48 237.851 367.085 238.451 364.805L264.256 266.623C265.133 263.283 268.157 260.957 271.596 260.957H417.563C419.941 260.957 422.134 262.039 423.588 263.905C425.042 265.771 425.527 268.166 424.926 270.446L399.121 368.651C398.244 371.967 395.22 374.293 391.781 374.293ZM271.619 262.477C268.872 262.477 266.449 264.343 265.756 266.991L239.951 365.196C239.466 367.016 239.859 368.927 241.013 370.424C242.167 371.921 243.921 372.773 245.814 372.773H391.781C394.528 372.773 396.952 370.908 397.644 368.259L423.449 270.077C423.934 268.258 423.542 266.346 422.387 264.849C421.233 263.352 419.479 262.5 417.586 262.5H271.619V262.477Z" fill="#1A7794"/>
<path d="M314.964 419.662H169.873C168.488 419.662 167.634 418.579 167.588 417.451C167.565 416.645 167.473 412.66 167.473 412.66L235.078 382.835C236.763 382.006 238.61 381.568 240.48 381.568L390.371 379.242C390.371 379.242 390.371 382.674 390.394 383.802C390.417 384.608 390.025 385.438 389.125 385.875L325.72 417.151C322.396 418.81 318.703 419.662 314.964 419.662Z" fill="#1A7794"/>
<path d="M314.277 415.148H170.848C168.124 415.148 167.27 411.486 169.717 410.289L234.415 378.321C236.1 377.492 237.946 377.055 239.816 377.055H387.33C389.73 377.055 390.492 380.302 388.345 381.362L325.033 412.638C321.686 414.296 318.016 415.148 314.277 415.148Z" fill="#2588A7"/>
<path d="M314.275 415.91H170.847C169.254 415.91 167.962 414.874 167.592 413.331C167.223 411.788 167.939 410.291 169.37 409.6L234.067 377.633C235.844 376.758 237.829 376.297 239.791 376.297H387.305C388.76 376.297 389.937 377.241 390.26 378.646C390.583 380.051 389.937 381.41 388.644 382.055L325.378 413.331C321.938 415.012 318.107 415.91 314.275 415.91ZM239.814 377.84C238.06 377.84 236.329 378.255 234.76 379.015L170.039 410.959C169.093 411.419 168.931 412.341 169.093 412.986C169.254 413.63 169.785 414.367 170.847 414.367H314.275C317.876 414.367 321.477 413.538 324.685 411.926L387.975 380.673C388.759 380.281 388.898 379.544 388.783 378.969C388.644 378.416 388.206 377.794 387.305 377.794H239.814V377.84Z" fill="#2987A5"/>
<path d="M216.104 392.969L237.085 382.835C238.355 382.236 239.717 381.914 241.125 381.914H371.351C372.482 381.914 372.828 383.457 371.812 383.941L350.854 394.052C349.839 394.535 348.754 394.788 347.623 394.788L216.566 394.973C215.435 394.996 215.066 393.476 216.104 392.969Z" fill="#2A90AF"/>
<path d="M272.749 409.626H232.956C232.195 409.626 231.964 408.613 232.633 408.267L250.591 399.4C251.052 399.17 251.56 399.055 252.091 399.055H293.014C293.684 399.055 293.892 399.953 293.291 400.252L275.726 408.935C274.803 409.396 273.788 409.626 272.749 409.626Z" fill="#2A90AF"/>
<path opacity="0.5" d="M232.207 361.83H391.146L415.336 271.294C419.698 254.988 424.799 238.889 430.662 223.067L435.924 208.88C435.924 208.88 448.111 175.323 423.183 176.06L394.47 176.867C400.494 158.28 407.211 143.172 406.957 134.973C406.426 118.068 397.678 115.097 391.169 114.798L358.163 115.235C362.41 101.624 366.472 87.2983 360.24 67.6527C356.339 55.3311 347.084 50.149 335.381 49.2969L332.981 49.1817C255.104 47.4083 220.02 47.0168 191.537 45.704C162.985 44.3912 142.558 60.7203 142.558 60.7203L53.0249 60.2597C51.3168 60.2597 50.4397 62.2865 51.5938 63.5071L61.4958 74.0093C73.6136 86.8607 90.5093 94.1616 108.19 94.2077L199.131 94.438C218.543 94.6913 228.952 90.1772 234.169 87.782C234.169 87.782 236.615 102.821 229.922 113.83C220.943 128.616 218.473 154.066 234.63 157.405C238.07 158.119 244.001 157.267 257.389 157.267C257.389 157.267 256.812 161.413 256.396 163.324C250.464 191.376 234.4 220.442 232.022 233.086C229.645 245.73 232.507 261.414 243.124 261.921C245.156 262.013 247.094 261.921 259.766 262.082L232.207 361.83Z" fill="#1790B5"/>
<path opacity="0.5" d="M391.722 362.589H231.19L258.796 262.887C252.541 262.818 249.032 262.795 246.909 262.795C244.97 262.795 244.07 262.795 243.146 262.749C239.961 262.611 237.261 261.183 235.16 258.511C230.359 252.454 229.782 241.33 231.352 233.016C232.344 227.695 235.76 219.427 239.73 209.869C245.316 196.373 252.264 179.56 255.726 163.231C256.003 161.872 256.395 159.408 256.58 158.095C251.225 158.118 247.186 158.256 243.885 158.372C239.338 158.533 236.568 158.625 234.537 158.21C229.736 157.22 226.135 154.249 224.104 149.574C219.557 139.187 223.412 123.249 229.321 113.484C234.791 104.456 233.983 92.4794 233.591 88.9556C228.582 91.2127 218.034 95.4965 199.153 95.2432L108.235 95.0129C90.416 94.9668 73.1972 87.5277 60.987 74.5612L51.0851 64.059C50.3234 63.2529 50.1387 62.1474 50.5773 61.134C51.0158 60.1206 51.9852 59.5218 53.0701 59.5218L142.326 59.9824C144.634 58.2321 164.669 43.7224 191.605 44.9661C210.994 45.8643 233.36 46.325 270.406 47.085C288.132 47.4535 308.213 47.868 333.049 48.4438L335.45 48.559C348.744 49.5263 357.331 55.8829 361.001 67.4445C367.325 87.3895 363.009 102.383 359.247 114.474L391.191 114.037C401.763 114.497 407.325 121.545 407.741 134.949C407.926 140.845 404.694 149.942 400.609 161.458C399.039 165.903 397.262 170.878 395.554 176.083L423.182 175.299C429.299 175.115 433.823 176.958 436.57 180.735C443.425 190.201 436.939 208.372 436.662 209.132L431.399 223.343C425.56 239.073 420.413 255.287 416.073 271.501L391.722 362.589ZM233.198 361.069H390.545L414.573 271.086C418.912 254.826 424.083 238.589 429.922 222.79L435.185 208.603C435.254 208.418 441.671 190.431 435.277 181.61C432.831 178.247 428.768 176.635 423.182 176.797L393.384 177.649L393.707 176.612C395.508 171.039 397.423 165.672 399.108 160.928C403.148 149.574 406.333 140.592 406.148 134.995C405.756 122.351 400.839 115.994 391.099 115.557L357.077 116.017L357.4 115.004C362.178 99.6651 365.363 86.4453 359.477 67.8821C356.015 56.9654 347.89 50.9542 335.311 50.056L332.934 49.9639C308.121 49.3881 288.04 48.9735 270.313 48.605C233.245 47.845 210.878 47.3844 191.49 46.4862C163.561 45.1964 143.227 61.1801 143.019 61.3413L142.811 61.5025H142.534L53.0008 61.0419C52.5161 61.0419 52.1237 61.2952 51.916 61.7558C51.7313 62.1934 51.8006 62.6771 52.1468 63.0226L62.0488 73.5248C73.9588 86.1689 90.7853 93.4467 108.189 93.4928L199.13 93.7231C218.957 93.9764 229.39 89.186 233.845 87.1362L234.768 86.7216L234.929 87.712C235.022 88.3338 237.33 103.166 230.59 114.267C224.866 123.687 221.127 139.048 225.466 148.952C227.313 153.19 230.475 155.815 234.814 156.69C236.661 157.082 239.361 156.967 243.793 156.829C247.255 156.713 251.525 156.552 257.249 156.552C257.295 156.552 257.365 156.552 257.411 156.552H258.288L258.173 157.427C258.149 157.589 257.572 161.619 257.18 163.554C253.695 180.021 246.701 196.903 241.092 210.445C237.168 219.934 233.775 228.11 232.806 233.292C231.306 241.284 231.813 251.878 236.314 257.567C238.138 259.87 240.446 261.091 243.193 261.229C244.093 261.275 244.97 261.275 246.886 261.275C249.125 261.275 252.887 261.298 259.788 261.367L260.781 261.39L233.198 361.069Z" fill="#1790B5"/>
<path opacity="0.5" d="M217.871 90.2438C217.802 90.2438 217.733 90.2438 217.687 90.2208C204.507 86.7431 196.152 71.1971 193.151 64.6792C192.505 63.2743 191.097 62.3301 189.55 62.307C180.272 62.1228 157.098 61.6852 142.164 61.524C141.749 61.524 141.402 61.1785 141.402 60.7639C141.402 60.3494 141.749 60.0039 142.164 60.0039C157.098 60.1651 180.272 60.6027 189.55 60.787C191.674 60.833 193.636 62.0997 194.513 64.0574C197.421 70.391 205.5 85.4533 218.033 88.7698C218.449 88.885 218.679 89.2996 218.587 89.6911C218.518 90.0135 218.195 90.2438 217.871 90.2438Z" fill="#1790B5"/>
<path opacity="0.5" d="M362.058 157.467C360.419 157.467 358.78 157.168 357.257 156.408C353.679 154.635 349.871 149.729 351.994 136.578C353.333 128.287 355.48 121.401 357.58 114.745L358.111 113.04C358.226 112.649 358.665 112.418 359.057 112.534C359.45 112.649 359.681 113.086 359.565 113.478L359.034 115.182C356.957 121.792 354.833 128.632 353.495 136.808C351.925 146.505 353.472 152.815 357.926 155.049C362.635 157.398 369.098 154.658 371.106 152.585C374.984 148.577 376.992 141.046 378.931 133.745C381.123 125.5 383.201 117.693 387.886 114.952C388.856 114.376 389.94 114.077 391.118 114.008C391.556 113.985 391.902 114.307 391.902 114.745C391.925 115.159 391.602 115.528 391.164 115.528C390.264 115.574 389.41 115.804 388.648 116.265C384.516 118.683 382.508 126.191 380.385 134.137C378.4 141.622 376.322 149.36 372.191 153.644C370.529 155.372 366.305 157.467 362.058 157.467Z" fill="#1790B5"/>
<path opacity="0.5" d="M234.257 88.5836C233.957 88.5836 233.68 88.4224 233.565 88.146C233.38 87.7545 233.565 87.3169 233.934 87.1327C236.935 85.7508 239.912 84.1847 242.774 82.4804L243.351 82.1349C265.717 68.7308 307.449 46.5287 335.446 48.5555C335.862 48.5785 336.185 48.947 336.162 49.3616C336.139 49.7761 335.77 50.0985 335.354 50.0755C307.772 48.0718 266.387 70.1357 244.159 83.4477L243.582 83.7932C240.674 85.5205 237.65 87.1327 234.603 88.5376C234.465 88.5606 234.372 88.5836 234.257 88.5836Z" fill="#1790B5"/>
<path d="M257.434 158.069C257.018 158.069 256.672 157.746 256.672 157.332C256.672 156.917 256.995 156.549 257.41 156.549C289.217 155.696 360.585 155.927 361.324 155.927C361.739 155.927 362.085 156.272 362.085 156.687C362.085 157.101 361.739 157.447 361.324 157.447C360.608 157.47 289.24 157.217 257.434 158.069C257.457 158.069 257.457 158.069 257.434 158.069Z" fill="#1790B5"/>
<path opacity="0.5" d="M385.835 263.25C384.335 263.25 382.858 262.951 381.45 262.352C378.288 260.97 368.57 254.59 376.141 230.108C379.211 220.159 382.973 208.92 386.62 198.049C389.021 190.886 391.49 183.47 393.729 176.538C393.868 176.146 394.283 175.916 394.699 176.054C395.091 176.192 395.322 176.607 395.183 177.021C392.944 183.954 390.452 191.37 388.051 198.532C384.427 209.403 380.665 220.642 377.595 230.569C371.871 249.04 376.141 258.39 382.05 260.947C386.62 262.951 392.229 260.993 394.814 256.525C396.799 253.093 398.115 243.328 399.638 232.043C403.008 207.031 407.209 175.893 422.096 175.156C422.466 175.133 422.812 175.133 423.158 175.133C423.574 175.133 423.92 175.478 423.92 175.893C423.92 176.307 423.574 176.653 423.158 176.653C422.835 176.653 422.489 176.653 422.166 176.676C408.548 177.344 404.254 209.081 401.138 232.25C399.523 244.18 398.276 253.6 396.13 257.285C393.983 261.039 389.921 263.25 385.835 263.25Z" fill="#1790B5"/>
<path d="M332.334 263.644C330.118 263.644 327.879 263.644 325.594 263.644C325.178 263.644 324.832 263.299 324.832 262.884C324.832 262.469 325.178 262.124 325.594 262.124C358.323 262.17 385.652 261.848 385.906 261.848C386.344 261.848 386.667 262.17 386.691 262.608C386.691 263.022 386.367 263.368 385.929 263.391C385.698 263.368 362.016 263.644 332.334 263.644Z" fill="#1790B5"/>
<path d="M288.985 263.414C278.275 263.299 268.466 263.115 259.81 262.884C259.395 262.884 259.048 262.516 259.071 262.101C259.071 261.687 259.418 261.341 259.856 261.364C268.512 261.595 278.321 261.756 289.008 261.894C289.424 261.894 289.77 262.24 289.77 262.677C289.747 263.069 289.401 263.414 288.985 263.414Z" fill="#1790B5"/>
<path d="M364.731 318.648L357.275 311.209C356.098 310.034 354.182 310.034 352.982 311.209L344.927 319.247L341.672 331.269C341.003 333.734 342.872 336.152 345.434 336.152H386.15C387.904 336.152 389.451 334.977 389.912 333.273L390.72 330.302L376.179 315.792C375.002 314.618 373.086 314.618 371.886 315.792L369.024 318.648C367.823 319.823 365.908 319.823 364.731 318.648Z" fill="#1682A3"/>
<path d="M386.153 336.913H345.437C343.983 336.913 342.621 336.245 341.744 335.094C340.867 333.942 340.567 332.468 340.936 331.063L348.438 303.311C348.992 301.284 350.838 299.879 352.938 299.879H393.654C395.108 299.879 396.47 300.547 397.347 301.698C398.224 302.85 398.524 304.324 398.155 305.729L390.654 333.481C390.1 335.485 388.253 336.913 386.153 336.913ZM352.938 301.399C351.53 301.399 350.284 302.343 349.915 303.702L342.413 331.455C342.159 332.399 342.344 333.389 342.944 334.149C343.544 334.932 344.444 335.37 345.414 335.37H386.13C387.538 335.37 388.784 334.426 389.153 333.067L396.655 305.314C396.909 304.37 396.724 303.38 396.124 302.62C395.524 301.837 394.624 301.399 393.654 301.399H352.938Z" fill="#1790B5"/>
<path d="M384.539 314.116C386.655 314.116 388.37 312.415 388.37 310.316C388.37 308.217 386.655 306.516 384.539 306.516C382.422 306.516 380.707 308.217 380.707 310.316C380.707 312.415 382.422 314.116 384.539 314.116Z" fill="#1A8CAF"/>
<path d="M271.373 196.606L264.587 189.835C263.502 188.753 261.771 188.753 260.686 189.835L255.516 195.063L250.415 208.076C249.815 210.31 251.5 212.521 253.831 212.521H290.877C292.47 212.521 293.878 211.462 294.293 209.918L295.032 207.224L281.806 194.027C280.721 192.944 278.99 192.944 277.905 194.027L275.297 196.629C274.189 197.689 272.435 197.689 271.373 196.606Z" fill="#1682A3"/>
<path d="M291.267 213.282H253.806C252.49 213.282 251.267 212.637 250.528 211.577C249.767 210.495 249.582 209.159 250.044 207.915L259.345 182.074C259.922 180.485 261.446 179.426 263.131 179.426H300.592C301.908 179.426 303.131 180.071 303.87 181.13C304.631 182.213 304.816 183.548 304.354 184.792L295.053 210.633C294.475 212.222 292.952 213.282 291.267 213.282ZM263.131 180.969C262.092 180.969 261.146 181.637 260.8 182.604L251.498 208.445C251.221 209.205 251.336 210.034 251.798 210.702C252.259 211.37 253.021 211.762 253.829 211.762H291.29C292.329 211.762 293.275 211.094 293.621 210.126L302.923 184.285C303.2 183.525 303.085 182.696 302.623 182.028C302.162 181.36 301.4 180.969 300.592 180.969H263.131Z" fill="#1790B5"/>
<path d="M289.382 192.507C291.307 192.503 292.864 190.943 292.86 189.023C292.856 187.102 291.293 185.548 289.368 185.552C287.443 185.556 285.886 187.116 285.89 189.036C285.893 190.957 287.457 192.511 289.382 192.507Z" fill="#1A8CAF"/>
<path d="M240.831 142.344C271.575 142.321 311.876 141.768 333.872 141.307C335.65 141.261 337.219 140.294 337.589 138.567C338.535 134.122 340.381 119.405 342.343 113.486C343.082 111.229 341.374 108.903 338.973 108.926C324.386 109.133 262.274 108.166 250.594 107.981C249.186 107.958 247.801 108.396 246.693 109.294C246.624 109.34 246.555 109.409 246.509 109.455C242.031 113.486 235.799 130.92 237.138 138.866C237.484 140.824 238.823 142.344 240.831 142.344Z" fill="#1790B5"/>
<path d="M359.844 189.285C359.428 189.285 359.082 188.94 359.082 188.525C359.082 188.111 359.405 187.765 359.844 187.742C370.761 187.604 375.031 187.351 380.409 186.821C380.825 186.775 381.194 187.074 381.24 187.512C381.286 187.927 380.986 188.295 380.548 188.341C375.101 188.871 370.831 189.147 359.844 189.285Z" fill="#1790B5"/>
<path d="M349.113 204.646C348.698 204.646 348.352 204.3 348.352 203.886C348.352 203.471 348.698 203.126 349.113 203.126C354.03 203.103 359.662 202.826 364.647 202.573C367.394 202.435 370.002 202.297 372.126 202.228C372.541 202.205 372.91 202.55 372.91 202.965C372.933 203.379 372.587 203.748 372.172 203.748C370.048 203.817 367.463 203.955 364.716 204.07C359.731 204.323 354.076 204.623 349.113 204.646C349.136 204.646 349.136 204.646 349.113 204.646Z" fill="#1790B5"/>
<path d="M347.52 219.8C347.104 219.8 346.758 219.455 346.758 219.04C346.758 218.625 347.104 218.28 347.52 218.28C359.291 218.165 365.708 218.073 371.617 217.497C372.032 217.451 372.401 217.75 372.448 218.188C372.494 218.602 372.194 218.971 371.755 219.017C365.8 219.593 359.36 219.685 347.52 219.8C347.543 219.8 347.543 219.8 347.52 219.8Z" fill="#1790B5"/>
<path d="M260.986 233.639C250.23 233.431 243.075 233.27 243.005 233.27C242.59 233.27 242.244 232.902 242.267 232.487C242.267 232.072 242.613 231.75 243.028 231.75H243.051C243.121 231.75 250.276 231.934 261.009 232.118C261.424 232.118 261.771 232.464 261.748 232.902C261.748 233.293 261.401 233.639 260.986 233.639Z" fill="#1790B5"/>
<path d="M337.359 235.393C336.944 235.393 336.598 235.047 336.598 234.633C336.598 234.218 336.944 233.873 337.359 233.873C351.578 233.781 360.787 233.458 367.227 232.813C367.642 232.767 368.012 233.067 368.058 233.504C368.104 233.919 367.804 234.287 367.365 234.333C360.879 234.978 351.647 235.324 337.359 235.393Z" fill="#1790B5"/>
<path d="M337.41 250.64C336.995 250.64 336.648 250.295 336.648 249.88C336.648 249.465 336.972 249.12 337.41 249.097C349.343 248.959 357.907 248.636 362.823 248.13C363.238 248.084 363.608 248.383 363.654 248.821C363.7 249.235 363.4 249.604 362.961 249.65C357.999 250.179 349.413 250.502 337.41 250.64Z" fill="#1790B5"/>
<path d="M385.672 275.259C379.879 275.259 372.608 275.236 363.906 275.19C363.491 275.19 363.145 274.845 363.145 274.43C363.145 274.016 363.491 273.67 363.906 273.67C387.449 273.808 400.329 273.762 402.245 273.532C402.66 273.486 403.052 273.785 403.099 274.2C403.145 274.614 402.845 275.006 402.429 275.052C401.206 275.19 395.597 275.259 385.672 275.259Z" fill="#1790B5"/>
<path d="M387.934 289.998C387.518 289.998 387.172 289.652 387.172 289.238C387.172 288.823 387.518 288.478 387.934 288.478C394.466 288.455 398.251 288.385 399.197 288.27C399.613 288.224 400.005 288.524 400.051 288.938C400.098 289.353 399.797 289.744 399.382 289.79C398.366 289.906 394.627 289.975 387.934 289.998Z" fill="#1790B5"/>
<path d="M378.772 289.997C363.722 289.974 344.773 289.812 320.906 289.559C320.491 289.559 320.145 289.214 320.145 288.799C320.145 288.385 320.491 288.039 320.906 288.039C344.749 288.269 363.722 288.431 378.749 288.477C379.164 288.477 379.51 288.822 379.51 289.237C379.533 289.674 379.187 289.997 378.772 289.997Z" fill="#1790B5"/>
<path d="M340.316 304.577C334.592 304.531 330.945 304.485 327.067 304.416C323.974 304.37 320.766 304.324 316.242 304.278C315.827 304.278 315.48 303.932 315.48 303.518C315.48 303.103 315.827 302.758 316.242 302.758C320.766 302.804 323.998 302.85 327.09 302.896C330.945 302.942 334.615 303.011 340.316 303.057C340.732 303.057 341.078 303.403 341.078 303.817C341.078 304.232 340.732 304.577 340.316 304.577Z" fill="#1790B5"/>
<path d="M337.109 319.134C330.415 319.088 324.299 319.018 318.228 318.972L312.25 318.926C311.834 318.926 311.488 318.581 311.488 318.166C311.488 317.752 311.834 317.406 312.25 317.406L318.228 317.452C324.322 317.498 330.415 317.567 337.109 317.614C337.524 317.614 337.87 317.959 337.87 318.374C337.87 318.788 337.524 319.134 337.109 319.134Z" fill="#1790B5"/>
<path d="M333.577 334.08C324.021 334.011 317.212 333.873 310.611 333.757C305.441 333.665 300.086 333.55 293.484 333.481C293.069 333.481 292.723 333.136 292.723 332.721C292.723 332.306 293.092 331.961 293.484 331.961C300.086 332.03 305.441 332.145 310.634 332.237C317.212 332.352 324.044 332.491 333.577 332.56C333.992 332.56 334.339 332.905 334.339 333.32C334.339 333.734 333.992 334.08 333.577 334.08Z" fill="#1790B5"/>
<path d="M370.392 349.028C353.404 349.028 326.491 348.797 302.879 348.567C302.463 348.567 302.117 348.221 302.117 347.807C302.117 347.392 302.463 347.047 302.879 347.047C354.928 347.577 384.01 347.669 386.942 347.3C387.357 347.254 387.75 347.554 387.796 347.968C387.842 348.383 387.542 348.774 387.126 348.82C385.811 348.958 379.556 349.028 370.392 349.028Z" fill="#1790B5"/>
<path d="M275.043 348.245C275.02 348.245 275.02 348.245 275.043 348.245L259.117 348.153C258.702 348.153 258.355 347.807 258.355 347.393C258.355 346.978 258.702 346.633 259.117 346.633L275.043 346.725C275.459 346.725 275.805 347.07 275.805 347.485C275.805 347.9 275.459 348.245 275.043 348.245Z" fill="#1790B5"/>
<path d="M344.383 97.784C344.36 97.784 344.36 97.784 344.337 97.784C312.553 96.1027 247.533 97.2543 246.886 97.2773C246.471 97.3003 246.125 96.9549 246.102 96.5173C246.102 96.1027 246.425 95.7572 246.863 95.7342C247.51 95.7112 312.576 94.5596 344.429 96.2409C344.844 96.2639 345.167 96.6324 345.144 97.047C345.121 97.4846 344.798 97.784 344.383 97.784Z" fill="#1790B5"/>
<path d="M344.861 83.0623C344.838 83.0623 344.815 83.0623 344.792 83.0623C311.831 80.1834 260.336 82.4405 259.829 82.4635C259.39 82.4865 259.044 82.1641 259.021 81.7265C258.998 81.3119 259.321 80.9434 259.759 80.9204C260.267 80.8974 311.877 78.6403 344.93 81.5423C345.346 81.5883 345.669 81.9568 345.623 82.3714C345.576 82.7629 345.253 83.0623 344.861 83.0623Z" fill="#1790B5"/>
<path d="M344.979 68.8499C344.956 68.8499 344.933 68.8499 344.91 68.8499C335.631 68.0668 323.768 68.1129 312.319 68.1589C304.725 68.182 296.878 68.228 289.861 67.9977C289.445 67.9747 289.099 67.6292 289.122 67.2147C289.145 66.8001 289.491 66.4546 289.907 66.4777C296.901 66.6849 304.725 66.6619 312.319 66.6389C323.814 66.5928 335.701 66.5467 345.049 67.3528C345.464 67.3989 345.787 67.7674 345.741 68.182C345.695 68.5505 345.372 68.8499 344.979 68.8499Z" fill="#1790B5"/>
<path d="M260.224 59.2498C242.659 59.2498 223.824 58.4668 206.836 57.7528L204.805 57.6607C204.39 57.6377 204.066 57.2922 204.066 56.8776C204.089 56.4631 204.436 56.1406 204.851 56.1406L206.882 56.2327C227.933 57.1079 251.799 58.1213 272.549 57.5916C272.965 57.5686 273.311 57.914 273.334 58.3286C273.334 58.7431 273.011 59.1116 272.595 59.1116C268.556 59.2038 264.425 59.2498 260.224 59.2498Z" fill="#1790B5"/>
<path d="M40.0447 158.953L57.1481 155.198C59.2486 154.738 61.4413 155.544 62.7339 157.271L69.3352 166.069L72.682 154.738C73.259 152.803 74.8286 151.329 76.7905 150.892L92.5321 147.437C95.5096 146.792 97.4023 143.821 96.756 140.827L89.4392 107.294C88.7929 104.3 85.8385 102.411 82.861 103.056L30.3505 114.548C27.373 115.193 25.4803 118.164 26.1266 121.158L33.4434 154.692C34.1358 157.709 37.0672 159.597 40.0447 158.953Z" fill="#005A76"/>
<path d="M54.3764 134.676C56.0151 134.308 57.6309 134.791 58.8311 135.782L67.8329 129.817C67.7867 129.678 67.7406 129.563 67.7175 129.448C67.6713 129.195 67.6482 128.964 67.6252 128.711L56.5229 126.27C55.8305 127.537 54.6302 128.504 53.1069 128.849C50.314 129.471 47.5211 127.675 46.8979 124.865C46.2747 122.055 48.052 119.245 50.868 118.647C53.6608 118.025 56.4537 119.821 57.0769 122.631C57.1231 122.884 57.1461 123.115 57.1692 123.368L68.2714 125.809C68.9639 124.543 70.1641 123.575 71.6875 123.23C74.4804 122.608 77.2732 124.404 77.8964 127.214C78.5196 130.024 76.7424 132.834 73.9264 133.433C72.2876 133.801 70.6719 133.317 69.4717 132.327L60.4699 138.292C60.516 138.43 60.5622 138.545 60.5853 138.661C61.2085 141.47 59.4312 144.28 56.6153 144.879C53.8224 145.501 51.0295 143.704 50.4063 140.895C49.8062 138.108 51.5835 135.298 54.3764 134.676Z" fill="#05627E"/>
<path d="M124.617 147.849L136.203 153.215C137.635 153.883 138.558 155.311 138.535 156.9V164.915L145.436 159.802C146.613 158.927 148.183 158.766 149.521 159.388L160.185 164.316C162.216 165.261 164.594 164.363 165.517 162.336L175.95 139.604C176.873 137.577 175.996 135.182 173.988 134.238L138.419 117.77C136.388 116.826 134.011 117.724 133.087 119.751L122.655 142.483C121.708 144.51 122.608 146.905 124.617 147.849Z" fill="#005A76"/>
<path d="M145.575 133.893C146.752 133.387 148.068 133.41 149.268 133.939C150.168 134.331 150.838 134.999 151.322 135.874C151.553 136.312 151.738 136.818 151.853 137.348C152.315 137.072 152.8 136.887 153.284 136.772C154.254 136.542 155.2 136.634 156.077 137.026C157.277 137.555 158.155 138.546 158.547 139.766C158.939 140.987 158.87 142.346 158.293 143.613C157.716 144.925 156.677 145.893 155.085 146.699C153.654 147.413 151.784 147.942 149.637 148.587C148.899 148.795 148.068 149.048 147.214 149.301C146.983 149.37 146.729 149.347 146.521 149.255C146.314 149.163 146.129 148.979 146.037 148.772C145.667 147.942 145.298 147.159 144.952 146.468C144.006 144.442 143.175 142.691 142.736 141.148C142.251 139.421 142.321 137.993 142.898 136.68C143.452 135.39 144.398 134.4 145.575 133.893Z" fill="#05627E"/>
<path d="M420.755 101.649L407.806 96.1901C406.214 95.5222 404.367 95.8447 403.098 96.9962L396.589 102.915L395.619 93.5416C395.458 91.9294 394.419 90.5475 392.942 89.9257L381.032 84.9049C378.77 83.9606 377.731 81.3581 378.678 79.101L389.364 53.9049C390.311 51.6479 392.919 50.6115 395.181 51.5557L434.904 68.2764C437.166 69.2206 438.205 71.8232 437.258 74.0802L426.572 99.2763C425.625 101.556 423.017 102.593 420.755 101.649Z" fill="#005A76"/>
<path d="M398.991 80.9915L404.53 67.9789C404.807 67.311 405.684 67.1728 406.169 67.7256L416.487 79.6557C417.017 80.2545 416.625 81.1988 415.817 81.2679L399.96 82.3504C399.222 82.3964 398.714 81.6594 398.991 80.9915Z" fill="#05627E"/>
<path d="M219.821 302.071C219.821 302.071 245.118 297.718 262.799 296.751C280.479 295.783 309.1 236.754 309.677 229.638C309.677 229.638 310.139 228.164 309.585 226.459C307.877 221.139 303.838 209.923 306.677 204.027C311.408 194.147 320.249 195.598 320.249 195.598C320.249 195.598 322.695 186.777 328.443 188.781C332.851 190.324 337.721 194.653 338.598 202.668C339.799 213.608 339.983 224.272 329.643 232.678C327.635 234.313 326.227 236.57 325.696 239.081C322.418 254.742 310 308.612 292.089 321.762C271.085 337.216 214.535 355.78 214.535 355.78L219.821 302.071Z" fill="#F7AFBC"/>
<path d="M214.539 356.583C214.377 356.583 214.192 356.514 214.054 356.422C213.846 356.26 213.754 356.007 213.777 355.754L219.063 302.022C219.086 301.676 219.363 301.4 219.686 301.354C219.94 301.308 245.237 296.978 262.756 296.011C269.911 295.619 280.298 284.656 292 265.126C301.417 249.396 308.642 232.974 308.942 229.589C308.942 229.52 308.965 229.474 308.965 229.428C308.965 229.428 309.358 228.161 308.873 226.71C308.757 226.318 308.619 225.904 308.48 225.466C306.519 219.478 303.264 209.46 306.011 203.725C310.165 195.042 317.482 194.697 319.721 194.812C320.206 193.361 321.683 189.768 324.407 188.363C325.745 187.672 327.2 187.58 328.723 188.11C330.939 188.893 338.256 192.209 339.387 202.642C340.564 213.398 340.841 224.637 330.154 233.343C328.261 234.886 326.946 237.005 326.461 239.331C323.068 255.476 310.627 309.185 292.577 322.474C271.712 337.835 215.37 356.422 214.792 356.606C214.7 356.583 214.608 356.583 214.539 356.583ZM220.517 302.736L215.416 354.717C223.448 352.023 272.589 335.21 291.654 321.184C309.265 308.217 321.591 254.969 324.961 238.963C325.515 236.314 327.015 233.873 329.185 232.122C339.271 223.9 339.063 213.559 337.863 202.781C336.825 193.246 330.2 190.229 328.215 189.515C327.107 189.123 326.092 189.169 325.122 189.676C322.329 191.127 321.014 195.756 321.014 195.802C320.898 196.171 320.529 196.424 320.16 196.355C319.813 196.309 311.804 195.157 307.419 204.37C304.926 209.575 308.203 219.593 309.981 224.983C310.119 225.42 310.258 225.835 310.373 226.226C310.927 227.931 310.581 229.405 310.489 229.773C310.073 233.896 302.387 250.801 293.362 265.886C284.914 280.004 272.75 296.978 262.894 297.508C246.876 298.383 224.371 302.091 220.517 302.736Z" fill="#F7AFBC"/>
<path d="M290.758 245.121L278.387 231.74L285.219 226.12C285.588 225.82 286.05 225.59 286.511 225.498L287.365 225.314C288.45 225.083 289.327 224.277 289.65 223.218C289.835 222.642 290.158 222.136 290.643 221.744L341.399 179.988C341.815 179.643 342.276 179.367 342.784 179.136L357.949 172.25L349.916 185.977C349.478 186.714 348.947 187.405 348.324 188.026L301.814 234.158C301.422 234.549 300.914 234.826 300.383 234.964L300.245 234.987C299.206 235.24 298.352 236.023 298.052 237.037L297.891 237.543C297.752 238.004 297.475 238.442 297.129 238.787L290.758 245.121Z" fill="#C7FF50"/>
<path d="M290.758 245.903C290.735 245.903 290.735 245.903 290.758 245.903C290.528 245.903 290.343 245.811 290.204 245.65L277.833 232.268C277.694 232.107 277.625 231.9 277.625 231.693C277.648 231.485 277.74 231.278 277.902 231.163L284.734 225.543C285.196 225.152 285.773 224.875 286.35 224.76L287.204 224.576C288.035 224.392 288.681 223.793 288.912 223.01C289.12 222.296 289.558 221.651 290.135 221.167L340.891 179.412C341.353 179.02 341.884 178.698 342.438 178.445L357.603 171.558C357.903 171.42 358.272 171.489 358.48 171.742C358.71 171.996 358.734 172.341 358.572 172.641L350.54 186.367C350.078 187.173 349.501 187.91 348.832 188.578L302.322 234.71C301.838 235.193 301.214 235.539 300.522 235.723L300.383 235.746C299.599 235.93 298.975 236.529 298.722 237.289L298.56 237.796C298.375 238.372 298.052 238.924 297.614 239.362L291.243 245.673C291.151 245.811 290.943 245.903 290.758 245.903ZM279.495 231.831L290.781 244.037L296.598 238.28C296.852 238.026 297.06 237.704 297.175 237.335L297.337 236.829C297.729 235.562 298.791 234.572 300.083 234.249L300.222 234.226C300.637 234.134 301.007 233.904 301.307 233.627L347.816 187.496C348.393 186.92 348.878 186.298 349.293 185.607L356.102 173.953L343.13 179.849C342.692 180.057 342.299 180.31 341.93 180.609L291.174 222.365C290.828 222.664 290.574 223.033 290.435 223.47C290.043 224.783 288.935 225.797 287.596 226.096L286.742 226.28C286.396 226.349 286.05 226.534 285.773 226.764L279.495 231.831Z" fill="#C5F65C"/>
<path d="M347.239 185.537C347.055 185.537 346.847 185.468 346.709 185.307L341.584 180.217C341.284 179.918 341.284 179.434 341.584 179.135C341.884 178.835 342.369 178.835 342.669 179.135L347.793 184.225C348.093 184.524 348.093 185.008 347.793 185.307C347.632 185.445 347.424 185.537 347.239 185.537Z" fill="#C0F156"/>
<path d="M267.037 241.619L278.601 231.508L290.88 245.096L279.316 255.207C277.193 257.072 273.984 256.911 272.161 254.884L266.552 248.666C264.683 246.639 264.913 243.484 267.037 241.619Z" fill="#C7FF50"/>
<path d="M275.852 257.28C274.259 257.28 272.689 256.658 271.558 255.392L265.95 249.173C264.934 248.045 264.426 246.594 264.519 245.097C264.611 243.531 265.326 242.103 266.527 241.043L278.644 230.426L291.939 245.143L279.798 255.783C278.667 256.796 277.26 257.28 275.852 257.28ZM267.542 242.195C266.665 242.978 266.134 244.037 266.065 245.189C265.996 246.294 266.365 247.354 267.104 248.16L272.712 254.378C274.259 256.106 277.006 256.221 278.806 254.655L289.77 245.051L278.529 232.591L267.542 242.195Z" fill="#C5F75C"/>
<path d="M296.829 234.178C296.621 234.178 296.413 234.086 296.252 233.925L290.504 227.43C290.227 227.108 290.25 226.624 290.573 226.348C290.897 226.071 291.381 226.094 291.658 226.417L297.406 232.911C297.683 233.234 297.66 233.718 297.336 233.994C297.175 234.132 297.013 234.178 296.829 234.178Z" fill="#C0F156"/>
<path d="M295.978 223.495C295.77 223.495 295.539 223.403 295.401 223.218C295.124 222.896 295.17 222.412 295.493 222.136L310.334 209.584C310.658 209.307 311.142 209.353 311.419 209.676C311.696 209.998 311.65 210.482 311.327 210.758L296.485 223.31C296.324 223.449 296.139 223.495 295.978 223.495Z" fill="#C0F156"/>
<path d="M335.724 189.59C335.516 189.59 335.285 189.498 335.147 189.314C334.87 188.992 334.916 188.508 335.239 188.232L341.009 183.326C341.333 183.05 341.817 183.096 342.094 183.418C342.371 183.741 342.325 184.224 342.002 184.501L336.232 189.406C336.07 189.544 335.885 189.59 335.724 189.59Z" fill="#C0F156"/>
<path d="M275.456 253.016C275.249 253.016 275.018 252.924 274.879 252.763C274.602 252.441 274.648 251.957 274.948 251.681L283.835 243.988C284.158 243.712 284.643 243.758 284.92 244.057C285.197 244.38 285.151 244.863 284.85 245.14L275.964 252.832C275.803 252.97 275.641 253.016 275.456 253.016Z" fill="#C5F65C"/>
<path d="M309.684 229.639C309.684 229.639 312.153 216.304 315.87 208.496C318.778 202.416 320.209 182.172 331.173 189.956C333.527 191.638 335.143 192.628 336.874 195.737C337.82 197.442 339.505 201.817 339.759 204.075C340.959 215.037 339.99 224.296 329.603 232.725C327.595 234.337 326.21 236.595 325.679 239.105C325.379 240.579 309.638 230.123 309.684 229.639Z" fill="#F7AFBC"/>
<path d="M324.386 245.849C324.34 245.849 324.271 245.849 324.224 245.826C323.809 245.734 323.555 245.32 323.647 244.905C324.109 242.855 324.548 240.875 324.94 238.963C325.494 236.291 326.994 233.873 329.118 232.146C339.02 224.108 340.243 215.471 338.997 204.163C338.766 202.067 337.15 197.806 336.204 196.125C334.657 193.384 333.296 192.394 331.195 190.92L330.733 190.575C328.725 189.147 327.064 188.686 325.679 189.17C322.563 190.252 320.924 195.964 319.493 201.008C318.57 204.186 317.715 207.203 316.515 208.93C310.445 217.659 310.468 229.497 310.468 229.612C310.468 229.635 310.468 229.658 310.468 229.681C310.445 230.027 310.283 230.856 309.245 234.011C309.106 234.403 308.691 234.633 308.275 234.495C307.883 234.357 307.652 233.942 307.79 233.528C308.714 230.672 308.898 229.82 308.945 229.566C308.945 228.645 309.037 216.968 315.269 208.032C316.331 206.512 317.162 203.633 318.039 200.57C319.585 195.181 321.339 189.078 325.194 187.719C327.063 187.074 329.233 187.603 331.634 189.308L332.095 189.63C334.196 191.104 335.858 192.279 337.566 195.342C338.581 197.161 340.289 201.583 340.543 203.956C341.813 215.448 340.52 224.845 330.11 233.297C328.241 234.817 326.948 236.936 326.463 239.239C326.071 241.151 325.632 243.155 325.171 245.204C325.055 245.596 324.732 245.849 324.386 245.849Z" fill="#F7AFBC"/>
<path d="M217.681 298.177C185.228 298.706 164.64 292.373 136.296 283.759C116.538 277.748 84.4545 272.658 71.575 274.247C57.2645 275.998 41.0843 291.935 51.7249 355.778C53.8022 368.283 55.3487 379.569 57.5645 389.587C70.8595 408.841 88.4938 425.309 111.875 437.285C122.216 442.582 164.547 454.812 214.888 457.99C199.424 438.436 174.98 407.897 177.819 384.175C179.158 373.097 216.481 364 216.481 364C216.481 364 241.709 331.595 231.899 307.55C229.383 301.355 224.398 298.061 217.681 298.177Z" fill="#1AE3E3"/>
<path d="M137.194 211.93C137.194 211.93 141.902 218.977 142.203 224.804C142.272 226.347 142.918 231.253 146.727 236.642C147.096 237.172 147.003 237.863 146.542 238.3L142.918 241.525C142.664 241.755 142.526 242.054 142.526 242.377C142.503 244.427 142.456 252.027 142.203 253.432C141.926 255.067 140.587 256.518 139.941 256.863C138.209 257.808 130.708 256.84 130.708 256.84C130.708 256.84 128.7 257.025 124.753 267.688C120.483 279.204 129.323 283.557 129.323 283.557C132.647 285.284 132.716 286.965 129.115 288.094C116.721 292.032 91.1231 294.911 78.1744 280.424C77.4358 279.595 77.8051 278.282 78.8899 277.96C111.758 268.287 96.0856 240.419 96.7781 240.235C98.5554 239.774 108.757 229.042 114.736 225.979C118.821 223.906 123.76 226.9 127.084 223.768L137.194 211.93Z" fill="#F7AFBC"/>
<path d="M107.742 292.076C96.8246 292.076 85.1454 289.451 77.5746 280.975C77.0437 280.399 76.8591 279.593 77.0899 278.833C77.2976 278.073 77.8978 277.497 78.6364 277.267C87.8228 274.572 93.9856 270.173 96.9862 264.185C101.441 255.295 97.6555 245.162 96.4322 241.845C95.9706 240.578 95.8552 240.325 96.0629 239.933C96.1552 239.749 96.363 239.588 96.5707 239.542C97.1708 239.358 99.6406 237.147 101.833 235.166C105.803 231.619 110.766 227.174 114.367 225.332C116.398 224.295 118.544 224.41 120.599 224.503C122.907 224.618 124.915 224.733 126.484 223.259L136.617 211.421C136.779 211.237 137.01 211.145 137.24 211.145C137.471 211.168 137.702 211.283 137.84 211.49C138.048 211.789 142.665 218.768 142.965 224.733C143.011 225.677 143.449 230.652 147.35 236.179C147.95 237.009 147.812 238.16 147.027 238.851L143.403 242.075C143.311 242.144 143.265 242.26 143.265 242.375C143.242 245.254 143.172 252.14 142.941 253.568C142.618 255.41 141.187 257.069 140.287 257.552C138.51 258.497 132.462 257.852 130.801 257.644C130.385 257.921 128.585 259.51 125.446 267.985C121.476 278.741 129.3 282.725 129.647 282.91C131.701 283.992 132.647 285.075 132.555 286.226C132.462 287.355 131.401 288.207 129.323 288.875C124.084 290.533 116.144 292.076 107.742 292.076ZM97.6325 240.694C97.7017 240.878 97.7709 241.108 97.8633 241.315C99.1558 244.793 103.103 255.41 98.3711 264.876C95.1858 271.256 88.6768 275.908 79.098 278.741C78.8441 278.81 78.6594 279.017 78.5902 279.271C78.521 279.524 78.5671 279.777 78.7518 279.985C91.6082 294.402 117.159 291.155 128.885 287.424C130.431 286.94 131.031 286.41 131.055 286.088C131.055 286.019 131.055 285.351 128.977 284.268C128.908 284.222 119.583 279.478 124.038 267.456C127.754 257.437 129.9 256.17 130.639 256.101C130.685 256.101 130.754 256.101 130.801 256.101C133.824 256.493 138.533 256.769 139.572 256.217C139.987 255.986 141.187 254.766 141.441 253.315C141.626 252.255 141.718 246.958 141.764 242.375C141.764 241.822 141.995 241.315 142.411 240.947L146.034 237.723C146.219 237.561 146.265 237.285 146.104 237.078C141.949 231.205 141.51 225.838 141.441 224.825C141.233 220.449 138.325 215.244 137.102 213.217L127.638 224.295C127.615 224.318 127.592 224.341 127.592 224.341C125.538 226.299 122.999 226.161 120.529 226.023C118.567 225.931 116.721 225.838 115.059 226.668C111.62 228.418 106.75 232.771 102.849 236.272C100.195 238.667 98.6019 240.072 97.6325 240.694Z" fill="#F7AFBC"/>
<path d="M146.406 236.545C146.014 236.545 145.668 236.245 145.644 235.831C145.621 235.416 145.921 235.048 146.36 235.025C147.399 234.955 148.206 234.541 148.807 233.735C150.561 231.432 150.076 226.802 149.822 225.029L124.34 229.036C123.925 229.106 123.532 228.806 123.463 228.392C123.394 227.977 123.694 227.585 124.109 227.516L150.33 223.417C150.745 223.348 151.115 223.624 151.207 224.016C151.276 224.315 152.638 231.247 150.03 234.656C149.153 235.785 147.976 236.429 146.475 236.545C146.452 236.545 146.429 236.545 146.406 236.545Z" fill="#41193E"/>
<path d="M124.109 239.613C121.87 239.613 118.362 238.784 116.469 234.131C115.292 231.253 115.684 228.673 117.531 227.245C119.447 225.771 122.378 225.932 124.663 227.66C125.517 228.305 126.625 230.055 126.74 230.262C126.971 230.631 126.856 231.091 126.487 231.322C126.117 231.552 125.656 231.437 125.425 231.068C125.009 230.423 124.201 229.249 123.717 228.88C121.986 227.591 119.816 227.406 118.431 228.466C117.139 229.456 116.931 231.322 117.831 233.556C120.208 239.406 125.471 237.955 125.679 237.885C126.094 237.77 126.51 238.001 126.625 238.392C126.74 238.807 126.51 239.221 126.117 239.336C126.163 239.383 125.309 239.613 124.109 239.613Z" fill="#F5A2B1"/>
<path d="M146.867 194.493C144.467 190.463 141.859 187.008 133.942 185.442C128.517 184.383 119.677 188.367 115.338 192.973C114.969 193.365 114.392 193.365 114.091 192.996C113.145 191.822 110.929 189.15 108.967 188.92C103.266 188.252 97.4497 195.599 95.3723 199.399C93.849 202.163 91.31 208.404 90.0174 215.682C89.9482 216.142 89.5327 216.465 89.0711 216.442C87.3631 216.281 83.9239 216.281 80.854 218.538C75.4068 222.568 76.0069 228.441 76.0531 229.155C76.7917 237.538 85.3319 243.734 91.8178 247.096C96.2263 249.376 97.8651 249.699 100.45 250.298C100.589 250.321 100.75 250.321 100.912 250.275C103.197 250.62 107.098 250.781 111.414 249.284C118.292 246.912 117.785 235.512 117.785 235.512L116.907 233.37C116.377 232.08 116.307 230.606 116.838 229.293C118.454 225.332 124.455 228.303 124.686 228.257C135.95 225.931 139.943 222.614 141.997 220.38C149.36 212.365 152.707 204.258 146.867 194.493Z" fill="#003C4F"/>
<path d="M148.295 367.913C148.272 367.913 148.248 367.913 148.202 367.913L123.644 365.979C101.139 364.205 79.4425 356.858 60.5156 344.56C60.3771 344.468 60.2155 344.375 60.077 344.283C57.1226 342.372 53.4988 341.773 50.0597 342.625L46.7359 343.454C44.6355 343.984 42.6967 345.02 41.104 346.494C40.7347 346.84 40.5039 347.093 40.5039 347.185L43.6661 365.403C57.7227 395.044 79.1655 420.539 111.849 437.26C118.589 440.715 138.97 447.117 166.298 452.046C166.252 445.459 166.183 436.385 166.183 436.362V389.724C166.206 379.152 158.704 370.009 148.295 367.913Z" fill="#335E6B"/>
<path d="M114.506 451.45C77.2063 444.034 61.3493 435.121 49.9239 428.418C42.6302 424.158 38.1523 416.35 38.1523 407.921V352.462C38.1523 346.612 44.4767 342.927 49.6008 345.829C51.4704 346.888 53.2707 348.017 55.0249 349.145C73.8364 361.398 95.4638 368.699 117.853 370.472L142.596 372.43C153.029 374.503 160.554 383.646 160.554 394.263C160.554 394.263 160.369 455.296 159.607 455.78C156.214 458.037 114.506 451.45 114.506 451.45Z" fill="#00516B"/>
<path d="M145.043 438.246C144.974 438.246 144.928 438.246 144.859 438.223C137.657 436.473 130.871 434.584 125.193 432.765C124.801 432.627 124.57 432.212 124.708 431.797C124.847 431.406 125.262 431.176 125.678 431.314C131.31 433.133 138.073 435.022 145.228 436.749C145.643 436.841 145.897 437.256 145.782 437.67C145.69 437.993 145.389 438.246 145.043 438.246Z" fill="#335E6B"/>
<path d="M125.423 432.79C125.354 432.79 125.261 432.767 125.192 432.744C120.022 431.062 115.982 429.519 113.49 428.253C109.45 426.18 105.503 423.946 101.718 421.574C101.372 421.343 101.256 420.883 101.487 420.514C101.718 420.169 102.18 420.054 102.549 420.284C106.288 422.633 110.189 424.867 114.205 426.894C116.583 428.114 120.668 429.681 125.677 431.293C126.069 431.431 126.3 431.846 126.161 432.26C126.046 432.583 125.746 432.79 125.423 432.79Z" fill="#335E6B"/>
<path d="M102.134 421.686C101.995 421.686 101.857 421.64 101.718 421.571C77.5058 406.324 58.4404 384.375 45.0762 356.3C44.8916 355.909 45.0531 355.471 45.4455 355.287C45.8379 355.103 46.2764 355.264 46.4611 355.655C59.7099 383.477 78.5675 405.219 102.549 420.304C102.895 420.534 103.011 420.995 102.78 421.363C102.642 421.548 102.388 421.686 102.134 421.686Z" fill="#335E6B"/>
<path d="M198.089 233.869C195.55 233.869 193.473 231.796 193.473 229.262C193.473 226.729 195.55 224.656 198.089 224.656C200.628 224.656 202.705 226.729 202.705 229.262C202.682 231.819 200.628 233.869 198.089 233.869ZM198.089 226.199C196.381 226.199 195.019 227.581 195.019 229.262C195.019 230.967 196.404 232.326 198.089 232.326C199.797 232.326 201.159 230.944 201.159 229.262C201.159 227.581 199.774 226.199 198.089 226.199Z" fill="#005A76"/>
<path d="M185.627 184.859C185.42 184.859 185.235 184.79 185.096 184.628L182.073 181.588C181.773 181.289 181.773 180.805 182.073 180.506C182.373 180.206 182.857 180.206 183.158 180.506L186.181 183.546C186.481 183.845 186.481 184.329 186.181 184.628C186.02 184.79 185.812 184.859 185.627 184.859Z" fill="#005A76"/>
<path d="M196.221 195.499C196.013 195.499 195.829 195.43 195.69 195.269L192.666 192.229C192.366 191.929 192.366 191.446 192.666 191.146C192.967 190.847 193.451 190.847 193.751 191.146L196.775 194.187C197.075 194.486 197.075 194.97 196.775 195.269C196.613 195.43 196.406 195.499 196.221 195.499Z" fill="#005A76"/>
<path d="M182.58 195.499C182.395 195.499 182.188 195.43 182.049 195.269C181.749 194.97 181.749 194.486 182.049 194.187L185.073 191.146C185.373 190.847 185.858 190.847 186.158 191.146C186.458 191.446 186.458 191.929 186.158 192.229L183.134 195.269C182.996 195.43 182.788 195.499 182.58 195.499Z" fill="#005A76"/>
<path d="M193.197 184.859C193.013 184.859 192.805 184.79 192.666 184.628C192.366 184.329 192.366 183.845 192.666 183.546L195.69 180.506C195.99 180.206 196.475 180.206 196.775 180.506C197.075 180.805 197.075 181.289 196.775 181.588L193.751 184.628C193.59 184.79 193.382 184.859 193.197 184.859Z" fill="#005A76"/>
</svg>
