<svg width="116" height="42" viewBox="0 0 116 42" fill="none" xmlns="http://www.w3.org/2000/svg">
<g clip-path="url(#clip0_4095_2884)">
<path d="M17.0342 0.015625C17.313 0.145311 17.4895 0.413946 17.7125 0.627001C18.0749 0.941953 18.3445 1.3588 18.6976 1.68301C19.1343 2.09986 19.4131 2.62787 19.7755 3.10029C20.4074 4.05441 20.9649 5.07337 21.253 6.18496C21.5503 6.94455 21.5968 7.76898 21.5782 8.58415C21.5968 9.32521 21.3923 10.057 21.0577 10.724C20.4817 11.7337 19.441 12.4099 18.3537 12.7711C16.997 13.0954 15.501 13.1509 14.1908 12.5766C13.7168 12.3172 13.1779 12.1412 12.797 11.7337C11.9142 11.0111 11.4031 9.83469 11.5704 8.69531C11.8306 6.66665 13.0479 4.92516 14.3488 3.42451C14.4696 3.64683 14.3673 3.9062 14.451 4.13778C14.5625 4.62873 14.739 5.14748 15.1107 5.49948C15.566 5.08263 16.0493 4.66579 16.4396 4.1841C16.7927 3.66535 17.0807 3.09103 17.2015 2.47966C17.2294 1.70154 17.3038 0.886372 17.0063 0.14531L17.0342 0.015625ZM0.010887 9.26963C2.18526 9.28816 4.36893 9.25111 6.5434 9.28816C6.5434 11.4465 6.56189 13.6048 6.53402 15.7632C8.07662 15.791 9.61903 15.7724 11.1708 15.7724C11.1894 15.9392 11.1987 16.1059 11.1987 16.2727C11.1801 18.0512 11.208 19.8205 11.1801 21.599C9.62832 21.6176 8.08581 21.599 6.53402 21.6083C6.56189 24.8041 6.52472 27.9907 6.5526 31.1865C6.60835 31.4644 6.64552 31.7423 6.63623 32.0295C6.60826 32.289 6.76623 32.502 6.82207 32.7428C6.94287 33.2986 7.24952 33.7988 7.60253 34.2342C8.12298 34.753 8.79193 35.1142 9.50743 35.2716C10.1579 35.3736 10.8083 35.4291 11.4682 35.3828C11.5053 35.4939 11.5239 35.6051 11.5239 35.7255C11.5146 37.3929 11.5146 39.0603 11.5239 40.7184C11.5239 40.95 11.4775 41.1816 11.4403 41.4038C10.5018 41.4038 9.56337 41.4687 8.62476 41.4038C8.06723 41.2834 7.47262 41.339 6.93358 41.0981C5.43754 40.7461 4.00654 40.0051 2.93793 38.8842C1.36755 37.3744 0.521959 35.2438 0.178147 33.1318C0.0852248 32.9002 0.140978 32.6316 0.103716 32.3815C-0.0262817 31.872 0.0293786 31.3347 0.0107942 30.816C0.00159488 23.637 0.00159483 16.4487 0.010887 9.26963ZM31.7531 15.2722C32.1432 15.1703 32.5614 15.2444 32.9517 15.1611C33.7694 15.0592 34.5778 15.1889 35.3862 15.2167C35.9531 15.2074 36.5013 15.3741 37.0588 15.4853C39.131 15.9855 41.0916 17.0878 42.5134 18.6996C42.7642 19.1165 43.1452 19.4222 43.3867 19.8483C43.9907 20.8024 44.3904 21.8677 44.7341 22.9422C44.9479 23.7296 45.0593 24.5448 45.1616 25.3507C45.2081 27.1385 45.1802 28.9356 45.1895 30.7234C45.1802 34.2897 45.1988 37.8561 45.1802 41.4224C43.0058 41.3947 40.8408 41.4132 38.6757 41.4039C38.6571 41.3947 38.6106 41.3576 38.592 41.3391C38.5827 36.3463 38.592 31.3533 38.592 26.3696C38.6013 25.7583 38.4898 25.1654 38.3597 24.5818C38.1274 23.989 37.8301 23.4239 37.4212 22.9422C37.1795 22.6551 36.8451 22.4698 36.5755 22.2197C36.1574 21.9418 35.6649 21.8121 35.1911 21.6824C34.9402 21.6639 34.6893 21.6824 34.457 21.599C33.4627 21.5342 32.4499 21.6176 31.5207 21.9974C30.8422 22.3216 30.2104 22.7662 29.7644 23.3869C29.0304 24.2576 28.7888 25.4433 28.8073 26.5549C28.8073 31.5015 28.8166 36.4573 28.8073 41.4039C26.6143 41.4224 24.4214 41.3947 22.2285 41.4224C22.1913 36.6519 22.2285 31.872 22.2099 27.1014C22.2192 26.49 22.2006 25.8787 22.247 25.2672C22.3678 24.9615 22.2841 24.6281 22.377 24.3316C22.5443 23.2015 22.9717 22.127 23.4456 21.0987C23.9103 20.2002 24.4678 19.3387 25.1926 18.6254C25.7595 18.0511 26.3448 17.449 27.0604 17.0507C28.445 16.0874 30.0805 15.5038 31.7531 15.2722ZM109.622 15.2167C110.43 15.1981 111.229 15.0407 112.038 15.1703C112.474 15.2259 112.92 15.2167 113.357 15.2352C113.441 16.0411 113.376 16.8563 113.394 17.6622V20.9043C113.394 21.1081 113.422 21.3211 113.339 21.5157C113.125 21.3583 112.837 21.4138 112.595 21.3489C111.61 21.2657 110.597 21.312 109.668 21.6825C108.562 22.0623 107.596 22.8682 107.057 23.915C106.899 24.1095 106.899 24.3874 106.722 24.5726C106.434 25.6101 106.416 26.6939 106.434 27.7592C106.425 32.3167 106.462 36.865 106.416 41.4225C104.251 41.3947 102.076 41.4225 99.9018 41.404C99.8832 41.3855 99.8554 41.3484 99.8368 41.3299V26.4624C99.8089 25.8417 99.9483 25.2396 99.9391 24.6282C100.088 24.3318 100.051 23.9891 100.144 23.6834C100.608 21.3398 101.844 19.1258 103.721 17.6159C104.083 17.2083 104.604 17.0138 105.031 16.6896C106.416 15.8466 108.024 15.439 109.622 15.2167ZM13.308 15.7632C15.501 15.8002 17.694 15.7539 19.8869 15.7817C19.8869 24.2576 19.8776 32.7241 19.8869 41.1909C19.8869 41.2742 19.8869 41.441 19.7568 41.4132H13.3267C13.2709 40.0144 13.3173 38.6064 13.2987 37.2077C13.308 30.0657 13.2987 22.9144 13.308 15.7632ZM82.1168 32.9558C82.6744 32.7428 83.2133 32.4649 83.78 32.2704C84.5977 31.9555 85.3969 31.5757 86.2146 31.2607C87.9058 30.4827 89.6527 29.8343 91.3625 29.1024C91.7712 28.8801 92.2359 28.7782 92.6354 28.5373C93.0907 28.3613 93.5461 28.2038 93.9922 28C94.3824 27.7684 94.8285 27.6758 95.228 27.4721C95.7577 27.2589 96.2688 27.0182 96.8077 26.8236C97.356 26.5178 97.9692 26.3697 98.5175 26.0732C98.6662 25.9713 98.9077 25.9991 99.0006 25.8231C98.8427 25.6009 98.9262 25.323 98.8427 25.082C98.7218 24.6468 98.601 24.2205 98.4989 23.7945C98.0807 22.5069 97.4768 21.2749 96.659 20.2004C95.6648 18.7646 94.2988 17.6067 92.7842 16.7544C91.7899 16.1523 90.6749 15.8096 89.5598 15.5132C88.8722 15.4298 88.2124 15.189 87.5155 15.1982C86.8836 15.1148 86.2332 15.0778 85.6106 15.189C84.5048 15.2075 83.4455 15.4761 82.3955 15.7818C80.5649 16.421 78.8273 17.3936 77.4242 18.7368C77.006 19.1258 76.6622 19.5797 76.2626 19.9781C75.6401 20.7747 75.0732 21.6177 74.6458 22.5255C74.0418 23.8872 73.4657 25.3137 73.4006 26.8236C73.1963 27.5462 73.2613 28.3057 73.252 29.0468C73.2334 29.5192 73.3077 29.9824 73.4006 30.4363C73.3728 30.9179 73.5586 31.3626 73.6237 31.8258C73.7816 32.8077 74.2184 33.7154 74.6179 34.6232C75.7144 36.8649 77.4427 38.8102 79.6078 40.0793C81.0295 40.95 82.6092 41.5707 84.2632 41.8022C85.6106 42.0154 86.9951 42.0523 88.3518 41.8764C88.8164 41.9134 89.2624 41.7096 89.7271 41.6818C91.7063 41.2187 93.6484 40.385 95.1444 38.9862C95.5905 38.6342 96.0087 38.2174 96.3618 37.7726C96.9564 37.1705 97.3839 36.4388 97.8114 35.7163C98.2202 34.9473 98.5547 34.1322 98.7964 33.2893C98.6663 33.2336 98.5177 33.2522 98.3876 33.2522C96.2132 33.2616 94.0481 33.243 91.8737 33.2522C91.6693 33.2522 91.6693 33.5301 91.5391 33.6413C91.1674 34.1786 90.6935 34.6325 90.1918 35.0586C89.467 35.5774 88.6121 35.8553 87.7665 36.1053C87.5435 36.1332 87.3298 36.1239 87.1253 36.2073C86.605 36.2443 86.0753 36.2258 85.5457 36.2166C84.9602 36.1054 84.3748 35.9757 83.808 35.7905C82.9346 35.3458 82.0797 34.8364 81.42 34.1137C81.2526 33.91 80.9833 33.7525 80.9274 33.4838C81.0762 33.419 81.2156 33.3171 81.3827 33.2893C81.6522 33.243 81.8566 33.0299 82.1168 32.9558ZM79.4406 28.2686C79.3106 27.9444 79.4313 27.5646 79.4127 27.2219C79.5615 26.7493 79.6079 26.2492 79.7844 25.7767C80.2304 24.7299 80.7787 23.7018 81.5778 22.8773C81.9495 22.5716 82.2654 22.2011 82.6928 21.9695C83.0088 21.8027 83.3154 21.6175 83.6407 21.4693C84.2446 21.2934 84.8301 21.0155 85.462 21.0155C86.038 20.8765 86.6328 20.9506 87.2182 20.9598C88.7514 21.1729 90.294 21.8305 91.2881 23.044C91.3904 23.285 91.0465 23.3035 90.9072 23.3961C90.3032 23.7296 89.6248 23.8962 89.0208 24.2391C88.7514 24.2854 88.5191 24.4521 88.2589 24.5355C86.3354 25.3692 84.3747 26.1009 82.4698 26.9717C81.4478 27.3701 80.4349 27.7962 79.4406 28.2686ZM72.5179 4.44347C70.483 4.42494 68.4479 4.44347 66.413 4.4342C66.2642 4.45273 66.0878 4.38789 65.9669 4.49905C65.9855 8.85278 65.9669 13.2158 65.9763 17.5695C65.9669 17.727 66.0041 17.8845 65.9391 18.0327C65.7533 18.0049 65.6603 17.8289 65.521 17.727C64.5824 16.9211 63.5325 16.2356 62.3616 15.8373C61.5718 15.5316 60.7448 15.3741 59.9085 15.2259C58.9607 15.2074 58.0036 15.1796 57.0465 15.2352C56.9442 15.263 56.8513 15.2908 56.7492 15.3C54.6213 15.5964 52.6327 16.5876 50.9973 17.9493C50.0867 18.8015 49.176 19.6908 48.5349 20.7654C47.7822 21.8306 47.299 23.0534 46.8344 24.2576C46.6207 25.0172 46.4069 25.7675 46.314 26.5456C46.1374 27.7406 46.2117 28.9633 46.2303 30.1676C46.2768 30.4825 46.379 30.7789 46.3883 31.0939C46.5556 32.1129 46.8529 33.1133 47.2617 34.0674C47.6055 34.9845 48.163 35.8182 48.6741 36.6519C49.0365 37.115 49.3896 37.5967 49.8263 38.0043C50.4768 38.6435 51.1178 39.3382 51.9356 39.7828C52.9019 40.5146 54.0449 40.9501 55.16 41.3761C55.5688 41.4502 55.9498 41.6818 56.3679 41.6911C56.721 41.7189 57.0463 41.8856 57.3995 41.867C57.5853 41.8485 57.7526 41.9781 57.9476 41.9596C58.849 41.9874 59.7596 41.9874 60.6609 41.9596C60.8096 41.9596 60.9583 41.8948 61.1163 41.8855C61.7387 41.8948 62.3148 41.6539 62.9188 41.5706C63.7087 41.2834 64.5544 41.0981 65.2884 40.6721C66.3755 40.1719 67.3605 39.4679 68.2433 38.6712C69.3584 37.7079 70.2597 36.5036 70.9287 35.1882C71.2168 34.6046 71.542 34.0395 71.7279 33.4096C72.0811 32.5389 72.2389 31.6125 72.3598 30.6955C72.5642 29.8896 72.4992 29.0466 72.5177 28.2129C72.5179 20.2929 72.5179 12.3728 72.5179 4.44347ZM65.9112 29.5284C65.8555 30.5104 65.4838 31.4459 65.047 32.3259C64.313 33.7061 63.0771 34.7621 61.674 35.4291C61.4602 35.5403 61.1814 35.5311 61.0328 35.7348C60.7726 35.7348 60.5124 35.7442 60.2616 35.8368C59.4623 35.8553 58.6354 35.9294 57.8549 35.7071C57.5204 35.5496 57.1487 35.4849 56.8141 35.3088C56.396 35.0772 55.9221 34.9197 55.5783 34.5677C54.9278 34.1138 54.4261 33.4932 53.9707 32.854C53.6083 32.2334 53.2459 31.5942 53.0787 30.8902C52.8928 30.5197 52.9113 30.1028 52.8092 29.7138C52.7813 28.7227 52.7256 27.7037 52.9579 26.7403C53.0602 26.4346 53.1252 26.1103 53.2366 25.8047C53.5061 25.3136 53.6734 24.7672 54.0265 24.3225C54.2123 23.9335 54.5376 23.6462 54.7978 23.3128C55.4947 22.5162 56.4518 22.0067 57.4181 21.6084C57.7805 21.5251 58.1336 21.3399 58.5147 21.3399C59.286 21.1452 60.085 21.3028 60.8471 21.4418C61.8506 21.803 62.8449 22.3032 63.6254 23.0443C63.9135 23.3129 64.1271 23.6464 64.4153 23.915C65.6046 25.5081 66.1527 27.5553 65.9112 29.5284ZM109.566 38.1618H112.001C112.01 38.347 112.01 38.5323 112.001 38.7176C111.722 38.7546 111.443 38.7083 111.174 38.7454C111.136 39.5791 111.174 40.4035 111.155 41.2372C110.904 41.2187 110.653 41.2187 110.412 41.2279C110.384 40.5701 110.393 39.9032 110.402 39.2456C110.402 39.0696 110.439 38.8658 110.282 38.7454C110.04 38.7084 109.798 38.7547 109.557 38.7176C109.547 38.5323 109.547 38.347 109.566 38.1618ZM112.447 38.171C112.79 38.1617 113.134 38.1432 113.478 38.1895C113.46 38.4581 113.682 38.6434 113.748 38.8936C113.84 39.2084 113.98 39.5049 114.073 39.8199C114.147 39.9588 114.277 40.0793 114.231 40.2553C114.417 39.5326 114.705 38.8473 114.993 38.171C115.318 38.1617 115.652 38.1525 115.987 38.171C116.005 39.1621 115.987 40.1719 115.987 41.1631C115.764 41.1816 115.541 41.1816 115.309 41.1631C115.318 40.4683 115.309 39.7736 115.327 39.0881C115.244 39.1622 115.16 39.227 115.095 39.3197C114.974 39.9496 114.649 40.5239 114.491 41.1538C114.305 41.1817 114.128 41.1817 113.943 41.1632C113.887 40.8112 113.636 40.524 113.636 40.1627C113.385 39.857 113.376 39.4217 113.181 39.0789C113.051 39.329 113.153 39.6254 113.125 39.8941C113.088 40.3295 113.171 40.7741 113.088 41.2095C112.865 41.2095 112.614 41.2836 112.437 41.1261C112.465 40.1441 112.437 39.1622 112.447 38.171Z" fill="#6BBDD7" stroke="#6BBDD7" stroke-width="0.188247"/>
</g>
<defs>
<clipPath id="clip0_4095_2884">
<rect width="116" height="42" fill="white"/>
</clipPath>
</defs>
</svg>
