<svg width="168" height="35" viewBox="0 0 168 35" fill="none" xmlns="http://www.w3.org/2000/svg">
<path d="M54.741 4.12303C52.7519 2.12695 50.1073 1.02734 47.2937 1.02734C44.4827 1.02734 41.8404 2.12449 39.8514 4.11727L36.0905 7.89065L35.5094 8.47377L31.1707 4.11974C27.0664 0.00175416 20.3887 -0.000713348 16.2819 4.1148L4.22142 15.9169L4.21077 15.9276C2.22172 17.9237 1.12598 20.5777 1.12598 23.4012C1.12598 26.2246 2.22172 28.8786 4.21077 30.8747C6.19982 32.8708 8.84451 33.9704 11.658 33.9704C14.4691 33.9704 17.1113 32.8733 19.1004 30.8805L22.8613 27.1071L23.4423 26.524L27.781 30.878C31.8862 34.9968 38.5631 34.9993 42.6706 30.8838L54.7312 19.0817L54.7418 19.071C56.7309 17.0749 57.8266 14.4209 57.8266 11.5974C57.8258 8.77314 56.7309 6.1191 54.741 4.12303ZM16.2811 27.7338L15.9582 28.0455C13.4569 30.3813 9.60669 30.3122 7.18983 27.886C5.99657 26.6885 5.33929 25.0954 5.33929 23.402C5.33929 21.7102 5.99493 20.1204 7.18492 18.9229L19.4265 6.94813C21.9278 4.61485 25.7756 4.68558 28.1925 7.11097L32.5123 11.4461L16.2811 27.7338ZM51.7677 16.0756L39.5252 28.0504C37.0239 30.3837 33.1761 30.313 30.7593 27.8876L26.4394 23.5525L42.6706 7.26395L42.9935 6.95224C45.4948 4.6165 49.3451 4.68558 51.7619 7.1118C52.9552 8.30928 53.6125 9.90236 53.6125 11.5958C53.6133 13.2884 52.9576 14.879 51.7677 16.0756Z" fill="#6BBDD7"/>
<path d="M70.9625 9.51953V20.0263L62.3154 9.51953H59.6748V25.4824H62.8743V14.9493L71.5108 25.4824H74.171V9.51953H70.9625ZM84.0868 9.51953C79.5637 9.51953 76.0199 13.0256 76.0199 17.5005C76.0199 21.9755 79.5637 25.4816 84.0868 25.4816C88.6049 25.4816 92.1446 21.9755 92.1446 17.5005C92.1446 13.0256 88.6058 9.51953 84.0868 9.51953ZM84.0868 22.3867C81.3511 22.3867 79.2088 20.2409 79.2088 17.5014C79.2088 14.7618 81.3511 12.616 84.0868 12.616C86.8167 12.616 88.9549 14.7618 88.9549 17.5014C88.9549 20.2409 86.8167 22.3867 84.0868 22.3867ZM103.315 9.51953L99.1108 20.6768L94.9065 9.51953H91.4848L97.7192 25.4824H100.493L106.737 9.51953H103.315ZM114.144 9.51953C109.62 9.51953 106.076 13.0256 106.076 17.5005C106.076 21.9755 109.62 25.4816 114.144 25.4816C118.662 25.4816 122.201 21.9755 122.201 17.5005C122.201 13.0256 118.662 9.51953 114.144 9.51953ZM114.144 22.3867C111.408 22.3867 109.266 20.2409 109.266 17.5014C109.266 14.7618 111.408 12.616 114.144 12.616C116.874 12.616 119.012 14.7618 119.012 17.5014C119.012 20.2409 116.874 22.3867 114.144 22.3867ZM135.347 9.51953V20.0263L126.7 9.51953H124.06V25.4824H127.259V14.9493L135.895 25.4824H138.557V9.51953H135.347ZM139.854 9.51953V12.5831H143.83V25.4824H147.097V12.5831H151.065V9.51953H139.854ZM158.817 9.51953C154.293 9.51953 150.749 13.0256 150.749 17.5005C150.749 21.9755 154.293 25.4816 158.817 25.4816C163.335 25.4816 166.874 21.9755 166.874 17.5005C166.874 13.0256 163.335 9.51953 158.817 9.51953ZM158.817 22.3867C156.081 22.3867 153.939 20.2409 153.939 17.5014C153.939 14.7618 156.081 12.616 158.817 12.616C161.547 12.616 163.685 14.7618 163.685 17.5014C163.685 20.2409 161.547 22.3867 158.817 22.3867Z" fill="#6BBDD7"/>
</svg>
