<svg width="128" height="33" viewBox="0 0 128 33" fill="none" xmlns="http://www.w3.org/2000/svg">
<g clip-path="url(#clip0_4095_2900)">
<path fill-rule="evenodd" clip-rule="evenodd" d="M40.9502 25.9829L42.5476 22.2009C44.2731 23.5155 46.572 24.1989 48.8401 24.1989C50.5144 24.1989 51.5742 23.5416 51.5742 22.5452C51.5486 19.7596 41.5441 21.9401 41.4673 14.9551C41.4417 11.4078 44.5342 8.67436 48.9169 8.67436C51.523 8.67436 54.124 9.33165 55.9825 10.8288L54.4875 14.6891C52.7876 13.5831 50.6731 12.7954 48.6609 12.7954C47.2939 12.7954 46.3928 13.4527 46.3928 14.2926C46.4184 17.0261 56.4996 15.5289 56.602 22.2009C56.602 25.8264 53.5864 28.3773 49.2548 28.3773C46.0804 28.3721 43.1672 27.6105 40.9502 25.9829ZM102.293 20.8342C101.494 22.2531 99.9992 23.2234 98.2686 23.2234C95.7137 23.2234 93.6555 21.1211 93.6555 18.5232C93.6555 15.9254 95.7188 13.8231 98.2686 13.8231C99.994 13.8231 101.494 14.7934 102.293 16.2123L106.701 13.7188C105.053 10.7245 101.878 8.67436 98.2686 8.67436C92.9284 8.67436 88.5969 13.0876 88.5969 18.5285C88.5969 23.9693 92.9284 28.3825 98.2686 28.3825C101.904 28.3825 105.053 26.3585 106.701 23.3381L102.293 20.8342ZM58.819 0.5H64.3384V28.007H58.819V0.5ZM108.867 0.5V28.007H114.386V19.7543L120.935 28.007H128L119.67 18.205L127.381 9.06039H120.623L114.381 16.6505V0.5H108.867Z" fill="#6BBDD7"/>
<path d="M80.7369 20.8891C79.9382 22.2297 78.2895 23.2261 76.431 23.2261C73.8761 23.2261 71.8178 21.1238 71.8178 18.526C71.8178 15.9281 73.8812 13.8258 76.431 13.8258C78.2895 13.8258 79.9382 14.8744 80.7369 16.2411V20.8891ZM80.7369 9.06833V11.301C79.8358 9.7517 77.5932 8.67188 75.2431 8.67188C70.3945 8.67188 66.5801 13.0329 66.5801 18.4999C66.5801 23.9668 70.3945 28.3801 75.2431 28.3801C77.5881 28.3801 79.8306 27.3055 80.7369 25.7509V27.9836H86.2562V9.06833H80.7369Z" fill="#6BBDD7"/>
<path fill-rule="evenodd" clip-rule="evenodd" d="M6.83499 20.8596C6.83499 22.7793 5.31435 24.3287 3.43019 24.3287C1.54603 24.3287 0.0253906 22.7741 0.0253906 20.8596C0.0253906 18.9452 1.54603 17.3906 3.43019 17.3906H6.83499V20.8596ZM8.53483 20.8596C8.53483 18.9399 10.0555 17.3906 11.9396 17.3906C13.8238 17.3906 15.3444 18.9399 15.3444 20.8596V29.5296C15.3444 31.4493 13.8238 32.9986 11.9396 32.9986C10.0555 32.9986 8.53483 31.4493 8.53483 29.5296V20.8596Z" fill="#6BBDD7"/>
<path fill-rule="evenodd" clip-rule="evenodd" d="M11.9398 6.93803C10.0557 6.93803 8.53504 5.38871 8.53504 3.46902C8.53504 1.54932 10.0557 0 11.9398 0C13.824 0 15.3446 1.54932 15.3446 3.46902V6.93803H11.9398ZM11.9398 8.69602C13.824 8.69602 15.3446 10.2453 15.3446 12.165C15.3446 14.0847 13.824 15.6341 11.9398 15.6341H3.4048C1.52064 15.6341 0 14.0795 0 12.165C0 10.2506 1.52064 8.69602 3.4048 8.69602H11.9398Z" fill="#6BBDD7"/>
<path fill-rule="evenodd" clip-rule="evenodd" d="M25.5795 12.165C25.5795 10.2453 27.1001 8.69602 28.9843 8.69602C30.8685 8.69602 32.3891 10.2453 32.3891 12.165C32.3891 14.0847 30.8685 15.6341 28.9843 15.6341H25.5795V12.165ZM23.8797 12.165C23.8797 14.0847 22.359 15.6341 20.4749 15.6341C18.5907 15.6341 17.0701 14.0847 17.0701 12.165V3.46902C17.0701 1.54932 18.5907 0 20.4749 0C22.359 0 23.8797 1.54932 23.8797 3.46902V12.165Z" fill="#6BBDD7"/>
<path fill-rule="evenodd" clip-rule="evenodd" d="M20.4751 26.0606C22.3593 26.0606 23.8799 27.6099 23.8799 29.5296C23.8799 31.4493 22.3593 32.9986 20.4751 32.9986C18.591 32.9986 17.0703 31.4493 17.0703 29.5296V26.0606H20.4751ZM20.4751 24.3287C18.591 24.3287 17.0703 22.7793 17.0703 20.8596C17.0703 18.9399 18.591 17.3906 20.4751 17.3906H29.0102C30.8943 17.3906 32.415 18.9399 32.415 20.8596C32.415 22.7793 30.8943 24.3287 29.0102 24.3287H20.4751Z" fill="#6BBDD7"/>
</g>
<defs>
<clipPath id="clip0_4095_2900">
<rect width="128" height="33" fill="white"/>
</clipPath>
</defs>
</svg>
