<svg width="132" height="42" viewBox="0 0 132 42" fill="none" xmlns="http://www.w3.org/2000/svg">
<g clip-path="url(#clip0_4095_2889)">
<path d="M-0.000976562 33.8818V8.35075L22.5998 0.00390625L34.8825 3.93074V38.3005L22.5998 42.0006L-0.000976562 33.8818L22.5998 36.5996V6.87852L7.86007 10.3155V30.4461L-0.000313228 33.8818H-0.000976562ZM58.9532 34.0608C55.3965 34.0608 52.5468 32.8882 50.4063 30.5449C48.2651 28.203 47.1958 25.1538 47.1958 21.4C47.1958 17.3671 48.2863 14.1495 50.4673 11.7486C52.6483 9.3477 55.6173 8.14725 59.3724 8.14725C62.837 8.14725 65.6276 9.31323 67.7449 11.6439C69.8622 13.9759 70.9209 17.0237 70.9209 20.7888C70.9209 24.88 69.835 28.1142 67.666 30.4932C65.4969 32.8722 62.5935 34.0608 58.9532 34.0608ZM59.1628 10.8054C56.5268 10.8054 54.3869 11.7559 52.7418 13.6557C51.0968 15.5555 50.2743 18.0505 50.2743 21.1388C50.2743 24.2271 51.0769 26.7135 52.6802 28.5961C54.2834 30.4786 56.3749 31.4199 58.9525 31.4199C61.7047 31.4199 63.8751 30.5224 65.4611 28.7273C67.0471 26.9323 67.8411 24.4207 67.8411 21.1918C67.8411 17.8808 67.0703 15.3228 65.5307 13.5158C63.9925 11.7095 61.8692 10.8047 59.1628 10.8047V10.8054ZM81.3762 6.74727C79.7544 6.74727 78.4071 7.29944 77.3233 8.3892C76.2387 9.47829 75.6955 10.9618 75.6955 12.8384V15.7391H72.6402V18.1937H75.6955V33.6432H78.5518V18.1937H85.5365V33.6432H88.3928V18.1937H92.585V15.7391H88.3928V12.9769C88.3928 10.4481 89.3964 9.18795 91.4023 9.18795C92.1141 9.18795 92.7469 9.33378 93.306 9.64798V7.07075C92.7933 6.86128 92.1081 6.74793 91.2338 6.74793C89.612 6.74793 88.2495 7.30076 87.165 8.38986C86.0798 9.47961 85.5372 10.9631 85.5372 12.839V15.7397H78.5518V12.9782C78.5518 10.4487 79.5534 9.18861 81.5606 9.18861C82.2717 9.18861 82.9045 9.33445 83.4643 9.64865V7.07141C82.9509 6.85996 82.2511 6.74727 81.3762 6.74727ZM96.7573 11.1885C96.5145 11.1929 96.2733 11.1488 96.0478 11.0586C95.8224 10.9685 95.6173 10.8341 95.4446 10.6635C95.0831 10.3135 94.902 9.87137 94.902 9.33511C94.902 8.79885 95.0831 8.3534 95.4446 7.9981C95.616 7.82513 95.8206 7.68866 96.0463 7.59695C96.2719 7.50523 96.5138 7.46018 96.7573 7.46449C97.282 7.46449 97.7278 7.64148 98.0959 7.9981C98.464 8.3534 98.6465 8.79885 98.6465 9.33511C98.6505 9.57993 98.6036 9.82293 98.5089 10.0487C98.4141 10.2745 98.2735 10.4782 98.0959 10.6469C97.7284 11.0075 97.282 11.1885 96.7573 11.1885ZM98.1569 33.6379H95.2874V15.7338H98.1563V33.6379H98.1569ZM114.459 32.8166C113.083 33.6438 111.449 34.0581 109.56 34.0581C107.006 34.0581 104.944 33.2276 103.376 31.5657C101.808 29.9039 101.021 27.7523 101.021 25.1054C101.021 22.1557 101.867 19.7872 103.558 17.9981C105.251 16.2084 107.507 15.3142 110.33 15.3142C111.904 15.3142 113.293 15.6058 114.494 16.1892V19.1257C113.165 18.1937 111.741 17.727 110.225 17.727C108.393 17.727 106.892 18.3833 105.719 19.6944C104.547 21.0062 103.961 22.7277 103.961 24.8608C103.961 26.9595 104.512 28.6146 105.613 29.827C106.716 31.0388 108.194 31.6446 110.05 31.6446C111.612 31.6446 113.083 31.1256 114.459 30.0889V32.8166ZM131.999 25.4037H119.349C119.396 27.3963 119.933 28.9348 120.958 30.0193C121.986 31.1024 123.396 31.6446 125.193 31.6446C127.211 31.6446 129.066 30.9804 130.757 29.6514V32.3439C129.183 33.4861 127.1 34.0575 124.511 34.0575C121.98 34.0575 119.99 33.2448 118.545 31.6181C117.098 29.9914 116.375 27.7052 116.375 24.7554C116.375 21.9694 117.165 19.6991 118.745 17.9444C120.326 16.1898 122.289 15.3135 124.633 15.3135C126.977 15.3135 128.791 16.0712 130.074 17.5865C131.357 19.1018 131.998 21.2058 131.998 23.8983V25.403L131.999 25.4037ZM129.06 22.973C129.049 21.3178 128.649 20.0298 127.861 19.1091C127.074 18.1877 125.98 17.7277 124.581 17.7277C123.227 17.7277 122.079 18.2122 121.134 19.1794C120.189 20.1472 119.606 21.4119 119.385 22.973H129.06Z" fill="#6BBDD7"/>
</g>
<defs>
<clipPath id="clip0_4095_2889">
<rect width="132" height="42" fill="white"/>
</clipPath>
</defs>
</svg>
