<svg width="159" height="35" viewBox="0 0 159 35" fill="none" xmlns="http://www.w3.org/2000/svg">
<g clip-path="url(#clip0_4095_2886)">
<path d="M6.19808 31.9641C7.64982 31.9641 8.72499 31.7721 9.42613 31.3872C10.1268 31.0033 10.4766 30.3883 10.4766 29.5427C10.4766 28.6718 10.1323 27.9801 9.44531 27.4667C8.7578 26.9548 7.62408 26.3779 6.04514 25.7375C5.30568 25.4409 4.57322 25.127 3.84835 24.796C3.14772 24.4761 2.543 24.0982 2.03368 23.6625C1.52371 23.2265 1.10767 22.6903 0.811107 22.0867C0.505717 21.4712 0.35277 20.7166 0.35277 19.8187C0.35277 18.0509 1.00242 16.6478 2.30121 15.6103C3.59949 14.5728 5.36974 14.0538 7.61146 14.0538C8.17125 14.0538 8.73206 14.0858 9.29236 14.1497C9.85216 14.2142 10.3751 14.2909 10.8587 14.3803C11.2892 14.4584 11.7162 14.5544 12.1388 14.6682C12.5073 14.7708 12.794 14.8602 12.9984 14.9369L12.3488 18.0123C11.9667 17.8077 11.368 17.5959 10.5528 17.378C9.73758 17.1602 8.7573 17.051 7.61146 17.051C6.61806 17.051 5.75186 17.2501 5.01388 17.6472C4.27488 18.0443 3.9064 18.6654 3.9064 19.511C3.9064 19.9472 3.98868 20.3311 4.15424 20.6642C4.31981 20.9974 4.57472 21.2985 4.91847 21.5672C5.26273 21.8363 5.68826 22.0862 6.19859 22.3167C6.7074 22.5473 7.31919 22.7916 8.03194 23.047C8.88491 23.3682 9.72592 23.7208 10.5533 24.1038C11.2918 24.4497 11.9222 24.8534 12.4442 25.3145C12.9649 25.7742 13.3763 26.3457 13.6481 26.9868C13.9282 27.6399 14.0681 28.4407 14.0681 29.3883C14.0681 31.2333 13.3861 32.6304 12.0242 33.578C10.6613 34.5261 8.71944 34.9999 6.19859 34.9999C4.44096 34.9999 3.06594 34.8527 2.07204 34.5581C1.07864 34.2641 0.403247 34.0396 0.046875 33.8862L0.696018 30.8113C1.10337 30.9652 1.75302 31.1957 2.64446 31.503C3.53589 31.8107 4.7201 31.9641 6.19808 31.9641ZM23.8769 23.5472C24.6411 24.1368 25.4493 24.8671 26.3033 25.7375C27.1847 26.6412 28.026 27.5837 28.8247 28.5621C29.6413 29.5606 30.4246 30.5862 31.1734 31.637C31.9124 32.6746 32.5358 33.6425 33.0456 34.5388H28.8817C28.3467 33.6425 27.7293 32.7263 27.0287 31.7909C26.3281 30.8555 25.5961 29.9597 24.8319 29.1004C24.0967 28.2721 23.3188 27.4832 22.5014 26.7369C21.7124 26.0199 20.9603 25.4176 20.2475 24.9306V34.5388H16.6949V8.36499L20.2475 7.75V22.9317L22.2722 20.8948C23.011 20.1515 23.7369 19.3953 24.4498 18.6268C25.1293 17.8943 25.8044 17.1576 26.475 16.4167C27.111 15.7123 27.6592 15.0913 28.1175 14.553H32.2814C31.6409 15.2538 31.0043 15.9584 30.3718 16.6666C29.6691 17.4514 28.9557 18.2266 28.2321 18.9919C27.4931 19.774 26.7485 20.5551 25.9969 21.3366C25.2453 22.1182 24.5391 22.8556 23.8769 23.5472ZM41.9035 14.0538C43.3294 14.0538 44.5328 14.2396 45.5131 14.6114C46.4934 14.9831 47.2834 15.5087 47.8815 16.1877C48.4797 16.8667 48.9067 17.6736 49.1616 18.609C49.4155 19.5445 49.5438 20.5754 49.5438 21.7028V34.193C49.2384 34.2453 48.8113 34.3154 48.2641 34.4047C47.716 34.4951 47.0986 34.5779 46.4111 34.6546C45.7236 34.7313 44.978 34.8014 44.176 34.8659C43.3734 34.9293 42.5773 34.9613 41.7884 34.9613C40.6673 34.9613 39.636 34.8466 38.6941 34.6155C37.7517 34.3849 36.937 34.0198 36.2489 33.5201C35.5614 33.0209 35.0264 32.3617 34.6443 31.5411C34.2621 30.7219 34.0713 29.7347 34.0713 28.5819C34.0713 27.4804 34.2934 26.5323 34.7397 25.7375C35.1751 24.9542 35.799 24.2934 36.5543 23.8159C37.3186 23.3294 38.2095 22.9703 39.2286 22.7398C40.2822 22.5052 41.3584 22.389 42.4375 22.3934C42.7939 22.3934 43.1634 22.4127 43.545 22.4513C43.9276 22.4894 44.2905 22.5412 44.6338 22.6052C44.977 22.6692 45.2764 22.7266 45.5313 22.7784C45.7857 22.8302 45.9639 22.8683 46.0669 22.8936V21.8942C46.0669 21.3051 46.0027 20.7216 45.8755 20.1457C45.7574 19.5901 45.523 19.0661 45.188 18.6085C44.8569 18.1606 44.4046 17.8011 43.8317 17.5324C43.2583 17.2633 42.5137 17.1287 41.5966 17.1287C40.425 17.1287 39.3998 17.2125 38.5209 17.3786C37.6426 17.5456 36.9864 17.7188 36.5538 17.8971L36.1334 14.9374C36.5917 14.7332 37.3559 14.5342 38.426 14.3417C39.4967 14.1497 40.6551 14.0538 41.9035 14.0538ZM42.2088 31.9641C42.9543 31.9665 43.6996 31.9474 44.444 31.9067C45.0931 31.8681 45.6338 31.7975 46.0679 31.6954V25.738C45.8124 25.6101 45.399 25.5014 44.8256 25.411C44.2527 25.3216 43.5586 25.2764 42.7439 25.2764C42.2088 25.2764 41.642 25.3145 41.0438 25.3917C40.4457 25.4689 39.8975 25.6288 39.4013 25.8721C38.917 26.1056 38.4923 26.4475 38.1595 26.8715C37.8284 27.2945 37.6633 27.8516 37.6633 28.5433C37.6633 29.8246 38.0702 30.7148 38.8854 31.2145C39.7006 31.7142 40.8081 31.9641 42.2088 31.9641ZM66.3528 8.3655L69.9054 7.75051L69.8969 33.9629C69.0816 34.193 68.0373 34.424 66.7642 34.6546C65.4907 34.8852 64.0258 35.0004 62.3711 35.0004C60.8432 35.0004 59.4677 34.7572 58.2451 34.2702C57.0225 33.7832 55.9781 33.092 55.1124 32.1946C54.2457 31.2978 53.5774 30.2024 53.1065 28.9084C52.6345 27.6145 52.3998 26.16 52.3998 24.5456C52.3998 23.0084 52.5971 21.5992 52.9924 20.3184C53.3866 19.0371 53.9666 17.9351 54.7303 17.0124C55.4946 16.0907 56.4299 15.3731 57.5379 14.8602C58.6454 14.3478 59.9124 14.0913 61.3389 14.0913C62.4852 14.0913 63.4968 14.2457 64.3761 14.553C65.2549 14.8597 65.9101 15.1553 66.3437 15.4366L66.3528 8.3655ZM66.3447 18.7812C65.9111 18.4227 65.2872 18.0768 64.4725 17.7432C63.6573 17.4105 62.7659 17.244 61.7982 17.244C60.7791 17.244 59.9068 17.4298 59.181 17.8011C58.4719 18.1583 57.8617 18.6863 57.4046 19.3383C56.9458 19.9914 56.6147 20.7668 56.4112 21.6637C56.2068 22.561 56.1053 23.5218 56.1053 24.5461C56.1053 26.8786 56.6788 28.6784 57.8246 29.9465C58.9705 31.2145 60.4989 31.8493 62.409 31.8493C63.3767 31.8493 64.1858 31.8046 64.835 31.7142C65.4846 31.6243 65.9868 31.5289 66.3442 31.4263V18.7812H66.3447ZM80.8924 14.0538C82.3189 14.0538 83.5218 14.2396 84.5026 14.6114C85.4823 14.9831 86.2728 15.5087 86.871 16.1877C87.4691 16.8667 87.8957 17.6736 88.1511 18.609C88.405 19.5445 88.5327 20.5754 88.5327 21.7028V34.193C88.2273 34.2453 87.8003 34.3154 87.2531 34.4047C86.7049 34.4951 86.0876 34.5779 85.4001 34.6546C84.7125 34.7313 83.9675 34.8014 83.1654 34.8659C82.3628 34.9293 81.5663 34.9613 80.7778 34.9613C79.6567 34.9613 78.6249 34.8466 77.6835 34.6155C76.7406 34.3849 75.9264 34.0198 75.2379 33.5201C74.5509 33.0209 74.0158 32.3617 73.6337 31.5411C73.2516 30.7219 73.0603 29.7347 73.0603 28.5819C73.0603 27.4804 73.2829 26.5323 73.7286 25.7375C74.164 24.9542 74.788 24.2934 75.5433 23.8159C76.3075 23.3294 77.199 22.9703 78.2181 22.7398C79.2717 22.5052 80.3479 22.389 81.427 22.3934C81.7833 22.3934 82.1528 22.4127 82.5344 22.4513C82.8994 22.4872 83.2626 22.5386 83.6232 22.6052C83.9227 22.6605 84.2217 22.7182 84.5202 22.7784C84.7751 22.8302 84.9528 22.8683 85.0558 22.8936V21.8942C85.0558 21.3051 84.9917 20.7216 84.8645 20.1457C84.7463 19.5902 84.5121 19.0662 84.1775 18.6085C83.8464 18.1606 83.3941 17.8011 82.8206 17.5324C82.2472 17.2633 81.5027 17.1287 80.586 17.1287C79.4144 17.1287 78.3887 17.2125 77.5104 17.3786C76.6316 17.5456 75.9754 17.7188 75.5428 17.8971L75.1228 14.9374C75.5811 14.7332 76.3454 14.5342 77.415 14.3417C78.4861 14.1497 79.6441 14.0538 80.8924 14.0538ZM81.1983 31.9641C81.9437 31.9665 82.6891 31.9474 83.4334 31.9067C84.0831 31.8681 84.6232 31.7975 85.0573 31.6954V25.738C84.8019 25.6101 84.389 25.5014 83.8156 25.411C83.2421 25.3216 82.5486 25.2764 81.7334 25.2764C81.1983 25.2764 80.6314 25.3145 80.0333 25.3917C79.4351 25.4689 78.8874 25.6288 78.3907 25.8721C77.9065 26.1056 77.4817 26.4475 77.149 26.8715C76.8178 27.2945 76.6528 27.8516 76.6528 28.5433C76.6528 29.8246 77.0601 30.7148 77.8754 31.2145C78.6896 31.7142 79.797 31.9641 81.1983 31.9641ZM94.9328 14.5535H102.458V17.5512H94.9328V26.775C94.9328 27.7744 95.009 28.6012 95.1619 29.2543C95.3149 29.9079 95.5441 30.4208 95.8494 30.7915C96.1548 31.1632 96.5369 31.4258 96.9958 31.5797C97.4546 31.7335 97.9892 31.8102 98.6005 31.8102C99.6701 31.8102 100.53 31.6888 101.179 31.4451C101.633 31.2768 102.085 31.104 102.535 30.9266L103.223 33.8857C102.866 34.0655 102.242 34.289 101.351 34.5581C100.459 34.8273 99.4409 34.9613 98.2946 34.9613C96.9443 34.9613 95.8303 34.7887 94.9519 34.4428C94.0736 34.097 93.3664 33.5785 92.8319 32.8868C92.2973 32.1952 91.9208 31.3435 91.7052 30.3309C91.4882 29.3193 91.3796 28.1467 91.3796 26.8141V8.3655L94.9328 7.75051V14.5535ZM104.709 24.5847C104.709 22.817 104.963 21.2731 105.473 19.9533C105.982 18.6339 106.658 17.5385 107.498 16.6671C108.315 15.812 109.305 15.1435 110.402 14.7068C111.471 14.2767 112.612 14.0551 113.763 14.0538C116.438 14.0538 118.487 14.8932 119.914 16.5711C121.34 18.25 122.053 20.8059 122.053 24.2394V24.8351C122.053 25.0789 122.04 25.3028 122.016 25.5075H108.415C108.568 27.583 109.166 29.1583 110.211 30.2354C111.255 31.311 112.885 31.8498 115.101 31.8498C116.349 31.8498 117.399 31.7406 118.253 31.5228C119.106 31.3049 119.749 31.0937 120.182 30.8885L120.678 33.8862C120.245 34.1168 119.488 34.3606 118.405 34.6165C117.322 34.8725 116.094 35.0009 114.718 35.0009C112.986 35.0009 111.49 34.7379 110.23 34.2128C108.969 33.6882 107.931 32.964 107.116 32.0418C106.301 31.1196 105.696 30.0236 105.301 28.7556C104.906 27.4865 104.709 26.0971 104.709 24.5847ZM118.347 22.625C118.373 21.0101 117.971 19.6846 117.144 18.6466C116.316 17.6091 115.176 17.0901 113.725 17.0901C112.909 17.0901 112.19 17.2506 111.567 17.571C110.961 17.8769 110.421 18.3014 109.981 18.8198C109.541 19.3437 109.199 19.9423 108.969 20.5876C108.728 21.2449 108.568 21.929 108.491 22.625H118.347Z" fill="#6BBDD7"/>
<path d="M141.316 0.00454403C131.429 -0.190465 123.284 5.91524 123.133 13.6795C123.078 16.3766 124.002 19.1037 125.638 21.064H125.636C127.458 23.2471 126.148 24.9276 125.156 25.4425C130.72 27.8552 138.537 28.0558 140.771 28.102C150.657 28.3001 158.801 22.1685 158.951 14.4073C159.103 6.64703 151.206 0.202092 141.316 0.00454403ZM147.255 14.8679C146.353 16.6052 144.625 18.3587 141.044 21.0355C137.461 18.3587 135.732 16.6052 134.829 14.8679C133.953 13.2093 134.19 10.4329 136.338 9.2766C137.916 8.42648 139.916 8.87033 141.044 10.2913C142.164 8.87033 144.169 8.42648 145.744 9.2766C147.894 10.4329 148.13 13.2098 147.255 14.8679Z" fill="#6BBDD7"/>
</g>
<defs>
<clipPath id="clip0_4095_2886">
<rect width="159" height="35" fill="white"/>
</clipPath>
</defs>
</svg>
