<svg width="461" height="461" viewBox="0 0 461 461" fill="none" xmlns="http://www.w3.org/2000/svg">
<g clip-path="url(#clip0_4170_5940)">
<path d="M230.472 460.882C357.742 460.882 460.915 357.709 460.915 230.439C460.915 103.169 357.742 -0.00390625 230.472 -0.00390625C103.202 -0.00390625 0.0292969 103.169 0.0292969 230.439C0.0292969 357.709 103.202 460.882 230.472 460.882Z" fill="#04617E"/>
<path d="M391.53 253.229C391.363 253.229 391.252 253.174 391.14 253.062C391.029 252.951 390.974 252.84 390.974 252.673V248.615C389.083 248.226 387.193 247.781 385.359 247.114L383.357 250.672C383.302 250.783 383.19 250.894 383.024 250.95C382.857 251.005 382.746 250.95 382.579 250.894L369.236 243.278C368.958 243.111 368.902 242.777 369.014 242.499L371.015 238.941C369.569 237.663 368.18 236.328 366.845 234.827L363.343 236.884C363.232 236.94 363.065 236.995 362.898 236.94C362.731 236.884 362.62 236.829 362.564 236.662L354.837 223.43C354.67 223.152 354.781 222.819 355.059 222.652L358.562 220.595C357.95 218.76 357.394 216.87 357.005 214.98H352.946C352.78 214.98 352.668 214.924 352.557 214.813C352.446 214.702 352.39 214.59 352.39 214.424L352.279 199.079C352.279 198.746 352.502 198.523 352.835 198.523H356.894C357.227 196.633 357.728 194.743 358.339 192.908L354.781 190.907C354.503 190.74 354.448 190.406 354.559 190.129L362.12 176.786C362.175 176.674 362.286 176.563 362.453 176.508C362.62 176.452 362.731 176.508 362.898 176.563L366.456 178.565C367.735 177.119 369.069 175.729 370.57 174.395L368.513 170.893C368.346 170.615 368.458 170.281 368.736 170.114L381.967 162.331C382.078 162.275 382.245 162.22 382.412 162.275C382.579 162.331 382.69 162.386 382.746 162.553L384.803 166.056C386.637 165.444 388.527 164.888 390.418 164.499V160.441C390.418 160.107 390.64 159.885 390.974 159.885L406.318 159.773C406.485 159.773 406.596 159.829 406.707 159.94C406.818 160.051 406.874 160.163 406.874 160.329V164.388C408.764 164.777 410.654 165.222 412.489 165.889L414.491 162.331C414.546 162.22 414.657 162.108 414.824 162.053C414.991 161.997 415.102 162.053 415.269 162.108L428.612 169.725C428.89 169.892 428.945 170.225 428.834 170.503L426.833 174.061C428.278 175.34 429.668 176.674 431.002 178.176L434.505 176.118C434.616 176.063 434.783 176.007 434.95 176.063C435.116 176.118 435.228 176.174 435.283 176.341L443.011 189.573C443.178 189.851 443.067 190.184 442.789 190.351L439.286 192.408C439.898 194.243 440.454 196.133 440.843 198.023H444.901C445.179 198.023 445.457 198.245 445.457 198.579L445.568 213.923C445.568 214.257 445.346 214.479 445.012 214.479H440.954C440.565 216.37 440.12 218.26 439.453 220.094L443.011 222.096C443.289 222.263 443.345 222.596 443.233 222.874L435.672 236.217C435.617 236.328 435.506 236.439 435.339 236.495C435.172 236.551 435.061 236.495 434.894 236.439L431.336 234.438C430.057 235.884 428.723 237.273 427.222 238.608L429.279 242.11C429.446 242.388 429.334 242.722 429.057 242.889L415.825 250.672C415.714 250.727 415.547 250.783 415.38 250.727C415.213 250.672 415.102 250.616 415.046 250.45L412.989 246.947C411.155 247.559 409.265 248.115 407.374 248.504V252.562C407.374 252.896 407.152 253.118 406.818 253.118L391.53 253.229ZM385.025 245.946C385.081 245.946 385.136 245.946 385.192 246.002C387.249 246.725 389.417 247.281 391.53 247.67C391.808 247.725 391.974 247.948 391.974 248.226V252.229L406.207 252.117V248.114C406.207 247.837 406.374 247.614 406.652 247.559C408.82 247.169 410.932 246.558 412.989 245.835C413.267 245.724 413.545 245.835 413.657 246.057L415.658 249.504L427.945 242.333L425.943 238.886C425.832 238.663 425.832 238.385 426.054 238.163C427.722 236.717 429.279 235.161 430.669 233.493C430.836 233.271 431.114 233.215 431.392 233.382L434.838 235.328L441.843 222.93L438.397 220.984C438.174 220.873 438.063 220.595 438.174 220.317C438.897 218.26 439.453 216.092 439.842 213.979C439.898 213.701 440.12 213.534 440.398 213.534H444.345L444.234 199.302H440.231C439.953 199.302 439.731 199.135 439.675 198.857C439.286 196.689 438.675 194.576 437.952 192.519C437.841 192.241 437.952 191.963 438.174 191.852L441.621 189.851L434.449 177.564L431.002 179.565C430.78 179.677 430.502 179.677 430.28 179.454C428.834 177.786 427.277 176.23 425.61 174.84C425.387 174.673 425.332 174.395 425.498 174.117L427.444 170.67L415.102 163.61L413.156 167.056C413.045 167.279 412.767 167.39 412.489 167.334C410.432 166.612 408.319 166.056 406.151 165.667C405.873 165.611 405.706 165.389 405.706 165.111V161.108L391.474 161.219V165.222C391.474 165.5 391.307 165.722 391.029 165.778C388.861 166.167 386.748 166.778 384.691 167.501C384.413 167.612 384.135 167.501 384.024 167.279L382.023 163.832L369.736 171.004L371.738 174.451C371.849 174.673 371.849 174.951 371.627 175.173C369.959 176.619 368.402 178.176 367.012 179.843C366.845 180.066 366.567 180.121 366.289 179.955L362.842 178.009L355.837 190.406L359.284 192.352C359.507 192.464 359.618 192.742 359.507 193.019C358.784 195.077 358.228 197.245 357.839 199.357C357.783 199.635 357.561 199.802 357.283 199.802H353.336L353.447 214.035H357.45C357.728 214.035 357.95 214.201 358.006 214.479C358.395 216.648 359.006 218.76 359.729 220.817C359.84 221.095 359.729 221.373 359.507 221.484L356.06 223.486L363.232 235.772L366.679 233.771C366.901 233.66 367.179 233.66 367.401 233.882C368.847 235.55 370.403 237.107 372.071 238.496C372.294 238.663 372.349 238.941 372.182 239.219L370.237 242.666L382.579 249.727L384.525 246.28C384.636 246.002 384.858 245.946 385.025 245.946ZM398.813 231.436C394.921 231.436 390.974 230.491 387.304 228.601C381.189 225.376 376.741 219.872 374.907 213.201C373.072 206.529 374.073 199.524 377.686 193.631C384.525 182.456 398.868 178.509 410.432 184.625C416.548 187.849 420.995 193.353 422.83 200.024C424.664 206.696 423.664 213.701 420.05 219.594C415.38 227.211 407.208 231.436 398.813 231.436ZM398.924 182.846C390.918 182.846 383.079 186.904 378.632 194.187C375.185 199.858 374.239 206.529 375.963 212.923C377.742 219.316 381.912 224.542 387.805 227.655C398.813 233.493 412.545 229.712 419.105 219.038C422.552 213.367 423.497 206.696 421.773 200.302C419.994 193.909 415.825 188.683 409.932 185.57C406.429 183.735 402.649 182.846 398.924 182.846Z" fill="#0D7697"/>
<path d="M398.87 240.721C393.088 240.721 387.306 239.275 382.025 236.273C365.679 226.989 359.953 206.085 369.238 189.74C373.296 182.568 379.801 177.175 387.528 174.451C395.201 171.727 403.54 171.893 411.101 174.784C411.379 174.896 411.546 175.229 411.434 175.507C411.323 175.785 410.99 175.952 410.712 175.841C395.645 170.003 378.244 176.23 370.238 190.351C361.232 206.196 366.791 226.377 382.58 235.383C395.645 242.833 412.046 240.498 422.554 229.713C422.776 229.49 423.11 229.49 423.332 229.713C423.554 229.935 423.554 230.269 423.332 230.491C416.716 237.218 407.876 240.721 398.87 240.721Z" fill="#0D7697"/>
<path d="M294.851 83.8867H167.037V211.867H294.851V83.8867Z" fill="#F18EA1"/>
<path d="M389.586 124.031H43.2266V386.886H389.586V124.031Z" fill="#005E7B"/>
<path d="M144.531 338.285H353.402L353.402 56.9725H144.531L144.531 338.285Z" fill="#FCC8D0"/>
<path d="M144.531 338.285H353.402L353.402 56.9725H144.531L144.531 338.285Z" fill="#067294"/>
<path opacity="0.8" d="M188.621 111.168C187.685 111.168 186.917 111.03 186.317 110.754C185.73 110.478 185.268 110.07 184.932 109.53C184.596 108.991 184.362 108.325 184.23 107.533C184.11 106.741 184.05 105.829 184.05 104.797C184.05 103.741 184.11 102.811 184.23 102.007C184.362 101.204 184.596 100.532 184.932 99.9917C185.268 99.4518 185.73 99.0438 186.317 98.7678C186.917 98.4919 187.685 98.3539 188.621 98.3539C189.053 98.3539 189.479 98.3779 189.899 98.4259C190.331 98.4619 190.733 98.5159 191.105 98.5879C191.477 98.6479 191.795 98.7078 192.059 98.7678L192.005 99.9737C191.741 99.9257 191.417 99.8777 191.033 99.8297C190.649 99.7817 190.259 99.7397 189.863 99.7037C189.467 99.6677 189.107 99.6497 188.783 99.6497C188.099 99.6497 187.541 99.7517 187.109 99.9557C186.689 100.16 186.365 100.478 186.137 100.91C185.909 101.33 185.754 101.863 185.67 102.511C185.586 103.147 185.544 103.909 185.544 104.797C185.544 105.661 185.586 106.417 185.67 107.065C185.754 107.701 185.903 108.229 186.119 108.649C186.347 109.057 186.677 109.362 187.109 109.566C187.541 109.77 188.105 109.872 188.801 109.872C189.305 109.872 189.857 109.842 190.457 109.782C191.069 109.71 191.585 109.638 192.005 109.566L192.059 110.79C191.771 110.85 191.435 110.91 191.051 110.97C190.667 111.03 190.265 111.078 189.845 111.114C189.425 111.15 189.017 111.168 188.621 111.168ZM196.053 111.168C195.225 111.168 194.595 110.934 194.163 110.466C193.732 109.998 193.516 109.314 193.516 108.415C193.516 107.827 193.618 107.347 193.821 106.975C194.025 106.603 194.331 106.321 194.739 106.129C195.159 105.925 195.675 105.799 196.287 105.751L199.059 105.481V104.707C199.059 104.095 198.921 103.663 198.645 103.411C198.381 103.159 197.985 103.033 197.457 103.033C197.157 103.033 196.797 103.045 196.377 103.069C195.969 103.093 195.561 103.123 195.153 103.159C194.745 103.195 194.385 103.231 194.073 103.267L194.001 102.205C194.289 102.145 194.637 102.085 195.045 102.025C195.453 101.965 195.879 101.917 196.323 101.881C196.767 101.833 197.175 101.809 197.547 101.809C198.231 101.809 198.789 101.917 199.221 102.133C199.653 102.337 199.965 102.655 200.157 103.087C200.361 103.507 200.463 104.047 200.463 104.707V109.261C200.487 109.524 200.589 109.716 200.769 109.836C200.961 109.956 201.201 110.034 201.489 110.07L201.435 111.168C201.171 111.168 200.931 111.15 200.715 111.114C200.499 111.09 200.295 111.048 200.103 110.988C199.947 110.928 199.797 110.856 199.653 110.772C199.521 110.688 199.389 110.586 199.257 110.466C199.029 110.562 198.735 110.664 198.375 110.772C198.027 110.88 197.649 110.97 197.241 111.042C196.845 111.126 196.449 111.168 196.053 111.168ZM196.287 109.998C196.611 109.998 196.947 109.968 197.295 109.908C197.643 109.848 197.973 109.776 198.285 109.692C198.597 109.608 198.855 109.53 199.059 109.458V106.525L196.449 106.777C195.909 106.825 195.519 106.981 195.279 107.245C195.051 107.509 194.937 107.887 194.937 108.379C194.937 108.883 195.051 109.278 195.279 109.566C195.507 109.854 195.843 109.998 196.287 109.998ZM205.933 111.168C205.657 111.168 205.321 111.15 204.925 111.114C204.541 111.078 204.157 111.036 203.773 110.988C203.389 110.928 203.047 110.874 202.748 110.826L202.82 109.62C203.119 109.656 203.455 109.698 203.827 109.746C204.211 109.794 204.583 109.836 204.943 109.872C205.303 109.896 205.591 109.908 205.807 109.908C206.299 109.908 206.707 109.866 207.031 109.782C207.355 109.686 207.601 109.53 207.769 109.314C207.937 109.099 208.021 108.793 208.021 108.397C208.021 108.097 207.955 107.863 207.823 107.695C207.703 107.527 207.469 107.389 207.121 107.281C206.785 107.173 206.293 107.071 205.645 106.975C204.973 106.867 204.409 106.735 203.953 106.579C203.509 106.411 203.179 106.165 202.963 105.841C202.748 105.517 202.64 105.055 202.64 104.455C202.64 103.783 202.796 103.255 203.107 102.871C203.419 102.487 203.821 102.217 204.313 102.061C204.817 101.893 205.339 101.809 205.879 101.809C206.215 101.809 206.581 101.827 206.977 101.863C207.385 101.899 207.781 101.947 208.165 102.007C208.549 102.055 208.879 102.103 209.155 102.151L209.119 103.357C208.831 103.309 208.495 103.267 208.111 103.231C207.727 103.183 207.343 103.147 206.959 103.123C206.575 103.087 206.239 103.069 205.951 103.069C205.591 103.069 205.267 103.111 204.979 103.195C204.691 103.267 204.463 103.399 204.295 103.591C204.127 103.783 204.043 104.053 204.043 104.401C204.043 104.665 204.103 104.881 204.223 105.049C204.343 105.205 204.571 105.337 204.907 105.445C205.243 105.553 205.729 105.661 206.365 105.769C207.109 105.889 207.703 106.039 208.147 106.219C208.603 106.399 208.933 106.651 209.137 106.975C209.341 107.299 209.443 107.755 209.443 108.343C209.443 109.398 209.131 110.136 208.507 110.556C207.883 110.964 207.025 111.168 205.933 111.168ZM214.695 111.168C213.795 111.168 213.081 110.994 212.553 110.646C212.037 110.298 211.665 109.782 211.437 109.099C211.209 108.415 211.095 107.563 211.095 106.543C211.095 105.403 211.251 104.491 211.563 103.807C211.875 103.111 212.313 102.607 212.877 102.295C213.441 101.971 214.107 101.809 214.875 101.809C216.075 101.809 216.98 102.145 217.592 102.817C218.204 103.477 218.51 104.545 218.51 106.021L218.438 107.083H212.517C212.529 108.019 212.703 108.727 213.039 109.207C213.375 109.686 213.981 109.926 214.857 109.926C215.193 109.926 215.559 109.92 215.955 109.908C216.363 109.884 216.764 109.86 217.16 109.836C217.556 109.812 217.892 109.788 218.168 109.764L218.204 110.862C217.916 110.91 217.562 110.958 217.142 111.006C216.734 111.054 216.315 111.09 215.883 111.114C215.451 111.15 215.055 111.168 214.695 111.168ZM212.517 105.949H217.106C217.106 104.845 216.926 104.077 216.567 103.645C216.219 103.201 215.655 102.979 214.875 102.979C214.119 102.979 213.537 103.207 213.129 103.663C212.721 104.119 212.517 104.881 212.517 105.949ZM228.168 111.15C227.808 111.15 227.388 111.126 226.908 111.078C226.428 111.042 225.948 110.994 225.468 110.934C225 110.862 224.586 110.802 224.227 110.754L224.37 109.566C224.718 109.602 225.12 109.644 225.576 109.692C226.044 109.74 226.5 109.782 226.944 109.818C227.4 109.854 227.784 109.872 228.096 109.872C228.972 109.872 229.626 109.674 230.058 109.278C230.49 108.883 230.706 108.265 230.706 107.425C230.706 106.969 230.616 106.609 230.436 106.345C230.268 106.069 229.98 105.853 229.572 105.697C229.176 105.529 228.642 105.379 227.97 105.247C227.106 105.067 226.386 104.857 225.81 104.617C225.246 104.365 224.82 104.011 224.532 103.555C224.257 103.099 224.119 102.481 224.119 101.701C224.119 100.898 224.281 100.25 224.604 99.7577C224.94 99.2658 225.408 98.9058 226.008 98.6779C226.62 98.4499 227.328 98.3359 228.132 98.3359C228.492 98.3359 228.9 98.3599 229.356 98.4079C229.824 98.4439 230.28 98.4919 230.724 98.5519C231.18 98.5999 231.57 98.6539 231.894 98.7138L231.768 99.9197C231.42 99.8717 231.018 99.8297 230.562 99.7937C230.106 99.7457 229.668 99.7037 229.248 99.6677C228.828 99.6317 228.492 99.6137 228.24 99.6137C227.364 99.6137 226.698 99.7757 226.242 100.1C225.798 100.424 225.576 100.928 225.576 101.611C225.576 102.139 225.672 102.541 225.864 102.817C226.068 103.093 226.392 103.309 226.836 103.465C227.28 103.621 227.862 103.783 228.582 103.951C229.206 104.095 229.74 104.251 230.184 104.419C230.64 104.587 231.012 104.797 231.3 105.049C231.6 105.289 231.816 105.595 231.948 105.967C232.092 106.327 232.163 106.777 232.163 107.317C232.163 108.229 232.002 108.967 231.678 109.53C231.354 110.094 230.892 110.508 230.292 110.772C229.692 111.024 228.984 111.15 228.168 111.15ZM237.257 111.186C236.633 111.186 236.135 111.09 235.763 110.898C235.403 110.706 235.145 110.376 234.989 109.908C234.833 109.428 234.755 108.757 234.755 107.893V103.195H233.477V101.989H234.755V99.2358H236.141V101.989H238.966V103.195H236.141V107.479C236.141 108.115 236.165 108.613 236.213 108.973C236.273 109.32 236.393 109.566 236.573 109.71C236.753 109.854 237.035 109.926 237.419 109.926C237.539 109.926 237.695 109.92 237.887 109.908C238.079 109.896 238.271 109.884 238.463 109.872C238.667 109.848 238.847 109.83 239.002 109.818L239.092 110.988C238.829 111.024 238.517 111.066 238.157 111.114C237.797 111.162 237.497 111.186 237.257 111.186ZM243.35 111.168C242.583 111.168 241.995 111.012 241.587 110.7C241.179 110.388 240.897 109.902 240.741 109.243C240.597 108.583 240.525 107.731 240.525 106.687V101.989H241.911V106.687C241.911 107.479 241.947 108.109 242.019 108.577C242.103 109.045 242.277 109.386 242.541 109.602C242.805 109.806 243.2 109.908 243.728 109.908C244.256 109.908 244.736 109.836 245.168 109.692C245.6 109.548 245.948 109.404 246.212 109.261V101.989H247.598V110.988H246.212V110.358C245.828 110.574 245.408 110.766 244.952 110.934C244.508 111.09 243.974 111.168 243.35 111.168ZM253.037 111.168C252.677 111.168 252.335 111.126 252.011 111.042C251.687 110.97 251.388 110.838 251.112 110.646C250.848 110.454 250.614 110.19 250.41 109.854C250.206 109.506 250.05 109.063 249.942 108.523C249.834 107.983 249.78 107.329 249.78 106.561C249.78 105.493 249.906 104.611 250.158 103.915C250.41 103.207 250.812 102.679 251.364 102.331C251.915 101.983 252.647 101.809 253.559 101.809C253.907 101.809 254.297 101.839 254.729 101.899C255.161 101.947 255.497 101.995 255.737 102.043V98.0839H257.141V110.988H255.755V110.394C255.563 110.502 255.311 110.616 254.999 110.736C254.699 110.856 254.375 110.958 254.027 111.042C253.691 111.126 253.361 111.168 253.037 111.168ZM253.217 109.908C253.529 109.908 253.841 109.872 254.153 109.8C254.477 109.728 254.777 109.644 255.053 109.548C255.329 109.44 255.557 109.344 255.737 109.261V103.231C255.593 103.207 255.395 103.183 255.143 103.159C254.891 103.123 254.627 103.093 254.351 103.069C254.087 103.045 253.847 103.033 253.631 103.033C253.019 103.033 252.539 103.165 252.191 103.429C251.843 103.693 251.592 104.089 251.436 104.617C251.292 105.133 251.22 105.781 251.22 106.561C251.22 107.281 251.274 107.863 251.382 108.307C251.49 108.739 251.634 109.075 251.813 109.314C252.005 109.542 252.221 109.698 252.461 109.782C252.701 109.866 252.953 109.908 253.217 109.908ZM259.737 110.988V101.989H261.123V110.988H259.737ZM259.737 100.01V98.3899H261.123V100.01H259.737ZM266.895 111.168C265.995 111.168 265.281 110.994 264.753 110.646C264.237 110.298 263.866 109.782 263.638 109.099C263.41 108.415 263.296 107.563 263.296 106.543C263.296 105.403 263.452 104.491 263.764 103.807C264.075 103.111 264.513 102.607 265.077 102.295C265.641 101.971 266.307 101.809 267.075 101.809C268.275 101.809 269.181 102.145 269.793 102.817C270.405 103.477 270.711 104.545 270.711 106.021L270.639 107.083H264.717C264.729 108.019 264.903 108.727 265.239 109.207C265.575 109.686 266.181 109.926 267.057 109.926C267.393 109.926 267.759 109.92 268.155 109.908C268.563 109.884 268.965 109.86 269.361 109.836C269.757 109.812 270.093 109.788 270.369 109.764L270.405 110.862C270.117 110.91 269.763 110.958 269.343 111.006C268.935 111.054 268.515 111.09 268.083 111.114C267.651 111.15 267.255 111.168 266.895 111.168ZM264.717 105.949H269.307C269.307 104.845 269.127 104.077 268.767 103.645C268.419 103.201 267.855 102.979 267.075 102.979C266.319 102.979 265.737 103.207 265.329 103.663C264.921 104.119 264.717 104.881 264.717 105.949ZM275.604 111.168C275.328 111.168 274.992 111.15 274.596 111.114C274.212 111.078 273.828 111.036 273.444 110.988C273.06 110.928 272.718 110.874 272.418 110.826L272.49 109.62C272.79 109.656 273.126 109.698 273.498 109.746C273.882 109.794 274.254 109.836 274.614 109.872C274.974 109.896 275.262 109.908 275.478 109.908C275.97 109.908 276.378 109.866 276.702 109.782C277.026 109.686 277.272 109.53 277.44 109.314C277.608 109.099 277.692 108.793 277.692 108.397C277.692 108.097 277.626 107.863 277.494 107.695C277.374 107.527 277.14 107.389 276.792 107.281C276.456 107.173 275.964 107.071 275.316 106.975C274.644 106.867 274.08 106.735 273.624 106.579C273.18 106.411 272.85 106.165 272.634 105.841C272.418 105.517 272.31 105.055 272.31 104.455C272.31 103.783 272.466 103.255 272.778 102.871C273.09 102.487 273.492 102.217 273.984 102.061C274.488 101.893 275.01 101.809 275.55 101.809C275.886 101.809 276.252 101.827 276.648 101.863C277.056 101.899 277.452 101.947 277.836 102.007C278.22 102.055 278.55 102.103 278.826 102.151L278.79 103.357C278.502 103.309 278.166 103.267 277.782 103.231C277.398 103.183 277.014 103.147 276.63 103.123C276.246 103.087 275.91 103.069 275.622 103.069C275.262 103.069 274.938 103.111 274.65 103.195C274.362 103.267 274.134 103.399 273.966 103.591C273.798 103.783 273.714 104.053 273.714 104.401C273.714 104.665 273.774 104.881 273.894 105.049C274.014 105.205 274.242 105.337 274.578 105.445C274.914 105.553 275.4 105.661 276.036 105.769C276.78 105.889 277.374 106.039 277.818 106.219C278.274 106.399 278.604 106.651 278.808 106.975C279.011 107.299 279.113 107.755 279.113 108.343C279.113 109.398 278.802 110.136 278.178 110.556C277.554 110.964 276.696 111.168 275.604 111.168Z" fill="#D3F5FF"/>
<path d="M344.775 331.846H135.904C135.57 331.846 135.348 331.623 135.348 331.29V50.0325C135.348 49.6989 135.57 49.4766 135.904 49.4766H344.775C345.109 49.4766 345.331 49.6989 345.331 50.0325V331.345C345.331 331.623 345.053 331.846 344.775 331.846ZM136.46 330.734H344.219V50.5885H136.46V330.734Z" fill="#137FA0"/>
<path d="M331.766 126.256H165.091C164.758 126.256 164.535 126.034 164.535 125.7V81.9466C164.535 81.613 164.758 81.3906 165.091 81.3906H331.766C332.1 81.3906 332.322 81.613 332.322 81.9466V125.7C332.322 125.978 332.1 126.256 331.766 126.256ZM165.647 125.144H331.21V82.5025H165.647V125.144Z" fill="#137FA0"/>
<path d="M281.786 132.59H165.092V179.512H281.786V132.59Z" fill="#1D92B7"/>
<path d="M331.767 132.59H288.514V179.512H331.767V132.59Z" fill="#C7FF50"/>
<path d="M331.989 188.574H165.314V199.693H331.989V188.574Z" fill="#137FA0"/>
<path opacity="0.5" d="M331.986 250.965H165.008V297.959H331.986V250.965Z" fill="#137FA0"/>
<path d="M331.986 206.973H165.008V240.968H331.986V206.973Z" fill="#137FA0"/>
<path d="M138.183 162.893C141.192 162.893 143.631 160.453 143.631 157.444C143.631 154.435 141.192 151.996 138.183 151.996C135.174 151.996 132.734 154.435 132.734 157.444C132.734 160.453 135.174 162.893 138.183 162.893Z" fill="#BC2649"/>
<path d="M143.799 152.608C143.243 152.608 142.631 152.441 142.02 152.163C140.463 151.441 139.129 149.773 138.406 147.827C137.183 144.436 138.184 140.989 140.574 140.099C141.798 139.654 143.132 139.932 144.41 140.822C145.634 141.712 146.579 143.046 147.135 144.658C148.358 148.049 147.357 151.496 144.966 152.386C144.633 152.497 144.244 152.608 143.799 152.608ZM141.742 140.989C141.464 140.989 141.186 141.044 140.964 141.1C139.129 141.767 138.462 144.602 139.462 147.382C140.074 149.106 141.242 150.496 142.52 151.107C143.243 151.441 143.966 151.496 144.633 151.274C146.468 150.607 147.135 147.771 146.134 144.992C145.634 143.602 144.8 142.434 143.799 141.656C143.076 141.267 142.409 140.989 141.742 140.989Z" fill="#41193E"/>
<path d="M141.129 145.717C138.015 136.933 135.402 132.096 130.287 129.706C123.394 126.481 115.944 130.428 115.221 130.873C114.721 131.151 107.549 134.598 106.326 142.548C105.158 150.387 108.16 158.615 114.443 163.341V180.853C114.443 186.469 119.002 191.027 124.617 191.027H125.895C131.51 191.027 136.069 186.469 136.069 180.853V169.123C139.627 168.845 142.463 167.789 143.575 165.954C145.576 162.729 144.853 156.058 141.129 145.717Z" fill="#F7AFBC"/>
<path d="M141.796 114.637C139.739 114.97 137.626 115.304 135.569 115.637C135.68 116.36 135.792 117.194 135.792 118.084C135.792 118.417 135.792 118.695 135.736 119.029C135.68 119.529 135.347 119.974 134.846 120.029C134.346 120.085 133.846 119.807 133.679 119.362V119.307C133.179 118.084 132.623 117.083 132.067 116.249C124.45 117.472 116.834 118.751 109.217 119.974C109.717 120.697 110.996 122.698 110.94 125.422C110.885 129.592 107.883 132.094 107.438 132.483C102.379 137.987 100.655 145.659 102.99 152.386C105.826 160.503 113.331 163.561 114.499 164.005C116.111 163.783 117.779 163.505 119.502 163.227C122.782 162.671 125.896 162.004 128.842 161.281C126.007 160.336 124.506 157.834 124.172 155.11C123.839 152.164 126.007 148.883 129.009 148.772C130.955 148.717 132.511 149.717 133.957 152.886C135.069 152.275 136.459 151.496 137.571 150.885C136.07 147.883 134.513 144.881 133.012 141.878C133.512 141.656 144.298 136.097 144.854 125.255C145.02 120.307 142.908 116.416 141.796 114.637Z" fill="#003C4F"/>
<path d="M132.79 151.552C132.623 151.552 132.4 151.441 132.289 151.274C132.123 150.996 132.234 150.662 132.456 150.496L145.41 142.768C145.688 142.601 146.021 142.712 146.188 142.935C146.355 143.213 146.244 143.546 146.021 143.713L133.068 151.441C132.956 151.496 132.901 151.552 132.79 151.552Z" fill="#41193E"/>
<path d="M136.181 169.397C135.903 169.397 135.625 169.175 135.625 168.841L135.514 164.56C135.514 164.226 135.736 164.004 136.07 164.004C136.348 164.004 136.626 164.226 136.626 164.56L136.737 168.841C136.793 169.119 136.515 169.397 136.181 169.397C136.237 169.397 136.237 169.397 136.181 169.397Z" fill="#41193E"/>
<path d="M130.342 156.556C130.176 156.556 130.064 156.501 129.953 156.389C129.453 155.833 129.008 155.333 128.563 154.833C128.174 154.388 127.84 153.999 127.395 153.498C127.173 153.276 127.229 152.942 127.451 152.72C127.674 152.497 128.007 152.553 128.23 152.775C128.674 153.276 129.064 153.665 129.397 154.11C129.842 154.61 130.287 155.111 130.787 155.667C131.01 155.889 130.954 156.223 130.732 156.445C130.62 156.501 130.509 156.556 130.342 156.556Z" fill="#41193E"/>
<path d="M162.366 458.102H208.788C213.013 408.845 207.509 341.407 167.091 272.692L75.0254 271.246L112.997 329.065C112.997 329.065 152.192 371.929 162.366 458.102Z" fill="#00303F"/>
<path d="M110.83 458.103C144.743 363.091 136.07 277.418 136.07 277.418L83.4215 274.305C65.5198 308.607 63.1848 395.669 64.2967 458.103H110.83Z" fill="#00303F"/>
<path d="M190.498 188.188C230.249 196.638 250.708 206.256 246.26 221.1C243.703 229.662 219.852 233.942 188.107 228.939C188.83 216.096 189.275 203.699 190.498 188.188Z" fill="#F7AFBC"/>
<path d="M209.901 206.315C209.29 196.308 208.901 173.514 209.568 156.113C210.29 137.822 214.015 110.913 217.74 111.469C219.853 111.803 220.131 115.583 220.131 125.702C220.631 125.201 222.41 123.978 224.356 124.646C227.191 125.591 227.247 128.148 227.358 128.37C227.525 128.204 229.304 126.202 231.305 126.48C233.585 126.814 234.864 128.37 235.308 130.094C235.698 129.649 237.421 128.092 239.311 128.482C241.313 128.815 243.147 130.65 242.981 132.762C242.758 136.654 241.924 148.107 242.202 153.722C242.758 164.785 249.93 203.925 246.427 220.158C234.252 212.597 222.132 213.765 209.901 206.315Z" fill="#F7AFBC"/>
<path d="M232.251 201.755C232.195 201.755 232.084 201.755 232.029 201.699C226.247 198.864 218.741 196.196 209.068 193.527C208.79 193.471 208.623 193.138 208.679 192.86C208.734 192.582 209.068 192.359 209.346 192.471C219.075 195.139 226.636 197.808 232.529 200.699C232.807 200.81 232.918 201.144 232.807 201.421C232.64 201.644 232.418 201.755 232.251 201.755Z" fill="#41193E"/>
<path d="M216.628 131.982C216.572 131.982 216.572 131.982 216.516 131.982L213.514 131.371C213.236 131.315 213.014 131.037 213.069 130.703C213.125 130.425 213.403 130.203 213.736 130.259L216.739 130.87C217.017 130.926 217.239 131.204 217.184 131.537C217.128 131.815 216.906 131.982 216.628 131.982Z" fill="#41193E"/>
<path d="M224.245 133.541C224.189 133.541 224.189 133.541 224.134 133.541L221.131 132.929C220.853 132.874 220.631 132.596 220.686 132.262C220.742 131.984 221.02 131.762 221.354 131.817L224.356 132.429C224.634 132.484 224.856 132.762 224.801 133.096C224.745 133.318 224.523 133.541 224.245 133.541Z" fill="#41193E"/>
<path d="M232.028 134.986C231.972 134.986 231.972 134.986 231.917 134.986L228.914 134.375C228.636 134.319 228.414 134.041 228.47 133.707C228.525 133.429 228.803 133.207 229.137 133.262L232.139 133.874C232.417 133.93 232.64 134.208 232.584 134.541C232.528 134.819 232.306 134.986 232.028 134.986Z" fill="#41193E"/>
<path d="M239.034 136.486C238.978 136.486 238.978 136.486 238.923 136.486L235.92 135.875C235.642 135.819 235.42 135.541 235.475 135.207C235.531 134.929 235.809 134.707 236.143 134.762L239.145 135.374C239.423 135.43 239.646 135.708 239.59 136.041C239.534 136.319 239.312 136.486 239.034 136.486Z" fill="#41193E"/>
<path d="M52.1201 199.645C11.4243 228.999 -7.25575 249.291 3.97451 261.633C10.4792 268.75 39.7223 260.966 72.9684 239.284C66.6861 226.942 60.0702 214.377 52.1201 199.645Z" fill="#F7AFBC"/>
<path d="M40.666 200.812C40.666 200.812 80.2499 180.353 118.11 178.963C150.411 177.796 200.336 190.36 200.336 190.36L200.836 241.008L181.267 243.287L185.381 280.647L68.9085 286.596L66.6291 253.795L53.9533 256.519L40.666 200.812Z" fill="#1AE3E3"/>
<path d="M181.377 243.51C181.099 243.51 180.877 243.288 180.821 243.01C180.599 241.397 180.377 239.34 180.154 237.394C179.932 235.449 179.709 233.447 179.487 231.835C179.431 231.557 179.654 231.223 179.987 231.223C180.265 231.168 180.599 231.39 180.599 231.724C180.821 233.336 181.044 235.393 181.266 237.339C181.488 239.285 181.711 241.286 181.933 242.898C181.989 243.176 181.766 243.51 181.433 243.51C181.433 243.51 181.433 243.51 181.377 243.51Z" fill="#41193E"/>
<path d="M23.8231 228.383C53.0106 250.788 74.1369 266.132 80.4747 271.136C81.1419 271.636 82.3094 272.581 83.4769 274.138C87.7577 279.92 84.8112 285.312 86.479 293.429C88.4249 302.658 94.7072 306.772 93.2061 308.663C92.1498 309.997 89.37 309.107 84.7556 305.382C87.9245 308.607 92.0386 313.221 90.2595 314.945C88.0913 316.835 82.5874 312.054 79.4184 308.941C83.2545 312.665 84.1996 315.779 82.9209 316.502C80.9751 317.669 77.3058 315.445 72.4134 310.33C74.804 314.834 74.6928 316.224 73.4697 316.613C71.1903 317.28 67.243 312.999 64.3521 308.718C61.072 303.826 60.238 298.933 59.7933 295.82C37.7219 282.255 23.2115 273.137 5.19861 262.518C1.52932 260.461 13.8715 237.834 23.8231 228.383Z" fill="#F7AFBC"/>
<path d="M52.2891 250.9C52.1779 250.9 52.0667 250.845 51.9555 250.789C43.1158 244.173 34.9433 237.947 26.882 231.776C26.6596 231.609 26.604 231.22 26.7708 230.997C26.9376 230.775 27.3268 230.719 27.5491 230.886C35.6105 237.057 43.783 243.284 52.6226 249.9C52.845 250.066 52.9006 250.456 52.7338 250.678C52.6227 250.789 52.4559 250.9 52.2891 250.9Z" fill="#41193E"/>
<path d="M84.6449 305.776C84.4781 305.776 84.3669 305.72 84.2557 305.609C83.366 304.664 82.5876 303.551 82.0316 302.439C81.4756 301.327 81.0307 300.104 80.7527 298.881C80.6971 298.603 80.8639 298.269 81.1975 298.214C81.4756 298.158 81.8092 298.325 81.8648 298.658C82.1428 299.826 82.532 300.883 83.088 301.939C83.6441 302.995 84.3669 303.996 85.1453 304.886C85.3677 305.108 85.3677 305.442 85.0897 305.664C84.9229 305.72 84.7561 305.776 84.6449 305.776Z" fill="#41193E"/>
<path d="M79.6963 309.441C79.5852 309.441 79.4184 309.385 79.3072 309.33C78.1953 308.329 77.1946 307.217 76.3606 305.938C75.5823 304.715 74.9151 303.437 74.4704 302.047C74.3592 301.769 74.526 301.435 74.804 301.324C75.0819 301.213 75.4155 301.379 75.5267 301.657C75.9715 302.936 76.583 304.159 77.3057 305.327C78.0841 306.494 79.0292 307.551 80.0855 308.496C80.3079 308.718 80.3635 309.052 80.1411 309.274C80.0299 309.385 79.8631 309.441 79.6963 309.441Z" fill="#41193E"/>
<path d="M72.4688 310.776C72.302 310.776 72.1353 310.721 72.0241 310.61C70.9678 309.387 70.0782 308.052 69.4111 306.607C68.7439 305.217 68.2436 303.716 67.9656 302.215C67.91 301.937 68.1324 301.603 68.4104 301.548C68.6883 301.492 69.0219 301.714 69.0775 301.992C69.3555 303.438 69.8003 304.828 70.4118 306.106C71.0789 307.441 71.9129 308.719 72.858 309.887C73.0804 310.109 73.0248 310.443 72.8024 310.665C72.7468 310.721 72.58 310.776 72.4688 310.776Z" fill="#41193E"/>
</g>
<defs>
<clipPath id="clip0_4170_5940">
<rect width="460.83" height="460.941" fill="white" transform="translate(0.0292969)"/>
</clipPath>
</defs>
</svg>
