<svg width="128" height="33" viewBox="0 0 128 33" fill="none" xmlns="http://www.w3.org/2000/svg">
<g clip-path="url(#clip0_4563_18377)">
<path fill-rule="evenodd" clip-rule="evenodd" d="M40.9492 25.9829L42.5467 22.2009C44.2721 23.5155 46.571 24.1989 48.8391 24.1989C50.5134 24.1989 51.5732 23.5416 51.5732 22.5452C51.5476 19.7596 41.5431 21.9401 41.4663 14.9551C41.4407 11.4078 44.5332 8.67436 48.9159 8.67436C51.522 8.67436 54.123 9.33165 55.9815 10.8288L54.4865 14.6891C52.7867 13.5831 50.6721 12.7954 48.6599 12.7954C47.2929 12.7954 46.3918 13.4527 46.3918 14.2926C46.4174 17.0261 56.4987 15.5289 56.6011 22.2009C56.6011 25.8264 53.5854 28.3773 49.2539 28.3773C46.0795 28.3721 43.1662 27.6105 40.9492 25.9829ZM102.292 20.8342C101.493 22.2531 99.9982 23.2234 98.2676 23.2234C95.7127 23.2234 93.6545 21.1211 93.6545 18.5232C93.6545 15.9254 95.7179 13.8231 98.2676 13.8231C99.9931 13.8231 101.493 14.7934 102.292 16.2123L106.7 13.7188C105.052 10.7245 101.877 8.67436 98.2676 8.67436C92.9275 8.67436 88.5959 13.0876 88.5959 18.5285C88.5959 23.9693 92.9275 28.3825 98.2676 28.3825C101.903 28.3825 105.052 26.3585 106.7 23.3381L102.292 20.8342ZM58.818 0.5H64.3374V28.007H58.818V0.5ZM108.866 0.5V28.007H114.385V19.7543L120.934 28.007H127.999L119.669 18.205L127.38 9.06039H120.622L114.38 16.6505V0.5H108.866Z" fill="#6BBDD7"/>
<path d="M80.7349 20.8891C79.9362 22.2297 78.2876 23.2261 76.429 23.2261C73.8741 23.2261 71.8159 21.1238 71.8159 18.526C71.8159 15.9281 73.8792 13.8258 76.429 13.8258C78.2876 13.8258 79.9362 14.8744 80.7349 16.2411V20.8891ZM80.7349 9.06833V11.301C79.8338 9.7517 77.5912 8.67188 75.2412 8.67188C70.3925 8.67188 66.5781 13.0329 66.5781 18.4999C66.5781 23.9668 70.3925 28.3801 75.2412 28.3801C77.5861 28.3801 79.8287 27.3055 80.7349 25.7509V27.9836H86.2543V9.06833H80.7349Z" fill="#6BBDD7"/>
<path fill-rule="evenodd" clip-rule="evenodd" d="M6.83304 20.8596C6.83304 22.7793 5.3124 24.3287 3.42824 24.3287C1.54408 24.3287 0.0234375 22.7741 0.0234375 20.8596C0.0234375 18.9452 1.54408 17.3906 3.42824 17.3906H6.83304V20.8596ZM8.53288 20.8596C8.53288 18.9399 10.0535 17.3906 11.9377 17.3906C13.8218 17.3906 15.3425 18.9399 15.3425 20.8596V29.5296C15.3425 31.4493 13.8218 32.9986 11.9377 32.9986C10.0535 32.9986 8.53288 31.4493 8.53288 29.5296V20.8596Z" fill="#6BBDD7"/>
<path fill-rule="evenodd" clip-rule="evenodd" d="M11.9398 6.93803C10.0557 6.93803 8.53504 5.38871 8.53504 3.46902C8.53504 1.54932 10.0557 0 11.9398 0C13.824 0 15.3446 1.54932 15.3446 3.46902V6.93803H11.9398ZM11.9398 8.69602C13.824 8.69602 15.3446 10.2453 15.3446 12.165C15.3446 14.0847 13.824 15.6341 11.9398 15.6341H3.4048C1.52064 15.6341 0 14.0795 0 12.165C0 10.2506 1.52064 8.69602 3.4048 8.69602H11.9398Z" fill="#6BBDD7"/>
<path fill-rule="evenodd" clip-rule="evenodd" d="M25.5798 12.165C25.5798 10.2453 27.1004 8.69602 28.9846 8.69602C30.8687 8.69602 32.3894 10.2453 32.3894 12.165C32.3894 14.0847 30.8687 15.6341 28.9846 15.6341H25.5798V12.165ZM23.8799 12.165C23.8799 14.0847 22.3593 15.6341 20.4751 15.6341C18.591 15.6341 17.0703 14.0847 17.0703 12.165V3.46902C17.0703 1.54932 18.591 0 20.4751 0C22.3593 0 23.8799 1.54932 23.8799 3.46902V12.165Z" fill="#6BBDD7"/>
<path fill-rule="evenodd" clip-rule="evenodd" d="M20.4751 26.0606C22.3593 26.0606 23.8799 27.6099 23.8799 29.5296C23.8799 31.4493 22.3593 32.9986 20.4751 32.9986C18.591 32.9986 17.0703 31.4493 17.0703 29.5296V26.0606H20.4751ZM20.4751 24.3287C18.591 24.3287 17.0703 22.7793 17.0703 20.8596C17.0703 18.9399 18.591 17.3906 20.4751 17.3906H29.0102C30.8943 17.3906 32.415 18.9399 32.415 20.8596C32.415 22.7793 30.8943 24.3287 29.0102 24.3287H20.4751Z" fill="#6BBDD7"/>
</g>
<defs>
<clipPath id="clip0_4563_18377">
<rect width="128" height="33" fill="white"/>
</clipPath>
</defs>
</svg>
