<svg width="154" height="20" viewBox="0 0 154 20" fill="none" xmlns="http://www.w3.org/2000/svg">
<g clip-path="url(#clip0_4563_18421)">
<path d="M66.4879 12.9263H76.6593L71.2811 4.33493L61.41 19.8684H56.9178L68.924 1.20925C69.4459 0.455522 70.316 0 71.2811 0C72.2143 0 73.0843 0.439701 73.5906 1.17791L85.6444 19.8684H81.1521L79.0326 16.3973H68.7346L66.4882 12.9263H66.4879ZM113.153 16.397V0.188358H109.341V17.9836C109.341 18.4704 109.531 18.9418 109.894 19.303C110.258 19.6642 110.748 19.8684 111.286 19.8684H128.671L130.918 16.3973H113.153L113.153 16.397ZM50.0838 13.4913C53.7856 13.4913 56.7912 10.523 56.7912 6.84776C56.7912 3.17224 53.7856 0.18806 50.0838 0.18806H33.4061V19.8687H37.2171V3.6597H49.831C51.6027 3.6597 53.0262 5.08925 53.0262 6.84836C53.0262 8.60716 51.6027 10.0364 49.831 10.0364L39.0838 10.0209L50.4635 19.8687H56.0002L48.344 13.4919H50.0841L50.0838 13.4913ZM9.94742 19.8684C4.47568 19.8687 0.0351562 15.4707 0.0351562 10.0364C0.0351562 4.60179 4.47568 0.188657 9.94742 0.188657H21.4681C26.9411 0.188657 31.3783 4.60179 31.3783 10.0364C31.3783 15.4707 26.9411 19.8684 21.4678 19.8684H9.94742ZM21.212 16.3973C24.7569 16.3973 27.628 13.5543 27.628 10.0361C27.628 6.51821 24.7569 3.6597 21.212 3.6597H10.2024C6.65866 3.6597 3.786 6.51821 3.786 10.0364C3.786 13.5543 6.65866 16.3973 10.2021 16.3973H21.2117H21.212ZM93.6012 19.8684C88.1283 19.8684 83.683 15.4707 83.683 10.0364C83.683 4.60179 88.1283 0.188657 93.6012 0.188657H107.285L105.054 3.6597H93.8544C90.311 3.6597 87.432 6.51821 87.432 10.0364C87.432 13.5543 90.311 16.3973 93.8544 16.3973H107.601L105.354 19.8684H93.6012ZM140.219 16.3973C137.293 16.3973 134.809 14.4499 134.05 11.7639H150.343L152.589 8.29284H134.05C134.809 5.62269 137.293 3.6597 140.219 3.6597H151.403L153.665 0.18806H139.966C134.493 0.18806 130.047 4.60149 130.047 10.0358C130.047 15.4704 134.493 19.8681 139.966 19.8681H151.719L153.965 16.3973H140.219H140.219Z" fill="#6BBDD7"/>
</g>
<defs>
<clipPath id="clip0_4563_18421">
<rect width="154" height="20" fill="white"/>
</clipPath>
</defs>
</svg>
