<svg width="460" height="461" viewBox="0 0 460 461" fill="none" xmlns="http://www.w3.org/2000/svg">
<path d="M230 460C357.025 460 460 357.025 460 230C460 102.975 357.025 0 230 0C102.975 0 0 102.975 0 230C0 357.025 102.975 460 230 460Z" fill="#04617E"/>
<path d="M415.855 226.662C415.512 171.229 390.069 91.1681 321.292 60.491C288.706 45.9462 237.177 38.4164 200.45 62.9152C166.147 85.7836 181.014 112.363 143.172 158.036C99.6017 210.616 64.5483 203.515 35.33 249.445C16.0227 279.779 24.5393 316.484 26.9849 327.017C44.8763 404.203 138.838 430.74 149.393 433.55C233.058 455.797 301.92 412.763 316.079 403.924C414.568 342.356 415.898 231.725 415.855 226.662Z" fill="#04617E"/>
<path d="M328.43 78.7266H107.577C99.0601 78.7266 92.1523 85.6343 92.1523 94.1509V241.701C92.1523 250.218 99.0601 257.126 107.577 257.126H328.43C336.947 257.126 343.855 250.218 343.855 241.701V94.1509C343.855 85.6343 336.947 78.7266 328.43 78.7266Z" fill="#0F708E"/>
<path d="M322.446 106.721H113.392C113.005 106.721 112.684 106.399 112.684 106.013C112.684 105.626 113.005 105.305 113.392 105.305H322.446C322.833 105.305 323.154 105.626 323.154 106.013C323.154 106.399 322.833 106.721 322.446 106.721Z" fill="#177E9D"/>
<path d="M127.099 93.8931C127.099 95.8668 125.511 97.4543 123.538 97.4543C121.564 97.4543 119.977 95.8668 119.977 93.8931C119.977 91.9195 121.564 90.332 123.538 90.332C125.511 90.332 127.099 91.941 127.099 93.8931Z" fill="#177E9D"/>
<path d="M137.807 97.4543C139.774 97.4543 141.368 95.8599 141.368 93.8931C141.368 91.9264 139.774 90.332 137.807 90.332C135.84 90.332 134.246 91.9264 134.246 93.8931C134.246 95.8599 135.84 97.4543 137.807 97.4543Z" fill="#177E9D"/>
<path d="M155.611 93.8931C155.611 95.8668 154.023 97.4543 152.049 97.4543C150.076 97.4543 148.488 95.8668 148.488 93.8931C148.488 91.9195 150.076 90.332 152.049 90.332C154.023 90.332 155.611 91.941 155.611 93.8931Z" fill="#177E9D"/>
<path d="M322.639 94.5995H258.067C257.681 94.5995 257.359 94.2777 257.359 93.8915C257.359 93.5054 257.681 93.1836 258.067 93.1836H322.639C323.026 93.1836 323.347 93.5054 323.347 93.8915C323.347 94.2991 323.026 94.5995 322.639 94.5995Z" fill="#177E9D"/>
<path d="M249.014 94.5995H203.684C203.298 94.5995 202.977 94.2777 202.977 93.8915C202.977 93.5054 203.298 93.1836 203.684 93.1836H249.014C249.4 93.1836 249.722 93.5054 249.722 93.8915C249.722 94.2991 249.421 94.5995 249.014 94.5995Z" fill="#177E9D"/>
<path d="M181.844 94.5995H164.145C163.759 94.5995 163.438 94.2777 163.438 93.8915C163.438 93.5054 163.759 93.1836 164.145 93.1836H181.844C182.23 93.1836 182.552 93.5054 182.552 93.8915C182.552 94.2991 182.251 94.5995 181.844 94.5995Z" fill="#177E9D"/>
<path d="M322.617 119.125H113.391V243.056H322.617V119.125Z" fill="#167D9C"/>
<path d="M370.487 232.391C373.791 232.391 376.451 235.072 376.451 238.354V279.436C376.451 282.74 373.769 285.4 370.487 285.4H257.218C253.914 285.4 251.254 282.718 251.254 279.436V238.354C251.254 235.051 253.935 232.391 257.218 232.391H370.487Z" fill="#006584"/>
<path d="M359.93 252.642H269.915C269.529 252.642 269.207 252.321 269.207 251.934C269.207 251.548 269.529 251.227 269.915 251.227H359.93C360.316 251.227 360.638 251.548 360.638 251.934C360.638 252.321 360.316 252.642 359.93 252.642Z" fill="#087091"/>
<path d="M359.932 264.678H341.118C340.732 264.678 340.41 264.356 340.41 263.97C340.41 263.584 340.732 263.262 341.118 263.262H359.932C360.318 263.262 360.64 263.584 360.64 263.97C360.64 264.356 360.318 264.678 359.932 264.678Z" fill="#087091"/>
<path d="M313.85 264.678H269.915C269.529 264.678 269.207 264.356 269.207 263.97C269.207 263.584 269.529 263.262 269.915 263.262H313.85C314.236 263.262 314.558 263.584 314.558 263.97C314.558 264.356 314.257 264.678 313.85 264.678Z" fill="#087091"/>
<path d="M161.038 115.887C164.342 115.887 167.002 118.568 167.002 121.851V162.932C167.002 166.236 164.32 168.896 161.038 168.896H47.7685C44.4648 168.896 41.8047 166.214 41.8047 162.932V121.872C41.8047 118.568 44.4863 115.908 47.7685 115.908H161.038V115.887Z" fill="#006584"/>
<path d="M150.457 136.162H60.4423C60.0562 136.162 59.7344 135.84 59.7344 135.454C59.7344 135.068 60.0562 134.746 60.4423 134.746H150.457C150.843 134.746 151.165 135.068 151.165 135.454C151.165 135.84 150.865 136.162 150.457 136.162Z" fill="#087090"/>
<path d="M150.459 148.193H131.645C131.259 148.193 130.938 147.871 130.938 147.485C130.938 147.099 131.259 146.777 131.645 146.777H150.459C150.845 146.777 151.167 147.099 151.167 147.485C151.167 147.871 150.867 148.193 150.459 148.193Z" fill="#087090"/>
<path d="M104.399 148.193H60.4423C60.0562 148.193 59.7344 147.871 59.7344 147.485C59.7344 147.099 60.0562 146.777 60.4423 146.777H104.377C104.763 146.777 105.085 147.099 105.085 147.485C105.106 147.871 104.785 148.193 104.399 148.193Z" fill="#087090"/>
<path d="M233.701 144.028L225.228 142.806L221.431 135.126C220.615 133.474 218.256 133.474 217.44 135.126L213.643 142.806L205.17 144.028C203.346 144.286 202.617 146.538 203.947 147.825L210.082 153.811L208.645 162.242C208.323 164.065 210.232 165.438 211.863 164.58L219.435 160.59L227.008 164.58C228.639 165.438 230.548 164.044 230.226 162.242L228.789 153.811L234.924 147.825C236.254 146.538 235.525 144.286 233.701 144.028Z" fill="#1F87A8"/>
<path d="M272.83 144.028L264.357 142.806L260.559 135.126C259.744 133.474 257.384 133.474 256.569 135.126L252.772 142.806L244.298 144.028C242.475 144.286 241.746 146.538 243.076 147.825L249.211 153.811L247.774 162.242C247.452 164.065 249.361 165.438 250.992 164.58L258.564 160.59L266.137 164.58C267.768 165.438 269.677 164.044 269.355 162.242L267.918 153.811L274.053 147.825C275.362 146.538 274.654 144.286 272.83 144.028Z" fill="#1F87A8"/>
<path d="M311.959 144.028L303.485 142.806L299.688 135.126C298.873 133.474 296.513 133.474 295.698 135.126L291.901 142.806L283.427 144.028C281.604 144.286 280.875 146.538 282.205 147.825L288.34 153.811L286.903 162.242C286.581 164.065 288.49 165.438 290.121 164.58L297.693 160.59L305.266 164.58C306.896 165.438 308.806 164.044 308.484 162.242L307.047 153.811L313.182 147.825C314.491 146.538 313.761 144.286 311.959 144.028Z" fill="#1F87A8"/>
<path d="M351.069 144.028L342.595 142.806L338.798 135.126C337.983 133.474 335.623 133.474 334.808 135.126L331.01 142.806L322.537 144.028C320.713 144.286 319.984 146.538 321.314 147.825L327.449 153.811L326.012 162.242C325.69 164.065 327.6 165.438 329.23 164.58L336.803 160.59L344.375 164.58C346.006 165.438 347.915 164.044 347.593 162.242L346.156 153.811L352.291 147.825C353.621 146.538 352.892 144.286 351.069 144.028Z" fill="#1F87A8"/>
<path d="M390.198 144.028L381.724 142.806L377.927 135.126C377.111 133.474 374.752 133.474 373.936 135.126L370.139 142.806L361.666 144.028C359.842 144.286 359.113 146.538 360.443 147.825L366.578 153.811L365.141 162.242C364.819 164.065 366.728 165.438 368.359 164.58L375.932 160.59L383.504 164.58C385.135 165.438 387.044 164.044 386.722 162.242L385.285 153.811L391.42 147.825C392.75 146.538 392.021 144.286 390.198 144.028Z" fill="#1F87A8"/>
<path d="M367.311 58.2671L348.84 64.2309L333.437 52.3891C330.134 49.8363 325.328 52.1961 325.328 56.3793L325.307 75.7939L309.282 86.7775C305.849 89.1373 306.6 94.4146 310.569 95.7232L329.018 101.751L334.51 120.372C335.69 124.384 340.946 125.285 343.413 121.917L354.847 106.235L374.262 106.771C378.445 106.879 380.933 102.159 378.488 98.791L367.096 83.0663L373.596 64.7673C374.991 60.7985 371.28 56.98 367.311 58.2671Z" fill="#C7FF50"/>
<path d="M342.728 121.682C342.406 121.682 342.063 121.66 341.741 121.596C339.575 121.21 337.837 119.665 337.215 117.563L331.83 99.2851L313.724 93.3642C311.622 92.6777 310.142 90.8972 309.82 88.709C309.498 86.5209 310.442 84.3971 312.266 83.1528L327.969 72.3836L327.99 53.3338C327.99 51.1242 329.235 49.1506 331.208 48.1852C333.182 47.2198 335.499 47.4344 337.236 48.7859L352.339 60.3917L370.466 54.5351C372.569 53.8487 374.821 54.4279 376.344 55.9939C377.889 57.5814 378.382 59.8554 377.631 61.9148L371.26 79.8706L382.437 95.2949C383.724 97.0755 383.896 99.3924 382.866 101.345C381.836 103.297 379.82 104.477 377.631 104.412L358.603 103.897L347.383 119.279C346.246 120.823 344.53 121.682 342.728 121.682ZM333.74 49.0218C333.096 49.0218 332.431 49.172 331.809 49.4723C330.307 50.2232 329.385 51.6605 329.385 53.3553L329.363 72.7698C329.363 73.0058 329.256 73.2203 329.063 73.349L313.038 84.3327C311.643 85.2766 310.957 86.8427 311.193 88.5159C311.429 90.1892 312.523 91.4978 314.132 92.0127L332.581 98.0409C332.796 98.1052 332.967 98.2983 333.032 98.5128L338.523 117.134C338.995 118.743 340.283 119.88 341.934 120.18C343.586 120.459 345.174 119.837 346.161 118.464L357.595 102.782C357.723 102.589 357.959 102.482 358.195 102.482L377.61 103.018C377.653 103.018 377.696 103.018 377.739 103.018C379.369 103.018 380.785 102.16 381.557 100.701C382.351 99.2208 382.222 97.5046 381.235 96.153L369.844 80.4283C369.715 80.2353 369.673 79.9993 369.758 79.7848L376.258 61.4858C376.816 59.8983 376.452 58.225 375.293 57.0236C374.113 55.8223 372.461 55.3932 370.852 55.9296L352.382 61.8934C352.167 61.9577 351.91 61.9148 351.738 61.7861L336.335 49.9443C335.563 49.3222 334.662 49.0218 333.74 49.0218Z" fill="#6A970B"/>
<path d="M386.659 138.089C386.488 138.089 386.338 138.025 386.187 137.918C385.887 137.66 385.866 137.21 386.123 136.91C393.696 128.157 397.107 118.868 396.249 109.3C394.683 91.7948 379.172 79.1164 379.001 79.0091C378.701 78.7732 378.658 78.3227 378.894 78.0009C379.151 77.7005 379.58 77.6576 379.902 77.8936C380.073 78.0223 396.034 91.044 397.665 109.171C398.566 119.125 395.047 128.779 387.196 137.853C387.046 138.004 386.852 138.089 386.659 138.089Z" fill="#086987"/>
<path d="M365.143 140.9C365.057 140.9 364.95 140.879 364.864 140.836C364.5 140.686 364.328 140.257 364.5 139.913C371.257 124.167 360.059 111.339 359.952 111.21C359.694 110.91 359.716 110.459 360.016 110.202C360.316 109.944 360.745 109.966 361.024 110.266C361.153 110.395 372.93 123.888 365.83 140.471C365.679 140.729 365.422 140.9 365.143 140.9Z" fill="#086987"/>
<mask id="mask0_4573_70406" style="mask-type:luminance" maskUnits="userSpaceOnUse" x="23" y="47" width="393" height="414">
<path d="M415.855 226.662C415.512 171.229 390.069 91.1681 321.292 60.491C288.706 45.9462 237.177 38.4164 200.45 62.9152C166.147 85.7836 181.014 112.363 143.172 158.036C99.6017 210.616 64.5483 203.515 35.33 249.445C16.0227 279.779 24.5393 316.484 26.9849 327.017C46.5 397 130 439.5 146 444C171.5 456 275 479 276.5 431.5C276.8 431.371 279.267 423.511 279.546 423.382C297.93 415.788 311.381 408.73 316.637 405.426C331.268 396.287 343.517 384.982 354.157 374.148C354.286 373.998 354.093 373.483 354.243 373.333C414.932 311.443 415.898 230.974 415.855 226.662Z" fill="white"/>
</mask>
<g mask="url(#mask0_4573_70406)">
<path d="M68.4513 328.797C68.4298 328.797 68.4084 328.797 68.3869 328.797C68.0008 328.754 67.7219 328.411 67.7433 328.025L69.2879 312.257C69.3308 311.871 69.6741 311.571 70.0602 311.613C70.4464 311.656 70.7252 312 70.7038 312.386L69.1592 328.153C69.1378 328.518 68.816 328.797 68.4513 328.797Z" fill="black"/>
<path d="M344.764 185.158C342.362 182.863 339.53 182.798 336.226 183.206L335.068 182.477C332.515 180.889 329.426 180.396 326.508 181.104L303.511 186.746C302.546 186.982 301.666 186.123 301.902 185.158C302.331 183.227 302.996 180.331 303.511 178.036C304.026 175.698 303.104 174.325 302.331 173.617C301.881 173.209 301.194 173.252 300.808 173.702C298.255 176.62 288.859 187.775 289.159 193.31C289.503 199.703 293.879 218.281 293.879 218.281H313.422L309.582 205.774C309.303 204.894 309.775 203.972 310.655 203.65L338.565 193.782C339.058 193.61 339.23 192.988 338.886 192.581C338.264 191.851 337.277 190.822 336.226 190.092L344.164 186.96C344.85 186.681 345.15 185.823 344.764 185.158Z" fill="#FABCC6"/>
<path d="M314.365 219.009H293.299L293.17 218.452C292.998 217.701 288.772 199.724 288.429 193.352C288.129 187.624 297.396 176.512 300.249 173.251C300.571 172.886 301 172.672 301.494 172.65C301.966 172.629 302.438 172.779 302.802 173.101C303.596 173.809 304.819 175.439 304.197 178.207C303.682 180.502 303.038 183.398 302.588 185.329C302.523 185.629 302.673 185.844 302.759 185.908C302.845 185.972 303.038 186.144 303.339 186.058L326.336 180.416C329.425 179.665 332.728 180.18 335.432 181.875L336.375 182.476C339.894 182.068 342.768 182.304 345.235 184.642L345.3 184.707L345.343 184.793C345.643 185.286 345.707 185.887 345.514 186.444C345.321 187.002 344.914 187.431 344.377 187.646L337.598 190.327C338.306 190.949 338.928 191.614 339.379 192.151C339.701 192.515 339.808 193.009 339.679 193.481C339.55 193.953 339.207 194.318 338.757 194.489L310.847 204.357C310.332 204.529 310.075 205.087 310.225 205.602L314.365 219.009ZM294.436 217.593H312.456L308.895 205.988C308.509 204.743 309.174 203.435 310.396 202.984L338.306 193.116L338.864 192.58L338.328 193.052C337.727 192.344 336.804 191.357 335.796 190.692L334.681 189.941L343.862 186.316C344.077 186.23 344.141 186.08 344.184 185.972C344.206 185.887 344.248 185.758 344.184 185.586C342.082 183.634 339.593 183.505 336.311 183.913L336.054 183.934L334.681 183.076C332.299 181.596 329.382 181.124 326.679 181.789L303.682 187.431C302.995 187.603 302.266 187.41 301.751 186.895C301.236 186.402 301.043 185.694 301.193 184.986C301.622 183.055 302.287 180.159 302.802 177.885C303.231 175.911 302.523 174.753 301.837 174.131C301.751 174.045 301.622 174.045 301.579 174.045C301.472 174.045 301.386 174.088 301.322 174.174C295.637 180.695 289.63 189.147 289.845 193.266C290.167 198.93 293.706 214.461 294.436 217.593Z" fill="#FABCC6"/>
<path d="M49.0124 271.694C54.5686 272.037 63.8575 272.488 69.521 272.767C72.1382 272.895 74.1118 275.212 73.8115 277.808L69.993 312.347C72.46 307.799 77.0508 300.226 84.5592 292.503C118.047 258.007 173.265 258.072 197.721 264.658C224.794 271.973 230.801 275.255 230.801 275.255C238.073 279.717 248.864 283.729 262.508 281.24C287.564 276.692 298.891 255.24 288.444 220.594C287.479 217.419 289.86 214.223 293.164 214.223H314.423C316.74 214.223 318.756 215.746 319.4 217.955C324.248 234.474 340.423 301.02 293.85 321.979C266.369 334.335 237.473 332.919 237.473 332.919C239.296 348.773 241.12 364.626 242.965 380.48C248.478 406.738 243.437 416.992 238.095 421.583C225.631 432.266 208.555 417.571 166.186 420.51C139.22 422.377 132.591 429.627 122.058 424.2C110.839 418.429 100.777 401.117 103.244 352.549C103.244 352.549 87.1335 370.183 56.4993 364.476C18.6571 357.418 36.9775 293.597 42.8341 275.877C43.7136 273.239 46.245 271.522 49.0124 271.694Z" fill="#1AE3E3"/>
<path d="M129.997 426.861C127.23 426.861 124.634 426.303 121.738 424.801C115.109 421.391 110.089 414.59 106.85 404.615C102.967 392.644 101.487 375.718 102.452 354.287C100.671 355.896 97.0673 358.749 91.6612 361.281C84.4103 364.692 72.3754 368.145 56.3718 365.163C48.2628 363.662 42.1488 359.457 38.1587 352.7C32.7097 343.454 31.208 329.509 33.6965 311.21C35.7131 296.43 39.8749 282.593 42.1703 275.642C43.1356 272.725 45.9674 270.794 49.0565 270.987C54.72 271.33 64.3307 271.802 69.5651 272.059C71.0239 272.124 72.354 272.789 73.3193 273.904C74.2633 275.02 74.7138 276.436 74.5421 277.895L71.1097 309.001C74.7781 302.822 79.133 297.116 84.0671 292.01C102.774 272.746 127.23 265.323 144.434 262.47C166.359 258.845 186.439 260.883 197.937 263.972C224.774 271.223 230.931 274.484 231.167 274.612C237.817 278.71 248.608 283.022 262.402 280.512C273.171 278.56 281.452 273.304 286.321 265.366C292.864 254.683 293.358 239.259 287.802 220.767C287.287 219.029 287.609 217.205 288.681 215.747C289.754 214.309 291.406 213.473 293.208 213.473H314.467C317.063 213.473 319.401 215.21 320.131 217.72C322.49 225.765 327.854 246.788 326.652 268.305C325.172 295.293 314.231 313.549 294.173 322.58C269.438 333.714 243.266 333.714 238.289 333.607L243.674 380.33C248.093 401.332 246.355 415.384 238.568 422.077C231.768 427.912 223.702 426.475 211.474 424.287C200.833 422.377 186.245 419.782 166.23 421.155C154.839 421.948 147.245 423.665 141.131 425.037C136.712 426.067 133.258 426.861 129.997 426.861ZM103.246 351.82C103.331 351.82 103.439 351.841 103.524 351.884C103.803 351.992 103.975 352.27 103.954 352.571C101.937 392.344 108.137 416.22 122.381 423.557C128.216 426.561 132.678 425.552 140.809 423.707C146.644 422.377 154.624 420.575 166.123 419.782C186.288 418.387 200.983 421.004 211.71 422.935C223.53 425.037 231.317 426.432 237.624 421.026C245.004 414.697 246.57 401.096 242.258 380.609C242.258 380.588 242.258 380.566 242.258 380.545L236.766 332.985C236.745 332.77 236.809 332.577 236.959 332.427C237.109 332.277 237.302 332.191 237.517 332.212C237.796 332.234 266.564 333.478 293.572 321.336C313.116 312.54 323.756 294.692 325.215 268.262C326.395 246.96 321.075 226.13 318.736 218.149C318.178 216.24 316.419 214.931 314.424 214.931H293.165C291.813 214.931 290.59 215.554 289.775 216.626C288.96 217.72 288.724 219.072 289.11 220.38C294.795 239.28 294.237 255.091 287.48 266.117C282.396 274.419 273.793 279.89 262.616 281.928C248.372 284.523 237.238 280.061 230.416 275.857C230.395 275.835 224.088 272.51 197.529 265.345C171.293 258.266 117.576 259.51 85.0539 292.997C79.4119 298.811 74.5421 305.44 70.6163 312.691C70.4447 312.991 70.1015 313.12 69.7797 313.034C69.4579 312.927 69.2434 312.605 69.2863 312.283L73.1048 277.744C73.2121 276.672 72.9117 275.642 72.2038 274.827C71.5173 274.012 70.5305 273.54 69.4793 273.497C64.2449 273.239 54.6342 272.767 48.9493 272.424C46.5037 272.274 44.2726 273.797 43.5003 276.114C39.3814 288.578 26.8961 330.882 39.36 351.992C43.1356 358.384 48.9278 362.332 56.6078 363.769C86.4697 369.325 102.538 352.228 102.688 352.056C102.859 351.884 103.053 351.82 103.246 351.82Z" fill="#1AE3E3"/>
<path d="M69.285 249.874L66.7965 247.128V228.593C66.7965 226.791 65.3378 225.332 63.5358 225.332C61.7338 225.332 60.275 226.791 60.275 228.593V248.544L42.8984 252.319V262.509C42.8984 266.95 45.4727 270.983 49.5058 272.849L50.3639 273.257C55.5769 275.66 61.6694 275.209 66.4748 272.056C68.7916 270.533 70.3148 268.065 70.6795 265.32L71.6663 257.382C71.9881 254.658 71.13 251.912 69.285 249.874Z" fill="#FABCC6"/>
<path d="M57.3583 275.51C54.8913 275.51 52.4028 274.974 50.0645 273.901L49.2064 273.494C44.9373 271.52 42.1914 267.208 42.1914 262.51V251.741L59.568 247.965V228.594C59.568 226.406 61.3485 224.625 63.5367 224.625C65.7248 224.625 67.5054 226.406 67.5054 228.594V246.85L69.8008 249.403C71.7744 251.591 72.7184 254.551 72.3537 257.469L71.3668 265.406C71.0022 268.367 69.3503 271.005 66.8618 272.636C63.9657 274.545 60.662 275.51 57.3583 275.51ZM43.6073 252.899V262.51C43.6073 266.65 46.0314 270.469 49.8071 272.207L50.6652 272.614C55.685 274.931 61.4558 274.524 66.0895 271.477C68.2348 270.061 69.6506 267.787 69.9724 265.256L70.9592 257.319C71.281 254.787 70.4873 252.256 68.7711 250.368L66.111 247.408V228.594C66.111 227.178 64.974 226.041 63.5581 226.041C62.1423 226.041 61.0053 227.178 61.0053 228.594V249.124L43.6073 252.899Z" fill="#FABCC6"/>
<path d="M57.8717 253.804H55.1472C53.9673 253.804 53.0234 252.86 53.0234 251.68V243.636C53.0234 242.456 53.9673 241.512 55.1472 241.512H57.3139C58.7942 241.512 59.9955 242.713 59.9955 244.193V251.68C59.9955 252.839 59.0516 253.804 57.8717 253.804Z" fill="#FABCC6"/>
<path d="M57.8726 254.513H55.1481C53.5821 254.513 52.3164 253.247 52.3164 251.681V243.636C52.3164 242.07 53.5821 240.805 55.1481 240.805H57.3148C59.1812 240.805 60.7258 242.328 60.7258 244.216V251.703C60.7043 253.226 59.4386 254.513 57.8726 254.513ZM55.1481 242.199C54.3758 242.199 53.7323 242.843 53.7323 243.615V251.66C53.7323 252.432 54.3758 253.076 55.1481 253.076H57.8726C58.6449 253.076 59.2885 252.432 59.2885 251.66V244.173C59.2885 243.079 58.4089 242.199 57.3148 242.199H55.1481Z" fill="#FABCC6"/>
<path d="M50.9035 255.324H49.8738C48.6939 255.324 47.75 254.38 47.75 253.2V245.327C47.75 244.147 48.6939 243.203 49.8738 243.203H50.9035C52.0834 243.203 53.0273 244.147 53.0273 245.327V253.2C53.0273 254.38 52.0834 255.324 50.9035 255.324Z" fill="#FABCC6"/>
<path d="M50.9044 256.033H49.8747C48.3087 256.033 47.043 254.767 47.043 253.201V245.328C47.043 243.762 48.3087 242.496 49.8747 242.496H50.9044C52.4705 242.496 53.7362 243.762 53.7362 245.328V253.201C53.7362 254.767 52.4705 256.033 50.9044 256.033ZM49.8747 243.912C49.1024 243.912 48.4588 244.556 48.4588 245.328V253.201C48.4588 253.973 49.1024 254.617 49.8747 254.617H50.9044C51.6767 254.617 52.3203 253.973 52.3203 253.201V245.328C52.3203 244.556 51.6767 243.912 50.9044 243.912H49.8747Z" fill="#FABCC6"/>
<path d="M45.6229 257.234H45.0222C43.8423 257.234 42.8984 256.29 42.8984 255.11V247.323C42.8984 246.143 43.8423 245.199 45.0222 245.199H45.6229C46.8028 245.199 47.7467 246.143 47.7467 247.323V255.11C47.7467 256.29 46.7813 257.234 45.6229 257.234Z" fill="#FABCC6"/>
<path d="M45.6238 257.943H45.0231C43.4571 257.943 42.1914 256.677 42.1914 255.111V247.324C42.1914 245.758 43.4571 244.492 45.0231 244.492H45.6238C47.1898 244.492 48.4555 245.758 48.4555 247.324V255.111C48.4555 256.677 47.1898 257.943 45.6238 257.943ZM45.0231 245.908C44.2509 245.908 43.6073 246.552 43.6073 247.324V255.111C43.6073 255.883 44.2509 256.527 45.0231 256.527H45.6238C46.3961 256.527 47.0397 255.883 47.0397 255.111V247.324C47.0397 246.552 46.3961 245.908 45.6238 245.908H45.0231Z" fill="#FABCC6"/>
<path d="M156.641 232.541C153.208 234.686 147.802 238.033 141.796 236.252C135.403 234.343 130.082 227.113 131.284 222.287C132.314 218.06 137.741 218.146 138.578 213.727C139.35 209.565 134.845 207.999 134.523 202.894C134.116 196.093 141.474 187.984 148.274 187.791C152.457 187.662 152.886 190.644 157.713 190.923C164.299 191.309 165.608 185.946 173.095 185.217C174.36 185.088 181.847 184.058 186.588 188.928C189.57 191.996 191.072 196.951 190.021 201.349C188.197 208.879 180.41 207.956 169.598 218.876C163.055 225.44 163.119 228.508 156.641 232.541Z" fill="black"/>
<path d="M183.771 222.011C181.905 219.759 180.639 217.077 180.103 214.203C179.137 209.097 178.108 204.57 178.108 204.57C170.471 210.899 161.868 206.544 161.868 206.544C154.682 212.122 155.99 219.995 155.99 219.995C155.99 219.995 149.297 219.265 149.769 223.577C150.241 227.868 156.677 228.94 156.784 228.94L148.932 260.647C148.439 262.621 149.683 264.637 151.678 265.088C163.756 267.727 171.35 266.74 175.169 265.71C176.284 265.41 176.628 264.037 175.812 263.222C171.586 259.06 170.878 247.154 170.9 239.345C174.804 240.224 178.408 239.431 180.189 235.848C181.454 233.295 181.798 230.592 181.647 226.538C181.583 225.808 184.222 222.826 183.771 222.011Z" fill="#FABCC6"/>
<path d="M165.923 267.489C162.04 267.489 157.277 267.038 151.485 265.772C150.327 265.515 149.361 264.829 148.739 263.82C148.117 262.812 147.924 261.632 148.203 260.474L155.883 229.496C154.038 229.046 149.469 227.566 149.04 223.661C148.911 222.481 149.233 221.494 149.983 220.744C151.356 219.371 153.866 219.242 155.175 219.242C155.046 216.968 155.325 210.725 161.418 205.984L161.782 205.705L162.19 205.898C162.533 206.07 170.492 209.953 177.657 204.011L178.537 203.281L178.794 204.397C178.794 204.44 179.845 208.988 180.789 214.072C181.304 216.818 182.527 219.414 184.307 221.559L184.372 221.666C184.865 222.524 184.05 223.768 183.128 225.206C182.827 225.656 182.398 226.343 182.334 226.557C182.484 230.912 182.055 233.615 180.789 236.168C179.137 239.493 175.877 240.909 171.586 240.201C171.65 251.785 173.302 259.766 176.284 262.705C176.863 263.284 177.078 264.078 176.885 264.85C176.692 265.601 176.113 266.18 175.34 266.395C173.109 266.974 170.02 267.489 165.923 267.489ZM154.918 220.658C153.673 220.658 151.85 220.851 150.97 221.752C150.541 222.181 150.37 222.76 150.434 223.511C150.842 227.244 156.784 228.252 156.848 228.252L157.599 228.381L157.406 229.132L149.554 260.838C149.361 261.611 149.49 262.426 149.919 263.091C150.348 263.756 150.992 264.228 151.764 264.399C163.992 267.06 171.522 265.944 174.933 265.043C175.319 264.936 175.448 264.635 175.469 264.507C175.533 264.228 175.469 263.949 175.254 263.734C170.985 259.53 170.106 248.16 170.127 239.343V238.463L170.985 238.656C173.839 239.3 177.614 239.279 179.481 235.546C180.639 233.229 181.025 230.719 180.875 226.579C180.854 226.085 181.197 225.528 181.905 224.433C182.291 223.833 182.999 222.76 183.063 222.331C181.175 220.036 179.91 217.268 179.352 214.351C178.687 210.79 177.979 207.464 177.614 205.834C170.921 210.639 163.734 208.151 161.932 207.379C155.54 212.592 156.591 219.585 156.634 219.886L156.784 220.808L155.861 220.701C155.647 220.658 155.325 220.658 154.918 220.658Z" fill="#FABCC6"/>
<path d="M170.856 240.05C170.813 240.05 170.77 240.05 170.728 240.029C167.596 239.45 163.348 236.554 163.155 236.446C162.833 236.232 162.747 235.781 162.962 235.46C163.176 235.138 163.627 235.052 163.949 235.266C163.992 235.288 168.153 238.12 170.985 238.635C171.371 238.699 171.629 239.085 171.564 239.471C171.5 239.793 171.2 240.05 170.856 240.05Z" fill="#FABCC6"/>
<path d="M224.157 396.801C223.363 394.871 221.754 393.39 219.759 392.747C208.689 389.271 170.096 380.133 130.366 405.597C128.5 406.798 127.299 408.815 127.127 411.046C125.69 431.233 120.326 536.779 153.728 661.761L176.21 660.152L180.801 446.464C180.801 446.464 214.117 524.809 187.022 649.469L210.427 653.781C210.427 653.781 244.665 608.774 250.801 539.975C256.228 479.136 230.228 411.582 224.157 396.801Z" fill="#003C4F"/>
</g>
<path d="M271.244 439.346C271.244 439.346 285.145 426.625 291.602 401.933C291.945 400.581 285.982 399.101 286.282 397.685C286.668 395.862 293.876 392.344 294.155 390.413C296.579 374.345 295.228 354.909 285.488 332.984C285.488 332.984 280.189 338.583 274.59 348.537C273.947 349.696 276.864 355.488 276.199 356.754C275.577 357.955 271.394 354.63 270.793 355.917C261.976 374.988 255.24 404.507 271.244 439.346Z" fill="#005A76"/>
<path d="M277.404 447.005C277.404 447.005 343.864 425.853 363.901 345.535C364.394 343.54 355.856 340.429 356.307 338.391C356.736 336.331 368.706 330.175 369.093 328.051C370.873 317.882 371.881 306.941 371.924 295.164C371.903 295.164 276.525 334.594 277.404 447.005Z" fill="#005A76"/>
<path d="M290.104 427.636C289.975 427.636 289.868 427.615 289.74 427.529C289.396 427.336 289.289 426.907 289.482 426.564C296.905 413.864 303.512 402.236 309.154 391.982C309.347 391.639 309.776 391.51 310.119 391.703C310.463 391.896 310.591 392.325 310.398 392.669C304.756 402.923 298.127 414.572 290.705 427.272C290.598 427.529 290.362 427.636 290.104 427.636Z" fill="#046381"/>
<path d="M320.996 372.009C320.889 372.009 320.782 371.988 320.674 371.924C320.331 371.752 320.181 371.323 320.353 370.98C320.524 370.636 338.587 335.368 352.553 322.626C352.832 322.368 353.282 322.39 353.561 322.669C353.819 322.947 353.797 323.398 353.518 323.677C339.746 336.248 321.811 371.28 321.618 371.623C321.49 371.881 321.254 372.009 320.996 372.009Z" fill="#046381"/>
<path d="M88.1921 227.995H36.4272C33.3166 227.995 30.7852 225.464 30.7852 222.353C30.7852 219.242 33.3166 216.711 36.4272 216.711H85.103C85.4891 216.711 85.8109 217.033 85.8109 217.419C85.8109 217.805 85.4891 218.127 85.103 218.127H36.4272C34.1103 218.127 32.201 220.015 32.201 222.353C32.201 224.67 34.0888 226.579 36.4272 226.579H88.1707C88.5568 226.579 88.8786 226.901 88.8786 227.287C88.9 227.673 88.5783 227.995 88.1921 227.995Z" fill="#1A83A4"/>
<path d="M104.412 218.146H85.1259C84.7398 218.146 84.418 217.825 84.418 217.438C84.418 217.052 84.7398 216.73 85.1259 216.73H104.412C104.798 216.73 105.12 217.052 105.12 217.438C105.12 217.825 104.798 218.146 104.412 218.146Z" fill="#1A83A4"/>
<path d="M123.954 227.995H105.462C105.076 227.995 104.754 227.673 104.754 227.287C104.754 226.901 105.076 226.579 105.462 226.579H123.954C126.271 226.579 128.18 224.691 128.18 222.353C128.18 220.036 126.293 218.127 123.954 218.127H104.411C104.025 218.127 103.703 217.805 103.703 217.419C103.703 217.033 104.025 216.711 104.411 216.711H123.954C127.065 216.711 129.596 219.242 129.596 222.353C129.596 225.464 127.065 227.995 123.954 227.995Z" fill="#1A83A4"/>
<path d="M105.46 227.998H88.1689C87.7827 227.998 87.4609 227.676 87.4609 227.29C87.4609 226.904 87.7827 226.582 88.1689 226.582H105.46C105.846 226.582 106.168 226.904 106.168 227.29C106.168 227.676 105.867 227.998 105.46 227.998Z" fill="#1A83A4"/>
<path d="M61.1825 217.438H36.4263C33.7018 217.438 31.4922 219.647 31.4922 222.372C31.4922 225.096 33.7018 227.306 36.4263 227.306H61.161C63.8855 227.306 66.0951 225.096 66.0951 222.372C66.0951 219.647 63.8855 217.438 61.1825 217.438Z" fill="#13728F"/>
<path d="M69.9323 226.247C72.0811 222.77 71.0041 218.209 67.5269 216.06C64.0496 213.911 59.4888 214.988 57.34 218.466C55.1912 221.943 56.2681 226.504 59.7454 228.652C63.2226 230.801 67.7834 229.724 69.9323 226.247Z" fill="#2892B3"/>
<path d="M63.6287 227.757C60.6468 227.757 58.2227 225.333 58.2227 222.351C58.2227 219.369 60.6468 216.945 63.6287 216.945C66.6106 216.945 69.0347 219.369 69.0347 222.351C69.0347 222.738 68.7129 223.059 68.3268 223.059C67.9407 223.059 67.6189 222.738 67.6189 222.351C67.6189 220.163 65.8383 218.361 63.6287 218.361C61.4405 218.361 59.6385 220.142 59.6385 222.351C59.6385 224.561 61.4191 226.342 63.6287 226.342C64.0148 226.342 64.3366 226.663 64.3366 227.049C64.3366 227.436 64.0363 227.757 63.6287 227.757Z" fill="#0F708E"/>
</svg>
