<svg width="144" height="32" viewBox="0 0 144 32" fill="none" xmlns="http://www.w3.org/2000/svg">
<g clip-path="url(#clip0_4563_18418)">
<path d="M5.61387 29.2245C6.92865 29.2245 7.9024 29.049 8.53739 28.6971C9.17192 28.3461 9.48873 27.7838 9.48873 27.0107C9.48873 26.2144 9.17695 25.582 8.55476 25.1126C7.93211 24.6446 6.90534 24.1172 5.47536 23.5317C4.80566 23.2605 4.1423 22.9735 3.48581 22.6708C2.85128 22.3783 2.30361 22.0329 1.84234 21.6345C1.38048 21.2359 1.00369 20.7456 0.735103 20.1938C0.458524 19.631 0.320005 18.9411 0.320005 18.1202C0.320005 16.5039 0.908365 15.2211 2.08463 14.2725C3.26043 13.3239 4.86368 12.8494 6.89391 12.8494C7.4009 12.8494 7.9088 12.8786 8.41624 12.9371C8.92323 12.9961 9.39684 13.0662 9.8348 13.1479C10.2247 13.2193 10.6115 13.3071 10.9941 13.4112C11.3279 13.505 11.5875 13.5867 11.7727 13.6568L11.1843 16.4686C10.8383 16.2815 10.2961 16.0879 9.55776 15.8887C8.81945 15.6895 7.93166 15.5897 6.89391 15.5897C5.99423 15.5897 5.20975 15.7717 4.54139 16.1348C3.87211 16.4979 3.53838 17.0657 3.53838 17.8388C3.53838 18.2376 3.6129 18.5887 3.76285 18.8932C3.9128 19.1978 4.14366 19.4732 4.45498 19.7188C4.76676 19.9649 5.15215 20.1933 5.61433 20.4041C6.07514 20.6149 6.62922 20.8382 7.27472 21.0718C8.04723 21.3655 8.8089 21.6878 9.55822 22.038C10.227 22.3542 10.798 22.7233 11.2707 23.1449C11.7423 23.5652 12.1149 24.0877 12.361 24.6739C12.6148 25.271 12.7414 26.0032 12.7414 26.8696C12.7414 28.5564 12.1238 29.8337 10.8904 30.7001C9.65605 31.567 7.89737 32.0002 5.61433 32.0002C4.02251 32.0002 2.77722 31.8655 1.87708 31.5962C0.977396 31.3274 0.365721 31.1222 0.0429688 30.9819L0.630872 28.1706C0.999797 28.3112 1.58816 28.522 2.39549 28.8029C3.20283 29.0843 4.27532 29.2245 5.61387 29.2245ZM21.6249 21.5291C22.317 22.0682 23.0489 22.7358 23.8224 23.5317C24.6206 24.3579 25.3826 25.2196 26.1059 26.1141C26.8454 27.0271 27.5549 27.9647 28.233 28.9255C28.9023 29.8741 29.4669 30.7591 29.9286 31.5786H26.1576C25.673 30.7591 25.1139 29.9215 24.4793 29.0662C23.8448 28.211 23.1819 27.3919 22.4898 26.6063C21.8239 25.849 21.1194 25.1277 20.3791 24.4454C19.6646 23.7898 18.9834 23.2392 18.3379 22.7939V31.5786H15.1204V7.64821L18.3379 7.08594V20.9664L20.1716 19.104C20.8406 18.4244 21.4981 17.7331 22.1437 17.0305C22.7591 16.3607 23.3705 15.6871 23.9778 15.0098C24.5539 14.3658 25.0503 13.798 25.4654 13.3058H29.2365C28.6564 13.9466 28.0799 14.5907 27.5071 15.2382C26.8706 15.9558 26.2246 16.6645 25.5692 17.3643C24.8999 18.0793 24.2256 18.7934 23.5449 19.508C22.8642 20.2226 22.2246 20.8967 21.6249 21.5291ZM37.9508 12.8494C39.2423 12.8494 40.3321 13.0193 41.2199 13.3592C42.1077 13.6991 42.8232 14.1796 43.3649 14.8004C43.9066 15.4212 44.2934 16.159 44.5243 17.0142C44.7542 17.8695 44.8703 18.812 44.8703 19.8428V31.2624C44.5938 31.3102 44.207 31.3743 43.7114 31.456C43.215 31.5386 42.6559 31.6143 42.0332 31.6844C41.4106 31.7545 40.7354 31.8186 40.0089 31.8776C39.2821 31.9356 38.5611 31.9649 37.8466 31.9649C36.8312 31.9649 35.8973 31.8599 35.0442 31.6487C34.1907 31.4379 33.4529 31.104 32.8298 30.6472C32.2071 30.1908 31.7225 29.5881 31.3765 28.8378C31.0304 28.0888 30.8576 27.1862 30.8576 26.1322C30.8576 25.1252 31.0587 24.2583 31.4629 23.5317C31.8572 22.8155 32.4223 22.2114 33.1063 21.7747C33.7985 21.3299 34.6053 21.0017 35.5283 20.7909C36.4825 20.5764 37.4572 20.4702 38.4345 20.4742C38.7572 20.4742 39.0919 20.4919 39.4375 20.5271C39.784 20.562 40.1127 20.6093 40.4236 20.6678C40.7344 20.7263 41.0055 20.7788 41.2364 20.8262C41.4668 20.8735 41.6282 20.9083 41.7214 20.9316V20.0178C41.7214 19.4792 41.6634 18.9457 41.5482 18.4192C41.4411 17.9112 41.2289 17.4321 40.9255 17.0137C40.6256 16.6042 40.216 16.2755 39.6971 16.0299C39.1778 15.7838 38.5035 15.6607 37.6729 15.6607C36.6118 15.6607 35.6833 15.7374 34.8874 15.8892C34.092 16.0419 33.4977 16.2003 33.1059 16.3632L32.7251 13.6573C33.1402 13.4706 33.8323 13.2886 34.8015 13.1126C35.7711 12.9371 36.8203 12.8494 37.9508 12.8494ZM38.2274 29.2245C38.9025 29.2268 39.5776 29.2093 40.2517 29.1721C40.8396 29.1368 41.3292 29.0722 41.7224 28.9789V23.5321C41.491 23.4151 41.1166 23.3158 40.5973 23.2331C40.0784 23.1514 39.4498 23.1101 38.712 23.1101C38.2274 23.1101 37.714 23.1449 37.1723 23.2155C36.6305 23.2861 36.1341 23.4323 35.6847 23.6547C35.2461 23.8682 34.8615 24.1808 34.5601 24.5685C34.2602 24.9552 34.1107 25.4646 34.1107 26.097C34.1107 27.2684 34.4792 28.0823 35.2175 28.5392C35.9558 28.9961 36.9588 29.2245 38.2274 29.2245ZM60.0936 7.64868L63.3111 7.0864L63.3033 31.052C62.565 31.2624 61.6192 31.4736 60.4662 31.6844C59.3128 31.8952 57.9861 32.0006 56.4876 32.0006C55.1038 32.0006 53.858 31.7782 52.7508 31.3329C51.6436 30.8877 50.6977 30.2558 49.9137 29.4353C49.1287 28.6154 48.5235 27.6139 48.0969 26.4308C47.6695 25.2477 47.4569 23.918 47.4569 22.4419C47.4569 21.0365 47.6357 19.748 47.9936 18.5771C48.3507 17.4056 48.8759 16.3981 49.5676 15.5544C50.2597 14.7117 51.1069 14.0556 52.1103 13.5867C53.1133 13.1182 54.2608 12.8837 55.5527 12.8837C56.5909 12.8837 57.507 13.0249 58.3034 13.3058C59.0993 13.5862 59.6927 13.8565 60.0854 14.1137L60.0936 7.64868ZM60.0863 17.1716C59.6936 16.8438 59.1286 16.5276 58.3907 16.2226C57.6524 15.9184 56.8451 15.7661 55.9687 15.7661C55.0457 15.7661 54.2557 15.9361 53.5984 16.2755C52.9562 16.6021 52.4035 17.0849 51.9896 17.6809C51.5741 18.278 51.2742 18.987 51.0899 19.807C50.9048 20.6274 50.8129 21.5059 50.8129 22.4424C50.8129 24.575 51.3322 26.2205 52.37 27.3798C53.4077 28.5392 54.792 29.1196 56.5219 29.1196C57.3982 29.1196 58.1311 29.0787 58.719 28.9961C59.3073 28.9139 59.7622 28.8266 60.0859 28.7328V17.1716H60.0863ZM73.2616 12.8494C74.5535 12.8494 75.6429 13.0193 76.5311 13.3592C77.4185 13.6991 78.1344 14.1796 78.6761 14.8004C79.2178 15.4212 79.6041 16.159 79.8355 17.0142C80.0654 17.8695 80.1811 18.812 80.1811 19.8428V31.2624C79.9045 31.3102 79.5177 31.3743 79.0222 31.456C78.5257 31.5386 77.9666 31.6143 77.344 31.6844C76.7213 31.7545 76.0466 31.8186 75.3201 31.8776C74.5933 31.9356 73.8719 31.9649 73.1578 31.9649C72.1424 31.9649 71.208 31.8599 70.3554 31.6487C69.5014 31.4379 68.7641 31.104 68.1405 30.6472C67.5183 30.1908 67.0337 29.5881 66.6877 28.8378C66.3416 28.0888 66.1683 27.1862 66.1683 26.1322C66.1683 25.1252 66.3699 24.2583 66.7736 23.5317C67.1679 22.8155 67.733 22.2114 68.4171 21.7747C69.1092 21.3299 69.9165 21.0017 70.8395 20.7909C71.7937 20.5764 72.7684 20.4702 73.7457 20.4742C74.0684 20.4742 74.4031 20.4919 74.7487 20.5271C75.0792 20.56 75.4082 20.6069 75.7348 20.6678C76.006 20.7184 76.2768 20.7711 76.5471 20.8262C76.778 20.8735 76.9389 20.9083 77.0322 20.9316V20.0178C77.0322 19.4792 76.9741 18.9457 76.8589 18.4192C76.7518 17.9112 76.5398 17.4322 76.2367 17.0137C75.9368 16.6042 75.5272 16.2755 75.0079 16.0299C74.4886 15.7838 73.8143 15.6607 72.9841 15.6607C71.923 15.6607 70.9941 15.7374 70.1986 15.8892C69.4027 16.0419 68.8084 16.2003 68.4166 16.3632L68.0363 13.6573C68.4514 13.4706 69.1435 13.2886 70.1122 13.1126C71.0823 12.9371 72.131 12.8494 73.2616 12.8494ZM73.5386 29.2245C74.2137 29.2268 74.8888 29.2093 75.5629 29.1721C76.1512 29.1368 76.6404 29.0722 77.0336 28.9789V23.5321C76.8022 23.4151 76.4283 23.3158 75.9089 23.2331C75.3896 23.1514 74.7615 23.1101 74.0232 23.1101C73.5386 23.1101 73.0252 23.1449 72.4835 23.2155C71.9417 23.2861 71.4457 23.4323 70.9959 23.6547C70.5573 23.8682 70.1726 24.1808 69.8713 24.5685C69.5714 24.9552 69.4219 25.4646 69.4219 26.097C69.4219 27.2684 69.7908 28.0823 70.5291 28.5392C71.2665 28.9961 72.2695 29.2245 73.5386 29.2245ZM85.9774 13.3063H92.7931V16.0471H85.9774V24.4802C85.9774 25.394 86.0464 26.1499 86.1849 26.747C86.3234 27.3446 86.531 27.8135 86.8076 28.1525C87.0841 28.4923 87.4302 28.7324 87.8457 28.8731C88.2613 29.0137 88.7454 29.0838 89.299 29.0838C90.2678 29.0838 91.0463 28.9729 91.6342 28.75C92.0452 28.5962 92.4547 28.4381 92.8626 28.276L93.4852 30.9815C93.1625 31.1458 92.5974 31.3501 91.7901 31.5962C90.9823 31.8423 90.0602 31.9649 89.022 31.9649C87.7991 31.9649 86.7902 31.807 85.9947 31.4908C85.1993 31.1746 84.5588 30.7006 84.0747 30.0682C83.5905 29.4358 83.2495 28.6571 83.0543 27.7313C82.8577 26.8064 82.7594 25.7343 82.7594 24.516V7.64868L85.9774 7.0864V13.3063ZM94.8311 22.4777C94.8311 20.8614 95.0615 19.45 95.5232 18.2432C95.9845 17.037 96.5962 16.0354 97.3573 15.2387C98.0974 14.4569 98.9941 13.8457 99.9869 13.4465C100.955 13.0532 101.989 12.8506 103.032 12.8494C105.454 12.8494 107.31 13.6169 108.602 15.1509C109.893 16.6859 110.539 19.0228 110.539 22.162V22.7066C110.539 22.9295 110.528 23.1342 110.505 23.3213H98.188C98.3265 25.219 98.8678 26.6592 99.8141 27.644C100.759 28.6274 102.236 29.1201 104.243 29.1201C105.373 29.1201 106.324 29.0202 107.098 28.821C107.87 28.6219 108.452 28.4287 108.845 28.2411L109.294 30.9819C108.902 31.1927 108.216 31.4156 107.236 31.6496C106.255 31.8836 105.142 32.0011 103.897 32.0011C102.328 32.0011 100.973 31.7606 99.831 31.2805C98.6895 30.8009 97.7491 30.1388 97.0113 29.2956C96.273 28.4524 95.7253 27.4504 95.3678 26.291C95.0094 25.1307 94.8311 23.8604 94.8311 22.4777ZM107.183 20.6859C107.206 19.2094 106.842 17.9976 106.093 17.0486C105.343 16.1 104.311 15.6255 102.996 15.6255C102.258 15.6255 101.607 15.7722 101.042 16.0652C100.493 16.3448 100.005 16.733 99.6056 17.2069C99.2077 17.6859 98.8973 18.2332 98.689 18.8231C98.4716 19.4241 98.3263 20.0496 98.2566 20.6859H107.183Z" fill="#6BBDD7"/>
<path d="M127.985 0.00415454C119.031 -0.174139 111.654 5.40822 111.518 12.507C111.467 14.9729 112.305 17.4663 113.786 19.2585H113.785C115.435 21.2545 114.248 22.7909 113.35 23.2617C118.389 25.4676 125.469 25.651 127.492 25.6933C136.445 25.8744 143.82 20.2683 143.957 13.1723C144.094 6.07728 136.943 0.18477 127.985 0.00415454ZM133.364 13.5935C132.547 15.1819 130.982 16.7851 127.739 19.2325C124.494 16.7851 122.928 15.1819 122.111 13.5935C121.316 12.0771 121.531 9.53869 123.477 8.48146C124.906 7.70421 126.717 8.11002 127.739 9.40915C128.753 8.11002 130.569 7.70421 131.995 8.48146C133.943 9.53869 134.157 12.0775 133.364 13.5935Z" fill="#6BBDD7"/>
</g>
<defs>
<clipPath id="clip0_4563_18418">
<rect width="144" height="32" fill="white"/>
</clipPath>
</defs>
</svg>
