<svg width="125" height="40" viewBox="0 0 125 40" fill="none" xmlns="http://www.w3.org/2000/svg">
<g clip-path="url(#clip0_4563_18470)">
<path d="M0 32.2686V7.95328L21.4022 0.00390625L33.0336 3.74375V36.4768L21.4022 40.0008L0 32.2686L21.4022 34.8569V6.55116L7.44417 9.82446V28.9965L0.000628158 32.2686H0ZM55.8278 32.439C52.4597 32.439 49.7612 31.3222 47.7341 29.0906C45.7065 26.8602 44.6939 23.9562 44.6939 20.3811C44.6939 16.5403 45.7266 13.4759 47.7919 11.1893C49.8573 8.90276 52.6689 7.75947 56.2248 7.75947C59.5056 7.75947 62.1482 8.86993 64.1533 11.0896C66.1583 13.3105 67.1609 16.2133 67.1609 19.7991C67.1609 23.6955 66.1326 26.7756 64.0785 29.0413C62.0245 31.3071 59.2751 32.439 55.8278 32.439ZM56.0263 10.291C53.5301 10.291 51.5037 11.1963 49.9459 13.0056C48.3881 14.8149 47.6091 17.1911 47.6091 20.1324C47.6091 23.0736 48.3692 25.4417 49.8874 27.2346C51.4057 29.0275 53.3862 29.9239 55.8272 29.9239C58.4334 29.9239 60.4887 29.0691 61.9906 27.3596C63.4925 25.65 64.2444 23.258 64.2444 20.1829C64.2444 17.0295 63.5145 14.5933 62.0565 12.8724C60.5999 11.1521 58.5892 10.2904 56.0263 10.2904V10.291ZM77.0617 6.42616C75.5259 6.42616 74.2501 6.95203 73.2237 7.9899C72.1967 9.02713 71.6823 10.44 71.6823 12.2272V14.9898H68.789V17.3275H71.6823V32.0413H74.3871V17.3275H81.0014V32.0413H83.7062V17.3275H87.6761V14.9898H83.7062V12.3591C83.7062 9.95072 84.6566 8.75062 86.5561 8.75062C87.2301 8.75062 87.8294 8.8895 88.3589 9.18874V6.73423C87.8734 6.53474 87.2245 6.42679 86.3966 6.42679C84.8608 6.42679 83.5706 6.9533 82.5435 7.99053C81.5159 9.02839 81.0021 10.4412 81.0021 12.2278V14.9904H74.3871V12.3604C74.3871 9.95136 75.3356 8.75125 77.2363 8.75125C77.9097 8.75125 78.5089 8.89013 79.0391 9.18937V6.73486C78.5529 6.53348 77.8902 6.42616 77.0617 6.42616ZM91.6272 10.6559C91.3973 10.6601 91.1688 10.6181 90.9553 10.5322C90.7418 10.4463 90.5476 10.3184 90.3841 10.1559C90.0417 9.82257 89.8702 9.40149 89.8702 8.89077C89.8702 8.38004 90.0417 7.95581 90.3841 7.61743C90.5464 7.45269 90.7402 7.32272 90.9538 7.23538C91.1675 7.14803 91.3966 7.10511 91.6272 7.10923C92.124 7.10923 92.5462 7.27779 92.8948 7.61743C93.2434 7.95581 93.4161 8.38004 93.4161 8.89077C93.42 9.12393 93.3756 9.35535 93.2858 9.5704C93.1961 9.78545 93.0629 9.97944 92.8948 10.1401C92.5468 10.4835 92.124 10.6559 91.6272 10.6559ZM92.9526 32.0363H90.2352V14.9847H92.9519V32.0363H92.9526ZM108.39 31.2541C107.087 32.0419 105.539 32.4365 103.751 32.4365C101.332 32.4365 99.3798 31.6455 97.8948 30.0628C96.4099 28.4801 95.6649 26.4309 95.6649 23.9101C95.6649 21.1008 96.4658 18.8452 98.0676 17.1413C99.67 15.4368 101.807 14.5851 104.48 14.5851C105.97 14.5851 107.286 14.8629 108.423 15.4184V18.2151C107.164 17.3275 105.816 16.8831 104.381 16.8831C102.646 16.8831 101.224 17.5081 100.113 18.7568C99.0035 20.0061 98.4489 21.6456 98.4489 23.6772C98.4489 25.6759 98.9702 27.2522 100.014 28.4069C101.058 29.5609 102.457 30.1379 104.215 30.1379C105.694 30.1379 107.087 29.6436 108.39 28.6562V31.2541ZM125 24.1942H113.021C113.065 26.0919 113.573 27.5572 114.544 28.59C115.518 29.6215 116.854 30.1379 118.555 30.1379C120.466 30.1379 122.223 29.5054 123.823 28.2396V30.8039C122.333 31.8917 120.361 32.4359 117.909 32.4359C115.512 32.4359 113.628 31.6619 112.259 30.1127C110.889 28.5634 110.205 26.3861 110.205 23.5768C110.205 20.9234 110.953 18.7612 112.449 17.0901C113.946 15.4191 115.805 14.5845 118.024 14.5845C120.244 14.5845 121.962 15.3061 123.177 16.7492C124.392 18.1924 124.999 20.1962 124.999 22.7605V24.1936L125 24.1942ZM122.217 21.8792C122.206 20.3028 121.828 19.0762 121.082 18.1993C120.336 17.3218 119.3 16.8837 117.975 16.8837C116.693 16.8837 115.606 17.3452 114.711 18.2663C113.816 19.188 113.264 20.3925 113.055 21.8792H122.217Z" fill="#6BBDD7"/>
</g>
<defs>
<clipPath id="clip0_4563_18470">
<rect width="125" height="40" fill="white"/>
</clipPath>
</defs>
</svg>
