<svg width="84" height="33" viewBox="0 0 84 33" fill="none" xmlns="http://www.w3.org/2000/svg">
<path fill-rule="evenodd" clip-rule="evenodd" d="M1.47171 1.61328H14.3415L13.7897 13.0732C13.5854 11.8273 12.7274 10.8467 10.9296 10.2338L1.22656 6.76091L1.47171 1.61328Z" fill="#6BBDD7"/>
<path fill-rule="evenodd" clip-rule="evenodd" d="M81.0376 3.73826L81.7524 4.90248H82.3855L81.426 3.3912C81.9365 3.32969 82.3248 3.06388 82.3248 2.45147C82.3248 1.73623 81.8952 1.45023 81.0789 1.45023H81.0376V1.94052C81.3847 1.94052 81.7524 2.00203 81.7524 2.41016C81.7524 2.88025 81.426 2.94131 81.0376 2.94131V3.73826ZM81.0376 6.25079V5.69944C82.3248 5.63792 83.3256 4.61648 83.3256 3.1254C83.3256 1.63431 82.3248 0.592214 81.0376 0.551356V0C82.631 0.0615112 84 1.2868 84 3.1254C84 4.96399 82.631 6.18973 81.0376 6.25079ZM80.3228 3.43205H80.8535L81.0376 3.73826V2.94131L80.3228 2.94176V1.94097L81.0376 1.94052V1.45023L79.7503 1.45068V4.90293H80.3228V3.43205ZM81.0376 0V0.551356L80.9357 0.551805C79.5869 0.551805 78.5453 1.61411 78.5453 3.12584C78.5453 4.53521 79.4643 5.69988 80.9357 5.69988L81.0376 5.69944V6.25079L80.9357 6.25124C79.1581 6.25124 77.8709 4.90293 77.8709 3.12584C77.8709 1.24639 79.3014 0.00044874 80.9357 0.00044874L81.0376 0ZM13.6869 14.9737L13.7893 13.074C13.36 12.0732 12.7476 11.2969 11.8281 10.9292C10.6432 10.4389 8.35519 13.0534 6.21038 16.2403L1.12381 8.53883L1.14402 8.43691L0 31.3361H12.8698L13.1356 25.8212C14.7286 29.3956 17.4458 31.9292 21.0005 31.9292C22.1445 31.9292 23.0635 31.8067 23.8398 31.5822C25.0247 31.2351 25.8621 30.6631 26.598 29.9272L26.5365 31.3366H36.4438L36.7505 25.1886C37.7719 29.2744 42.8172 32.0523 48.4964 32.0312H49.538C50.7483 32.0107 51.9562 31.9152 53.1546 31.7451C54.7472 31.5409 56.28 31.1933 57.7909 30.7246L58.7921 26.5567C59.1194 29.9479 62.4891 31.9499 65.8802 31.9701C67.4535 31.9701 68.9037 31.6239 70.3544 30.9284C70.8851 30.6635 71.4365 30.3367 71.9883 29.9892H72.4381L72.3766 31.337H82.284C82.1614 26.3524 82.3859 20.102 82.7541 13.3201C82.7743 10.1745 79.6489 7.51873 72.4579 7.53938C71.7431 7.53938 71.0485 7.58024 70.354 7.64175C67.6573 7.86624 65.104 8.47911 62.7957 9.19435L61.917 16.2214C64.0417 14.8933 66.5744 13.7906 68.9235 13.6478C69.4551 13.607 69.9247 13.607 70.354 13.6478C72.2532 13.7906 73.1323 14.5669 73.0506 15.7927C72.1306 16.0171 71.2317 16.2219 70.354 16.4262C65.7783 17.488 61.9988 18.4691 60.8956 20.0414L60.8341 16.63C60.8341 11.2166 57.2386 8.70405 53.1542 8.00947C52.2553 7.86624 51.3353 7.78498 50.4365 7.80518C50.1302 7.80518 49.8236 7.80518 49.5376 7.82584C43.4507 8.00947 39.2015 10.3384 37.2605 15.0774L37.9344 1.61545H28.0069L27.6392 8.9694L24.6772 8.9492C19.9503 8.9474 15.6315 10.2656 13.6869 14.9737ZM70.354 26.4543H70.0069C68.5966 26.4956 67.8823 25.6371 67.8208 24.4725C67.8823 23.2876 68.5567 22.3685 70.3544 21.7354C70.7119 21.6224 71.0728 21.5203 71.4365 21.4292C71.9681 21.3466 72.4579 21.1019 72.8867 20.877L72.642 25.7597C72.0493 26.1683 71.4163 26.3928 70.354 26.4543ZM53.1542 24.4936C52.6226 24.5551 52.051 24.5753 51.4786 24.5753C50.7225 24.5753 50.0894 24.5138 49.538 24.4114C47.5975 24.0441 46.8212 23.0635 46.8625 21.4701H59.4458C59.113 21.9098 58.9082 22.433 58.8541 22.9818C57.1371 23.7779 55.2981 24.3095 53.1542 24.4936ZM49.5376 17.1598H46.3103C46.555 14.9333 47.8422 13.4211 49.5376 13.2985C49.6193 13.2783 49.7015 13.2783 49.7832 13.2783C51.7852 13.2985 52.7658 14.7084 52.7456 17.1598H49.5376ZM23.7007 24.2884C21.973 24.2498 20.1671 23.2045 20.3876 20.9385C20.6121 18.549 21.92 16.8532 23.8398 16.322C24.2912 16.1939 24.7602 16.1387 25.229 16.1586L27.2925 16.1994L27.0681 20.6727C26.8278 22.795 25.5873 24.2112 23.9418 24.2857C23.8609 24.2902 23.7806 24.2902 23.7007 24.2884Z" fill="#6BBDD7"/>
</svg>
