<svg width="168" height="35" viewBox="0 0 168 35" fill="none" xmlns="http://www.w3.org/2000/svg">
<path d="M54.74 4.12303C52.751 2.12695 50.1063 1.02734 47.2928 1.02734C44.4817 1.02734 41.8395 2.12449 39.8504 4.11727L36.0895 7.89065L35.5084 8.47377L31.1697 4.11974C27.0654 0.00175416 20.3877 -0.000713348 16.281 4.1148L4.22044 15.9169L4.20979 15.9276C2.22074 17.9237 1.125 20.5777 1.125 23.4012C1.125 26.2246 2.22074 28.8786 4.20979 30.8747C6.19884 32.8708 8.84353 33.9704 11.657 33.9704C14.4681 33.9704 17.1103 32.8733 19.0994 30.8805L22.8603 27.1071L23.4414 26.524L27.7801 30.878C31.8852 34.9968 38.5621 34.9993 42.6697 30.8838L54.7302 19.0817L54.7408 19.071C56.7299 17.0749 57.8256 14.4209 57.8256 11.5974C57.8248 8.77314 56.7299 6.1191 54.74 4.12303ZM16.2801 27.7338L15.9572 28.0455C13.456 30.3813 9.60571 30.3122 7.18886 27.886C5.99559 26.6885 5.33831 25.0954 5.33831 23.402C5.33831 21.7102 5.99395 20.1204 7.18394 18.9229L19.4256 6.94813C21.9268 4.61485 25.7746 4.68558 28.1915 7.11097L32.5113 11.4461L16.2801 27.7338ZM51.7667 16.0756L39.5242 28.0504C37.023 30.3837 33.1752 30.313 30.7583 27.8876L26.4385 23.5525L42.6697 7.26395L42.9926 6.95224C45.4938 4.6165 49.3441 4.68558 51.7609 7.1118C52.9542 8.30928 53.6115 9.90236 53.6115 11.5958C53.6123 13.2884 52.9567 14.879 51.7667 16.0756Z" fill="#6BBDD7"/>
<path d="M70.9635 9.51953V20.0263L62.3164 9.51953H59.6758V25.4824H62.8753V14.9493L71.5117 25.4824H74.172V9.51953H70.9635ZM84.0877 9.51953C79.5646 9.51953 76.0209 13.0256 76.0209 17.5005C76.0209 21.9755 79.5646 25.4816 84.0877 25.4816C88.6059 25.4816 92.1456 21.9755 92.1456 17.5005C92.1456 13.0256 88.6067 9.51953 84.0877 9.51953ZM84.0877 22.3867C81.3521 22.3867 79.2098 20.2409 79.2098 17.5014C79.2098 14.7618 81.3521 12.616 84.0877 12.616C86.8177 12.616 88.9559 14.7618 88.9559 17.5014C88.9559 20.2409 86.8177 22.3867 84.0877 22.3867ZM103.316 9.51953L99.1117 20.6768L94.9074 9.51953H91.4858L97.7201 25.4824H100.494L106.738 9.51953H103.316ZM114.145 9.51953C109.621 9.51953 106.077 13.0256 106.077 17.5005C106.077 21.9755 109.621 25.4816 114.145 25.4816C118.663 25.4816 122.202 21.9755 122.202 17.5005C122.202 13.0256 118.663 9.51953 114.145 9.51953ZM114.145 22.3867C111.409 22.3867 109.267 20.2409 109.267 17.5014C109.267 14.7618 111.409 12.616 114.145 12.616C116.875 12.616 119.013 14.7618 119.013 17.5014C119.013 20.2409 116.875 22.3867 114.145 22.3867ZM135.348 9.51953V20.0263L126.701 9.51953H124.061V25.4824H127.26V14.9493L135.896 25.4824H138.558V9.51953H135.348ZM139.855 9.51953V12.5831H143.831V25.4824H147.098V12.5831H151.066V9.51953H139.855ZM158.818 9.51953C154.294 9.51953 150.75 13.0256 150.75 17.5005C150.75 21.9755 154.294 25.4816 158.818 25.4816C163.336 25.4816 166.875 21.9755 166.875 17.5005C166.875 13.0256 163.336 9.51953 158.818 9.51953ZM158.818 22.3867C156.082 22.3867 153.94 20.2409 153.94 17.5014C153.94 14.7618 156.082 12.616 158.818 12.616C161.548 12.616 163.686 14.7618 163.686 17.5014C163.686 20.2409 161.548 22.3867 158.818 22.3867Z" fill="#6BBDD7"/>
</svg>
