<svg width="115" height="37" viewBox="0 0 115 37" fill="none" xmlns="http://www.w3.org/2000/svg">
<g clip-path="url(#clip0_4563_18446)">
<path d="M14.1633 0.00390625H15.186C18.7363 0.0799853 22.2288 1.48745 24.7371 3.97904C23.811 4.91101 22.8655 5.80494 21.9586 6.73691C20.5501 5.4816 18.8521 4.51159 16.9997 4.16924C14.2598 3.59864 11.3076 4.11218 9.01147 5.65278C6.50308 7.26946 4.80509 10.0083 4.43848 12.9374C4.03328 15.8284 4.86298 18.8715 6.77321 21.1159C8.60627 23.3031 11.4041 24.6726 14.2984 24.7676C16.9997 24.9198 19.8168 24.102 21.785 22.238C23.3286 20.9257 24.0425 18.9286 24.2741 16.9886C21.071 16.9886 17.868 17.0076 14.665 16.9886V13.0705H28.1524C28.847 17.2739 27.8437 22.0098 24.6021 25.0149C22.441 27.1451 19.4502 28.4004 16.4016 28.6477C13.4494 28.933 10.4007 28.3814 7.77657 26.9739C4.63143 25.3192 2.12304 22.5233 0.888145 19.2329C-0.269573 16.2088 -0.288868 12.7852 0.791669 9.74203C1.77573 6.96514 3.66667 4.51159 6.09788 2.79981C8.43261 1.10705 11.269 0.175084 14.1633 0.00390625Z" fill="#6BBDD7"/>
<path d="M91.5352 0.992188H95.6644V28.1524C94.2944 28.1524 92.9051 28.1714 91.5352 28.1334C91.5545 19.099 91.5352 10.0456 91.5352 0.992188Z" fill="#6BBDD7"/>
<path d="M37.3404 10.407C39.8874 9.93151 42.6466 10.4641 44.7498 11.9666C46.66 13.298 47.9914 15.3902 48.3966 17.6726C48.9176 20.3163 48.2615 23.2073 46.525 25.2995C44.6533 27.6389 41.5854 28.8942 38.5946 28.704C35.8547 28.5519 33.1919 27.2015 31.5711 24.9952C29.7381 22.5606 29.2943 19.2132 30.2976 16.3602C31.301 13.298 34.1374 10.9586 37.3404 10.407ZM37.9193 14.0208C36.8773 14.287 35.9126 14.8766 35.2179 15.7135C33.3463 17.9198 33.462 21.5145 35.5266 23.5687C36.7037 24.7479 38.4788 25.2995 40.1189 24.9761C41.6433 24.7099 42.9746 23.7018 43.7079 22.3704C44.9813 20.1071 44.6147 16.9878 42.6659 15.219C41.4117 14.0778 39.5787 13.6023 37.9193 14.0208Z" fill="#6BBDD7"/>
<path d="M57.7914 10.4084C60.705 9.85683 63.8887 10.6557 66.0691 12.6718C69.6194 15.81 70.0053 21.6871 66.9759 25.3009C65.1429 27.5833 62.1714 28.8386 59.2385 28.7054C56.4407 28.6293 53.6815 27.2599 52.0221 24.9966C50.1504 22.505 49.7452 19.0814 50.8065 16.1714C51.8677 13.2043 54.6462 10.941 57.7914 10.4084ZM58.3702 14.0222C57.3283 14.2884 56.3635 14.878 55.6689 15.6959C53.8165 17.8642 53.8937 21.4018 55.8811 23.475C57.0582 24.7113 58.8912 25.3199 60.5892 24.9775C62.0942 24.6923 63.4449 23.7032 64.1781 22.3718C65.4323 20.0895 65.0657 16.9702 63.0976 15.2014C61.8434 14.0602 60.0103 13.6037 58.3702 14.0222Z" fill="#6BBDD7"/>
<path d="M75.1359 11.5121C77.3548 10.1427 80.307 9.76232 82.6996 10.9415C83.4521 11.2649 84.0696 11.8165 84.6677 12.368C84.687 11.8545 84.6677 11.3219 84.687 10.7894C85.9798 10.8084 87.2726 10.7894 88.5847 10.8084V27.5838C88.5654 30.1135 87.9094 32.7953 86.057 34.6402C84.031 36.6753 80.9245 37.303 78.1266 36.8845C75.1359 36.4471 72.531 34.2978 71.3733 31.578C72.531 31.0264 73.7466 30.589 74.9429 30.0754C75.6182 31.6351 76.9882 32.9664 78.7055 33.2708C80.4228 33.5751 82.4102 33.1566 83.5293 31.7492C84.7256 30.3037 84.7256 28.3256 84.6677 26.5568C83.7802 27.4127 82.7575 28.1735 81.5226 28.4588C78.8406 29.2005 75.8884 28.2876 73.8238 26.4997C71.7399 24.7119 70.505 21.954 70.6208 19.2151C70.6786 16.1149 72.4538 13.1288 75.1359 11.5121ZM79.13 13.9467C77.953 14.1369 76.8531 14.7835 76.1006 15.6775C74.2869 17.8077 74.2869 21.2122 76.1199 23.3044C77.1619 24.5407 78.8406 25.2254 80.4614 25.0542C81.9857 24.9021 83.3943 23.9511 84.1468 22.6387C85.4203 20.4134 85.208 17.3892 83.4907 15.4492C82.4295 14.251 80.7315 13.6614 79.13 13.9467Z" fill="#6BBDD7"/>
<path d="M100.625 12.4823C102.94 10.3521 106.51 9.62934 109.481 10.7515C112.298 11.7976 114.093 14.4413 115 17.1612C110.813 18.8729 106.645 20.5657 102.458 22.2775C103.037 23.3616 103.924 24.3506 105.121 24.7501C106.799 25.3397 108.806 25.1305 110.215 24.0273C110.774 23.6089 111.218 23.0573 111.642 22.5247C112.704 23.2285 113.765 23.9132 114.826 24.6169C113.321 26.8422 110.793 28.4019 108.073 28.6491C105.063 29.0105 101.86 27.8693 99.9109 25.5489C96.7078 21.8971 97.0166 15.7727 100.625 12.4823ZM102.689 16.001C102.033 16.9329 101.763 18.0741 101.783 19.1963C104.58 18.0551 107.378 16.9139 110.176 15.7537C109.713 14.6886 108.594 14.0419 107.455 13.8707C105.622 13.5474 103.712 14.5174 102.689 16.001Z" fill="#6BBDD7"/>
</g>
<defs>
<clipPath id="clip0_4563_18446">
<rect width="115" height="37" fill="white"/>
</clipPath>
</defs>
</svg>
