<svg width="157" height="33" viewBox="0 0 157 33" fill="none" xmlns="http://www.w3.org/2000/svg">
<g clip-path="url(#clip0_4563_18438)">
<path d="M156.999 14.9286V12.2116H153.571V7.98764L153.455 8.02261L150.235 8.99225L150.171 9.01123V12.2117H145.088V10.4288C145.088 9.59857 145.277 8.96326 145.649 8.53956C146.018 8.12095 146.546 7.90813 147.219 7.90813C147.704 7.90813 148.205 8.02037 148.709 8.24171L148.836 8.2973V5.43591L148.776 5.41439C148.306 5.2479 147.666 5.16406 146.872 5.16406C145.872 5.16406 144.963 5.37823 144.171 5.80267C143.378 6.22771 142.754 6.83448 142.317 7.60594C141.882 8.37651 141.661 9.26649 141.661 10.2514V12.2116H139.273V14.9286H141.661V26.3749H145.088V14.9286H150.171V22.2025C150.171 25.1983 151.607 26.7164 154.439 26.7164C154.905 26.7164 155.394 26.6627 155.894 26.5577C156.404 26.4498 156.75 26.342 156.954 26.2269L157 26.2006V23.4585L156.86 23.5492C156.674 23.6712 156.442 23.7709 156.171 23.845C155.898 23.9205 155.67 23.9583 155.494 23.9583C154.83 23.9583 154.34 23.7824 154.035 23.4352C153.727 23.0849 153.571 22.4723 153.571 21.6153V14.9286H156.999ZM131.619 23.9587C130.375 23.9587 129.395 23.5528 128.703 22.7533C128.008 21.9497 127.656 20.804 127.656 19.3483C127.656 17.8465 128.008 16.671 128.704 15.8532C129.395 15.0408 130.367 14.6285 131.591 14.6285C132.78 14.6285 133.726 15.0223 134.404 15.7996C135.085 16.5809 135.43 17.7469 135.43 19.2663C135.43 20.8043 135.105 21.9857 134.464 22.776C133.828 23.5603 132.871 23.9587 131.619 23.9587ZM131.772 11.8704C129.398 11.8704 127.513 12.5547 126.169 13.9044C124.826 15.2542 124.145 17.1222 124.145 19.457C124.145 21.6745 124.81 23.4582 126.121 24.7577C127.432 26.0576 129.217 26.7161 131.425 26.7161C133.725 26.7161 135.573 26.0222 136.916 24.6538C138.26 23.2869 138.94 21.4366 138.94 19.1564C138.94 16.9042 138.302 15.1072 137.042 13.8164C135.781 12.525 134.007 11.8704 131.772 11.8704ZM118.619 11.8704C117.005 11.8704 115.669 12.2767 114.649 13.0779C113.623 13.8839 113.102 14.941 113.102 16.2201C113.102 16.8851 113.214 17.4757 113.436 17.9766C113.658 18.4793 114.002 18.9218 114.46 19.2932C114.914 19.6616 115.615 20.0474 116.543 20.44C117.324 20.7561 117.906 21.0235 118.276 21.2342C118.637 21.4408 118.894 21.6484 119.039 21.8506C119.179 22.0484 119.251 22.3192 119.251 22.6534C119.251 23.605 118.527 24.068 117.037 24.068C116.484 24.068 115.853 23.9544 115.163 23.7305C114.477 23.51 113.83 23.1871 113.244 22.7731L113.102 22.6727V25.9198L113.154 25.9437C113.639 26.164 114.25 26.3498 114.971 26.496C115.69 26.6423 116.344 26.7167 116.912 26.7167C118.663 26.7167 120.074 26.3084 121.104 25.5024C122.14 24.6909 122.665 23.6089 122.665 22.2855C122.665 21.3308 122.382 20.5121 121.825 19.8518C121.272 19.1969 120.311 18.5957 118.972 18.0642C117.905 17.6428 117.221 17.2929 116.939 17.0243C116.667 16.7649 116.529 16.398 116.529 15.9334C116.529 15.5215 116.7 15.1915 117.049 14.9243C117.402 14.6557 117.893 14.5191 118.508 14.5191C119.079 14.5191 119.663 14.6079 120.244 14.7818C120.825 14.9558 121.335 15.1888 121.761 15.4738L121.901 15.5679V12.4878L121.847 12.465C121.454 12.2993 120.936 12.1575 120.307 12.0424C119.681 11.9281 119.113 11.8704 118.619 11.8704ZM104.167 23.9587C102.923 23.9587 101.942 23.5528 101.251 22.7533C100.556 21.9497 100.204 20.8043 100.204 19.3483C100.204 17.8465 100.556 16.671 101.252 15.8532C101.943 15.0408 102.914 14.6285 104.14 14.6285C105.328 14.6285 106.274 15.0223 106.951 15.7996C107.633 16.5809 107.978 17.7469 107.978 19.2663C107.978 20.8043 107.653 21.9857 107.012 22.776C106.376 23.5603 105.419 23.9587 104.167 23.9587ZM104.32 11.8704C101.946 11.8704 100.061 12.5547 98.7174 13.9044C97.3742 15.2542 96.6928 17.1222 96.6928 19.457C96.6928 21.6754 97.358 23.4582 98.6693 24.7577C99.9806 26.0576 101.765 26.7161 103.973 26.7161C106.273 26.7161 108.121 26.0222 109.465 24.6538C110.808 23.2869 111.488 21.4366 111.488 19.1564C111.488 16.9042 110.85 15.1072 109.589 13.8164C108.328 12.525 106.555 11.8704 104.32 11.8704ZM91.4901 14.6644V12.2116H88.1045V26.3746H91.4901V19.1297C91.4901 17.8977 91.774 16.8857 92.3341 16.1212C92.8871 15.3659 93.624 14.9831 94.5237 14.9831C94.8287 14.9831 95.171 15.0326 95.5417 15.1305C95.9086 15.2278 96.1744 15.3335 96.3312 15.4446L96.4735 15.5461V12.1874L96.4186 12.1642C96.1033 12.0324 95.6573 11.9659 95.0929 11.9659C94.2421 11.9659 93.4808 12.2349 92.8286 12.7645C92.2562 13.2301 91.8425 13.8684 91.5261 14.6644H91.4901ZM82.0415 11.8704C80.4883 11.8704 79.1029 12.1981 77.9245 12.8442C76.7437 13.4918 75.8305 14.4163 75.2092 15.5919C74.5906 16.7646 74.2765 18.1345 74.2765 19.6622C74.2765 21.0003 74.581 22.2284 75.1829 23.3107C75.7851 24.3948 76.6374 25.243 77.7163 25.8312C78.7937 26.4187 80.0389 26.7165 81.4177 26.7165C83.0266 26.7165 84.4003 26.4 85.5017 25.7757L85.5462 25.7506V22.6984L85.4039 22.8006C84.905 23.1583 84.3475 23.4437 83.7476 23.6494C83.1492 23.8549 82.6036 23.9587 82.1252 23.9587C80.7968 23.9587 79.7303 23.5497 78.9562 22.7432C78.1804 21.9358 77.7871 20.8019 77.7871 19.3751C77.7871 17.9393 78.1973 16.7763 79.0057 15.9181C79.8117 15.0625 80.8802 14.6285 82.1811 14.6285C83.2939 14.6285 84.3783 14.9993 85.4042 15.7316L85.5462 15.8331V12.617L85.5003 12.5916C85.1143 12.379 84.5877 12.2034 83.9341 12.0702C83.2831 11.9373 82.6465 11.8704 82.0415 11.8704ZM71.9448 12.2117H68.5592V26.3746H71.9448V12.2117ZM70.2866 6.17824C69.7294 6.17824 69.2434 6.3649 68.8441 6.73479C68.4431 7.10573 68.2398 7.57276 68.2398 8.12394C68.2398 8.66645 68.4407 9.12496 68.8379 9.48604C69.2324 9.84606 69.7199 10.0285 70.2867 10.0285C70.8534 10.0285 71.3427 9.84606 71.742 9.48663C72.1439 9.12496 72.3477 8.6666 72.3477 8.12394C72.3477 7.59204 72.1493 7.12979 71.7586 6.74974C71.3681 6.37043 70.8727 6.17824 70.2866 6.17824ZM61.8393 11.1668V26.3746H65.2945V6.61179H60.5124L54.434 21.291L48.5354 6.61179H43.5586V26.3744H46.8055V11.1653H46.917L53.1458 26.3746H55.5962L61.7278 11.1668H61.8393Z" fill="#6BBDD7"/>
<path d="M15.9268 15.6804H0V0.0078125H15.9268V15.6804Z" fill="#6BBDD7"/>
<path d="M33.5124 15.6804H17.5859V0.0078125H33.5124V15.6804Z" fill="#6BBDD7"/>
<path d="M15.9264 32.9928H0V17.3203H15.9264V32.9928Z" fill="#6BBDD7"/>
<path d="M33.5124 32.9928H17.5859V17.3203H33.5124V32.9928Z" fill="#6BBDD7"/>
</g>
<defs>
<clipPath id="clip0_4563_18438">
<rect width="157" height="33" fill="white"/>
</clipPath>
</defs>
</svg>
