<svg width="116" height="28" viewBox="0 0 116 28" fill="none" xmlns="http://www.w3.org/2000/svg">
<g clip-path="url(#clip0_4563_18433)">
<path d="M70.1339 9.4651C68.7625 7.57174 66.8767 6.43165 64.3234 6.43165C60.0614 6.43165 56.6082 9.87227 56.6082 14.1154C56.6082 18.3585 60.0614 21.7957 64.3234 21.7957C65.7852 21.7929 67.2162 21.3802 68.4491 20.6058C69.6821 19.8314 70.6662 18.7271 71.2866 17.422C71.2866 17.422 63.353 17.4254 63.353 17.422V11.1311H77.8869V1.37761H90.8447V7.66505H84.0569C84.0569 7.66505 84.0329 11.1311 84.0569 11.1311H90.8447V17.4203H84.0569V20.6709H90.8447V26.8005C91.0632 26.8141 77.88 26.7904 77.88 26.8005V17.4746C76.3469 24.4254 70.6844 28 64.3234 28C58.0174 28 52.7816 24.327 51.2554 17.824L51.2537 26.8005H44.8789V11.9438C44.8789 11.9438 41.1933 15.1469 41.1933 26.8005H34.6464C34.6464 15.1469 30.9626 11.9438 30.9626 11.9438V26.8005H24.5878V0.989094C31.9313 0.989094 36.78 9.12239 37.919 13.9237H37.9225C39.0598 9.12239 43.9084 0.989094 51.2537 0.989094V9.57707L51.2554 9.5652C52.4908 3.86476 58.3099 0 64.3234 0C70.4934 0 75.9305 4.59598 77.0765 9.4651H70.1339ZM104.825 26.8005C103.89 19.7853 99.1896 14.7889 99.1896 14.7889V26.7988H92.4242V1.381C93.9263 1.381 99.3066 4.24649 104.821 12.0676V1.37761H111.418V26.8005H104.825ZM8.41072 20.4266C8.2335 21.1578 7.09962 25.065 6.64538 26.8582H0.046875C0.917499 23.6483 2.65875 18.1515 4.42925 14.4852C6.19458 10.8308 8.42104 6.80829 12.0704 4.09719C13.7583 2.84343 17.0292 0.376636 23.0857 0.9365V26.826H16.6799V20.4266H8.41072ZM16.6851 14.5124V8.49806C14.6341 9.9079 12.4352 12.5274 11.1069 14.5124H16.6851ZM112.922 2.18008C112.922 1.98335 112.962 1.78864 113.039 1.60705C113.115 1.42547 113.228 1.26058 113.369 1.12178C113.511 0.982989 113.678 0.873017 113.863 0.798144C114.047 0.723271 114.245 0.684964 114.444 0.685409C114.644 0.685855 114.841 0.725045 115.026 0.800741C115.21 0.876437 115.377 0.987158 115.518 1.12658C115.659 1.266 115.77 1.4314 115.846 1.61332C115.922 1.79525 115.961 1.99014 115.96 2.18686C115.959 2.58417 115.798 2.96485 115.513 3.24516C115.227 3.52546 114.841 3.68243 114.438 3.68153C114.035 3.68063 113.649 3.52194 113.364 3.24036C113.08 2.95878 112.921 2.57739 112.922 2.18008ZM115.676 2.18008C115.676 1.50824 115.126 0.967038 114.443 0.967038C114.281 0.967038 114.12 0.998502 113.971 1.05963C113.821 1.12077 113.685 1.21037 113.57 1.32332C113.456 1.43628 113.365 1.57038 113.303 1.71796C113.241 1.86555 113.209 2.02373 113.209 2.18347C113.209 2.34321 113.241 2.50139 113.303 2.64898C113.365 2.79656 113.456 2.93066 113.57 3.04362C113.685 3.15657 113.821 3.24618 113.971 3.30731C114.12 3.36844 114.281 3.3999 114.443 3.3999C114.605 3.40013 114.766 3.36871 114.916 3.30744C115.066 3.24618 115.202 3.15628 115.317 3.04292C115.431 2.92956 115.522 2.79497 115.584 2.64689C115.646 2.49882 115.677 2.34017 115.676 2.18008ZM115.2 3.00291H114.823L114.46 2.3158H114.136V3.00291H113.816V1.3793H114.61C114.747 1.3793 114.93 1.3827 115.054 1.46074C115.202 1.55405 115.248 1.71013 115.248 1.88148C115.248 2.17329 115.086 2.29714 114.797 2.3158L115.2 3.00291ZM114.618 2.07319C114.799 2.07659 114.928 2.03587 114.928 1.82889C114.928 1.62021 114.696 1.62021 114.537 1.62021H114.138V2.07319H114.618Z" fill="#6BBDD7"/>
</g>
<defs>
<clipPath id="clip0_4563_18433">
<rect width="116" height="28" fill="white"/>
</clipPath>
</defs>
</svg>
