<svg width="105" height="38" viewBox="0 0 105 38" fill="none" xmlns="http://www.w3.org/2000/svg">
<g clip-path="url(#clip0_4563_18416)">
<path d="M15.4193 0.015625C15.6716 0.13296 15.8314 0.376011 16.0333 0.568775C16.3613 0.853731 16.6053 1.23088 16.9249 1.52421C17.3202 1.90136 17.5726 2.37908 17.9006 2.80652C18.4726 3.66976 18.9772 4.59168 19.238 5.59741C19.5071 6.28465 19.5492 7.03057 19.5324 7.7681C19.5492 8.43859 19.3641 9.10069 19.0613 9.70412C18.5399 10.6177 17.5978 11.2295 16.6136 11.5563C15.3856 11.8497 14.0314 11.9 12.8455 11.3803C12.4164 11.1457 11.9287 10.9864 11.5838 10.6177C10.7848 9.96394 10.3222 8.89954 10.4736 7.86867C10.7091 6.03322 11.8109 4.45758 12.9885 3.09985C13.0978 3.301 13.0052 3.53567 13.081 3.74519C13.1819 4.18939 13.3417 4.65873 13.6782 4.97721C14.0903 4.60006 14.5278 4.22291 14.881 3.7871C15.2007 3.31776 15.4613 2.79814 15.5707 2.24499C15.596 1.54098 15.6633 0.803444 15.394 0.132959L15.4193 0.015625ZM0.0102251 8.3883C1.97841 8.40506 3.95501 8.37154 5.92328 8.40506C5.92328 10.3578 5.94001 12.3106 5.91478 14.2634C7.3111 14.2886 8.70725 14.2718 10.1119 14.2718C10.1287 14.4227 10.1371 14.5735 10.1371 14.7244C10.1203 16.3335 10.1455 17.9343 10.1203 19.5435C8.71566 19.5602 7.31943 19.5435 5.91478 19.5519C5.94001 22.4433 5.90637 25.3264 5.9316 28.2179C5.98207 28.4693 6.01571 28.7207 6.0073 28.9806C5.98199 29.2153 6.12497 29.4081 6.17552 29.6259C6.28487 30.1288 6.56243 30.5813 6.88197 30.9753C7.35307 31.4447 7.95858 31.7715 8.60623 31.9139C9.19501 32.0062 9.78378 32.0564 10.381 32.0145C10.4146 32.1151 10.4315 32.2156 10.4315 32.3246C10.4231 33.8332 10.4231 35.3418 10.4315 36.842C10.4315 37.0515 10.3895 37.261 10.3558 37.4621C9.5063 37.4621 8.65687 37.5208 7.80727 37.4621C7.30261 37.3531 6.76438 37.4034 6.27646 37.1855C4.92228 36.867 3.62698 36.1966 2.65971 35.1824C1.23824 33.8164 0.472833 31.8888 0.161624 29.9779C0.0775136 29.7684 0.12798 29.5253 0.0942515 29.299C-0.0234191 28.8381 0.0269631 28.3519 0.010141 27.8826C0.00181406 21.3873 0.00181402 14.8836 0.0102251 8.3883ZM28.7424 13.8192C29.0956 13.727 29.474 13.7941 29.8273 13.7186C30.5675 13.6265 31.2992 13.7438 32.031 13.7689C32.5441 13.7606 33.0403 13.9114 33.545 14.012C35.4207 14.4646 37.1954 15.4619 38.4823 16.9202C38.7094 17.2974 39.0542 17.5739 39.2728 17.9595C39.8196 18.8227 40.1813 19.7865 40.4924 20.7587C40.686 21.4711 40.7868 22.2087 40.8794 22.9378C40.9215 24.5554 40.8963 26.1813 40.9047 27.7988C40.8963 31.0255 40.9131 34.2522 40.8963 37.4789C38.9281 37.4538 36.9683 37.4706 35.0085 37.4622C34.9917 37.4538 34.9496 37.4203 34.9328 37.4035C34.9244 32.8862 34.9328 28.3687 34.9328 23.8597C34.9412 23.3066 34.8403 22.7702 34.7225 22.2422C34.5123 21.7058 34.2431 21.1945 33.873 20.7587C33.6543 20.4989 33.3515 20.3313 33.1075 20.105C32.729 19.8536 32.2833 19.7362 31.8544 19.6189C31.6273 19.6021 31.4002 19.6189 31.1899 19.5435C30.2899 19.4848 29.3731 19.5602 28.532 19.9039C27.9179 20.1972 27.346 20.5995 26.9423 21.161C26.2779 21.9488 26.0592 23.0216 26.076 24.0273C26.076 28.5028 26.0844 32.9867 26.076 37.4622C24.0909 37.4789 22.106 37.4538 20.121 37.4789C20.0873 33.1627 20.121 28.8381 20.1041 24.5218C20.1126 23.9686 20.0957 23.4155 20.1378 22.8623C20.2471 22.5857 20.1713 22.2841 20.2555 22.0158C20.4069 20.9933 20.7938 20.0211 21.2227 19.0908C21.6433 18.2779 22.1479 17.4984 22.804 16.8531C23.3172 16.3335 23.847 15.7887 24.4947 15.4283C25.748 14.5568 27.2284 14.0287 28.7424 13.8192ZM99.227 13.7689C99.9586 13.7522 100.682 13.6097 101.414 13.727C101.809 13.7773 102.213 13.7689 102.608 13.7857C102.684 14.5148 102.625 15.2524 102.642 15.9815V18.9149C102.642 19.0993 102.667 19.2921 102.591 19.4681C102.398 19.3257 102.137 19.3759 101.918 19.3172C101.027 19.2418 100.11 19.2838 99.2689 19.619C98.268 19.9626 97.3932 20.6918 96.9053 21.6388C96.7624 21.8148 96.7624 22.0663 96.6026 22.2339C96.3417 23.1726 96.325 24.1531 96.3417 25.117C96.3333 29.2404 96.3671 33.3555 96.325 37.479C94.3651 37.4539 92.397 37.479 90.4288 37.4623C90.4119 37.4455 90.3867 37.412 90.3699 37.3952V23.9436C90.3447 23.3821 90.4708 22.8373 90.4625 22.2842C90.5971 22.016 90.5634 21.7059 90.6475 21.4293C91.0681 19.3089 92.1868 17.3058 93.8858 15.9397C94.2137 15.5709 94.6848 15.3949 95.0717 15.1016C96.3252 14.3388 97.7803 13.9701 99.227 13.7689ZM12.0464 14.2634C14.0314 14.2969 16.0165 14.255 18.0015 14.2802C18.0015 21.9488 17.993 29.609 18.0015 37.2694C18.0015 37.3448 18.0015 37.4957 17.8837 37.4706H12.0633C12.0128 36.205 12.0548 34.9311 12.038 33.6656C12.0464 27.2038 12.038 20.7336 12.0464 14.2634ZM74.3303 29.8187C74.8349 29.6259 75.3228 29.3745 75.8358 29.1985C76.5759 28.9136 77.2993 28.57 78.0395 28.285C79.5703 27.5811 81.1515 26.9944 82.6992 26.3322C83.0692 26.1311 83.4897 26.0389 83.8514 25.821C84.2635 25.6617 84.6758 25.5192 85.0795 25.3348C85.4328 25.1253 85.8365 25.0415 86.1982 24.8572C86.6776 24.6643 87.1402 24.4465 87.6281 24.2705C88.1243 23.9938 88.6794 23.8598 89.1757 23.5915C89.3103 23.4993 89.5289 23.5245 89.613 23.3652C89.4701 23.1642 89.5457 22.9128 89.4701 22.6948C89.3606 22.3009 89.2513 21.9153 89.1589 21.5299C88.7804 20.3649 88.2337 19.2502 87.4935 18.278C86.5935 16.979 85.3571 15.9313 83.9861 15.1603C83.0861 14.6155 82.0768 14.3054 81.0674 14.0372C80.445 13.9618 79.8478 13.7439 79.217 13.7523C78.645 13.6768 78.0563 13.6433 77.4927 13.7439C76.4918 13.7606 75.533 14.0037 74.5825 14.2803C72.9255 14.8586 71.3527 15.7386 70.0826 16.9538C69.7041 17.3058 69.3929 17.7165 69.0312 18.0769C68.4677 18.7977 67.9545 19.5603 67.5677 20.3817C67.021 21.6137 66.4995 22.9044 66.4406 24.2705C66.2557 24.9242 66.3144 25.6115 66.306 26.2819C66.2892 26.7094 66.3565 27.1284 66.4406 27.5391C66.4154 27.9748 66.5836 28.3772 66.6425 28.7962C66.7855 29.6846 67.1808 30.5059 67.5425 31.3272C68.535 33.3555 70.0993 35.1155 72.0592 36.2637C73.3461 37.0515 74.776 37.613 76.2731 37.8226C77.4927 38.0154 78.746 38.0489 79.974 37.8897C80.3945 37.9231 80.7983 37.7388 81.2188 37.7136C83.0104 37.2946 84.7683 36.5403 86.1225 35.2747C86.5263 34.9562 86.9048 34.5791 87.2244 34.1767C87.7626 33.632 88.1496 32.9699 88.5365 32.3162C88.9066 31.6205 89.2094 30.883 89.4282 30.1204C89.3104 30.07 89.1758 30.0868 89.0581 30.0868C87.0899 30.0953 85.1301 30.0785 83.1619 30.0868C82.9769 30.0868 82.9769 30.3383 82.8591 30.4389C82.5226 30.925 82.0937 31.3356 81.6395 31.7212C80.9834 32.1906 80.2096 32.442 79.4442 32.6682C79.2423 32.6934 79.0489 32.685 78.8638 32.7605C78.3928 32.7939 77.9134 32.7773 77.4339 32.7689C76.904 32.6683 76.3741 32.551 75.8611 32.3833C75.0705 31.9811 74.2966 31.5201 73.6995 30.8663C73.548 30.682 73.3042 30.5395 73.2536 30.2964C73.3883 30.2377 73.5145 30.1455 73.6658 30.1204C73.9097 30.0785 74.0947 29.8857 74.3303 29.8187ZM71.9078 25.5778C71.7901 25.2845 71.8994 24.9409 71.8826 24.6308C72.0172 24.2033 72.0593 23.7508 72.219 23.3233C72.6227 22.3762 73.119 21.446 73.8423 20.7C74.1788 20.4234 74.4648 20.0882 74.8517 19.8786C75.1376 19.7278 75.4152 19.5602 75.7096 19.4261C76.2563 19.2669 76.7862 19.0155 77.3582 19.0155C77.8796 18.8898 78.418 18.9568 78.9478 18.9651C80.3357 19.158 81.732 19.7529 82.6319 20.8508C82.7245 21.0688 82.4132 21.0856 82.287 21.1694C81.7403 21.4711 81.1263 21.6219 80.5796 21.9321C80.3357 21.974 80.1254 22.1248 79.8899 22.2003C78.1488 22.9546 76.3741 23.6166 74.6498 24.4045C73.7247 24.7649 72.8079 25.1504 71.9078 25.5778ZM65.6416 4.02177C63.7996 4.00501 61.9575 4.02177 60.1156 4.01339C59.9809 4.03015 59.8212 3.97148 59.7118 4.07205C59.7286 8.01115 59.7118 11.9586 59.7203 15.8977C59.7118 16.0402 59.7455 16.1827 59.6866 16.3168C59.5184 16.2916 59.4343 16.1324 59.3081 16.0402C58.4586 15.3111 57.5082 14.6909 56.4484 14.3305C55.7334 14.0539 54.9849 13.9114 54.2279 13.7773C53.37 13.7606 52.5037 13.7354 51.6372 13.7857C51.5447 13.8108 51.4606 13.836 51.3682 13.8444C49.442 14.1126 47.642 15.0093 46.1617 16.2413C45.3375 17.0124 44.5132 17.817 43.9328 18.7892C43.2515 19.753 42.8141 20.8593 42.3936 21.9488C42.2001 22.6361 42.0066 23.315 41.9225 24.019C41.7627 25.1001 41.83 26.2064 41.8468 27.296C41.8888 27.5809 41.9814 27.8491 41.9898 28.1341C42.1412 29.056 42.4103 29.9611 42.7803 30.8244C43.0915 31.6541 43.5962 32.4084 44.0588 33.1627C44.3868 33.5817 44.7065 34.0176 45.1018 34.3863C45.6906 34.9646 46.2708 35.5932 47.011 35.9955C47.8857 36.6576 48.9203 37.0516 49.9296 37.437C50.2997 37.5041 50.6446 37.7136 51.0231 37.722C51.3427 37.7471 51.6371 37.898 51.9568 37.8811C52.125 37.8644 52.2764 37.9817 52.453 37.965C53.2688 37.9901 54.0931 37.9901 54.909 37.965C55.0436 37.965 55.1781 37.9063 55.3211 37.8979C55.8846 37.9063 56.4061 37.6884 56.9528 37.613C57.6677 37.3531 58.4332 37.1855 59.0976 36.8001C60.0817 36.3475 60.9733 35.7105 61.7723 34.9897C62.7816 34.1181 63.5975 33.0286 64.2031 31.8384C64.4638 31.3104 64.7582 30.7992 64.9265 30.2292C65.2462 29.4414 65.3891 28.6033 65.4985 27.7736C65.6834 27.0444 65.6247 26.2818 65.6414 25.5275C65.6416 18.3618 65.6416 11.196 65.6416 4.02177ZM59.6614 26.7177C59.6109 27.6061 59.2745 28.4525 58.8792 29.2487C58.2147 30.4975 57.096 31.453 55.826 32.0564C55.6324 32.157 55.3801 32.1487 55.2456 32.333C55.0101 32.333 54.7746 32.3414 54.5475 32.4252C53.824 32.442 53.0755 32.5091 52.369 32.3079C52.0662 32.1654 51.7298 32.1068 51.427 31.9475C51.0485 31.738 50.6195 31.5955 50.3083 31.277C49.7195 30.8664 49.2654 30.3048 48.8532 29.7265C48.5252 29.165 48.1971 28.5867 48.0457 27.9498C47.8775 27.6145 47.8942 27.2374 47.8018 26.8854C47.7766 25.9887 47.7261 25.0668 47.9364 24.1951C48.029 23.9185 48.0879 23.6251 48.1887 23.3486C48.4326 22.9043 48.584 22.4099 48.9037 22.0076C49.0719 21.6556 49.3663 21.3957 49.6019 21.0941C50.2327 20.3733 51.099 19.9123 51.9737 19.5519C52.3017 19.4766 52.6213 19.309 52.9663 19.309C53.6644 19.1329 54.3877 19.2755 55.0775 19.4012C55.9858 19.728 56.8858 20.1806 57.5924 20.8511C57.8531 21.0941 58.0465 21.3959 58.3073 21.6389C59.3838 23.0803 59.88 24.9325 59.6614 26.7177ZM99.1765 34.5288H101.38C101.389 34.6964 101.389 34.864 101.38 35.0317C101.128 35.0652 100.876 35.0233 100.632 35.0568C100.598 35.8111 100.632 36.557 100.615 37.3113C100.388 37.2946 100.161 37.2946 99.942 37.3029C99.9167 36.7078 99.9252 36.1044 99.9335 35.5094C99.9335 35.3502 99.9671 35.1658 99.8242 35.0568C99.6055 35.0234 99.3868 35.0653 99.1681 35.0317C99.1596 34.864 99.1596 34.6964 99.1765 34.5288ZM101.784 34.5372C102.095 34.5287 102.406 34.512 102.718 34.5539C102.701 34.7969 102.903 34.9645 102.961 35.1909C103.046 35.4758 103.172 35.7441 103.256 36.029C103.323 36.1547 103.441 36.2637 103.399 36.4229C103.567 35.7691 103.828 35.149 104.089 34.5372C104.383 34.5287 104.686 34.5204 104.989 34.5372C105.005 35.4339 104.989 36.3475 104.989 37.2443C104.787 37.261 104.585 37.261 104.374 37.2443C104.383 36.6157 104.374 35.9871 104.391 35.3669C104.316 35.434 104.24 35.4926 104.181 35.5764C104.072 36.1464 103.777 36.666 103.634 37.2359C103.466 37.2611 103.306 37.2611 103.138 37.2444C103.088 36.9259 102.86 36.6661 102.86 36.3392C102.633 36.0625 102.625 35.6687 102.448 35.3586C102.331 35.5849 102.423 35.853 102.398 36.0961C102.364 36.4901 102.44 36.8923 102.364 37.2863C102.162 37.2863 101.935 37.3533 101.776 37.2108C101.801 36.3224 101.776 35.434 101.784 34.5372Z" fill="#6BBDD7" stroke="#6BBDD7" stroke-width="0.188247"/>
</g>
<defs>
<clipPath id="clip0_4563_18416">
<rect width="105" height="38" fill="white"/>
</clipPath>
</defs>
</svg>
