<svg width="131" height="39" viewBox="0 0 131 39" fill="none" xmlns="http://www.w3.org/2000/svg">
<g clip-path="url(#clip0_4554_18698)">
<path d="M19.6451 0C8.79564 0 0 8.73038 0 19.4996C0 30.2701 8.79564 39 19.6451 39C30.495 39 39.2902 30.2701 39.2902 19.4996C39.2902 8.73108 30.4955 0.000930702 19.6449 0.000930702L19.6451 0ZM28.6542 28.1241C28.3014 28.6985 27.5474 28.8785 26.9706 28.5285C22.3574 25.7299 16.5509 25.0977 9.71263 26.6483C9.05367 26.7982 8.39683 26.3882 8.2467 25.7343C8.09586 25.0802 8.50708 24.4282 9.16768 24.2792C16.651 22.581 23.0701 23.3119 28.2481 26.4527C28.8252 26.8043 29.0082 27.5517 28.654 28.1245L28.6542 28.1241ZM31.0587 22.8153C30.6144 23.5308 29.6718 23.7553 28.9519 23.3159C23.6725 20.0946 15.6221 19.1615 9.37624 21.0435C8.5662 21.2863 7.71066 20.8332 7.46481 20.0306C7.22084 19.2265 7.67759 18.3789 8.48621 18.1344C15.6207 15.9857 24.49 17.0265 30.5541 20.7254C31.2743 21.1655 31.5019 22.1016 31.0585 22.8155L31.0587 22.8153ZM31.2652 17.2864C24.9327 13.5535 14.4874 13.2103 8.44232 15.0314C7.47161 15.3236 6.44505 14.7797 6.15088 13.8161C5.8567 12.8521 6.40423 11.8339 7.37566 11.5409C14.315 9.44991 25.8509 9.8539 33.1404 14.1494C34.0136 14.6637 34.3 15.783 33.7825 16.6486C33.2664 17.5153 32.1357 17.801 31.2654 17.2864H31.2652ZM53.4478 18.0017C50.0559 17.1988 49.4521 16.6353 49.4521 15.4512C49.4521 14.3326 50.5131 13.5798 52.0909 13.5798C53.6204 13.5798 55.1371 14.1515 56.7271 15.3283C56.7752 15.3639 56.8355 15.3781 56.8948 15.3688C56.9542 15.36 57.0067 15.3276 57.0415 15.2789L58.6976 12.9616C58.7657 12.8661 58.7471 12.7345 58.6554 12.6617C56.763 11.1544 54.632 10.4216 52.1412 10.4216C48.4788 10.4216 45.9206 12.6032 45.9206 15.7246C45.9206 19.0719 48.1274 20.2571 51.9408 21.172C55.1866 21.9141 55.7344 22.5358 55.7344 23.6472C55.7344 24.8788 54.6266 25.6444 52.844 25.6444C50.8641 25.6444 49.2492 24.9824 47.4426 23.4295C47.3978 23.3911 47.3363 23.3736 47.2796 23.3769C47.2197 23.3818 47.1651 23.4093 47.1271 23.4547L45.2701 25.6484C45.1922 25.7394 45.2021 25.8754 45.2921 25.9541C47.394 27.8167 49.9792 28.8005 52.7689 28.8005C56.7154 28.8005 59.2656 26.6602 59.2656 23.3473C59.2726 20.5508 57.586 19.0023 53.4549 18.0047L53.4478 18.0017ZM68.194 14.6812C66.4834 14.6812 65.0803 15.35 63.9233 16.7203V15.1779C63.9233 15.0561 63.8239 14.9569 63.7014 14.9569H60.6642C60.5415 14.9569 60.4423 15.0561 60.4423 15.1779V32.3164C60.4423 32.4382 60.5415 32.5373 60.6642 32.5373H63.7014C63.8239 32.5373 63.9233 32.4382 63.9233 32.3164V26.9065C65.0805 28.1956 66.4839 28.8254 68.194 28.8254C71.3724 28.8254 74.59 26.3968 74.59 21.7541C74.5947 17.1103 71.3762 14.681 68.1975 14.681L68.194 14.6812ZM71.0583 21.7541C71.0583 24.1183 69.5912 25.7681 67.4905 25.7681C65.4137 25.7681 63.8471 24.0433 63.8471 21.7541C63.8471 19.4652 65.4137 17.7402 67.4905 17.7402C69.5572 17.74 71.0586 19.4277 71.0586 21.7539L71.0583 21.7541ZM82.837 14.6812C78.7437 14.6812 75.5368 17.8098 75.5368 21.8047C75.5368 25.756 78.7216 28.8517 82.7868 28.8517C86.8946 28.8517 90.1113 25.7336 90.1113 21.7541C90.1113 17.7884 86.9162 14.6817 82.8367 14.6817L82.837 14.6812ZM82.837 25.7916C80.6598 25.7916 79.0183 24.0552 79.0183 21.753C79.0183 19.441 80.603 17.7632 82.7868 17.7632C84.9781 17.7632 86.6305 19.4996 86.6305 21.8035C86.6305 24.115 85.0353 25.7916 82.8372 25.7916H82.837ZM98.8523 14.9569H95.5101V11.5652C95.5101 11.4436 95.4111 11.3444 95.2884 11.3444H92.2517C92.1288 11.3444 92.0291 11.4436 92.0291 11.5652V14.9569H90.5688C90.4465 14.9569 90.3475 15.0561 90.3475 15.1779V17.7688C90.3475 17.8904 90.4465 17.9898 90.5688 17.9898H92.0291V24.6939C92.0291 27.4032 93.3876 28.7768 96.0668 28.7768C97.1562 28.7768 98.0601 28.5535 98.9119 28.074C98.9811 28.0356 99.024 27.9616 99.024 27.8829V25.4155C99.024 25.3394 98.9841 25.2674 98.9184 25.2276C98.8523 25.1864 98.7699 25.1843 98.7021 25.2176C98.1171 25.5098 97.5515 25.6447 96.9193 25.6447C95.9448 25.6447 95.5101 25.2055 95.5101 24.2212V17.991H98.8523C98.975 17.991 99.0737 17.8918 99.0737 17.77V15.1793C99.0784 15.0575 98.9799 14.9583 98.8556 14.9583L98.8523 14.9569ZM110.497 14.9702V14.5536C110.497 13.3281 110.971 12.7816 112.032 12.7816C112.666 12.7816 113.174 12.9064 113.744 13.095C113.814 13.1169 113.887 13.1059 113.944 13.0643C114.003 13.0226 114.036 12.9557 114.036 12.885V10.3445C114.036 10.2474 113.973 10.1615 113.879 10.1328C113.277 9.95517 112.507 9.77285 111.354 9.77285C108.549 9.77285 107.066 11.3409 107.066 14.3058V14.9438H105.607C105.485 14.9438 105.384 15.043 105.384 15.1646V17.7688C105.384 17.8904 105.485 17.9898 105.607 17.9898H107.066V28.3306C107.066 28.4524 107.165 28.5516 107.288 28.5516H110.325C110.448 28.5516 110.547 28.4524 110.547 28.3306V17.9905H113.383L117.727 28.3288C117.234 29.415 116.749 29.6311 116.087 29.6311C115.552 29.6311 114.988 29.4725 114.412 29.1596C114.358 29.13 114.294 29.1251 114.235 29.1431C114.177 29.1633 114.129 29.2062 114.104 29.262L113.075 31.5037C113.026 31.6097 113.068 31.734 113.17 31.789C114.245 32.3667 115.215 32.6133 116.414 32.6133C118.657 32.6133 119.896 31.5764 120.989 28.7868L126.258 15.2719C126.285 15.2039 126.277 15.1271 126.235 15.0668C126.193 15.007 126.126 14.9709 126.052 14.9709H122.89C122.795 14.9709 122.711 15.0307 122.68 15.119L119.441 24.3023L115.893 15.1129C115.861 15.0274 115.778 14.9709 115.686 14.9709H110.497L110.497 14.9702ZM103.746 14.9569H100.709C100.586 14.9569 100.486 15.0561 100.486 15.1779V28.3306C100.486 28.4524 100.586 28.5516 100.709 28.5516H103.746C103.868 28.5516 103.968 28.4524 103.968 28.3306V15.1788C103.968 15.1497 103.963 15.121 103.952 15.0941C103.94 15.0672 103.924 15.0428 103.903 15.0223C103.883 15.0018 103.858 14.9855 103.831 14.9744C103.804 14.9634 103.775 14.9577 103.746 14.9578L103.746 14.9569ZM102.244 8.96814C101.041 8.96814 100.065 9.93493 100.065 11.1292C100.065 12.3243 101.041 13.2922 102.244 13.2922C103.447 13.2922 104.423 12.3243 104.423 11.1292C104.423 9.93517 103.447 8.96814 102.246 8.96814H102.244ZM128.851 19.1858C127.649 19.1858 126.714 18.2276 126.714 17.064C126.714 15.9004 127.662 14.9313 128.863 14.9313C130.065 14.9313 131 15.8892 131 17.0519C131 18.2155 130.052 19.1858 128.851 19.1858H128.851ZM128.863 15.1422C127.768 15.1422 126.94 16.0061 126.94 17.064C126.94 18.1214 127.762 18.9736 128.852 18.9736C129.947 18.9736 130.776 18.1104 130.776 17.0519C130.776 15.9945 129.953 15.1422 128.864 15.1422H128.863ZM129.337 17.2701L129.942 18.1102H129.432L128.888 17.3395H128.42V18.1102H127.993V15.8832H128.993C129.515 15.8832 129.857 16.1479 129.857 16.5936C129.86 16.9587 129.646 17.1818 129.339 17.2701L129.337 17.2701ZM128.976 16.2653H128.419V16.9697H128.976C129.253 16.9697 129.419 16.8349 129.419 16.6172C129.419 16.388 129.253 16.2653 128.976 16.2653L128.976 16.2653Z" fill="#6BBDD7"/>
</g>
<defs>
<clipPath id="clip0_4554_18698">
<rect width="131" height="39" fill="white"/>
</clipPath>
</defs>
</svg>
