<svg width="34" height="34" viewBox="0 0 34 34" fill="none" xmlns="http://www.w3.org/2000/svg">
<path d="M12.0405 23.1751L13.6558 21.5501L9.10392 16.9982L13.6155 12.4866L11.9809 10.8617L5.86362 16.9982L12.0405 23.1751ZM21.9751 23.1751L28.1327 16.9982L21.9751 10.8213L20.3405 12.4116L24.9271 16.9982L20.3405 21.5501L21.9751 23.1751ZM2.94437 33.8596C2.18414 33.8596 1.52614 33.5817 0.970369 33.026C0.414602 32.4702 0.136719 31.8122 0.136719 31.052V2.94437C0.136719 2.18414 0.414602 1.52614 0.970369 0.970369C1.52614 0.414602 2.18414 0.136719 2.94437 0.136719H31.052C31.8122 0.136719 32.4702 0.414602 33.026 0.970369C33.5817 1.52614 33.8596 2.18414 33.8596 2.94437V31.052C33.8596 31.8122 33.5817 32.4702 33.026 33.026C32.4702 33.5817 31.8122 33.8596 31.052 33.8596H2.94437Z" fill="#26B5B5"/>
</svg>
