<svg width="48" height="48" viewBox="0 0 48 48" fill="none" xmlns="http://www.w3.org/2000/svg">
<path d="M23.8197 6C17.4944 6 12.2188 11.0953 12.2188 17.6009C12.2188 20.076 12.9625 22.2829 14.3898 24.351L22.9319 37.6801C23.3463 38.3281 24.2939 38.3268 24.7075 37.6801L33.2866 24.3057C34.6832 22.3313 35.4206 20.013 35.4206 17.6009C35.4206 11.2042 30.2165 6 23.8197 6ZM23.8197 22.8741C20.9122 22.8741 18.5465 20.5084 18.5465 17.6009C18.5465 14.6935 20.9122 12.3278 23.8197 12.3278C26.7272 12.3278 29.0929 14.6935 29.0929 17.6009C29.0929 20.5084 26.7272 22.8741 23.8197 22.8741Z" fill="#C7FF50"/>
<path d="M32.0642 30.2383L26.7537 38.5408C25.3791 40.684 22.2522 40.677 20.8842 38.5429L15.5651 30.2405C10.8851 31.3225 8 33.3047 8 35.6735C8 39.7839 16.1508 42.0013 23.8195 42.0013C31.4882 42.0013 39.6389 39.7839 39.6389 35.6735C39.6389 33.303 36.7499 31.3198 32.0642 30.2383Z" fill="#1AE3E3"/>
</svg>
