<svg width="48" height="48" viewBox="0 0 48 48" fill="none" xmlns="http://www.w3.org/2000/svg">
<g clip-path="url(#clip0_4227_19733)">
<path d="M6.05568 29.3125H10.2776C10.8606 29.3125 11.3333 29.7849 11.3333 30.3678V40.9235C11.3333 41.5064 10.8606 41.9792 10.2776 41.9792H6.05568C5.47276 41.9792 5 41.5064 5 40.9235V30.3678C5 29.7849 5.47276 29.3125 6.05568 29.3125Z" fill="#EAFFFF"/>
<path d="M16.61 20.8672H20.8323C21.4153 20.8672 21.888 21.3399 21.888 21.9229V40.9229C21.888 41.5058 21.4153 41.9786 20.8323 41.9786H16.61C16.0271 41.9786 15.5547 41.5058 15.5547 40.9229V21.9229C15.5547 21.3399 16.0271 20.8672 16.61 20.8672Z" fill="#EAFFFF"/>
<path d="M27.1651 25.0898H31.3874C31.9703 25.0898 32.4427 25.5626 32.4427 26.1455V40.9232C32.4427 41.5061 31.9703 41.9789 31.3874 41.9789H27.1651C26.5821 41.9789 26.1094 41.5061 26.1094 40.9232V26.1455C26.1094 25.5626 26.5821 25.0898 27.1651 25.0898Z" fill="#EAFFFF"/>
<path d="M37.7237 18.7539H41.9456C42.5285 18.7539 43.0013 19.2267 43.0013 19.8096V40.9206C43.0013 41.5035 42.5285 41.9763 41.9456 41.9763H37.7237C37.1407 41.9763 36.668 41.5035 36.668 40.9206V19.8096C36.668 19.2267 37.1407 18.7539 37.7237 18.7539Z" fill="#EAFFFF"/>
<path d="M39.8333 6.08984C38.0853 6.09178 36.6686 7.5085 36.6667 9.25651C36.6709 9.60132 36.732 9.94303 36.8476 10.2677L31.5634 13.4089C30.8699 12.6733 29.8644 12.3169 28.8625 12.451C27.8601 12.5851 26.9842 13.1936 26.5084 14.0858L21.8477 11.7772C21.8705 11.6416 21.884 11.5047 21.889 11.3675C21.8913 10.0857 21.1209 8.9291 19.9373 8.43701C18.7537 7.94531 17.3903 8.21552 16.4838 9.1216C15.5769 10.0277 15.306 11.3907 15.7973 12.5747L9.75155 17.0866C9.27222 16.8009 8.72485 16.6486 8.16667 16.6455C6.41789 16.6455 5 18.063 5 19.8122C5 21.561 6.41789 22.9789 8.16667 22.9789C9.91545 22.9789 11.3333 21.561 11.3333 19.8122C11.3306 19.4311 11.2587 19.0542 11.1211 18.6989L17.2272 14.1418C18.4216 14.8078 19.9114 14.6126 20.8936 13.6609L26.1937 16.286C26.547 17.8597 28.0279 18.9158 29.631 18.7372C31.234 18.5586 32.4462 17.2029 32.4443 15.5898C32.4443 15.5094 32.4265 15.4337 32.4207 15.3548L38.1681 11.938C38.6663 12.2531 39.2435 12.4212 39.8333 12.4232C41.5821 12.4232 43 11.0053 43 9.25651C43 7.50773 41.5821 6.08984 39.8333 6.08984Z" fill="#26B5B5"/>
</g>
<defs>
<clipPath id="clip0_4227_19733">
<rect width="38" height="38" fill="white" transform="translate(5 5)"/>
</clipPath>
</defs>
</svg>
