<svg width="48" height="48" viewBox="0 0 48 48" fill="none" xmlns="http://www.w3.org/2000/svg">
<path d="M14.3984 36.7992V44.7992C14.3984 45.2236 14.567 45.6305 14.8671 45.9306C15.1671 46.2306 15.5741 46.3992 15.9984 46.3992H31.9984C32.4228 46.3992 32.8298 46.2306 33.1298 45.9306C33.4299 45.6305 33.5984 45.2236 33.5984 44.7992V36.7992C33.5984 36.3749 33.4299 35.9679 33.1298 35.6678C32.8298 35.3678 32.4228 35.1992 31.9984 35.1992H15.9984C15.5741 35.1992 15.1671 35.3678 14.8671 35.6678C14.567 35.9679 14.3984 36.3749 14.3984 36.7992ZM27.5544 39.8648C27.3779 39.7471 27.2554 39.564 27.2138 39.3559C27.1723 39.1478 27.2151 38.9317 27.3328 38.7552C27.4506 38.5787 27.6337 38.4562 27.8417 38.4146C28.0498 38.3731 28.2659 38.4159 28.4424 38.5336L30.8424 40.1336C30.952 40.2067 31.0418 40.3057 31.104 40.4218C31.1661 40.5379 31.1986 40.6675 31.1986 40.7992C31.1986 40.9309 31.1661 41.0606 31.104 41.1767C31.0418 41.2928 30.952 41.3918 30.8424 41.4648L28.4424 43.0648C28.2659 43.1826 28.0498 43.2254 27.8417 43.1838C27.6337 43.1423 27.4506 43.0197 27.3328 42.8432C27.2151 42.6667 27.1723 42.4506 27.2138 42.2425C27.2554 42.0344 27.3779 41.8514 27.5544 41.7336L28.9584 40.7992L27.5544 39.8648ZM22.44 42.9464L24.04 38.1464C24.1071 37.9449 24.2515 37.7782 24.4414 37.6831C24.6313 37.5879 24.8513 37.5722 25.0528 37.6392C25.2544 37.7063 25.4211 37.8506 25.5162 38.0406C25.6113 38.2305 25.6271 38.4505 25.56 38.652L23.96 43.452C23.893 43.6536 23.7486 43.8203 23.5587 43.9154C23.3687 44.0105 23.1488 44.0263 22.9472 43.9592C22.7457 43.8922 22.579 43.7478 22.4839 43.5579C22.3888 43.3679 22.373 43.148 22.44 42.9464ZM17.1544 40.1336L19.5544 38.5336C19.731 38.4159 19.947 38.3731 20.1551 38.4146C20.3632 38.4562 20.5463 38.5787 20.664 38.7552C20.7818 38.9317 20.8246 39.1478 20.783 39.3559C20.7415 39.564 20.619 39.7471 20.4424 39.8648L19.0384 40.7992L20.44 41.7336C20.6166 41.8514 20.7391 42.0344 20.7806 42.2425C20.8222 42.4506 20.7794 42.6667 20.6616 42.8432C20.5439 43.0197 20.3608 43.1423 20.1527 43.1838C19.9446 43.2254 19.7286 43.1826 19.552 43.0648L17.152 41.4648C17.0425 41.3918 16.9526 41.2928 16.8905 41.1767C16.8284 41.0606 16.7959 40.9309 16.7959 40.7992C16.7959 40.6675 16.8284 40.5379 16.8905 40.4218C16.9526 40.3057 17.0425 40.2067 17.152 40.1336H17.1544Z" fill="#26B5B5"/>
<path d="M26.3996 33.6004V20.8004C26.3996 20.5883 26.4838 20.3848 26.6339 20.2348C26.7839 20.0847 26.9874 20.0004 27.1996 20.0004H28.7516L23.9996 13.7148L19.2852 20.0004H20.7996C21.0117 20.0004 21.2152 20.0847 21.3652 20.2348C21.5153 20.3848 21.5996 20.5883 21.5996 20.8004V33.6004H26.3996Z" fill="#26B5B5"/>
<path d="M19.9992 28.8V21.6H19.0552C18.786 21.5989 18.5224 21.5227 18.2942 21.3799C18.0659 21.2372 17.882 21.0336 17.7632 20.792C17.6335 20.5373 17.5776 20.2513 17.6018 19.9665C17.6259 19.6817 17.7292 19.4092 17.9 19.18L22.848 12.584C22.9854 12.4102 23.1603 12.2697 23.3597 12.1732C23.559 12.0766 23.7777 12.0264 23.9992 12.0264C24.2208 12.0264 24.4394 12.0766 24.6388 12.1732C24.8382 12.2697 25.0131 12.4102 25.1504 12.584L30.0952 19.1768C30.2678 19.4057 30.3727 19.6783 30.3982 19.9638C30.4236 20.2493 30.3686 20.5362 30.2392 20.792C30.1201 21.0342 29.9356 21.2382 29.7066 21.381C29.4775 21.5238 29.2131 21.5996 28.9432 21.6H27.9992V28.8H39.1992C39.6236 28.8 40.0305 28.6314 40.3306 28.3314C40.6307 28.0313 40.7992 27.6243 40.7992 27.2V8H7.19922V27.2C7.19922 27.6243 7.36779 28.0313 7.66785 28.3314C7.96791 28.6314 8.37487 28.8 8.79922 28.8H19.9992Z" fill="#26B5B5"/>
<path d="M8.79922 1.60156C8.37487 1.60156 7.96791 1.77013 7.66785 2.07019C7.36779 2.37025 7.19922 2.77722 7.19922 3.20156V6.40156H40.7992V3.20156C40.7992 2.77722 40.6307 2.37025 40.3306 2.07019C40.0305 1.77013 39.6236 1.60156 39.1992 1.60156H8.79922ZM10.3992 4.80156H9.59922C9.38705 4.80156 9.18356 4.71728 9.03353 4.56725C8.8835 4.41722 8.79922 4.21374 8.79922 4.00156C8.79922 3.78939 8.8835 3.58591 9.03353 3.43588C9.18356 3.28585 9.38705 3.20156 9.59922 3.20156H10.3992C10.6114 3.20156 10.8149 3.28585 10.9649 3.43588C11.1149 3.58591 11.1992 3.78939 11.1992 4.00156C11.1992 4.21374 11.1149 4.41722 10.9649 4.56725C10.8149 4.71728 10.6114 4.80156 10.3992 4.80156ZM14.3992 4.80156H13.5992C13.387 4.80156 13.1836 4.71728 13.0335 4.56725C12.8835 4.41722 12.7992 4.21374 12.7992 4.00156C12.7992 3.78939 12.8835 3.58591 13.0335 3.43588C13.1836 3.28585 13.387 3.20156 13.5992 3.20156H14.3992C14.6114 3.20156 14.8149 3.28585 14.9649 3.43588C15.1149 3.58591 15.1992 3.78939 15.1992 4.00156C15.1992 4.21374 15.1149 4.41722 14.9649 4.56725C14.8149 4.71728 14.6114 4.80156 14.3992 4.80156ZM18.3992 4.80156H17.5992C17.387 4.80156 17.1836 4.71728 17.0335 4.56725C16.8835 4.41722 16.7992 4.21374 16.7992 4.00156C16.7992 3.78939 16.8835 3.58591 17.0335 3.43588C17.1836 3.28585 17.387 3.20156 17.5992 3.20156H18.3992C18.6114 3.20156 18.8149 3.28585 18.9649 3.43588C19.1149 3.58591 19.1992 3.78939 19.1992 4.00156C19.1992 4.21374 19.1149 4.41722 18.9649 4.56725C18.8149 4.71728 18.6114 4.80156 18.3992 4.80156ZM38.3992 4.80156H35.1992C34.987 4.80156 34.7836 4.71728 34.6335 4.56725C34.4835 4.41722 34.3992 4.21374 34.3992 4.00156C34.3992 3.78939 34.4835 3.58591 34.6335 3.43588C34.7836 3.28585 34.987 3.20156 35.1992 3.20156H38.3992C38.6114 3.20156 38.8149 3.28585 38.9649 3.43588C39.1149 3.58591 39.1992 3.78939 39.1992 4.00156C39.1992 4.21374 39.1149 4.41722 38.9649 4.56725C38.8149 4.71728 38.6114 4.80156 38.3992 4.80156Z" fill="#26B5B5"/>
</svg>
