<svg width="461" height="461" viewBox="0 0 461 461" fill="none" xmlns="http://www.w3.org/2000/svg">
<g clip-path="url(#clip0_4196_8560)">
<path d="M230.413 460.83C357.668 460.83 460.828 357.67 460.828 230.415C460.828 103.16 357.668 0 230.413 0C103.158 0 -0.00195312 103.16 -0.00195312 230.415C-0.00195312 357.67 103.158 460.83 230.413 460.83Z" fill="#00516A"/>
<path d="M308.92 29.7031H18.5967V380.212H308.92V29.7031Z" fill="#006584"/>
<path d="M134.415 364.447H2.27299C1.93986 364.447 1.71777 364.225 1.71777 363.892V13.3833C1.71777 13.0502 1.93986 12.8281 2.27299 12.8281H292.596C292.929 12.8281 293.151 13.0502 293.151 13.3833V172.786C293.151 173.119 292.929 173.341 292.596 173.341C292.263 173.341 292.041 173.119 292.041 172.786V13.9386H2.82821V363.337H134.415C134.748 363.337 134.97 363.559 134.97 363.892C134.97 364.169 134.692 364.447 134.415 364.447Z" fill="#006584"/>
<path d="M253.732 50.5234H76.0625V91.3319H253.732V50.5234Z" fill="#0E7FA2"/>
<path d="M149.685 120.762H81.5596V127.424H149.685V120.762Z" fill="#FCC8D0"/>
<path d="M149.685 120.762H81.5596V127.424H149.685V120.762Z" fill="#067294"/>
<path d="M172.672 137.418H101.715V144.081H172.672V137.418Z" fill="#FCC8D0"/>
<path d="M172.672 137.418H101.715V144.081H172.672V137.418Z" fill="#067294"/>
<path d="M172.671 154.074H81.5596V160.737H172.671V154.074Z" fill="#FCC8D0"/>
<path d="M172.671 154.074H81.5596V160.737H172.671V154.074Z" fill="#067294"/>
<path d="M149.685 198.492H81.5596V205.155H149.685V198.492Z" fill="#FCC8D0"/>
<path d="M149.685 198.492H81.5596V205.155H149.685V198.492Z" fill="#067294"/>
<path d="M172.672 215.148H101.715V221.811H172.672V215.148Z" fill="#FCC8D0"/>
<path d="M172.672 215.148H101.715V221.811H172.672V215.148Z" fill="#067294"/>
<path d="M172.671 231.805H81.5596V238.467H172.671V231.805Z" fill="#FCC8D0"/>
<path d="M172.671 231.805H81.5596V238.467H172.671V231.805Z" fill="#067294"/>
<path d="M149.741 276.223H95.6631V282.885H149.741V276.223Z" fill="#FCC8D0"/>
<path d="M149.741 276.223H95.6631V282.885H149.741V276.223Z" fill="#067294"/>
<path d="M172.673 292.879H66.0156V299.542H172.673V292.879Z" fill="#FCC8D0"/>
<path d="M172.673 292.879H66.0156V299.542H172.673V292.879Z" fill="#067294"/>
<path d="M172.672 309.535H81.5605V316.198H172.672V309.535Z" fill="#FCC8D0"/>
<path d="M172.672 309.535H81.5605V316.198H172.672V309.535Z" fill="#067294"/>
<path d="M253.621 326.8H203.596C203.263 326.8 203.041 326.577 203.041 326.244V276.219C203.041 275.886 203.263 275.664 203.596 275.664H253.621C253.954 275.664 254.176 275.886 254.176 276.219V326.244C254.176 326.522 253.899 326.8 253.621 326.8ZM204.151 325.689H253.066V276.774H204.151V325.689Z" fill="#FCC8D0"/>
<path d="M253.621 326.8H203.596C203.263 326.8 203.041 326.577 203.041 326.244V276.219C203.041 275.886 203.263 275.664 203.596 275.664H253.621C253.954 275.664 254.176 275.886 254.176 276.219V326.244C254.176 326.522 253.899 326.8 253.621 326.8ZM204.151 325.689H253.066V276.774H204.151V325.689Z" fill="#067294"/>
<path d="M225.915 318.641L210.258 304.427L215.088 298.487L225.027 306.371L240.573 283.773L246.958 288.16L225.915 318.641Z" fill="#3195B4"/>
<path d="M253.621 245.514H203.596C203.263 245.514 203.041 245.292 203.041 244.959V194.934C203.041 194.601 203.263 194.379 203.596 194.379H253.621C253.954 194.379 254.176 194.601 254.176 194.934V244.959C254.176 245.237 253.899 245.514 253.621 245.514ZM204.151 244.404H253.066V195.489H204.151V244.404Z" fill="#FCC8D0"/>
<path d="M253.621 245.514H203.596C203.263 245.514 203.041 245.292 203.041 244.959V194.934C203.041 194.601 203.263 194.379 203.596 194.379H253.621C253.954 194.379 254.176 194.601 254.176 194.934V244.959C254.176 245.237 253.899 245.514 253.621 245.514ZM204.151 244.404H253.066V195.489H204.151V244.404Z" fill="#067294"/>
<path d="M225.915 237.356L210.258 223.142L215.088 217.202L225.027 225.086L240.573 202.488L246.958 206.874L225.915 237.356Z" fill="#3195B4"/>
<path d="M253.621 166.288H203.596C203.263 166.288 203.041 166.066 203.041 165.733V115.708C203.041 115.374 203.263 115.152 203.596 115.152H253.621C253.954 115.152 254.176 115.374 254.176 115.708V165.733C254.176 166.066 253.899 166.288 253.621 166.288ZM204.151 165.177H253.066V116.263H204.151V165.177Z" fill="#FCC8D0"/>
<path d="M253.621 166.288H203.596C203.263 166.288 203.041 166.066 203.041 165.733V115.708C203.041 115.374 203.263 115.152 203.596 115.152H253.621C253.954 115.152 254.176 115.374 254.176 115.708V165.733C254.176 166.066 253.899 166.288 253.621 166.288ZM204.151 165.177H253.066V116.263H204.151V165.177Z" fill="#067294"/>
<path d="M225.915 158.184L210.258 143.97L215.088 137.974L225.027 145.914L240.573 123.316L246.958 127.647L225.915 158.184Z" fill="#C7FF50"/>
<path d="M369.773 336.184C369.773 336.184 452.945 368.886 445.782 401.699C439.342 431.237 359.724 396.258 359.724 396.258L369.773 336.184Z" fill="#1AE3E3"/>
<path d="M424.574 414.133C399.367 414.133 361.446 397.643 359.503 396.755C359.225 396.644 359.114 396.311 359.225 396.033C359.336 395.756 359.669 395.645 359.947 395.756C360.447 395.978 399.534 412.967 424.741 412.967C430.071 412.967 434.735 412.19 438.344 410.413C442.064 408.526 444.395 405.583 445.228 401.585C450.614 376.878 403.032 351.727 382.267 342.011C381.989 341.9 381.878 341.567 381.989 341.289C382.1 341.011 382.433 340.9 382.711 341.011C394.537 346.508 411.471 355.28 425.018 365.83C441.564 378.655 448.726 390.759 446.283 401.808C445.339 406.138 442.841 409.358 438.788 411.413C435.012 413.356 430.071 414.133 424.574 414.133Z" fill="#1AE3E3"/>
<path d="M370.385 336.241C370.385 336.241 334.574 324.914 304.092 331.91C273.611 338.906 252.457 350.121 252.457 350.121L266.56 387.709L270.057 458.722L374.605 422.188L366.776 391.429L370.385 336.241Z" fill="#1AE3E3"/>
<path d="M227.97 406.695C242.628 408.472 277.384 410.859 280.771 411.248C287.101 411.914 326.41 416.134 326.077 421.464C325.91 424.629 314.14 423.296 311.974 423.019C313.64 424.129 324.744 429.626 324.078 432.18C322.912 436.622 310.087 430.237 309.92 430.292C311.752 431.236 321.802 435.122 321.469 437.066C320.691 441.23 310.198 437.954 307.866 437.51C308.032 437.898 316.694 440.452 316.305 443.229C315.972 445.449 303.369 444.672 300.426 444.561C294.818 443.95 279.994 444.061 269.278 444.006C244.127 443.839 226.971 435.011 226.971 435.011C226.971 435.011 221.252 410.97 227.97 406.695Z" fill="#F7AFBC"/>
<path d="M312.085 423.3C312.03 423.3 311.919 423.3 311.863 423.244C310.697 422.689 309.476 422.189 308.254 421.745C306.033 421.023 303.701 420.524 301.37 420.357C301.036 420.357 300.814 420.08 300.87 419.746C300.87 419.413 301.147 419.191 301.481 419.247C303.924 419.413 306.311 419.913 308.643 420.69C309.92 421.135 311.197 421.634 312.418 422.245C312.696 422.356 312.807 422.689 312.696 422.967C312.474 423.189 312.307 423.3 312.085 423.3Z" fill="#41193E"/>
<path d="M310.031 430.625C309.976 430.625 309.92 430.625 309.865 430.57C309.587 430.459 309.365 430.403 309.087 430.292C306.866 429.57 304.534 429.071 302.203 428.904C301.869 428.904 301.647 428.626 301.703 428.293C301.703 427.96 301.98 427.738 302.314 427.794C304.757 427.96 307.144 428.46 309.476 429.237C309.753 429.348 310.031 429.404 310.309 429.515C310.586 429.626 310.753 429.959 310.642 430.237C310.475 430.514 310.253 430.625 310.031 430.625Z" fill="#41193E"/>
<path d="M307.645 437.954C307.589 437.954 307.534 437.954 307.534 437.954C306.035 437.621 304.535 437.343 302.981 437.232C302.648 437.232 302.426 436.955 302.481 436.621C302.481 436.288 302.759 436.066 303.092 436.122C304.702 436.233 306.257 436.51 307.811 436.844C308.089 436.899 308.311 437.232 308.2 437.51C308.144 437.787 307.922 437.954 307.645 437.954Z" fill="#41193E"/>
<path d="M321.081 355.559C320.97 355.559 320.915 355.559 320.804 355.503L306.146 347.73C305.868 347.564 305.757 347.23 305.924 346.953C306.091 346.675 306.424 346.564 306.701 346.731L320.637 354.115L323.469 329.797C323.524 329.519 323.802 329.297 324.08 329.297C324.357 329.352 324.579 329.63 324.579 329.908L321.637 355.003C321.637 355.17 321.526 355.337 321.359 355.448C321.248 355.559 321.137 355.559 321.081 355.559Z" fill="#41193E"/>
<path d="M285.381 357.282C285.326 357.282 285.215 357.282 285.159 357.226C284.993 357.171 284.882 357.004 284.826 356.782L282.217 336.85C282.161 336.572 282.383 336.294 282.716 336.239C282.994 336.183 283.271 336.406 283.327 336.739L285.825 355.783L297.485 347.565C297.763 347.399 298.096 347.454 298.262 347.676C298.429 347.954 298.373 348.287 298.151 348.454L285.714 357.226C285.603 357.282 285.492 357.282 285.381 357.282Z" fill="#41193E"/>
<path d="M273.111 395.146L251.68 399.254L267.67 403.64L269.224 444.06C269.224 444.06 189.939 444.671 190.273 407.693C190.495 380.821 254.511 349.062 254.511 349.062L273.111 395.146Z" fill="#1AE3E3"/>
<path d="M397.255 379.156C367.662 373.437 357.502 370.161 327.853 364.442C324.633 362.166 315.805 355.725 304.034 355.614C292.264 355.503 281.215 363.443 282.214 366.33C282.714 367.663 285.601 369.884 288.933 367.663C292.93 364.998 295.54 365.053 298.815 364.776C298.427 365.164 296.095 366.663 296.261 369.106C296.483 371.605 298.76 373.437 299.093 373.77C298.205 375.491 297.483 376.99 298.371 379.322C299.371 382.043 302.202 382.82 302.202 382.82C302.202 382.82 301.702 386.484 303.868 389.816C306.699 394.091 311.918 395.423 313.473 393.425C314.084 392.647 314.695 390.427 312.196 387.539C313.418 388.372 317.637 393.536 322.19 395.257C325.965 396.7 329.852 395.09 331.185 394.813C355.281 405.417 364.942 405.751 389.038 416.355C393.036 402.142 393.313 393.48 397.255 379.156Z" fill="#F7AFBC"/>
<path d="M299.092 365.164C298.87 365.164 298.648 364.998 298.537 364.776C298.426 364.498 298.593 364.165 298.926 364.054C299.703 363.832 300.48 363.665 301.258 363.61C302.202 363.554 303.201 363.61 304.145 363.832C304.422 363.887 304.645 364.165 304.589 364.498C304.534 364.776 304.256 364.998 303.923 364.942C303.09 364.776 302.202 364.72 301.369 364.776C300.647 364.831 299.925 364.942 299.259 365.164C299.203 365.109 299.148 365.164 299.092 365.164Z" fill="#41193E"/>
<path d="M299.039 374.603C298.872 374.603 298.65 374.491 298.595 374.325C298.428 374.047 298.484 373.714 298.761 373.548C299.427 373.103 300.149 372.77 300.927 372.493C301.815 372.16 302.759 371.993 303.758 371.938C304.036 371.938 304.313 372.16 304.369 372.437C304.369 372.77 304.147 372.992 303.869 373.048C302.981 373.103 302.148 373.27 301.371 373.548C300.704 373.77 300.038 374.103 299.427 374.491C299.261 374.603 299.15 374.603 299.039 374.603Z" fill="#41193E"/>
<path d="M302.481 383.041C302.37 383.041 302.259 382.986 302.148 382.93C301.87 382.764 301.815 382.431 301.981 382.153C302.592 381.209 303.703 380.376 304.757 380.043C306.645 379.377 308.366 379.877 309.199 380.21C309.477 380.321 309.643 380.654 309.477 380.932C309.366 381.209 309.033 381.376 308.755 381.209C308.033 380.932 306.645 380.543 305.091 381.043C304.258 381.32 303.369 382.042 302.87 382.764C302.87 382.986 302.703 383.041 302.481 383.041Z" fill="#41193E"/>
<path d="M312.363 388.206C312.307 388.206 312.307 388.206 312.252 388.206L308.476 387.596C308.199 387.54 307.976 387.262 308.032 386.929C308.088 386.652 308.365 386.43 308.698 386.485L312.474 387.096C312.751 387.151 312.973 387.429 312.918 387.762C312.862 387.984 312.64 388.206 312.363 388.206Z" fill="#41193E"/>
<path d="M443.118 402.587C448.504 374.271 353.506 364.277 353.506 364.277L343.734 405.641C343.79 405.641 436.011 440.287 443.118 402.587Z" fill="#1AE3E3"/>
<path d="M426.572 382.6C426.516 382.6 426.405 382.6 426.35 382.545C400.754 369.941 353.95 364.889 353.45 364.833C353.172 364.778 352.95 364.5 352.95 364.222C353.006 363.945 353.283 363.723 353.561 363.723C354.005 363.778 401.032 368.831 426.794 381.545C427.072 381.656 427.183 381.989 427.072 382.267C427.016 382.489 426.794 382.6 426.572 382.6Z" fill="#41193E"/>
<path d="M409.026 418.022C401.309 418.022 392.537 417.245 382.82 415.635C361.833 412.248 343.789 406.196 343.622 406.14C343.344 406.029 343.178 405.752 343.233 405.474L344.455 400.422C344.51 400.144 344.843 399.922 345.121 400.033C345.399 400.089 345.621 400.422 345.51 400.699L344.455 405.252C350.784 407.306 416.911 427.961 441.063 408.639C441.285 408.472 441.673 408.472 441.84 408.75C442.006 408.972 442.006 409.361 441.729 409.527C434.622 415.191 423.684 418.022 409.026 418.022Z" fill="#41193E"/>
<path d="M267.837 403.974C267.782 403.974 267.726 403.974 267.726 403.974L219.977 392.092C219.7 392.036 219.478 391.703 219.589 391.426C219.644 391.148 219.977 390.926 220.255 391.037L268.004 402.919C268.281 402.974 268.503 403.307 268.392 403.585C268.337 403.807 268.115 403.974 267.837 403.974Z" fill="#41193E"/>
<path d="M267.947 410.364C267.67 410.364 267.392 410.142 267.392 409.808L265.727 371.11C265.727 370.777 265.949 370.555 266.282 370.555C266.615 370.555 266.837 370.777 266.837 371.11L268.503 409.808C268.503 410.142 268.281 410.364 267.947 410.364Z" fill="#41193E"/>
<path d="M204.153 383.82C203.986 383.82 203.875 383.764 203.764 383.653C203.542 383.431 203.542 383.098 203.764 382.876C219.699 366.553 269.113 342.179 269.613 341.957C269.891 341.846 270.224 341.957 270.335 342.234C270.446 342.512 270.335 342.845 270.057 342.956C269.557 343.178 220.365 367.497 204.542 383.653C204.486 383.764 204.319 383.82 204.153 383.82Z" fill="#41193E"/>
<path d="M292.212 335.077L301.04 355.842L316.974 329.858L306.37 298.211L286.049 301.931L292.212 335.077Z" fill="#F7AFBC"/>
<path d="M290.713 283.11C289.824 283.166 281.33 283.721 277.165 290.273C274.056 295.103 274.445 300.655 276.499 309.872C278.887 320.699 281.885 326.862 285.327 328.527C290.824 331.192 304.593 321.254 308.757 310.871C311.755 303.32 309.923 294.492 304.649 288.33C299.319 282.167 291.268 283.11 290.713 283.11Z" fill="#F7AFBC"/>
<path d="M291.989 328.804C291.766 328.804 291.544 328.693 291.489 328.471C291.378 328.193 291.489 327.86 291.766 327.749C297.596 325.306 305.369 318.366 308.312 310.981C308.423 310.704 308.756 310.537 309.034 310.648C309.311 310.759 309.478 311.092 309.367 311.37C306.202 319.309 298.151 326.25 292.211 328.748C292.155 328.804 292.044 328.804 291.989 328.804Z" fill="#41193E"/>
<path d="M278.165 312.035C278.332 312.701 278.443 313.756 278.109 314.867C277.721 316.199 276.999 316.699 277.11 317.532C277.221 318.087 277.665 318.753 279.609 319.42L278.165 312.035Z" fill="#FABCC6"/>
<path d="M279.164 319.422C279.108 319.422 279.053 319.422 278.997 319.366C277.609 318.922 276.832 318.256 276.721 317.478C276.61 316.923 276.832 316.535 277.054 316.146C277.221 315.868 277.387 315.591 277.498 315.202C277.665 314.591 277.665 313.981 277.554 313.259C277.498 312.981 277.665 312.648 277.998 312.593C278.276 312.537 278.609 312.704 278.664 313.037C278.831 313.87 278.831 314.702 278.609 315.48C278.442 315.979 278.276 316.368 278.109 316.646C277.942 316.979 277.887 317.145 277.887 317.256C277.942 317.423 278.109 317.867 279.442 318.311C279.719 318.422 279.886 318.7 279.775 319.033C279.608 319.311 279.386 319.422 279.164 319.422Z" fill="#41193E"/>
<path d="M277.721 282.056C279.831 279.502 282.718 278.059 283.717 277.615C286.105 276.504 288.77 275.838 291.435 275.56L295.266 275.449C299.707 275.616 303.927 276.893 306.925 279.391C314.865 285.943 316.253 293.549 311.089 312.538C309.202 307.43 307.258 299.657 303.372 298.879C300.818 298.38 298.652 299.379 297.598 299.934C295.932 295.881 294.71 291.995 291.768 290.773C290.935 290.44 290.158 290.385 289.269 290.44C283.273 290.607 277.221 295.381 274.945 297.38C274.612 296.048 272.89 287.831 277.721 282.056Z" fill="#003C4F"/>
<path d="M308.712 303.392C309.824 299.692 308.202 295.934 305.089 294.998C301.976 294.062 298.551 296.303 297.439 300.003C296.327 303.704 297.948 307.462 301.061 308.398C304.174 309.333 307.599 307.092 308.712 303.392Z" fill="#F7AFBC"/>
<path d="M305.647 303.762C305.536 303.762 305.481 303.762 305.425 303.706C305.148 303.595 305.037 303.262 305.203 302.985C305.314 302.818 305.37 302.596 305.425 302.429C305.925 300.819 305.259 299.265 303.926 298.876C303.649 298.765 303.316 298.765 302.982 298.821C302.649 298.876 302.372 298.654 302.316 298.376C302.261 298.099 302.483 297.766 302.76 297.71C303.26 297.599 303.76 297.655 304.204 297.821C306.092 298.376 307.091 300.597 306.425 302.763C306.369 303.04 306.258 303.262 306.147 303.54C306.036 303.651 305.87 303.762 305.647 303.762Z" fill="#41193E"/>
<path d="M297.153 296.209C296.265 296.32 299.097 306.092 296.765 310.589C293.489 316.919 286.049 318.585 279.164 319.528C278.331 322.971 275.167 337.295 280.441 340.46C285.882 343.68 299.818 334.741 303.372 322.582C306.536 311.755 298.597 295.987 297.153 296.209Z" fill="#003C4F"/>
<path d="M285.271 323.082C284.937 323.082 284.604 323.026 284.271 322.915C283.994 322.804 283.827 322.471 283.938 322.193C284.049 321.916 284.382 321.749 284.66 321.86C285.382 322.138 286.214 321.916 286.659 321.305C287.214 320.583 286.825 319.639 286.77 319.639C286.659 319.362 286.77 319.029 287.047 318.918C287.325 318.807 287.658 318.918 287.769 319.195C287.825 319.362 288.38 320.75 287.491 321.971C286.992 322.693 286.159 323.082 285.271 323.082Z" fill="#FABCC6"/>
<path d="M283.939 309.485C284.217 310.873 283.662 312.206 282.662 312.372C281.663 312.539 280.663 311.595 280.386 310.151C280.108 308.763 280.663 307.431 281.663 307.264C282.662 307.098 283.662 308.097 283.939 309.485Z" fill="#41193E"/>
<path d="M277.498 303.209C277.387 303.209 277.276 303.154 277.165 303.098C276.943 302.932 276.887 302.543 277.054 302.321C277.498 301.766 277.942 301.322 278.497 300.933C280.607 299.489 282.606 300.1 282.939 300.211C283.217 300.322 283.383 300.655 283.272 300.933C283.161 301.211 282.828 301.377 282.551 301.266C282.273 301.155 280.718 300.711 279.108 301.821C278.664 302.154 278.275 302.543 277.887 302.987C277.831 303.154 277.665 303.209 277.498 303.209Z" fill="#41193E"/>
<path d="M186.386 452.842H328.466C331.686 452.842 334.295 450.233 334.295 447.013V446.957H180.611V447.013C180.611 450.233 183.221 452.842 186.386 452.842Z" fill="#C7FF50"/>
<path d="M171.339 446.954H290.1L258.286 362.672H139.525L171.339 446.954Z" fill="#C7FF50"/>
<path d="M206.929 403.925C207.707 406.368 209.761 407.922 211.538 407.367C213.314 406.812 214.147 404.369 213.37 401.926C212.592 399.483 210.538 397.928 208.761 398.484C206.985 399.039 206.152 401.482 206.929 403.925Z" fill="#003C4F"/>
<path d="M120.286 79.7815V78.2424C120.712 78.2424 121.065 78.2225 121.345 78.1825C121.638 78.1292 121.858 78.0359 122.005 77.9026C122.164 77.7561 122.271 77.5362 122.324 77.2431C122.391 76.9366 122.424 76.5368 122.424 76.0438V64.6108H124.183V76.4036C124.183 77.1498 124.11 77.7494 123.963 78.2025C123.817 78.6555 123.577 78.9953 123.244 79.2218C122.924 79.4484 122.518 79.5949 122.025 79.6616C121.545 79.7415 120.965 79.7815 120.286 79.7815ZM131.039 78.6022C129.92 78.6022 129.041 78.409 128.401 78.0226C127.775 77.6361 127.335 77.0565 127.082 76.2836C126.829 75.4974 126.702 74.4981 126.702 73.2855C126.702 72.1395 126.842 71.1934 127.122 70.4472C127.402 69.6877 127.861 69.128 128.501 68.7682C129.14 68.3951 129.987 68.2086 131.039 68.2086C132.105 68.2086 132.958 68.3951 133.598 68.7682C134.237 69.128 134.697 69.6877 134.977 70.4472C135.257 71.1934 135.397 72.1395 135.397 73.2855C135.397 74.4981 135.263 75.4974 134.997 76.2836C134.744 77.0565 134.304 77.6361 133.678 78.0226C133.051 78.409 132.172 78.6022 131.039 78.6022ZM131.039 77.1431C131.786 77.1431 132.345 77.0165 132.718 76.7633C133.091 76.4968 133.338 76.0771 133.458 75.5041C133.578 74.9311 133.638 74.1916 133.638 73.2855C133.638 72.3927 133.558 71.6798 133.398 71.1468C133.251 70.6138 132.991 70.234 132.618 70.0075C132.245 69.7809 131.719 69.6677 131.039 69.6677C130.373 69.6677 129.847 69.7809 129.46 70.0075C129.087 70.234 128.821 70.6138 128.661 71.1468C128.514 71.6798 128.441 72.3927 128.441 73.2855C128.441 74.1916 128.501 74.9311 128.621 75.5041C128.741 76.0771 128.987 76.4968 129.36 76.7633C129.733 77.0165 130.293 77.1431 131.039 77.1431ZM141.198 78.6022C140.905 78.6022 140.545 78.5889 140.119 78.5622C139.706 78.5489 139.286 78.5223 138.86 78.4823C138.433 78.4423 138.06 78.409 137.74 78.3824V64.0911H139.439V68.8682C139.759 68.7216 140.185 68.575 140.718 68.4284C141.265 68.2819 141.784 68.2086 142.277 68.2086C143.197 68.2086 143.923 68.3818 144.456 68.7282C145.002 69.0614 145.389 69.601 145.615 70.3473C145.855 71.0935 145.975 72.0595 145.975 73.2455C145.975 74.578 145.829 75.6374 145.535 76.4236C145.256 77.1964 144.769 77.7561 144.076 78.1025C143.383 78.4357 142.424 78.6022 141.198 78.6022ZM141.178 77.0831C142.058 77.0831 142.711 76.9499 143.137 76.6834C143.563 76.4169 143.85 76.0038 143.996 75.4441C144.143 74.8712 144.216 74.1383 144.216 73.2455C144.216 72.4193 144.15 71.7464 144.016 71.2267C143.896 70.707 143.677 70.3273 143.357 70.0874C143.037 69.8342 142.604 69.7076 142.058 69.7076C141.591 69.7076 141.112 69.7743 140.618 69.9075C140.139 70.0275 139.746 70.1407 139.439 70.2473V76.9832C139.719 77.0099 140.032 77.0365 140.379 77.0632C140.738 77.0765 141.005 77.0831 141.178 77.0831ZM152.951 78.4023V64.6108H157.928C158.954 64.6108 159.801 64.7773 160.467 65.1105C161.146 65.4303 161.679 65.8833 162.066 66.4696C162.466 67.0559 162.745 67.7622 162.905 68.5883C163.079 69.4012 163.165 70.3073 163.165 71.3067C163.165 72.3061 163.085 73.2388 162.925 74.105C162.765 74.9578 162.486 75.7107 162.086 76.3636C161.699 77.0032 161.166 77.5029 160.487 77.8627C159.821 78.2225 158.974 78.4023 157.948 78.4023H152.951ZM154.71 76.8633H157.928C158.635 76.8633 159.208 76.7167 159.647 76.4236C160.087 76.1171 160.427 75.704 160.667 75.1843C160.92 74.6646 161.093 74.0783 161.186 73.4254C161.293 72.7591 161.346 72.0529 161.346 71.3067C161.346 70.5738 161.293 69.8942 161.186 69.2679C161.093 68.6416 160.92 68.0953 160.667 67.6289C160.427 67.1625 160.08 66.8028 159.627 66.5496C159.188 66.2831 158.621 66.1498 157.928 66.1498H154.71V76.8633ZM169.212 78.6022C168.199 78.6022 167.4 78.409 166.814 78.0226C166.227 77.6361 165.801 77.0632 165.534 76.3036C165.281 75.5441 165.155 74.598 165.155 73.4654C165.155 72.2128 165.328 71.2001 165.674 70.4272C166.021 69.6543 166.507 69.0947 167.133 68.7482C167.773 68.3885 168.533 68.2086 169.412 68.2086C170.771 68.2086 171.791 68.5817 172.47 69.3279C173.163 70.0608 173.509 71.24 173.509 72.8657L173.43 74.105H166.894C166.907 75.091 167.093 75.8439 167.453 76.3636C167.813 76.8699 168.466 77.1231 169.412 77.1231C169.785 77.1231 170.198 77.1165 170.651 77.1031C171.104 77.0765 171.551 77.0498 171.99 77.0232C172.443 76.9965 172.823 76.9699 173.13 76.9432L173.17 78.2624C172.85 78.3157 172.457 78.369 171.99 78.4223C171.524 78.4756 171.044 78.5156 170.551 78.5423C170.072 78.5822 169.625 78.6022 169.212 78.6022ZM166.894 72.7658H171.791C171.791 71.5932 171.604 70.7737 171.231 70.3073C170.858 69.8276 170.251 69.5877 169.412 69.5877C168.599 69.5877 167.973 69.8342 167.533 70.3273C167.107 70.8203 166.894 71.6331 166.894 72.7658ZM179.043 78.6222C178.35 78.6222 177.797 78.5156 177.384 78.3024C176.971 78.0892 176.671 77.7228 176.484 77.2031C176.311 76.6701 176.225 75.9239 176.225 74.9644V69.8676H174.845V68.4084H176.225V65.4103H177.924V68.4084H180.982V69.8676H177.924V74.4847C177.924 75.1643 177.95 75.6973 178.003 76.0838C178.07 76.4569 178.197 76.7234 178.383 76.8833C178.583 77.0298 178.89 77.1031 179.303 77.1031C179.436 77.1031 179.603 77.0965 179.802 77.0831C180.016 77.0698 180.229 77.0565 180.442 77.0432C180.669 77.0165 180.862 76.9965 181.022 76.9832L181.122 78.4023C180.828 78.4423 180.475 78.489 180.062 78.5423C179.662 78.5956 179.323 78.6222 179.043 78.6222ZM185.01 78.6022C184.064 78.6022 183.345 78.3424 182.852 77.8227C182.372 77.303 182.132 76.5368 182.132 75.5241C182.132 74.8578 182.245 74.3182 182.472 73.9051C182.712 73.492 183.065 73.1789 183.531 72.9657C184.011 72.7525 184.591 72.6192 185.27 72.5659L188.268 72.2661V71.4466C188.268 70.7937 188.122 70.3339 187.829 70.0674C187.536 69.8009 187.109 69.6677 186.55 69.6677C186.203 69.6677 185.797 69.681 185.33 69.7076C184.877 69.7343 184.417 69.7676 183.951 69.8076C183.498 69.8476 183.098 69.8875 182.752 69.9275L182.672 68.6483C182.992 68.5817 183.378 68.515 183.831 68.4484C184.298 68.3818 184.777 68.3285 185.27 68.2885C185.777 68.2352 186.236 68.2086 186.649 68.2086C187.422 68.2086 188.055 68.3218 188.548 68.5484C189.041 68.7749 189.401 69.128 189.628 69.6077C189.867 70.0741 189.987 70.6804 189.987 71.4266V76.4236C190.014 76.7034 190.127 76.9099 190.327 77.0432C190.527 77.1631 190.78 77.2431 191.087 77.283L191.027 78.6022C190.734 78.6022 190.46 78.5822 190.207 78.5423C189.954 78.5156 189.728 78.4756 189.528 78.4223C189.328 78.3557 189.148 78.2758 188.988 78.1825C188.828 78.0759 188.675 77.9559 188.528 77.8227C188.275 77.9293 187.955 78.0426 187.569 78.1625C187.182 78.2824 186.769 78.3824 186.33 78.4623C185.89 78.5556 185.45 78.6022 185.01 78.6022ZM185.31 77.2031C185.657 77.2031 186.017 77.1764 186.39 77.1231C186.763 77.0565 187.116 76.9765 187.449 76.8833C187.782 76.79 188.055 76.7034 188.268 76.6234V73.5053L185.49 73.7652C184.917 73.8185 184.504 73.9917 184.251 74.2849C183.998 74.5647 183.871 74.9644 183.871 75.4841C183.871 76.0171 183.991 76.4369 184.231 76.7434C184.484 77.0498 184.844 77.2031 185.31 77.2031ZM192.863 78.4023V68.4084H194.542V78.4023H192.863ZM192.863 66.2897V64.4309H194.542V66.2897H192.863ZM197.433 78.4023V64.0911H199.132V78.4023H197.433ZM205.215 78.6022C204.896 78.6022 204.509 78.5822 204.056 78.5423C203.616 78.5023 203.183 78.4556 202.757 78.4023C202.331 78.3357 201.951 78.2758 201.618 78.2225L201.718 76.7833C202.051 76.8233 202.424 76.8699 202.837 76.9232C203.263 76.9765 203.676 77.0232 204.076 77.0632C204.476 77.0898 204.802 77.1031 205.056 77.1031C205.575 77.1031 206.008 77.0565 206.355 76.9632C206.701 76.8699 206.961 76.71 207.134 76.4835C207.321 76.257 207.414 75.9305 207.414 75.5041C207.414 75.1843 207.341 74.9378 207.194 74.7646C207.061 74.5913 206.808 74.4448 206.435 74.3248C206.075 74.2049 205.542 74.0983 204.836 74.005C204.089 73.8851 203.463 73.7319 202.957 73.5453C202.464 73.3588 202.097 73.0856 201.858 72.7258C201.631 72.366 201.518 71.853 201.518 71.1867C201.518 70.4272 201.691 69.8342 202.037 69.4078C202.384 68.9681 202.837 68.6616 203.397 68.4884C203.956 68.3018 204.543 68.2086 205.156 68.2086C205.542 68.2086 205.962 68.2285 206.415 68.2685C206.868 68.3085 207.308 68.3618 207.734 68.4284C208.16 68.4817 208.527 68.535 208.833 68.5883L208.793 70.0275C208.473 69.9742 208.094 69.9275 207.654 69.8875C207.228 69.8342 206.801 69.7943 206.375 69.7676C205.948 69.7276 205.575 69.7076 205.255 69.7076C204.869 69.7076 204.523 69.7476 204.216 69.8276C203.91 69.9075 203.663 70.0541 203.477 70.2673C203.303 70.4672 203.217 70.747 203.217 71.1068C203.217 71.3866 203.283 71.6132 203.417 71.7864C203.55 71.9596 203.796 72.1062 204.156 72.2261C204.516 72.3327 205.042 72.446 205.735 72.5659C206.561 72.6992 207.221 72.8657 207.714 73.0656C208.22 73.2655 208.587 73.552 208.813 73.9251C209.04 74.2849 209.153 74.7912 209.153 75.4441C209.153 76.6301 208.8 77.4563 208.094 77.9226C207.401 78.3757 206.441 78.6022 205.215 78.6022Z" fill="#C1E2EC"/>
</g>
<defs>
<clipPath id="clip0_4196_8560">
<rect width="460.83" height="460.83" fill="white"/>
</clipPath>
</defs>
</svg>
