<svg width="32" height="32" viewBox="0 0 32 32" fill="none" xmlns="http://www.w3.org/2000/svg">
<g clip-path="url(#clip0_4246_17226)">
<path d="M7.11125 0H24.8362C25.6987 0 26.5362 0.1375 27.3487 0.425C28.5237 0.85 29.5862 1.6 30.3862 2.575C31.1987 3.55 31.7362 4.75 31.9237 6C31.9987 6.4625 32.0112 6.925 32.0112 7.3875V24.675C32.0112 25.225 31.9862 25.7875 31.8737 26.325C31.6237 27.5625 31.0362 28.725 30.1862 29.6625C29.3487 30.6 28.2487 31.3 27.0612 31.675C26.3362 31.9 25.5862 32 24.8237 32C24.4862 32 7.06125 32 6.79875 31.9875C5.52375 31.925 4.26125 31.5125 3.19875 30.8C2.16125 30.1 1.31125 29.125 0.761252 28C0.286252 27.0375 0.0487516 25.9625 0.0487516 24.8875V7.1125C0.0237516 6.05 0.248752 5 0.711251 4.05C1.24875 2.925 2.08625 1.9375 3.12375 1.2375C4.18625 0.5125 5.43625 0.0875 6.71125 0.025C6.83625 0 6.97375 0 7.11125 0Z" fill="url(#paint0_linear_4246_17226)"/>
<path d="M27 26.175C26.8875 26 26.7625 25.825 26.625 25.6625C26.3125 25.2875 25.95 24.9625 25.55 24.6875C25.05 24.35 24.4625 24.1375 23.8625 24.1125C23.4375 24.0875 23.0125 24.1625 22.6125 24.3125C22.2125 24.45 21.825 24.65 21.45 24.85C21.0125 25.075 20.575 25.3 20.1125 25.4875C19.5625 25.7125 18.9875 25.8875 18.4 26.0125C17.6625 26.15 16.9125 26.2 16.175 26.1875C14.8375 26.1625 13.5 25.9625 12.225 25.5875C11.1 25.25 10.025 24.7875 9.0125 24.2C8.125 23.6875 7.3 23.1 6.525 22.4375C5.8875 21.8875 5.3 21.3 4.75 20.675C4.375 20.2375 4.0125 19.775 3.675 19.3C3.5375 19.1125 3.4125 18.9125 3.3 18.7125L0 15.15V7.0875C0 3.175 3.1625 0 7.075 0H13.3875L18.0625 4.75C28.6125 11.925 25.2 19.8375 25.2 19.8375C25.2 19.8375 28.2 23.2125 27 26.175Z" fill="url(#paint1_linear_4246_17226)"/>
<path d="M18.0883 4.75C28.6383 11.925 25.2258 19.8375 25.2258 19.8375C25.2258 19.8375 28.2258 23.225 27.0133 26.1875C27.0133 26.1875 25.7758 24.1125 23.7008 24.1125C21.7008 24.1125 20.5258 26.1875 16.5008 26.1875C7.53828 26.1875 3.30078 18.7 3.30078 18.7C11.3758 24.0125 16.8883 20.25 16.8883 20.25C13.2508 18.1375 5.51328 8.0375 5.51328 8.0375C12.2508 13.775 15.1633 15.2875 15.1633 15.2875C13.4258 13.85 8.55078 6.825 8.55078 6.825C12.4508 10.775 20.2008 16.2875 20.2008 16.2875C22.4008 10.1875 18.0883 4.75 18.0883 4.75Z" fill="white"/>
</g>
<defs>
<linearGradient id="paint0_linear_4246_17226" x1="19.0351" y1="-1.14187" x2="12.9893" y2="33.1457" gradientUnits="userSpaceOnUse">
<stop stop-color="#FAAE42"/>
<stop offset="1" stop-color="#EF3E31"/>
</linearGradient>
<linearGradient id="paint1_linear_4246_17226" x1="16.3265" y1="0.517" x2="11.9016" y2="25.6116" gradientUnits="userSpaceOnUse">
<stop stop-color="#E39F3A"/>
<stop offset="1" stop-color="#D33929"/>
</linearGradient>
<clipPath id="clip0_4246_17226">
<rect width="32" height="32" fill="white"/>
</clipPath>
</defs>
</svg>
