<svg width="36" height="36" viewBox="0 0 36 36" fill="none" xmlns="http://www.w3.org/2000/svg">
<path d="M21.8902 20.8125H14.1094L17.9998 31.511L21.8902 20.8125Z" fill="#26B5B5"/>
<path d="M24.0089 20.8125L18.9349 34.7662L18.8516 34.9953L34.3238 20.8125H24.0089Z" fill="#26B5B5"/>
<path d="M11.9906 20.8125H1.67578L17.148 34.9953L11.9906 20.8125Z" fill="#26B5B5"/>
<path d="M7.91016 10.8516L12.6895 18.0206L17.4689 10.8516H7.91016Z" fill="#26B5B5"/>
<path d="M18.5352 10.8516L23.3145 18.0206L28.0939 10.8516H18.5352Z" fill="#26B5B5"/>
<path d="M18.0021 13.6445L14.5508 18.8215H21.4534L18.0021 13.6445Z" fill="#26B5B5"/>
<path d="M6.17969 11.8477L1.53125 18.8204H10.8281L6.17969 11.8477Z" fill="#26B5B5"/>
<path d="M29.8242 11.8477L25.1758 18.8203H34.4727L29.8242 11.8477Z" fill="#26B5B5"/>
<path d="M28.6132 8.38374C28.3583 8.38374 28.1034 8.28646 27.9089 8.09195C27.5199 7.70301 27.5199 7.07228 27.9089 6.68328L30.7263 3.86592C31.1152 3.47698 31.746 3.47698 32.135 3.86592C32.524 4.25487 32.524 4.88559 32.135 5.2746L29.3176 8.09195C29.1231 8.28646 28.8682 8.38374 28.6132 8.38374Z" fill="#26B5B5"/>
<path d="M18.0039 6.97656C17.4538 6.97656 17.0078 6.53058 17.0078 5.98047V1.99609C17.0078 1.44598 17.4538 1 18.0039 1C18.554 1 19 1.44598 19 1.99609V5.98047C19 6.53058 18.554 6.97656 18.0039 6.97656Z" fill="#26B5B5"/>
<path d="M7.39154 8.38368C7.1366 8.38368 6.88167 8.28639 6.68723 8.09189L3.86988 5.2746C3.48087 4.88566 3.48087 4.25493 3.86988 3.86592C4.25882 3.47698 4.88955 3.47698 5.27856 3.86592L8.09591 6.68328C8.48492 7.07222 8.48492 7.70294 8.09591 8.09195C7.9014 8.28639 7.64647 8.38368 7.39154 8.38368Z" fill="#26B5B5"/>
</svg>
