<svg width="42" height="35" viewBox="0 0 42 35" fill="none" xmlns="http://www.w3.org/2000/svg">
<path d="M0.730469 34.9998L20.9996 0L41.2687 34.9998H0.730469ZM21.151 29.7268C21.5077 29.7268 21.8037 29.6061 22.039 29.3647C22.2742 29.1234 22.3919 28.8244 22.3919 28.4677C22.3919 28.1109 22.2712 27.8149 22.0299 27.5797C21.7885 27.3444 21.4895 27.2268 21.1328 27.2268C20.776 27.2268 20.48 27.3475 20.2448 27.5888C20.0095 27.8301 19.8919 28.1291 19.8919 28.4858C19.8919 28.8426 20.0125 29.1386 20.2539 29.3738C20.4952 29.6091 20.7942 29.7268 21.151 29.7268ZM20.0073 24.8307H22.2765V13.9383H20.0073V24.8307Z" fill="#C7FF50"/>
</svg>
