<svg width="34" height="48" viewBox="0 0 34 48" fill="none" xmlns="http://www.w3.org/2000/svg">
<path d="M30.5 0H3.5C1.847 0 0.5 1.347 0.5 3V45C0.5 46.656 1.847 48 3.5 48H30.5C32.156 48 33.5 46.656 33.5 45V3C33.5 1.347 32.156 0 30.5 0ZM30.5 39H3.5V6H30.5V39Z" fill="#1AE3E3"/>
<path d="M27.0633 27.438L25.8213 26.196C24.9693 25.347 24.5013 24.216 24.5013 23.013V19.5C24.5013 15.366 21.1383 12 17.0013 12C12.8673 12 9.50134 15.366 9.50134 19.5V23.013C9.50134 24.216 9.03334 25.344 8.18434 26.196L6.93934 27.438C6.51034 27.867 6.38134 28.515 6.61534 29.073C6.84634 29.634 7.39534 30 8.00134 30H12.7773C13.3983 31.743 15.0483 33 17.0013 33C18.9543 33 20.6043 31.743 21.2253 30H26.0013C26.6073 30 27.1563 29.634 27.3873 29.073C27.6183 28.512 27.4893 27.867 27.0633 27.438Z" fill="#C7FF50"/>
</svg>
