<svg width="42" height="44" viewBox="0 0 42 44" fill="none" xmlns="http://www.w3.org/2000/svg">
<path fill-rule="evenodd" clip-rule="evenodd" d="M20.1557 11.3913L20.1558 8.9634C20.4227 9.04556 20.7061 9.08988 20.9997 9.08988C21.294 9.08979 21.578 9.04525 21.8454 8.96273L21.8455 11.3914C21.5661 11.3523 21.2838 11.3322 21.0006 11.3322C20.7174 11.3322 20.4351 11.3523 20.1557 11.3913ZM13.8836 11.5829C13.6588 11.5828 13.4449 11.4943 13.286 11.3348C10.4714 8.50789 10.4627 3.92242 13.2866 1.09898C13.6165 0.769122 14.1509 0.769122 14.4808 1.09898C14.8108 1.4289 14.8108 1.96338 14.4808 2.29327C12.3176 4.45622 12.3176 7.97722 14.4808 10.1402C14.8107 10.4699 14.8103 11.0045 14.4813 11.3348C14.3228 11.4939 14.1082 11.583 13.8836 11.5829ZM16.0573 9.69802C15.8324 9.698 15.6184 9.60947 15.4593 9.45027C13.6765 7.66685 13.6761 4.76637 15.4593 2.98311C15.7893 2.6532 16.3244 2.65325 16.6544 2.98308C16.9844 3.31294 16.9843 3.84834 16.6544 4.17826C15.5303 5.3024 15.5299 7.13197 16.6544 8.25603C16.9842 8.58576 16.9843 9.12107 16.6542 9.45055C16.4953 9.60908 16.2818 9.69805 16.0573 9.69802ZM28.1173 11.5829C27.8923 11.5828 27.6784 11.4945 27.5193 11.3352C27.1896 11.0053 27.1895 10.4699 27.5194 10.1401C28.5678 9.09214 29.1411 7.69923 29.1412 6.21713C29.1413 4.73462 28.5673 3.34193 27.5193 2.29319C27.1896 1.96325 27.1895 1.42873 27.5194 1.09895C27.8494 0.769094 28.3845 0.769094 28.7145 1.09898C30.081 2.4654 30.8308 4.28495 30.8309 6.21713C30.831 8.14888 30.0803 9.96889 28.7145 11.3353C28.5558 11.4941 28.3419 11.583 28.1173 11.5829ZM25.9438 9.69802C25.7194 9.698 25.5048 9.60891 25.3463 9.44999C25.0173 9.1201 25.017 8.58567 25.3466 8.25606C26.471 7.13172 26.4708 5.30265 25.3466 4.17823C25.0168 3.84834 25.0167 3.313 25.3466 2.98311C25.6765 2.6532 26.211 2.6532 26.5409 2.98311C28.3249 4.76703 28.3193 7.66344 26.5415 9.44971C26.3831 9.60889 26.1684 9.69805 25.9438 9.69802Z" fill="#C7FF50"/>
<path fill-rule="evenodd" clip-rule="evenodd" d="M37.2422 23.3359C37.7565 24.7016 38.0388 26.1801 38.0388 27.7235C38.0388 29.2659 37.7569 30.7435 37.243 32.1084C39.4747 31.8944 41.2264 30.0085 41.2264 27.7218C41.2266 25.4348 39.4743 23.5495 37.2422 23.3359Z" fill="#1AE3E3"/>
<path fill-rule="evenodd" clip-rule="evenodd" d="M25.0859 22.4844V26.6114H29.2122V22.4844H25.0859Z" fill="#C7FF50"/>
<path fill-rule="evenodd" clip-rule="evenodd" d="M12.7812 22.4844V26.6114H16.9082V22.4844H12.7812Z" fill="#C7FF50"/>
<path fill-rule="evenodd" clip-rule="evenodd" d="M4.75695 23.3359C2.52491 23.5493 0.773438 25.434 0.773438 27.721C0.773576 30.008 2.52489 31.8942 4.75695 32.1078C4.24082 30.7341 3.96101 29.2536 3.96101 27.7219C3.96104 26.1791 4.24301 24.7011 4.75695 23.3359Z" fill="#1AE3E3"/>
<path fill-rule="evenodd" clip-rule="evenodd" d="M15.8397 16.2422C9.77897 16.5561 4.94531 21.5857 4.94531 27.724C4.94542 32.9369 8.46089 37.5077 13.494 38.8386C13.6226 38.8719 13.7321 38.9568 13.7981 39.0724C13.8633 39.1879 13.8794 39.3259 13.8418 39.4535C13.5883 40.3227 13.0444 41.8035 12.0159 43.1463C13.3735 42.8466 15.7087 41.9636 18.1932 39.3721C18.2858 39.2753 18.4142 39.2205 18.5486 39.2205L25.5507 39.2205C31.89 39.2205 37.0472 34.0632 37.0472 27.724C37.0472 21.5835 32.2095 16.5526 26.1457 16.2419L26.1232 16.2409C25.9335 16.2316 25.7427 16.2266 25.5507 16.2266L16.4412 16.2266C16.2533 16.2266 16.0666 16.2314 15.8809 16.2404C15.8673 16.2416 15.8536 16.2422 15.8397 16.2422ZM24.0973 26.7545L24.0974 22.344C24.0974 21.879 24.4758 21.4996 24.9418 21.4996L29.3524 21.4995C29.8183 21.4995 30.1967 21.8781 30.1967 22.344L30.1968 26.7545C30.1968 27.2204 29.8182 27.5998 29.3524 27.5998H24.9418C24.4759 27.5998 24.0973 27.2204 24.0973 26.7545ZM17.05 21.4995C17.5158 21.4995 17.8952 21.8781 17.8952 22.344L17.8952 26.7545C17.8952 27.2204 17.5158 27.5998 17.05 27.5998H12.6403C12.1743 27.5998 11.7949 27.2204 11.7949 26.7545L11.7951 22.344C11.7951 21.879 12.1743 21.4996 12.6402 21.4996L17.05 21.4995ZM18.1684 33.4534L23.8242 33.4534C24.0965 33.4534 24.3174 33.6735 24.3174 33.9459C24.3175 34.219 24.0965 34.4392 23.8242 34.4391H18.1684C17.8962 34.4391 17.6751 34.2191 17.6751 33.9459C17.6751 33.6735 17.896 33.4534 18.1684 33.4534Z" fill="#1AE3E3"/>
<path fill-rule="evenodd" clip-rule="evenodd" d="M20.9958 12.3164C18.7615 12.3163 16.8854 13.788 16.4297 15.2395L16.4405 15.2393L25.5503 15.2393L25.5615 15.2394C25.1068 13.7883 23.2305 12.3164 20.9958 12.3164Z" fill="#C7FF50"/>
<path fill-rule="evenodd" clip-rule="evenodd" d="M20.9978 4.32812C19.9567 4.32812 19.1094 5.17548 19.1094 6.21652C19.1096 7.25753 19.9567 8.10488 20.9977 8.10488H20.9987C22.0394 8.10433 22.8861 7.25726 22.8861 6.21652C22.8863 5.17545 22.0388 4.32815 20.9978 4.32812Z" fill="#C7FF50"/>
</svg>
