<svg width="48" height="42" viewBox="0 0 48 42" fill="none" xmlns="http://www.w3.org/2000/svg">
<path d="M47.955 13.137L45.24 2.271C44.907 0.936 43.707 0 42.33 0H5.673C4.296 0 3.096 0.936 2.76 2.271L0.045 13.137C0.015 13.254 0 13.377 0 13.5C0 17.634 3.195 21 7.125 21C9.408 21 11.445 19.863 12.75 18.099C14.055 19.863 16.092 21 18.375 21C20.658 21 22.695 19.863 24 18.099C25.305 19.863 27.339 21 29.625 21C31.911 21 33.945 19.863 35.25 18.099C36.555 19.863 38.589 21 40.875 21C44.805 21 48 17.634 48 13.5C48 13.377 47.985 13.254 47.955 13.137Z" fill="#1AE3E3"/>
<path d="M40.875 23.9984C38.832 23.9984 36.891 23.3744 35.25 22.2344C31.968 24.5174 27.282 24.5174 24 22.2344C20.718 24.5174 16.032 24.5174 12.75 22.2344C11.109 23.3744 9.168 23.9984 7.125 23.9984C5.652 23.9984 4.263 23.6534 3 23.0654V38.9984C3 40.6544 4.344 41.9984 6 41.9984H18V29.9984H30V41.9984H42C43.656 41.9984 45 40.6544 45 38.9984V23.0654C43.737 23.6534 42.348 23.9984 40.875 23.9984Z" fill="#C7FF50"/>
</svg>
