<svg width="48" height="48" viewBox="0 0 48 48" fill="none" xmlns="http://www.w3.org/2000/svg">
<g clip-path="url(#clip0_4309_16627)">
<path d="M33.7716 43.3366C33.5802 42.7623 33.0428 42.375 32.4375 42.375H30.0937V38.4375H17.9062V42.375H15.5625C14.9572 42.375 14.4198 42.7623 14.2284 43.3366L13.2909 46.1491C13.1124 46.6848 13.269 47.2868 13.7172 47.6684C13.9777 47.8901 14.3154 48.0001 14.6575 48.0001H33.3424C33.6845 48.0001 34.0223 47.8901 34.2828 47.6684C34.731 47.2868 34.8876 46.6849 34.709 46.1491L33.7716 43.3366Z" fill="#C7FF50"/>
<path d="M14.8438 17.8125H24.7256L26.0381 11.25H13.5312L14.8438 17.8125Z" fill="#1AE3E3"/>
<path d="M43.6875 0H4.3125C1.98628 0 0.09375 1.89253 0.09375 4.21875V26.25H47.9062V4.21875C47.9062 1.89253 46.0137 0 43.6875 0ZM29.129 10.1196L27.254 19.4946C27.1225 20.1518 26.5453 20.625 25.875 20.625H25.4062V22.0312C25.4062 22.8079 24.7766 23.4375 24 23.4375C23.2234 23.4375 22.5938 22.8079 22.5938 22.0312V20.625H16.9688V22.0312C16.9688 22.8079 16.3391 23.4375 15.5625 23.4375C14.7859 23.4375 14.1562 22.8079 14.1562 22.0312V20.625H13.6875C13.0172 20.625 12.44 20.1518 12.3085 19.4946L10.0972 8.4375H7.125C6.34837 8.4375 5.71875 7.80788 5.71875 7.03125C5.71875 6.25462 6.34837 5.625 7.125 5.625H11.25C11.9203 5.625 12.4975 6.09816 12.629 6.75544L12.9653 8.4375H27.75C28.1713 8.4375 28.5704 8.62641 28.8376 8.95219C29.1046 9.27797 29.2116 9.70641 29.129 10.1196ZM40.875 21.5625H33.375C32.5984 21.5625 31.9688 20.9329 31.9688 20.1562C31.9688 19.3796 32.5984 18.75 33.375 18.75H40.875C41.6516 18.75 42.2812 19.3796 42.2812 20.1562C42.2812 20.9329 41.6516 21.5625 40.875 21.5625ZM40.875 15.9375H33.375C32.5984 15.9375 31.9688 15.3079 31.9688 14.5312C31.9688 13.7546 32.5984 13.125 33.375 13.125H40.875C41.6516 13.125 42.2812 13.7546 42.2812 14.5312C42.2812 15.3079 41.6516 15.9375 40.875 15.9375ZM40.875 10.3125H33.375C32.5984 10.3125 31.9688 9.68287 31.9688 8.90625C31.9688 8.12963 32.5984 7.5 33.375 7.5H40.875C41.6516 7.5 42.2812 8.12963 42.2812 8.90625C42.2812 9.68287 41.6516 10.3125 40.875 10.3125Z" fill="#1AE3E3"/>
<path d="M0.09375 31.4062C0.09375 33.7325 1.98628 35.625 4.3125 35.625H43.6875C46.0137 35.625 47.9062 33.7325 47.9062 31.4062V29.0625H0.09375V31.4062Z" fill="#C7FF50"/>
</g>
<defs>
<clipPath id="clip0_4309_16627">
<rect width="48" height="48" fill="white"/>
</clipPath>
</defs>
</svg>
