<svg width="28" height="48" viewBox="0 0 28 48" fill="none" xmlns="http://www.w3.org/2000/svg">
<path d="M24.0209 0H3.97419C2.20072 0 0.757812 1.44291 0.757812 3.21638V44.7818C0.757812 46.5553 2.20072 47.9982 3.97419 47.9982H24.0209C25.7944 47.9982 27.2373 46.5553 27.2373 44.7818V3.21638C27.2373 1.443 25.7944 0 24.0209 0ZM3.97419 1.48453H24.0209C24.9758 1.48453 25.7529 2.26153 25.7529 3.21647V39.5367H2.24225V3.21638C2.24225 2.26153 3.01934 1.48453 3.97419 1.48453ZM12.6293 43.3964C12.6293 42.6393 13.2379 42.0257 14 42.0257C14.7571 42.0257 15.3657 42.6393 15.3657 43.3964C15.3657 44.1534 14.7571 44.767 14 44.767C13.2379 44.767 12.6293 44.1534 12.6293 43.3964Z" fill="#1AE3E3"/>
<path d="M17.4046 5.44147H10.586C10.1759 5.44147 9.84375 5.10922 9.84375 4.69925C9.84375 4.28928 10.176 3.95703 10.586 3.95703H17.4046C17.8147 3.95703 18.1468 4.28928 18.1468 4.69925C18.1468 5.10922 17.8147 5.44147 17.4046 5.44147Z" fill="#1AE3E3"/>
<path d="M13.9939 14.418C10.4609 14.418 7.58594 17.2929 7.58594 20.826C7.58594 24.359 10.4609 27.234 13.9939 27.234C17.527 27.234 20.4019 24.359 20.4019 20.826C20.4019 17.2929 17.527 14.418 13.9939 14.418ZM16.5783 19.8798L13.6359 22.8221C13.3459 23.1121 12.8762 23.1121 12.5864 22.8221L11.4097 21.6456C11.1198 21.3559 11.1198 20.886 11.4097 20.5961C11.6992 20.3061 12.1694 20.3061 12.4593 20.5961L13.1111 21.2477L15.5287 18.8301C15.8187 18.5402 16.2884 18.5402 16.5783 18.8301C16.8682 19.1198 16.8682 19.5901 16.5783 19.8798Z" fill="#C7FF50"/>
</svg>
