<svg width="38" height="38" viewBox="0 0 38 38" fill="none" xmlns="http://www.w3.org/2000/svg">
<g clip-path="url(#clip0_4255_17104)">
<path d="M1.05568 24.3125H5.27765C5.86058 24.3125 6.33333 24.7849 6.33333 25.3678V35.9235C6.33333 36.5064 5.86058 36.9792 5.27765 36.9792H1.05568C0.472758 36.9792 0 36.5064 0 35.9235V25.3678C0 24.7849 0.472758 24.3125 1.05568 24.3125Z" fill="#26B5B5"/>
<path d="M11.61 15.8672H15.8323C16.4153 15.8672 16.888 16.3399 16.888 16.9229V35.9229C16.888 36.5058 16.4153 36.9786 15.8323 36.9786H11.61C11.0271 36.9786 10.5547 36.5058 10.5547 35.9229V16.9229C10.5547 16.3399 11.0271 15.8672 11.61 15.8672Z" fill="#26B5B5"/>
<path d="M22.1651 20.0898H26.3874C26.9703 20.0898 27.4427 20.5626 27.4427 21.1455V35.9232C27.4427 36.5061 26.9703 36.9789 26.3874 36.9789H22.1651C21.5821 36.9789 21.1094 36.5061 21.1094 35.9232V21.1455C21.1094 20.5626 21.5821 20.0898 22.1651 20.0898Z" fill="#26B5B5"/>
<path d="M32.7276 13.7539H36.9495C37.5325 13.7539 38.0052 14.2267 38.0052 14.8096V35.9206C38.0052 36.5035 37.5325 36.9763 36.9495 36.9763H32.7276C32.1446 36.9763 31.6719 36.5035 31.6719 35.9206V14.8096C31.6719 14.2267 32.1446 13.7539 32.7276 13.7539Z" fill="#26B5B5"/>
<path d="M34.8333 1.08984C33.0853 1.09178 31.6686 2.5085 31.6667 4.25651C31.6709 4.60132 31.732 4.94303 31.8476 5.26774L26.5634 8.4089C25.8699 7.67328 24.8644 7.31687 23.8625 7.45101C22.8601 7.58514 21.9842 8.19358 21.5084 9.08576L16.8477 6.77724C16.8705 6.64156 16.884 6.50472 16.889 6.36749C16.8913 5.08567 16.1209 3.9291 14.9373 3.43701C13.7537 2.94531 12.3903 3.21552 11.4838 4.1216C10.5769 5.02769 10.306 6.39069 10.7973 7.57471L4.75155 12.0866C4.27222 11.8009 3.72485 11.6486 3.16667 11.6455C1.41789 11.6455 0 13.063 0 14.8122C0 16.561 1.41789 17.9789 3.16667 17.9789C4.91545 17.9789 6.33333 16.561 6.33333 14.8122C6.33063 14.4311 6.25873 14.0542 6.12111 13.6989L12.2272 9.14181C13.4216 9.80784 14.9114 9.61263 15.8936 8.66093L21.1937 11.286C21.547 12.8597 23.0279 13.9158 24.631 13.7372C26.234 13.5586 27.4462 12.2029 27.4443 10.5898C27.4443 10.5094 27.4265 10.4337 27.4207 10.3548L33.1681 6.93805C33.6663 7.25309 34.2435 7.42125 34.8333 7.42318C36.5821 7.42318 38 6.00529 38 4.25651C38 2.50773 36.5821 1.08984 34.8333 1.08984Z" fill="#26B5B5"/>
</g>
<defs>
<clipPath id="clip0_4255_17104">
<rect width="38" height="38" fill="white"/>
</clipPath>
</defs>
</svg>
