<svg width="40" height="40" viewBox="0 0 40 40" fill="none" xmlns="http://www.w3.org/2000/svg">
<path d="M40 32.5443V15.8027C40 15.1555 39.4753 14.6308 38.8281 14.6308H25.6956C25.0484 14.6308 24.5238 15.1555 24.5238 15.8027V27.0169H21.1996V13.7354C21.1996 13.0882 20.6749 12.5635 20.0277 12.5635H15.4762V1.17188C15.4762 0.524687 14.9515 0 14.3043 0H1.17188C0.524687 0 0 0.524687 0 1.17188V17.9134H15.4762V14.9073H18.8559V28.1888C18.8559 28.836 19.3805 29.3607 20.0277 29.3607H24.5238V32.5443H40ZM9.38844 14.7298H6.08766C5.44047 14.7298 4.91578 14.2052 4.91578 13.558C4.91578 12.9108 5.44047 12.3861 6.08766 12.3861H9.38844C10.0356 12.3861 10.5603 12.9108 10.5603 13.558C10.5603 14.2052 10.0357 14.7298 9.38844 14.7298ZM9.38844 7.87109H6.08766C5.44047 7.87109 4.91578 7.34641 4.91578 6.69922C4.91578 6.05203 5.44047 5.52734 6.08766 5.52734H9.38844C10.0356 5.52734 10.5603 6.05203 10.5603 6.69922C10.5603 7.34641 10.0357 7.87109 9.38844 7.87109ZM33.9123 29.3607H30.6115C29.9643 29.3607 29.4396 28.836 29.4396 28.1888C29.4396 27.5416 29.9643 27.017 30.6115 27.017H33.9123C34.5595 27.017 35.0841 27.5416 35.0841 28.1888C35.0841 28.836 34.5595 29.3607 33.9123 29.3607ZM33.9123 22.5019H30.6115C29.9643 22.5019 29.4396 21.9772 29.4396 21.33C29.4396 20.6828 29.9643 20.1581 30.6115 20.1581H33.9123C34.5595 20.1581 35.0841 20.6828 35.0841 21.33C35.0841 21.9772 34.5595 22.5019 33.9123 22.5019Z" fill="#26B5B5"/>
<path d="M24.5234 34.8867V38.8268C24.5234 39.474 25.0481 39.9987 25.6953 39.9987H38.8278C39.475 39.9987 39.9997 39.474 39.9997 38.8268V34.8867H24.5234Z" fill="#26B5B5"/>
<path d="M0 20.2578V24.1979C0 24.8451 0.524687 25.3698 1.17188 25.3698H14.3043C14.9515 25.3698 15.4762 24.8451 15.4762 24.1979V20.2578H0Z" fill="#26B5B5"/>
</svg>
