<svg width="40" height="40" viewBox="0 0 40 40" fill="none" xmlns="http://www.w3.org/2000/svg">
<path d="M40 9V3.375C40 1.51403 38.4229 0 36.4844 0H3.51562C1.57711 0 0 1.51403 0 3.375V9H40ZM27.0312 4.5H34.0625C34.7097 4.5 35.2344 5.0037 35.2344 5.625C35.2344 6.2463 34.7097 6.75 34.0625 6.75H27.0312C26.3841 6.75 25.8594 6.2463 25.8594 5.625C25.8594 5.0037 26.3841 4.5 27.0312 4.5ZM15.3125 4.5C15.9597 4.5 16.4844 5.0037 16.4844 5.625C16.4844 6.2463 15.9597 6.75 15.3125 6.75C14.6653 6.75 14.1406 6.2463 14.1406 5.625C14.1406 5.0037 14.6653 4.5 15.3125 4.5ZM10.625 4.5C11.2722 4.5 11.7969 5.0037 11.7969 5.625C11.7969 6.2463 11.2722 6.75 10.625 6.75C9.97781 6.75 9.45312 6.2463 9.45312 5.625C9.45312 5.0037 9.97781 4.5 10.625 4.5ZM5.9375 4.5C6.58469 4.5 7.10938 5.0037 7.10938 5.625C7.10938 6.2463 6.58469 6.75 5.9375 6.75C5.29031 6.75 4.76562 6.2463 4.76562 5.625C4.76562 5.0037 5.29031 4.5 5.9375 4.5Z" fill="#26B5B5"/>
<path d="M0 12V36.5C0 38.4299 1.57711 40 3.51562 40H36.4844C38.4229 40 40 38.4299 40 36.5V12H0ZM13.7008 28.589C14.2062 28.9915 14.2881 29.7256 13.8838 30.2288C13.4796 30.7318 12.742 30.8135 12.2367 30.4109L6.37734 25.7443C5.79148 25.2778 5.79109 24.3891 6.37734 23.9222L12.2367 19.2556C12.7419 18.8531 13.4795 18.9346 13.8838 19.4377C14.2881 19.9409 14.2062 20.6751 13.7008 21.0775L8.98531 24.8333L13.7008 28.589ZM24.5927 17.1263L17.5615 33.4596C17.3066 34.0517 16.6178 34.3263 16.0227 34.0723C15.4279 33.8185 15.1523 33.1326 15.4073 32.5404L22.4385 16.2071C22.6935 15.6149 23.3824 15.3406 23.9773 15.5943C24.5721 15.8481 24.8477 16.534 24.5927 17.1263ZM33.6227 25.7443L27.7633 30.411C27.2587 30.813 26.5211 30.7327 26.1162 30.2289C25.7119 29.7257 25.7938 28.9915 26.2992 28.5891L31.0147 24.8333L26.2992 21.0777C25.7938 20.6752 25.7119 19.941 26.1162 19.4379C26.5204 18.9347 27.2579 18.8532 27.7633 19.2557L33.6227 23.9224C34.2085 24.3888 34.2089 25.2775 33.6227 25.7443Z" fill="#26B5B5"/>
</svg>
