<svg width="32" height="40" viewBox="0 0 32 40" fill="none" xmlns="http://www.w3.org/2000/svg">
<path d="M26.4166 3.98486H23.2166V3.83994C23.2166 2.16143 21.8559 0.800781 20.1774 0.800781H12.2077C10.5293 0.800781 9.16855 2.16143 9.16855 3.83994V3.98486H5.58457C2.84863 3.98486 0.640625 6.19287 0.640625 8.91279V34.2729C0.640625 36.9929 2.84863 39.2008 5.58457 39.2008H26.4166C29.1366 39.2008 31.3605 36.9929 31.3605 34.2729V8.91279C31.3605 6.19287 29.1366 3.98486 26.4166 3.98486ZM12.4326 30.9608L9.69658 33.6968C9.09042 34.3029 8.05809 34.3303 7.42461 33.6968L6.04863 32.3208C5.42461 31.6968 5.42461 30.6889 6.04863 30.0648C6.67256 29.4408 7.69658 29.4408 8.3206 30.0648L8.56055 30.3048L10.1766 28.6889C10.8006 28.0648 11.8086 28.0648 12.4326 28.6889C13.0565 29.3128 13.0565 30.3368 12.4326 30.9608ZM12.4326 22.4648L9.69658 25.2168C9.05984 25.8217 8.08993 25.8488 7.42461 25.2168L6.04863 23.8408C5.42461 23.2168 5.42461 22.2088 6.04863 21.5849C6.67256 20.9448 7.69658 20.9608 8.3206 21.5688L8.56055 21.8248L10.1766 20.2088C10.8006 19.5849 11.8086 19.5849 12.4326 20.2088C13.0565 20.8328 13.0565 21.8408 12.4326 22.4648ZM12.4326 13.4088L9.69658 16.1608C9.05863 16.7669 8.08861 16.7916 7.42461 16.1608L6.04863 14.7849C5.42461 14.1608 5.42461 13.1528 6.04863 12.5288C6.67256 11.8889 7.69658 11.8889 8.3206 12.5128L8.56055 12.7688L10.1766 11.1528C10.8006 10.5288 11.8086 10.5288 12.4326 11.1528C13.0565 11.7769 13.0565 12.7849 12.4326 13.4088ZM24.8006 32.8008H18.5605C17.6806 32.8008 16.9605 32.0809 16.9605 31.2008C16.9605 30.3048 17.6806 29.6008 18.5605 29.6008H24.8006C25.6966 29.6008 26.4006 30.3048 26.4006 31.2008C26.4006 32.0809 25.6966 32.8008 24.8006 32.8008ZM24.8006 24.3048H18.5605C17.6806 24.3048 16.9605 23.5849 16.9605 22.7048C16.9605 21.8248 17.6806 21.1048 18.5605 21.1048H24.8006C25.6966 21.1048 26.4006 21.8248 26.4006 22.7048C26.4006 23.5849 25.6966 24.3048 24.8006 24.3048ZM24.8006 15.2488H18.5605C17.6806 15.2488 16.9605 14.5288 16.9605 13.6488C16.9605 12.7688 17.6806 12.0488 18.5605 12.0488H24.8006C25.6966 12.0488 26.4006 12.7688 26.4006 13.6488C26.4006 14.5288 25.6966 15.2488 24.8006 15.2488Z" fill="#26B5B5"/>
</svg>
