<svg width="42" height="48" viewBox="0 0 42 48" fill="none" xmlns="http://www.w3.org/2000/svg">
<path d="M34.8349 1.34859C34.3538 0.51675 33.4581 0 32.4978 0H22.4609V11.8722H40.9215L34.8349 1.34859Z" fill="#26B5B5"/>
<path d="M19.6441 0H9.51256C8.55031 0 7.65472 0.517688 7.17359 1.35141L1.10938 11.8722H19.644V0H19.6441Z" fill="#26B5B5"/>
<path d="M0.101562 14.6875V44.694C0.101562 46.5181 1.58619 48.0017 3.41028 48.0017H38.5947C40.4187 48.0017 41.9034 46.5181 41.9034 44.694V14.6875H0.101562ZM27.3882 27.3062L20.1124 34.5821C19.8376 34.8569 19.4774 34.9948 19.1173 34.9948C18.7572 34.9948 18.3971 34.8569 18.1232 34.5821L14.7123 31.172C14.1637 30.6234 14.1637 29.7324 14.7123 29.1828C15.2619 28.6333 16.1529 28.6333 16.7024 29.1828L19.1174 31.5988L25.3992 25.3171C25.9487 24.7675 26.8397 24.7675 27.3883 25.3171C27.9379 25.8666 27.9379 26.7567 27.3882 27.3062Z" fill="#26B5B5"/>
</svg>
