<svg width="48" height="42" viewBox="0 0 48 42" fill="none" xmlns="http://www.w3.org/2000/svg">
<path d="M21 12V9H3C1.347 9 0 10.347 0 12V18H21.633C21.216 16.167 21 14.193 21 12Z" fill="#26B5B5"/>
<path d="M47.877 24C45.831 27.153 42.711 29.835 38.241 32.403C37.554 32.796 36.78 33 36 33C35.22 33 34.446 32.796 33.768 32.409C29.298 29.835 26.178 27.15 24.129 24H0V39C0 40.656 1.347 42 3 42H45C46.656 42 48 40.656 48 39V24H47.877ZM13.5 33H7.5C6.672 33 6 32.328 6 31.5C6 30.672 6.672 30 7.5 30H13.5C14.328 30 15 30.672 15 31.5C15 32.328 14.328 33 13.5 33Z" fill="#26B5B5"/>
<path d="M47.091 4.6215L36.591 0.1215C36.21 -0.0405 35.787 -0.0405 35.406 0.1215L24.906 4.6215C24.357 4.8555 24 5.3985 24 5.9985V11.9985C24 20.2515 27.051 25.0755 35.253 29.8005C35.484 29.9325 35.742 29.9985 36 29.9985C36.258 29.9985 36.516 29.9325 36.747 29.8005C44.949 25.0875 48 20.2635 48 11.9985V5.9985C48 5.3985 47.643 4.8555 47.091 4.6215ZM41.673 11.4375L35.673 18.9375C35.385 19.2915 34.953 19.4985 34.5 19.4985C34.479 19.4985 34.455 19.4985 34.437 19.4985C33.96 19.4775 33.519 19.2315 33.252 18.8325L30.252 14.3325C29.793 13.6425 29.979 12.7125 30.669 12.2535C31.353 11.7975 32.286 11.9775 32.748 12.6705L34.611 15.4635L39.327 9.5655C39.846 8.9205 40.791 8.8185 41.436 9.3315C42.084 9.8445 42.186 10.7895 41.673 11.4375Z" fill="#26B5B5"/>
</svg>
