<svg width="48" height="48" viewBox="0 0 48 48" fill="none" xmlns="http://www.w3.org/2000/svg">
<path d="M2.8125 24C2.8125 12.3172 12.3172 2.8125 24 2.8125C28.3938 2.8125 32.584 4.14478 36.1121 6.61753H33.3864C32.6098 6.61753 31.9802 7.24716 31.9802 8.02378C31.9802 8.80041 32.6098 9.43003 33.3864 9.43003H39.9763C40.7529 9.43003 41.3826 8.80041 41.3826 8.02378V1.43391C41.3826 0.657281 40.7529 0.0276562 39.9763 0.0276562C39.1997 0.0276562 38.5701 0.657281 38.5701 1.43391V4.93444C34.405 1.73428 29.3353 0 24 0C17.5894 0 11.5625 2.49647 7.02937 7.02938C2.49647 11.5625 0 17.5894 0 24C0 28.2113 1.11291 32.3608 3.21844 35.9998C3.47906 36.4504 3.95137 36.702 4.43691 36.702C4.67597 36.702 4.91822 36.641 5.13994 36.5127C5.81212 36.1237 6.04172 35.2635 5.65284 34.5912C3.79472 31.3798 2.8125 27.7174 2.8125 24Z" fill="#26B5B5"/>
<path d="M44.7812 11.999C44.3922 11.3267 43.5317 11.0972 42.8597 11.4862C42.1875 11.8752 41.9579 12.7354 42.3468 13.4077C44.2049 16.6189 45.1872 20.2813 45.1872 23.9988C45.1872 35.6817 35.6825 45.1863 23.9997 45.1863C19.6062 45.1863 15.4167 43.8537 11.889 41.3813H14.6132C15.3898 41.3813 16.0195 40.7517 16.0195 39.9751C16.0195 39.1984 15.3898 38.5688 14.6132 38.5688H8.02344C7.24681 38.5688 6.61719 39.1984 6.61719 39.9751V46.5649C6.61719 47.3416 7.24681 47.9712 8.02344 47.9712C8.80006 47.9712 9.42969 47.3416 9.42969 46.5649V43.0609C13.5946 46.2621 18.6637 47.9988 23.9997 47.9988C30.4103 47.9988 36.4372 45.5024 40.9703 40.9695C45.5032 36.4364 47.9997 30.4095 47.9997 23.9988C47.9997 19.7873 46.8867 15.6378 44.7812 11.999Z" fill="#26B5B5"/>
<path d="M36.0394 20.3628C36.136 20.0025 36.0854 19.6187 35.8989 19.2957L34.0239 16.0481C33.6356 15.3756 32.7756 15.1451 32.1029 15.5334L30.8278 16.2697C29.7915 15.3514 28.5913 14.6577 27.282 14.2207V12.75C27.282 11.9734 26.6524 11.3438 25.8758 11.3438H22.1258C21.3492 11.3438 20.7195 11.9734 20.7195 12.75V14.2206C19.4103 14.6576 18.2099 15.3513 17.1737 16.2696L15.8986 15.5333C15.2261 15.1448 14.3659 15.3754 13.9777 16.048L12.1027 19.2956C11.7144 19.9682 11.9448 20.8282 12.6174 21.2166L13.8922 21.9526C13.7566 22.6241 13.6882 23.3092 13.6882 23.9999C13.6882 24.6907 13.7565 25.3758 13.8922 26.0472L12.6174 26.7832C11.9448 27.1716 11.7144 28.0316 12.1027 28.7042L13.9777 31.9518C14.366 32.6244 15.226 32.8549 15.8986 32.4665L17.1737 31.7302C18.2099 32.6486 19.4102 33.3422 20.7195 33.7793V35.25C20.7195 36.0266 21.3492 36.6562 22.1258 36.6562H25.8758C26.6524 36.6562 27.282 36.0266 27.282 35.25V33.7794C28.5913 33.3424 29.7915 32.6487 30.8278 31.7304L32.1029 32.4667C32.7755 32.855 33.6356 32.6244 34.0239 31.952L35.8989 28.7044C36.0854 28.3814 36.1359 27.9975 36.0394 27.6373C35.9429 27.277 35.7073 26.9699 35.3842 26.7834L34.1093 26.0473C34.2449 25.3759 34.3132 24.6908 34.3132 24C34.3132 23.3092 34.2449 22.6241 34.1093 21.9527L35.3842 21.2166C35.7072 21.0302 35.9429 20.723 36.0394 20.3628ZM24.0007 27.75C21.9297 27.75 20.2507 26.071 20.2507 24C20.2507 21.929 21.9297 20.25 24.0007 20.25C26.0717 20.25 27.7507 21.929 27.7507 24C27.7507 26.071 26.0717 27.75 24.0007 27.75Z" fill="#26B5B5"/>
</svg>
