<svg width="46" height="46" viewBox="0 0 46 46" fill="none" xmlns="http://www.w3.org/2000/svg">
<path d="M18 20C23.5228 20 28 15.5228 28 10C28 4.47715 23.5228 0 18 0C12.4772 0 8 4.47715 8 10C8 15.5228 12.4772 20 18 20Z" fill="#26B5B5"/>
<path d="M23.068 41.6C22.026 39.796 22.234 37.574 23.474 36C22.234 34.426 22.026 32.206 23.068 30.4L24.686 27.6C25.576 26.058 27.236 25.1 29.018 25.1C29.262 25.1 29.502 25.118 29.74 25.152C29.806 24.988 29.89 24.834 29.972 24.678C28.892 24.252 27.726 24 26.5 24H9.5C4.262 24 0 28.262 0 33.5V40.5C0 41.328 0.672 42 1.5 42H23.298L23.068 41.6Z" fill="#26B5B5"/>
<path d="M43.4065 36.938C43.4465 36.628 43.5005 36.32 43.5005 36C43.5005 35.678 43.4445 35.372 43.4065 35.062L45.2085 33.698C45.6105 33.394 45.7225 32.838 45.4705 32.4L43.8525 29.6C43.6005 29.164 43.0625 28.982 42.5985 29.178L40.5245 30.052C40.0185 29.666 39.4805 29.326 38.8865 29.078L38.6105 26.876C38.5465 26.376 38.1225 26 37.6185 26H34.3845C33.8805 26 33.4545 26.376 33.3925 26.876L33.1165 29.078C32.5225 29.326 31.9825 29.668 31.4785 30.052L29.4045 29.178C28.9405 28.982 28.4025 29.162 28.1505 29.6L26.5325 32.4C26.2805 32.836 26.3925 33.392 26.7945 33.698L28.5965 35.062C28.5565 35.372 28.5025 35.68 28.5025 36C28.5025 36.322 28.5585 36.628 28.5965 36.938L26.7945 38.302C26.3925 38.606 26.2805 39.162 26.5325 39.6L28.1505 42.402C28.4025 42.838 28.9405 43.02 29.4045 42.824L31.4785 41.948C31.9845 42.334 32.5225 42.674 33.1165 42.922L33.3925 45.124C33.4545 45.624 33.8785 46 34.3825 46H37.6165C38.1205 46 38.5465 45.624 38.6085 45.124L38.8845 42.922C39.4785 42.674 40.0185 42.332 40.5225 41.948L42.5965 42.822C43.0605 43.018 43.5985 42.838 43.8505 42.4L45.4685 39.598C45.7205 39.162 45.6085 38.606 45.2065 38.3L43.4065 36.938ZM36.0005 40C33.7905 40 32.0005 38.21 32.0005 36C32.0005 33.79 33.7905 32 36.0005 32C38.2105 32 40.0005 33.79 40.0005 36C40.0005 38.21 38.2105 40 36.0005 40Z" fill="#26B5B5"/>
</svg>
