<svg width="465" height="460" viewBox="0 0 465 460" fill="none" xmlns="http://www.w3.org/2000/svg">
<path d="M234.886 459.772C361.848 459.772 464.772 356.848 464.772 229.886C464.772 102.923 361.848 0 234.886 0C107.923 0 5 102.923 5 229.886C5 356.848 107.923 459.772 234.886 459.772Z" fill="#04617E"/>
<path d="M458.787 220.184H451.586C450.921 216.694 450.035 213.259 448.872 209.991L455.076 206.39L442.889 185.285L436.63 188.886C434.359 186.227 431.866 183.679 429.152 181.408L432.752 175.148L411.647 162.961L408.046 169.166C404.778 168.002 401.344 167.061 397.854 166.451V159.25H373.48V166.451C369.991 167.116 366.556 168.002 363.288 169.166L359.687 162.961L338.582 175.148L342.183 181.408C339.524 183.679 336.976 186.172 334.705 188.886L328.445 185.285L316.258 206.39L322.462 209.991C321.299 213.259 320.357 216.694 319.748 220.184H312.547V244.557H319.748C320.413 248.047 321.299 251.481 322.462 254.75L316.258 258.35L328.445 279.455L334.705 275.855C336.976 278.514 339.468 281.062 342.183 283.333L338.582 289.592L359.687 301.779L363.288 295.575C366.556 296.738 369.991 297.68 373.48 298.289V305.491H397.854V298.289C401.344 297.625 404.778 296.738 408.046 295.575L411.647 301.779L432.752 289.592L429.152 283.333C431.811 281.062 434.359 278.569 436.63 275.855L442.889 279.455L455.076 258.35L448.872 254.75C450.035 251.481 450.977 248.047 451.586 244.557H458.787V220.184ZM428.985 250.429C424.609 262.062 415.358 271.257 403.726 275.689C364.285 290.59 327.448 253.808 342.404 214.367C346.78 202.734 356.031 193.539 367.664 189.107C407.105 174.151 443.942 210.988 428.985 250.429Z" fill="#005A76"/>
<path d="M385.734 286.21C356.042 286.21 331.891 262.059 331.891 232.367C331.891 219.405 336.544 206.886 345.074 197.081C353.494 187.387 365.072 181.017 377.702 179.134C377.979 179.078 378.311 179.3 378.311 179.577C378.366 179.854 378.145 180.186 377.868 180.186C352.331 184.008 333.054 206.443 333.054 232.312C333.054 261.394 356.707 285.047 385.789 285.047C409.83 285.047 430.825 268.817 436.807 245.607C436.863 245.33 437.195 245.108 437.472 245.219C437.749 245.274 437.971 245.607 437.86 245.884C431.711 269.648 410.273 286.21 385.734 286.21Z" fill="#006584"/>
<path d="M332.322 13.1836V18.8892C332.322 21.8805 329.884 24.3178 326.893 24.3178H255.047C252.056 24.3178 249.618 21.8805 249.618 18.8892V13.1836H194.612C191.122 13.1836 188.297 16.0087 188.297 19.4985V360.228C188.297 362.555 190.18 364.383 192.451 364.383H387.273C390.763 364.383 393.588 361.558 393.588 358.068V19.4985C393.588 16.0087 390.763 13.1836 387.273 13.1836H332.322Z" fill="#006584"/>
<path d="M353.212 62.4231C353.212 72.3387 345.125 80.4262 335.209 80.4262H246.8C236.884 80.4262 228.797 72.3387 228.797 62.4231V61.0383C228.797 51.1227 236.884 43.0352 246.8 43.0352H335.209C345.125 43.0352 353.212 51.1227 353.212 61.0383V62.4231Z" fill="#005D7A"/>
<path d="M236.048 287.698C237.527 281.435 233.648 275.158 227.385 273.679C221.121 272.2 214.844 276.079 213.365 282.342C211.886 288.606 215.765 294.883 222.029 296.362C228.292 297.841 234.569 293.962 236.048 287.698Z" fill="#005A76"/>
<path d="M224.113 288.864C223.786 288.864 223.475 288.722 223.257 288.472L221.28 286.162C221.083 285.933 221.111 285.59 221.339 285.393C221.568 285.197 221.911 285.225 222.108 285.453L224.085 287.763L224.145 287.758L227.757 281.095C227.899 280.828 228.231 280.73 228.498 280.877C228.765 281.019 228.863 281.351 228.716 281.618L225.104 288.281C224.93 288.608 224.603 288.826 224.232 288.864C224.189 288.864 224.151 288.864 224.113 288.864Z" fill="#C7FF50"/>
<path d="M325.967 283H244.033C243.465 283 243 282.775 243 282.5C243 282.225 243.465 282 244.033 282H325.967C326.535 282 327 282.225 327 282.5C327 282.775 326.535 283 325.967 283Z" fill="#005A76"/>
<path d="M296.698 287H244.302C243.586 287 243 286.775 243 286.5C243 286.225 243.586 286 244.302 286H296.698C297.414 286 298 286.225 298 286.5C298 286.78 297.414 287 296.698 287Z" fill="#005A76"/>
<path d="M236.048 321.898C237.527 315.634 233.648 309.357 227.385 307.878C221.121 306.399 214.844 310.278 213.365 316.542C211.886 322.805 215.765 329.082 222.029 330.561C228.292 332.04 234.569 328.161 236.048 321.898Z" fill="#005A76"/>
<path d="M224.113 323.059C223.786 323.059 223.475 322.918 223.257 322.667L221.28 320.357C221.083 320.128 221.111 319.785 221.339 319.589C221.568 319.393 221.911 319.42 222.108 319.649L224.085 321.959L224.145 321.953L227.757 315.29C227.899 315.023 228.231 314.925 228.498 315.072C228.765 315.214 228.863 315.546 228.716 315.813L225.104 322.476C224.93 322.803 224.603 323.021 224.232 323.059C224.189 323.059 224.151 323.059 224.113 323.059Z" fill="#C7FF50"/>
<path d="M325.967 317H244.033C243.465 317 243 316.775 243 316.5C243 316.225 243.465 316 244.033 316H325.967C326.535 316 327 316.225 327 316.5C327 316.775 326.535 317 325.967 317Z" fill="#005A76"/>
<path d="M296.698 322H244.302C243.586 322 243 321.775 243 321.5C243 321.225 243.586 321 244.302 321H296.698C297.414 321 298 321.225 298 321.5C298 321.775 297.414 322 296.698 322Z" fill="#005A76"/>
<g clip-path="url(#clip0_4469_14733)">
<path d="M374.475 118.085C384.393 121.928 395.54 117.027 399.372 107.139C403.203 97.2505 398.269 86.1187 388.35 82.2754C378.431 78.432 367.285 83.3326 363.453 93.221C359.621 103.11 364.556 114.241 374.475 118.085Z" fill="#1AE3E3"/>
<path d="M414.989 134.952C414.948 134.936 414.912 134.915 414.878 134.884L396.882 117.915C396.816 117.853 396.78 117.767 396.775 117.678C396.774 117.587 396.807 117.502 396.869 117.436L400.819 113.303C400.947 113.168 401.159 113.163 401.294 113.292L419.271 130.243C419.338 130.305 419.374 130.388 419.375 130.478C419.378 130.566 419.344 130.654 419.282 130.721L415.35 134.872C415.259 134.974 415.112 135 414.989 134.952ZM397.594 117.659L415.099 134.163L418.564 130.504L401.078 114.018L397.594 117.659Z" fill="#044356"/>
<path d="M374.351 118.398C364.273 114.493 359.243 103.145 363.136 93.098C367.029 83.0514 378.392 78.055 388.47 81.96C398.548 85.865 403.578 97.2136 399.685 107.26C395.792 117.307 384.429 122.303 374.351 118.398ZM388.226 82.5889C378.498 78.8194 367.524 83.6447 363.766 93.3422C360.007 103.043 364.866 114 374.595 117.769C384.323 121.539 395.297 116.713 399.055 107.016C402.812 97.3184 397.954 86.3584 388.226 82.5889Z" fill="#044356"/>
<path d="M387.612 114.759C387.53 114.728 387.464 114.666 387.424 114.581C387.348 114.411 387.425 114.213 387.596 114.138C390.598 112.817 393.044 110.629 394.664 107.803C394.756 107.64 394.962 107.586 395.126 107.678C395.289 107.77 395.344 107.976 395.252 108.139C393.558 111.089 391.003 113.379 387.867 114.757C387.784 114.793 387.694 114.791 387.612 114.759Z" fill="#00516A"/>
<path d="M396.549 103.869C396.395 103.809 396.305 103.648 396.341 103.481C397.954 96.2032 393.902 88.673 386.915 85.9658C386.742 85.8987 386.655 85.7022 386.722 85.5293C386.789 85.3563 386.986 85.2698 387.159 85.337C394.451 88.1625 398.682 96.0261 397.001 103.628C396.96 103.811 396.781 103.926 396.598 103.884C396.581 103.881 396.565 103.875 396.549 103.869Z" fill="#00516A"/>
<path d="M397.579 117.378C397.538 117.362 397.502 117.341 397.469 117.307L394.513 114.505C394.378 114.377 394.373 114.165 394.498 114.029C394.626 113.894 394.839 113.887 394.978 114.016L397.69 116.586L399.959 114.199L397.054 111.446C396.919 111.318 396.914 111.106 397.039 110.97C397.167 110.836 397.38 110.828 397.519 110.957L400.668 113.942C400.734 114.004 400.771 114.087 400.772 114.178C400.774 114.266 400.74 114.354 400.678 114.42L397.944 117.296C397.85 117.397 397.701 117.426 397.579 117.378Z" fill="#044356"/>
</g>
<path d="M254.82 228.869C256.389 222.007 252.097 215.172 245.233 213.603C238.37 212.033 231.534 216.323 229.966 223.185C228.397 230.047 232.689 236.882 239.552 238.451C246.415 240.021 253.251 235.731 254.82 228.869Z" fill="black"/>
<path d="M244.069 194.217C246.67 191.111 250.17 187.832 254.573 184.374C257.802 181.849 260.249 179.66 261.921 177.81C263.588 175.96 264.734 173.69 265.353 170.996C266.235 167.169 265.807 163.881 264.076 161.136C262.341 158.395 259.609 156.592 255.88 155.73C252.299 154.907 248.375 152.048 245.13 153.422C241.884 154.801 235.538 155.34 232.801 158.522L225.398 149.201C230.124 143.316 235.623 139.188 241.901 136.816C248.18 134.449 255.048 134.122 262.511 135.844C271.267 137.864 277.703 142.018 281.826 148.31C285.95 154.602 286.972 162.252 284.898 171.255C283.918 175.502 282.547 179.108 280.778 182.078C279.009 185.053 277.13 187.479 275.132 189.363C273.133 191.247 270.622 193.368 267.593 195.719C263.987 198.485 261.272 200.882 259.439 202.915C257.606 204.947 256.313 207.616 255.549 210.929L238.304 206.954C239.547 201.57 241.469 197.327 244.069 194.217Z" fill="black"/>
<path d="M254.82 228.869C256.389 222.007 252.097 215.172 245.233 213.603C238.37 212.033 231.534 216.323 229.966 223.185C228.397 230.047 232.689 236.882 239.552 238.451C246.415 240.021 253.251 235.731 254.82 228.869Z" fill="#00303F"/>
<path d="M244.069 194.217C246.67 191.111 250.17 187.832 254.573 184.374C257.802 181.849 260.249 179.66 261.921 177.81C263.588 175.96 264.734 173.69 265.353 170.996C266.235 167.169 265.807 163.881 264.076 161.136C262.341 158.395 259.609 156.592 255.88 155.73C252.299 154.907 248.617 153.528 245.376 154.907C242.13 156.286 236.433 156.469 233.696 159.651L225.398 149.201C230.124 143.316 235.623 139.188 241.901 136.816C248.18 134.449 255.048 134.122 262.511 135.844C271.267 137.864 277.703 142.018 281.826 148.31C285.95 154.602 286.972 162.252 284.898 171.255C283.918 175.502 282.547 179.108 280.778 182.078C279.009 185.053 277.13 187.479 275.132 189.363C273.133 191.247 270.622 193.368 267.593 195.719C263.987 198.485 261.272 200.882 259.439 202.915C257.606 204.947 256.313 207.616 255.549 210.929L238.304 206.954C239.547 201.57 241.469 197.327 244.069 194.217Z" fill="#00303F"/>
<path d="M248.847 230.545C250.433 223.686 246.158 216.84 239.299 215.253C232.439 213.666 225.592 217.939 224.005 224.797C222.419 231.655 226.694 238.501 233.553 240.089C240.413 241.676 247.26 237.403 248.847 230.545Z" fill="#C7FF50"/>
<path d="M238.093 195.866C240.693 192.76 244.193 189.48 248.597 186.022C251.825 183.498 254.273 181.309 255.944 179.459C257.612 177.609 258.757 175.339 259.376 172.645C260.259 168.818 259.83 165.53 258.099 162.785C256.364 160.044 253.632 158.241 249.903 157.379C246.323 156.556 242.912 156.832 239.671 158.211C236.425 159.59 233.434 161.872 230.698 165.055L219.422 150.845C224.148 144.961 229.646 140.832 235.925 138.461C242.203 136.093 249.072 135.766 256.534 137.489C265.29 139.509 271.726 143.662 275.85 149.954C279.973 156.246 280.996 163.896 278.921 172.899C277.941 177.147 276.571 180.753 274.802 183.723C273.033 186.697 271.153 189.124 269.155 191.008C267.157 192.892 264.641 195.013 261.616 197.364C258.01 200.13 255.295 202.527 253.463 204.559C251.63 206.592 250.336 209.26 249.572 212.574L232.327 208.598C233.57 203.219 235.492 198.972 238.093 195.866Z" fill="#C7FF50"/>
<path d="M319.388 170.533C317.538 170.533 315.688 169.854 314.246 168.487C312.795 167.113 311.968 165.259 311.917 163.26C311.862 161.266 312.592 159.365 313.966 157.919C316.804 154.927 321.543 154.8 324.534 157.639C325.985 159.013 326.812 160.867 326.863 162.866C326.918 164.86 326.188 166.761 324.814 168.207C323.346 169.752 321.369 170.533 319.388 170.533ZM314.577 158.5C313.359 159.785 312.715 161.466 312.761 163.235C312.808 165.004 313.542 166.65 314.827 167.868C317.479 170.384 321.683 170.269 324.199 167.618C325.416 166.332 326.061 164.652 326.014 162.883C325.968 161.113 325.234 159.467 323.948 158.25C321.297 155.738 317.093 155.848 314.577 158.5Z" fill="#00303F"/>
<path d="M326.445 154.945C326.415 154.945 326.39 154.941 326.36 154.936L316.768 152.98C316.539 152.934 316.39 152.709 316.437 152.48C317.056 149.433 318.096 146.977 319.526 145.178C320.93 143.409 322.856 141.508 325.257 139.522C326.979 138.105 328.294 136.862 329.173 135.839C330.017 134.855 330.594 133.633 330.882 132.216C331.29 130.213 331.027 128.491 330.102 127.103C329.173 125.716 327.713 124.808 325.762 124.409C323.87 124.023 322.058 124.218 320.374 124.982C318.669 125.758 317.082 127.036 315.661 128.775C315.58 128.873 315.461 128.932 315.334 128.932C315.207 128.936 315.088 128.877 315.007 128.779L308.567 121.083C308.44 120.93 308.436 120.71 308.555 120.553C311.117 117.184 314.189 114.757 317.684 113.335C321.184 111.91 325.1 111.626 329.313 112.483C334.268 113.492 338.014 115.779 340.436 119.275C342.863 122.78 343.567 127.146 342.528 132.25C342.04 134.643 341.31 136.718 340.36 138.419C339.409 140.116 338.37 141.529 337.267 142.619C336.19 143.693 334.806 144.919 333.16 146.268C331.234 147.83 329.771 149.187 328.808 150.312C327.874 151.398 327.221 152.845 326.861 154.61C326.839 154.72 326.771 154.817 326.678 154.877C326.61 154.924 326.53 154.945 326.445 154.945ZM317.358 152.238L326.122 154.024C326.525 152.301 327.213 150.872 328.163 149.76C329.16 148.598 330.657 147.202 332.626 145.611C334.251 144.278 335.613 143.069 336.673 142.017C337.717 140.982 338.709 139.628 339.622 138.003C340.529 136.382 341.229 134.388 341.7 132.08C342.693 127.214 342.035 123.069 339.745 119.759C337.449 116.445 333.886 114.277 329.151 113.314C325.104 112.491 321.354 112.763 318.011 114.12C314.753 115.448 311.872 117.693 309.441 120.799L315.338 127.846C316.759 126.204 318.333 124.978 320.026 124.21C321.876 123.37 323.861 123.153 325.936 123.578C328.112 124.023 329.754 125.05 330.814 126.632C331.871 128.219 332.176 130.154 331.722 132.386C331.404 133.947 330.768 135.296 329.826 136.395C328.914 137.456 327.561 138.733 325.804 140.18C323.45 142.127 321.562 143.986 320.196 145.708C318.91 147.32 317.956 149.514 317.358 152.238Z" fill="#00303F"/>
<path d="M320.638 224.204C320.123 223.861 319.688 223.386 319.389 222.795C318.938 221.908 318.859 220.899 319.169 219.954C319.476 219.009 320.136 218.24 321.022 217.789C322.852 216.86 325.099 217.592 326.028 219.422C326.478 220.309 326.557 221.319 326.248 222.263C325.94 223.208 325.281 223.978 324.394 224.428C323.154 225.059 321.722 224.926 320.638 224.204ZM321.212 218.167C320.426 218.565 319.842 219.248 319.568 220.086C319.294 220.924 319.364 221.819 319.764 222.605C320.589 224.229 322.579 224.877 324.202 224.054C324.988 223.655 325.572 222.973 325.846 222.135C326.12 221.297 326.05 220.402 325.65 219.615C324.827 217.993 322.835 217.344 321.212 218.167Z" fill="#C7FF50"/>
<path d="M323.159 215.941C323.066 215.879 323.038 215.754 323.096 215.655C323.895 214.329 324.793 213.351 325.766 212.744C326.721 212.149 327.943 211.579 329.401 211.05C330.445 210.671 331.272 210.31 331.856 209.976C332.417 209.654 332.89 209.177 333.263 208.56C333.791 207.687 333.954 206.836 333.75 206.03C333.546 205.223 333.014 204.554 332.163 204.041C331.34 203.543 330.458 203.331 329.539 203.41C328.609 203.488 327.652 203.823 326.695 204.402C326.64 204.434 326.575 204.441 326.515 204.42C326.455 204.4 326.408 204.353 326.386 204.293L324.652 199.606C324.617 199.514 324.651 199.41 324.735 199.356C326.5 198.204 328.348 197.579 330.224 197.495C332.105 197.413 333.989 197.931 335.823 199.039C337.978 200.34 339.354 202.039 339.907 204.086C340.461 206.136 340.06 208.301 338.72 210.521C338.092 211.563 337.403 212.414 336.672 213.052C335.943 213.689 335.218 214.178 334.519 214.507C333.834 214.83 332.979 215.175 331.981 215.534C330.817 215.944 329.902 216.338 329.262 216.704C328.643 217.058 328.094 217.627 327.631 218.395C327.602 218.442 327.556 218.477 327.501 218.491C327.446 218.505 327.389 218.495 327.342 218.466L323.168 215.947C323.164 215.945 323.161 215.942 323.159 215.941ZM332.577 203.804C333.411 204.359 333.944 205.072 334.159 205.927C334.391 206.848 334.21 207.806 333.623 208.779C333.213 209.458 332.688 209.984 332.063 210.342C331.459 210.689 330.61 211.06 329.543 211.446C328.112 211.966 326.916 212.523 325.987 213.102C325.116 213.644 324.301 214.516 323.566 215.692L327.38 217.994C327.858 217.253 328.42 216.696 329.05 216.333C329.711 215.954 330.648 215.55 331.837 215.133C332.821 214.78 333.663 214.44 334.335 214.123C335 213.812 335.691 213.343 336.39 212.732C337.087 212.123 337.748 211.306 338.354 210.301C339.634 208.182 340.018 206.127 339.496 204.193C338.974 202.255 337.663 200.64 335.602 199.397C333.841 198.333 332.037 197.835 330.24 197.915C328.489 197.993 326.763 198.564 325.104 199.617L326.692 203.91C327.632 203.376 328.577 203.066 329.5 202.988C330.509 202.903 331.477 203.134 332.379 203.679C332.448 203.72 332.514 203.762 332.577 203.804Z" fill="#C7FF50"/>
<path d="M351.235 311.444C350.719 311.183 350.264 310.791 349.921 310.277C349.406 309.505 349.222 308.578 349.404 307.669C349.585 306.76 350.111 305.974 350.883 305.459C352.476 304.397 354.637 304.828 355.7 306.42C356.215 307.192 356.399 308.119 356.217 309.028C356.036 309.937 355.51 310.723 354.738 311.238C353.659 311.959 352.318 311.993 351.235 311.444ZM351.1 305.789C350.416 306.244 349.951 306.941 349.789 307.747C349.628 308.554 349.791 309.375 350.248 310.06C351.191 311.473 353.107 311.854 354.519 310.912C355.203 310.457 355.669 309.76 355.83 308.953C355.992 308.147 355.829 307.326 355.371 306.641C354.43 305.228 352.513 304.847 351.1 305.789Z" fill="#00303F"/>
<path d="M352.651 303.508C352.558 303.461 352.518 303.348 352.56 303.25C353.155 301.933 353.879 300.928 354.713 300.259C355.532 299.602 356.602 298.94 357.894 298.288C358.819 297.822 359.546 297.397 360.049 297.022C360.534 296.663 360.92 296.168 361.197 295.555C361.59 294.689 361.647 293.883 361.369 293.158C361.091 292.434 360.525 291.873 359.68 291.491C358.862 291.12 358.022 291.021 357.179 291.196C356.326 291.371 355.476 291.787 354.654 292.428C354.607 292.464 354.547 292.478 354.49 292.465C354.432 292.453 354.382 292.415 354.356 292.362L352.233 288.21C352.19 288.129 352.21 288.029 352.282 287.97C353.79 286.708 355.433 285.925 357.162 285.641C358.895 285.357 360.697 285.63 362.519 286.453C364.658 287.421 366.121 288.843 366.859 290.678C367.598 292.516 367.465 294.566 366.469 296.771C366.002 297.805 365.458 298.67 364.85 299.341C364.245 300.011 363.627 300.545 363.016 300.927C362.417 301.302 361.664 301.716 360.779 302.158C359.745 302.666 358.941 303.132 358.389 303.541C357.854 303.938 357.408 304.525 357.064 305.288C357.042 305.334 357.003 305.372 356.954 305.391C356.904 305.41 356.851 305.407 356.804 305.386L352.66 303.512C352.656 303.511 352.652 303.509 352.651 303.508ZM360.037 291.225C360.871 291.648 361.443 292.25 361.737 293.018C362.053 293.845 361.991 294.753 361.554 295.719C361.25 296.393 360.821 296.939 360.282 297.339C359.761 297.727 359.015 298.165 358.069 298.64C356.801 299.279 355.755 299.927 354.958 300.566C354.21 301.164 353.552 302.062 353.001 303.232L356.787 304.944C357.148 304.205 357.607 303.627 358.151 303.222C358.722 302.797 359.545 302.319 360.601 301.802C361.473 301.367 362.215 300.959 362.804 300.592C363.385 300.23 363.973 299.719 364.553 299.076C365.133 298.435 365.655 297.605 366.106 296.607C367.057 294.503 367.186 292.557 366.49 290.823C365.792 289.086 364.4 287.734 362.353 286.81C360.604 286.018 358.879 285.755 357.222 286.028C355.609 286.293 354.073 287.013 352.653 288.171L354.597 291.973C355.409 291.375 356.251 290.983 357.097 290.809C358.022 290.619 358.944 290.727 359.84 291.132C359.908 291.162 359.974 291.193 360.037 291.225Z" fill="#00303F"/>
<path d="M111.15 384H138L133.85 352H107L111.15 384Z" fill="#FFC3CE"/>
<path d="M37.9969 346.379L44.5 369.5L72 354L62.5 329L37.9969 346.379Z" fill="#FFC3CE"/>
<path d="M97.7735 362.528L141.766 361.496L119.092 150.635L67.878 148.734L97.7735 362.528Z" fill="#00303F"/>
<path d="M148.889 148.734L191.375 237.842C199.31 254.484 194.383 274.442 179.628 285.436L70.417 366.799L44.6874 331.036L140.851 252.48L91.1215 148.734H148.889Z" fill="#00303F"/>
<path d="M70.4186 367.344C70.5328 367.344 70.647 367.306 70.7449 367.235L179.95 285.877C194.884 274.752 199.899 254.45 191.866 237.607L149.386 148.498C149.255 148.225 148.929 148.111 148.663 148.242C148.391 148.373 148.276 148.7 148.407 148.968L190.887 238.076C198.691 254.45 193.824 274.184 179.303 284.998L70.5383 366.028L45.4286 331.128L141.201 252.899C141.397 252.741 141.456 252.468 141.348 252.238L120.279 208.288C120.148 208.015 119.822 207.9 119.556 208.031C119.284 208.162 119.169 208.49 119.3 208.758L140.178 252.32L44.3409 330.609C44.118 330.789 44.0745 331.117 44.2431 331.352L69.9727 367.115C70.0597 367.235 70.1848 367.312 70.3316 367.333C70.3642 367.339 70.3914 367.344 70.4186 367.344Z" fill="#022733"/>
<path d="M107 377.043L109.594 410L174 409.957C165.261 397.207 149.727 383.654 139.456 377L107 377.043Z" fill="white"/>
<path d="M36.1444 344.024L10.2741 364.566L42.0096 410.593C48.21 397.116 51.7286 378.324 52.1544 367.207L36.1444 344.024Z" fill="white"/>
<path d="M199.141 135.552L146.947 75.304C143.864 71.7429 139.573 69.8641 135.222 69.7385H135.173C134.879 69.733 134.585 69.733 134.286 69.7385L55.5639 69.7931V150.638L165.193 152.309L161.136 141.134L174.754 156.853L199.141 135.552Z" fill="#1AE3E3"/>
<path d="M165.19 152.852C165.25 152.852 165.315 152.841 165.375 152.819C165.658 152.715 165.805 152.404 165.701 152.12L143.066 89.7633C142.963 89.4793 142.647 89.3318 142.37 89.4356C142.087 89.5394 141.94 89.8507 142.044 90.1347L164.679 152.491C164.76 152.715 164.967 152.852 165.19 152.852Z" fill="#00303F"/>
<path d="M83.7529 151.611C84.0466 151.611 84.2913 151.371 84.2968 151.076C84.3022 150.775 84.0629 150.524 83.7638 150.519L56.1144 150.098V109.097C56.1144 108.797 55.8697 108.551 55.5706 108.551C55.2714 108.551 55.0267 108.797 55.0267 109.097V150.639C55.0267 150.939 55.266 151.18 55.5597 151.185L83.7475 151.617C83.7475 151.611 83.7475 151.611 83.7529 151.611Z" fill="#00303F"/>
<path d="M55.5609 70.3345L97.0186 70.3072C97.3178 70.3072 97.5625 70.0614 97.5625 69.761C97.5625 69.4606 97.3178 69.2148 97.0186 69.2148L55.5609 69.2421C55.2618 69.2421 55.017 69.4879 55.017 69.7883C55.017 70.0887 55.2618 70.3345 55.5609 70.3345Z" fill="#00303F"/>
<path d="M200.102 137.219C200.227 137.219 200.358 137.175 200.461 137.082C200.689 136.886 200.711 136.542 200.515 136.312L147.359 74.9444C144.319 71.4325 139.919 69.3406 135.286 69.1932C135.264 69.1932 135.242 69.1877 135.22 69.1877C134.878 69.1822 134.573 69.1822 134.269 69.1877L128.368 69.1932C128.069 69.1932 127.824 69.4389 127.824 69.7393C127.824 70.0397 128.069 70.2855 128.368 70.2855L134.285 70.28C134.584 70.2691 134.872 70.2691 135.155 70.28C135.155 70.28 135.161 70.28 135.172 70.28C135.182 70.28 135.193 70.28 135.204 70.28C139.555 70.4057 143.683 72.3664 146.538 75.6598L199.689 137.028C199.797 137.153 199.95 137.219 200.102 137.219Z" fill="#00303F"/>
<path d="M126 7.90625V27.2135C126 34.2864 120.29 40.0212 113.247 40.0212H107.498L89.6653 43.5112V37.5798C89.6653 31.2497 93.1459 25.4384 98.7095 22.4727L126 7.90625Z" fill="#003C4F"/>
<path d="M89.119 44.178L107.55 40.5678H113.25C120.581 40.5678 126.547 34.5763 126.547 27.2139V7L98.4515 21.987C92.6976 25.0565 89.119 31.0316 89.119 37.5748V44.178ZM125.459 8.81876V27.2139C125.459 33.9755 119.983 39.4754 113.25 39.4754L107.392 39.4864L90.2067 42.8508V37.5802C90.2067 31.4412 93.5623 25.8375 98.9627 22.9537L125.459 8.81876Z" fill="#003C4F"/>
<path d="M92.1992 70.1397L108.781 82.5652V48.7734H92.1992V70.1397Z" fill="#FFBAC7"/>
<path d="M108.784 83.1106C108.866 83.1106 108.953 83.0942 109.029 83.0505C109.214 82.9577 109.328 82.7665 109.328 82.5644V48.7727C109.328 48.4723 109.083 48.2266 108.784 48.2266H92.2077C91.9086 48.2266 91.6638 48.4723 91.6638 48.7727V70.1335C91.6638 70.3083 91.7454 70.4667 91.8814 70.5705L108.458 83.0014C108.55 83.0778 108.665 83.1106 108.784 83.1106ZM108.24 49.3189V81.4776L92.7515 69.8659V49.3189H108.24Z" fill="#00303F"/>
<path d="M92.2047 55.0833V48.7695H108.781V62.7024C107.286 63.0028 104.305 63.3797 100.879 62.2436C95.5222 60.474 92.8899 56.263 92.2047 55.0833Z" fill="#FFBAC7"/>
<path d="M102.821 58.8031C95.5551 58.8031 89.665 52.2643 89.665 44.1984C89.665 36.1325 95.5551 29.5938 102.821 29.5938C110.087 29.5938 115.977 36.1325 115.977 44.1984C115.977 52.2643 110.087 58.8031 102.821 58.8031Z" fill="#FFC3CE"/>
<path d="M102.815 29.5938C95.5496 29.5938 89.6596 36.1314 89.6596 44.1984C89.6596 44.9248 89.7086 45.6348 89.801 46.3339L98.3178 40.0202H115.422C113.807 33.9904 108.776 29.5938 102.815 29.5938Z" fill="#003343"/>
<path d="M98.6551 50.7823C99.7374 51.7764 101.135 52.4536 102.707 52.612C106.215 52.9725 109.38 50.684 110.25 47.3633L98.6551 50.7823Z" fill="#003C4F"/>
<path d="M123.231 42.9641L103.843 61.037L108.161 65.7068L127.55 47.6339C128.773 46.4924 128.844 44.5699 127.707 43.341L127.506 43.1225C126.369 41.8936 124.455 41.8226 123.231 42.9641Z" fill="#FFBAC7"/>
<path d="M107.241 57.8828L97.0278 67.4026L97.452 79.3474L108.449 91.3195L124.367 76.48L107.241 57.8828Z" fill="#FFBAC7"/>
<path d="M124.799 58.0609L122.498 55.5703L117.848 59.9069L120.464 62.7361L113.237 69.4759L117.555 74.1456L124.445 67.7227C127.197 65.1611 127.355 60.83 124.799 58.0609Z" fill="#FFBAC7"/>
<path d="M126.685 65.9017L123.912 62.9414L119.262 67.278L121.878 70.1072L114.65 76.847L118.968 81.5167L126.375 74.6568C128.883 72.3356 129.024 68.4031 126.685 65.9017Z" fill="#FFBAC7"/>
<path d="M117.532 91.6714L97.8438 92.3242L97.0243 67.3984L116.713 66.7456L117.532 91.6714Z" fill="#FFBAC7"/>
<path d="M102.219 72.3017L108.859 67.5063C108.859 67.5063 100.68 60.1384 98.722 58.3087C98.3685 58.0411 96.5357 55.769 92.3752 54.5456C92.2828 54.5456 88.552 53.0108 85.6532 56.1295L85.5771 56.2114C84.3643 57.5168 84.9517 59.6523 86.6594 60.1493C88.6825 60.7337 90.189 61.0396 91.9184 62.6617L102.219 72.3017Z" fill="#FFBAC7"/>
<path d="M97.3164 92.8902L118.081 92.2021L117.912 83.2448L126.761 75.0359C128.077 73.8179 128.838 72.1575 128.909 70.3606C128.979 68.5637 128.343 66.8487 127.125 65.5324L126.548 64.9098C126.342 64.6913 125.999 64.675 125.782 64.8825C125.564 65.0901 125.548 65.4341 125.754 65.6526L126.331 66.2752C127.353 67.3785 127.881 68.8149 127.826 70.3169C127.772 71.8189 127.13 73.2116 126.032 74.233L116.824 82.7697L116.982 91.1425L98.3769 91.7597L97.5557 67.171L92.3021 62.2445C90.6434 60.6879 89.1369 60.2673 87.3966 59.7703L86.831 59.6065C86.2055 59.4262 85.7324 58.9456 85.5583 58.3175C85.3843 57.6949 85.5475 57.0395 85.988 56.5698L86.0641 56.4878C88.1906 54.1994 90.7793 54.5926 92.139 55.0295C92.1825 55.0459 92.2205 55.0569 92.2532 55.0623C95.6794 56.0727 97.4469 57.8041 98.1104 58.4595C98.2247 58.5742 98.3171 58.6561 98.3769 58.7108C99.0296 59.3225 100.395 60.5677 102.445 62.4247C102.668 62.6268 103.011 62.6104 103.212 62.3865C103.413 62.1626 103.397 61.8185 103.174 61.6164C101.118 59.7539 99.7474 58.5032 99.1057 57.9024L99.0622 57.8642C99.0241 57.8314 98.9588 57.7659 98.8718 57.6839C98.1539 56.9794 96.2396 55.1006 92.5414 54.0137L92.4761 53.9918C91.1111 53.5603 87.8697 52.9486 85.2701 55.745L85.194 55.827C84.4924 56.5807 84.2422 57.6239 84.5142 58.6124C84.7861 59.6065 85.542 60.3711 86.5318 60.6606L87.1083 60.8244C88.8432 61.316 90.0995 61.671 91.5679 63.0419L96.4952 67.6571L97.3164 92.8902Z" fill="#41193E"/>
<path d="M122.727 51.9844L109.033 64.7484L113.351 69.4182L123.641 59.822C125.517 58.0687 125.632 55.1194 123.886 53.2351L122.727 51.9844Z" fill="#FFBAC7"/>
<path d="M117.554 74.6999C117.684 74.6999 117.82 74.6507 117.923 74.5524L124.814 68.1294C127.762 65.3822 127.952 60.7233 125.244 57.7412C125.042 57.5173 124.694 57.5009 124.477 57.7084C124.254 57.9105 124.238 58.2546 124.444 58.4785C126.756 61.0183 126.587 64.9889 124.08 67.332L117.189 73.755C116.972 73.9625 116.955 74.3066 117.162 74.5251C117.265 74.6398 117.407 74.6999 117.554 74.6999Z" fill="#41193E"/>
<path d="M113.687 69.6574C113.818 69.6574 113.954 69.6082 114.057 69.5099L124.015 60.225C125.032 59.2801 125.62 57.9911 125.669 56.6038C125.717 55.2111 125.228 53.8894 124.287 52.868L123.205 51.6992C122.998 51.4753 122.656 51.4644 122.438 51.6719C122.221 51.8795 122.204 52.2235 122.411 52.442L123.493 53.6108C124.238 54.4192 124.624 55.4623 124.586 56.5656C124.543 57.6634 124.08 58.6793 123.281 59.4276L113.323 68.7125C113.106 68.92 113.089 69.2641 113.296 69.4826C113.394 69.5973 113.541 69.6574 113.687 69.6574Z" fill="#41193E"/>
<path d="M108.785 65.6814C108.915 65.6814 109.051 65.6322 109.155 65.5339L127.923 48.0345C128.619 47.3846 129.027 46.4998 129.06 45.544C129.098 44.5882 128.755 43.6761 128.108 42.9715L127.907 42.7531C127.259 42.0539 126.378 41.6443 125.427 41.6115C124.475 41.5788 123.567 41.9174 122.865 42.5674L100.426 63.4858C100.208 63.6933 100.192 64.0374 100.399 64.2559C100.605 64.4743 100.948 64.4907 101.165 64.2832L123.605 43.3648C124.089 42.9114 124.72 42.6766 125.383 42.6984C126.047 42.7257 126.656 43.0043 127.107 43.4904L127.308 43.7089C127.76 44.1949 127.994 44.8285 127.966 45.4948C127.945 46.1612 127.662 46.7729 127.178 47.2262L108.41 64.7256C108.192 64.9331 108.176 65.2772 108.382 65.4957C108.491 65.6268 108.638 65.6814 108.785 65.6814Z" fill="#41193E"/>
<path d="M110.459 163.965C101.535 163.965 94.3015 156.701 94.3015 147.738V89.9531H126.617V147.738C126.617 156.701 119.384 163.965 110.459 163.965Z" fill="#1AE3E3"/>
<path d="M121.312 135.556L96.9316 156.856L44.7382 96.608C38.881 89.8464 39.5934 79.5948 46.3263 73.7179C53.0592 67.8357 63.2673 68.5512 69.1245 75.3128L121.312 135.556Z" fill="#1AE3E3"/>
<path d="M97.6566 158.182C97.7817 158.182 97.9122 158.138 98.0156 158.045C98.244 157.849 98.2657 157.505 98.07 157.275L45.1532 96.2405C39.5026 89.7192 40.1879 79.7952 46.6869 74.1205C49.8358 71.3733 53.8603 70.0188 58.0207 70.3082C62.1812 70.5977 65.9827 72.4984 68.7183 75.6607L93.9041 104.734C94.0999 104.963 94.4425 104.985 94.6709 104.788C94.8993 104.591 94.9211 104.247 94.7253 104.018L69.5395 74.9452C63.4973 67.9651 52.9249 67.2278 45.9744 73.3013C39.024 79.3692 38.2898 89.9868 44.3374 96.9669L97.2542 158.002C97.3521 158.116 97.5044 158.182 97.6566 158.182Z" fill="#00303F"/>
<path d="M110.462 164.51C119.67 164.51 127.164 156.984 127.164 147.737V89.9524C127.164 89.652 126.919 89.4062 126.62 89.4062H94.3046C94.0054 89.4062 93.7607 89.652 93.7607 89.9524V137.327C93.7607 137.628 94.0054 137.874 94.3046 137.874C94.6037 137.874 94.8484 137.628 94.8484 137.327V90.4986H126.076V147.737C126.076 156.383 119.072 163.418 110.462 163.418C105.584 163.418 101.07 161.19 98.0898 157.301C97.9049 157.061 97.5622 157.017 97.3284 157.203C97.0891 157.388 97.0456 157.732 97.2305 157.967C100.417 162.124 105.241 164.51 110.462 164.51Z" fill="#00303F"/>
<path d="M101.006 142.203L97.9663 147.234C98.483 149.555 100.648 151.122 103.002 150.877L103.867 150.789L107.783 145.366L111.818 144.033L119.312 144.181L119.128 135.152L112.895 135.3C108.022 135.415 103.541 138.02 101.006 142.203Z" fill="#FFBAC7"/>
<path d="M132.461 151.737L116.194 172.284C113.91 175.168 110.163 176.457 106.601 175.578L98.443 173.568C96.371 173.06 94.4349 172.104 92.7707 170.771L88.9202 167.696C87.2778 166.386 87.0004 163.977 88.3111 162.327L88.6374 161.912C89.9426 160.263 92.341 159.984 93.9835 161.301L96.496 163.311C98.1276 164.611 100.015 165.544 102.038 166.041L106.269 167.085C108.129 167.543 110.081 166.872 111.267 165.37L126.087 146.652L132.461 151.737Z" fill="#FFBAC7"/>
<path d="M124.664 161.613L108.892 181.428C107.767 182.821 106.347 183.951 104.748 184.738L101.05 186.562C99.4674 187.343 97.5585 186.688 96.7808 185.098L96.585 184.7C95.8073 183.11 96.4599 181.193 98.0425 180.412L100.457 179.221C102.024 178.451 103.405 177.348 104.503 175.988L118.089 158.871L124.664 161.613Z" fill="#FFBAC7"/>
<path d="M99.642 187.434C100.202 187.434 100.762 187.303 101.284 187.046L104.983 185.222C106.647 184.403 108.142 183.207 109.312 181.765L117.703 171.196C117.888 170.961 117.85 170.617 117.616 170.426C117.382 170.24 117.04 170.279 116.849 170.514L108.463 181.076C107.397 182.393 106.027 183.485 104.504 184.239L100.806 186.063C100.17 186.374 99.4571 186.424 98.7881 186.194C98.1192 185.965 97.5808 185.49 97.2708 184.851L97.075 184.452C96.4333 183.136 96.9771 181.541 98.2824 180.896L100.697 179.706C102.323 178.903 103.786 177.734 104.928 176.325L105.429 175.697C105.619 175.462 105.581 175.118 105.342 174.927C105.108 174.735 104.765 174.774 104.575 175.014L104.08 175.637C103.036 176.92 101.703 177.991 100.218 178.722L97.8038 179.913C95.9547 180.825 95.1933 183.075 96.0961 184.927L96.2919 185.326C96.7324 186.227 97.4938 186.899 98.4346 187.221C98.8262 187.368 99.2341 187.434 99.642 187.434Z" fill="black"/>
<path d="M123.289 153.513L113.875 165.409C111.591 168.292 107.844 169.581 104.281 168.702L96.1237 166.692C94.0516 166.184 92.1155 165.228 90.4513 163.896L86.6009 160.821C84.9584 159.51 84.6811 157.101 85.9917 155.452L86.3235 155.037C87.6287 153.387 90.0271 153.109 91.6695 154.425L94.1821 156.435C95.8137 157.735 97.7009 158.669 99.724 159.166L103.955 160.209C105.815 160.668 107.768 159.996 108.953 158.494L116.921 148.434L123.289 153.513Z" fill="#FFBAC7"/>
<path d="M121.875 146.9L112.461 158.795C110.177 161.679 106.43 162.968 102.867 162.089L94.7096 160.079C92.6375 159.571 90.7014 158.615 89.0373 157.282L85.1868 154.208C83.5444 152.897 83.267 150.488 84.5777 148.839L84.904 148.424C86.2092 146.774 88.6076 146.496 90.25 147.812L92.7626 149.822C94.3942 151.122 96.2814 152.056 98.3045 152.553L102.536 153.596C104.396 154.055 106.348 153.383 107.539 151.881L115.506 141.82L121.875 146.9Z" fill="#FFBAC7"/>
<path d="M114.054 135.179L131.322 135.016L131.969 159.446L129.206 159.44C127.52 159.435 125.927 160.205 124.882 161.527L120.064 167.611L104.727 155.361L113.706 144.017L114.054 135.179Z" fill="#FFBAC7"/>
<path d="M105.096 162.9C108.087 162.9 110.986 161.54 112.889 159.131L114.406 157.22C114.591 156.985 114.553 156.641 114.319 156.455C114.086 156.269 113.743 156.308 113.558 156.542L112.041 158.454C109.898 161.163 106.347 162.381 103.002 161.556L94.8441 159.546C92.8373 159.049 90.9991 158.143 89.3784 156.854L85.5279 153.779C84.8481 153.233 84.4185 152.457 84.3151 151.589C84.2172 150.72 84.462 149.863 85.0004 149.18L85.3267 148.765C85.8705 148.082 86.6428 147.651 87.5075 147.552C88.3723 147.454 89.2261 147.7 89.9059 148.241L92.4185 150.251C94.1208 151.611 96.0569 152.561 98.167 153.085L102.398 154.128C104.454 154.636 106.635 153.888 107.956 152.222L114.047 144.532C114.232 144.297 114.194 143.953 113.96 143.762C113.727 143.576 113.384 143.615 113.194 143.849L107.102 151.54C106.047 152.872 104.302 153.473 102.659 153.063L98.4281 152.02C96.4702 151.54 94.6755 150.655 93.0983 149.393L90.5857 147.383C88.7094 145.887 85.9684 146.198 84.4783 148.082L84.152 148.497C83.4286 149.409 83.1023 150.551 83.2329 151.709C83.3634 152.867 83.9399 153.904 84.8481 154.631L88.6986 157.706C90.4171 159.077 92.4511 160.082 94.583 160.606L102.741 162.616C103.524 162.807 104.313 162.9 105.096 162.9Z" fill="#41193E"/>
<path d="M106.506 169.517C109.497 169.517 112.396 168.157 114.299 165.749L117.078 162.237C117.263 162.002 117.225 161.658 116.991 161.467C116.757 161.281 116.415 161.319 116.23 161.554L113.451 165.066C111.308 167.775 107.762 168.993 104.412 168.168L96.2542 166.158C94.2746 165.672 92.382 164.738 90.7885 163.466L86.9381 160.391C85.5295 159.266 85.2956 157.201 86.416 155.792L86.6335 155.519C86.8184 155.284 86.7803 154.94 86.5465 154.754C86.3126 154.569 85.97 154.607 85.7796 154.842L85.5621 155.115C84.072 156.999 84.382 159.752 86.2582 161.248L90.1087 164.323C91.8273 165.694 93.8613 166.699 95.9932 167.223L104.151 169.233C104.929 169.424 105.723 169.517 106.506 169.517Z" fill="#41193E"/>
<path d="M108.825 176.392C111.817 176.392 114.715 175.032 116.619 172.624L125.141 161.859C126.087 160.662 127.501 159.98 129.019 159.98C129.024 159.98 129.03 159.98 129.035 159.98L132.516 159.991L131.841 134.457L111.632 134.692C108.439 134.719 105.47 136.172 103.479 138.679L98.6989 144.714C97.3067 146.473 97.6004 149.045 99.3516 150.444L99.5963 150.635C101.348 152.033 103.909 151.738 105.301 149.979L108.167 146.358C109.059 145.233 110.392 144.578 111.822 144.567L116.934 144.632H116.94C117.239 144.632 117.478 144.392 117.484 144.092C117.489 143.791 117.244 143.54 116.945 143.54L111.822 143.474C110.049 143.491 108.412 144.294 107.314 145.675L104.447 149.297C103.425 150.586 101.554 150.799 100.271 149.777L100.026 149.586C98.7425 148.565 98.5303 146.68 99.5474 145.391L104.328 139.356C106.112 137.106 108.777 135.801 111.637 135.779L130.781 135.555L131.401 158.887L129.04 158.876C129.035 158.876 129.024 158.876 129.019 158.876C127.164 158.876 125.44 159.712 124.287 161.17L115.765 171.935C113.622 174.644 110.071 175.862 106.726 175.038L98.5684 173.028C96.5888 172.542 94.6962 171.608 93.1027 170.335L89.2523 167.26C88.5724 166.714 88.1428 165.938 88.0395 165.07C87.9416 164.202 88.1863 163.344 88.7247 162.661C88.9096 162.427 88.8716 162.082 88.6377 161.897C88.4038 161.711 88.0612 161.749 87.8709 161.984C87.1475 162.896 86.8212 164.038 86.9518 165.196C87.0823 166.354 87.6588 167.391 88.567 168.118L92.4175 171.193C94.136 172.564 96.17 173.568 98.3019 174.093L106.46 176.103C107.254 176.299 108.042 176.392 108.825 176.392Z" fill="#41193E"/>
<path d="M205.453 148.731C205.453 157.693 198.22 164.957 189.295 164.957H131.756V132.504H189.295C198.22 132.504 205.453 139.768 205.453 148.731Z" fill="#1AE3E3"/>
<path d="M131.759 165.503H189.298C198.506 165.503 206 157.982 206 148.73C206 144.175 203.612 139.423 198.702 134.207C198.495 133.989 198.152 133.978 197.935 134.185C197.717 134.393 197.706 134.737 197.913 134.956C202.623 139.964 204.912 144.47 204.912 148.73C204.912 157.376 197.907 164.411 189.298 164.411H132.303V133.049H178.72C179.02 133.049 179.264 132.804 179.264 132.503C179.264 132.203 179.02 131.957 178.72 131.957H131.759C131.46 131.957 131.215 132.203 131.215 132.503V164.957C131.215 165.263 131.454 165.503 131.759 165.503Z" fill="#00303F"/>
<path d="M406.742 398.617H401.812C401.369 396.235 400.76 393.908 399.929 391.637L404.194 389.2L395.885 374.797L391.62 377.235C390.069 375.406 388.351 373.689 386.523 372.138L388.961 367.873L374.558 359.564L372.121 363.829C369.85 363.054 367.523 362.389 365.141 361.946V357.016H348.523V361.946C346.141 362.389 343.814 362.998 341.543 363.829L339.106 359.564L324.703 367.873L327.141 372.138C325.313 373.689 323.596 375.406 322.044 377.235L317.779 374.797L309.47 389.2L313.735 391.637C312.96 393.908 312.295 396.235 311.852 398.617H306.922V415.235H311.852C312.295 417.617 312.904 419.943 313.735 422.215L309.47 424.652L317.779 439.054L322.044 436.617C323.596 438.445 325.313 440.162 327.141 441.713L324.703 445.979L339.106 454.288L341.543 450.022C343.814 450.798 346.141 451.463 348.523 451.906V456.836H365.141V451.906C367.523 451.463 369.85 450.853 372.121 450.022L374.558 454.288L388.961 445.979L386.523 441.713C388.351 440.162 390.069 438.445 391.62 436.617L395.885 439.054L404.194 424.652L399.929 422.215C400.704 419.943 401.369 417.617 401.812 415.235H406.742V398.617ZM390.567 419.888C387.188 429.527 379.544 437.171 369.85 440.605C340.158 451.075 312.794 423.71 323.263 393.964C326.642 384.325 334.287 376.681 343.981 373.246C373.672 362.832 401.037 390.197 390.567 419.888Z" fill="#005A76"/>
<defs>
<clipPath id="clip0_4469_14733">
<rect width="65.9741" height="39.8334" fill="white" transform="translate(370.195 74.8789) rotate(21.1804)"/>
</clipPath>
</defs>
</svg>
