<svg width="500" height="500" viewBox="0 0 500 500" fill="none" xmlns="http://www.w3.org/2000/svg">
<path d="M250 500C388.071 500 500 388.071 500 250C500 111.929 388.071 0 250 0C111.929 0 0 111.929 0 250C0 388.071 111.929 500 250 500Z" fill="#E1F8FF"/>
<path d="M10.3612 382.107C10.1804 382.107 10.06 382.047 9.93951 381.926C9.69855 381.686 9.69855 381.324 9.93951 381.083L65.6624 325.36C65.7829 325.24 65.9033 325.179 66.0841 325.179H103.373L183.614 244.939C183.855 244.698 184.217 244.698 184.458 244.939C184.699 245.179 184.699 245.541 184.458 245.782L104.036 326.204C103.915 326.324 103.795 326.384 103.614 326.384H66.3251L10.7828 381.926C10.6623 382.047 10.5419 382.107 10.3612 382.107Z" fill="#AECBD3"/>
<path d="M103.614 330.418C106.143 330.418 108.192 328.369 108.192 325.84C108.192 323.312 106.143 321.262 103.614 321.262C101.085 321.262 99.0356 323.312 99.0356 325.84C99.0356 328.369 101.085 330.418 103.614 330.418Z" fill="white"/>
<path d="M66.5662 330.418C69.0947 330.418 71.1445 328.369 71.1445 325.84C71.1445 323.312 69.0947 321.262 66.5662 321.262C64.0376 321.262 61.9878 323.312 61.9878 325.84C61.9878 328.369 64.0376 330.418 66.5662 330.418Z" fill="white"/>
<path d="M316.506 223.615C316.325 223.615 316.205 223.555 316.085 223.434C315.844 223.193 315.844 222.832 316.085 222.591L396.205 142.47C396.326 142.35 396.446 142.289 396.627 142.289H437.952L483.072 97.169C483.313 96.928 483.675 96.928 483.916 97.169C484.157 97.41 484.157 97.7714 483.916 98.0124L438.615 143.314C438.494 143.434 438.374 143.494 438.193 143.494H396.868L316.928 223.434C316.868 223.555 316.687 223.615 316.506 223.615Z" fill="#AECBD3"/>
<path d="M171.868 368.254C171.687 368.254 171.566 368.194 171.446 368.073C171.205 367.833 171.205 367.471 171.446 367.23L282.108 256.567C282.349 256.326 282.711 256.326 282.952 256.567C283.193 256.808 283.193 257.17 282.952 257.411L172.289 368.073C172.169 368.194 172.048 368.254 171.868 368.254Z" fill="#AECBD3"/>
<path d="M109.458 430.724C109.277 430.724 109.157 430.664 109.036 430.543C108.795 430.302 108.795 429.941 109.036 429.7L148.313 390.423C148.554 390.182 148.916 390.182 149.157 390.423C149.398 390.664 149.398 391.025 149.157 391.266L109.88 430.543C109.759 430.664 109.578 430.724 109.458 430.724Z" fill="#AECBD3"/>
<path d="M438.193 145.54C439.623 145.54 440.783 144.38 440.783 142.95C440.783 141.519 439.623 140.359 438.193 140.359C436.762 140.359 435.603 141.519 435.603 142.95C435.603 144.38 436.762 145.54 438.193 145.54Z" fill="white"/>
<path d="M396.928 148.676C400.089 148.676 402.651 146.114 402.651 142.953C402.651 139.793 400.089 137.23 396.928 137.23C393.767 137.23 391.205 139.793 391.205 142.953C391.205 146.114 393.767 148.676 396.928 148.676Z" fill="white"/>
<path d="M337.289 205.122C337.289 206.567 336.145 207.712 334.699 207.712C333.253 207.712 332.108 206.567 332.108 205.122C332.108 203.676 333.253 202.531 334.699 202.531C336.145 202.531 337.289 203.676 337.289 205.122Z" fill="white"/>
<path d="M275.121 267.29C275.121 268.735 273.976 269.88 272.53 269.88C271.084 269.88 269.94 268.735 269.94 267.29C269.94 265.844 271.084 264.699 272.53 264.699C273.976 264.759 275.121 265.904 275.121 267.29Z" fill="white"/>
<path d="M212.952 329.52C212.952 330.966 211.807 332.11 210.361 332.11C208.916 332.11 207.771 330.966 207.771 329.52C207.771 328.074 208.916 326.93 210.361 326.93C211.807 326.93 212.952 328.074 212.952 329.52Z" fill="white"/>
<path d="M291.506 136.927H280.421C279.458 131.505 278.012 126.264 276.205 121.204L285.783 115.662L267.048 83.2523L257.47 88.7944C253.976 84.698 250.12 80.8426 245.964 77.2884L251.506 67.7101L219.096 48.9752L213.554 58.5535C208.494 56.7462 203.253 55.3607 197.831 54.3366V43.3125H160.421V54.3968C155 55.3607 149.759 56.8065 144.698 58.6137L139.156 49.0354L106.747 67.7703L112.289 77.3486C108.192 80.8426 104.337 84.698 100.783 88.8547L91.2045 83.3125L72.4696 115.722L82.0479 121.264C80.2407 126.325 78.8551 131.566 77.831 136.987H66.8672V174.397H77.9515C78.9153 179.819 80.3611 185.059 82.1683 190.12L72.5901 195.662L91.3251 228.072L100.903 222.529C104.397 226.626 108.253 230.481 112.409 234.035L106.867 243.614L139.277 262.349L144.819 252.77C149.879 254.578 155.12 255.963 160.542 256.987V268.072H197.952V256.987C203.373 256.023 208.614 254.578 213.674 252.77L219.217 262.349L251.626 243.614L246.084 234.035C250.18 230.541 254.036 226.686 257.59 222.529L267.168 228.072L285.903 195.662L276.325 190.12C278.132 185.059 279.518 179.819 280.542 174.397H291.626V136.927H291.506ZM256.265 185.843C248.494 207.65 231.205 224.939 209.397 232.71C140.903 257.228 77.59 193.915 102.048 125.361C109.819 103.553 127.108 86.2643 148.915 78.4932C217.47 54.0354 280.783 117.349 256.265 185.843Z" fill="white"/>
<path d="M474.759 310.963H468.012C467.409 307.649 466.566 304.457 465.422 301.324L471.265 297.951L459.819 278.071L453.916 281.445C451.747 278.914 449.398 276.565 446.867 274.396L450.241 268.493L430.361 257.047L426.988 262.89C423.916 261.806 420.663 260.902 417.349 260.3V253.613H394.397V260.36C391.084 260.963 387.891 261.806 384.759 262.951L381.386 257.107L361.506 268.553L364.879 274.457C362.349 276.625 360 278.975 357.831 281.505L351.928 278.131L340.482 298.011L346.325 301.384C345.241 304.457 344.337 307.71 343.735 311.023H336.988V333.975H343.735C344.337 337.288 345.181 340.481 346.325 343.613L340.482 346.987L351.928 366.866L357.831 363.493C360 366.023 362.349 368.372 364.879 370.541L361.506 376.445L381.386 387.89L384.759 382.047C387.831 383.131 391.084 384.035 394.397 384.637V391.384H417.349V384.637C420.663 384.035 423.855 383.192 426.988 382.047L430.361 387.89L450.241 376.445L446.867 370.541C449.398 368.372 451.747 366.023 453.916 363.493L459.819 366.866L471.265 346.987L465.422 343.613C466.506 340.541 467.409 337.288 468.012 333.975H474.759V310.963ZM453.193 340.902C448.434 354.276 437.831 364.818 424.458 369.637C382.47 384.637 343.735 345.842 358.735 303.914C363.494 290.541 374.096 279.999 387.47 275.18C429.458 260.18 468.193 298.975 453.193 340.902Z" fill="white"/>
<path d="M341.687 383.493C343.253 418.794 325.542 434.456 298.133 443.432C291.446 401.384 334.338 378.191 334.338 378.191L341.687 383.493Z" fill="#AECBD3"/>
<path d="M254.759 320.844C220.783 330.543 211.566 352.29 211.687 381.145C253.675 374.217 262.109 326.145 262.109 326.145L254.759 320.844Z" fill="#AECBD3"/>
<path d="M260.422 359.098C260.422 359.098 217.169 386.387 237.169 443.796C237.169 443.796 244.277 431.507 261.265 428.375C286.144 423.736 298.675 409.218 302.65 389.519L260.422 359.098Z" fill="#AECBD3"/>
<path d="M438.795 227.771C445.723 200.06 446.205 182.048 440.542 158.734C412.952 160.421 399.638 166.867 375.542 182.228L407.168 204.999L438.795 227.771Z" fill="#003C4F"/>
<path d="M432.47 242.89L433.373 240.119L365.542 191.203L363.193 192.95C326.687 220.059 285.241 265.54 258.675 302.408L253.374 309.757L356.325 383.974L361.627 376.625C388.253 339.757 418.313 286.083 432.47 242.89Z" fill="#C7FF50"/>
<path d="M386.366 302.285C402.198 286.452 402.198 260.782 386.366 244.95C370.533 229.117 344.864 229.117 329.031 244.95C313.199 260.782 313.199 286.452 329.031 302.285C344.864 318.117 370.533 318.117 386.366 302.285Z" fill="#1AE3E3"/>
<path d="M357.651 303.377C351.627 303.377 345.542 301.57 340.301 297.775C326.988 288.196 323.976 269.522 333.554 256.208C343.133 242.895 361.807 239.883 375.12 249.461C381.566 254.1 385.843 261.028 387.109 268.859C388.374 276.69 386.506 284.582 381.867 291.028C376.024 299.1 366.928 303.377 357.651 303.377ZM357.711 245.064C348.855 245.064 340.06 249.16 334.518 256.931C325.301 269.702 328.193 287.594 340.964 296.811C353.735 306.028 371.627 303.136 380.843 290.365C385.301 284.16 387.108 276.63 385.843 269.1C384.639 261.57 380.542 254.943 374.337 250.486C369.398 246.811 363.554 245.064 357.711 245.064Z" fill="white"/>
<path d="M437.289 235.3C437.168 235.3 437.048 235.24 436.928 235.18L369.096 186.264C368.855 186.084 368.795 185.722 368.976 185.421C369.156 185.18 369.518 185.12 369.819 185.3L437.65 234.216C437.891 234.397 437.952 234.758 437.771 235.059C437.65 235.18 437.47 235.3 437.289 235.3Z" fill="#AECBD3"/>
<path d="M318.494 385.419C318.373 385.419 318.253 385.359 318.132 385.298L264.277 346.443C264.036 346.262 263.976 345.901 264.156 345.6L275.361 330.057C275.482 329.937 275.602 329.816 275.783 329.816C275.964 329.816 276.084 329.816 276.205 329.937L330.06 368.792C330.301 368.973 330.361 369.334 330.181 369.636L318.976 385.178C318.855 385.298 318.735 385.419 318.554 385.419H318.494ZM265.421 345.84L318.313 383.973L328.795 369.395L275.903 331.262L265.421 345.84Z" fill="#AECBD3"/>
<path d="M242.108 494.217C241.988 494.217 241.868 494.157 241.747 494.096C241.506 493.916 241.446 493.554 241.627 493.253L282.229 436.928C282.41 436.687 282.771 436.566 283.072 436.807C283.313 436.988 283.374 437.349 283.193 437.651L242.59 493.976C242.47 494.157 242.289 494.217 242.108 494.217Z" fill="#AECBD3"/>
<path d="M273.494 477.109C273.373 477.109 273.253 477.049 273.132 476.989C272.891 476.808 272.831 476.447 273.012 476.145L288.916 454.037C289.096 453.796 289.458 453.676 289.759 453.916C290 454.097 290.06 454.459 289.879 454.76L273.976 476.868C273.855 477.049 273.675 477.109 273.494 477.109Z" fill="#AECBD3"/>
<path d="M197.771 429.4C197.651 429.4 197.53 429.339 197.41 429.279C197.169 429.098 197.108 428.737 197.289 428.436L224.699 390.424C224.88 390.183 225.241 390.062 225.542 390.303C225.783 390.484 225.843 390.845 225.663 391.147L198.253 429.159C198.133 429.339 197.952 429.4 197.771 429.4Z" fill="#AECBD3"/>
<path d="M205.602 403.314C205.482 403.314 205.361 403.254 205.241 403.193C205 403.013 204.94 402.651 205.12 402.35L216.144 387.049C216.325 386.808 216.686 386.687 216.988 386.928C217.229 387.109 217.289 387.47 217.108 387.772L206.084 403.073C205.964 403.254 205.783 403.314 205.602 403.314Z" fill="#AECBD3"/>
<path d="M191.506 491.746C191.385 491.746 191.265 491.686 191.144 491.626C190.904 491.445 190.843 491.084 191.024 490.782L227.47 440.24C227.651 439.999 228.012 439.879 228.313 440.12C228.554 440.3 228.614 440.662 228.434 440.963L191.988 491.505C191.867 491.626 191.687 491.746 191.506 491.746Z" fill="#AECBD3"/>
<path d="M194.217 471.207C194.096 471.207 193.976 471.147 193.855 471.087C193.614 470.906 193.554 470.545 193.735 470.243L212.651 443.978C212.831 443.737 213.193 443.617 213.494 443.858C213.735 444.039 213.795 444.4 213.614 444.701L194.699 470.966C194.638 471.147 194.458 471.207 194.217 471.207Z" fill="#AECBD3"/>
<path d="M129.699 338.801L107.591 363.741L119.097 391.03L148.434 359.162L129.699 338.801Z" fill="#F7AFBC"/>
<path d="M81.8074 356.15C81.8074 356.15 98.7954 355.969 110.723 360.246L121.566 388.378C121.566 388.378 100.422 423.8 72.952 442.113C72.8918 442.113 76.0243 374.222 81.8074 356.15Z" fill="white"/>
<path d="M127.169 334.282L148.434 359.161C148.434 359.161 239.579 277.173 276.687 224.342L251.205 208.98C251.205 208.98 160.181 255.125 127.169 334.282Z" fill="#26B5B5"/>
<path d="M123.133 338.618C123.012 338.377 126.868 327.293 126.868 327.293C126.868 327.293 155 350.185 159.097 357.654L146.988 365.847L123.133 338.618Z" fill="#26B5B5"/>
<path d="M152.41 350.486C152.229 350.486 152.109 350.425 151.988 350.305C145.603 343.919 136.265 335.968 131.325 331.811C131.085 331.57 131.024 331.209 131.265 330.968C131.506 330.727 131.868 330.666 132.109 330.907C137.109 335.124 146.446 343.076 152.831 349.522C153.072 349.763 153.072 350.124 152.831 350.365C152.711 350.425 152.53 350.486 152.41 350.486Z" fill="#3BD1D1"/>
<path d="M143.494 233.199L117.47 216.211L107.048 239.404L129.337 257.115L143.494 233.199Z" fill="#F7AFBC"/>
<path d="M41.1445 253.08L94.9397 198.441C94.9397 198.441 111.145 203.502 119.639 217.357L107.048 239.405C107.048 239.405 81.1445 263.984 41.1445 253.08Z" fill="white"/>
<path d="M140.602 228.741L163.434 237.777L210.422 186.934L257.289 207.355C257.289 207.355 213.615 259.705 184.458 284.042C176.868 290.428 166.145 291.452 157.53 286.572C146.627 280.428 132.048 269.946 123.675 255.006L140.602 228.741Z" fill="#26B5B5"/>
<path d="M169.157 290.245C165.06 290.245 160.964 289.22 157.289 287.112C156.988 286.931 156.928 286.57 157.048 286.269C157.229 285.967 157.591 285.907 157.892 286.028C166.205 290.726 176.747 289.763 184.157 283.558C193.735 275.546 205.904 263.678 220.362 248.196C220.603 247.955 220.964 247.955 221.205 248.196C221.446 248.437 221.446 248.799 221.205 249.04C206.747 264.522 194.518 276.449 184.88 284.461C180.422 288.317 174.759 290.245 169.157 290.245Z" fill="#3BD1D1"/>
<path d="M136.687 225.91L147.651 228.741L125.301 261.392C125.301 261.392 121.566 258.139 120.361 251.452L136.687 225.91Z" fill="#26B5B5"/>
<path d="M129.277 256.211C129.157 256.211 129.036 256.151 128.916 256.091C128.614 255.91 128.554 255.549 128.735 255.248L147.108 228.38C147.289 228.079 147.651 228.019 147.952 228.199C148.253 228.38 148.313 228.741 148.133 229.043L129.759 255.91C129.639 256.091 129.458 256.211 129.277 256.211Z" fill="#3BD1D1"/>
<path d="M123.132 338.618C123.012 338.377 126.867 327.293 126.867 327.293L123.132 338.618Z" fill="#AECBD3"/>
<path d="M156.084 247.594C155.964 247.594 155.843 247.533 155.723 247.473C155.482 247.292 155.421 246.871 155.602 246.63L160.783 239.702C160.964 239.461 161.385 239.401 161.626 239.582C161.867 239.762 161.927 240.184 161.747 240.425L156.566 247.353C156.445 247.533 156.265 247.594 156.084 247.594Z" fill="#3BD1D1"/>
<path d="M201.145 186.138L278.735 234.451L330.361 148.789C330.361 148.789 286.687 119.331 272.711 117.945L201.145 186.138Z" fill="white"/>
<path d="M354.578 123.782C354.578 123.782 374.217 97.4566 382.831 87.3361C391.867 76.7337 397.229 72.1554 399.879 70.9506C402.048 69.9868 404.157 72.3964 403.494 74.1434C404.036 74.0831 405.723 74.2639 406.626 75.5892C407.891 77.5169 406.626 78.9627 406.626 79.1434C406.807 79.0831 408.916 78.7819 410 79.9265C411.205 81.1916 411.145 82.6976 410.602 83.9627C411.084 83.9024 413.072 83.9024 414.036 84.9868C415.301 86.4928 414.578 88.4807 413.554 89.6855C411.626 91.9145 406.145 97.8181 403.675 101.312C398.795 108.18 385.903 136.734 374.94 143.059C355.241 154.264 349.458 130.649 354.578 123.782Z" fill="#F7AFBC"/>
<path d="M394.578 97.518C394.518 97.518 394.458 97.518 394.337 97.4578C394.036 97.3373 393.855 96.9758 393.976 96.6746C395.06 93.9638 394.819 91.5541 394.578 89.6264C394.398 87.5782 394.217 85.8312 395.964 84.9276C396.928 84.4457 397.831 83.3614 398.614 81.7951C398.795 81.4337 398.554 81.1325 398.494 81.0722C398.434 81.012 398.133 80.7108 397.771 80.8915L389.398 84.3252C389.096 84.4457 388.735 84.3252 388.615 84.024C388.494 83.7228 388.615 83.3614 388.916 83.2409L397.289 79.8071C398.012 79.5059 398.855 79.6867 399.398 80.2891C399.94 80.8915 400.06 81.6746 399.699 82.3975C398.795 84.2047 397.711 85.4698 396.506 86.0722C395.542 86.5541 395.602 87.5782 395.783 89.5662C395.964 91.4939 396.265 94.1445 395.06 97.1565C395.06 97.3373 394.819 97.518 394.578 97.518Z" fill="#E494A2"/>
<path d="M408.795 92.9392C408.675 92.9392 408.494 92.8789 408.373 92.8187C406.867 91.4934 406.325 89.4452 406.807 87.5777H406.747C405.361 88.7223 403.313 88.6018 402.048 87.3368C400.783 86.0717 400.723 84.0235 401.867 82.6982L402.229 82.2163C401.446 82.2163 400.663 81.9753 400.06 81.3729C399.217 80.4693 398.976 79.2042 399.458 78.1199C398.494 78.3609 397.41 78.1199 396.626 77.397C395.482 76.3127 395.361 74.6259 396.325 73.4211L396.867 72.6982C397.048 72.4573 397.47 72.397 397.711 72.5777C397.952 72.7585 398.012 73.1801 397.831 73.4211L397.289 74.144C396.747 74.8067 396.807 75.8307 397.47 76.4332C398.133 77.0958 399.157 77.0958 399.819 76.5536L402.048 74.7464C402.289 74.5657 402.651 74.5657 402.831 74.8067C403.072 75.0476 403.072 75.3488 402.892 75.5898L400.783 78.1801C400.241 78.8428 400.301 79.8669 400.904 80.4693C401.566 81.132 402.651 81.132 403.313 80.5295L405 78.9633C405.241 78.7223 405.602 78.7223 405.843 78.9633C406.084 79.2042 406.084 79.5657 405.904 79.8067L402.771 83.4814C401.988 84.385 402.048 85.7103 402.892 86.5536C403.735 87.397 405.06 87.4573 405.964 86.7344L408.795 84.385C409.036 84.2042 409.397 84.2042 409.578 84.385C409.819 84.6259 409.819 84.9271 409.639 85.1681L408.554 86.6139C407.289 88.2404 407.53 90.5898 409.096 91.9151C409.337 92.1561 409.398 92.5175 409.157 92.7585C409.157 92.8789 408.976 92.9392 408.795 92.9392Z" fill="#E494A2"/>
<path d="M311.205 136.618L315.663 145.052C315.663 145.052 289.578 198.485 274.458 214.088L288.133 227.522C288.133 227.522 325.723 186.558 339.338 176.497C352.952 166.437 380.241 149.811 400.843 107.702L377.711 89.4492C377.711 89.4492 355 116.618 348.735 124.208C328.795 148.244 311.205 136.618 311.205 136.618Z" fill="#1AE3E3"/>
<path d="M289.819 221.677C289.639 221.677 289.518 221.617 289.397 221.496L280.181 211.798C279.94 211.557 279.94 211.195 280.181 210.954C280.422 210.713 280.783 210.713 281.024 210.954L290.241 220.653C290.482 220.894 290.482 221.255 290.241 221.496C290.12 221.617 290 221.677 289.819 221.677Z" fill="#AECBD3"/>
<path d="M301.988 140.722C299.096 138.554 298.494 134.457 300.602 131.506L307.59 122.048C309.759 119.156 313.855 118.554 316.807 120.662C319.698 122.831 320.301 126.927 318.192 129.879L311.205 139.337C309.036 142.289 304.939 142.891 301.988 140.722Z" fill="#F7AFBC"/>
<path d="M327.71 130.178C325.361 133.37 314.698 130.419 314.698 130.419L306.265 121.744C304.457 116.443 307.289 110.72 312.59 108.913C317.891 107.105 323.614 109.937 325.421 115.238C325.421 115.238 330.06 126.925 327.71 130.178Z" fill="#F7AFBC"/>
<path d="M325.18 118.129C325.18 118.129 328.795 120.057 328.915 120.84C329.036 121.804 326.204 123.31 326.204 123.31C326.204 123.31 325.24 118.129 325.18 118.129Z" fill="#F7AFBC"/>
<path d="M323.975 126.443C323.795 126.443 323.674 126.443 323.494 126.383C322.771 126.202 322.168 125.599 321.987 124.816C321.927 124.515 322.108 124.154 322.469 124.093C322.771 124.033 323.132 124.214 323.192 124.575C323.253 124.877 323.494 125.118 323.795 125.178C324.096 125.238 324.457 125.118 324.638 124.877C324.819 124.636 325.241 124.575 325.481 124.756C325.722 124.937 325.783 125.359 325.602 125.599C325.18 126.202 324.578 126.443 323.975 126.443Z" fill="#003C4F"/>
<path d="M323.072 132.468C319.277 132.468 314.819 131.263 314.638 131.203C314.337 131.143 314.156 130.781 314.217 130.48C314.277 130.179 314.638 129.998 314.939 130.058C315 130.058 321.084 131.745 324.879 131.203C325.18 131.143 325.542 131.384 325.542 131.685C325.602 131.986 325.361 132.348 325.06 132.348C324.397 132.408 323.735 132.468 323.072 132.468Z" fill="#003C4F"/>
<path d="M320.783 111.383C322.53 111.322 324.096 110.298 324.759 108.732C325.963 105.901 327.409 101.383 325.903 98.732C325.602 98.2501 325.301 97.9489 324.819 97.6477C322.168 96.2622 319.457 101.202 313.313 103.25C307.409 105.238 303.253 102.828 300.963 105.901C299.939 107.226 299.939 108.853 299.879 109.214C299.578 114.334 303.855 116.624 303.855 116.624C303.855 116.624 300.963 115.359 299.819 119.395C298.674 123.431 311.807 124.033 311.807 124.033L313.433 122.467L311.927 118.25C310.783 115.057 313.132 111.684 316.505 111.563L320.783 111.383Z" fill="#003C4F"/>
<path d="M304.397 122.407C304.277 124.335 305.663 126.022 307.59 126.142C309.518 126.263 311.205 124.877 311.325 122.949C311.446 121.022 310.06 119.335 308.132 119.214C306.265 119.034 304.578 120.48 304.397 122.407Z" fill="#F7AFBC"/>
<path d="M315.06 102.409C315.06 102.409 312.048 116.987 304.457 123.915C300.12 123.674 299.518 122.048 299.518 122.048C299.518 122.048 308.614 107.951 309.457 101.987C311.867 101.084 315.06 102.409 315.06 102.409Z" fill="#F18EA1"/>
<path d="M309.638 102.707C304.879 102.105 300.361 103.852 298.253 107.285C296.205 110.538 296.988 114.454 297.108 114.996C297.108 114.996 297.349 116.261 300.241 121.743C300.241 121.683 309.94 108.611 309.638 102.707Z" fill="#F18EA1"/>
<path d="M303.072 118.252C302.951 118.252 302.831 118.192 302.71 118.131C302.469 117.951 302.409 117.529 302.59 117.288C306.927 111.625 308.554 103.493 308.614 103.433C308.674 103.131 308.975 102.89 309.337 102.951C309.638 103.011 309.879 103.312 309.819 103.674C309.759 104.035 308.132 112.168 303.614 118.011C303.433 118.131 303.253 118.252 303.072 118.252Z" fill="#EA5A78"/>
<path d="M324.638 119.097C324.879 119.881 324.638 120.664 324.096 120.844C323.553 121.025 322.951 120.483 322.71 119.7C322.469 118.917 322.71 118.134 323.252 117.953C323.795 117.772 324.397 118.314 324.638 119.097Z" fill="#003C4F"/>
<path d="M320.662 116.087C320.542 116.087 320.421 116.087 320.361 116.026C320.06 115.846 320 115.484 320.18 115.183C320.421 114.822 320.662 114.52 320.963 114.219C322.168 113.195 323.493 113.496 323.734 113.556C324.036 113.617 324.277 113.978 324.156 114.279C324.096 114.581 323.734 114.822 323.433 114.701C323.373 114.701 322.53 114.52 321.747 115.123C321.506 115.303 321.325 115.544 321.204 115.785C321.024 116.026 320.843 116.087 320.662 116.087Z" fill="#003C4F"/>
<path d="M310.421 89.274C310.421 89.274 333.735 66.1415 342.59 56.2018C351.807 45.7801 355.662 39.8162 356.446 37.0451C357.108 34.756 354.397 33.009 352.771 33.9126C352.771 33.3704 352.289 31.6837 350.903 31.021C348.855 29.9969 347.59 31.4427 347.409 31.5632C347.409 31.3825 347.409 29.2138 346.144 28.3102C344.699 27.2861 343.253 27.5873 342.108 28.3102C342.108 27.8283 341.867 25.8403 340.602 25.0572C338.976 24.0331 337.048 24.9969 336.024 26.2018C334.096 28.4307 328.976 34.6957 325.903 37.6475C319.759 43.4307 293.253 60.1777 288.554 71.9246C280.12 92.8283 304.277 95.2981 310.421 89.274Z" fill="#F7AFBC"/>
<path d="M345.241 49.997C345.181 49.997 345.12 49.997 345.12 49.997C344.819 49.9368 344.578 49.5754 344.699 49.2741L346.927 40.479C347.048 40.0573 346.747 39.8163 346.626 39.7561C346.566 39.6958 346.205 39.5151 345.903 39.7561C344.458 40.7802 343.554 41.8043 343.193 42.8284C342.59 44.6958 340.783 44.7561 338.735 44.8163C336.807 44.8766 334.397 44.997 331.867 46.3826C331.566 46.5633 331.205 46.4428 331.024 46.1416C330.843 45.8404 330.964 45.479 331.265 45.2982C334.096 43.732 336.747 43.6115 338.674 43.5513C340.723 43.491 341.687 43.3705 342.048 42.3464C342.47 41.0814 343.554 39.8163 345.241 38.6717C345.903 38.25 346.747 38.25 347.349 38.6717C348.012 39.1537 348.313 39.9368 348.072 40.6597L345.843 49.4549C345.723 49.8163 345.482 49.997 345.241 49.997Z" fill="#E494A2"/>
<path d="M352.349 41.6807C351.686 41.6807 351.084 41.5 350.542 41.0783C349.698 40.4157 349.277 39.3313 349.397 38.3675C348.373 38.9699 347.108 38.9699 346.084 38.247C345.421 37.7651 345 37.0422 344.94 36.259L344.518 36.6807C343.313 38.006 341.325 38.247 339.879 37.1627C338.433 36.0783 338.072 34.0904 338.976 32.5241V32.4639C337.229 33.247 335.06 32.9458 333.554 31.6205C333.313 31.3795 333.253 31.0181 333.494 30.7771C333.735 30.5362 334.096 30.4759 334.337 30.7169C335.903 32.0422 338.253 31.9819 339.698 30.5362L340.964 29.2711C341.205 29.0301 341.506 29.0301 341.747 29.2109C341.988 29.3916 342.048 29.753 341.867 29.994L339.94 33.1265C339.337 34.0904 339.578 35.4157 340.542 36.1386C341.506 36.8615 342.771 36.6807 343.554 35.8374L346.747 32.2229C346.988 31.9819 347.349 31.9819 347.59 32.1627C347.831 32.3434 347.891 32.7048 347.711 33.006L346.385 34.8735C345.843 35.6566 346.024 36.6807 346.747 37.2229C347.47 37.7651 348.433 37.6446 349.036 37.0422L351.325 34.6325C351.566 34.3916 351.867 34.3916 352.108 34.5723C352.349 34.753 352.409 35.1145 352.289 35.3554L350.783 37.7651C350.301 38.5482 350.482 39.5121 351.205 40.0542C351.927 40.6566 352.951 40.5362 353.554 39.9337L354.156 39.2711C354.397 39.0301 354.759 39.0301 355 39.2711C355.241 39.5121 355.241 39.8735 355 40.1145L354.397 40.7771C353.915 41.3795 353.132 41.6807 352.349 41.6807Z" fill="#E494A2"/>
<path d="M316.867 43.1875L340 63.4887C340 63.4887 304.638 90.1755 294.638 124.573L297.711 128.79L290.903 128.609L223.012 186.139L205.542 162.585L215.301 154.453C215.301 154.392 281.988 66.561 316.867 43.1875Z" fill="#1AE3E3"/>
<path d="M228.193 176.141C228.012 176.141 227.831 176.021 227.711 175.9L215.542 157.828C215.361 157.527 215.422 157.165 215.723 156.984C216.024 156.804 216.385 156.864 216.566 157.165L228.735 175.237C228.916 175.539 228.855 175.9 228.554 176.081C228.434 176.081 228.313 176.141 228.193 176.141Z" fill="#AECBD3"/>
<path d="M101.807 165.485C101.627 165.485 101.506 165.425 101.386 165.305C101.145 165.064 101.145 164.702 101.386 164.461L163.976 101.871C164.217 101.63 164.579 101.63 164.82 101.871L190.964 128.015L276.145 42.7745C276.386 42.5335 276.747 42.5335 276.988 42.7745C277.229 43.0154 277.229 43.3769 276.988 43.6178L191.326 129.281C191.085 129.521 190.723 129.521 190.482 129.281L164.338 103.136L102.169 165.305C102.109 165.425 101.928 165.485 101.807 165.485Z" fill="#AECBD3"/>
<path d="M277.952 50.9039C277.892 50.9039 277.832 50.9039 277.772 50.9039C277.47 50.7834 277.29 50.4822 277.35 50.181L280.603 38.9762L269.398 42.2292C269.097 42.3497 268.735 42.1087 268.675 41.8075C268.555 41.5063 268.796 41.1449 269.097 41.0846L281.386 37.5304C281.627 37.4702 281.808 37.5304 281.989 37.7111C282.169 37.8918 282.229 38.0726 282.169 38.3135L278.615 50.6027C278.434 50.7232 278.193 50.9039 277.952 50.9039Z" fill="#26B5B5"/>
</svg>
