<svg width="34" height="40" viewBox="0 0 34 40" fill="none" xmlns="http://www.w3.org/2000/svg">
<g clip-path="url(#clip0_4227_19794)">
<path d="M2.8 40.0016C2 40.0016 1.4 39.7016 0.9 39.2016C0.4 38.7016 0 38.0016 0 37.3016V11.1016H1.6V37.2016C1.6 37.5016 1.7 37.8016 2 38.0016C2.3 38.3016 2.5 38.4016 2.8 38.4016H22.9V40.0016H2.8Z" fill="#C7FF50"/>
<path d="M31.1 32.9H9.7C8.9 32.9 8.3 32.6 7.8 32.1C7.3 31.6 7 30.9 7 30.1V2.8C7 2 7.3 1.4 7.8 0.9C8.3 0.3 8.9 0 9.7 0H25L33.8 8.9V30.2C33.8 31 33.5 31.6 33 32.2C32.5 32.8 31.9 32.9 31.1 32.9ZM24.2 9.5V1.6H9.7C9.4 1.6 9.1 1.7 8.8 2C8.6 2.2 8.4 2.5 8.4 2.8V30.2C8.4 30.5 8.5 30.8 8.8 31C9.1 31.2 9.4 31.4 9.7 31.4H31.1C31.4 31.4 31.7 31.3 31.9 31C32.1 30.7 32.3 30.5 32.3 30.2V9.5H24.2Z" fill="#26B5B5"/>
</g>
<defs>
<clipPath id="clip0_4227_19794">
<rect width="33.8" height="40" fill="white"/>
</clipPath>
</defs>
</svg>
