<svg width="37" height="37" viewBox="0 0 37 37" fill="none" xmlns="http://www.w3.org/2000/svg">
<path d="M16.3091 35.2535C15.2412 33.8662 14.3002 32.312 13.4861 30.591C12.6721 28.87 12.0256 27.0384 11.5465 25.0962H2.93622C4.2319 27.9754 6.01574 30.2723 8.28774 31.9868C10.5597 33.7012 13.2335 34.7901 16.3091 35.2535ZM2.46506 23.5256H11.2599C11.1055 22.6304 10.9982 21.7791 10.938 20.9716C10.8778 20.1641 10.8477 19.3612 10.8477 18.5628C10.8477 17.7959 10.8758 16.9943 10.9321 16.158C10.9884 15.3217 11.0937 14.4311 11.2482 13.4861H2.46506C2.20069 14.2766 2.00635 15.0926 1.88201 15.9342C1.75767 16.7757 1.6955 17.6519 1.6955 18.5628C1.6955 19.4476 1.75767 20.3048 1.88201 21.1345C2.00635 21.9643 2.20069 22.7613 2.46506 23.5256ZM2.93622 11.9156H11.5348C11.9693 9.96556 12.6171 8.09141 13.4783 6.29318C14.3394 4.49495 15.3001 2.97547 16.3602 1.73475C13.2322 2.30278 10.5427 3.42636 8.29167 5.10549C6.04059 6.78463 4.25544 9.05467 2.93622 11.9156ZM13.1681 11.9156H23.8437C23.3071 9.79018 22.6193 7.9167 21.7804 6.29517C20.9415 4.67361 19.848 3.10636 18.5 1.59342C17.1782 3.03569 16.0978 4.56694 15.2589 6.18717C14.4199 7.80744 13.723 9.71692 13.1681 11.9156ZM25.477 11.9156H34.0638C32.7681 9.15414 30.9391 6.87952 28.5768 5.09176C26.2145 3.30398 23.5858 2.1889 20.6909 1.74654C21.6201 2.9611 22.5068 4.46094 23.351 6.24607C24.1951 8.03124 24.9038 9.92109 25.477 11.9156ZM18.5 36.875C15.9558 36.875 13.566 36.4019 11.3306 35.4557C9.09523 34.5094 7.14388 33.2092 5.47651 31.5549C3.80915 29.9006 2.50039 27.9578 1.55024 25.7263C0.600079 23.4949 0.125 21.1071 0.125 18.5628C0.125 15.9924 0.600079 13.5876 1.55024 11.3483C2.50039 9.109 3.80915 7.1622 5.47651 5.50791C7.14388 3.85364 9.09523 2.54293 11.3306 1.57576C13.566 0.608586 15.9558 0.125 18.5 0.125C21.0442 0.125 23.434 0.608586 25.6694 1.57576C27.9048 2.54293 29.8561 3.85364 31.5235 5.50791C33.1908 7.1622 34.4996 9.109 35.4498 11.3483C36.3999 13.5876 36.875 15.9924 36.875 18.5628C36.875 19.0366 36.858 19.5235 36.824 20.0234C36.7899 20.5234 36.735 21.0102 36.659 21.484H35.0257C35.1095 21.0102 35.1769 20.5358 35.2279 20.0607C35.279 19.5856 35.3045 19.0863 35.3045 18.5628C35.3045 17.6519 35.2423 16.7757 35.118 15.9342C34.9937 15.0926 34.7993 14.2766 34.5349 13.4861H25.7401C25.8945 14.4808 26.0038 15.3819 26.0679 16.1894C26.132 16.9969 26.1641 17.7881 26.1641 18.5628C26.1641 18.9869 26.1556 19.4194 26.1386 19.8605C26.1216 20.3015 26.0921 20.8427 26.0502 21.484H24.4287C24.4967 20.9265 24.5412 20.4186 24.5622 19.9606C24.5831 19.5025 24.5936 19.0366 24.5936 18.5628C24.5936 17.7435 24.5635 16.9432 24.5033 16.1619C24.4431 15.3806 24.3318 14.4887 24.1696 13.4861H12.8422C12.68 14.4887 12.5687 15.3806 12.5085 16.1619C12.4483 16.9432 12.4182 17.7435 12.4182 18.5628C12.4182 19.3481 12.4483 20.1209 12.5085 20.8813C12.5687 21.6417 12.68 22.5231 12.8422 23.5256H21.484V25.0962H13.1681C13.8225 27.4912 14.5698 29.5028 15.41 31.1309C16.2503 32.759 17.2802 34.1763 18.5 35.383C19.0837 34.7653 19.621 34.1017 20.1117 33.3924C20.6025 32.683 21.0599 31.9397 21.484 31.1623V36.6473C20.984 36.7232 20.4887 36.7801 19.9979 36.8181C19.5071 36.856 19.0078 36.875 18.5 36.875Z" fill="#1AE3E3"/>
<path d="M35.5169 35.8674L28.2375 28.5881V34.9055H26.667V25.8828H35.6896V27.4534H29.3212L36.6005 34.7327L35.5169 35.8674Z" fill="#C7FF50"/>
</svg>
