<svg width="49" height="49" viewBox="0 0 49 49" fill="none" xmlns="http://www.w3.org/2000/svg">
<path d="M22.3091 41.2535C21.2412 39.8662 20.3002 38.312 19.4861 36.591C18.6721 34.87 18.0256 33.0384 17.5465 31.0962H8.93622C10.2319 33.9754 12.0157 36.2723 14.2877 37.9868C16.5597 39.7012 19.2335 40.7901 22.3091 41.2535ZM8.46506 29.5256H17.2599C17.1055 28.6304 16.9982 27.7791 16.938 26.9716C16.8778 26.1641 16.8477 25.3612 16.8477 24.5628C16.8477 23.7959 16.8758 22.9943 16.9321 22.158C16.9884 21.3217 17.0937 20.4311 17.2482 19.4861H8.46506C8.20069 20.2766 8.00635 21.0926 7.88201 21.9342C7.75767 22.7757 7.6955 23.6519 7.6955 24.5628C7.6955 25.4476 7.75767 26.3048 7.88201 27.1345C8.00635 27.9643 8.20069 28.7613 8.46506 29.5256ZM8.93622 17.9156H17.5348C17.9693 15.9656 18.6171 14.0914 19.4783 12.2932C20.3394 10.495 21.3001 8.97547 22.3602 7.73475C19.2322 8.30278 16.5427 9.42636 14.2917 11.1055C12.0406 12.7846 10.2554 15.0547 8.93622 17.9156ZM19.1681 17.9156H29.8437C29.3071 15.7902 28.6193 13.9167 27.7804 12.2952C26.9415 10.6736 25.848 9.10636 24.5 7.59342C23.1782 9.03569 22.0978 10.5669 21.2589 12.1872C20.4199 13.8074 19.723 15.7169 19.1681 17.9156ZM31.477 17.9156H40.0638C38.7681 15.1541 36.9391 12.8795 34.5768 11.0918C32.2145 9.30398 29.5858 8.1889 26.6909 7.74654C27.6201 8.9611 28.5068 10.4609 29.351 12.2461C30.1951 14.0312 30.9038 15.9211 31.477 17.9156ZM24.5 42.875C21.9558 42.875 19.566 42.4019 17.3306 41.4557C15.0952 40.5094 13.1439 39.2092 11.4765 37.5549C9.80915 35.9006 8.50039 33.9578 7.55024 31.7263C6.60008 29.4949 6.125 27.1071 6.125 24.5628C6.125 21.9924 6.60008 19.5876 7.55024 17.3483C8.50039 15.109 9.80915 13.1622 11.4765 11.5079C13.1439 9.85364 15.0952 8.54293 17.3306 7.57576C19.566 6.60859 21.9558 6.125 24.5 6.125C27.0442 6.125 29.434 6.60859 31.6694 7.57576C33.9048 8.54293 35.8561 9.85364 37.5235 11.5079C39.1908 13.1622 40.4996 15.109 41.4498 17.3483C42.3999 19.5876 42.875 21.9924 42.875 24.5628C42.875 25.0366 42.858 25.5235 42.824 26.0234C42.7899 26.5234 42.735 27.0102 42.659 27.484H41.0257C41.1095 27.0102 41.1769 26.5358 41.2279 26.0607C41.279 25.5856 41.3045 25.0863 41.3045 24.5628C41.3045 23.6519 41.2423 22.7757 41.118 21.9342C40.9937 21.0926 40.7993 20.2766 40.5349 19.4861H31.7401C31.8945 20.4808 32.0038 21.3819 32.0679 22.1894C32.132 22.9969 32.1641 23.7881 32.1641 24.5628C32.1641 24.9869 32.1556 25.4194 32.1386 25.8605C32.1216 26.3015 32.0921 26.8427 32.0502 27.484H30.4287C30.4967 26.9265 30.5412 26.4186 30.5622 25.9606C30.5831 25.5025 30.5936 25.0366 30.5936 24.5628C30.5936 23.7435 30.5635 22.9432 30.5033 22.1619C30.4431 21.3806 30.3318 20.4887 30.1696 19.4861H18.8422C18.68 20.4887 18.5687 21.3806 18.5085 22.1619C18.4483 22.9432 18.4182 23.7435 18.4182 24.5628C18.4182 25.3481 18.4483 26.1209 18.5085 26.8813C18.5687 27.6417 18.68 28.5231 18.8422 29.5256H27.484V31.0962H19.1681C19.8225 33.4912 20.5698 35.5028 21.41 37.1309C22.2503 38.759 23.2802 40.1763 24.5 41.383C25.0837 40.7653 25.621 40.1017 26.1117 39.3924C26.6025 38.683 27.0599 37.9397 27.484 37.1623V42.6473C26.984 42.7232 26.4887 42.7801 25.9979 42.8181C25.5071 42.856 25.0078 42.875 24.5 42.875Z" fill="#26B5B5"/>
<path d="M41.5178 41.8674L34.2385 34.5881V40.9055H32.668V31.8828H41.6906V33.4534H35.3222L42.6015 40.7327L41.5178 41.8674Z" fill="#C7FF50"/>
</svg>
