<svg width="52" height="48" viewBox="0 0 52 48" fill="none" xmlns="http://www.w3.org/2000/svg">
<path d="M4.90234 33.1221L19.4236 7.96875L32.0065 15.2338L17.4871 40.3872L4.90234 33.1221Z" fill="#FBBC04"/>
<path d="M46.6489 33.0336L32.1187 7.87131C30.243 4.3237 25.8478 2.96832 22.3002 4.84404C18.7526 6.71977 17.399 11.1149 19.2729 14.6625C19.3552 14.8181 19.4428 14.9701 19.5358 15.1203L34.066 40.2826C36.0257 43.7837 40.4531 45.0336 43.9542 43.0738C47.4553 41.114 48.7052 36.6867 46.7455 33.1856C46.7133 33.1284 46.6811 33.0729 46.6489 33.0175V33.0336Z" fill="#4285F4"/>
<path d="M11.2651 43.9638C15.2775 43.9638 18.5302 40.7111 18.5302 36.6987C18.5302 32.6863 15.2775 29.4336 11.2651 29.4336C7.25269 29.4336 4 32.6863 4 36.6987C4 40.7111 7.25269 43.9638 11.2651 43.9638Z" fill="#34A853"/>
</svg>
