<svg width="48" height="48" viewBox="0 0 48 48" fill="none" xmlns="http://www.w3.org/2000/svg">
<path fill-rule="evenodd" clip-rule="evenodd" d="M36.1432 14.7143C37.7211 14.7143 39.0005 13.4351 39.0005 11.8572C39.0005 10.2793 37.7211 9.00004 36.1432 9.00004C34.5653 9.00004 33.2861 10.2793 33.2861 11.8572C33.2861 13.4351 34.5653 14.7143 36.1432 14.7143ZM15.9023 13.8422L24.6674 5.07716C25.336 4.40853 26.2645 4.00002 27.286 4.00002H40.2861C40.7744 3.99832 41.2581 4.09323 41.7095 4.27928C42.1609 4.46534 42.5711 4.73886 42.9163 5.08411C43.2616 5.42935 43.5351 5.83948 43.7212 6.29089C43.9072 6.7423 44.0022 7.22606 44.0005 7.71431V20.7144C44.0005 21.7359 43.5919 22.6645 42.9047 23.333L34.153 32.0931L15.9023 13.8422Z" fill="#4285F4"/>
<path fill-rule="evenodd" clip-rule="evenodd" d="M34.153 32.0907L23.3516 42.9022C22.6644 43.5708 21.7359 43.998 20.7145 43.998C19.6931 43.998 18.7644 43.5708 18.0959 42.9022L5.09567 29.9022C4.40851 29.2336 4 28.305 4 27.2836C4 26.2436 4.42712 25.315 5.09567 24.6464L15.9022 13.8398L34.153 32.0907Z" fill="#34A853"/>
<path fill-rule="evenodd" clip-rule="evenodd" d="M11.4043 36.2107L5.09567 29.902C4.40851 29.2336 4 28.305 4 27.2836C4 26.2436 4.42712 25.315 5.09567 24.6464L15.9023 13.8398L24.8387 22.7764L11.4043 36.2107Z" fill="#FBBC05"/>
<path fill-rule="evenodd" clip-rule="evenodd" d="M42.7179 4.89968C42.0423 4.31642 41.1786 3.99692 40.2861 4.00002H27.286C26.2645 4.00002 25.336 4.40853 24.6674 5.07716L15.9023 13.8422L24.8388 22.7788L33.9405 13.677C33.5166 13.1654 33.2851 12.5216 33.2861 11.8572C33.2861 10.2793 34.5653 9.00004 36.1432 9.00004C36.8076 8.999 37.4515 9.23052 37.9631 9.65444L42.7179 4.89968Z" fill="#EA4335"/>
<path d="M24.8348 29.5955C28.0401 29.5955 30.6384 26.9971 30.6384 23.7919C30.6384 20.5866 28.0401 17.9883 24.8348 17.9883C21.6296 17.9883 19.0312 20.5866 19.0312 23.7919C19.0312 26.9971 21.6296 29.5955 24.8348 29.5955Z" fill="#4285F4"/>
<path fill-rule="evenodd" clip-rule="evenodd" d="M32.7407 22.0873H25.0219V25.399H29.4649C29.0507 27.503 27.3188 28.7107 25.0219 28.7107C22.3108 28.7107 20.127 26.451 20.127 23.6458C20.127 20.8405 22.3108 18.5808 25.0219 18.5808C26.1892 18.5808 27.2434 19.0094 28.0717 19.7107L30.4815 17.2171C29.0131 15.8924 27.1304 15.0742 25.0219 15.0742C20.4282 15.0742 16.7383 18.8925 16.7383 23.6458C16.7383 28.399 20.4282 32.2173 25.0219 32.2173C29.1637 32.2173 32.9289 29.1003 32.9289 23.6458C32.9289 23.1393 32.8536 22.5938 32.7407 22.0873Z" fill="white"/>
</svg>
