<svg width="48" height="48" viewBox="0 0 48 48" fill="none" xmlns="http://www.w3.org/2000/svg">
<path d="M34.9427 19.6366C37.3257 18.2116 40.4295 18.9595 41.8744 21.3071C43.3209 23.6547 42.5617 26.7124 40.1787 28.1358C40.1151 28.1737 40.0516 28.2099 39.988 28.2445L13.698 43.1589C11.315 44.5839 8.21123 43.836 6.7647 41.4884C5.31817 39.1408 6.07739 36.0831 8.4604 34.6581C8.52395 34.6202 8.58749 34.5839 8.65104 34.5493L34.9427 19.6366Z" fill="#81C995"/>
<path d="M16.0509 9.00312C16.0627 6.26341 13.8168 4.03112 11.0358 4.01958C10.6779 4.01794 10.3217 4.05418 9.97051 4.12667C7.61426 4.69669 5.96705 6.79224 6.0005 9.18434V38.8071L16.0409 38.9867L16.0509 9.00312Z" fill="#34A853"/>
<path d="M35.0544 28.2649C37.4842 29.5054 40.4743 28.7113 41.9425 26.4346C43.3539 24.0952 42.573 21.0705 40.1983 19.68C40.1799 19.6701 40.1632 19.6602 40.1448 19.6487L13.6792 4.708C11.3229 3.30602 8.25764 4.05067 6.83285 6.37192C6.79773 6.42958 6.76261 6.48889 6.72917 6.5482C5.33113 8.9057 6.13718 11.9354 8.53022 13.3143C8.54694 13.3242 8.56367 13.3324 8.58039 13.3423L35.0544 28.2649Z" fill="#5BB974"/>
<path d="M39.9717 28.2995L16.043 41.4675V30.1561L35.0301 19.7261C37.5469 18.3522 40.7192 19.2484 42.1139 21.7294C42.2444 21.9601 42.3547 22.2006 42.4467 22.4477C43.1591 24.7294 42.1189 27.1891 39.9717 28.2995Z" fill="#81C995"/>
<path d="M11.0319 44.0007C13.8045 44.0007 16.0521 41.7864 16.0521 39.055C16.0521 36.3236 13.8045 34.1094 11.0319 34.1094C8.25934 34.1094 6.01172 36.3236 6.01172 39.055C6.01172 41.7864 8.25934 44.0007 11.0319 44.0007Z" fill="#1E8E3E"/>
</svg>
