<svg width="209" height="209" viewBox="0 0 209 209" fill="none" xmlns="http://www.w3.org/2000/svg">
<g clip-path="url(#clip0_4240_16880)">
<path d="M104.5 209C162.214 209 209 162.214 209 104.5C209 46.7862 162.214 0 104.5 0C46.7862 0 0 46.7862 0 104.5C0 162.214 46.7862 209 104.5 209Z" fill="#E1F8FF"/>
<path d="M56.2659 52.45C56.2659 54.3156 56.4948 56.1478 56.92 57.9134L52.1775 60.6451L57.8359 70.8389L62.5784 68.1072C63.854 69.4064 65.2605 70.5391 66.8631 71.5051L65.424 76.8686L76.5118 80L77.951 74.6366C79.7826 74.6366 81.5815 74.4034 83.315 73.9703L85.997 78.8007L96.0055 73.0376L93.3235 68.2071C94.599 66.9079 95.7111 65.4755 96.6596 63.8431L101.926 65.3089L105 54.0157L99.7341 52.55C99.7341 50.6844 99.5052 48.8522 99.08 47.0866L103.823 44.3549L98.1642 34.1611L93.4216 36.8928C92.146 35.5936 90.7396 34.4609 89.1369 33.4948L90.576 28.1314L79.4882 25L78.0491 30.3634C76.2175 30.3634 74.4185 30.5966 72.685 31.0297L70.003 26.1993L59.9946 31.9624L62.6766 36.7929C61.401 38.0921 60.2889 39.5245 59.3404 41.1569L54.0745 39.6911L51 50.9842L56.2659 52.45ZM66.4379 49.252C68.2041 42.7559 74.7783 38.9582 81.1563 40.7571C87.5342 42.556 91.2629 49.252 89.4967 55.748C87.7305 62.2441 81.1563 66.0418 74.7783 64.2429C68.4331 62.444 64.6717 55.748 66.4379 49.252Z" fill="white"/>
<path d="M45.6797 108.617L88.7555 97.1484V167.077H45.6797V108.617Z" fill="#C8EBF5"/>
<rect x="52.3906" y="115.609" width="12.8668" height="7.27254" fill="white"/>
<rect x="52.3906" y="127.359" width="12.8668" height="7.27254" fill="white"/>
<rect x="44" y="165.398" width="46.9918" height="3.35656" fill="#B1DCE9"/>
<rect x="52.3906" y="139.105" width="12.8668" height="7.27254" fill="white"/>
<rect x="52.3906" y="150.852" width="12.8668" height="7.27254" fill="white"/>
<rect x="71.4102" y="115.609" width="12.8668" height="7.27254" fill="white"/>
<rect x="71.4102" y="127.359" width="12.8668" height="7.27254" fill="white"/>
<rect x="71.4102" y="139.105" width="12.8668" height="7.27254" fill="white"/>
<rect x="71.4102" y="150.852" width="12.8668" height="7.27254" fill="white"/>
<path d="M78.207 60.6208L155.661 40V165.737H78.207V60.6208Z" fill="#1AE3E3"/>
<rect x="90.2773" y="73.1953" width="23.1355" height="13.0766" fill="#C7FF50"/>
<rect x="90.2773" y="94.3203" width="23.1355" height="13.0766" fill="#C7FF50"/>
<rect x="75.1914" y="162.719" width="84.495" height="6.03536" fill="#26B5B5"/>
<rect x="90.2773" y="115.441" width="23.1355" height="13.0766" fill="#C7FF50"/>
<rect x="90.2773" y="136.566" width="23.1355" height="13.0766" fill="#C7FF50"/>
<rect x="124.48" y="73.1953" width="23.1355" height="13.0766" fill="#C7FF50"/>
<rect x="124.48" y="94.3203" width="23.1355" height="13.0766" fill="#C7FF50"/>
<rect x="124.48" y="115.441" width="23.1355" height="13.0766" fill="#C7FF50"/>
<rect x="124.48" y="136.566" width="23.1355" height="13.0766" fill="#C7FF50"/>
</g>
<defs>
<clipPath id="clip0_4240_16880">
<rect width="209" height="209" fill="white"/>
</clipPath>
</defs>
</svg>
