<svg width="209" height="209" viewBox="0 0 209 209" fill="none" xmlns="http://www.w3.org/2000/svg">
<g clip-path="url(#clip0_4240_16849)">
<path d="M104.5 209C162.214 209 209 162.214 209 104.5C209 46.7862 162.214 0 104.5 0C46.7862 0 0 46.7862 0 104.5C0 162.214 46.7862 209 104.5 209Z" fill="#E1F8FF"/>
<path d="M77.6311 53.9364C77.6311 56.3107 77.9194 58.6426 78.4549 60.8898L72.4827 64.3664L79.6081 77.3404L85.5803 73.8637C87.1866 75.5173 88.9576 76.9588 90.9758 78.1884L89.1635 85.0145L103.126 89L104.938 82.1738C107.245 82.1738 109.51 81.877 111.693 81.3259L115.07 87.4736L127.674 80.1387L124.296 73.9909C125.903 72.3374 127.303 70.5142 128.497 68.4367L135.128 70.3022L139 55.9291L132.369 54.0636C132.369 51.6893 132.081 49.3574 131.545 47.1102L137.517 43.6336L130.392 30.6596L124.42 34.1363C122.813 32.4827 121.042 31.0412 119.024 29.8116L120.836 22.9855L106.874 19L105.062 25.8262C102.755 25.8262 100.49 26.123 98.3071 26.6741L94.9297 20.5263L82.3265 27.8613L85.7038 34.0091C84.0975 35.6626 82.6972 37.4858 81.5027 39.5633L74.8716 37.6978L71 52.0709L77.6311 53.9364ZM90.4403 49.8661C92.6645 41.5984 100.943 36.765 108.975 39.0545C117.006 41.344 121.701 49.8661 119.477 58.1339C117.253 66.4016 108.975 71.235 100.943 68.9455C92.9528 66.656 88.2162 58.1339 90.4403 49.8661Z" fill="white"/>
<g clip-path="url(#clip1_4240_16849)">
<path d="M160 93H51V164H160V93Z" fill="#C7FF50"/>
<path d="M57.4297 93.4231L63.2498 58H78.5006L76.5067 93.4231C76.5067 93.4231 75.9139 102.952 66.9682 102.952C57.9686 103.006 57.4297 93.4231 57.4297 93.4231Z" fill="white"/>
<path d="M95.5859 93.4231V58H114.663V93.4231C114.663 93.4231 114.393 102.952 105.124 102.952C95.8554 102.952 95.5859 93.4231 95.5859 93.4231Z" fill="white"/>
<path d="M133.792 93.4231L133.199 58H148.989L152.815 93.4231C152.815 93.4231 152.384 101.552 144.408 102.79C136.486 104.136 134.008 96.8685 133.792 93.4231Z" fill="white"/>
<path d="M172 93.4231L164.563 58H149.043L152.869 93.4231C152.869 93.4231 152.869 102.952 162.408 102.952C171.946 102.952 172 93.4231 172 93.4231Z" fill="#1AE3E3"/>
<path d="M152.903 107.152H130V164.055H152.903V107.152Z" fill="#96C82C"/>
<path d="M78.5017 58H95.5848V93.4231C95.5848 93.4231 94.6148 102.79 86.0463 102.952C77.4778 103.113 76.5078 93.4231 76.5078 93.4231L78.5017 58Z" fill="#1AE3E3"/>
<path d="M114.715 58V93.4231C114.715 93.4231 115.146 103.113 124.253 102.952C133.361 102.79 133.792 93.4231 133.792 93.4231L133.199 58H114.715Z" fill="#1AE3E3"/>
<path d="M63.3043 58C62.4421 63.0604 61.6337 68.1747 60.7715 73.2351C59.6937 79.6953 58.562 86.1016 57.5381 92.5617C57.1609 95.0381 56.6758 97.2991 55.113 99.3449C53.3886 101.66 50.6941 102.844 47.8379 102.952C39 103.221 39 93.1539 39 93.1539L48.4846 58H63.3043Z" fill="#1AE3E3"/>
<path d="M87 111H61V135H87V111Z" fill="#B2E447"/>
<path d="M118 111H93V135H118V111Z" fill="#B2E447"/>
<path d="M149.132 140.691H148.755C148.485 140.691 148.27 140.475 148.27 140.206V135.469C148.27 135.2 148.485 134.984 148.755 134.984H149.132C149.401 134.984 149.617 135.2 149.617 135.469V140.206C149.617 140.475 149.401 140.691 149.132 140.691Z" fill="white"/>
</g>
<path d="M166 164H46V170H166V164Z" fill="#B1DCE9"/>
</g>
<defs>
<clipPath id="clip0_4240_16849">
<rect width="209" height="209" fill="white"/>
</clipPath>
<clipPath id="clip1_4240_16849">
<rect width="133" height="106" fill="white" transform="translate(39 58)"/>
</clipPath>
</defs>
</svg>
