<svg width="209" height="209" viewBox="0 0 209 209" fill="none" xmlns="http://www.w3.org/2000/svg">
<g clip-path="url(#clip0_4240_14955)">
<path d="M104.5 209C162.214 209 209 162.214 209 104.5C209 46.7862 162.214 0 104.5 0C46.7862 0 0 46.7862 0 104.5C0 162.214 46.7862 209 104.5 209Z" fill="#E1F8FF"/>
<path d="M127.241 88.4409C127.241 90.6457 127.512 92.811 128.016 94.8976L122.396 98.126L129.102 110.173L134.723 106.945C136.234 108.48 137.901 109.819 139.801 110.961L138.095 117.299L151.236 121L152.942 114.661C155.113 114.661 157.245 114.386 159.299 113.874L162.478 119.583L174.34 112.772L171.161 107.063C172.673 105.528 173.991 103.835 175.115 101.906L181.356 103.638L185 90.2913L178.759 88.5591C178.759 86.3543 178.488 84.189 177.984 82.1024L183.604 78.874L176.898 66.8268L171.277 70.0551C169.766 68.5197 168.099 67.1811 166.199 66.0394L167.905 59.7008L154.764 56L153.058 62.3386C150.887 62.3386 148.755 62.6142 146.701 63.126L143.522 57.4173L131.66 64.2283L134.839 69.937C133.327 71.4724 132.009 73.1653 130.885 75.0945L124.644 73.3622L121 86.7087L127.241 88.4409ZM139.297 84.6614C141.39 76.9842 149.182 72.4961 156.741 74.622C164.3 76.748 168.719 84.6614 166.626 92.3386C164.532 100.016 156.741 104.504 149.182 102.378C141.661 100.252 137.204 92.3386 139.297 84.6614Z" fill="white"/>
<path d="M26.5106 126.967C26.5106 128.188 26.6632 129.388 26.9467 130.543L23.785 132.331L27.5572 139.004L30.719 137.216C31.5694 138.066 32.507 138.807 33.5754 139.44L32.616 142.95L40.0079 145L40.9673 141.489C42.1884 141.489 43.3876 141.337 44.5433 141.053L46.3313 144.215L53.0036 140.443L51.2156 137.281C52.066 136.431 52.8074 135.493 53.4397 134.425L56.9503 135.384L59 127.992L55.4894 127.033C55.4894 125.812 55.3368 124.612 55.0533 123.457L58.215 121.669L54.4428 114.996L51.281 116.784C50.4307 115.934 49.493 115.193 48.4246 114.56L49.384 111.05L41.9921 109L41.0327 112.511C39.8116 112.511 38.6124 112.663 37.4567 112.947L35.6687 109.785L28.9964 113.557L30.7844 116.719C29.934 117.569 29.1926 118.507 28.5603 119.575L25.0497 118.616L23 126.008L26.5106 126.967ZM33.2919 124.874C34.4694 120.622 38.8522 118.136 43.1042 119.314C47.3562 120.491 49.8419 124.874 48.6645 129.126C47.487 133.378 43.1042 135.864 38.8522 134.686C34.6221 133.509 32.1145 129.126 33.2919 124.874Z" fill="white"/>
<path d="M106.398 147.893C107.191 165.782 98.2167 173.718 84.3274 178.267C80.939 156.96 102.674 145.207 102.674 145.207L106.398 147.893Z" fill="#AECBD3"/>
<path d="M62.3462 116.148C45.1295 121.063 40.4591 132.083 40.5201 146.705C61.7967 143.194 66.0704 118.835 66.0704 118.835L62.3462 116.148Z" fill="#AECBD3"/>
<path d="M65.2207 135.531C65.2207 135.531 43.3031 149.36 53.4377 178.451C53.4377 178.451 57.0397 172.223 65.6481 170.636C78.2553 168.286 84.6047 160.929 86.6194 150.947L65.2207 135.531Z" fill="#AECBD3"/>
<path d="M155.607 68.9827C159.117 54.9408 159.362 45.8135 156.492 34C142.511 34.8547 135.765 38.121 123.555 45.9051L139.581 57.4439L155.607 68.9827Z" fill="#C7FF50"/>
<path d="M152.398 76.6444L152.856 75.2402L118.484 50.4531L117.293 51.3384C98.7945 65.075 77.7927 88.1221 64.3308 106.804L61.6445 110.528L113.813 148.136L116.5 144.412C129.992 125.73 145.224 98.5315 152.398 76.6444Z" fill="#1AE3E3"/>
<path d="M129.037 106.745C137.06 98.7225 137.06 85.7149 129.037 77.6921C121.014 69.6693 108.007 69.6693 99.9837 77.6921C91.9608 85.7149 91.9608 98.7225 99.9837 106.745C108.007 114.768 121.014 114.768 129.037 106.745Z" fill="#C7FF50"/>
<path d="M94.6462 148.867C94.5852 148.867 94.5242 148.836 94.4631 148.806L67.1729 129.117C67.0508 129.025 67.0203 128.842 67.1118 128.689L72.7897 120.814C72.8508 120.752 72.9118 120.691 73.0034 120.691C73.0949 120.691 73.156 120.691 73.217 120.752L100.507 140.442C100.629 140.533 100.66 140.716 100.568 140.869L94.8904 148.745C94.8294 148.806 94.7684 148.867 94.6768 148.867H94.6462ZM67.7529 128.811L94.5546 148.134L99.8662 140.747L73.0644 121.424L67.7529 128.811Z" fill="#AECBD3"/>
</g>
<defs>
<clipPath id="clip0_4240_14955">
<rect width="209" height="209" fill="white"/>
</clipPath>
</defs>
</svg>
