<svg width="18" height="18" viewBox="0 0 18 18" fill="none" xmlns="http://www.w3.org/2000/svg">
<path d="M10.326 0.86185C10.1519 0.687687 9.94516 0.549532 9.71765 0.455273C9.49013 0.361015 9.24627 0.3125 9 0.3125C8.75373 0.3125 8.50987 0.361015 8.28235 0.455273C8.05484 0.549532 7.84812 0.687687 7.674 0.86185L0 8.5366V15.7516C0 16.3483 0.237053 16.9206 0.65901 17.3426C1.08097 17.7645 1.65326 18.0016 2.25 18.0016H15.75C16.3467 18.0016 16.919 17.7645 17.341 17.3426C17.7629 16.9206 18 16.3483 18 15.7516V8.5366L10.326 0.86185ZM15.75 15.7516H12V13.3651C12 12.6057 11.6983 11.8773 11.1613 11.3403C10.6243 10.8033 9.89595 10.5016 9.1365 10.5016H8.8635C8.10405 10.5016 7.37571 10.8033 6.8387 11.3403C6.30169 11.8773 6 12.6057 6 13.3651V15.7516H2.25V9.4681L9 2.7181L15.75 9.4681V15.7516Z" fill="#AECBD3"/>
</svg>
