<svg width="48" height="48" viewBox="0 0 48 48" fill="none" xmlns="http://www.w3.org/2000/svg">
<path d="M7.82377 38V28.9091H4.38115C3.47951 28.9091 2.69057 28.5801 2.01434 27.9222C1.33812 27.2644 1 26.4968 1 25.6196V21.9115C1 21.0343 1.33812 20.2667 2.01434 19.6089C2.69057 18.951 3.47951 18.622 4.38115 18.622H14.1557L23.8689 13V34.5311L14.1557 28.9091H9.66803V38H7.82377ZM28.2336 30.7033V16.8278C29.0533 17.5853 29.7193 18.5722 30.2316 19.7883C30.7439 21.0044 31 22.3301 31 23.7655C31 25.201 30.7439 26.5267 30.2316 27.7428C29.7193 28.9589 29.0533 29.9458 28.2336 30.7033ZM4.38115 20.4761C4.0123 20.4761 3.67418 20.6256 3.3668 20.9246C3.05943 21.2237 2.90574 21.5526 2.90574 21.9115V25.6196C2.90574 25.9785 3.05943 26.3074 3.3668 26.6065C3.67418 26.9055 4.0123 27.055 4.38115 27.055H14.6475L21.9631 31.3014V16.2297L14.6475 20.4761H4.38115Z" fill="#26B5B5"/>
<path d="M37.5055 25.0321V23.2107H45V25.0321H37.5055ZM40.1648 41L34.1209 36.5071L35.2692 35.05L41.3132 39.5429L40.1648 41ZM35.1484 13.0107L34 11.5536L39.9835 7L41.1319 8.51786L35.1484 13.0107Z" fill="#C7FF50"/>
</svg>
