<svg width="41" height="39" viewBox="0 0 41 39" fill="none" xmlns="http://www.w3.org/2000/svg">
<g clip-path="url(#clip0_4247_13997)">
<path d="M36.3026 31.4973C35.7431 31.5006 35.1914 31.6289 34.6878 31.8728L20.9178 18.1029C20.7988 17.9889 20.6584 17.8996 20.5047 17.84C20.2 17.7148 19.8581 17.7148 19.5533 17.84C19.3997 17.8996 19.2593 17.9889 19.1402 18.1029L5.37028 31.8728C4.63497 31.5226 3.80574 31.421 3.00761 31.5831C2.20947 31.7453 1.4857 32.1626 0.945391 32.772C0.405085 33.3814 0.0775392 34.15 0.0121331 34.9618C-0.053273 35.7736 0.147006 36.5847 0.582777 37.2727C1.01855 37.9608 1.66619 38.4885 2.42806 38.7764C3.18994 39.0643 4.02475 39.0967 4.80663 38.8687C5.58852 38.6407 6.27511 38.1648 6.76289 37.5125C7.25066 36.8603 7.51319 36.0672 7.51088 35.2527C7.50756 34.6932 7.37926 34.1415 7.13534 33.6379L18.7772 21.996V31.7226C17.942 32.0179 17.238 32.599 16.7898 33.3631C16.3415 34.1272 16.1779 35.0252 16.3277 35.8983C16.4775 36.7715 16.9311 37.5636 17.6084 38.1346C18.2858 38.7056 19.1431 39.0187 20.029 39.0187C20.9149 39.0187 21.7723 38.7056 22.4496 38.1346C23.1269 37.5636 23.5806 36.7715 23.7304 35.8983C23.8802 35.0252 23.7165 34.1272 23.2683 33.3631C22.82 32.599 22.1161 32.0179 21.2808 31.7226V21.996L32.9227 33.6379C32.5725 34.3732 32.4708 35.2024 32.633 36.0006C32.7952 36.7987 33.2125 37.5225 33.8219 38.0628C34.4313 38.6031 35.1999 38.9306 36.0117 38.996C36.8235 39.0615 37.6346 38.8612 38.3226 38.4254C39.0107 37.9896 39.5384 37.342 39.8263 36.5801C40.1142 35.8182 40.1466 34.9834 39.9186 34.2015C39.6906 33.4197 39.2146 32.7331 38.5624 32.2453C37.9102 31.7575 37.1171 31.495 36.3026 31.4973Z" fill="#26B5B5"/>
<g clip-path="url(#clip1_4247_13997)">
<path d="M22.4856 10.3398H16.513C15.5423 10.341 14.6117 10.7271 13.9253 11.4135C13.2389 12.0999 12.8527 13.0306 12.8516 14.0013V17.7262H26.147V14.0013C26.1458 13.0306 25.7597 12.0999 25.0733 11.4135C24.3869 10.7271 23.4563 10.341 22.4856 10.3398V10.3398Z" fill="#26B5B5"/>
<path d="M19.5021 8.86364C21.9498 8.86364 23.934 6.87944 23.934 4.43182C23.934 1.98419 21.9498 0 19.5021 0C17.0545 0 15.0703 1.98419 15.0703 4.43182C15.0703 6.87944 17.0545 8.86364 19.5021 8.86364Z" fill="#26B5B5"/>
</g>
</g>
<defs>
<clipPath id="clip0_4247_13997">
<rect width="40.1818" height="39" fill="white"/>
</clipPath>
<clipPath id="clip1_4247_13997">
<rect width="17.7273" height="17.7273" fill="white" transform="translate(10.6367)"/>
</clipPath>
</defs>
</svg>
