<svg width="40" height="40" viewBox="0 0 40 40" fill="none" xmlns="http://www.w3.org/2000/svg">
<path d="M40 11.7647V0H0V11.7647H17.6471V14.1176H0V25.8824H17.6471V28.2353H0V40H40V28.2353H22.3529V25.8824H40V14.1176H22.3529V11.7647H40ZM16.4706 35.2941H4.70588V32.9412H16.4706V35.2941ZM32.9412 32.9412H35.2941V35.2941H32.9412V32.9412ZM28.2353 32.9412H30.5882V35.2941H28.2353V32.9412ZM23.5294 32.9412H25.8824V35.2941H23.5294V32.9412ZM16.4706 21.1765H4.70588V18.8235H16.4706V21.1765ZM32.9412 18.8235H35.2941V21.1765H32.9412V18.8235ZM28.2353 18.8235H30.5882V21.1765H28.2353V18.8235ZM23.5294 18.8235H25.8824V21.1765H23.5294V18.8235ZM32.9412 4.70588H35.2941V7.05882H32.9412V4.70588ZM28.2353 4.70588H30.5882V7.05882H28.2353V4.70588ZM23.5294 4.70588H25.8824V7.05882H23.5294V4.70588ZM16.4706 7.05882H4.70588V4.70588H16.4706V7.05882Z" fill="#26B5B5"/>
</svg>
