<svg width="42" height="42" viewBox="0 0 42 42" fill="none" xmlns="http://www.w3.org/2000/svg">
<path d="M33.058 28.8423V31.564H29.8412V25.3607H29.8937C34.873 25.3607 38.9239 21.3097 38.9239 16.3305C38.9239 11.4019 34.9548 7.38281 30.0454 7.30144C28.9632 3.06887 25.1014 0 20.6382 0C15.2847 0 10.9294 4.35537 10.9294 9.70889C10.9294 9.7253 10.9295 9.74162 10.9295 9.75803C10.914 9.75795 10.8983 9.75786 10.8828 9.75786C6.58106 9.75786 3.08136 13.2576 3.08136 17.5593C3.08136 21.8609 6.58106 25.3606 10.8828 25.3606H12.1641V31.5639H8.94725V28.8422H1.04297V36.7465H8.94717V34.0249H14.625V25.3607H19.7722V34.0957H17.0504V42H24.9547V34.0957H22.2331V25.3607H27.3802V34.0249H33.058V36.7466H40.9623V28.8423H33.058Z" fill="#26B5B5"/>
<g clip-path="url(#clip0_4247_14039)">
<path d="M33.058 28.8423V31.564H29.8412V25.3607H29.8937C34.873 25.3607 38.9239 21.3097 38.9239 16.3305C38.9239 11.4019 34.9548 7.38281 30.0454 7.30144C28.9632 3.06887 25.1014 0 20.6382 0C15.2847 0 10.9294 4.35537 10.9294 9.70889C10.9294 9.7253 10.9295 9.74162 10.9295 9.75803C10.914 9.75795 10.8983 9.75786 10.8828 9.75786C6.58106 9.75786 3.08136 13.2576 3.08136 17.5593C3.08136 21.8609 6.58106 25.3606 10.8828 25.3606H12.1641V31.5639H8.94725V28.8422H1.04297V36.7465H8.94717V34.0249H14.625V25.3607H19.7722V34.0957H17.0504V42H24.9547V34.0957H22.2331V25.3607H27.3802V34.0249H33.058V36.7466H40.9623V28.8423H33.058Z" fill="#26B5B5"/>
</g>
<defs>
<clipPath id="clip0_4247_14039">
<rect width="42" height="25.2" fill="white"/>
</clipPath>
</defs>
</svg>
