<svg width="40" height="39" viewBox="0 0 40 39" fill="none" xmlns="http://www.w3.org/2000/svg">
<g clip-path="url(#clip0_4247_13994)">
<path d="M40 24.7647V13H0V24.7647H17.6471V27.1176H0V38.8824H17.6471V41.2353H0V53H40V41.2353H22.3529V38.8824H40V27.1176H22.3529V24.7647H40ZM16.4706 48.2941H4.70588V45.9412H16.4706V48.2941ZM32.9412 45.9412H35.2941V48.2941H32.9412V45.9412ZM28.2353 45.9412H30.5882V48.2941H28.2353V45.9412ZM23.5294 45.9412H25.8824V48.2941H23.5294V45.9412ZM16.4706 34.1765H4.70588V31.8235H16.4706V34.1765ZM32.9412 31.8235H35.2941V34.1765H32.9412V31.8235ZM28.2353 31.8235H30.5882V34.1765H28.2353V31.8235ZM23.5294 31.8235H25.8824V34.1765H23.5294V31.8235ZM32.9412 17.7059H35.2941V20.0588H32.9412V17.7059ZM28.2353 17.7059H30.5882V20.0588H28.2353V17.7059ZM23.5294 17.7059H25.8824V20.0588H23.5294V17.7059ZM16.4706 20.0588H4.70588V17.7059H16.4706V20.0588Z" fill="#26B5B5"/>
</g>
<g clip-path="url(#clip1_4247_13994)">
<path d="M40 24.7647V13H0V24.7647H17.6471V27.1176H0V38.8824H17.6471V41.2353H0V53H40V41.2353H22.3529V38.8824H40V27.1176H22.3529V24.7647H40ZM16.4706 48.2941H4.70588V45.9412H16.4706V48.2941ZM32.9412 45.9412H35.2941V48.2941H32.9412V45.9412ZM28.2353 45.9412H30.5882V48.2941H28.2353V45.9412ZM23.5294 45.9412H25.8824V48.2941H23.5294V45.9412ZM16.4706 34.1765H4.70588V31.8235H16.4706V34.1765ZM32.9412 31.8235H35.2941V34.1765H32.9412V31.8235ZM28.2353 31.8235H30.5882V34.1765H28.2353V31.8235ZM23.5294 31.8235H25.8824V34.1765H23.5294V31.8235ZM32.9412 17.7059H35.2941V20.0588H32.9412V17.7059ZM28.2353 17.7059H30.5882V20.0588H28.2353V17.7059ZM23.5294 17.7059H25.8824V20.0588H23.5294V17.7059ZM16.4706 20.0588H4.70588V17.7059H16.4706V20.0588Z" fill="#26B5B5"/>
</g>
<rect width="40" height="4" fill="#26B5B5"/>
<defs>
<clipPath id="clip0_4247_13994">
<rect width="40" height="26" fill="white" transform="translate(0 13)"/>
</clipPath>
<clipPath id="clip1_4247_13994">
<rect width="40" height="26" fill="white" transform="translate(0 13)"/>
</clipPath>
</defs>
</svg>
