<svg width="40" height="40" viewBox="0 0 40 40" fill="none" xmlns="http://www.w3.org/2000/svg">
<g clip-path="url(#clip0_4247_13908)">
<path d="M0 19.9993C0 27.9149 4.60027 34.7571 11.2724 37.9983L1.73187 11.8604C0.622533 14.3476 0 17.1 0 19.9993ZM33.5005 18.9905C33.5005 16.518 32.6124 14.8069 31.8516 13.4751C30.838 11.8268 29.8877 10.4328 29.8877 8.7844C29.8877 6.946 31.2809 5.23493 33.2456 5.23493C33.3347 5.23493 33.4191 5.24573 33.5047 5.2512C29.9471 1.99093 25.2059 0 19.9993 0C13.0123 0 6.8656 3.58533 3.2892 9.01373C3.7592 9.0292 4.2016 9.0388 4.57653 9.0388C6.66787 9.0388 9.9072 8.78453 9.9072 8.78453C10.9849 8.72107 11.1116 10.3053 10.0347 10.4328C10.0347 10.4328 8.9508 10.5596 7.74627 10.6224L15.0288 32.2861L19.4057 19.1599L16.29 10.6223C15.2123 10.5595 14.1927 10.4327 14.1927 10.4327C13.1149 10.3687 13.2409 8.72093 14.3193 8.7844C14.3193 8.7844 17.6215 9.03867 19.5867 9.03867C21.6781 9.03867 24.9173 8.7844 24.9173 8.7844C25.9951 8.72093 26.1225 10.3052 25.0448 10.4327C25.0448 10.4327 23.9597 10.5595 22.7565 10.6223L29.9836 32.1207L31.9785 25.4561C32.9927 22.8569 33.5005 20.7021 33.5005 18.9905ZM20.3508 21.7488L14.3497 39.1853C16.1416 39.7121 18.0367 40 19.9993 40C22.3288 40 24.5625 39.598 26.6411 38.8663C26.5884 38.7805 26.5385 38.6897 26.4981 38.5905L20.3508 21.7488ZM37.5492 10.4051C37.6355 11.0416 37.6841 11.7248 37.6841 12.4613C37.6841 14.49 37.3036 16.7715 36.1625 19.6244L30.0543 37.2856C36.0007 33.8189 39.9987 27.3775 39.9987 19.9995C39.9987 16.522 39.1097 13.2531 37.5492 10.4051Z" fill="#26B5B5"/>
</g>
<defs>
<clipPath id="clip0_4247_13908">
<rect width="40" height="40" fill="white"/>
</clipPath>
</defs>
</svg>
