<svg width="41" height="40" viewBox="0 0 41 40" fill="none" xmlns="http://www.w3.org/2000/svg">
<path d="M30.165 32.285L40.33 26.08C39.7933 25.4267 38.99 25 38.0817 25H22.2483C21.34 25 20.5367 25.4267 20 26.0817L30.165 32.285Z" fill="#26B5B5"/>
<path d="M30.817 34.8166C30.617 34.9382 30.3904 34.9999 30.1654 34.9999C29.9404 34.9999 29.7137 34.9382 29.5137 34.8166L19.332 28.6016V37.0832C19.332 38.6916 20.6404 39.9999 22.2487 39.9999H38.082C39.6904 39.9999 40.9987 38.6916 40.9987 37.0832V28.6016L30.817 34.8166Z" fill="#26B5B5"/>
<path d="M1 15V25H16.7333C16.7333 21.6667 16.5 21.6667 18.5 21.6667H31V15H1Z" fill="#26B5B5"/>
<path d="M15.9987 37.082V28.332H0.998737V35.4154C0.998737 37.9487 0.993927 39.9987 0.997284 39.9987H16.7321C16.2654 39.132 15.9987 38.132 15.9987 37.082Z" fill="#26B5B5"/>
<path d="M26.4167 0H5.58333C3.05 0 1 0 1 0.00335455V11.6667H31V0.00167716C31 0.00167716 28.95 0 26.4167 0ZM6.83333 8.33333C5.45 8.33333 4.33333 7.21667 4.33333 5.83333C4.33333 4.45 5.45 3.33333 6.83333 3.33333C8.21667 3.33333 9.33333 4.45 9.33333 5.83333C9.33333 7.21667 8.21667 8.33333 6.83333 8.33333ZM15.1667 8.33333C13.7833 8.33333 12.6667 7.21667 12.6667 5.83333C12.6667 4.45 13.7833 3.33333 15.1667 3.33333C16.55 3.33333 17.6667 4.45 17.6667 5.83333C17.6667 7.21667 16.55 8.33333 15.1667 8.33333ZM23.5 8.33333C22.1167 8.33333 21 7.21667 21 5.83333C21 4.45 22.1167 3.33333 23.5 3.33333C24.8833 3.33333 26 4.45 26 5.83333C26 7.21667 24.8833 8.33333 23.5 8.33333Z" fill="#26B5B5"/>
</svg>
