<svg width="80" height="80" viewBox="0 0 80 80" fill="none" xmlns="http://www.w3.org/2000/svg">
<path d="M40.2985 79.0326C23.6455 65.5041 10.5311 52.4568 0.939831 39.893C11.3009 26.1267 24.4177 13.1435 40.2989 0.946264C54.4896 11.9387 67.4063 24.9198 79.0483 39.8928C73.9264 46.3794 67.7188 53.2686 60.4222 60.5604C53.137 67.8409 46.4293 73.9973 40.2985 79.0326Z" fill="white" stroke="url(#paint0_linear_4573_40390)" stroke-width="1.5"/>
<path d="M27.5 55C26.8125 55 26.224 54.7552 25.7344 54.2656C25.2448 53.776 25 53.1875 25 52.5V27.5C25 26.8125 25.2448 26.224 25.7344 25.7344C26.224 25.2448 26.8125 25 27.5 25H52.5C53.1875 25 53.776 25.2448 54.2656 25.7344C54.7552 26.224 55 26.8125 55 27.5V52.5C55 53.1875 54.7552 53.776 54.2656 54.2656C53.776 54.7552 53.1875 55 52.5 55H27.5ZM27.5 52.5H52.5V30.8333H27.5V52.5ZM40.0017 48.125C37.7783 48.125 35.7917 47.5257 34.0417 46.327C32.2917 45.1284 31.0139 43.5728 30.2083 41.6604C31.0139 39.7479 32.2911 38.1944 34.04 37C35.7888 35.8056 37.7749 35.2083 39.9983 35.2083C42.2217 35.2083 44.2083 35.8077 45.9583 37.0063C47.7083 38.205 48.9861 39.7605 49.7917 41.673C48.9861 43.5854 47.7089 45.1389 45.96 46.3333C44.2112 47.5278 42.2251 48.125 40.0017 48.125ZM39.9951 43.75C39.415 43.75 38.9236 43.547 38.5208 43.1409C38.1181 42.7349 37.9167 42.2418 37.9167 41.6618C37.9167 41.0817 38.1197 40.5903 38.5258 40.1875C38.9318 39.7847 39.4248 39.5833 40.0049 39.5833C40.585 39.5833 41.0764 39.7864 41.4792 40.1924C41.8819 40.5984 42.0833 41.0915 42.0833 41.6716C42.0833 42.2516 41.8803 42.7431 41.4743 43.1458C41.0682 43.5486 40.5752 43.75 39.9951 43.75ZM40 45C40.9333 45 41.7222 44.6778 42.3667 44.0333C43.0111 43.3889 43.3333 42.6 43.3333 41.6667C43.3333 40.7333 43.0111 39.9444 42.3667 39.3C41.7222 38.6556 40.9333 38.3333 40 38.3333C39.0667 38.3333 38.2778 38.6556 37.6333 39.3C36.9889 39.9444 36.6667 40.7333 36.6667 41.6667C36.6667 42.6 36.9889 43.3889 37.6333 44.0333C38.2778 44.6778 39.0667 45 40 45Z" fill="#26B5B5"/>
<defs>
<linearGradient id="paint0_linear_4573_40390" x1="-1.04793e-06" y1="47.0588" x2="80" y2="43.2941" gradientUnits="userSpaceOnUse">
<stop stop-color="#26B5B5"/>
<stop offset="1" stop-color="#C7FF50"/>
</linearGradient>
</defs>
</svg>
