<svg width="80" height="80" viewBox="0 0 80 80" fill="none" xmlns="http://www.w3.org/2000/svg">
<path d="M40.2985 79.0326C23.6455 65.5041 10.5311 52.4568 0.939831 39.893C11.3009 26.1267 24.4177 13.1435 40.2989 0.946264C54.4896 11.9387 67.4063 24.9198 79.0483 39.8928C73.9264 46.3794 67.7188 53.2686 60.4222 60.5604C53.137 67.8409 46.4293 73.9973 40.2985 79.0326Z" fill="white" stroke="url(#paint0_linear_4573_40379)" stroke-width="1.5"/>
<path d="M34.4166 46.6654C31.3055 46.5033 28.6805 45.3043 26.5416 43.0681C24.4027 40.832 23.3333 38.1422 23.3333 34.9987C23.3333 31.758 24.4675 29.0033 26.736 26.7348C29.0045 24.4663 31.7592 23.332 34.9999 23.332C38.1434 23.332 40.8333 24.4015 43.0694 26.5404C45.3055 28.6793 46.5045 31.3205 46.6666 34.464L43.6041 33.4918C43.2476 31.4177 42.2754 29.692 40.6874 28.3147C39.0995 26.9374 37.2036 26.2487 34.9999 26.2487C32.5694 26.2487 30.5034 27.0994 28.802 28.8008C27.1006 30.5022 26.2499 32.5681 26.2499 34.9987C26.2499 37.17 26.9386 39.0577 28.3159 40.6619C29.6932 42.2661 31.4189 43.2464 33.493 43.6029L34.4166 46.6654Z" fill="#26B5B5"/>
<path d="M52.7479 56.6654L44.2658 48.1832L41.7856 55.6733L35.8333 35.832L55.6745 41.7844L48.1844 44.2646L56.6666 52.7467L52.7479 56.6654Z" fill="#26B5B5"/>
<defs>
<linearGradient id="paint0_linear_4573_40379" x1="-1.04793e-06" y1="47.0588" x2="80" y2="43.2941" gradientUnits="userSpaceOnUse">
<stop stop-color="#26B5B5"/>
<stop offset="1" stop-color="#C7FF50"/>
</linearGradient>
</defs>
</svg>
