<svg width="80" height="80" viewBox="0 0 80 80" fill="none" xmlns="http://www.w3.org/2000/svg">
<path d="M40.2985 79.0326C23.6455 65.5041 10.5311 52.4568 0.939831 39.893C11.3009 26.1267 24.4177 13.1435 40.2989 0.946264C54.4896 11.9387 67.4063 24.9198 79.0483 39.8928C73.9264 46.3794 67.7188 53.2686 60.4222 60.5604C53.137 67.8409 46.4293 73.9973 40.2985 79.0326Z" fill="white" stroke="url(#paint0_linear_4573_40357)" stroke-width="1.5"/>
<path d="M23.3333 48.332V25.082C23.3333 24.6931 23.5138 24.3043 23.8749 23.9154C24.236 23.5265 24.611 23.332 24.9999 23.332H46.6249C47.0416 23.332 47.4305 23.5195 47.7916 23.8945C48.1527 24.2695 48.3333 24.6654 48.3333 25.082V39.9154C48.3333 40.3043 48.1527 40.6931 47.7916 41.082C47.4305 41.4709 47.0416 41.6654 46.6249 41.6654H29.9999L23.3333 48.332Z" fill="#26B5B5"/>
<path d="M31.7083 50C31.3194 50 30.9375 49.8056 30.5625 49.4167C30.1875 49.0278 30 48.6389 30 48.25V44.1667H50.8333V30H55C55.3889 30 55.7639 30.1944 56.125 30.5833C56.4861 30.9722 56.6667 31.375 56.6667 31.7917V56.625L50.0417 50H31.7083Z" fill="#26B5B5"/>
<defs>
<linearGradient id="paint0_linear_4573_40357" x1="-1.04793e-06" y1="47.0588" x2="80" y2="43.2941" gradientUnits="userSpaceOnUse">
<stop stop-color="#26B5B5"/>
<stop offset="1" stop-color="#C7FF50"/>
</linearGradient>
</defs>
</svg>
