<svg width="80" height="80" viewBox="0 0 80 80" fill="none" xmlns="http://www.w3.org/2000/svg">
<path d="M40.2985 79.0326C23.6455 65.5041 10.5311 52.4568 0.939831 39.893C11.3009 26.1267 24.4177 13.1435 40.2989 0.946264C54.4896 11.9387 67.4063 24.9198 79.0483 39.8928C73.9264 46.3794 67.7188 53.2686 60.4222 60.5604C53.137 67.8409 46.4293 73.9973 40.2985 79.0326Z" fill="white" stroke="url(#paint0_linear_4573_40368)" stroke-width="1.5"/>
<path d="M45.9583 44.9583L47.2916 43.625L43.6249 39.9583C43.9305 39.4861 44.1874 38.9931 44.3958 38.4792C44.6041 37.9653 44.7083 37.4306 44.7083 36.875C44.7083 35.2917 44.1666 33.9583 43.0833 32.875C41.9999 31.7917 40.6666 31.25 39.0833 31.25C37.4999 31.25 36.1666 31.7917 35.0833 32.875C33.9999 33.9583 33.4583 35.2917 33.4583 36.875C33.4583 38.4583 33.9999 39.7917 35.0833 40.875C36.1666 41.9583 37.4999 42.5 39.0833 42.5C39.6944 42.5 40.2708 42.3958 40.8124 42.1875C41.3541 41.9792 41.8888 41.7222 42.4166 41.4167L45.9583 44.9583ZM39.0833 40.4167C38.111 40.4167 37.2777 40.0694 36.5833 39.375C35.8888 38.6806 35.5416 37.8472 35.5416 36.875C35.5416 35.9028 35.8888 35.0694 36.5833 34.375C37.2777 33.6806 38.111 33.3333 39.0833 33.3333C40.0555 33.3333 40.8888 33.6806 41.5833 34.375C42.2777 35.0694 42.6249 35.9028 42.6249 36.875C42.6249 37.8472 42.2777 38.6806 41.5833 39.375C40.8888 40.0694 40.0555 40.4167 39.0833 40.4167ZM25.8333 50C25.1666 50 24.5833 49.75 24.0833 49.25C23.5833 48.75 23.3333 48.1667 23.3333 47.5V27.5C23.3333 26.8333 23.5833 26.25 24.0833 25.75C24.5833 25.25 25.1666 25 25.8333 25H54.1666C54.8333 25 55.4166 25.25 55.9166 25.75C56.4166 26.25 56.6666 26.8333 56.6666 27.5V47.5C56.6666 48.1667 56.4166 48.75 55.9166 49.25C55.4166 49.75 54.8333 50 54.1666 50H25.8333Z" fill="#26B5B5"/>
<path d="M22.9167 55C22.5556 55 22.257 54.8819 22.0209 54.6458C21.7848 54.4097 21.6667 54.1111 21.6667 53.75C21.6667 53.3889 21.7848 53.0903 22.0209 52.8542C22.257 52.6181 22.5556 52.5 22.9167 52.5H57.0834C57.4445 52.5 57.7431 52.6181 57.9793 52.8542C58.2154 53.0903 58.3334 53.3889 58.3334 53.75C58.3334 54.1111 58.2154 54.4097 57.9793 54.6458C57.7431 54.8819 57.4445 55 57.0834 55H22.9167Z" fill="#26B5B5"/>
<defs>
<linearGradient id="paint0_linear_4573_40368" x1="-1.04793e-06" y1="47.0588" x2="80" y2="43.2941" gradientUnits="userSpaceOnUse">
<stop stop-color="#26B5B5"/>
<stop offset="1" stop-color="#C7FF50"/>
</linearGradient>
</defs>
</svg>
