<svg width="103" height="45" viewBox="0 0 103 45" fill="none" xmlns="http://www.w3.org/2000/svg">
<path d="M98.6389 14.2513C101.355 15.5048 102.68 17.8141 102.68 21.179C102.68 22.6965 102.349 24.016 101.686 25.2036C101.024 26.3912 100.03 27.3809 98.7714 28.1726C97.5128 28.9644 95.9891 29.5582 94.2667 30.02C92.4781 30.4819 90.557 30.6798 88.3709 30.6798H82.0113L62.0051 0H86.1185C91.3519 0 95.3267 0.659781 97.844 1.97934C100.428 3.2989 101.686 5.4102 101.686 8.37921C101.686 9.6328 101.421 10.7544 100.891 11.7441C100.361 12.6018 99.6326 13.4595 98.6389 14.2513ZM83.27 11.3482H87.046C89.0333 11.3482 90.3582 11.1503 91.0207 10.8204C91.6832 10.4245 92.0144 9.76475 92.0144 8.84106C92.0144 8.04932 91.6169 7.5215 90.8882 7.12563C90.1595 6.72976 88.6359 6.53183 86.3835 6.53183H83.2037V11.3482H83.27ZM83.27 17.8801V23.8181H87.5759C89.5633 23.8181 90.9545 23.5542 91.7494 23.0923C92.5443 22.6305 92.9418 21.8387 92.9418 20.7171C92.9418 18.8037 91.0207 17.8141 87.2447 17.8141H83.27V17.8801Z" fill="white"/>
<path d="M56.5742 6.52344L42.6626 30.5394H57.7004H72.6719L56.5742 6.52344Z" fill="#1AE3E3"/>
<path d="M43.3916 0H51.2085L33.5872 30.5478L25.6377 17.1543L17.622 30.5478L13.9785 23.8841L27.6914 0H35.5083L29.5462 10.2926L33.3885 16.8904L43.3916 0Z" fill="white"/>
<path d="M0 0H19.5425L9.7381 16.8904L0 0Z" fill="white"/>
<path fill-rule="evenodd" clip-rule="evenodd" d="M33.7073 37.5431L34.0385 37.873C34.1047 37.906 34.1544 37.9555 34.2041 38.005L34.2041 38.005C34.2537 38.0545 34.3034 38.1039 34.3697 38.1369C34.4772 38.0655 34.5848 37.9747 34.7029 37.8751L34.7029 37.8751L34.7029 37.8751L34.7031 37.8749C34.8031 37.7906 34.9106 37.6998 35.0321 37.6091C35.1314 37.5101 35.2308 37.3947 35.3301 37.2792C35.4295 37.1638 35.5289 37.0483 35.6282 36.9493L35.6282 36.9493C35.4295 36.7514 35.2308 36.5534 35.0321 36.2895C34.8333 36.0916 34.5684 35.8937 34.3697 35.7617C34.3422 35.789 34.3034 35.8164 34.258 35.8484C34.1937 35.8937 34.1161 35.9483 34.0385 36.0256C33.9529 36.0682 33.895 36.1384 33.829 36.2182L33.829 36.2182C33.7928 36.262 33.7542 36.3088 33.7073 36.3555L33.3761 36.6854C33.2436 36.8174 33.1774 36.8833 33.1111 37.0153C33.1442 37.0813 33.1939 37.1308 33.2436 37.1802C33.2933 37.2297 33.343 37.2792 33.3761 37.3452C33.4423 37.3452 33.5748 37.4112 33.7073 37.5431ZM28.6076 38.5267C29.005 38.3947 29.4687 38.3288 29.9986 38.3288V36.0195H32.1183V43.8709H29.9324V42.7493C29.7337 43.2111 29.4687 43.541 29.2038 43.739C28.9388 43.9369 28.6076 44.0029 28.2764 44.0029C28.0114 44.0029 27.7465 43.9369 27.5478 43.8049C27.349 43.673 27.1503 43.4751 27.0178 43.2771C26.8854 43.0132 26.7529 42.7493 26.6866 42.4854C26.6204 42.2215 26.5542 41.8916 26.5542 41.5617C26.5542 40.9679 26.6204 40.4401 26.8191 40.0442C27.0178 39.6483 27.2166 39.3184 27.5478 39.0545C27.8127 38.7906 28.2102 38.6587 28.6076 38.5267ZM29.7999 41.7596C29.8662 41.5617 29.9324 41.3637 29.9986 41.0339C30.0649 40.77 30.1311 40.3741 30.1973 39.9122H29.9324H29.7337C29.4687 39.9122 29.27 39.9122 29.1375 39.9782C29.005 39.9782 28.8726 40.0442 28.8063 40.1102C28.7401 40.1762 28.6738 40.3081 28.6738 40.3741C28.6076 40.4401 28.6076 40.572 28.6076 40.704C28.6076 40.7633 28.621 40.8359 28.6357 40.9159L28.6357 40.9159L28.6357 40.9159C28.6538 41.0139 28.6738 41.1228 28.6738 41.2318C28.7042 41.3226 28.7207 41.4134 28.736 41.4978C28.754 41.5974 28.7705 41.6882 28.8063 41.7596C28.8726 41.9576 28.9388 42.0895 29.005 42.1555C29.0713 42.2215 29.2038 42.2875 29.27 42.2875C29.3362 42.2875 29.4687 42.2215 29.535 42.1555C29.6674 42.0895 29.7337 41.9576 29.7999 41.7596L29.7999 41.7596ZM16.8815 41.6341L15.6229 36.4219H13.4368L12.2443 41.6341H12.1781L11.1182 36.4219H8.79956L10.5219 43.8114H11.8469H11.8469C12.1781 43.8114 12.5093 43.8114 12.7743 43.7454C13.0393 43.6795 13.238 43.6135 13.4368 43.4815C13.6355 43.3496 13.768 43.1516 13.9005 42.8877C13.986 42.7173 14.044 42.5194 14.1099 42.2939L14.1099 42.2939C14.1461 42.1702 14.1848 42.0383 14.2317 41.8981L14.4967 40.7104L15.2254 43.8114H16.6165H16.6166C16.9478 43.8114 17.279 43.8114 17.544 43.7454C17.809 43.6795 18.0077 43.6135 18.2064 43.4815C18.4052 43.3496 18.5377 43.1516 18.6702 42.8877C18.8026 42.6238 18.8689 42.2939 18.9351 41.8981L19.9288 36.4219H17.6765L16.8815 41.6341ZM23.6389 38.3281C23.109 38.3281 22.6453 38.3941 22.2478 38.4601C21.8504 38.592 21.453 38.724 21.1218 38.9879C20.7906 39.2518 20.5919 39.5817 20.3931 39.9776C20.1944 40.3734 20.1282 40.9013 20.1282 41.4951C20.1282 41.825 20.1944 42.1548 20.2607 42.4188C20.3269 42.6827 20.4594 42.9466 20.5919 43.2105C20.7243 43.4084 20.923 43.6064 21.1218 43.7383C21.3205 43.8703 21.5854 43.9363 21.8504 43.9363C22.1816 43.9363 22.5128 43.8703 22.7778 43.6723C23.0427 43.4744 23.3077 43.1445 23.5064 42.6827V43.8043H25.6923V38.3941C25.2949 38.3281 24.8974 38.3281 24.5663 38.3281H24.5662H23.6389ZM23.5726 41.0332C23.5064 41.3631 23.4402 41.561 23.3739 41.759L23.3739 41.759C23.3077 41.9569 23.2414 42.0889 23.109 42.1548C23.0427 42.2208 22.9102 42.2868 22.844 42.2868C22.7778 42.2868 22.6453 42.2208 22.579 42.1548C22.5128 42.0889 22.4466 41.9569 22.3803 41.759C22.3445 41.6875 22.328 41.5968 22.31 41.4971C22.2947 41.4127 22.2782 41.3219 22.2478 41.2312C22.2478 41.1222 22.2278 41.0132 22.2097 40.9153C22.195 40.8353 22.1816 40.7626 22.1816 40.7033C22.1816 40.5714 22.1816 40.4394 22.2478 40.3734C22.2478 40.3075 22.3141 40.1755 22.3803 40.1095C22.4466 40.0436 22.579 39.9776 22.7115 39.9776C22.844 39.9116 23.0427 39.9116 23.3077 39.9116H23.3077H23.5064H23.7714C23.7051 40.3734 23.6389 40.7693 23.5726 41.0332ZM53.383 36.8177C53.5155 36.9497 53.6479 37.1476 53.7804 37.4115C53.8649 37.5377 53.9494 37.7175 54.051 37.9339C54.1088 38.0569 54.1721 38.1917 54.2442 38.3352L55.8341 43.8114H53.5817L53.0517 42.096H51.1306L50.6669 43.8114H48.4145H35.4967H33.3105V38.4012H35.4967V41.6341H49.0108L50.4019 36.4219H51.9256C52.2568 36.4219 52.5218 36.4219 52.7868 36.4879C52.9855 36.5538 53.1842 36.6858 53.383 36.8177ZM51.8593 38.5992L51.3956 40.5125H52.4555L51.9256 38.5992H51.8593ZM73.7206 39.9782C73.9856 39.7803 74.1843 39.5824 74.3168 39.3184C74.4493 39.0545 74.5156 38.7906 74.5156 38.4607C74.5156 37.8669 74.3168 37.3391 73.8531 36.9432C73.3894 36.5474 72.7932 36.4154 71.9982 36.4154H68.421V41.6277H58.6829V36.0195H56.4968V43.8049H58.4179H58.6829H68.421H69.7459H70.6733V42.8153C70.8721 43.2111 71.0708 43.541 71.402 43.673C71.667 43.8049 72.0645 43.9369 72.462 43.9369C72.8594 43.9369 73.1907 43.8709 73.5219 43.739L73.522 43.7389C73.7869 43.607 74.0519 43.475 74.2506 43.2771C74.4493 43.0792 74.5818 42.8813 74.7143 42.6173C74.7806 42.3534 74.8468 42.0895 74.8468 41.7596C74.8468 41.4297 74.7806 41.0998 74.5818 40.77C74.3831 40.4401 74.1181 40.1762 73.7206 39.9782ZM70.7396 38.3288H71.6008C71.7995 38.3288 71.932 38.3288 72.0645 38.3947C72.197 38.4607 72.2632 38.5927 72.2632 38.7906C72.2632 38.9472 72.2217 39.0212 72.1716 39.1107C72.1584 39.1343 72.1446 39.1589 72.1307 39.1865C71.9982 39.2525 71.8657 39.3184 71.667 39.3184H70.7396V38.3288ZM72.2632 41.8256C72.1307 41.8916 71.9982 41.9576 71.7995 41.9576H70.6071V40.9679H71.7995C71.9982 40.9679 72.1307 41.0339 72.2632 41.0998C72.3957 41.1658 72.3957 41.2978 72.3957 41.4957C72.462 41.6277 72.3957 41.7596 72.2632 41.8256ZM77.563 38.4601C77.9605 38.3941 78.4241 38.3281 78.9541 38.3281H79.8814C80.2126 38.3281 80.6101 38.3281 81.0075 38.3941V43.8043H78.8216V42.6827C78.6229 43.1445 78.3579 43.4744 78.0929 43.6723C77.828 43.8703 77.4968 43.9363 77.1656 43.9363C76.9006 43.9363 76.6357 43.8703 76.437 43.7383C76.2382 43.6064 76.0395 43.4084 75.907 43.2105L75.907 43.2104C75.7745 42.9465 75.6421 42.6826 75.5758 42.4188C75.5096 42.1548 75.4434 41.825 75.4434 41.4951C75.4434 40.9013 75.5096 40.3734 75.7083 39.9776C75.907 39.5817 76.1058 39.2518 76.437 38.9879C76.7682 38.724 77.1656 38.592 77.563 38.4601ZM78.6891 41.7589C78.7554 41.561 78.8216 41.3631 78.8878 41.0332C78.9541 40.7693 79.0203 40.3734 79.0865 39.9116H78.8216H78.6229C78.3579 39.9116 78.1592 39.9116 78.0267 39.9776C77.8942 39.9776 77.7617 40.0436 77.6955 40.1095C77.6293 40.1755 77.563 40.3075 77.563 40.3734C77.4968 40.4394 77.4968 40.5714 77.4968 40.7033C77.4968 40.7626 77.5102 40.8353 77.5249 40.9153C77.543 41.0132 77.563 41.1222 77.563 41.2312C77.5934 41.3219 77.6099 41.4127 77.6251 41.4971C77.6432 41.5968 77.6596 41.6875 77.6955 41.759C77.7617 41.9569 77.828 42.0889 77.8942 42.1548C77.9605 42.2208 78.0929 42.2868 78.1592 42.2868C78.2254 42.2868 78.3579 42.2208 78.4241 42.1548C78.5566 42.0889 78.6229 41.9569 78.6891 41.759L78.6891 41.7589ZM85.3137 38.3288C84.7838 38.3288 84.3201 38.3947 83.9227 38.5267C83.5253 38.6587 83.1278 38.7906 82.8629 39.0545C82.5317 39.3184 82.3329 39.6483 82.1342 40.0442C81.9355 40.4401 81.8693 40.9679 81.8693 41.5617C81.8693 41.8916 81.9355 42.2215 82.0017 42.4854C82.068 42.7493 82.2004 43.0132 82.3329 43.277L82.3329 43.2771C82.4654 43.4751 82.6641 43.673 82.8629 43.8049C83.0616 43.9369 83.3265 44.0029 83.5915 44.0029C83.9227 44.0029 84.2539 43.9369 84.5189 43.739C84.7838 43.541 85.0488 43.2111 85.2475 42.7493V43.8709H87.4334V36.0195H85.2475V38.3288H85.3137ZM85.3137 41.0339C85.2475 41.3637 85.1813 41.5616 85.1151 41.7595L85.115 41.7596C85.0488 41.9576 84.9825 42.0895 84.8501 42.1555C84.7838 42.2215 84.6513 42.2875 84.5851 42.2875C84.5188 42.2875 84.3864 42.2215 84.3201 42.1555C84.2539 42.0895 84.1877 41.9576 84.1214 41.7596C84.0855 41.6882 84.0691 41.5974 84.051 41.4978C84.0358 41.4134 84.0193 41.3226 83.9889 41.2318C83.9889 41.1228 83.9689 41.0139 83.9508 40.9159C83.9361 40.8359 83.9227 40.7633 83.9227 40.704C83.9227 40.572 83.9227 40.4401 83.9889 40.3741C83.9889 40.3081 84.0552 40.1762 84.1214 40.1102C84.1877 40.0442 84.3201 39.9782 84.4526 39.9782C84.5851 39.9122 84.7838 39.9122 85.0488 39.9122H85.2475H85.5125C85.4462 40.3741 85.38 40.77 85.3137 41.0339ZM91.8049 38.3281H92.7985C92.9641 38.3281 93.1463 38.3446 93.3284 38.3611C93.5106 38.3776 93.6927 38.3941 93.8583 38.3941V43.8043H91.6724V42.6827C91.4737 43.1445 91.2087 43.4744 90.9438 43.6723C90.6788 43.8703 90.3476 43.9363 90.0164 43.9363C89.7515 43.9363 89.4865 43.8703 89.2878 43.7383C89.0891 43.6064 88.8903 43.4084 88.7579 43.2105L88.7578 43.2104C88.6254 42.9465 88.4929 42.6826 88.4267 42.4188C88.3604 42.1548 88.2942 41.825 88.2942 41.4951C88.2942 40.9013 88.3604 40.3734 88.5591 39.9776C88.7579 39.5817 88.9566 39.2518 89.2878 38.9879C89.619 38.724 90.0164 38.592 90.4139 38.4601C90.8113 38.3941 91.275 38.3281 91.8049 38.3281ZM91.54 41.7589C91.6062 41.561 91.6724 41.3631 91.7387 41.0332C91.8049 40.7693 91.8711 40.3734 91.9374 39.9116H91.6724H91.4737C91.2087 39.9116 91.01 39.9116 90.8775 39.9776C90.7451 39.9776 90.6126 40.0436 90.5463 40.1095C90.4801 40.1755 90.4139 40.3075 90.4139 40.3734C90.3476 40.4394 90.3476 40.5714 90.3476 40.7033C90.3476 40.7626 90.361 40.8353 90.3757 40.9153C90.3938 41.0132 90.4139 41.1222 90.4139 41.2312C90.4442 41.3219 90.4607 41.4127 90.476 41.4971C90.494 41.5968 90.5105 41.6875 90.5463 41.759C90.6126 41.9569 90.6788 42.0889 90.7451 42.1548C90.8113 42.2208 90.9438 42.2868 91.01 42.2868C91.0763 42.2868 91.2087 42.2208 91.275 42.1548C91.4075 42.0889 91.4737 41.9569 91.5399 41.759L91.54 41.7589Z" fill="#1AE3E3"/>
</svg>
