<svg width="40" height="41" viewBox="0 0 40 41" fill="none" xmlns="http://www.w3.org/2000/svg">
<path d="M9.01796e-07 38.7781V29.8881H4.444C5.09077 29.8879 5.72971 29.7466 6.31628 29.4741C6.90285 29.2016 7.42294 28.8045 7.8403 28.3104C8.25766 27.8163 8.56225 27.2371 8.73283 26.6133C8.90342 25.9894 8.93589 25.3358 8.828 24.6981C8.614 23.6362 8.03289 22.6836 7.18661 22.0074C6.34033 21.3311 5.28296 20.9745 4.2 21.0001H9.01796e-07V12.1121C-0.000261894 11.8202 0.0570179 11.531 0.168566 11.2612C0.280115 10.9914 0.443744 10.7462 0.650102 10.5396C0.85646 10.3331 1.1015 10.1692 1.37122 10.0575C1.64093 9.94566 1.93004 9.88812 2.222 9.88812H11.112V5.44412C11.112 4.79635 11.2535 4.1564 11.5266 3.569C11.7996 2.9816 12.1977 2.46093 12.693 2.0434C13.1882 1.62586 13.7687 1.32154 14.3938 1.1517C15.0189 0.981862 15.6736 0.950608 16.312 1.06012C17.371 1.27601 18.3205 1.85712 18.9946 2.70195C19.6688 3.54677 20.0246 4.60159 20 5.68212V9.88212H28.888C29.4778 9.88212 30.0435 10.1164 30.4606 10.5335C30.8777 10.9506 31.112 11.5163 31.112 12.1061V21.0001H35.312C36.3939 20.976 37.4499 21.3332 38.2949 22.0093C39.1399 22.6854 39.7202 23.6373 39.934 24.6981C40.0419 25.3358 40.0094 25.9894 39.8388 26.6133C39.6683 27.2371 39.3637 27.8163 38.9463 28.3104C38.5289 28.8045 38.0089 29.2016 37.4223 29.4741C36.8357 29.7466 36.1968 29.8879 35.55 29.8881H31.112V38.7781C31.112 39.0701 31.0545 39.3592 30.9427 39.6289C30.8309 39.8986 30.667 40.1437 30.4605 40.35C30.2539 40.5564 30.0088 40.72 29.7389 40.8316C29.4691 40.9431 29.18 41.0004 28.888 41.0001H22.222V36.5561C22.222 35.9084 22.0805 35.2684 21.8075 34.681C21.5344 34.0936 21.1363 33.5729 20.6411 33.1554C20.1458 32.7379 19.5653 32.4335 18.9402 32.2637C18.3151 32.0939 17.6604 32.0626 17.022 32.1721C15.9619 32.3882 15.0116 32.9702 14.3374 33.8163C13.6632 34.6623 13.308 35.7186 13.334 36.8001V41.0001H2.222C1.93013 41.0004 1.64107 40.9431 1.37137 40.8315C1.10166 40.7199 0.856607 40.5563 0.650223 40.3499C0.443839 40.1435 0.280178 39.8985 0.168605 39.6288C0.057032 39.3591 -0.000262164 39.07 9.01796e-07 38.7781Z" fill="#26B5B5"/>
</svg>
