<svg width="48" height="48" viewBox="0 0 48 48" fill="none" xmlns="http://www.w3.org/2000/svg">
<g clip-path="url(#clip0_4241_14128)">
<path d="M40.875 28.1235H31.3664C30.7079 31.5931 27.6612 34.2173 24 34.2173C20.3388 34.2173 17.2921 31.5931 16.6336 28.1235H7.125C5.72569 28.1235 4.39397 27.8294 3.1875 27.3008V30.4673C3.1875 31.2439 3.81712 31.8735 4.59375 31.8735H7.43691C7.83159 33.1447 8.37047 34.3611 9.04763 35.5093L6.96328 37.5938C6.41409 38.143 6.41409 39.0333 6.96328 39.5825L11.6036 44.2228C12.1527 44.772 13.0432 44.772 13.5923 44.2228L15.8082 42.0071C16.9235 42.6063 18.0959 43.0788 19.3126 43.4192V46.5923C19.3126 47.3689 19.9422 47.9985 20.7188 47.9985H27.2813C28.058 47.9985 28.6876 47.3689 28.6876 46.5923V43.4192C29.9043 43.0787 31.0767 42.6062 32.192 42.0071L34.4078 44.2228C34.9569 44.772 35.8474 44.772 36.3966 44.2228L41.0369 39.5825C41.5861 39.0334 41.5861 38.143 41.0369 37.5938L38.9526 35.5093C39.6297 34.3611 40.1686 33.1447 40.5633 31.8735H43.4062C44.1829 31.8735 44.8125 31.2439 44.8125 30.4673V27.3008C43.606 27.8294 42.2743 28.1235 40.875 28.1235Z" fill="#26B5B5"/>
<path d="M41.4768 11.2755C40.3162 9.0555 38.0386 7.59553 35.5018 7.5045C34.6488 3.72619 31.276 0.9375 27.2812 0.9375C25.1992 0.9375 23.249 1.68394 21.7261 3.0285C19.8856 1.10813 17.3347 0 14.625 0C9.19716 0 4.78125 4.41591 4.78125 9.84375C4.78125 10.4319 4.83544 11.019 4.94297 11.6004C3.81881 11.9664 2.79806 12.6137 1.97616 13.4963C0.762281 14.7998 0.09375 16.4991 0.09375 18.2812C0.09375 22.1583 3.24797 25.3125 7.125 25.3125H22.5938V16.9887L21.2444 18.3381C20.6952 18.8873 19.8049 18.8873 19.2557 18.3381C18.7065 17.7889 18.7065 16.8985 19.2557 16.3493L23.0057 12.5993C23.5549 12.0502 24.4452 12.0502 24.9944 12.5993L28.7444 16.3493C29.2936 16.8985 29.2936 17.7889 28.7444 18.3381C28.1952 18.8873 27.3049 18.8873 26.7557 18.3381L25.4062 16.9887V25.3125H40.875C44.752 25.3125 47.9062 22.1583 47.9062 18.2812C47.9062 14.607 45.073 11.582 41.4768 11.2755Z" fill="#26B5B5"/>
</g>
<defs>
<clipPath id="clip0_4241_14128">
<rect width="48" height="48" fill="white"/>
</clipPath>
</defs>
</svg>
