<svg width="44" height="38" viewBox="0 0 44 38" fill="none" xmlns="http://www.w3.org/2000/svg">
<path d="M27.7929 35.2461C29.3356 35.2461 30.6178 36.382 30.8479 37.861H13.1562C13.3861 36.3817 14.6685 35.2461 16.2113 35.2461H27.7929Z" fill="#26B5B5"/>
<path d="M1.03132 29.7184C0.637159 29.7184 0.316406 29.3979 0.316406 29.0035V25.8516H43.6858V29.0035C43.6858 29.3979 43.3651 29.7184 42.9709 29.7184H1.03132Z" fill="#26B5B5"/>
<path d="M23.8226 30.6719L24.7656 34.2933H19.2383L20.1813 30.6719H23.8226Z" fill="#26B5B5"/>
<path d="M22.0009 9.67578C23.5674 9.67578 24.8417 10.95 24.8417 12.5165C24.8417 14.0827 23.5674 15.357 22.0009 15.357C20.4344 15.357 19.1602 14.0827 19.1602 12.5165C19.1602 10.95 20.4344 9.67578 22.0009 9.67578Z" fill="white"/>
<path d="M30.4593 11.4602V13.5739H28.8019C28.5788 13.5739 28.3857 13.7286 28.3369 13.946C28.1742 14.6708 27.8893 15.3569 27.4912 15.986C27.3718 16.1744 27.3992 16.4203 27.5567 16.5778L28.729 17.7502L27.2345 19.2449L26.0622 18.0726C25.9044 17.9151 25.6587 17.8877 25.4701 18.0071C24.841 18.4052 24.1546 18.6898 23.4301 18.8525C23.2127 18.9013 23.058 19.0947 23.058 19.3175V20.9752H20.9443V19.3175C20.9443 19.0947 20.7896 18.9013 20.5719 18.8525C19.8473 18.6898 19.1612 18.4055 18.5321 18.0071C18.3438 17.8877 18.0979 17.9151 17.9401 18.0726L16.7677 19.2449L15.2732 17.7502L16.4456 16.5778C16.6031 16.4203 16.6305 16.1744 16.5111 15.986C16.1129 15.3569 15.8281 14.6705 15.6654 13.946C15.6166 13.7286 15.4234 13.5739 15.2004 13.5739H13.543V11.4602H15.2004C15.4234 11.4602 15.6166 11.3055 15.6654 11.0878C15.8281 10.3633 16.1129 9.67685 16.5111 9.04805C16.6305 8.85944 16.6031 8.61351 16.4456 8.45596L15.2732 7.28363L16.7677 5.78885L17.9401 6.96146C18.0979 7.11902 18.3435 7.14612 18.5321 7.02697C19.1612 6.62829 19.8476 6.34396 20.5721 6.18132C20.7896 6.13248 20.9443 5.93906 20.9443 5.71629V4.05859H23.058V5.71629C23.058 5.93906 23.2127 6.13248 23.4301 6.18132C24.1549 6.34396 24.841 6.62829 25.4701 7.02697C25.6587 7.14612 25.9044 7.11902 26.0622 6.96146L27.2345 5.78885L28.729 7.28363L27.5567 8.45596C27.3992 8.61351 27.3718 8.85944 27.4912 9.04805C27.8893 9.67713 28.1742 10.3635 28.3369 11.0878C28.3857 11.3055 28.5788 11.4602 28.8019 11.4602H30.4593ZM25.7954 12.5168C25.7954 10.4248 24.0934 8.72278 22.0014 8.72278C19.9095 8.72278 18.2074 10.4248 18.2074 12.5168C18.2074 14.6087 19.9095 16.3105 22.0014 16.3105C24.0934 16.3105 25.7954 14.6087 25.7954 12.5168Z" fill="#26B5B5"/>
<path d="M43.6858 0.851637V24.8999H0.316406V0.851637C0.316406 0.457472 0.637159 0.136719 1.03132 0.136719H42.9709C43.3651 0.136719 43.6858 0.457754 43.6858 0.851637ZM31.4122 14.0519V10.9853C31.4122 10.7218 31.199 10.5087 30.9356 10.5087H29.1729C29.0133 9.93634 28.7858 9.38745 28.4935 8.86905L29.7401 7.62218C29.9262 7.43639 29.9262 7.13427 29.7401 6.94848L27.5717 4.77973C27.3856 4.59366 27.0837 4.59366 26.8977 4.77973L25.6508 6.0266C25.1324 5.73437 24.5835 5.50679 24.0115 5.34698V3.58425C24.0115 3.3211 23.7983 3.10764 23.5349 3.10764H20.4677C20.2042 3.10764 19.991 3.3211 19.991 3.58425V5.34698C19.4187 5.50707 18.8698 5.73437 18.3517 6.0266L17.1048 4.77973C16.9188 4.59366 16.6169 4.59366 16.4309 4.77973L14.2624 6.94848C14.0763 7.13427 14.0763 7.43639 14.2624 7.62218L15.509 8.86905C15.2167 9.38745 14.9892 9.93634 14.8293 10.5087H13.0666C12.8032 10.5087 12.59 10.7218 12.59 10.9853V14.0522C12.59 14.3154 12.8032 14.5288 13.0666 14.5288H14.8293C14.9889 15.1011 15.2165 15.65 15.5087 16.1682L14.2621 17.415C14.076 17.6011 14.076 17.9029 14.2621 18.089L16.4306 20.2575C16.5198 20.3467 16.6412 20.3972 16.7674 20.3972C16.8939 20.3972 17.0153 20.347 17.1045 20.2575L18.3514 19.0106C18.8698 19.3028 19.4187 19.5304 19.9908 19.6902V21.453C19.9908 21.7164 20.2039 21.9296 20.4674 21.9296H23.5343C23.7977 21.9296 24.0109 21.7164 24.0109 21.453V19.6902C24.5832 19.5301 25.1321 19.3028 25.6502 19.0106L26.8971 20.2575C26.9863 20.3467 27.1077 20.3972 27.2342 20.3972C27.3605 20.3972 27.4819 20.347 27.5711 20.2575L29.7396 18.089C29.9256 17.9029 29.9256 17.6011 29.7396 17.415L28.493 16.1682C28.7852 15.6498 29.0128 15.1009 29.1723 14.5288H30.935C31.199 14.5285 31.4122 14.3151 31.4122 14.0519Z" fill="#26B5B5"/>
</svg>
