<svg width="48" height="48" viewBox="0 0 48 48" fill="none" xmlns="http://www.w3.org/2000/svg">
<g clip-path="url(#clip0_4241_13341)">
<path d="M20.5183 12.5174L22.4005 14.3996C22.9912 14.9902 24.0009 14.5719 24.0009 13.7367V0H10.2642C9.429 0 9.01069 1.00978 9.60131 1.60041L11.507 3.50606C5.36363 7.25925 1.03866 13.6963 0.164062 21.1875H12.3346C13.33 17.0469 16.4719 13.7432 20.5183 12.5174Z" fill="#26B5B5"/>
<path d="M33.1487 33.6337C32.6497 33.1346 31.8577 33.0824 31.2985 33.5131C29.2773 35.0701 26.7494 36 24 36C18.5842 36 14.0103 32.4109 12.5174 27.4826L13.5994 26.4007C14.4852 25.5147 13.8578 24 12.605 24H0V36.605C0 37.8578 1.51472 38.4852 2.40066 37.5994L3.50606 36.494C7.72153 43.3939 15.3224 48 24 48C29.9631 48 35.4176 45.8247 39.6145 42.2248C40.2329 41.6944 40.2612 40.7462 39.6851 40.1701L33.1487 33.6337Z" fill="#26B5B5"/>
<path d="M45.5993 10.4016L44.4939 11.507C40.7407 5.36363 34.3037 1.03866 26.8125 0.164062V12.3346C30.9531 13.33 34.2568 16.4719 35.4826 20.5183L34.4006 21.6003C33.5147 22.4862 34.1422 24.0009 35.395 24.0009H46.5938C47.3704 24.0009 48 23.3713 48 22.5947V11.396C48 10.1431 46.4853 9.51572 45.5993 10.4016Z" fill="#26B5B5"/>
</g>
<defs>
<clipPath id="clip0_4241_13341">
<rect width="48" height="48" fill="white"/>
</clipPath>
</defs>
</svg>
