<svg width="48" height="48" viewBox="0 0 48 48" fill="none" xmlns="http://www.w3.org/2000/svg">
<g clip-path="url(#clip0_4241_14102)">
<path d="M38.687 45.4648C39.0986 45.4648 39.5047 45.6214 39.8136 45.9198C41.7883 47.8267 44.6689 48.4616 47.2297 47.6669C45.5817 44.2336 45.3533 40.3002 46.6304 36.6583C48.2154 32.127 48.6125 27.5853 46.8087 23.0303C45.224 19.0288 42.1659 15.7044 38.2956 13.8086C38.5337 15.078 38.6537 16.3714 38.6537 17.6784C38.6539 23.2263 36.5205 28.4443 32.647 32.3713C28.773 36.2987 23.58 38.5071 18.0247 38.5897C16.9925 38.6058 15.9651 38.5451 14.9492 38.4112C18.0023 43.7628 23.7604 47.2483 30.0879 47.3422C32.8558 47.385 35.5135 46.805 37.9886 45.6231C38.2115 45.5165 38.4502 45.4648 38.687 45.4648Z" fill="#26B5B5"/>
<path d="M18.071 0.00352683C8.21601 -0.192156 0.0238158 7.78036 5.34372e-05 17.6332C-0.00576834 20.0404 0.464133 22.3744 1.39681 24.5705C1.41035 24.6025 1.42294 24.6348 1.43435 24.6676C2.71146 28.3095 2.48322 32.2428 0.835063 35.6762C3.39605 36.4706 6.27629 35.836 8.25118 33.929C8.73772 33.4589 9.46568 33.3406 10.0761 33.6324C12.5509 34.8143 15.2089 35.396 17.9768 35.3516C27.7546 35.2064 35.4138 27.4427 35.4137 17.6767C35.4138 8.12384 27.6338 0.195764 18.071 0.00352683ZM8.26188 20.3167C6.84599 20.3167 5.69815 19.1707 5.69815 17.7572C5.69815 16.3437 6.84599 15.1978 8.26188 15.1978C9.67776 15.1978 10.8256 16.3437 10.8256 17.7572C10.8255 19.1707 9.67776 20.3167 8.26188 20.3167ZM17.7069 20.3167C16.2911 20.3167 15.1432 19.1707 15.1432 17.7572C15.1432 16.3437 16.2911 15.1978 17.7069 15.1978C19.1228 15.1978 20.2707 16.3437 20.2707 17.7572C20.2707 19.1707 19.1228 20.3167 17.7069 20.3167ZM27.1521 20.3167C25.7362 20.3167 24.5884 19.1707 24.5884 17.7572C24.5884 16.3437 25.7362 15.1978 27.1521 15.1978C28.568 15.1978 29.7159 16.3437 29.7159 17.7572C29.7159 19.1707 28.568 20.3167 27.1521 20.3167Z" fill="#26B5B5"/>
</g>
<defs>
<clipPath id="clip0_4241_14102">
<rect width="48" height="48" fill="white"/>
</clipPath>
</defs>
</svg>
