<svg width="48" height="48" viewBox="0 0 48 48" fill="none" xmlns="http://www.w3.org/2000/svg">
<g clip-path="url(#clip0_4241_14251)">
<path d="M28.5 0H5.5C2.46 0 0 2.46 0 5.5V36.5C0 39.54 2.46 42 5.5 42H15.3C15.5 41.2 15.86 40.44 16.32 39.74L26.76 22.78C28.1 20.48 30.7 19 33.5 19C33.66 19 33.84 19 34 19.02V5.5C34 2.46 31.54 0 28.5 0ZM8 8H16C17.1 8 18 8.9 18 10C18 11.1 17.1 12 16 12H8C6.9 12 6 11.1 6 10C6 8.9 6.9 8 8 8ZM18 28H8C6.9 28 6 27.1 6 26C6 24.9 6.9 24 8 24H18C19.1 24 20 24.9 20 26C20 27.1 19.1 28 18 28ZM26 20H8C6.9 20 6 19.1 6 18C6 16.9 6.9 16 8 16H26C27.1 16 28 16.9 28 18C28 19.1 27.1 20 26 20Z" fill="#26B5B5"/>
<path d="M47.414 42.048L36.858 24.9C36.168 23.728 34.88 23 33.5 23C32.12 23 30.832 23.728 30.162 24.868L19.63 41.98C19.218 42.592 19 43.322 19 44.09C19 46.246 20.76 48 22.924 48H44.076C46.24 48 48 46.246 48 44.09C48 43.322 47.782 42.592 47.414 42.048ZM33.5 44C32.396 44 31.5 43.104 31.5 42C31.5 40.896 32.396 40 33.5 40C34.604 40 35.5 40.896 35.5 42C35.5 43.104 34.604 44 33.5 44ZM35.5 37C35.5 38.104 34.606 39 33.5 39C32.394 39 31.5 38.104 31.5 37V33C31.5 31.896 32.394 31 33.5 31C34.606 31 35.5 31.896 35.5 33V37Z" fill="#26B5B5"/>
</g>
<defs>
<clipPath id="clip0_4241_14251">
<rect width="48" height="48" fill="white"/>
</clipPath>
</defs>
</svg>
