<svg width="48" height="48" viewBox="0 0 48 48" fill="none" xmlns="http://www.w3.org/2000/svg">
<path d="M16.5 9L19.5 3H18L15 9H16.5Z" fill="#26B5B5"/>
<path d="M13.5 9L16.5 3H4.5C3.67163 3 3 3.67163 3 4.5V9H13.5ZM10.5 4.5C11.3285 4.5 12 5.17154 12 6C12 6.82846 11.3285 7.5 10.5 7.5C9.67163 7.5 9 6.82846 9 6C9 5.17154 9.67163 4.5 10.5 4.5ZM6 4.5C6.82846 4.5 7.5 5.17154 7.5 6C7.5 6.82846 6.82846 7.5 6 7.5C5.17163 7.5 4.5 6.82846 4.5 6C4.5 5.17154 5.17163 4.5 6 4.5Z" fill="#26B5B5"/>
<path d="M45 9V4.5C45 3.67163 44.3284 3 43.5 3H21L18 9H45Z" fill="#26B5B5"/>
<path d="M24.75 21C22.9387 21 21.4241 19.7095 21.0754 18H16.5V23.25C16.5 23.6646 16.1646 24 15.75 24C14.5093 24 13.5 25.0093 13.5 26.25C13.5 27.4907 14.5093 28.5 15.75 28.5C16.1646 28.5 16.5 28.8354 16.5 29.25V34.5H21.75C22.1646 34.5 22.5 34.8354 22.5 35.25C22.5 36.4907 23.5093 37.5 24.75 37.5C25.9907 37.5 27 36.4907 27 35.25C27 34.8354 27.3354 34.5 27.75 34.5H33V29.9253C31.2905 29.5767 30 28.0605 30 26.25C30 24.4395 31.2905 22.9233 33 22.5747V18H28.4246C28.0759 19.7095 26.5613 21 24.75 21Z" fill="#26B5B5"/>
<path d="M3 10.5V43.5C3 44.3284 3.67163 45 4.5 45H43.5C44.3284 45 45 44.3284 45 43.5V10.5H3ZM34.5 23.25C34.5 23.6646 34.1646 24 33.75 24C32.5093 24 31.5 25.0093 31.5 26.25C31.5 27.4907 32.5093 28.5 33.75 28.5C34.1646 28.5 34.5 28.8354 34.5 29.25V35.25C34.5 35.6646 34.1646 36 33.75 36H28.4246C28.0759 37.7095 26.5613 39 24.75 39C22.9387 39 21.4241 37.7095 21.0754 36H15.75C15.3354 36 15 35.6646 15 35.25V29.9253C13.2905 29.5767 12 28.0605 12 26.25C12 24.4395 13.2905 22.9233 15 22.5747V17.25C15 16.8354 15.3354 16.5 15.75 16.5H21.75C22.1646 16.5 22.5 16.8354 22.5 17.25C22.5 18.4907 23.5093 19.5 24.75 19.5C25.9907 19.5 27 18.4907 27 17.25C27 16.8354 27.3354 16.5 27.75 16.5H33.75C34.1646 16.5 34.5 16.8354 34.5 17.25V23.25Z" fill="#26B5B5"/>
</svg>
