<svg width="48" height="44" viewBox="0 0 48 44" fill="none" xmlns="http://www.w3.org/2000/svg">
<path d="M31.8899 25.7992L33.1145 20.7146C33.1184 20.6987 33.1224 20.6829 33.1267 20.667C33.4508 19.4563 34.4044 18.5028 35.6154 18.1783L39.3306 17.1828C38.7209 16.4558 37.8067 15.9927 36.7861 15.9927H35.6902C35.4104 15.1132 35.0551 14.2559 34.6301 13.4351L35.4055 12.6598C36.7003 11.3649 36.7003 9.25799 35.4055 7.96331L33.0615 5.61906C32.4342 4.99194 31.6002 4.64647 30.7131 4.64647C29.8262 4.64647 28.9922 4.99206 28.3649 5.61928L27.5895 6.39457C26.7685 5.96966 25.9112 5.61427 25.032 5.33441V4.23871C25.032 2.40761 23.5422 0.917969 21.7111 0.917969H18.3958C16.5647 0.917969 15.075 2.40761 15.075 4.23871V5.33452C14.1956 5.61438 13.3383 5.96966 12.5174 6.39468L11.742 5.61917C11.1146 4.99206 10.2806 4.64658 9.39372 4.64658C8.5068 4.64658 7.67279 4.99217 7.04534 5.61939L4.70143 7.96342C3.40664 9.2581 3.40664 11.365 4.70143 12.6599L5.47672 13.4352C5.05169 14.256 4.69641 15.1134 4.41667 15.9928H3.32074C1.48975 15.9929 0 17.4826 0 19.3138V22.6291C0 24.4602 1.48975 25.9498 3.32086 25.9498H4.41678C4.69652 26.8294 5.05181 27.6865 5.47683 28.5074L4.70143 29.2827C3.40653 30.5776 3.40653 32.6843 4.70143 33.9795L7.04557 36.3234C7.67302 36.9507 8.50702 37.2962 9.39394 37.2962C10.2809 37.2962 11.1149 36.9506 11.7421 36.3234L12.5175 35.5481C13.3381 35.9731 14.1954 36.3282 15.0751 36.608V37.7041C15.0751 39.5352 16.5648 41.025 18.3959 41.025H21.2713C21.0052 40.391 20.8653 39.7046 20.8652 38.9964C20.865 37.5958 21.4102 36.279 22.4005 35.2888L31.8899 25.7992ZM20.0535 29.8839C15.139 29.8839 11.1408 25.8858 11.1408 20.9714C11.1408 16.0569 15.139 12.0586 20.0535 12.0586C24.9679 12.0586 28.9661 16.0569 28.9661 20.9714C28.9661 25.8858 24.9679 29.8839 20.0535 29.8839Z" fill="#26B5B5"/>
<path d="M47.3772 22.3694L47.3417 22.3338C47.237 22.229 47.0978 22.1747 46.9472 22.1701C46.7994 22.1701 46.6577 22.2286 46.5532 22.3333L44.1473 24.7393C43.7792 25.1075 43.2895 25.3103 42.7686 25.3103C42.2476 25.3103 41.7579 25.1075 41.3895 24.7389C41.021 24.3707 40.8182 23.8809 40.8182 23.36C40.8183 22.839 41.021 22.3493 41.3892 21.9811L43.7952 19.5751C43.8998 19.4705 43.9584 19.3285 43.9583 19.1808C43.9582 19.0329 43.8993 18.8912 43.7945 18.7868L43.7596 18.7519C43.3579 18.3503 42.8238 18.1289 42.2557 18.1289C42.0702 18.1289 41.8852 18.1533 41.7057 18.2013L36.765 19.5254C36.0333 19.7215 35.457 20.2977 35.2612 21.029C35.26 21.0335 35.2589 21.0379 35.2578 21.0425L33.9413 26.5085L24.1744 36.2752C23.4472 37.0023 23.0468 37.9694 23.0469 38.998C23.0471 40.0265 23.4477 40.9933 24.175 41.7207L24.4076 41.9533C25.1349 42.6807 26.102 43.0813 27.1308 43.0813C28.1592 43.0813 29.126 42.6809 29.8532 41.9538L39.6201 32.1871L45.0859 30.8707C45.0904 30.8695 45.095 30.8682 45.0995 30.8672C45.8306 30.6714 46.4068 30.0954 46.6031 29.3636L47.927 24.4225C48.1227 23.6912 47.9118 22.9043 47.3772 22.3694ZM28.6598 39.0441C28.4495 39.2546 28.1698 39.3706 27.8721 39.3706C27.5745 39.3706 27.2946 39.2546 27.0842 39.0439C26.874 38.8339 26.758 38.554 26.758 38.2565C26.7579 37.9588 26.874 37.6788 27.0845 37.4686C27.2946 37.2584 27.5745 37.1424 27.8721 37.1424C28.1698 37.1424 28.4496 37.2584 28.66 37.4688C28.8702 37.6788 28.9862 37.9586 28.9862 38.2562C28.9862 38.5539 28.8702 38.8338 28.6598 39.0441ZM35.2256 32.0843L30.6162 36.6939C30.4584 36.8516 30.2485 36.9386 30.0254 36.9386C29.8022 36.9386 29.5923 36.8516 29.4346 36.6939C29.2767 36.5361 29.1898 36.3263 29.1898 36.1031C29.1898 35.8798 29.2767 35.67 29.4346 35.5123L34.044 30.9027C34.2018 30.7448 34.4116 30.658 34.6348 30.658C34.8579 30.658 35.0678 30.7448 35.2256 30.9027C35.3834 31.0605 35.4703 31.2703 35.4703 31.4935C35.4703 31.7168 35.3834 31.9266 35.2256 32.0843Z" fill="#26B5B5"/>
</svg>
