<svg width="48" height="48" viewBox="0 0 48 48" fill="none" xmlns="http://www.w3.org/2000/svg">
<g clip-path="url(#clip0_4241_14157)">
<path d="M27.1875 0.824219V9.37572H35.7387L27.1875 0.824219Z" fill="#26B5B5"/>
<path d="M34.0789 16.875C34.9321 16.875 35.7632 16.971 36.5625 17.1518V12.1875H25.7812C25.0046 12.1875 24.375 11.5579 24.375 10.7812V0H5.15625C2.31309 0 0 2.31309 0 5.15625V42.8438C0 45.6869 2.31309 48 5.15625 48H31.4062C34.2494 48 36.5625 45.6869 36.5625 42.8438V39.0982C35.7632 39.279 34.9321 39.375 34.0789 39.375C27.8756 39.375 22.8289 34.3283 22.8289 28.125C22.8289 21.9217 27.8756 16.875 34.0789 16.875ZM19.2188 34.6875H7.03125C6.25462 34.6875 5.625 34.0579 5.625 33.2812C5.625 32.5046 6.25462 31.875 7.03125 31.875H19.2188C19.9954 31.875 20.625 32.5046 20.625 33.2812C20.625 34.0579 19.9954 34.6875 19.2188 34.6875ZM19.2188 29.0625H7.03125C6.25462 29.0625 5.625 28.4329 5.625 27.6562C5.625 26.8796 6.25462 26.25 7.03125 26.25H19.2188C19.9954 26.25 20.625 26.8796 20.625 27.6562C20.625 28.4329 19.9954 29.0625 19.2188 29.0625ZM19.2188 23.4375H7.03125C6.25462 23.4375 5.625 22.8079 5.625 22.0312C5.625 21.2546 6.25462 20.625 7.03125 20.625H19.2188C19.9954 20.625 20.625 21.2546 20.625 22.0312C20.625 22.8079 19.9954 23.4375 19.2188 23.4375ZM22.9688 17.8125H7.03125C6.25462 17.8125 5.625 17.1829 5.625 16.4062C5.625 15.6296 6.25462 15 7.03125 15H22.9688C23.7454 15 24.375 15.6296 24.375 16.4062C24.375 17.1829 23.7454 17.8125 22.9688 17.8125Z" fill="#26B5B5"/>
<path d="M47.5874 39.6456L40.9531 33.0112C41.9365 31.6315 42.5156 29.9446 42.5156 28.125C42.5156 23.4726 38.7306 19.6875 34.0781 19.6875C29.4257 19.6875 25.6406 23.4726 25.6406 28.125C25.6406 32.7774 29.4257 36.5625 34.0781 36.5625C35.8978 36.5625 37.5847 35.9834 38.9644 35L45.5986 41.6342C45.8732 41.9088 46.2331 42.0461 46.5929 42.0461C46.9527 42.0461 47.3127 41.9089 47.5872 41.6342C48.1367 41.0851 48.1367 40.1947 47.5874 39.6456Z" fill="#26B5B5"/>
</g>
<defs>
<clipPath id="clip0_4241_14157">
<rect width="48" height="48" fill="white"/>
</clipPath>
</defs>
</svg>
