<svg width="48" height="48" viewBox="0 0 48 48" fill="none" xmlns="http://www.w3.org/2000/svg">
<g clip-path="url(#clip0_4241_13241)">
<path d="M32.6319 32.168C27.6744 36.3305 22.1694 39.7205 17.2344 41.6255L20.4369 48.0005L32.0994 40.6205C32.3169 40.478 32.4969 40.3355 32.6544 40.178C35.2644 37.5605 34.0569 34.478 32.6319 32.168Z" fill="#26B5B5"/>
<path d="M7.82281 15.3456C7.66531 15.5031 7.51531 15.6906 7.37281 15.9081L0.0078125 27.5706L6.37531 30.7581C8.28031 25.8156 11.6703 20.3181 15.8328 15.3606C13.5153 13.9281 10.4328 12.7356 7.82281 15.3456Z" fill="#26B5B5"/>
<path d="M32.3709 30.36C33.5259 29.355 34.6584 28.305 35.7234 27.24C46.1859 16.7775 47.7609 3.4275 47.9934 0C44.5659 0.2325 31.2159 1.815 20.7534 12.2775C19.6809 13.3575 18.6384 14.475 17.6409 15.63C17.5959 15.6825 17.5509 15.735 17.5059 15.7875C13.0284 21 9.40594 26.8725 7.55344 32.025C7.53844 32.0775 7.51594 32.145 7.49344 32.1975C7.44094 32.355 7.38844 32.505 7.33594 32.655L8.10094 33.42L14.5659 39.885L15.3309 40.65C20.6259 38.8725 26.7834 35.13 32.2134 30.4725C32.2659 30.435 32.3184 30.3975 32.3709 30.36ZM35.8359 17.94C34.3509 17.94 32.8809 17.3775 31.7559 16.2525C29.4984 13.995 29.4984 10.335 31.7559 8.0925C34.0059 5.835 37.6659 5.835 39.9159 8.0925C42.1659 10.3425 42.1659 14.0025 39.9159 16.2525C38.7834 17.3775 37.3059 17.94 35.8359 17.94Z" fill="#26B5B5"/>
<path d="M38.8064 9.18703C38.0114 8.39203 36.9539 7.95703 35.8364 7.95703C34.7039 7.95703 33.6539 8.39203 32.8589 9.18703C32.0639 9.98203 31.6289 11.047 31.6289 12.1645C31.6289 13.2895 32.0639 14.3395 32.8589 15.1345C33.6539 15.9295 34.7114 16.3645 35.8364 16.3645C36.9614 16.3645 38.0114 15.9295 38.8064 15.1345C39.6014 14.3395 40.0364 13.282 40.0364 12.1645C40.0364 11.047 39.6014 9.98953 38.8064 9.18703Z" fill="#26B5B5"/>
<path d="M7.395 34.9219L4.5 36.3094L11.6925 43.5019L13.08 40.6144L7.395 34.9219Z" fill="#26B5B5"/>
<path d="M4.73859 38.8869C4.43109 38.5794 3.92859 38.5794 3.62109 38.8869L1.46109 41.0469C1.15359 41.3544 1.15359 41.8569 1.46109 42.1644C1.61109 42.3144 1.80609 42.3969 2.01609 42.3969C2.22609 42.3969 2.42859 42.3144 2.57109 42.1644L4.73109 40.0044C5.04609 39.6969 5.04609 39.1944 4.73859 38.8869Z" fill="#26B5B5"/>
<path d="M4.60578 43.3947C4.29828 43.0872 3.79578 43.0872 3.48828 43.3947L1.32828 45.5547C1.02078 45.8622 1.02078 46.3647 1.32828 46.6722C1.47828 46.8222 1.67328 46.9047 1.88328 46.9047C2.09328 46.9047 2.29578 46.8222 2.43828 46.6722L4.59828 44.5122C4.91328 44.1972 4.91328 43.7022 4.60578 43.3947Z" fill="#26B5B5"/>
<path d="M9.11359 43.2619C8.80609 42.9544 8.30359 42.9544 7.99609 43.2619L5.83609 45.4219C5.52859 45.7294 5.52859 46.2319 5.83609 46.5394C5.98609 46.6894 6.18109 46.7719 6.39109 46.7719C6.60109 46.7719 6.80359 46.6894 6.94609 46.5394L9.10609 44.3794C9.42109 44.0719 9.42109 43.5694 9.11359 43.2619Z" fill="#26B5B5"/>
</g>
<defs>
<clipPath id="clip0_4241_13241">
<rect width="48" height="48" fill="white"/>
</clipPath>
</defs>
</svg>
