<svg width="48" height="48" viewBox="0 0 48 48" fill="none" xmlns="http://www.w3.org/2000/svg">
<rect x="17" y="8" width="18" height="18" fill="white"/>
<path d="M24.4688 47.9993C17.6957 47.9993 10.4062 46.2388 10.4062 42.3743C10.4062 40.1702 12.8397 38.4262 17.2576 37.4648L17.8564 40.2142C14.0743 41.0367 13.2188 42.1958 13.2188 42.3743C13.2188 43.0967 17.0873 45.1868 24.4688 45.1868C31.8502 45.1868 35.7188 43.0967 35.7188 42.3743C35.7188 42.1958 34.8632 41.0367 31.0811 40.2142L31.6799 37.4648C36.0978 38.4262 38.5312 40.1702 38.5312 42.3743C38.5312 46.2388 31.2418 47.9993 24.4688 47.9993Z" fill="#26B5B5"/>
<path d="M29.3906 14.0625H27.2812V15.4688H29.3906C29.7779 15.4688 30.0938 15.1529 30.0938 14.7656C30.0938 14.3783 29.7779 14.0625 29.3906 14.0625Z" fill="#26B5B5"/>
<path d="M24.4688 0C15.9393 0 9 6.93928 9 15.4688C9 18.9707 10.203 22.4025 12.3879 25.1299L24.4688 40.4057L36.5496 25.1299C38.7345 22.4025 39.9375 18.9707 39.9375 15.4688C39.9375 6.93928 32.9982 0 24.4688 0ZM21.6562 22.5H18.8438V11.25H21.6562V22.5ZM29.3906 18.2812H27.2812V22.5H24.4688V18.2812V16.875V11.25H29.3906C31.3298 11.25 32.9062 12.8265 32.9062 14.7656C32.9062 16.7048 31.3298 18.2812 29.3906 18.2812Z" fill="#26B5B5"/>
</svg>
