<svg width="48" height="48" viewBox="0 0 48 48" fill="none" xmlns="http://www.w3.org/2000/svg">
<g clip-path="url(#clip0_4241_14210)">
<path d="M48 11.3438V4.3125C48 1.98628 46.1075 0.09375 43.7812 0.09375H4.21875C1.89253 0.09375 0 1.98628 0 4.3125V11.3438H48ZM32.4375 5.71875H40.875C41.6516 5.71875 42.2812 6.34837 42.2812 7.125C42.2812 7.90163 41.6516 8.53125 40.875 8.53125H32.4375C31.6609 8.53125 31.0312 7.90163 31.0312 7.125C31.0312 6.34837 31.6609 5.71875 32.4375 5.71875ZM18.375 5.71875C19.1516 5.71875 19.7812 6.34837 19.7812 7.125C19.7812 7.90163 19.1516 8.53125 18.375 8.53125C17.5984 8.53125 16.9688 7.90163 16.9688 7.125C16.9688 6.34837 17.5984 5.71875 18.375 5.71875ZM12.75 5.71875C13.5266 5.71875 14.1562 6.34837 14.1562 7.125C14.1562 7.90163 13.5266 8.53125 12.75 8.53125C11.9734 8.53125 11.3438 7.90163 11.3438 7.125C11.3438 6.34837 11.9734 5.71875 12.75 5.71875ZM7.125 5.71875C7.90163 5.71875 8.53125 6.34837 8.53125 7.125C8.53125 7.90163 7.90163 8.53125 7.125 8.53125C6.34837 8.53125 5.71875 7.90163 5.71875 7.125C5.71875 6.34837 6.34837 5.71875 7.125 5.71875Z" fill="#26B5B5"/>
<path d="M0 14.1562V43.6875C0 46.0137 1.89253 47.9062 4.21875 47.9062H43.7812C46.1075 47.9062 48 46.0137 48 43.6875V14.1562H0ZM16.4409 34.1519C17.0475 34.6371 17.1458 35.522 16.6606 36.1284C16.1755 36.7348 15.2904 36.8333 14.6841 36.348L7.65281 30.723C6.94978 30.1608 6.94931 29.0895 7.65281 28.5268L14.6841 22.9018C15.2903 22.4167 16.1753 22.5149 16.6606 23.1214C17.1458 23.7278 17.0475 24.6128 16.4409 25.0979L10.7824 29.625L16.4409 34.1519ZM29.5113 20.3352L21.0738 40.0227C20.7679 40.7364 19.9414 41.0674 19.2273 40.7613C18.5135 40.4554 18.1827 39.6286 18.4887 38.9148L26.9262 19.2273C27.2322 18.5135 28.0589 18.1828 28.7727 18.4887C29.4865 18.7946 29.8173 19.6213 29.5113 20.3352ZM40.3472 30.7231L33.3159 36.3481C32.7105 36.8326 31.8253 36.7358 31.3394 36.1285C30.8542 35.5221 30.9525 34.6371 31.5591 34.152L37.2176 29.625L31.5591 25.0981C30.9525 24.6129 30.8542 23.728 31.3394 23.1216C31.8245 22.5151 32.7095 22.4167 33.3159 22.902L40.3472 28.527C41.0502 29.0892 41.0507 30.1604 40.3472 30.7231Z" fill="#26B5B5"/>
<rect x="2" y="18" width="42" height="25" fill="#26B5B5"/>
<path d="M15.44 35.912C15.0453 35.912 14.6293 35.8907 14.192 35.848C13.7653 35.8053 13.3547 35.752 12.96 35.688C12.576 35.6133 12.256 35.5493 12 35.496L12.096 33.784C12.352 33.816 12.656 33.8533 13.008 33.896C13.3707 33.9387 13.7387 33.976 14.112 34.008C14.496 34.0293 14.848 34.04 15.168 34.04C15.776 34.04 16.2293 33.928 16.528 33.704C16.8267 33.48 16.976 33.1173 16.976 32.616C16.976 32.2747 16.9067 32.008 16.768 31.816C16.64 31.6133 16.448 31.464 16.192 31.368C15.9467 31.272 15.6587 31.2187 15.328 31.208H13.152V29.448H15.28C15.5253 29.448 15.76 29.3947 15.984 29.288C16.2187 29.1813 16.4053 29.0267 16.544 28.824C16.6933 28.6213 16.768 28.376 16.768 28.088C16.768 27.64 16.6293 27.3253 16.352 27.144C16.0853 26.952 15.648 26.856 15.04 26.856C14.72 26.856 14.384 26.872 14.032 26.904C13.68 26.936 13.344 26.9733 13.024 27.016C12.704 27.048 12.4373 27.0853 12.224 27.128L12.128 25.448C12.3627 25.384 12.6507 25.32 12.992 25.256C13.3333 25.1813 13.696 25.1227 14.08 25.08C14.464 25.0267 14.8267 25 15.168 25C16.0747 25 16.8053 25.096 17.36 25.288C17.9253 25.4693 18.336 25.7733 18.592 26.2C18.848 26.616 18.976 27.1653 18.976 27.848C18.976 28.2213 18.928 28.536 18.832 28.792C18.7467 29.048 18.6293 29.2667 18.48 29.448C18.3413 29.6293 18.1973 29.7787 18.048 29.896C17.8987 30.0027 17.76 30.0987 17.632 30.184C17.952 30.3333 18.2293 30.4987 18.464 30.68C18.6987 30.8613 18.88 31.1013 19.008 31.4C19.136 31.6987 19.2 32.0987 19.2 32.6C19.2 33.4 19.0613 34.0453 18.784 34.536C18.5067 35.016 18.0907 35.368 17.536 35.592C16.9813 35.8053 16.2827 35.912 15.44 35.912Z" fill="white"/>
<path d="M24.5066 35.912C23.824 35.912 23.232 35.8213 22.7306 35.64C22.2293 35.448 21.8133 35.144 21.4826 34.728C21.1626 34.3013 20.9173 33.7467 20.7466 33.064C20.5866 32.3813 20.5066 31.544 20.5066 30.552C20.5066 29.528 20.5866 28.6587 20.7466 27.944C20.9173 27.2293 21.168 26.6587 21.4986 26.232C21.8293 25.7947 22.24 25.48 22.7306 25.288C23.232 25.096 23.8186 25 24.4906 25C25.184 25 25.7813 25.096 26.2826 25.288C26.784 25.48 27.1946 25.7947 27.5146 26.232C27.8453 26.6587 28.0853 27.2293 28.2346 27.944C28.3946 28.648 28.4746 29.5173 28.4746 30.552C28.4746 31.864 28.3306 32.9147 28.0426 33.704C27.7653 34.4827 27.3333 35.048 26.7466 35.4C26.16 35.7413 25.4133 35.912 24.5066 35.912ZM24.5066 34.056C24.8053 34.056 25.0613 34.008 25.2746 33.912C25.4986 33.8053 25.6853 33.624 25.8346 33.368C25.984 33.112 26.0906 32.7547 26.1546 32.296C26.2293 31.8373 26.2666 31.256 26.2666 30.552C26.2666 29.8053 26.2293 29.192 26.1546 28.712C26.0906 28.232 25.9893 27.8587 25.8506 27.592C25.712 27.3147 25.5306 27.1227 25.3066 27.016C25.0826 26.8987 24.816 26.84 24.5066 26.84C24.1973 26.84 23.9306 26.8987 23.7066 27.016C23.4826 27.1227 23.296 27.3093 23.1466 27.576C23.008 27.8427 22.9013 28.2213 22.8266 28.712C22.752 29.192 22.7146 29.8107 22.7146 30.568C22.7146 31.272 22.752 31.8533 22.8266 32.312C22.912 32.7707 23.0293 33.128 23.1786 33.384C23.328 33.6293 23.5093 33.8053 23.7226 33.912C23.9466 34.008 24.208 34.056 24.5066 34.056Z" fill="white"/>
<path d="M33.4772 35.736V27.544L30.9812 28.984L30.2452 27.4L33.7492 25.176H35.6532V35.736H33.4772Z" fill="white"/>
</g>
<defs>
<clipPath id="clip0_4241_14210">
<rect width="48" height="48" fill="white"/>
</clipPath>
</defs>
</svg>
