<svg width="48" height="48" viewBox="0 0 48 48" fill="none" xmlns="http://www.w3.org/2000/svg">
<g clip-path="url(#clip0_4241_14149)">
<path d="M21.5127 43.5709C21.5127 45.0358 22.704 46.2272 24.169 46.2272H45.3427C46.8077 46.2272 47.9991 45.0358 47.9991 43.5709V38.2986H21.5127V43.5709ZM25.4765 41.4339H28.2029C28.5965 41.4339 28.9152 41.7526 28.9152 42.1462C28.9152 42.5398 28.5965 42.8586 28.2029 42.8586H25.4765C25.0829 42.8586 24.7642 42.5398 24.7642 42.1462C24.7651 41.7526 25.0839 41.4339 25.4765 41.4339ZM45.3437 19.7408H24.169C22.704 19.7408 21.5127 20.9322 21.5127 22.3971V27.5331H48V22.3971C48 20.9322 46.8087 19.7408 45.3437 19.7408ZM28.2029 24.4755H25.4765C25.0829 24.4755 24.7642 24.1568 24.7642 23.7632C24.7642 23.3696 25.0829 23.0509 25.4765 23.0509H28.2029C28.5965 23.0509 28.9152 23.3696 28.9152 23.7632C28.9152 24.1568 28.5965 24.4755 28.2029 24.4755ZM21.5127 36.8749H48V28.9568H21.5127V36.8749ZM25.4765 32.2429H28.2029C28.5965 32.2429 28.9152 32.5616 28.9152 32.9552C28.9152 33.3488 28.5965 33.6675 28.2029 33.6675H25.4765C25.0829 33.6675 24.7642 33.3488 24.7642 32.9552C24.7651 32.5616 25.0839 32.2429 25.4765 32.2429ZM24.169 18.3162C21.9187 18.3162 20.089 20.1469 20.089 22.3962V32.3859H13.2538V24.8067L15.9869 27.5398C16.1904 27.7434 16.4967 27.8048 16.7626 27.6944C17.0285 27.584 17.2023 27.3248 17.2023 27.0368V22.713C17.2023 22.5238 17.1274 22.3434 16.9939 22.2099L11.5171 16.7331C11.2387 16.4547 10.7885 16.4547 10.5101 16.7331L5.0333 22.2099C4.89986 22.3434 4.82498 22.5248 4.82498 22.713V27.0368C4.82498 27.3248 4.99874 27.584 5.26466 27.6944C5.53058 27.8048 5.83682 27.7434 6.04034 27.5398L8.77346 24.8067V32.1891C3.0749 31.1734 0.268818 26.3504 0.018258 21.8499C-0.221742 17.5376 1.86626 11.9648 8.54402 10.4566C8.84258 10.3894 9.06434 10.1389 9.09506 9.83456C9.66242 4.26848 14.041 1.77536 18.1277 1.77344H18.1325C22.2183 1.77344 26.5959 4.26272 27.168 9.82592C27.1891 10.0275 27.2947 10.2118 27.4599 10.3299C27.625 10.449 27.8323 10.4912 28.0311 10.447C28.8202 10.2714 29.6343 10.183 30.4503 10.183C36.8179 10.183 40.0435 14.2419 41.0381 18.3162H24.169ZM15.7776 25.3184L13.0445 22.5862C12.841 22.3827 12.5347 22.3222 12.2688 22.4317C12.0029 22.5421 11.8291 22.8013 11.8291 23.0893V38.3907H10.1962V33.0195V23.0893C10.1962 22.8013 10.0224 22.5421 9.7565 22.4317C9.49058 22.3213 9.18434 22.3827 8.98082 22.5862L6.2477 25.3184V23.0086L11.0122 18.2442L15.7767 23.0086L15.7776 25.3184Z" fill="#26B5B5"/>
<path d="M15.776 25.3203L13.0429 22.5882C12.8394 22.3847 12.5331 22.3242 12.2672 22.4336C12.0013 22.544 11.8275 22.8032 11.8275 23.0912V38.3927H10.1946V33.0215V23.0912C10.1946 22.8032 10.0208 22.544 9.75489 22.4336C9.48897 22.3232 9.18273 22.3847 8.97921 22.5882L6.24609 25.3203V23.0106L11.0106 18.2461L15.7751 23.0106L15.776 25.3203Z" fill="#26B5B5"/>
</g>
<defs>
<clipPath id="clip0_4241_14149">
<rect width="48" height="48" fill="white"/>
</clipPath>
</defs>
</svg>
