<svg width="36" height="42" viewBox="0 0 36 42" fill="none" xmlns="http://www.w3.org/2000/svg">
<path d="M9.45725 38.0391C9.41658 38.5417 9.48008 39.0472 9.64377 39.5242C9.80745 40.0011 10.0678 40.4391 10.4085 40.8108C10.7493 41.1825 11.163 41.4799 11.624 41.6844C12.0849 41.8888 12.5831 41.996 13.0873 41.9991H15.3147C16.2772 41.9983 17.2001 41.6156 17.8807 40.935C18.5613 40.2544 18.944 39.3316 18.9447 38.3691V38.0391C18.5232 38.1518 9.93966 38.1651 9.45725 38.0391Z" fill="#26B5B5"/>
<path d="M34.7244 9.88943L32.8269 9.71693C32.6578 9.14694 32.4291 8.59639 32.1444 8.07443L33.3669 6.61193C33.5835 6.3543 33.6953 6.02459 33.68 5.68832C33.6648 5.35206 33.5235 5.03385 33.2844 4.79693L32.2044 3.71693C31.9669 3.47608 31.6472 3.33377 31.3093 3.31847C30.9714 3.30317 30.6402 3.41602 30.3819 3.63443L28.9194 4.85693C28.3987 4.56965 27.8478 4.34076 27.2769 4.17443L27.1044 2.26943C27.076 1.93391 26.9219 1.6215 26.673 1.39479C26.424 1.16808 26.0986 1.04383 25.7619 1.04693H24.2394C23.9011 1.04511 23.5744 1.17059 23.3243 1.39846C23.0742 1.62632 22.919 1.9399 22.8894 2.27693L22.7169 4.17443C22.1488 4.34216 21.6006 4.57099 21.0819 4.85693L19.6119 3.63443C19.355 3.41608 19.0249 3.30318 18.6882 3.31849C18.3514 3.3338 18.0329 3.47617 17.7969 3.71693L16.7169 4.79693C16.4778 5.03385 16.3365 5.35206 16.3213 5.68832C16.306 6.02459 16.4178 6.35429 16.6344 6.61193L17.8569 8.07443C17.5722 8.59638 17.3434 9.14693 17.1744 9.71693L15.2769 9.88943C14.9415 9.91981 14.6295 10.0743 14.402 10.3226C14.1745 10.5709 14.0479 10.8952 14.0469 11.2319V12.7619C14.0454 13.0994 14.1713 13.425 14.3992 13.6738C14.6272 13.9227 14.9406 14.0764 15.2769 14.1044L17.1744 14.2769C17.3421 14.8474 17.5709 15.3981 17.8569 15.9194L16.6344 17.3819C16.4178 17.641 16.3061 17.9719 16.3214 18.3092C16.3366 18.6466 16.4778 18.966 16.7169 19.2044L17.7969 20.2769C18.032 20.5193 18.3507 20.6629 18.688 20.6782C19.0253 20.6935 19.3558 20.5795 19.6119 20.3594L21.0819 19.1369C21.5991 19.426 22.1477 19.655 22.7169 19.8194L22.8894 21.7244C22.9206 22.0602 23.0766 22.372 23.3265 22.5983C23.5765 22.8247 23.9022 22.9491 24.2394 22.9469H25.7619C26.0997 22.9497 26.4261 22.8244 26.6752 22.5961C26.9243 22.3679 27.0777 22.0537 27.1044 21.7169L27.2769 19.8194C27.849 19.6564 28.4002 19.4273 28.9194 19.1369L30.3819 20.3594C30.6392 20.5789 30.9699 20.6931 31.3078 20.6792C31.6458 20.6653 31.966 20.5243 32.2044 20.2844L33.2844 19.2044C33.5235 18.966 33.6647 18.6466 33.6799 18.3092C33.6952 17.9719 33.5835 17.641 33.3669 17.3819L32.1444 15.9194C32.4272 15.3966 32.6559 14.8462 32.8269 14.2769L34.7244 14.1044C35.0599 14.0761 35.3723 13.922 35.599 13.673C35.8257 13.4241 35.95 13.0986 35.9469 12.7619V11.2319C35.9476 10.8959 35.8225 10.5718 35.5962 10.3234C35.37 10.0749 35.059 9.92013 34.7244 9.88943ZM30.0669 11.9969C30.066 13.3413 29.5316 14.6304 28.5809 15.581C27.6303 16.5316 26.3413 17.066 24.9969 17.0669C18.2975 16.8291 18.2985 7.16856 24.997 6.92693C26.3409 6.9291 27.6292 7.46396 28.5796 8.4143C29.5299 9.36465 30.0647 10.653 30.0669 11.9969Z" fill="#26B5B5"/>
<path d="M24.9951 8.42969C20.2875 8.58152 20.2886 15.4186 24.9952 15.5697C29.7132 15.42 29.7121 8.57868 24.9951 8.42969Z" fill="#26B5B5"/>
<path d="M7.04693 31.8438V33.0212C7.04203 33.8804 7.34011 34.7138 7.88878 35.3749C8.43745 36.0361 9.20161 36.4827 10.0469 36.6362C10.1692 36.7687 17.3296 36.6799 17.6669 36.7038C18.1502 36.704 18.6288 36.6089 19.0753 36.4238C19.5218 36.2388 19.9273 35.9674 20.2687 35.6253C20.6101 35.2832 20.8807 34.8771 21.0648 34.4302C21.249 33.9834 21.3432 33.5046 21.3419 33.0212V31.8438H7.04693Z" fill="#26B5B5"/>
<path d="M21.5456 22.5432C21.4172 22.0061 21.3344 21.4592 21.2981 20.9082L20.5706 21.5157C20.0261 21.975 19.3285 22.2124 18.6168 22.1804C17.9052 22.1484 17.2317 21.8495 16.7306 21.3432L15.6581 20.2632C15.1524 19.7621 14.8533 19.0894 14.82 18.3783C14.7867 17.6672 15.0215 16.9694 15.4781 16.4232L16.0856 15.6957C16.0888 15.6783 15.1483 15.6043 15.1406 15.5982C14.4306 15.539 13.7691 15.2143 13.288 14.6887C12.807 14.1632 12.5419 13.4756 12.5456 12.7632V11.2332C12.5431 10.5211 12.8087 9.83422 13.2894 9.30896C13.7702 8.78371 14.4311 8.45858 15.1406 8.39821C15.1501 8.39051 16.0962 8.33569 16.0856 8.30076L15.4781 7.57321C15.0198 7.02775 14.7838 6.32965 14.8172 5.61801C14.8505 4.90637 15.1508 4.23341 15.6581 3.73321L16.7306 2.65321C17.2322 2.14789 17.9056 1.84966 18.6169 1.81771C19.3282 1.78575 20.0256 2.02241 20.5706 2.48071L21.2981 3.08821C21.3056 3.08821 21.3056 3.08071 21.3131 3.08071C21.3131 3.08071 21.4031 2.03821 21.4181 1.99321C18.8316 0.453531 15.8211 -0.220343 12.825 0.0696999C9.82896 0.359743 7.00369 1.59856 4.76055 3.60578C-1.51535 9.01253 -1.46929 19.4318 4.85073 24.7782C5.62141 25.4735 6.2208 26.3376 6.60199 27.303C6.98318 28.2685 7.13585 29.309 7.04805 30.3432C9.16859 30.3423 19.2215 30.3439 21.3431 30.3432C21.2691 29.2225 21.4647 28.1003 21.9136 27.0708C22.3625 26.0412 23.0516 25.1342 23.9232 24.4258C23.3889 24.3704 22.8815 24.1639 22.4604 23.8305C22.0393 23.4971 21.722 23.0505 21.5456 22.5432Z" fill="#26B5B5"/>
</svg>
