<svg width="37" height="43" viewBox="0 0 37 43" fill="none" xmlns="http://www.w3.org/2000/svg">
<path d="M13.5017 1.00176C12.912 1.03577 12.3253 1.21889 11.874 1.59969L1.19977 10.6019C0.477578 11.211 0.00390625 12.0602 0.00390625 13.0047V40.0003C0.00390625 41.6576 1.3473 43.001 3.00464 43.001H23.9995C25.6568 43.001 27.0002 41.6576 27.0002 40.0003V13.0047C27.0002 12.0602 26.5165 11.2224 25.8043 10.6019L15.4727 1.59969C14.9389 1.13481 14.2086 0.961337 13.5017 1.00176Z" fill="#26B5B5"/>
<path d="M27.0508 15.2227V38.5856L34.5655 34.2457C36.0031 33.4157 36.4929 31.5782 35.663 30.1406L27.0508 15.2227Z" fill="#26B5B5"/>
<path d="M7.47669 29.4807C7.08067 29.488 6.70358 29.6516 6.42769 29.9358C6.1518 30.2199 5.99949 30.6016 6.004 30.9977V35.5044C6.004 35.7014 6.04281 35.8965 6.11821 36.0786C6.19361 36.2606 6.30413 36.4259 6.44345 36.5653C6.58277 36.7046 6.74817 36.8151 6.93021 36.8905C7.11224 36.9659 7.30734 37.0047 7.50437 37.0047C7.7014 37.0047 7.89651 36.9659 8.07854 36.8905C8.26057 36.8151 8.42597 36.7046 8.56529 36.5653C8.70462 36.4259 8.81513 36.2606 8.89053 36.0786C8.96593 35.8965 9.00474 35.7014 9.00474 35.5044V30.9977C9.00703 30.7969 8.96899 30.5977 8.89287 30.4119C8.81674 30.2261 8.7041 30.0575 8.56159 29.916C8.41909 29.7746 8.24964 29.6631 8.06328 29.5883C7.87693 29.5136 7.67745 29.477 7.47669 29.4807Z" fill="white"/>
<path d="M13.4767 26.4768C13.0807 26.484 12.7036 26.6477 12.4277 26.9318C12.1518 27.216 11.9995 27.5977 12.004 27.9938V35.5012C12.004 35.6982 12.0428 35.8934 12.1182 36.0754C12.1936 36.2574 12.3041 36.4228 12.4435 36.5621C12.5828 36.7014 12.7482 36.812 12.9302 36.8874C13.1122 36.9628 13.3073 37.0016 13.5044 37.0016C13.7014 37.0016 13.8965 36.9628 14.0785 36.8874C14.2606 36.812 14.426 36.7014 14.5653 36.5621C14.7046 36.4228 14.8151 36.2574 14.8905 36.0754C14.9659 35.8934 15.0047 35.6982 15.0047 35.5012V27.9938C15.007 27.793 14.969 27.5938 14.8929 27.408C14.8167 27.2222 14.7041 27.0536 14.5616 26.9121C14.4191 26.7707 14.2496 26.6592 14.0633 26.5844C13.8769 26.5097 13.6775 26.4731 13.4767 26.4768Z" fill="white"/>
<path d="M19.4799 23.4767C19.2829 23.4788 19.0882 23.5197 18.907 23.5971C18.7258 23.6745 18.5616 23.7868 18.4238 23.9277C18.286 24.0686 18.1773 24.2353 18.104 24.4182C18.0306 24.6011 17.994 24.7966 17.9962 24.9936V35.5018C17.9962 35.8997 18.1543 36.2813 18.4356 36.5627C18.717 36.844 19.0986 37.0021 19.4966 37.0021C19.8945 37.0021 20.2761 36.844 20.5575 36.5627C20.8389 36.2813 20.9969 35.8997 20.9969 35.5018V24.9936C20.9992 24.7938 20.9615 24.5955 20.8861 24.4104C20.8106 24.2253 20.699 24.0573 20.5576 23.9159C20.4163 23.7746 20.2482 23.663 20.0631 23.5876C19.8781 23.5121 19.6798 23.4744 19.4799 23.4767Z" fill="white"/>
<path fill-rule="evenodd" clip-rule="evenodd" d="M15 13C15 13.3978 14.842 13.7793 14.5607 14.0606C14.2793 14.3419 13.8978 14.4999 13.5 14.4999C13.1022 14.4999 12.7207 14.3419 12.4393 14.0606C12.158 13.7793 12 13.3978 12 13C12 12.6022 12.158 12.2206 12.4393 11.9393C12.7207 11.658 13.1022 11.5 13.5 11.5C13.8978 11.5 14.2793 11.658 14.5607 11.9393C14.842 12.2206 15 12.6022 15 13Z" fill="white"/>
</svg>
