<svg width="48" height="44" viewBox="0 0 48 44" fill="none" xmlns="http://www.w3.org/2000/svg">
<path d="M17.9912 31.6269L24.0015 29.6953L30.0117 31.6269L29.3721 32.5458L30.6974 33.5585L32.5147 38.6778L24.0015 40.6094L15.4883 38.6778L17.3055 33.5585L18.616 32.5876L17.9912 31.6269Z" fill="#26B5B5"/>
<path d="M17.3047 33.5585H30.6966L30.0109 31.6269L24.0006 29.6953L17.9904 31.6269L17.3047 33.5585Z" fill="#26B5B5"/>
<path d="M36.7737 43.2454H10.2588C9.72536 43.2454 9.29297 42.813 9.29297 42.2796V41.0942C9.29297 39.7607 10.374 38.6797 11.7075 38.6797H35.325C36.6585 38.6797 37.7395 39.7607 37.7395 41.0942V42.2796C37.7395 42.813 37.3071 43.2454 36.7737 43.2454Z" fill="#26B5B5"/>
<path d="M36.2919 38.6797H33.3945C34.728 38.6797 35.809 39.7607 35.809 41.0942V42.2797C35.809 42.8131 35.3766 43.2455 34.8432 43.2455H37.7406C38.274 43.2455 38.7064 42.8131 38.7064 42.2797V41.0942C38.7064 39.7607 37.6254 38.6797 36.2919 38.6797Z" fill="#26B5B5"/>
<path d="M0.964844 29.2136C0.964844 30.0137 1.61347 30.6623 2.41354 30.6623L22.0675 31.6281H44.8119C45.612 31.6281 46.2606 30.9795 46.2606 30.1794V2.2065C46.2606 1.40644 45.612 0.757812 44.8119 0.757812H25.9306L2.41354 1.72361C1.61347 1.72361 0.964844 2.37223 0.964844 3.1723V29.2136Z" fill="#26B5B5"/>
<path d="M46.5497 0.757812H43.6523C44.4524 0.757812 45.101 1.40644 45.101 2.2065V30.1794C45.101 30.9795 44.4524 31.6281 43.6523 31.6281H46.5497C47.3498 31.6281 47.9984 30.9795 47.9984 30.1794V2.2065C47.9984 1.40634 47.3498 0.757812 46.5497 0.757812Z" fill="#26B5B5"/>
<path d="M25.9316 0.757812H1.44869C0.648628 0.757812 0 1.40644 0 2.2065V30.1794C0 30.9795 0.648628 31.6281 1.44869 31.6281H22.0684L25.9316 0.757812Z" fill="#26B5B5"/>
<path d="M12.9862 10.6701C12.9838 10.6634 12.9811 10.6568 12.9784 10.6502C12.8275 10.2836 12.4741 10.0469 12.0779 10.0469C12.0775 10.0469 12.077 10.0469 12.0767 10.0469C11.68 10.0474 11.3265 10.2849 11.1764 10.6522C11.1743 10.6576 11.172 10.6631 11.17 10.6686L7.03593 21.5228C6.89348 21.8967 7.08123 22.3152 7.45509 22.4575C7.82846 22.5997 8.24733 22.4123 8.38978 22.0385L9.24171 19.8017H14.884L15.7273 22.0364C15.8367 22.3265 16.1124 22.5053 16.4051 22.5052C16.4901 22.5052 16.5765 22.4902 16.6608 22.4584C17.035 22.3172 17.2239 21.8992 17.0826 21.525L12.9862 10.6701ZM9.79337 18.3529L12.0757 12.3604L14.3372 18.3529H9.79337Z" fill="#EDF5FA"/>
<path d="M32.8438 21.6165C32.8438 21.8092 32.9205 21.994 33.057 22.1299C33.1928 22.2651 33.3766 22.3409 33.5681 22.3409H33.5713C33.6007 22.3408 36.5236 22.3279 37.3245 22.3279C39.3579 22.3279 41.0122 20.6735 41.0122 18.6401C41.0122 17.2501 40.239 16.0377 39.1004 15.4093C39.6711 14.8222 40.0236 14.0219 40.0236 13.1404C40.0236 11.3442 38.5622 9.88281 36.766 9.88281H33.5681C33.1681 9.88281 32.8438 10.2071 32.8438 10.6072V21.6165ZM36.7661 11.3315C37.7635 11.3315 38.575 12.143 38.575 13.1404C38.575 14.1379 37.7635 14.9494 36.7661 14.9494C36.5326 14.9494 36.091 14.9506 35.6091 14.9524H34.2924V11.3315H36.7661ZM37.3246 20.8792C36.7727 20.8792 35.221 20.8852 34.2924 20.8891V16.4062C34.6765 16.4046 35.1609 16.4027 35.6102 16.4011H37.3245C38.559 16.4011 39.5636 17.4055 39.5636 18.6402C39.5637 19.8747 38.5591 20.8792 37.3246 20.8792Z" fill="#EAFFFF"/>
<line x1="24.5" y1="2" x2="24.5" y2="29" stroke="#EAFFFF"/>
</svg>
