<svg width="48" height="42" viewBox="0 0 48 42" fill="none" xmlns="http://www.w3.org/2000/svg">
<path d="M47.9981 16.701C47.9981 7.50275 39.0746 0.0195312 28.1066 0.0195312C17.1383 0.0195312 8.21484 7.50283 8.21484 16.701C8.21484 25.8992 17.1383 33.3825 28.1066 33.3825C29.0288 33.3825 29.9542 33.3291 30.864 33.2237C35.0886 35.9075 38.2073 37.3764 40.1403 37.5911C40.2075 37.5984 40.2752 37.6022 40.3414 37.6022C40.9623 37.6022 41.537 37.2928 41.8792 36.774C42.2617 36.1936 42.2866 35.4573 41.9459 34.8561C41.9301 34.8275 40.4384 32.1059 40.8687 29.5062C45.4069 26.3304 47.9981 21.6893 47.9981 16.701ZM22.7044 19.2204C21.0769 19.2204 19.7579 17.9011 19.7579 16.2738C19.7579 14.6464 21.0769 13.3272 22.7044 13.3272C24.3316 13.3272 25.6512 14.6465 25.6512 16.2738C25.6512 17.9011 24.3317 19.2204 22.7044 19.2204ZM33.5092 19.2204C31.8814 19.2204 30.5621 17.9011 30.5621 16.2738C30.5621 14.6464 31.8814 13.3272 33.5092 13.3272C35.1364 13.3272 36.4557 14.6465 36.4557 16.2738C36.4557 17.9011 35.1363 19.2204 33.5092 19.2204Z" fill="#26B5B5"/>
<path d="M12.4191 30.0482C10.4453 28.4139 8.88949 26.5009 7.79537 24.3625C6.64173 22.108 6.05686 19.7098 6.05686 17.2345C6.05686 14.7591 6.6418 12.3609 7.79537 10.1064C7.88369 9.93383 7.97616 9.7634 8.07035 9.59375C3.19843 12.385 0 17.0435 0 22.3096C0 27.0408 2.54863 31.4275 7.0011 34.3782C7.82345 37.6111 5.91514 41.0314 5.89498 41.0664C5.78126 41.2669 5.78965 41.5145 5.91655 41.7069C6.0309 41.8804 6.224 41.9831 6.42894 41.9831C6.45161 41.9831 6.4742 41.9818 6.4971 41.9792C8.72471 41.7319 12.6475 39.4678 15.6192 37.5588C16.6201 37.6946 17.6432 37.7633 18.664 37.7633C22.568 37.7633 26.1951 36.765 29.1946 35.0614C28.5245 35.1151 27.8495 35.1437 27.1765 35.1437C21.6287 35.1437 16.3878 33.3341 12.4191 30.0482Z" fill="#26B5B5"/>
</svg>
