<svg width="210" height="210" viewBox="0 0 210 210" fill="none" xmlns="http://www.w3.org/2000/svg">
<path d="M105 210C162.99 210 210 162.99 210 105C210 47.0101 162.99 0 105 0C47.0101 0 0 47.0101 0 105C0 162.99 47.0101 210 105 210Z" fill="#E1F8FF"/>
<path d="M119.345 58.6217H56.8008V16.8241H62.4936L64.2646 14.0156H75.6755L77.3201 16.8241H119.345V58.6217Z" fill="white"/>
<path d="M189.001 110.669H183.688C183.207 108.088 182.524 105.558 181.664 103.129L186.269 100.473L177.261 84.8872L172.657 87.5438C170.961 85.5703 169.114 83.7234 167.141 82.0282L169.798 77.4234L154.212 68.4161L151.555 73.0209C149.126 72.1607 146.596 71.4776 144.016 70.9968V65.6836H126.001V70.9968C123.42 71.4776 120.89 72.1607 118.461 73.0209L115.805 68.4161L100.219 77.4234L102.876 82.0282C100.902 83.7234 99.0554 85.5703 97.3602 87.5438L92.7554 84.8872L83.7482 100.473L88.353 103.129C87.4927 105.558 86.8096 108.088 86.3289 110.669H81.0156V128.684H86.3289C86.8096 131.264 87.4927 133.794 88.353 136.223L83.7482 138.88L92.7554 154.466L97.3602 151.809C99.0554 153.782 100.902 155.629 102.876 157.325L100.219 161.929L115.805 170.937L118.461 166.332C120.89 167.192 123.42 167.875 126.001 168.356V173.669H144.016V168.356C146.596 167.875 149.126 167.192 151.555 166.332L154.212 170.937L169.798 161.929L167.141 157.325C169.114 155.629 170.961 153.782 172.657 151.809L177.261 154.466L186.269 138.88L181.664 136.223C182.524 133.794 183.207 131.264 183.688 128.684H189.001V110.669ZM164.813 120.663C164.307 136.274 151.581 149 135.97 149.506C118.714 150.063 104.622 135.97 105.178 118.715C105.684 103.104 118.411 90.3776 134.022 89.8715C151.252 89.3149 165.37 103.408 164.813 120.663Z" fill="white"/>
<path d="M134.981 159.298C113.121 159.298 95.3594 141.511 95.3594 119.676C95.3594 110.137 98.8004 100.902 105.05 93.6916C111.249 86.5567 119.775 81.8759 129.061 80.4844C129.212 80.4591 129.339 80.5603 129.339 80.6868C129.364 80.8133 129.263 80.9651 129.136 80.9651C110.161 83.8241 95.8654 100.447 95.8654 119.651C95.8654 141.233 113.424 158.766 134.981 158.766C152.818 158.766 168.379 146.723 172.857 129.493C172.882 129.366 173.034 129.265 173.161 129.316C173.287 129.341 173.388 129.493 173.338 129.619C168.809 147.128 153.046 159.298 134.981 159.298Z" fill="#E1F8FF"/>
<path d="M199.147 110.153H107.253C107.101 110.153 107 110.052 107 109.9V91.253C107 91.1012 107.101 91 107.253 91H199.147C199.299 91 199.4 91.1012 199.4 91.253V109.9C199.4 110.052 199.274 110.153 199.147 110.153ZM107.481 109.647H198.869V91.506H107.481V109.647Z" fill="#66B7D0"/>
<path d="M140.803 93.707H112.82V107.218H140.803V93.707Z" fill="#C7FF50"/>
<path d="M144.472 107.497C144.32 107.497 144.219 107.395 144.219 107.244V103.448C144.219 103.297 144.32 103.195 144.472 103.195C144.624 103.195 144.725 103.297 144.725 103.448V107.244C144.725 107.37 144.598 107.497 144.472 107.497Z" fill="#41193E"/>
<path d="M144.472 99.9555C144.32 99.9555 144.219 99.8543 144.219 99.7025V93.7061C144.219 93.5543 144.32 93.4531 144.472 93.4531C144.624 93.4531 144.725 93.5543 144.725 93.7061V99.7025C144.725 99.829 144.598 99.9555 144.472 99.9555Z" fill="#41193E"/>
<path d="M148.823 107.498C148.672 107.498 148.57 107.396 148.57 107.245V100.464C148.57 100.312 148.672 100.211 148.823 100.211C148.975 100.211 149.076 100.312 149.076 100.464V107.245C149.076 107.371 148.95 107.498 148.823 107.498Z" fill="#41193E"/>
<path d="M148.823 96.5146C148.672 96.5146 148.57 96.4134 148.57 96.2616V93.7061C148.57 93.5543 148.672 93.4531 148.823 93.4531C148.975 93.4531 149.076 93.5543 149.076 93.7061V96.2616C149.076 96.4134 148.95 96.5146 148.823 96.5146Z" fill="#41193E"/>
<path d="M153.175 107.497C153.023 107.497 152.922 107.395 152.922 107.244V103.448C152.922 103.297 153.023 103.195 153.175 103.195C153.327 103.195 153.428 103.297 153.428 103.448V107.244C153.428 107.37 153.327 107.497 153.175 107.497Z" fill="#41193E"/>
<path d="M153.175 98.4881C153.023 98.4881 152.922 98.3869 152.922 98.235V93.7061C152.922 93.5543 153.023 93.4531 153.175 93.4531C153.327 93.4531 153.428 93.5543 153.428 93.7061V98.235C153.428 98.3869 153.327 98.4881 153.175 98.4881Z" fill="#41193E"/>
<path d="M157.526 107.495C157.375 107.495 157.273 107.394 157.273 107.242V99.7022C157.273 99.5504 157.375 99.4492 157.526 99.4492C157.678 99.4492 157.779 99.5504 157.779 99.7022V107.242C157.779 107.369 157.678 107.495 157.526 107.495Z" fill="#41193E"/>
<path d="M157.526 96.9447C157.375 96.9447 157.273 96.8435 157.273 96.6917V93.7061C157.273 93.5543 157.375 93.4531 157.526 93.4531C157.678 93.4531 157.779 93.5543 157.779 93.7061V96.6917C157.779 96.8435 157.678 96.9447 157.526 96.9447Z" fill="#41193E"/>
<path d="M161.878 107.497C161.726 107.497 161.625 107.396 161.625 107.244V104.663C161.625 104.511 161.726 104.41 161.878 104.41C162.03 104.41 162.131 104.511 162.131 104.663V107.244C162.131 107.37 162.03 107.497 161.878 107.497Z" fill="#41193E"/>
<path d="M161.878 99.9555C161.726 99.9555 161.625 99.8543 161.625 99.7025V93.7061C161.625 93.5543 161.726 93.4531 161.878 93.4531C162.03 93.4531 162.131 93.5543 162.131 93.7061V99.7025C162.131 99.829 162.03 99.9555 161.878 99.9555Z" fill="#41193E"/>
<path d="M166.23 107.495C166.078 107.495 165.977 107.394 165.977 107.242V99.2218C165.977 99.07 166.078 98.9688 166.23 98.9688C166.381 98.9688 166.483 99.07 166.483 99.2218V107.242C166.483 107.369 166.381 107.495 166.23 107.495Z" fill="#41193E"/>
<path d="M166.23 96.5146C166.078 96.5146 165.977 96.4134 165.977 96.2616V93.7061C165.977 93.5543 166.078 93.4531 166.23 93.4531C166.381 93.4531 166.483 93.5543 166.483 93.7061V96.2616C166.483 96.4134 166.381 96.5146 166.23 96.5146Z" fill="#41193E"/>
<path d="M199.147 130.548H107.253C107.101 130.548 107 130.446 107 130.295V111.648C107 111.496 107.101 111.395 107.253 111.395H199.147C199.299 111.395 199.4 111.496 199.4 111.648V130.295C199.4 130.446 199.274 130.548 199.147 130.548ZM107.481 130.042H198.869V111.901H107.481V130.042Z" fill="#66B7D0"/>
<path d="M140.803 114.102H112.82V127.612H140.803V114.102Z" fill="#C7FF50"/>
<path d="M144.472 127.891C144.32 127.891 144.219 127.79 144.219 127.638V123.843C144.219 123.691 144.32 123.59 144.472 123.59C144.624 123.59 144.725 123.691 144.725 123.843V127.638C144.725 127.79 144.598 127.891 144.472 127.891Z" fill="#41193E"/>
<path d="M144.472 120.35C144.32 120.35 144.219 120.249 144.219 120.097V114.101C144.219 113.949 144.32 113.848 144.472 113.848C144.624 113.848 144.725 113.949 144.725 114.101V120.097C144.725 120.249 144.598 120.35 144.472 120.35Z" fill="#41193E"/>
<path d="M148.823 127.892C148.672 127.892 148.57 127.791 148.57 127.639V120.858C148.57 120.707 148.672 120.605 148.823 120.605C148.975 120.605 149.076 120.707 149.076 120.858V127.639C149.076 127.791 148.95 127.892 148.823 127.892Z" fill="#41193E"/>
<path d="M148.823 116.934C148.672 116.934 148.57 116.833 148.57 116.681V114.101C148.57 113.949 148.672 113.848 148.823 113.848C148.975 113.848 149.076 113.949 149.076 114.101V116.656C149.076 116.808 148.95 116.934 148.823 116.934Z" fill="#41193E"/>
<path d="M153.175 127.891C153.023 127.891 152.922 127.79 152.922 127.638V123.843C152.922 123.691 153.023 123.59 153.175 123.59C153.327 123.59 153.428 123.691 153.428 123.843V127.638C153.428 127.79 153.327 127.891 153.175 127.891Z" fill="#41193E"/>
<path d="M153.175 118.883C153.023 118.883 152.922 118.781 152.922 118.63V114.101C152.922 113.949 153.023 113.848 153.175 113.848C153.327 113.848 153.428 113.949 153.428 114.101V118.63C153.428 118.781 153.327 118.883 153.175 118.883Z" fill="#41193E"/>
<path d="M157.526 127.89C157.375 127.89 157.273 127.788 157.273 127.637V120.097C157.273 119.945 157.375 119.844 157.526 119.844C157.678 119.844 157.779 119.945 157.779 120.097V127.637C157.779 127.788 157.678 127.89 157.526 127.89Z" fill="#41193E"/>
<path d="M157.526 117.365C157.375 117.365 157.273 117.263 157.273 117.112V114.101C157.273 113.949 157.375 113.848 157.526 113.848C157.678 113.848 157.779 113.949 157.779 114.101V117.086C157.779 117.238 157.678 117.365 157.526 117.365Z" fill="#41193E"/>
<path d="M161.878 127.891C161.726 127.891 161.625 127.79 161.625 127.638V125.058C161.625 124.906 161.726 124.805 161.878 124.805C162.03 124.805 162.131 124.906 162.131 125.058V127.638C162.131 127.79 162.03 127.891 161.878 127.891Z" fill="#41193E"/>
<path d="M161.878 120.35C161.726 120.35 161.625 120.249 161.625 120.097V114.101C161.625 113.949 161.726 113.848 161.878 113.848C162.03 113.848 162.131 113.949 162.131 114.101V120.097C162.131 120.249 162.03 120.35 161.878 120.35Z" fill="#41193E"/>
<path d="M166.23 127.89C166.078 127.89 165.977 127.789 165.977 127.637V119.616C165.977 119.464 166.078 119.363 166.23 119.363C166.381 119.363 166.483 119.464 166.483 119.616V127.637C166.483 127.789 166.381 127.89 166.23 127.89Z" fill="#41193E"/>
<path d="M166.23 116.934C166.078 116.934 165.977 116.833 165.977 116.681V114.101C165.977 113.949 166.078 113.848 166.23 113.848C166.381 113.848 166.483 113.949 166.483 114.101V116.656C166.483 116.808 166.381 116.934 166.23 116.934Z" fill="#41193E"/>
<path d="M199.147 150.962H107.253C107.101 150.962 107 150.86 107 150.709V132.062C107 131.91 107.101 131.809 107.253 131.809H199.147C199.299 131.809 199.4 131.91 199.4 132.062V150.709C199.4 150.835 199.274 150.962 199.147 150.962ZM107.481 150.456H198.869V132.315H107.481V150.456Z" fill="#66B7D0"/>
<path d="M140.803 134.492H112.82V148.003H140.803V134.492Z" fill="#C7FF50"/>
<path d="M144.472 148.278C144.32 148.278 144.219 148.177 144.219 148.025V144.23C144.219 144.078 144.32 143.977 144.472 143.977C144.624 143.977 144.725 144.078 144.725 144.23V148.025C144.725 148.177 144.598 148.278 144.472 148.278Z" fill="#41193E"/>
<path d="M144.472 140.741C144.32 140.741 144.219 140.639 144.219 140.488V134.491C144.219 134.339 144.32 134.238 144.472 134.238C144.624 134.238 144.725 134.339 144.725 134.491V140.488C144.725 140.639 144.598 140.741 144.472 140.741Z" fill="#41193E"/>
<path d="M148.823 148.279C148.672 148.279 148.57 148.178 148.57 148.026V141.245C148.57 141.093 148.672 140.992 148.823 140.992C148.975 140.992 149.076 141.093 149.076 141.245V148.026C149.076 148.178 148.95 148.279 148.823 148.279Z" fill="#41193E"/>
<path d="M148.823 137.323C148.672 137.323 148.57 137.222 148.57 137.07V134.515C148.57 134.363 148.672 134.262 148.823 134.262C148.975 134.262 149.076 134.363 149.076 134.515V137.07C149.076 137.197 148.95 137.323 148.823 137.323Z" fill="#41193E"/>
<path d="M153.175 148.278C153.023 148.278 152.922 148.177 152.922 148.025V144.23C152.922 144.078 153.023 143.977 153.175 143.977C153.327 143.977 153.428 144.078 153.428 144.23V148.025C153.428 148.177 153.327 148.278 153.175 148.278Z" fill="#41193E"/>
<path d="M153.175 139.273C153.023 139.273 152.922 139.172 152.922 139.02V134.491C152.922 134.339 153.023 134.238 153.175 134.238C153.327 134.238 153.428 134.339 153.428 134.491V139.02C153.428 139.172 153.327 139.273 153.175 139.273Z" fill="#41193E"/>
<path d="M157.526 148.28C157.375 148.28 157.273 148.179 157.273 148.027V140.487C157.273 140.336 157.375 140.234 157.526 140.234C157.678 140.234 157.779 140.336 157.779 140.487V148.027C157.779 148.179 157.678 148.28 157.526 148.28Z" fill="#41193E"/>
<path d="M157.526 137.753C157.375 137.753 157.273 137.652 157.273 137.5V134.515C157.273 134.363 157.375 134.262 157.526 134.262C157.678 134.262 157.779 134.363 157.779 134.515V137.5C157.779 137.627 157.678 137.753 157.526 137.753Z" fill="#41193E"/>
<path d="M161.878 148.278C161.726 148.278 161.625 148.177 161.625 148.025V145.444C161.625 145.293 161.726 145.191 161.878 145.191C162.03 145.191 162.131 145.293 162.131 145.444V148.025C162.131 148.177 162.03 148.278 161.878 148.278Z" fill="#41193E"/>
<path d="M161.878 140.741C161.726 140.741 161.625 140.639 161.625 140.488V134.491C161.625 134.339 161.726 134.238 161.878 134.238C162.03 134.238 162.131 134.339 162.131 134.491V140.488C162.131 140.639 162.03 140.741 161.878 140.741Z" fill="#41193E"/>
<path d="M166.23 148.28C166.078 148.28 165.977 148.179 165.977 148.027V140.007C165.977 139.855 166.078 139.754 166.23 139.754C166.381 139.754 166.483 139.855 166.483 140.007V148.027C166.483 148.179 166.381 148.28 166.23 148.28Z" fill="#41193E"/>
<path d="M166.23 137.323C166.078 137.323 165.977 137.222 165.977 137.07V134.515C165.977 134.363 166.078 134.262 166.23 134.262C166.381 134.262 166.483 134.363 166.483 134.515V137.07C166.483 137.197 166.381 137.323 166.23 137.323Z" fill="#41193E"/>
<path d="M51.788 110.696L58.4928 108.976C57.3036 104.396 57.0506 99.741 57.7084 95.1109C58.2145 91.5181 59.2771 88.0013 60.8711 84.7121L54.647 81.7266C52.7494 85.6736 51.4843 89.8483 50.8771 94.1495C50.0675 99.6651 50.3711 105.231 51.788 110.696Z" fill="#EA5A78"/>
<path d="M58.2158 92.7587C58.3423 92.7587 58.4435 92.6575 58.4688 92.531C58.4941 92.4045 58.3929 92.278 58.2411 92.2527L51.3339 91.3672C51.182 91.3419 51.0809 91.4431 51.0556 91.5949C51.0303 91.7214 51.1315 91.8479 51.2833 91.8732L58.1905 92.7587H58.2158Z" fill="#41193E"/>
<path d="M57.7079 95.5646C57.8344 95.5646 57.9609 95.4634 57.9609 95.3369C57.9609 95.1851 57.8598 95.0839 57.7333 95.0586L50.826 94.679C50.6742 94.6537 50.573 94.7802 50.5477 94.9067C50.5477 95.0586 50.6489 95.1598 50.7754 95.1851L57.7079 95.5646Z" fill="#41193E"/>
<path d="M50.5468 98.2497L57.454 98.1232C57.6058 98.1232 57.707 97.9967 57.707 97.8702C57.707 97.7437 57.5805 97.6172 57.454 97.6172L50.5468 97.7437C50.395 97.7437 50.2938 97.8702 50.2938 97.9967C50.3191 98.1232 50.4203 98.2497 50.5468 98.2497Z" fill="#41193E"/>
<path d="M22.6176 99.8438H68.0586V152.698H22.6176V99.8438Z" fill="#13CFCF"/>
<path d="M36.1294 99.8438H81.5703V152.698H36.1294V99.8438Z" fill="#1AE3E3"/>
<path d="M45.768 152.698H82.6571C82.809 152.698 82.9102 152.597 82.9102 152.445V111.077C82.9102 110.925 82.809 110.824 82.6571 110.824H45.768C45.6162 110.824 45.515 110.925 45.515 111.077V152.445C45.515 152.571 45.6415 152.698 45.768 152.698ZM82.4041 152.192H46.021V111.33H82.4041V152.192Z" fill="white"/>
<path d="M28.4102 120.236C29.9282 120.236 31.168 118.996 31.168 117.478V110.141C31.168 108.623 29.9282 107.383 28.4102 107.383C26.8921 107.383 25.6523 108.623 25.6523 110.141V117.478C25.627 119.021 26.8668 120.236 28.4102 120.236Z" fill="#17F0F0"/>
<path d="M26.5449 54.9987L65.2305 55.2148L65.0333 90.51L26.3477 90.2939L26.5449 54.9987Z" fill="#13CFCF"/>
<path d="M39.0707 55.0821L84.5117 55.3359L84.3146 90.6311L38.8736 90.3773L39.0707 55.0821Z" fill="#1AE3E3"/>
<path d="M52.8765 76.6883L81.8464 76.8401C85.6163 76.8654 88.6777 73.8293 88.703 70.0594C88.7283 66.2895 85.6922 63.228 81.9223 63.2027L52.9524 63.0509C49.1825 63.0256 46.1211 66.0618 46.0958 69.8317C46.0705 73.5762 49.1066 76.663 52.8765 76.6883Z" fill="#335E6B"/>
<path d="M81.4408 74.2358C81.542 74.2358 81.6432 74.2358 81.7191 74.2358C81.8709 74.2358 81.9721 74.1093 81.9468 73.9574C81.9468 73.8056 81.8203 73.7044 81.6685 73.7297C81.5926 73.7297 81.5167 73.7297 81.4408 73.7297C81.289 73.7297 81.1625 73.8309 81.1625 73.9828C81.1878 74.1346 81.289 74.2358 81.4408 74.2358ZM80.1505 74.0333C80.2517 74.0333 80.3529 73.9575 80.3782 73.8562C80.4288 73.7297 80.3528 73.5779 80.2263 73.5273C80.1504 73.502 80.0745 73.4767 79.9986 73.4514C79.8721 73.4008 79.7203 73.4514 79.6697 73.5779C79.6191 73.7044 79.6697 73.8562 79.7962 73.9068C79.8721 73.9321 79.9733 73.9827 80.0492 74.008C80.0998 74.0333 80.1252 74.0333 80.1505 74.0333ZM82.9589 73.9574C82.9842 73.9574 83.0348 73.9574 83.0601 73.9321C83.136 73.9068 83.2372 73.8562 83.3131 73.8309C83.4396 73.7803 83.4902 73.6285 83.4396 73.502C83.389 73.3755 83.2372 73.3249 83.1107 73.3755C83.0348 73.4008 82.9589 73.4514 82.8829 73.4767C82.7564 73.5273 82.6805 73.6791 82.7564 73.8056C82.7564 73.8815 82.8577 73.9574 82.9589 73.9574ZM78.8095 73.249C78.8854 73.249 78.9613 73.2237 78.9866 73.1731C79.0878 73.0719 79.0625 72.9201 78.9613 72.8189C78.9107 72.7683 78.8348 72.7177 78.7842 72.6418C78.683 72.5406 78.5312 72.5406 78.43 72.6418C78.3288 72.743 78.3288 72.8948 78.43 72.996C78.5059 73.0719 78.5565 73.1225 78.6324 73.1984C78.683 73.2237 78.7589 73.249 78.8095 73.249ZM84.2493 73.0972C84.3252 73.0972 84.3757 73.0719 84.4263 73.0213C84.5022 72.9454 84.5529 72.8948 84.6288 72.8189C84.73 72.7177 84.7046 72.5659 84.6034 72.4647C84.5022 72.3635 84.3505 72.3888 84.2493 72.49C84.1986 72.5406 84.1481 72.6165 84.0722 72.6671C83.9709 72.7683 83.9709 72.9201 84.0722 73.0213C84.1228 73.0719 84.1986 73.0972 84.2493 73.0972ZM77.8734 72.0093C77.8987 72.0093 77.9492 72.0093 77.9745 71.984C78.101 71.9333 78.1516 71.7815 78.101 71.655C78.0757 71.5791 78.0252 71.5032 77.9999 71.4273C77.9493 71.3008 77.7974 71.2249 77.6709 71.3008C77.5444 71.3767 77.4685 71.5032 77.5444 71.6297C77.5697 71.7056 77.6203 71.8068 77.6456 71.8827C77.6962 71.9587 77.7722 72.0093 77.8734 72.0093ZM85.1348 71.8068C85.236 71.8068 85.3372 71.7562 85.3625 71.655C85.3878 71.5791 85.4384 71.4779 85.4637 71.402C85.5143 71.2755 85.4384 71.1237 85.3119 71.0731C85.1854 71.0225 85.0336 71.0984 84.983 71.2249C84.9577 71.3008 84.9323 71.3767 84.907 71.4526C84.8564 71.5791 84.907 71.7309 85.0336 71.7815C85.0589 71.8068 85.0842 71.8068 85.1348 71.8068ZM77.4685 70.5165C77.4938 70.5165 77.4938 70.5165 77.4685 70.5165C77.6203 70.5165 77.7215 70.39 77.7215 70.2382C77.7215 70.1623 77.7215 70.0864 77.7215 70.0105V69.9599C77.7215 69.808 77.6203 69.7068 77.4685 69.7068C77.3167 69.7068 77.2155 69.808 77.2155 69.9599V69.9852C77.2155 70.0611 77.2155 70.1623 77.2155 70.2382C77.2408 70.39 77.342 70.5165 77.4685 70.5165ZM85.4384 70.2888C85.5902 70.2888 85.6914 70.1876 85.6914 70.0611C85.6914 69.9599 85.6914 69.884 85.6914 69.7828C85.6914 69.6309 85.5649 69.5297 85.4131 69.555C85.2613 69.555 85.1601 69.6815 85.1854 69.8333C85.1854 69.9093 85.1854 69.9852 85.1854 70.0358C85.1854 70.1623 85.3119 70.2888 85.4384 70.2888ZM77.6962 68.9478C77.7974 68.9478 77.8986 68.8719 77.9239 68.7707C77.9493 68.6948 77.9746 68.6189 77.9999 68.543C78.0505 68.4165 77.9999 68.2647 77.8734 68.2141C77.7469 68.1635 77.595 68.2141 77.5444 68.3406C77.5191 68.4165 77.4685 68.5177 77.4432 68.5936C77.3926 68.7201 77.4685 68.8719 77.595 68.9225C77.6456 68.9478 77.6709 68.9478 77.6962 68.9478ZM85.1601 68.7707C85.1854 68.7707 85.236 68.7707 85.2613 68.7454C85.3878 68.6948 85.4637 68.543 85.3878 68.4165C85.3625 68.3406 85.3119 68.2394 85.2866 68.1635C85.236 68.037 85.0842 67.9864 84.9577 68.037C84.8312 68.0876 84.7806 68.2394 84.8312 68.3659C84.8565 68.4418 84.9071 68.5177 84.9324 68.5936C84.9577 68.7201 85.0589 68.7707 85.1601 68.7707ZM78.4806 67.6068C78.5565 67.6068 78.6071 67.5815 78.6577 67.5309C78.7083 67.4803 78.7589 67.4044 78.8348 67.3538C78.936 67.2526 78.936 67.1008 78.8348 66.9996C78.7336 66.8984 78.5818 66.8984 78.4806 66.9996C78.4047 67.0755 78.354 67.1261 78.2781 67.202C78.1769 67.3032 78.2023 67.455 78.3035 67.5562C78.3794 67.6068 78.43 67.6068 78.4806 67.6068ZM84.2998 67.4803C84.3757 67.4803 84.4263 67.455 84.4769 67.4044C84.5781 67.3032 84.5781 67.1514 84.4769 67.0502C84.401 66.9743 84.3504 66.9237 84.2745 66.8478C84.1733 66.7466 84.0215 66.7719 83.9203 66.8731C83.8191 66.9743 83.8444 67.1261 83.9456 67.2273C83.9963 67.2779 84.0721 67.3285 84.1227 67.4044C84.1733 67.455 84.2239 67.4803 84.2998 67.4803ZM79.7203 66.6707C79.7456 66.6707 79.7962 66.6707 79.8215 66.6454C79.8974 66.6201 79.9733 66.5695 80.0492 66.5442C80.1757 66.4936 80.2517 66.3418 80.2011 66.2153C80.1505 66.0888 79.9986 66.0129 79.8721 66.0635C79.7962 66.0888 79.695 66.1394 79.6191 66.1647C79.4926 66.2153 79.442 66.3671 79.4926 66.4936C79.5432 66.6201 79.6444 66.6707 79.7203 66.6707ZM83.0095 66.5948C83.1107 66.5948 83.2119 66.5442 83.2372 66.443C83.2878 66.3165 83.2372 66.1647 83.1107 66.1141C83.0348 66.0888 82.9336 66.0382 82.8577 66.0129C82.7312 65.9623 82.5794 66.0382 82.5288 66.1647C82.4782 66.2912 82.5541 66.443 82.6806 66.4936C82.7565 66.5189 82.8324 66.5442 82.9083 66.5695C82.9589 66.5948 82.9842 66.5948 83.0095 66.5948ZM81.2384 66.2912C81.3143 66.2912 81.3902 66.2912 81.4661 66.2912C81.6179 66.2912 81.7444 66.19 81.7444 66.0382C81.7444 65.8864 81.6432 65.7852 81.5167 65.7852C81.4155 65.7852 81.3396 65.7852 81.2637 65.7852C81.1119 65.7852 81.0107 65.9117 81.036 66.0635C80.9854 66.19 81.1119 66.2912 81.2384 66.2912Z" fill="white"/>
<path d="M56.722 74.1069C56.8232 74.1069 56.8992 74.1069 56.9751 74.1069C57.1269 74.1069 57.228 73.9804 57.2027 73.8285C57.2027 73.6767 57.0763 73.5755 56.9245 73.6008C56.8486 73.6008 56.7726 73.6008 56.6967 73.6008C56.5449 73.6008 56.4184 73.702 56.4184 73.8538C56.469 73.9804 56.5702 74.1069 56.722 74.1069ZM55.4317 73.8791C55.5329 73.8791 55.6341 73.8032 55.6594 73.702C55.71 73.5755 55.6341 73.4237 55.5076 73.3731C55.4317 73.3478 55.3558 73.3225 55.2799 73.2972C55.1534 73.2466 55.0016 73.2972 54.951 73.4237C54.9004 73.5502 54.951 73.702 55.0775 73.7526C55.1534 73.7779 55.2546 73.8285 55.3305 73.8538C55.3811 73.8791 55.4064 73.8791 55.4317 73.8791ZM58.2401 73.8032C58.2654 73.8032 58.316 73.8032 58.3413 73.7779C58.4172 73.7526 58.5184 73.702 58.5943 73.6767C58.7208 73.6261 58.7714 73.4743 58.7208 73.3478C58.6702 73.2213 58.5185 73.1707 58.3919 73.2213C58.316 73.2466 58.2401 73.2972 58.1642 73.3225C58.0377 73.3731 57.9618 73.5249 58.0377 73.6514C58.0377 73.7526 58.1389 73.8032 58.2401 73.8032ZM54.0907 73.0948C54.1666 73.0948 54.2425 73.0695 54.2678 73.0189C54.369 72.9177 54.3437 72.7659 54.2425 72.6647C54.1919 72.6141 54.116 72.5635 54.0654 72.4876C53.9642 72.3864 53.8124 72.3864 53.7112 72.4876C53.61 72.5888 53.61 72.7406 53.7112 72.8418C53.7871 72.9177 53.8377 72.9683 53.9136 73.0442C53.9642 73.0695 54.0148 73.0948 54.0907 73.0948ZM59.5305 72.9683C59.6064 72.9683 59.657 72.943 59.7076 72.8924C59.7835 72.8165 59.8341 72.7659 59.91 72.69C60.0112 72.5888 59.9859 72.437 59.8847 72.3358C59.7835 72.2346 59.6317 72.2599 59.5305 72.3611C59.4799 72.4117 59.4292 72.4876 59.3533 72.5382C59.2521 72.6394 59.2521 72.7912 59.3533 72.8924C59.4039 72.943 59.4546 72.9683 59.5305 72.9683ZM53.1545 71.855C53.1798 71.855 53.2305 71.8551 53.2558 71.8297C53.3823 71.7791 53.4329 71.6273 53.3823 71.5008C53.357 71.4249 53.3064 71.349 53.2811 71.2731C53.2305 71.1466 53.0787 71.0707 52.9522 71.1466C52.8257 71.1972 52.7498 71.349 52.8257 71.4755C52.851 71.5514 52.9016 71.6526 52.9269 71.7285C52.9522 71.8044 53.0533 71.855 53.1545 71.855ZM60.3907 71.6779C60.4919 71.6779 60.5931 71.6273 60.6184 71.5261C60.6437 71.4502 60.6943 71.349 60.7196 71.2731C60.7702 71.1466 60.6943 70.9948 60.5678 70.9442C60.4413 70.8936 60.2895 70.9695 60.2389 71.096C60.2136 71.1719 60.1883 71.2478 60.163 71.3237C60.1124 71.4502 60.163 71.602 60.2895 71.6526C60.3401 71.6779 60.3654 71.6779 60.3907 71.6779ZM52.7498 70.3623C52.9016 70.3623 53.0028 70.2358 53.0028 70.084C53.0028 70.0081 53.0028 69.9322 53.0028 69.8563V69.8057C53.0028 69.6538 52.9016 69.5526 52.7498 69.5526C52.598 69.5526 52.4968 69.6538 52.4968 69.8057V69.8309C52.4968 69.9069 52.4968 70.0081 52.4968 70.084C52.4968 70.2611 52.6233 70.3623 52.7498 70.3623ZM60.7196 70.1346C60.8715 70.1346 60.9727 70.0334 60.9727 69.9069C60.9727 69.8057 60.9727 69.7297 60.9727 69.6538C60.9727 69.502 60.8461 69.4008 60.6943 69.4261C60.5425 69.4261 60.4413 69.5526 60.4666 69.7044C60.4666 69.7803 60.4666 69.8563 60.4666 69.9069C60.4666 70.0081 60.5678 70.1346 60.7196 70.1346ZM52.9775 68.8189C53.0787 68.8189 53.1799 68.743 53.2052 68.6418C53.2305 68.5659 53.2558 68.49 53.2811 68.4141C53.3317 68.2876 53.2811 68.1358 53.1545 68.0852C53.028 68.0346 52.8763 68.0852 52.8257 68.2117C52.8004 68.2876 52.7497 68.3888 52.7244 68.4647C52.6738 68.5912 52.7498 68.743 52.8763 68.7936C52.9016 68.7936 52.9522 68.8189 52.9775 68.8189ZM60.416 68.6418C60.4413 68.6418 60.4919 68.6418 60.5172 68.6165C60.6437 68.5659 60.7196 68.4141 60.6437 68.2876C60.6184 68.2117 60.5678 68.1105 60.5425 68.0346C60.4919 67.9081 60.3401 67.8575 60.2136 67.9081C60.0871 67.9587 60.0365 68.1105 60.0871 68.237C60.1124 68.3129 60.163 68.3888 60.1883 68.4647C60.2389 68.5659 60.3148 68.6418 60.416 68.6418ZM53.7618 67.4779C53.8377 67.4779 53.8883 67.4526 53.9389 67.402C53.9895 67.3514 54.0401 67.2755 54.116 67.2249C54.2172 67.1237 54.2172 66.9719 54.116 66.8707C54.0148 66.7695 53.863 66.7695 53.7618 66.8707C53.6859 66.9466 53.6353 66.9972 53.5594 67.0731C53.4582 67.1743 53.4835 67.3261 53.5847 67.4273C53.6353 67.4526 53.7112 67.4779 53.7618 67.4779ZM59.5811 67.3261C59.657 67.3261 59.7076 67.3008 59.7582 67.2502C59.8594 67.149 59.8594 66.9972 59.7582 66.896C59.6823 66.8201 59.6317 66.7695 59.5558 66.6936C59.4546 66.5924 59.3028 66.6177 59.2016 66.7189C59.1004 66.8201 59.1256 66.9719 59.2268 67.0731C59.2774 67.1237 59.3534 67.1743 59.404 67.2502C59.4293 67.3008 59.5052 67.3261 59.5811 67.3261ZM55.0015 66.5418C55.0268 66.5418 55.0775 66.5418 55.1028 66.5165C55.1787 66.4912 55.2546 66.4406 55.3305 66.4153C55.457 66.3647 55.5329 66.2129 55.4823 66.0864C55.4317 65.9599 55.2799 65.884 55.1534 65.9346C55.0775 65.9599 54.9763 66.0105 54.9004 66.0358C54.7739 66.0864 54.7233 66.2382 54.7739 66.3647C54.8245 66.4912 54.9003 66.5418 55.0015 66.5418ZM58.2907 66.4659C58.3919 66.4659 58.4932 66.4153 58.5185 66.3141C58.5691 66.1876 58.5185 66.0358 58.3919 65.9852C58.316 65.9599 58.2148 65.9093 58.1389 65.884C58.0124 65.8334 57.8606 65.9093 57.81 66.0358C57.7594 66.1623 57.8353 66.3141 57.9618 66.3647C58.0377 66.39 58.1136 66.4153 58.1895 66.4406C58.2148 66.4659 58.2654 66.4659 58.2907 66.4659ZM56.4944 66.1623C56.5197 66.1623 56.5197 66.1623 56.4944 66.1623C56.5703 66.1623 56.6461 66.1623 56.722 66.1623C56.8738 66.1623 57.0004 66.0611 57.0004 65.9093C57.0004 65.7575 56.8991 65.6562 56.7726 65.6562C56.6714 65.6562 56.5955 65.6562 56.5196 65.6562C56.3678 65.6562 56.2666 65.7828 56.2919 65.9346C56.2666 66.0611 56.3678 66.1623 56.4944 66.1623Z" fill="white"/>
<path d="M96.0391 125.848L77.9487 127.973L76.456 145.633L83.262 132.654L96.0391 125.848Z" fill="#00303F"/>
<path d="M98.7734 129.895L94.4216 147.099L76.4578 145.632L90.6011 141.128L98.7734 129.895Z" fill="#00303F"/>
<path d="M72.4844 143.81L76.4313 149.098C77.0638 149.933 78.253 150.11 79.0879 149.478C79.9229 148.845 80.1 147.656 79.4674 146.821L75.5205 141.533C74.888 140.698 73.6988 140.521 72.8639 141.154C72.0289 141.786 71.8518 142.975 72.4844 143.81Z" fill="#17F0F0"/>
<path d="M37.4932 166.356C38.1258 166.356 38.7583 166.33 39.4161 166.28C44.7547 165.9 50.5487 164.028 56.621 160.638C66.9439 154.92 74.6607 146.798 74.7366 146.722C74.8378 146.621 74.8378 146.469 74.7366 146.368C74.6354 146.267 74.4836 146.267 74.3824 146.368C74.3065 146.444 66.6402 154.515 56.3932 160.207C46.9559 165.42 33.3186 169.645 21.9583 160.106C12.8499 152.465 15.127 140.194 18.6438 131.263C22.4896 121.522 28.5872 113.501 28.6378 113.426C28.7137 113.324 28.7137 113.147 28.5872 113.071C28.486 112.995 28.3089 112.995 28.233 113.122C28.1824 113.198 22.0342 121.269 18.1631 131.06C15.886 136.829 14.8233 142.067 15.0257 146.621C15.2788 152.339 17.48 157.02 21.6294 160.486C26.2342 164.407 31.5728 166.356 37.4932 166.356Z" fill="#00303F"/>
</svg>
