<svg width="209" height="209" viewBox="0 0 209 209" fill="none" xmlns="http://www.w3.org/2000/svg">
<g clip-path="url(#clip0_4399_14718)">
<path d="M104.5 209C162.214 209 209 162.214 209 104.5C209 46.7862 162.214 0 104.5 0C46.7862 0 0 46.7862 0 104.5C0 162.214 46.7862 209 104.5 209Z" fill="#E1F8FF"/>
<path d="M106.411 49.43C106.411 52.0418 106.733 54.6069 107.332 57.0787L100.657 60.9031L108.621 75.1744L115.296 71.3501C117.091 73.169 119.07 74.7547 121.326 76.1072L119.3 83.616L134.906 88L136.931 80.4912C139.509 80.4912 142.041 80.1647 144.48 79.5584L148.255 86.321L162.341 78.2526L158.566 71.49C160.362 69.6711 161.927 67.6657 163.262 65.3804L170.673 67.4325L175 51.622L167.589 49.57C167.589 46.9582 167.267 44.3931 166.668 41.9213L173.343 38.0969L165.379 23.8256L158.704 27.6499C156.909 25.831 154.93 24.2453 152.674 22.8928L154.7 15.384L139.094 11L137.069 18.5088C134.491 18.5088 131.959 18.8353 129.52 19.4415L125.745 12.679L111.659 20.7474L115.434 27.51C113.638 29.3289 112.073 31.3343 110.738 33.6196L103.327 31.5675L99 47.3779L106.411 49.43ZM120.727 44.9528C123.213 35.8583 132.466 30.5415 141.442 33.06C150.419 35.5784 155.666 44.9528 153.181 54.0472C150.695 63.1417 141.442 68.4585 132.466 65.94C123.535 63.4216 118.242 54.0472 120.727 44.9528Z" fill="white"/>
<path d="M48.8498 140.43C48.8498 141.966 49.026 143.477 49.4038 144.938L45.4 147.204L50.1592 155.614L54.1629 153.348C55.2205 154.406 56.4292 155.363 57.7386 156.143L56.5047 160.575L65.8216 163.143L67.0554 158.712C68.5915 158.712 70.1023 158.535 71.5628 158.158L73.8291 162.161L82.2394 157.402L79.9732 153.399C81.0307 152.341 81.9876 151.132 82.7682 149.823L87.2 151.057L89.7684 141.74L85.3366 140.506C85.3366 138.97 85.1604 137.459 84.7827 135.999L88.7864 133.732L84.0272 125.322L80.0235 127.588C78.9659 126.531 77.7572 125.574 76.4478 124.793L77.6817 120.361L68.3648 117.793L67.131 122.225C65.595 122.225 64.0841 122.401 62.6236 122.779L60.3574 118.775L51.947 123.534L54.2133 127.538C53.1557 128.596 52.1988 129.804 51.4182 131.114L46.9864 129.88L44.418 139.197L48.8498 140.43ZM57.4112 137.786C58.8969 132.448 64.4115 129.301 69.775 130.786C75.1133 132.272 78.2609 137.786 76.7752 143.15C75.2895 148.513 69.775 151.636 64.4115 150.15C59.0732 148.665 55.9256 143.125 57.4112 137.786Z" fill="white"/>
<path d="M37.1905 118.72L53.1041 120.901L58.2636 106.117L49.5892 115.719L37.1905 118.72Z" fill="#95C7D7"/>
<path d="M35.7399 114.643L43.2528 100.914L58.2555 106.151L45.1783 106.868L35.7399 114.643Z" fill="#95C7D7"/>
<path d="M99.8685 127.31C104.275 134.942 106.258 143.916 105.448 152.787C104.566 162.338 100.508 171.427 93.99 178.418C93.9062 178.524 93.7376 178.534 93.6402 178.416C93.5336 178.332 93.5235 178.164 93.6418 178.066C107.008 163.749 108.98 142.286 98.4285 125.873C89.8298 112.49 73.9983 104.912 58.1111 106.554C57.9769 106.573 57.8577 106.467 57.8384 106.333C57.819 106.199 57.9247 106.08 58.0589 106.06C65.9635 105.247 73.9435 106.63 81.1205 110.046C88.4006 113.49 94.5338 118.875 98.8647 125.621C99.1794 126.166 99.5286 126.721 99.8685 127.31Z" fill="white"/>
<path d="M35.3003 137.668L40.8149 136.258C39.8328 132.481 39.6314 128.654 40.1602 124.826C40.5883 121.855 41.4444 118.984 42.7538 116.265L37.6169 113.797C36.0557 117.045 35.0233 120.495 34.5197 124.02C33.8902 128.603 34.142 133.186 35.3003 137.668Z" fill="#4F96AC"/>
<path d="M40.6145 122.964H40.5893L34.8985 122.234C34.7726 122.209 34.6719 122.083 34.6719 121.957C34.6971 121.831 34.823 121.73 34.9489 121.73L40.6397 122.461C40.7656 122.486 40.8663 122.612 40.8663 122.738C40.8412 122.864 40.7404 122.964 40.6145 122.964Z" fill="#41193E"/>
<path d="M40.187 125.255L34.4961 124.953C34.345 124.953 34.2443 124.827 34.2695 124.676C34.2695 124.525 34.3954 124.424 34.5465 124.449L40.2373 124.751C40.3884 124.751 40.4891 124.877 40.4639 125.028C40.4388 125.154 40.3129 125.255 40.187 125.255Z" fill="#41193E"/>
<path d="M34.2948 127.472C34.1689 127.472 34.043 127.371 34.043 127.22C34.043 127.069 34.1437 126.968 34.2948 126.968L39.9856 126.867C40.1115 126.867 40.2374 126.968 40.2374 127.119C40.2374 127.27 40.1367 127.371 39.9856 127.371L34.2948 127.472Z" fill="#41193E"/>
<path d="M48.7484 128.754H11.3047V172.291H48.7484V128.754Z" fill="#B2EB38"/>
<path d="M59.8539 128.754H22.4102V172.291H59.8539V128.754Z" fill="#C7FF50"/>
<path d="M60.733 172.315H30.3651C30.214 172.315 30.1133 172.215 30.1133 172.064V137.994C30.1133 137.843 30.214 137.742 30.3651 137.742H60.7582C60.9093 137.742 61.01 137.843 61.01 137.994V172.064C60.9848 172.189 60.8841 172.315 60.733 172.315ZM30.6169 171.812H60.5064V138.246H30.6169V171.812Z" fill="white"/>
<path d="M16.0397 145.549C17.2987 145.549 18.306 144.541 18.306 143.282V137.239C18.306 135.98 17.2987 134.973 16.0397 134.973C14.7807 134.973 13.7734 135.98 13.7734 137.239V143.282C13.7734 144.541 14.8058 145.549 16.0397 145.549Z" fill="white"/>
</g>
<rect x="74" y="48" width="116" height="118" fill="white"/>
<rect x="89" y="63" width="86" height="32" fill="#1AE3E3"/>
<rect opacity="0.2" x="89" y="104" width="38" height="19" fill="#6A96A4"/>
<rect opacity="0.2" x="137" y="104" width="38" height="19" fill="#6A96A4"/>
<rect opacity="0.2" x="89" y="132" width="86" height="12" fill="#6A96A4"/>
<defs>
<clipPath id="clip0_4399_14718">
<rect width="209" height="209" fill="white"/>
</clipPath>
</defs>
</svg>
