<svg width="210" height="210" viewBox="0 0 210 210" fill="none" xmlns="http://www.w3.org/2000/svg">
<path d="M104.888 209.999C162.816 209.999 209.776 163.039 209.776 105.111C209.776 47.1827 162.816 0.222656 104.888 0.222656C46.96 0.222656 0 47.1827 0 105.111C0 163.039 46.96 209.999 104.888 209.999Z" fill="#E1F8FF"/>
<path d="M45.9961 65.8593C45.8445 65.8593 45.7434 65.7582 45.7434 65.6066V34.1149H15.7176C15.5659 34.1149 15.4648 34.0138 15.4648 33.8621C15.4648 33.7105 15.5659 33.6094 15.7176 33.6094H45.9961C46.1478 33.6094 46.2489 33.7105 46.2489 33.8621V65.6066C46.2489 65.7329 46.1478 65.8593 45.9961 65.8593Z" fill="white"/>
<path d="M12.9136 36.9211C11.2203 36.9211 9.85547 35.5562 9.85547 33.8629C9.85547 32.1695 11.2203 30.8047 12.9136 30.8047C14.607 30.8047 15.9718 32.1695 15.9718 33.8629C15.9718 35.531 14.607 36.9211 12.9136 36.9211ZM12.9136 31.2849C11.4983 31.2849 10.361 32.4222 10.361 33.8376C10.361 35.253 11.4983 36.3903 12.9136 36.3903C14.329 36.3903 15.4663 35.253 15.4663 33.8376C15.4663 32.4475 14.329 31.2849 12.9136 31.2849Z" fill="white"/>
<path d="M134.609 34.1129H62.6785C62.5269 34.1129 62.4258 34.0118 62.4258 33.8602V16.9012C62.4258 16.7495 62.5269 16.6484 62.6785 16.6484C62.8302 16.6484 62.9313 16.7495 62.9313 16.9012V33.6075H134.609C134.761 33.6075 134.862 33.7086 134.862 33.8602C134.862 33.9866 134.735 34.1129 134.609 34.1129Z" fill="white"/>
<path d="M62.6793 17.2062C60.9859 17.2062 59.6211 15.8414 59.6211 14.148C59.6211 12.4547 60.9859 11.0898 62.6793 11.0898C64.3726 11.0898 65.7375 12.4547 65.7375 14.148C65.7375 15.8161 64.3474 17.2062 62.6793 17.2062ZM62.6793 11.5701C61.2639 11.5701 60.1266 12.7074 60.1266 14.1228C60.1266 15.5381 61.2639 16.6755 62.6793 16.6755C64.0946 16.6755 65.232 15.5381 65.232 14.1228C65.232 12.7074 64.0694 11.5701 62.6793 11.5701Z" fill="white"/>
<path d="M55.4254 42.5343C53.732 42.5343 52.3672 41.1695 52.3672 39.4761C52.3672 37.7828 53.732 36.418 55.4254 36.418C57.1188 36.418 58.4836 37.7828 58.4836 39.4761C58.4836 41.1695 57.0935 42.5343 55.4254 42.5343ZM55.4254 36.9235C54.01 36.9235 52.8727 38.0608 52.8727 39.4761C52.8727 40.8915 54.01 42.0288 55.4254 42.0288C56.8408 42.0288 57.9781 40.8915 57.9781 39.4761C57.9781 38.0608 56.8155 36.9235 55.4254 36.9235Z" fill="white"/>
<path d="M55.4246 62.3984C55.273 62.3984 55.1719 62.2973 55.1719 62.1456V42.2801C55.1719 42.1284 55.273 42.0273 55.4246 42.0273C55.5763 42.0273 55.6774 42.1284 55.6774 42.2801V62.1456C55.6774 62.2973 55.551 62.3984 55.4246 62.3984Z" fill="white"/>
<path d="M155.297 93.4593H148.398C147.791 90.0979 146.906 86.8122 145.769 83.6529L151.759 80.1904L140.057 59.9457L134.067 63.4083C131.868 60.8303 129.467 58.4292 126.889 56.2304L130.352 50.2404L110.107 38.5384L106.644 44.5284C103.485 43.4163 100.2 42.5317 96.838 41.8999V35H73.4594V41.8999C70.0979 42.5065 66.8122 43.3911 63.6529 44.5284L60.1904 38.5384L39.9457 50.2404L43.4083 56.2304C40.8303 58.4292 38.4292 60.8303 36.2304 63.4083L30.2404 59.9457L18.5384 80.1904L24.5284 83.6529C23.4163 86.8122 22.5317 90.0979 21.8999 93.4593H15V116.838H21.8999C22.5065 120.199 23.3911 123.485 24.5284 126.644L18.5384 130.107L30.2404 150.352L36.2304 146.889C38.4292 149.467 40.8303 151.868 43.4083 154.067L39.9457 160.057L60.1904 171.759L63.6529 165.769C66.8122 166.881 70.0979 167.766 73.4594 168.397V175.297H96.838V168.397C100.2 167.791 103.485 166.906 106.644 165.769L110.107 171.759L130.352 160.057L126.889 154.067C129.467 151.868 131.868 149.467 134.067 146.889L140.057 150.352L151.759 130.107L145.769 126.644C146.881 123.485 147.766 120.199 148.398 116.838H155.297V93.4593ZM123.881 106.425C123.224 126.72 106.695 143.25 86.425 143.881C64.0068 144.589 45.7082 126.291 46.4159 103.872C47.073 83.5771 63.6024 67.0478 83.8723 66.4159C106.265 65.7082 124.589 84.0068 123.881 106.425Z" fill="white"/>
<path d="M85.1344 156.566C56.7767 156.566 33.7266 133.491 33.7266 105.159C33.7266 92.7742 38.2001 80.7942 46.3132 71.468C54.3504 62.2176 65.3952 56.1265 77.451 54.332C77.5774 54.3067 77.7291 54.4079 77.7291 54.5342C77.7543 54.6606 77.6532 54.8122 77.5269 54.8122C52.8592 58.5276 34.232 80.1623 34.232 105.159C34.232 133.238 57.08 156.061 85.1344 156.061C108.336 156.061 128.581 140.391 134.419 117.973C134.444 117.846 134.596 117.745 134.722 117.796C134.849 117.821 134.95 117.973 134.899 118.099C129.036 140.745 108.564 156.566 85.1344 156.566Z" fill="#FFE7EB"/>
<path d="M153.928 44.2714C160.853 41.4028 164.142 33.4632 161.273 26.5379C158.404 19.6126 150.465 16.324 143.539 19.1926C136.614 22.0612 133.325 30.0008 136.194 36.9261C139.063 43.8515 147.002 47.1401 153.928 44.2714Z" fill="white"/>
<path d="M158.408 32.6041C158.898 26.7058 154.514 21.5266 148.616 21.0362C142.718 20.5457 137.539 24.9296 137.048 30.828C136.558 36.7263 140.942 41.9054 146.84 42.3959C152.738 42.8863 157.917 38.5024 158.408 32.6041Z" fill="#1AE3E3"/>
<path d="M149.282 42.7097C149.257 42.7097 149.231 42.7097 149.206 42.7097C143.166 42.6844 138.262 37.7306 138.313 31.6901C138.338 25.6748 143.267 20.7969 149.282 20.7969C149.307 20.7969 149.332 20.7969 149.358 20.7969C152.29 20.8221 155.044 21.9595 157.092 24.0573C159.139 26.1297 160.276 28.9099 160.251 31.8164C160.226 34.7483 159.088 37.5032 156.991 39.5504C154.918 41.5976 152.188 42.7097 149.282 42.7097ZM149.282 21.2771C143.545 21.2771 138.869 25.9275 138.818 31.6648C138.793 37.4273 143.444 42.1536 149.206 42.1789C149.231 42.1789 149.257 42.1789 149.257 42.1789C154.994 42.1789 159.67 37.5284 159.72 31.7912C159.745 26.0286 155.095 21.3024 149.332 21.2771C149.332 21.2771 149.307 21.2771 149.282 21.2771Z" fill="#0A6885"/>
<path d="M149.306 26.8096C146.298 26.8096 143.367 26.3041 140.789 25.3437C140.662 25.2932 140.586 25.1415 140.637 25.0151C140.687 24.8888 140.839 24.8129 140.965 24.8635C143.493 25.7986 146.374 26.3041 149.306 26.3041C152.213 26.3041 155.094 25.8239 157.596 24.8888C157.722 24.8382 157.874 24.914 157.925 25.0404C157.975 25.1668 157.899 25.3184 157.773 25.369C155.195 26.3041 152.263 26.8096 149.306 26.8096Z" fill="#0A6885"/>
<path d="M140.763 38.487C140.662 38.487 140.561 38.4365 140.535 38.3354C140.485 38.209 140.561 38.0574 140.687 38.0068C143.29 37.0211 146.273 36.5156 149.306 36.5156C152.338 36.5156 155.296 37.0211 157.899 38.0068C158.025 38.0574 158.101 38.209 158.05 38.3354C158 38.4617 157.848 38.5376 157.722 38.487C155.194 37.5266 152.263 37.0464 149.306 37.0464C146.323 37.0464 143.417 37.5519 140.864 38.5123C140.813 38.487 140.788 38.487 140.763 38.487Z" fill="#0A6885"/>
<path d="M149.282 42.7076C146.072 42.7076 143.469 37.7791 143.469 31.7386C143.469 25.698 146.072 20.7695 149.282 20.7695C152.492 20.7695 155.095 25.698 155.095 31.7386C155.095 37.7791 152.492 42.7076 149.282 42.7076ZM149.282 21.275C146.35 21.275 143.974 25.976 143.974 31.7386C143.974 37.5011 146.35 42.2021 149.282 42.2021C152.214 42.2021 154.589 37.5011 154.589 31.7386C154.589 25.976 152.214 21.275 149.282 21.275Z" fill="#0A6885"/>
<path d="M149.28 42.6844C149.128 42.6844 149.027 42.5833 149.027 42.4316V21.0496C149.027 20.898 149.128 20.7969 149.28 20.7969C149.432 20.7969 149.533 20.898 149.533 21.0496V42.4316C149.533 42.5833 149.432 42.6844 149.28 42.6844Z" fill="#0A6885"/>
<path d="M159.998 32.0183L138.565 31.8414C138.414 31.8414 138.312 31.7151 138.312 31.5887C138.312 31.4623 138.439 31.3359 138.565 31.3359L159.998 31.5129C160.149 31.5129 160.251 31.6392 160.251 31.7656C160.251 31.9172 160.124 32.0183 159.998 32.0183Z" fill="#0A6885"/>
<path d="M186.172 71.0391H143.281V98.2341H148.387L146.188 105.918L155.994 98.2341H186.172V71.0391Z" fill="#ACEBFF"/>
<path d="M200.324 83.651C200.324 86.8609 197.695 89.4894 194.486 89.4894H154.78C151.57 89.4894 148.941 86.8609 148.941 83.651C148.941 80.4412 151.57 77.8127 154.78 77.8127H194.486C197.67 77.7874 200.324 80.4159 200.324 83.651Z" fill="#097B9E"/>
<path d="M160.491 83.6515C160.491 84.9152 159.454 85.9515 158.191 85.9515C156.927 85.9515 155.891 84.9152 155.891 83.6515C155.891 82.3878 156.927 81.3516 158.191 81.3516C159.454 81.3516 160.491 82.3878 160.491 83.6515Z" fill="#C7FF50"/>
<path d="M167.869 83.6515C167.869 84.9152 166.833 85.9515 165.569 85.9515C164.306 85.9515 163.27 84.9152 163.27 83.6515C163.27 82.3878 164.306 81.3516 165.569 81.3516C166.833 81.3516 167.869 82.3878 167.869 83.6515Z" fill="#C7FF50"/>
<path d="M172.925 85.9515C174.195 85.9515 175.225 84.9218 175.225 83.6515C175.225 82.3813 174.195 81.3516 172.925 81.3516C171.655 81.3516 170.625 82.3813 170.625 83.6515C170.625 84.9218 171.655 85.9515 172.925 85.9515Z" fill="#C7FF50"/>
<path d="M182.604 83.6515C182.604 84.9152 181.568 85.9515 180.304 85.9515C179.04 85.9515 178.004 84.9152 178.004 83.6515C178.004 82.3878 179.04 81.3516 180.304 81.3516C181.568 81.3516 182.604 82.3878 182.604 83.6515Z" fill="#C7FF50"/>
<path d="M195.875 150.555C195.724 150.555 195.622 150.454 195.622 150.303V135.517H179.194C179.043 135.517 178.941 135.416 178.941 135.264C178.941 135.113 179.043 135.012 179.194 135.012H195.875C196.027 135.012 196.128 135.113 196.128 135.264V150.303C196.128 150.454 196.027 150.555 195.875 150.555Z" fill="white"/>
<path d="M195.875 156.874C194.181 156.874 192.816 155.509 192.816 153.816C192.816 152.123 194.181 150.758 195.875 150.758C197.568 150.758 198.933 152.123 198.933 153.816C198.933 155.509 197.568 156.874 195.875 156.874ZM195.875 151.263C194.459 151.263 193.322 152.401 193.322 153.816C193.322 155.231 194.459 156.369 195.875 156.369C197.29 156.369 198.427 155.231 198.427 153.816C198.427 152.401 197.29 151.263 195.875 151.263Z" fill="white"/>
<path d="M201.968 128.87H182.608C182.457 128.87 182.355 128.768 182.355 128.617C182.355 128.465 182.457 128.364 182.608 128.364H201.716V103.343C201.716 103.191 201.817 103.09 201.968 103.09C202.12 103.09 202.221 103.191 202.221 103.343V128.617C202.221 128.768 202.095 128.87 201.968 128.87Z" fill="white"/>
<path d="M201.968 103.468C200.275 103.468 198.91 102.103 198.91 100.41C198.91 98.7164 200.275 97.3516 201.968 97.3516C203.662 97.3516 205.027 98.7164 205.027 100.41C205.027 102.103 203.662 103.468 201.968 103.468ZM201.968 97.857C200.553 97.857 199.416 98.9944 199.416 100.41C199.416 101.825 200.553 102.962 201.968 102.962C203.384 102.962 204.521 101.825 204.521 100.41C204.521 98.9944 203.384 97.857 201.968 97.857Z" fill="white"/>
<path d="M191.073 128.869C190.921 128.869 190.82 128.768 190.82 128.617V110.925C190.82 110.773 190.921 110.672 191.073 110.672C191.225 110.672 191.326 110.773 191.326 110.925V128.617C191.326 128.768 191.225 128.869 191.073 128.869Z" fill="white"/>
<path d="M191.074 110.976C189.38 110.976 188.016 109.611 188.016 107.918C188.016 106.224 189.38 104.859 191.074 104.859C192.767 104.859 194.132 106.224 194.132 107.918C194.132 109.611 192.767 110.976 191.074 110.976ZM191.074 105.365C189.658 105.365 188.521 106.502 188.521 107.918C188.521 109.333 189.658 110.47 191.074 110.47C192.489 110.47 193.627 109.333 193.627 107.918C193.627 106.502 192.489 105.365 191.074 105.365Z" fill="white"/>
<path d="M81.9784 132.52H74.75V146.117H81.9784V132.52Z" fill="#1AE3E3"/>
<path d="M82.0046 138.662H74.7762C74.6245 138.662 74.5234 138.561 74.5234 138.409C74.5234 138.257 74.6245 138.156 74.7762 138.156H82.0046C82.1563 138.156 82.2574 138.257 82.2574 138.409C82.2574 138.561 82.131 138.662 82.0046 138.662Z" fill="#41193E"/>
<path d="M82.0046 141.693H74.7762C74.6245 141.693 74.5234 141.592 74.5234 141.44C74.5234 141.289 74.6245 141.188 74.7762 141.188H82.0046C82.1563 141.188 82.2574 141.289 82.2574 141.44C82.2574 141.592 82.131 141.693 82.0046 141.693Z" fill="#41193E"/>
<path d="M51.7734 71V106.434C51.7734 123.116 65.2952 136.637 81.9762 136.637C98.6572 136.637 112.204 123.116 112.204 106.434V71H51.7734Z" fill="#1AE3E3"/>
<path d="M65.6487 106.181L105.456 106.409C109.221 106.434 112.28 103.401 112.305 99.6351L112.33 96.1473C112.355 92.3814 109.323 89.3232 105.557 89.2979L65.7498 89.0705C61.9839 89.0452 58.9257 92.0781 58.9004 95.844L58.8752 99.3318C58.8499 103.098 61.8828 106.181 65.6487 106.181Z" fill="#335E6B"/>
<path d="M103.104 103.073C103.002 103.073 102.927 103.073 102.826 103.048C102.674 103.048 102.573 102.921 102.598 102.77C102.598 102.643 102.724 102.517 102.876 102.542C102.952 102.542 103.028 102.542 103.104 102.567C103.255 102.567 103.356 102.694 103.356 102.82C103.356 102.972 103.23 103.073 103.104 103.073ZM104.342 102.972C104.216 102.972 104.115 102.896 104.089 102.77C104.064 102.643 104.14 102.492 104.291 102.466C104.367 102.441 104.443 102.441 104.519 102.416C104.645 102.391 104.797 102.466 104.822 102.593C104.847 102.719 104.772 102.871 104.645 102.896C104.569 102.921 104.468 102.947 104.393 102.947C104.367 102.972 104.367 102.972 104.342 102.972ZM101.638 102.82C101.612 102.82 101.587 102.82 101.562 102.795C101.486 102.77 101.41 102.744 101.309 102.694C101.183 102.643 101.107 102.492 101.157 102.365C101.208 102.239 101.36 102.163 101.486 102.214C101.562 102.239 101.638 102.264 101.713 102.289C101.84 102.34 101.916 102.466 101.865 102.618C101.84 102.744 101.739 102.82 101.638 102.82ZM105.732 102.441C105.656 102.441 105.555 102.391 105.505 102.315C105.429 102.188 105.479 102.037 105.606 101.961C105.682 101.91 105.732 101.885 105.808 101.834C105.934 101.759 106.086 101.784 106.162 101.91C106.238 102.037 106.212 102.188 106.086 102.264C106.01 102.315 105.934 102.365 105.858 102.391C105.808 102.416 105.783 102.441 105.732 102.441ZM100.323 102.138C100.273 102.138 100.222 102.112 100.172 102.087C100.096 102.037 100.02 101.986 99.9695 101.936C99.8684 101.86 99.8432 101.683 99.919 101.582C99.9948 101.481 100.172 101.455 100.273 101.531C100.323 101.582 100.399 101.632 100.45 101.683C100.551 101.759 100.576 101.936 100.5 102.037C100.475 102.087 100.399 102.138 100.323 102.138ZM106.895 101.506C106.844 101.506 106.768 101.481 106.718 101.43C106.617 101.329 106.617 101.177 106.718 101.076C106.768 101.026 106.819 100.95 106.869 100.899C106.971 100.798 107.122 100.773 107.223 100.874C107.324 100.975 107.35 101.127 107.249 101.228C107.198 101.304 107.122 101.354 107.072 101.43C107.021 101.481 106.971 101.506 106.895 101.506ZM99.2619 101.076C99.1861 101.076 99.1102 101.051 99.0597 100.975C99.0091 100.899 98.9586 100.824 98.908 100.773C98.8322 100.647 98.8575 100.495 98.9839 100.419C99.1102 100.343 99.2619 100.369 99.3377 100.495C99.3882 100.571 99.4388 100.621 99.4641 100.697C99.5399 100.798 99.5146 100.975 99.4135 101.051C99.363 101.076 99.3124 101.076 99.2619 101.076ZM107.754 100.293C107.729 100.293 107.678 100.293 107.653 100.267C107.527 100.217 107.476 100.065 107.527 99.9389C107.552 99.8631 107.602 99.7873 107.628 99.7367C107.678 99.6103 107.83 99.5598 107.956 99.6103C108.083 99.6609 108.133 99.8125 108.083 99.9389C108.057 100.015 108.007 100.091 107.981 100.166C107.931 100.242 107.83 100.293 107.754 100.293ZM98.5542 99.7873C98.4531 99.7873 98.352 99.7114 98.3267 99.6103C98.3014 99.5345 98.2762 99.4334 98.2509 99.3576C98.2004 99.2312 98.2762 99.0796 98.4278 99.0543C98.5542 99.0038 98.7059 99.0796 98.7311 99.2312C98.7564 99.3071 98.7817 99.3829 98.8069 99.4587C98.8575 99.5851 98.7817 99.7367 98.6553 99.7873C98.6047 99.762 98.5795 99.7873 98.5542 99.7873ZM108.209 98.8774C108.184 98.8774 108.184 98.8774 108.158 98.8774C108.032 98.8521 107.931 98.7257 107.956 98.5994C107.956 98.5236 107.981 98.4477 107.981 98.3719C108.007 98.2455 108.108 98.1444 108.26 98.1444C108.386 98.1697 108.487 98.2961 108.487 98.4225C108.487 98.4983 108.462 98.5994 108.462 98.6752C108.436 98.8016 108.31 98.8774 108.209 98.8774ZM98.2762 98.3214C98.1498 98.3214 98.0234 98.2203 98.0234 98.0686C98.0234 97.9928 98.0234 97.917 98.0234 97.8411V97.8159L98.2762 97.7906L98.5289 97.8159V97.8411C98.5289 97.917 98.5289 97.9675 98.5289 98.0433C98.5289 98.195 98.4278 98.3214 98.2762 98.3214ZM108.209 97.3862C108.083 97.3862 107.982 97.2851 107.956 97.1587C107.956 97.0829 107.931 97.0071 107.906 96.9313C107.88 96.8049 107.981 96.6533 108.108 96.628C108.234 96.6027 108.386 96.6785 108.411 96.8302C108.436 96.906 108.436 97.0071 108.462 97.0829C108.487 97.2093 108.386 97.3609 108.234 97.3609C108.234 97.3862 108.234 97.3862 108.209 97.3862ZM98.4278 96.8302C98.4025 96.8302 98.3773 96.8302 98.352 96.8302C98.2256 96.8049 98.1245 96.6533 98.1751 96.5269C98.2004 96.4511 98.2256 96.35 98.2509 96.2741C98.3015 96.1478 98.4278 96.072 98.5795 96.1225C98.7058 96.173 98.7817 96.2994 98.7311 96.4511C98.7059 96.5269 98.6806 96.6027 98.6553 96.6785C98.63 96.7544 98.5289 96.8302 98.4278 96.8302ZM107.779 95.9709C107.678 95.9709 107.602 95.9203 107.552 95.8192C107.527 95.7434 107.476 95.6676 107.451 95.617C107.375 95.4906 107.425 95.339 107.552 95.2632C107.678 95.1873 107.83 95.2379 107.906 95.3643C107.956 95.4401 107.981 95.5159 108.032 95.5917C108.083 95.7181 108.032 95.8698 107.906 95.9203C107.855 95.9456 107.83 95.9709 107.779 95.9709ZM99.0091 95.4654C98.9586 95.4654 98.908 95.4654 98.8828 95.4148C98.7564 95.339 98.7311 95.1874 98.8069 95.061C98.8575 94.9852 98.908 94.9093 98.9586 94.8335C99.0344 94.7071 99.186 94.6819 99.3124 94.783C99.4388 94.8588 99.4641 95.0104 99.363 95.1368C99.3124 95.2126 99.2619 95.2632 99.2366 95.339C99.1861 95.4148 99.1102 95.4654 99.0091 95.4654ZM106.945 94.7324C106.869 94.7324 106.819 94.7071 106.768 94.6566C106.718 94.606 106.667 94.5302 106.617 94.4797C106.516 94.3786 106.516 94.2269 106.617 94.1258C106.718 94.0247 106.869 94.0247 106.971 94.1258C107.021 94.1764 107.097 94.2522 107.147 94.3028C107.249 94.4038 107.223 94.5555 107.122 94.6566C107.072 94.7071 107.021 94.7324 106.945 94.7324ZM99.9948 94.328C99.919 94.328 99.8432 94.3027 99.7926 94.2522C99.6915 94.1511 99.7168 93.9995 99.8179 93.8984C99.8937 93.8478 99.9443 93.7973 100.02 93.7214C100.121 93.6456 100.298 93.6456 100.374 93.772C100.45 93.8731 100.45 94.05 100.323 94.1258C100.273 94.1764 100.197 94.2269 100.146 94.2775C100.096 94.3028 100.045 94.328 99.9948 94.328ZM105.808 93.7973C105.757 93.7973 105.732 93.7973 105.682 93.772C105.606 93.7214 105.555 93.6962 105.479 93.6456C105.353 93.5698 105.302 93.4182 105.378 93.3171C105.454 93.1907 105.606 93.1401 105.707 93.216C105.783 93.2665 105.858 93.2918 105.934 93.3423C106.061 93.4182 106.086 93.5698 106.035 93.6962C105.96 93.7467 105.884 93.7973 105.808 93.7973ZM101.259 93.5192C101.157 93.5192 101.056 93.4687 101.031 93.3676C100.981 93.2412 101.031 93.0896 101.157 93.039C101.233 93.0138 101.309 92.9632 101.41 92.9379C101.537 92.8874 101.688 92.9632 101.739 93.0896C101.789 93.216 101.713 93.3676 101.587 93.4182C101.511 93.4434 101.435 93.4687 101.36 93.5192C101.309 93.5192 101.284 93.5192 101.259 93.5192ZM104.418 93.2412C104.393 93.2412 104.367 93.2412 104.367 93.2412C104.291 93.216 104.216 93.216 104.14 93.1907C104.013 93.1654 103.912 93.039 103.938 92.8874C103.963 92.761 104.089 92.6599 104.241 92.6852C104.317 92.7105 104.418 92.7105 104.494 92.7357C104.62 92.761 104.721 92.9127 104.671 93.039C104.645 93.1654 104.519 93.2412 104.418 93.2412ZM102.674 93.1401C102.548 93.1401 102.446 93.039 102.421 92.9127C102.396 92.7863 102.497 92.6599 102.649 92.6347C102.724 92.6347 102.826 92.6094 102.901 92.6094C103.028 92.6094 103.154 92.7105 103.179 92.8368C103.179 92.9885 103.078 93.0896 102.952 93.1149C102.876 93.1149 102.8 93.1149 102.724 93.1401C102.699 93.1401 102.699 93.1401 102.674 93.1401Z" fill="white"/>
<path d="M72.0937 102.922C71.9926 102.922 71.9168 102.922 71.8157 102.897C71.664 102.897 71.5629 102.771 71.5882 102.619C71.5882 102.493 71.7146 102.366 71.8662 102.392C71.942 102.392 72.0179 102.392 72.0937 102.417C72.2453 102.417 72.3464 102.543 72.3464 102.67C72.3212 102.796 72.2201 102.922 72.0937 102.922ZM73.3068 102.796C73.1805 102.796 73.0794 102.72 73.0541 102.594C73.0288 102.467 73.1047 102.316 73.2563 102.291C73.3321 102.265 73.408 102.265 73.4838 102.24C73.6102 102.215 73.7618 102.291 73.7871 102.417C73.8123 102.543 73.7365 102.695 73.6102 102.72C73.5343 102.745 73.4332 102.771 73.3574 102.771C73.3574 102.796 73.3321 102.796 73.3068 102.796ZM70.6278 102.644C70.6025 102.644 70.5772 102.644 70.552 102.619C70.4762 102.594 70.4003 102.569 70.2992 102.518C70.1729 102.467 70.097 102.316 70.1476 102.189C70.1981 102.063 70.3498 101.987 70.4761 102.038C70.552 102.063 70.6278 102.088 70.7036 102.114C70.83 102.164 70.9058 102.291 70.8553 102.442C70.83 102.569 70.7289 102.644 70.6278 102.644ZM74.6969 102.265C74.6211 102.265 74.52 102.215 74.4695 102.139C74.3937 102.013 74.4442 101.861 74.5706 101.785C74.6464 101.735 74.6969 101.709 74.7728 101.659C74.8991 101.583 75.0508 101.608 75.1266 101.735C75.2024 101.861 75.1771 102.013 75.0508 102.088C74.9749 102.139 74.8991 102.189 74.8233 102.215C74.798 102.265 74.7475 102.265 74.6969 102.265ZM69.2883 101.962C69.2377 101.962 69.1871 101.937 69.1366 101.911C69.0608 101.861 68.985 101.81 68.9344 101.76C68.8333 101.684 68.808 101.507 68.8838 101.406C68.9597 101.305 69.1366 101.28 69.2377 101.355C69.2882 101.406 69.3641 101.456 69.4146 101.507C69.5157 101.583 69.541 101.76 69.4652 101.861C69.4652 101.911 69.3894 101.962 69.2883 101.962ZM75.8848 101.355C75.8343 101.355 75.7584 101.33 75.7079 101.28C75.6068 101.178 75.6068 101.027 75.7079 100.926C75.7584 100.875 75.809 100.799 75.8596 100.749C75.9607 100.648 76.1123 100.622 76.2134 100.724C76.3145 100.825 76.3398 100.976 76.2387 101.077C76.1881 101.153 76.1123 101.204 76.0617 101.28C76.0112 101.33 75.9354 101.355 75.8848 101.355ZM68.252 100.926C68.1762 100.926 68.1004 100.9 68.0498 100.825C67.9993 100.749 67.9487 100.673 67.8982 100.622C67.8224 100.496 67.8476 100.344 67.974 100.269C68.1004 100.193 68.252 100.218 68.3278 100.344C68.3784 100.42 68.4289 100.471 68.4542 100.547C68.53 100.648 68.5048 100.825 68.4037 100.9C68.3531 100.9 68.3025 100.926 68.252 100.926ZM76.7189 100.117C76.6936 100.117 76.6431 100.117 76.6178 100.092C76.4914 100.041 76.4409 99.8895 76.4914 99.7631C76.5167 99.6873 76.5672 99.6115 76.5925 99.5609C76.643 99.4346 76.7947 99.384 76.9211 99.4346C77.0474 99.4851 77.098 99.6368 77.0474 99.7631C77.0222 99.8389 76.9716 99.9148 76.9463 99.9906C76.9211 100.066 76.82 100.117 76.7189 100.117ZM67.5443 99.6115C67.4432 99.6115 67.3421 99.5357 67.3169 99.4346C67.2916 99.3587 67.2663 99.2576 67.241 99.1818C67.1905 99.0554 67.2663 98.9038 67.418 98.8785C67.5443 98.828 67.696 98.9038 67.7212 99.0554C67.7465 99.1313 67.7718 99.2071 67.7971 99.2829C67.8476 99.4093 67.7718 99.5609 67.6454 99.6115C67.5949 99.6115 67.5696 99.6115 67.5443 99.6115ZM77.1738 98.7016C77.1485 98.7016 77.1486 98.7016 77.1233 98.7016C76.9969 98.6763 76.8958 98.55 76.9211 98.4236C76.9211 98.3478 76.9463 98.2719 76.9463 98.1961C76.9716 98.0697 77.0727 97.9434 77.2244 97.9687C77.3507 97.9939 77.4518 98.1203 77.4518 98.2467C77.4518 98.3225 77.4266 98.4236 77.4266 98.4994C77.4013 98.6258 77.3002 98.7016 77.1738 98.7016ZM67.241 98.1456C67.1147 98.1456 66.9883 98.0445 66.9883 97.8928C66.9883 97.817 66.9883 97.7412 66.9883 97.6654V97.6401L67.241 97.6148H67.4938V97.6654C67.4938 97.7412 67.4938 97.7917 67.4938 97.8676C67.519 98.0192 67.3927 98.1456 67.241 98.1456ZM77.1991 97.2104C77.0727 97.2104 76.9716 97.1093 76.9463 96.983C76.9463 96.9071 76.9211 96.8313 76.8958 96.7555C76.8705 96.6291 76.9716 96.4775 77.098 96.4522C77.2244 96.4269 77.376 96.528 77.4013 96.6544C77.4266 96.7302 77.4266 96.8313 77.4518 96.9071C77.4771 97.0335 77.376 97.1851 77.2244 97.1851C77.2244 97.2104 77.1991 97.2104 77.1991 97.2104ZM67.418 96.6544C67.3927 96.6544 67.3674 96.6544 67.3421 96.6544C67.2158 96.6291 67.1147 96.4775 67.1652 96.3511C67.1905 96.2753 67.2157 96.1742 67.241 96.0984C67.2916 95.972 67.418 95.8962 67.5696 95.9467C67.696 95.9973 67.7718 96.1236 67.7212 96.2753C67.696 96.3511 67.6707 96.4269 67.6454 96.5027C67.6202 96.5786 67.5191 96.6544 67.418 96.6544ZM76.7694 95.7951C76.6683 95.7951 76.5925 95.7445 76.542 95.6434C76.5167 95.5676 76.4661 95.4918 76.4409 95.4412C76.365 95.3149 76.4156 95.1632 76.542 95.0874C76.6683 95.0116 76.82 95.0621 76.8958 95.1885C76.9464 95.2643 76.9716 95.3401 77.0222 95.416C77.0727 95.5423 77.0222 95.694 76.8958 95.7445C76.8453 95.7951 76.7947 95.7951 76.7694 95.7951ZM67.9993 95.2896C67.9487 95.2896 67.8982 95.2896 67.8729 95.239C67.7465 95.1632 67.7213 95.0116 67.7971 94.8852C67.8476 94.8094 67.8982 94.7335 67.9487 94.6577C68.0245 94.5314 68.1762 94.5061 68.3026 94.6072C68.4289 94.683 68.4542 94.8346 68.3531 94.961C68.3025 95.0368 68.252 95.0874 68.2267 95.1632C68.1762 95.239 68.0751 95.2896 67.9993 95.2896ZM75.9354 94.5566C75.8595 94.5566 75.809 94.5314 75.7585 94.4808C75.7079 94.4303 75.6574 94.3544 75.6068 94.3039C75.5057 94.2028 75.5057 94.0511 75.6068 93.95C75.7079 93.849 75.8595 93.849 75.9606 93.95C76.0112 94.0006 76.087 94.0764 76.1376 94.127C76.2387 94.2281 76.2134 94.3797 76.1123 94.4808C76.0618 94.5314 75.9859 94.5566 75.9354 94.5566ZM68.9597 94.1522C68.8839 94.1522 68.808 94.127 68.7575 94.0764C68.6564 93.9753 68.6817 93.8237 68.7828 93.7226C68.8586 93.672 68.9091 93.6215 68.985 93.5457C69.0861 93.4698 69.263 93.4698 69.3388 93.5962C69.4146 93.6973 69.4146 93.8742 69.2883 93.95C69.2377 94.0006 69.1619 94.0511 69.1113 94.1017C69.0861 94.127 69.0355 94.1522 68.9597 94.1522ZM74.7728 93.6215C74.7222 93.6215 74.6969 93.6215 74.6464 93.5962C74.5706 93.5457 74.52 93.5204 74.4442 93.4698C74.3178 93.394 74.2673 93.2424 74.3431 93.1413C74.4189 93.0149 74.5706 92.9644 74.6717 93.0402C74.7475 93.0907 74.8233 93.116 74.8991 93.1665C75.0255 93.2424 75.0508 93.394 75.0002 93.5204C74.9497 93.5709 74.8739 93.6215 74.7728 93.6215ZM70.2234 93.3687C70.1223 93.3687 70.0212 93.3182 69.9959 93.2171C69.9454 93.0907 69.9959 92.9391 70.1223 92.8885C70.1981 92.8633 70.2739 92.8127 70.375 92.7874C70.5014 92.7369 70.6531 92.8127 70.7036 92.9391C70.7542 93.0654 70.6783 93.2171 70.552 93.2676C70.4762 93.2929 70.4003 93.3182 70.3245 93.3687C70.2992 93.3435 70.2739 93.3687 70.2234 93.3687ZM73.4079 93.0654C73.3827 93.0654 73.3574 93.0654 73.3574 93.0654C73.2816 93.0402 73.2058 93.0402 73.1299 93.0149C73.0036 92.9896 72.9025 92.8633 72.9277 92.7116C72.953 92.5852 73.0794 92.4841 73.231 92.5094C73.3069 92.5347 73.408 92.5347 73.4838 92.56C73.6102 92.5852 73.7112 92.7369 73.6607 92.8633C73.6101 92.9896 73.509 93.0654 73.4079 93.0654ZM71.664 92.9644C71.5376 92.9644 71.4365 92.8633 71.4113 92.7369C71.386 92.6105 71.4871 92.4841 71.6387 92.4589C71.7146 92.4589 71.8157 92.4336 71.8915 92.4336C72.0179 92.4336 72.1442 92.5347 72.1695 92.6611C72.1695 92.8127 72.0684 92.9138 71.9421 92.9391C71.8662 92.9391 71.7904 92.9391 71.7146 92.9644C71.6893 92.9644 71.664 92.9644 71.664 92.9644Z" fill="white"/>
<path d="M82.4559 121.698C76.4659 121.698 74.545 116.289 74.5197 116.239C74.4692 116.113 74.545 115.961 74.6714 115.91C74.7978 115.86 74.9494 115.936 75 116.062C75.0758 116.315 77.123 122.027 83.8965 121.092C84.0229 121.066 84.1745 121.167 84.1745 121.319C84.1998 121.445 84.0987 121.597 83.947 121.597C83.4416 121.648 82.9361 121.698 82.4559 121.698Z" fill="#41193E"/>
<path d="M122.316 143.539H31V163.051H122.316V143.539Z" fill="#1AE3E3"/>
<path d="M110.209 157.16H43.1055V186.377H110.209V157.16Z" fill="#1AE3E3"/>
<path d="M49.8543 186.582C49.7027 186.582 49.6016 186.481 49.6016 186.329V153.296C49.6016 153.144 49.7027 153.043 49.8543 153.043H89.8382C89.9898 153.043 90.0909 153.144 90.0909 153.296V166.742C90.0909 166.893 89.9898 166.994 89.8382 166.994C89.6865 166.994 89.5854 166.893 89.5854 166.742V153.548H50.107V186.329C50.107 186.481 50.006 186.582 49.8543 186.582Z" fill="#0A6885"/>
<path d="M121.38 131.004H113.696H110.714H103.031L102.07 134.542H110.714H113.696H122.34L121.38 131.004Z" fill="#0D7697"/>
<path d="M117.843 154.207H106.57V159.793H117.843V154.207Z" fill="#0D7697"/>
<path d="M121.407 137.172H103.008L104.777 157.315H119.613L121.407 137.172Z" fill="#00303F"/>
<path d="M123.453 133.605H100.934V137.169H123.453V133.605Z" fill="#0D7697"/>
<path d="M120.016 133.555H106.57V134.06H120.016V133.555Z" fill="#C7FF50"/>
<path d="M90.4954 173.819H36.4844V151.198C36.4844 151.046 36.5855 150.945 36.7371 150.945C36.8888 150.945 36.9899 151.046 36.9899 151.198V173.313H90.4954C90.6471 173.313 90.7482 173.414 90.7482 173.566C90.7482 173.692 90.6471 173.819 90.4954 173.819Z" fill="#0A6885"/>
<path d="M92.7212 175.282C93.6687 174.335 93.6687 172.798 92.7212 171.851C91.7737 170.903 90.2374 170.903 89.2899 171.851C88.3423 172.798 88.3423 174.335 89.2899 175.282C90.2374 176.23 91.7737 176.23 92.7212 175.282Z" fill="#0A6885"/>
<path d="M103.842 179.808C103.69 179.808 103.589 179.707 103.589 179.555V173.818H94.7684C94.6167 173.818 94.5156 173.717 94.5156 173.565C94.5156 173.414 94.6167 173.312 94.7684 173.312H104.095V179.555C104.095 179.682 103.993 179.808 103.842 179.808Z" fill="#0A6885"/>
<path d="M107.254 179.809C107.102 179.809 107.001 179.708 107.001 179.556V170.634H94.7684C94.6167 170.634 94.5156 170.533 94.5156 170.382C94.5156 170.23 94.6167 170.129 94.7684 170.129H107.507V179.531C107.507 179.683 107.405 179.809 107.254 179.809Z" fill="#0A6885"/>
<path d="M125.78 148.088H113.901C113.75 148.088 113.648 147.987 113.648 147.835C113.648 147.684 113.75 147.583 113.901 147.583H125.275V142.275H113.901C113.75 142.275 113.648 142.174 113.648 142.022C113.648 141.871 113.75 141.77 113.901 141.77H125.78V148.088Z" fill="#0A6885"/>
<path d="M127.917 148.422C128.225 147.118 127.417 145.811 126.113 145.503C124.809 145.195 123.502 146.003 123.194 147.307C122.886 148.611 123.694 149.918 124.998 150.226C126.302 150.533 127.609 149.726 127.917 148.422Z" fill="#0A6885"/>
<path d="M125.779 171.921H114.582V163.884C114.582 163.732 114.683 163.631 114.835 163.631C114.986 163.631 115.088 163.732 115.088 163.884V171.416H125.273V147.835C125.273 147.683 125.374 147.582 125.526 147.582C125.677 147.582 125.779 147.683 125.779 147.835V171.921Z" fill="#0A6885"/>
<path d="M171.449 186.327H115.391L138.163 137.648H194.246L171.449 186.327Z" fill="#C7FF50"/>
<path d="M82.0039 181.449C82.0039 184.154 84.2028 186.352 86.9071 186.352H133.816L136.116 181.449H82.0039Z" fill="#C7FF50"/>
</svg>
