<svg width="540" height="460" viewBox="0 0 540 460" fill="none" xmlns="http://www.w3.org/2000/svg">
<path d="M309.164 460C436.19 460 539.164 357.025 539.164 230C539.164 102.975 436.19 0 309.164 0C182.139 0 79.1641 102.975 79.1641 230C79.1641 357.025 182.139 460 309.164 460Z" fill="#04617E"/>
<path d="M404.047 389.837C404.047 389.837 403.992 389.837 403.936 389.837C403.659 389.782 403.438 389.505 403.493 389.228C406.652 368.722 414.466 348.936 426.05 331.977C435.693 317.956 447.719 305.929 461.797 296.23C462.074 296.064 462.406 296.119 462.572 296.397C462.739 296.674 462.683 297.006 462.406 297.172C448.385 306.816 436.469 318.731 426.936 332.642C415.409 349.435 407.705 369.11 404.546 389.394C404.546 389.616 404.324 389.837 404.047 389.837Z" fill="#025B77"/>
<path d="M396.12 391.331C395.898 391.331 395.677 391.165 395.621 390.943C390.356 375.592 387.973 358.743 388.749 342.283C389.414 328.649 392.13 315.404 396.896 302.934C397.007 302.657 397.339 302.49 397.616 302.601C397.893 302.712 398.06 303.044 397.949 303.322C393.238 315.736 390.522 328.871 389.913 342.338C389.137 358.632 391.465 375.314 396.73 390.555C396.84 390.832 396.674 391.165 396.397 391.276C396.231 391.331 396.175 391.331 396.12 391.331Z" fill="#025B77"/>
<path d="M429.65 369H365.527V416.053H429.65V369Z" fill="#03769A"/>
<path d="M207.741 166.984H187.513V161.221C185.074 160.777 182.635 160.112 180.308 159.281L177.426 164.269L159.913 154.127L162.794 149.139C160.91 147.531 159.137 145.758 157.529 143.874L152.541 146.755L142.399 129.242L147.387 126.36C146.556 123.977 145.946 121.594 145.447 119.155H139.684V98.9266H145.447C145.891 96.488 146.556 94.0495 147.387 91.7217L142.399 88.8398L152.541 71.3266L157.529 74.2085C159.137 72.3242 160.91 70.5507 162.794 68.9434L159.913 63.9555L177.426 53.8133L180.308 58.8013C182.635 57.9699 185.074 57.3603 187.513 56.8615V51.0977H207.741V56.8615C210.18 57.3049 212.619 57.9699 214.946 58.8013L217.828 53.8133L235.341 63.9555L232.46 68.9434C234.344 70.5507 236.117 72.3242 237.725 74.2085L242.713 71.3266L252.855 88.8398L247.867 91.7217C248.698 94.1049 249.308 96.488 249.807 98.9266H255.57V119.155H249.807C249.363 121.594 248.698 124.033 247.867 126.36L252.855 129.242L242.713 146.755L237.725 143.874C236.117 145.758 234.344 147.531 232.46 149.139L235.341 154.127L217.828 164.269L214.946 159.281C212.563 160.112 210.18 160.722 207.741 161.221V166.984ZM188.566 165.876H206.578V160.334L207.021 160.223C209.681 159.724 212.397 159.004 214.946 158.117L215.39 157.951L218.161 162.772L233.79 153.739L231.019 148.917L231.351 148.64C233.402 146.866 235.397 144.927 237.17 142.821L237.447 142.488L242.269 145.259L251.303 129.63L246.481 126.859L246.647 126.416C247.59 123.811 248.255 121.151 248.754 118.49L248.864 118.047H254.406V100.035H248.864L248.754 99.5916C248.255 96.9314 247.534 94.2157 246.647 91.6663L246.481 91.223L251.303 88.4519L242.269 72.8229L237.447 75.594L237.17 75.2615C235.397 73.1555 233.457 71.2157 231.351 69.4422L231.019 69.1651L233.79 64.3434L218.161 55.3097L215.39 60.1314L214.946 59.9651C212.341 59.023 209.681 58.3579 207.021 57.8591L206.578 57.7483V52.2061H188.566V57.7483L188.122 57.8591C185.462 58.3579 182.746 59.0784 180.197 59.9651L179.753 60.1314L176.982 55.3097L161.354 64.3434L164.125 69.1651L163.792 69.4422C161.686 71.2157 159.746 73.1555 157.973 75.2615L157.696 75.594L152.874 72.8229L143.84 88.4519L148.662 91.223L148.496 91.6663C147.553 94.2711 146.888 96.9314 146.39 99.5916L146.279 100.035H140.737V118.047H146.279L146.39 118.49C146.888 121.151 147.609 123.866 148.496 126.416L148.662 126.859L143.84 129.63L152.874 145.259L157.696 142.488L157.973 142.821C159.746 144.927 161.686 146.866 163.792 148.64L164.125 148.917L161.354 153.739L176.982 162.772L179.753 157.951L180.197 158.117C182.802 159.059 185.462 159.724 188.122 160.223L188.566 160.334V165.876ZM197.71 150.912C186.626 150.912 175.985 146.7 167.949 138.664C156.31 127.025 152.652 109.734 158.416 93.6615C162.407 82.4663 171.108 73.7651 182.303 69.7748C198.431 64.0109 215.667 67.6687 227.305 79.3073C238.944 90.9458 242.602 108.237 236.838 124.31C232.847 135.505 224.146 144.206 212.951 148.196C207.908 150.025 202.754 150.912 197.71 150.912ZM197.488 68.223C192.556 68.223 187.513 69.0543 182.58 70.8278C171.717 74.7073 163.238 83.1868 159.358 94.0495C153.761 109.734 157.308 126.582 168.669 137.943C180.031 149.305 196.823 152.852 212.563 147.254C223.426 143.375 231.85 134.895 235.785 124.033C241.382 108.348 237.835 91.5001 226.474 80.1386C218.715 72.3242 208.351 68.223 197.488 68.223Z" fill="#03769A"/>
<path d="M197.49 271.843C180.753 244.909 157.698 214.648 128.324 218.362C105.712 221.188 83.4325 252.501 86.9795 325.769C89.6952 383.019 115.522 415.607 130.375 426.636C172.939 458.282 249.864 457.617 294.811 412.116C300.741 406.13 333.163 373.376 325.016 336.521C316.425 297.282 264.44 265.415 197.49 271.843Z" fill="#007295"/>
<path d="M355.995 397.486L348.347 364.953L307.723 380.36L320.359 411.784L355.995 397.486Z" fill="#F7AFBC"/>
<path d="M373.618 348.051L345.574 366.118L356.271 394.494L365.582 406.521C372.288 415.277 387.196 417.272 398.114 413.06L373.618 348.051Z" fill="#00303F"/>
<path d="M390.522 392.556L369.517 418.493L339.645 387.013L364.64 364.18L390.522 392.556Z" fill="#F7AFBC"/>
<path d="M366.911 437.058L356.824 405.079L385.976 387.511L402.27 382.911C414.075 379.53 427.764 386.735 433.694 396.821L366.911 437.058Z" fill="#00303F"/>
<path d="M169.723 342.396C169.723 342.396 180.918 368.722 201.756 375.483C225.588 383.242 293.701 351.208 293.701 351.208L339.646 395.102L373.508 365.618C373.508 365.618 334.547 303.934 306.115 295.676C270.147 285.256 169.723 342.396 169.723 342.396Z" fill="#00303F"/>
<path d="M166.176 346.496C166.176 346.496 183.911 317.234 205.248 322.111C229.689 327.708 263.053 379.749 263.053 379.749L329.947 364.73L338.87 408.513C338.87 408.513 273.638 441.267 245.041 433.675C208.851 424.142 166.176 346.496 166.176 346.496Z" fill="#00303F"/>
<path d="M335.268 391.496C334.991 391.496 334.769 391.329 334.714 391.052L329.504 365.447L311.492 368.939C311.215 368.994 310.882 368.828 310.827 368.496C310.771 368.218 310.938 367.886 311.27 367.83L330.391 364.117L335.822 390.83C335.877 391.108 335.711 391.44 335.379 391.496C335.323 391.496 335.268 391.496 335.268 391.496Z" fill="#602960"/>
<path d="M254.738 367.502C254.572 367.502 254.405 367.446 254.295 367.28L253.242 365.839C249.972 361.35 246.314 356.306 240.772 350.93C240.55 350.709 240.55 350.376 240.772 350.155C240.993 349.933 241.326 349.933 241.548 350.155C247.145 355.586 250.859 360.685 254.184 365.229L255.237 366.67C255.403 366.892 255.348 367.28 255.126 367.446C254.96 367.446 254.849 367.502 254.738 367.502Z" fill="#602960"/>
<path d="M238.224 230.219C272.086 250.392 289.433 266.298 281.563 276.551C276.963 282.481 252.079 276.33 224.59 261.643C228.636 251.667 233.069 242.134 238.224 230.219Z" fill="#F7AFBC"/>
<path d="M137.413 255.938C130.097 271.345 106.432 314.629 123.668 323.663C137.912 331.145 159.249 288.027 167.451 273.174C157.42 267.41 147.444 261.646 137.413 255.938Z" fill="#F7AFBC"/>
<path d="M127.934 257.432C127.934 257.432 153.15 233.823 181.194 227.505C209.237 221.242 239.331 223.403 239.331 223.403L236.56 261.534L258.562 315.237L165.177 351.206L153.76 296.837L127.934 257.432Z" fill="#1AE3E3"/>
<path d="M263.163 255.989C253.742 264.08 230.575 281.926 228.358 283.81C224.257 287.247 202.754 306.256 205.192 309.637C206.356 311.244 210.623 307.808 212.064 306.589C211.399 308.141 208.185 313.794 209.903 315.234C211.898 316.897 216.775 310.745 216.886 310.69C216.055 312.186 212.508 318.061 213.727 319.169C215.334 320.61 220.322 316.177 221.708 314.791C221.763 315.124 218.382 321.165 219.435 321.996C220.599 322.938 225.31 318.892 227.305 317.451C230.963 314.403 245.761 303.319 253.187 298.275C270.645 286.415 281.508 276.55 281.508 276.55C281.508 276.55 269.869 255.878 263.163 255.989Z" fill="#F7AFBC"/>
<path d="M245.596 270.399C245.43 270.399 245.263 270.344 245.153 270.178C244.986 269.956 244.986 269.568 245.263 269.402C249.919 265.689 259.562 257.93 262.721 255.325C262.943 255.103 263.331 255.158 263.497 255.38C263.719 255.602 263.663 255.99 263.442 256.156C260.283 258.816 250.639 266.52 245.928 270.289C245.818 270.399 245.707 270.399 245.596 270.399Z" fill="#41193E"/>
<path d="M211.896 307.032C211.785 307.032 211.73 307.032 211.619 306.977C211.342 306.811 211.286 306.478 211.397 306.201C211.951 305.204 212.617 304.261 213.337 303.375C214.612 301.767 216.053 300.271 217.715 298.996C217.937 298.83 218.325 298.83 218.491 299.107C218.658 299.329 218.657 299.717 218.38 299.883C216.829 301.102 215.443 302.488 214.224 304.04C213.559 304.926 212.949 305.813 212.395 306.755C212.284 306.922 212.062 307.032 211.896 307.032Z" fill="#41193E"/>
<path d="M216.774 311.191C216.664 311.191 216.553 311.136 216.442 311.08C216.22 310.914 216.165 310.526 216.331 310.305C216.497 310.138 216.608 309.917 216.774 309.695C218.049 308.088 219.49 306.591 221.153 305.317C221.374 305.15 221.762 305.15 221.929 305.427C222.095 305.649 222.095 306.037 221.818 306.203C220.266 307.423 218.88 308.808 217.661 310.36C217.495 310.526 217.384 310.748 217.218 310.914C217.107 311.136 216.941 311.191 216.774 311.191Z" fill="#41193E"/>
<path d="M221.82 315.178C221.709 315.178 221.543 315.122 221.432 315.011C221.21 314.79 221.21 314.457 221.376 314.235C222.263 313.238 223.261 312.351 224.369 311.52C224.591 311.353 224.979 311.353 225.145 311.631C225.311 311.852 225.311 312.24 225.034 312.406C224.037 313.182 223.039 314.069 222.208 315.011C222.152 315.122 221.986 315.178 221.82 315.178Z" fill="#41193E"/>
<path d="M185.244 179.954C186.02 179.733 193.613 177.682 199.155 182.116C203.311 185.386 204.641 190.318 205.584 198.964C206.747 209.106 206.027 215.313 203.478 217.863C199.487 221.798 184.523 217.309 177.817 209.494C172.94 203.841 171.887 195.639 174.658 188.656C177.485 181.728 184.745 180.121 185.244 179.954Z" fill="#F7AFBC"/>
<path d="M187.349 244.688C180.976 245.02 175.545 240.143 175.212 233.77L173.383 198.743C173.051 192.37 177.928 186.938 184.301 186.606C190.675 186.273 196.106 191.15 196.439 197.524L198.268 232.55C198.6 238.924 193.723 244.355 187.349 244.688Z" fill="#F7AFBC"/>
<path d="M197.604 220.135C191.618 219.747 182.529 216.089 177.43 210.159C177.209 209.938 177.264 209.605 177.486 209.383C177.707 209.162 178.04 209.217 178.262 209.439C183.028 214.925 191.84 218.639 197.659 219.027C197.992 219.027 198.213 219.304 198.158 219.636C198.158 219.913 197.881 220.135 197.604 220.135Z" fill="#41193E"/>
<path d="M200.372 210.658C199.873 210.658 199.319 210.492 198.931 210.215C197.767 209.383 197.878 207.887 197.878 207.832C197.878 207.499 198.155 207.277 198.488 207.333C198.82 207.333 199.042 207.61 198.986 207.942C198.986 207.942 198.931 208.885 199.596 209.328C200.15 209.716 200.871 209.66 201.425 209.217C201.647 209.051 202.034 209.051 202.201 209.328C202.367 209.55 202.367 209.938 202.09 210.104C201.536 210.436 200.926 210.658 200.372 210.658Z" fill="#41193E"/>
<path d="M205.25 202.289C205.305 202.788 205.472 203.508 205.915 204.173C206.469 205.005 207.079 205.171 207.19 205.725C207.245 206.113 207.079 206.723 205.971 207.554L205.25 202.289Z" fill="#FABCC6"/>
<path d="M205.971 208.164C205.804 208.164 205.638 208.109 205.527 207.942C205.361 207.721 205.361 207.333 205.638 207.166C206.303 206.612 206.691 206.169 206.691 205.836C206.691 205.725 206.58 205.615 206.303 205.393C206.082 205.171 205.804 204.894 205.472 204.506C205.029 203.896 204.807 203.176 204.696 202.345C204.641 202.068 204.862 201.79 205.195 201.735C205.472 201.68 205.749 201.901 205.804 202.234C205.86 202.843 206.082 203.398 206.414 203.897C206.636 204.229 206.857 204.395 207.079 204.617C207.412 204.894 207.689 205.171 207.8 205.725C207.91 206.501 207.467 207.277 206.359 208.109C206.192 208.109 206.082 208.164 205.971 208.164Z" fill="#41193E"/>
<path d="M183.472 209.217C181.311 209.217 179.149 208.053 177.708 206.058C176.655 204.562 176.101 202.788 176.267 201.07C176.378 199.297 177.21 197.856 178.54 196.914C180.59 195.417 183.528 195.639 185.855 197.412C186.077 197.579 186.132 197.967 185.966 198.188C185.8 198.41 185.412 198.465 185.19 198.299C183.251 196.803 180.867 196.636 179.205 197.8C178.152 198.576 177.542 199.74 177.431 201.181C177.32 202.622 177.764 204.174 178.706 205.448C180.202 207.555 182.641 208.552 184.747 207.998C185.024 207.942 185.357 208.109 185.412 208.386C185.467 208.663 185.301 208.995 185.024 209.051C184.47 209.106 183.971 209.217 183.472 209.217Z" fill="#41193E"/>
<path d="M180.757 205.17C180.591 205.17 180.48 205.114 180.369 205.003C180.203 204.837 180.036 204.615 179.87 204.449C179.26 203.618 178.983 202.676 179.094 201.733C179.15 200.736 179.593 199.96 180.369 199.406C180.757 199.129 181.145 198.962 181.644 198.907C181.921 198.852 182.253 199.073 182.253 199.35C182.309 199.627 182.087 199.96 181.81 199.96C181.533 200.015 181.256 200.126 181.034 200.293C180.591 200.625 180.313 201.179 180.258 201.789C180.203 202.454 180.424 203.174 180.868 203.784C180.979 203.95 181.089 204.061 181.256 204.227C181.477 204.449 181.477 204.782 181.256 205.003C181.034 205.114 180.923 205.17 180.757 205.17Z" fill="#41193E"/>
<path d="M202.589 182.891C198.377 179.621 194.442 179.178 192.558 178.679C194.387 178.624 196.604 178.735 198.987 179.123C199.707 179.234 200.428 179.344 201.093 179.511C200.428 178.956 199.708 178.402 198.932 177.903C196.659 176.518 194.055 175.243 191.283 174.966C186.351 174.578 181.695 177.903 180.144 178.79C181.03 177.903 182.139 176.906 183.524 175.908C184.245 175.409 185.021 174.966 185.686 174.578C182.97 174.578 180.476 174.911 178.426 176.13C177.483 176.684 176.874 177.349 176.042 178.347C175.156 179.455 174.546 180.841 174.047 181.783C174.103 181.395 174.214 180.785 174.435 180.065C174.491 179.788 174.657 179.234 174.879 178.624C174.047 179.344 173.271 180.176 172.606 181.062C167.729 187.824 169.724 194.253 173.216 197.855C181.474 196.248 189.233 193.144 196.826 191.593C195.052 191.205 193.722 190.429 193.002 189.985C197.38 190.706 199.874 190.872 201.315 190.928C203.532 190.983 205.361 191.038 207.91 190.872C207.577 189.653 205.638 185.275 202.589 182.891Z" fill="#003C4F"/>
<path d="M202.535 199.132C202.591 200.351 201.981 201.349 201.15 201.404C200.318 201.46 199.598 200.517 199.543 199.298C199.487 198.079 200.097 197.081 200.928 197.026C201.704 196.97 202.425 197.913 202.535 199.132Z" fill="#41193E"/>
<path d="M197.989 193.31C197.822 193.31 197.656 193.254 197.545 193.143C197.323 192.922 197.323 192.589 197.545 192.368C197.989 191.98 198.432 191.592 198.931 191.37C200.87 190.372 202.478 191.148 202.81 191.259C203.087 191.425 203.198 191.758 203.032 191.98C202.866 192.257 202.533 192.368 202.311 192.201C202.201 192.146 200.926 191.536 199.43 192.312C199.042 192.534 198.654 192.756 198.321 193.088C198.21 193.254 198.099 193.31 197.989 193.31Z" fill="#41193E"/>
<path d="M304.564 317.843L197.046 336.963C193.776 337.573 190.617 335.356 190.063 332.086L189.73 330.312L309.109 309.086L309.441 310.859C310.051 314.129 307.834 317.233 304.564 317.843Z" fill="#C7FF50"/>
<path d="M316.315 307.754L224.094 324.159L237.118 254.327L329.395 237.867L316.315 307.754Z" fill="#C7FF50"/>
<path d="M282.729 279.269C282.452 281.264 281.067 282.76 279.626 282.594C278.185 282.428 277.187 280.654 277.464 278.604C277.741 276.608 279.127 275.112 280.568 275.278C282.009 275.445 282.951 277.218 282.729 279.269Z" fill="#003C4F"/>
<path d="M132.757 293.125C154.261 300.441 178.868 313.298 186.073 315.238C186.793 315.183 188.013 315.072 189.62 315.349C195.494 316.458 196.769 321.39 202.422 325.325C208.851 329.814 215.003 328.706 215.225 330.701C215.335 332.086 213.119 333.139 208.186 333.527C211.955 333.694 217.109 334.137 216.998 336.188C216.776 338.571 210.68 338.792 207.022 338.737C211.456 338.792 213.839 340.178 213.506 341.342C212.952 343.171 209.516 343.891 203.586 343.559C207.576 344.944 208.352 345.831 207.798 346.773C206.8 348.491 201.979 348.159 197.711 347.161C192.945 346.053 182.249 340.843 180.198 339.236L124.555 323.884L132.757 293.125Z" fill="#F7AFBC"/>
<path d="M151.932 301.105C151.877 301.105 151.766 301.105 151.71 301.049C144.395 297.946 138.132 295.507 132.59 293.623C132.313 293.512 132.147 293.235 132.257 292.902C132.368 292.625 132.645 292.459 132.978 292.57C138.575 294.454 144.838 296.893 152.154 300.052C152.431 300.163 152.542 300.495 152.431 300.772C152.375 300.994 152.154 301.105 151.932 301.105Z" fill="#41193E"/>
<path d="M196.38 322.884C204.028 321.609 206.522 319.559 206.3 318.339C205.912 316.289 198.929 314.681 187.457 315.125C189.729 317.508 194.108 320.501 196.38 322.884Z" fill="#FABCC6"/>
<path d="M198.763 323.107C198.597 323.107 198.486 323.051 198.375 322.94C197.71 322.275 197.101 321.61 196.547 320.945C195.327 319.615 194.219 318.34 192.889 317.454C192.612 317.287 192.556 316.955 192.722 316.678C192.889 316.401 193.221 316.345 193.498 316.511C194.939 317.509 196.159 318.784 197.378 320.169C197.932 320.779 198.542 321.444 199.207 322.109C199.428 322.331 199.428 322.663 199.207 322.885C199.04 323.051 198.93 323.107 198.763 323.107Z" fill="#41193E"/>
<path d="M208.076 333.915H208.021C206.58 333.749 205.249 333.416 203.919 332.862C203.033 332.474 202.146 332.031 201.314 331.532C201.037 331.366 200.982 331.033 201.148 330.756C201.314 330.479 201.647 330.423 201.924 330.59C202.7 331.088 203.531 331.532 204.363 331.864C205.582 332.363 206.857 332.696 208.187 332.862C208.464 332.917 208.686 333.194 208.686 333.472C208.575 333.693 208.353 333.915 208.076 333.915Z" fill="#41193E"/>
<path d="M207.467 339.122H207.411C205.97 338.956 204.585 338.623 203.31 338.069C202.423 337.681 201.536 337.238 200.705 336.739C200.428 336.573 200.373 336.24 200.539 335.963C200.705 335.686 201.038 335.63 201.315 335.797C202.091 336.295 202.922 336.739 203.753 337.071C204.973 337.57 206.247 337.903 207.577 338.069C207.854 338.124 208.076 338.401 208.076 338.679C207.965 338.9 207.744 339.122 207.467 339.122Z" fill="#41193E"/>
<path d="M203.474 344.114H203.419C201.978 343.948 200.648 343.615 199.318 343.061C198.431 342.673 197.544 342.23 196.713 341.731C196.436 341.565 196.38 341.232 196.547 340.955C196.713 340.678 197.045 340.623 197.323 340.789C198.098 341.288 198.93 341.731 199.761 342.064C200.98 342.562 202.255 342.895 203.585 343.061C203.862 343.117 204.084 343.394 204.084 343.671C203.973 343.892 203.751 344.114 203.474 344.114Z" fill="#41193E"/>
<path d="M348.9 60.5213C348.9 60.5213 214.336 56.0875 214.336 60.9646V213.485H237.114V236.928L253.242 213.485H476.758V60.9646C476.758 56.0875 348.9 60.5213 348.9 60.5213Z" fill="#046583"/>
<path d="M476.758 44.4492H214.336V60.9649H476.758V44.4492Z" fill="#024B62"/>
<path opacity="0.1" d="M229.122 52.9355C229.226 50.8566 227.625 49.0873 225.546 48.9837C223.467 48.88 221.698 50.4812 221.594 52.56C221.49 54.6389 223.092 56.4083 225.17 56.5119C227.249 56.6156 229.019 55.0144 229.122 52.9355Z" fill="white"/>
<path opacity="0.1" d="M237.503 56.5842C239.584 56.5842 241.272 54.8969 241.272 52.8155C241.272 50.7342 239.584 49.0469 237.503 49.0469C235.422 49.0469 233.734 50.7342 233.734 52.8155C233.734 54.8969 235.422 56.5842 237.503 56.5842Z" fill="white"/>
<path opacity="0.1" d="M249.64 56.5842C251.721 56.5842 253.408 54.8969 253.408 52.8155C253.408 50.7342 251.721 49.0469 249.64 49.0469C247.558 49.0469 245.871 50.7342 245.871 52.8155C245.871 54.8969 247.558 56.5842 249.64 56.5842Z" fill="white"/>
<path d="M305.948 104.523H236.449V110.232H305.948V104.523Z" fill="#03769A"/>
<path d="M361.038 104.523H314.539V110.232H361.038V104.523Z" fill="#03769A"/>
<path d="M273.803 122.922H236.449V128.63H273.803V122.922Z" fill="#03769A"/>
<path d="M356.493 122.922H282.395V128.63H356.493V122.922Z" fill="#03769A"/>
<path d="M273.803 178.07H236.449V183.779H273.803V178.07Z" fill="#03769A"/>
<path d="M356.493 178.07H282.395V183.779H356.493V178.07Z" fill="#03769A"/>
<path d="M338.093 141.266H259.395V146.974H338.093V141.266Z" fill="#03769A"/>
<path d="M301.349 159.668H259.395V165.376H301.349V159.668Z" fill="#03769A"/>
<path d="M245.871 95.049C245.705 95.049 245.594 94.9936 245.483 94.8827L235.84 85.2393L245.483 75.596C245.705 75.3743 246.037 75.3743 246.259 75.596C246.481 75.8176 246.481 76.1502 246.259 76.3719L237.392 85.2393L246.259 94.1068C246.481 94.3285 246.481 94.661 246.259 94.8827C246.148 94.9936 246.037 95.049 245.871 95.049Z" fill="#03769A"/>
<path d="M261 95.049C260.833 95.049 260.722 94.9936 260.612 94.8827C260.39 94.661 260.39 94.3285 260.612 94.1068L269.479 85.2393L260.612 76.3719C260.39 76.1502 260.39 75.8176 260.612 75.596C260.833 75.3743 261.166 75.3743 261.387 75.596L271.031 85.2393L261.387 94.8827C261.277 94.9936 261.166 95.049 261 95.049Z" fill="#03769A"/>
<path d="M249.475 94.4979C249.419 94.4979 249.309 94.4979 249.253 94.4425C248.976 94.3316 248.865 93.9991 248.976 93.722L256.957 76.3196C257.068 76.0425 257.4 75.9316 257.677 76.0425C257.954 76.1533 258.065 76.4858 257.954 76.763L249.974 94.1654C249.918 94.387 249.697 94.4979 249.475 94.4979Z" fill="#03769A"/>
<path d="M433.364 154.625H422.003C421.67 154.625 421.448 154.404 421.448 154.071V151.189C420.118 150.912 418.788 150.579 417.458 150.136L416.017 152.63C415.851 152.907 415.518 152.963 415.241 152.852L405.376 147.143C405.099 146.977 405.044 146.645 405.154 146.367L406.595 143.818C405.542 142.931 404.6 141.934 403.713 140.936L401.164 142.377C401.053 142.432 400.887 142.488 400.721 142.432C400.554 142.377 400.444 142.322 400.388 142.155L394.68 132.29C394.514 132.013 394.624 131.681 394.901 131.514L397.395 130.073C396.952 128.799 396.62 127.469 396.342 126.083H393.46C393.128 126.083 392.906 125.861 392.906 125.529V114.167C392.906 113.835 393.128 113.613 393.46 113.613H396.342C396.62 112.283 396.952 110.953 397.395 109.623L394.901 108.182C394.624 108.016 394.569 107.683 394.68 107.406L400.388 97.5409C400.444 97.4301 400.61 97.3192 400.721 97.2638C400.887 97.2084 400.998 97.2638 401.164 97.3192L403.713 98.7602C404.6 97.7072 405.598 96.765 406.595 95.8783L405.154 93.3289C404.988 93.0518 405.099 92.7192 405.376 92.553L415.241 86.8446C415.352 86.7891 415.518 86.7337 415.685 86.7891C415.851 86.8445 415.962 86.9 416.017 87.0662L417.458 89.5602C418.677 89.1168 420.007 88.6735 421.448 88.3964V85.5698C421.448 85.2373 421.67 85.0156 422.003 85.0156H433.364C433.697 85.0156 433.918 85.2373 433.918 85.5698V88.4518C435.248 88.7289 436.579 89.0614 437.909 89.5048L439.35 87.0108C439.516 86.7337 439.848 86.6783 440.126 86.7891L449.991 92.4976C450.268 92.6638 450.323 92.9963 450.212 93.2735L448.771 95.8229C449.824 96.7096 450.766 97.7072 451.653 98.7048L454.203 97.2638C454.313 97.2084 454.48 97.153 454.646 97.2084C454.812 97.2638 454.923 97.3192 454.979 97.4855L460.687 107.351C460.853 107.628 460.742 107.96 460.465 108.126L457.971 109.567C458.415 110.842 458.747 112.172 459.024 113.558H461.906C462.239 113.558 462.46 113.779 462.46 114.112V125.473C462.46 125.806 462.239 126.028 461.906 126.028H459.024C458.747 127.358 458.415 128.688 457.971 130.018L460.465 131.459C460.742 131.625 460.798 131.958 460.687 132.235L454.979 142.1C454.923 142.211 454.757 142.322 454.646 142.377C454.48 142.432 454.369 142.377 454.203 142.322L451.653 140.881C450.766 141.934 449.769 142.876 448.771 143.763L450.212 146.312C450.379 146.589 450.268 146.922 449.991 147.088L440.126 152.796C439.848 152.963 439.516 152.852 439.35 152.575L437.909 150.081C436.634 150.524 435.304 150.857 433.918 151.134V154.016C433.918 154.348 433.697 154.625 433.364 154.625ZM422.557 153.517H432.81V150.69C432.81 150.413 432.976 150.192 433.253 150.136C434.86 149.859 436.412 149.416 437.964 148.861C438.241 148.751 438.518 148.861 438.629 149.083L440.015 151.522L448.938 146.367L447.552 143.929C447.441 143.707 447.497 143.43 447.663 143.208C448.882 142.155 450.046 140.992 451.099 139.772C451.265 139.551 451.542 139.495 451.82 139.661L454.258 141.047L459.412 132.124L456.974 130.739C456.752 130.628 456.641 130.351 456.752 130.073C457.306 128.522 457.694 126.97 458.027 125.363C458.082 125.086 458.304 124.919 458.581 124.919H461.407V114.666H458.581C458.304 114.666 458.082 114.5 458.027 114.223C457.75 112.616 457.306 111.064 456.752 109.512C456.641 109.235 456.752 108.958 456.974 108.847L459.412 107.461L454.258 98.5385L451.82 99.9241C451.598 100.035 451.321 99.9795 451.099 99.8132C450.046 98.5939 448.882 97.4301 447.663 96.3771C447.441 96.2108 447.386 95.9337 447.552 95.6566L448.938 93.218L440.015 88.0638L438.629 90.5024C438.518 90.7241 438.241 90.8349 437.964 90.7241C436.412 90.1699 434.86 89.7819 433.253 89.4494C432.976 89.3939 432.81 89.1723 432.81 88.8951V86.0686H422.557V88.7843C422.557 89.0614 422.391 89.2831 422.114 89.3385C420.451 89.6156 418.844 90.2253 417.403 90.6686C417.126 90.7795 416.848 90.6686 416.738 90.447L415.352 88.0084L406.429 93.1626L407.815 95.6012C407.926 95.8229 407.87 96.1 407.704 96.3216C406.485 97.3747 405.321 98.5385 404.268 99.7578C404.101 99.9795 403.824 100.035 403.547 99.8686L401.109 98.4831L395.954 107.406L398.393 108.792C398.615 108.902 398.726 109.179 398.615 109.457C398.06 111.008 397.673 112.56 397.34 114.167C397.285 114.445 397.063 114.611 396.786 114.611H393.959V124.864H396.786C397.063 124.864 397.285 125.03 397.34 125.307C397.617 126.914 398.06 128.466 398.615 130.018C398.726 130.295 398.615 130.572 398.393 130.683L395.954 132.069L401.109 140.992L403.547 139.606C403.769 139.495 404.046 139.551 404.268 139.717C405.321 140.936 406.485 142.1 407.704 143.153C407.926 143.319 407.981 143.596 407.815 143.873L406.429 146.312L415.352 151.466L416.738 149.028C416.848 148.806 417.126 148.695 417.403 148.806C418.954 149.36 420.506 149.748 422.114 150.081C422.391 150.136 422.557 150.358 422.557 150.635V153.517ZM427.711 140.77C422.169 140.77 416.904 138.664 412.913 134.673C407.094 128.854 405.265 120.264 408.147 112.283C410.142 106.741 414.465 102.363 420.007 100.423C428.044 97.5409 436.579 99.3698 442.398 105.189C448.217 111.008 450.046 119.599 447.164 127.579C445.169 133.122 440.846 137.5 435.304 139.44C432.81 140.326 430.26 140.77 427.711 140.77ZM427.767 100.09C425.383 100.09 422.889 100.534 420.451 101.42C415.186 103.305 411.085 107.406 409.256 112.616C406.485 120.319 408.203 128.3 413.745 133.842C419.342 139.44 427.268 141.102 434.971 138.331C440.236 136.447 444.338 132.346 446.166 127.136C448.938 119.432 447.22 111.452 441.677 105.91C437.853 102.086 432.921 100.09 427.767 100.09Z" fill="#03769A"/>
<path d="M539.384 260.926C539.384 264.75 536.281 267.854 532.456 267.854H334.047V122.039H539.384V260.926Z" fill="#006584"/>
<path d="M539.384 122.039H334.047V135.008H539.384V122.039Z" fill="#024B62"/>
<path opacity="0.1" d="M345.629 128.578C345.629 130.185 344.299 131.515 342.691 131.515C341.084 131.515 339.754 130.185 339.754 128.578C339.754 126.971 341.084 125.641 342.691 125.641C344.299 125.641 345.629 126.971 345.629 128.578Z" fill="white"/>
<path opacity="0.1" d="M355.109 128.578C355.109 130.185 353.779 131.515 352.172 131.515C350.564 131.515 349.234 130.185 349.234 128.578C349.234 126.971 350.564 125.641 352.172 125.641C353.779 125.641 355.109 126.971 355.109 128.578Z" fill="white"/>
<path opacity="0.1" d="M364.64 128.578C364.64 130.185 363.31 131.515 361.703 131.515C360.096 131.515 358.766 130.185 358.766 128.578C358.766 126.971 360.096 125.641 361.703 125.641C363.31 125.641 364.64 126.971 364.64 128.578Z" fill="white"/>
<path d="M529.686 147.312H346.129V192.37H529.686V147.312Z" fill="#03769A"/>
<path d="M441.288 202.453H346.129V225.786H441.288V202.453Z" fill="#03769A"/>
<path d="M431.977 235.707H346.129V259.04H431.977V235.707Z" fill="#03769A"/>
<path d="M528.411 235.707H442.562V259.04H528.411V235.707Z" fill="#03769A"/>
<path d="M491.169 318.62L451.875 311.47L504.138 295.73C513.837 273.894 517.051 253.277 517.051 253.277C517.051 253.277 507.74 252.723 494.328 254.109L470.497 294.179L472.658 257.656C461.574 260.205 449.769 264.251 438.962 270.514C437.465 271.4 435.969 272.287 434.584 273.229L429.651 328.429L415.297 293.458C406.041 309.42 406.706 326.767 414.964 336.798C427.6 352.205 460.078 353.147 484.74 326.323C487.013 323.996 489.174 321.391 491.169 318.62Z" fill="#006585"/>
<path d="M494.327 254.164C487.842 254.829 480.471 255.882 472.712 257.711L470.551 294.234L494.327 254.164Z" fill="#025B77"/>
<path d="M434.638 273.34C425.937 279.215 419.619 286.253 415.352 293.569L429.706 328.54L434.638 273.34Z" fill="#025B77"/>
<path d="M491.169 318.623C496.379 311.418 500.702 303.548 504.138 295.789L451.875 311.529L491.169 318.623Z" fill="#025B77"/>
<path d="M416.018 351.042C415.962 351.042 415.852 351.042 415.796 350.987C415.519 350.876 415.408 350.543 415.519 350.266C418.567 343.948 422.114 337.797 426.049 331.977C435.693 317.956 447.719 305.929 461.796 296.23C462.073 296.064 462.406 296.119 462.572 296.397C462.738 296.674 462.683 297.006 462.406 297.172C448.384 306.816 436.468 318.731 426.936 332.642C423.001 338.406 419.509 344.503 416.461 350.765C416.406 350.931 416.184 351.042 416.018 351.042Z" fill="#025B77"/>
<path d="M421.561 306.204L396.621 317.566L421.117 285.144C419.122 266.135 413.857 250.672 413.857 250.672C413.857 250.672 408.315 254.163 401.11 260.648L401.332 298.002L389.97 272.065C384.539 278.438 379.163 286.086 375.117 294.843C374.563 296.062 374.009 297.282 373.565 298.556L389.804 338.515L369.52 320.448C369.741 335.19 376.115 346.828 384.317 350.32C396.898 355.696 415.797 342.894 420.618 314.241C421.062 311.58 421.394 308.92 421.561 306.204Z" fill="#006585"/>
<path d="M401.108 260.648C397.617 263.752 393.793 267.576 389.969 272.065L401.33 298.003L401.108 260.648Z" fill="#025B77"/>
<path d="M373.564 298.555C370.627 306.203 369.408 313.629 369.519 320.446L389.803 338.514L373.564 298.555Z" fill="#025B77"/>
<path d="M421.558 306.201C422.057 299.107 421.779 291.902 421.059 285.141L396.562 317.562L421.558 306.201Z" fill="#025B77"/>
<path d="M389.416 358.026C389.139 358.026 388.862 357.804 388.862 357.527C388.529 352.484 388.474 347.385 388.696 342.342C389.361 328.708 392.076 315.462 396.842 302.992C396.953 302.715 397.286 302.549 397.563 302.66C397.84 302.771 398.006 303.103 397.895 303.38C393.185 315.795 390.469 328.93 389.859 342.397C389.638 347.385 389.693 352.484 390.026 357.472C390.026 357.749 389.749 358.026 389.416 358.026C389.471 358.026 389.471 358.026 389.416 358.026Z" fill="#025B77"/>
</svg>
