<svg width="16" height="19" viewBox="0 0 16 19" fill="none" xmlns="http://www.w3.org/2000/svg">
<path d="M0 19V13.1972C0 12.8707 0.0791667 12.5606 0.2375 12.2668C0.395833 11.9729 0.616667 11.7363 0.9 11.5567L2.525 10.4794C2.60833 11.8342 2.775 13.0299 3.025 14.0664C3.275 15.1029 3.66667 16.2088 4.2 17.384L0 19ZM5.15 17.0412C4.61667 15.866 4.20833 14.6744 3.925 13.4665C3.64167 12.2586 3.5 11.0588 3.5 9.86727C3.5 7.82689 3.9125 5.90485 4.7375 4.10116C5.5625 2.29747 6.65 0.930412 8 0C9.35 0.930412 10.4375 2.29747 11.2625 4.10116C12.0875 5.90485 12.5 7.82689 12.5 9.86727C12.5 11.0588 12.3583 12.2586 12.075 13.4665C11.7917 14.6744 11.3833 15.866 10.85 17.0412H5.15ZM8 9.94072C8.48333 9.94072 8.89583 9.77341 9.2375 9.43879C9.57917 9.10417 9.75 8.70017 9.75 8.2268C9.75 7.75344 9.57917 7.34944 9.2375 7.01482C8.89583 6.6802 8.48333 6.51289 8 6.51289C7.51667 6.51289 7.10417 6.6802 6.7625 7.01482C6.42083 7.34944 6.25 7.75344 6.25 8.2268C6.25 8.70017 6.42083 9.10417 6.7625 9.43879C7.10417 9.77341 7.51667 9.94072 8 9.94072ZM16 19L11.8 17.384C12.3333 16.2088 12.725 15.1029 12.975 14.0664C13.225 13.0299 13.3917 11.8342 13.475 10.4794L15.1 11.5567C15.3833 11.7363 15.6042 11.9729 15.7625 12.2668C15.9208 12.5606 16 12.8707 16 13.1972V19Z" fill="#26B5B5"/>
</svg>
