<svg width="20" height="20" viewBox="0 0 20 20" fill="none" xmlns="http://www.w3.org/2000/svg">
<path d="M0.316406 9.16661L4.54333 4.93969C4.77067 4.71235 5.03167 4.55156 5.32634 4.45734C5.621 4.36311 5.92538 4.3474 6.23948 4.4102L8.23851 4.79611C7.34856 5.83714 6.61416 6.80376 6.03532 7.69594C5.45648 8.58815 4.89259 9.649 4.34365 10.8785L0.316406 9.16661ZM5.08626 11.0221C5.64119 9.84196 6.27613 8.71455 6.99108 7.63986C7.70603 6.56518 8.50176 5.5896 9.37825 4.7131C10.8351 3.25626 12.4191 2.16476 14.1302 1.43859C15.8413 0.712395 17.687 0.402402 19.6674 0.508607C19.7736 2.48895 19.4647 4.33467 18.7408 6.04578C18.0168 7.75689 16.9265 9.34088 15.4696 10.7977C14.5931 11.6742 13.6164 12.4662 12.5395 13.1737C11.4626 13.8812 10.334 14.5124 9.15391 15.0673L5.08626 11.0221ZM12.4183 7.73523C12.7324 8.04932 13.1165 8.20636 13.5704 8.20636C14.0244 8.20636 14.4084 8.04932 14.7225 7.73523C15.0366 7.42113 15.1937 7.04083 15.1937 6.59435C15.1937 6.14787 15.0366 5.76758 14.7225 5.45349C14.4084 5.13939 14.0244 4.98234 13.5704 4.98234C13.1165 4.98234 12.7324 5.13939 12.4183 5.45349C12.1042 5.76758 11.9472 6.14787 11.9472 6.59435C11.9472 7.04083 12.1042 7.42113 12.4183 7.73523ZM10.9712 19.8596L9.25264 15.8323C10.4821 15.2834 11.5392 14.7158 12.424 14.1295C13.3087 13.5431 14.279 12.805 15.335 11.915L15.7209 13.9141C15.7837 14.2282 15.7718 14.5337 15.685 14.8306C15.5983 15.1275 15.4412 15.3896 15.2139 15.617L10.9712 19.8596ZM2.00358 14.8362C2.45977 14.38 3.01319 14.1545 3.66384 14.1597C4.31449 14.165 4.8679 14.3957 5.32409 14.8519C5.78029 15.3081 6.0084 15.8615 6.0084 16.5122C6.0084 17.1628 5.78029 17.7162 5.32409 18.1724C4.92324 18.5733 4.30027 18.9128 3.45518 19.191C2.6101 19.4692 1.58404 19.6644 0.376985 19.7766C0.48916 18.5695 0.688087 17.5446 0.973764 16.7017C1.25944 15.8589 1.60271 15.237 2.00358 14.8362Z" fill="#C7FF50"/>
</svg>
