<svg width="17" height="19" viewBox="0 0 17 19" fill="none" xmlns="http://www.w3.org/2000/svg">
<path d="M16.2155 7.88671L8.80344 0.473621C8.3663 0.0375592 7.65917 0.0427186 7.22775 0.473064C6.79388 0.90805 6.79388 1.61433 7.22775 2.04876L14.6408 9.46133C15.0751 9.89561 15.7811 9.89561 16.2155 9.46133C16.6509 9.02586 16.6509 8.3221 16.2155 7.88671Z" fill="#1AE3E3"/>
<path d="M6.68187 3.07812L6.62608 3.35777C6.23312 5.32346 5.27807 7.19091 3.98633 8.70447L8.01908 12.7372C9.53246 11.4457 11.3742 10.465 13.3399 10.0716L13.6201 10.0158L6.68187 3.07812Z" fill="#1AE3E3"/>
<path d="M3.24556 9.53906L0.489443 12.2946C-0.161792 12.9459 -0.164502 14.0031 0.489443 14.6571L2.06406 16.2317C2.7153 16.8829 3.77256 16.8856 4.42651 16.2317L7.18237 13.4758L3.24556 9.53906ZM3.63924 13.8698C3.42176 14.0873 3.0694 14.0873 2.85193 13.8698C2.63445 13.6523 2.63445 13.3 2.85193 13.0825L3.63924 12.2952C3.85671 12.0777 4.20907 12.0777 4.42655 12.2952C4.64402 12.5127 4.64402 12.865 4.42655 13.0825L3.63924 13.8698Z" fill="#C7FF50"/>
<path d="M9.50981 16.5221L10.2672 15.7647C10.9212 15.1108 10.919 14.0535 10.2672 13.4028L9.70468 12.8398C9.39374 13.0487 9.0968 13.2756 8.80809 13.5178L9.47993 14.1906C9.69688 14.4065 9.69841 14.7578 9.47993 14.9774L8.71003 15.7473L7.5786 14.6511L6.00391 16.2258L8.53004 18.6736C8.96113 19.1058 9.66893 19.1083 10.1041 18.673C10.5385 18.2386 10.5385 17.5323 10.1041 17.0979L9.50981 16.5221Z" fill="#C7FF50"/>
<path d="M11.756 0C11.4482 0 11.1992 0.249024 11.1992 0.556769V1.67031C11.1992 1.97805 11.4482 2.22708 11.756 2.22708C12.0637 2.22708 12.3128 1.97805 12.3128 1.67031V0.556769C12.3128 0.249024 12.0637 0 11.756 0Z" fill="#1AE3E3"/>
<path d="M16.2113 4.45703H15.0978C14.79 4.45703 14.541 4.70606 14.541 5.0138C14.541 5.32155 14.79 5.57057 15.0978 5.57057H16.2113C16.5191 5.57057 16.7681 5.32155 16.7681 5.0138C16.7681 4.70606 16.5191 4.45703 16.2113 4.45703Z" fill="#1AE3E3"/>
<path d="M15.4917 1.27639C15.2742 1.05891 14.9219 1.05891 14.7044 1.27639L13.5908 2.38993C13.3734 2.6074 13.3734 2.95976 13.5908 3.17723C13.8083 3.39471 14.1607 3.39475 14.3781 3.17723L15.4917 2.0637C15.7092 1.84622 15.7092 1.49386 15.4917 1.27639Z" fill="#1AE3E3"/>
</svg>
