<svg width="18" height="17" viewBox="0 0 18 17" fill="none" xmlns="http://www.w3.org/2000/svg">
<path d="M5.625 3.37763V1.34211C5.625 0.984211 5.76 0.671053 6.03 0.402632C6.3 0.134211 6.615 0 6.975 0H11.025C11.385 0 11.7 0.134211 11.97 0.402632C12.24 0.671053 12.375 0.984211 12.375 1.34211V3.37763H16.65C17.01 3.37763 17.325 3.51184 17.595 3.78026C17.865 4.04868 18 4.36184 18 4.71974V10.0658H11.0475V8.72368H6.9975V10.0658H0V4.71974C0 4.36184 0.135 4.04868 0.405 3.78026C0.675 3.51184 0.99 3.37763 1.35 3.37763H5.625ZM6.975 3.37763H11.025V1.34211H6.975V3.37763ZM8.3475 11.4079V10.0658H9.6975V11.4079H8.3475ZM0 11.4079H6.9975V12.75H11.0475V11.4079H18V15.6579C18 16.0158 17.865 16.3289 17.595 16.5974C17.325 16.8658 17.01 17 16.65 17H1.35C0.99 17 0.675 16.8658 0.405 16.5974C0.135 16.3289 0 16.0158 0 15.6579V11.4079Z" fill="#26B5B5"/>
</svg>
