<svg width="18" height="18" viewBox="0 0 18 18" fill="none" xmlns="http://www.w3.org/2000/svg">
<g clip-path="url(#clip0_4179_5935)">
<path d="M18 4.25391V1.61719C18 0.744855 17.2903 0.0351562 16.418 0.0351562H1.58203C0.709699 0.0351562 0 0.744855 0 1.61719V4.25391H18ZM12.1641 2.14453H15.3281C15.6194 2.14453 15.8555 2.38064 15.8555 2.67188C15.8555 2.96311 15.6194 3.19922 15.3281 3.19922H12.1641C11.8728 3.19922 11.6367 2.96311 11.6367 2.67188C11.6367 2.38064 11.8728 2.14453 12.1641 2.14453ZM6.89062 2.14453C7.18186 2.14453 7.41797 2.38064 7.41797 2.67188C7.41797 2.96311 7.18186 3.19922 6.89062 3.19922C6.59939 3.19922 6.36328 2.96311 6.36328 2.67188C6.36328 2.38064 6.59939 2.14453 6.89062 2.14453ZM4.78125 2.14453C5.07248 2.14453 5.30859 2.38064 5.30859 2.67188C5.30859 2.96311 5.07248 3.19922 4.78125 3.19922C4.49002 3.19922 4.25391 2.96311 4.25391 2.67188C4.25391 2.38064 4.49002 2.14453 4.78125 2.14453ZM2.67188 2.14453C2.96311 2.14453 3.19922 2.38064 3.19922 2.67188C3.19922 2.96311 2.96311 3.19922 2.67188 3.19922C2.38064 3.19922 2.14453 2.96311 2.14453 2.67188C2.14453 2.38064 2.38064 2.14453 2.67188 2.14453Z" fill="#1AE3E3"/>
<path d="M0 5.30859V16.3828C0 17.2551 0.709699 17.9648 1.58203 17.9648H16.418C17.2903 17.9648 18 17.2551 18 16.3828V5.30859H0ZM6.16535 12.807C6.39281 12.9889 6.42966 13.3207 6.24772 13.5482C6.06582 13.7756 5.73391 13.8125 5.50652 13.6305L2.8698 11.5211C2.60617 11.3103 2.60599 10.9086 2.8698 10.6976L5.50652 8.58818C5.73384 8.40625 6.06575 8.44309 6.24772 8.67052C6.42966 8.89794 6.39281 9.22982 6.16535 9.41171L4.04339 11.1094L6.16535 12.807ZM11.0667 7.62571L7.90267 15.0085C7.78795 15.2762 7.47802 15.4003 7.21023 15.2855C6.94255 15.1708 6.81852 14.8607 6.93327 14.593L10.0973 7.21023C10.2121 6.94255 10.5221 6.81855 10.7898 6.93327C11.0574 7.04798 11.1815 7.35799 11.0667 7.62571ZM15.1302 11.5212L12.4935 13.6305C12.2664 13.8122 11.9345 13.7759 11.7523 13.5482C11.5703 13.3208 11.6072 12.9889 11.8346 12.807L13.9566 11.1094L11.8346 9.41179C11.6072 9.22985 11.5703 8.89801 11.7523 8.67059C11.9342 8.44316 12.2661 8.40628 12.4935 8.58825L15.1302 10.6976C15.3938 10.9085 15.394 11.3102 15.1302 11.5212Z" fill="#C7FF50"/>
</g>
<defs>
<clipPath id="clip0_4179_5935">
<rect width="18" height="18" fill="white"/>
</clipPath>
</defs>
</svg>
