<svg width="18" height="18" viewBox="0 0 18 18" fill="none" xmlns="http://www.w3.org/2000/svg">
<path d="M9.09 14.2425C9.33 14.2425 9.5325 14.16 9.6975 13.995C9.8625 13.83 9.945 13.6275 9.945 13.3875C9.945 13.1475 9.8625 12.945 9.6975 12.78C9.5325 12.615 9.33 12.5325 9.09 12.5325C8.85 12.5325 8.6475 12.615 8.4825 12.78C8.3175 12.945 8.235 13.1475 8.235 13.3875C8.235 13.6275 8.3175 13.83 8.4825 13.995C8.6475 14.16 8.85 14.2425 9.09 14.2425ZM8.3025 10.9575H9.63C9.63 10.5675 9.67875 10.2113 9.77625 9.88875C9.87375 9.56625 10.1775 9.195 10.6875 8.775C11.1525 8.385 11.4825 8.0025 11.6775 7.6275C11.8725 7.2525 11.97 6.84 11.97 6.39C11.97 5.595 11.7113 4.9575 11.1938 4.4775C10.6763 3.9975 9.99 3.7575 9.135 3.7575C8.4 3.7575 7.75125 3.94125 7.18875 4.30875C6.62625 4.67625 6.2175 5.1825 5.9625 5.8275L7.155 6.2775C7.32 5.8575 7.5675 5.53125 7.8975 5.29875C8.2275 5.06625 8.6175 4.95 9.0675 4.95C9.5775 4.95 9.99 5.08875 10.305 5.36625C10.62 5.64375 10.7775 6 10.7775 6.435C10.7775 6.765 10.68 7.07625 10.485 7.36875C10.29 7.66125 10.005 7.965 9.63 8.28C9.18 8.67 8.84625 9.05625 8.62875 9.43875C8.41125 9.82125 8.3025 10.3275 8.3025 10.9575ZM9 18C7.77 18 6.6075 17.7638 5.5125 17.2913C4.4175 16.8188 3.46125 16.1737 2.64375 15.3563C1.82625 14.5388 1.18125 13.5825 0.70875 12.4875C0.23625 11.3925 0 10.23 0 9C0 7.755 0.23625 6.585 0.70875 5.49C1.18125 4.395 1.82625 3.4425 2.64375 2.6325C3.46125 1.8225 4.4175 1.18125 5.5125 0.70875C6.6075 0.23625 7.77 0 9 0C10.245 0 11.415 0.23625 12.51 0.70875C13.605 1.18125 14.5575 1.8225 15.3675 2.6325C16.1775 3.4425 16.8188 4.395 17.2913 5.49C17.7638 6.585 18 7.755 18 9C18 10.23 17.7638 11.3925 17.2913 12.4875C16.8188 13.5825 16.1775 14.5388 15.3675 15.3563C14.5575 16.1737 13.605 16.8188 12.51 17.2913C11.415 17.7638 10.245 18 9 18Z" fill="#26B5B5"/>
</svg>
