<svg width="18" height="18" viewBox="0 0 18 18" fill="none" xmlns="http://www.w3.org/2000/svg">
<path d="M2.07099 0.00188559C2.01417 0.0071276 1.96002 0.0284752 1.9149 0.0634027C1.86978 0.0983302 1.83555 0.145375 1.81624 0.199066C1.79693 0.252756 1.79333 0.310861 1.80586 0.366525C1.8184 0.422189 1.84655 0.473132 1.88701 0.513363L3.90026 2.52409V3.17732L3.17605 3.90148H2.52509L0.511842 1.8884C0.469816 1.84664 0.416365 1.81824 0.358228 1.80681C0.300092 1.79539 0.239873 1.80144 0.185164 1.82418C0.130455 1.84693 0.0837063 1.88538 0.0508123 1.93466C0.0179183 1.98393 0.00035168 2.04183 0.000327601 2.10108V4.50142C0.00096182 4.58045 0.0327559 4.65603 0.0888026 4.71175L1.58819 6.21276C1.61621 6.24048 1.64941 6.26241 1.68591 6.27729C1.7224 6.29217 1.76147 6.29972 1.80088 6.2995H4.07545L6.65118 8.87502L8.87595 6.65103L6.3008 4.0761V1.79996C6.30016 1.72094 6.26837 1.64536 6.21232 1.58964L4.71294 0.0880372C4.65626 0.0322675 4.57976 0.00125453 4.50024 0.00185099H2.0997C2.09014 0.00139285 2.08056 0.00142745 2.07099 0.00188559ZM16.7666 0.00188559C16.7311 0.00642056 16.6965 0.0166297 16.6647 0.0329555L13.6665 1.53161C13.5649 1.58229 13.5003 1.68642 13.5001 1.79996V2.8762L6.72501 9.65069L8.34861 11.2759L15.1237 4.50142H16.2C16.3136 4.50123 16.4171 4.43657 16.4678 4.33504L17.9689 1.33478C18.0259 1.21922 18.0029 1.07994 17.9115 0.9891L17.0127 0.0880026C16.9482 0.023266 16.8574 -0.00820471 16.7666 0.00188559ZM11.3497 9.12458L9.12497 11.3492L11.6995 13.9235V16.1996C11.6996 16.2392 11.7075 16.2784 11.7228 16.3149C11.7381 16.3514 11.7605 16.3845 11.7886 16.4123L13.2874 17.9116C13.3153 17.9396 13.3484 17.9618 13.3849 17.977C13.4214 17.9922 13.4606 18 13.5001 18H15.9006C15.9602 18 16.0183 17.9823 16.0678 17.9491C16.1172 17.9159 16.1556 17.8687 16.1782 17.8136C16.2007 17.7586 16.2064 17.698 16.1944 17.6397C16.1824 17.5814 16.1534 17.5279 16.111 17.4862L14.1007 15.4755V14.8246L14.8243 14.0981H15.4758L17.4885 16.1112C17.5305 16.1529 17.584 16.1813 17.6421 16.1928C17.7002 16.2042 17.7605 16.1981 17.8152 16.1754C17.8699 16.1526 17.9166 16.1142 17.9495 16.0649C17.9824 16.0156 18 15.9577 18 15.8985V13.5005C18 13.461 17.9922 13.4218 17.977 13.3853C17.9618 13.3488 17.9396 13.3157 17.9115 13.2878L16.4121 11.7862C16.3555 11.7304 16.279 11.6995 16.1994 11.7001H13.9255L11.3497 9.12458ZM5.69612 9.59855C5.61791 9.59979 5.54327 9.63153 5.48812 9.68699L4.79965 10.3754L7.62382 13.1981L8.3117 12.5103C8.36758 12.4541 8.39895 12.3781 8.39895 12.2988C8.39895 12.2196 8.36758 12.1435 8.3117 12.0873L5.9135 9.68699C5.88507 9.6584 5.85117 9.63582 5.81382 9.62063C5.77647 9.60543 5.73644 9.59793 5.69612 9.59855ZM4.37603 10.799L0.638402 14.5369C-0.17509 15.3503 -0.222936 16.6495 0.562817 17.4352C1.34857 18.2209 2.64849 18.1731 3.46198 17.3596L7.19902 13.6229L4.37603 10.799Z" fill="#26B5B5"/>
</svg>
