<svg width="16" height="17" viewBox="0 0 16 17" fill="none" xmlns="http://www.w3.org/2000/svg">
<path d="M3.70849 2.73254C3.39913 2.73254 3.13704 2.84168 2.92222 3.05996C2.70741 3.27822 2.6 3.54326 2.6 3.85508C2.6 4.16689 2.70828 4.43105 2.92484 4.64756C3.14139 4.86408 3.40436 4.97233 3.71373 4.97233C4.0231 4.97233 4.28519 4.86319 4.5 4.64492C4.71482 4.42666 4.82222 4.16162 4.82222 3.84979C4.82222 3.53799 4.71394 3.27383 4.49738 3.05731C4.28083 2.8408 4.01787 2.73254 3.70849 2.73254ZM3.70849 12.0053C3.39913 12.0053 3.13704 12.1144 2.92222 12.3327C2.70741 12.5509 2.6 12.816 2.6 13.1278C2.6 13.4396 2.70828 13.7038 2.92484 13.9203C3.14139 14.1368 3.40436 14.2451 3.71373 14.2451C4.0231 14.2451 4.28519 14.1359 4.5 13.9176C4.71482 13.6994 4.82222 13.4343 4.82222 13.1225C4.82222 12.8107 4.71394 12.5466 4.49738 12.33C4.28083 12.1135 4.01787 12.0053 3.70849 12.0053ZM0.755556 0H15.2222C15.4593 0 15.6481 0.0709267 15.7889 0.21278C15.9296 0.354633 16 0.547352 16 0.790937V6.80896C16 7.06915 15.9296 7.28725 15.7889 7.46327C15.6481 7.63927 15.4593 7.72727 15.2222 7.72727H0.755556C0.533333 7.72727 0.351852 7.63927 0.211111 7.46327C0.0703704 7.28725 0 7.06915 0 6.80896V0.790937C0 0.547352 0.0703704 0.354633 0.211111 0.21278C0.351852 0.0709267 0.533333 0 0.755556 0ZM0.755556 9.25033H15.1333C15.3556 9.25033 15.5556 9.34365 15.7333 9.5303C15.9111 9.71695 16 9.92993 16 10.1692V16.0817C16 16.3803 15.9111 16.608 15.7333 16.7648C15.5556 16.9216 15.3556 17 15.1333 17H0.866667C0.62963 17 0.425926 16.9216 0.255556 16.7648C0.0851852 16.608 0 16.3803 0 16.0817V10.1692C0 9.92993 0.0703704 9.71695 0.211111 9.5303C0.351852 9.34365 0.533333 9.25033 0.755556 9.25033Z" fill="#26B5B5"/>
</svg>
