<svg width="19" height="19" viewBox="0 0 19 19" fill="none" xmlns="http://www.w3.org/2000/svg">
<path d="M8.99024 14.8293C7.50732 14.752 6.2561 14.1805 5.23659 13.1146C4.21707 12.0488 3.70732 10.7667 3.70732 9.26829C3.70732 7.72358 4.24797 6.41057 5.32927 5.32927C6.41057 4.24797 7.72358 3.70732 9.26829 3.70732C10.7667 3.70732 12.0488 4.21707 13.1146 5.23659C14.1805 6.2561 14.752 7.51504 14.8293 9.01341L13.3695 8.55C13.1996 7.56138 12.7362 6.73882 11.9793 6.08232C11.2224 5.42581 10.3187 5.09756 9.26829 5.09756C8.10976 5.09756 7.125 5.50305 6.31402 6.31402C5.50305 7.125 5.09756 8.10976 5.09756 9.26829C5.09756 10.3033 5.42581 11.203 6.08232 11.9677C6.73882 12.7323 7.56138 13.1996 8.55 13.3695L8.99024 14.8293ZM10.1024 18.4902C9.96342 18.5057 9.82439 18.5173 9.68537 18.525C9.54634 18.5327 9.40732 18.5366 9.26829 18.5366C7.98618 18.5366 6.7813 18.2933 5.65366 17.8067C4.52602 17.3201 3.54512 16.6598 2.71098 15.8256C1.87683 14.9915 1.21646 14.0106 0.729878 12.8829C0.243293 11.7553 0 10.5504 0 9.26829C0 7.98618 0.243293 6.7813 0.729878 5.65366C1.21646 4.52602 1.87683 3.54512 2.71098 2.71098C3.54512 1.87683 4.52602 1.21646 5.65366 0.729878C6.7813 0.243293 7.98618 0 9.26829 0C10.5504 0 11.7553 0.243293 12.8829 0.729878C14.0106 1.21646 14.9915 1.87683 15.8256 2.71098C16.6598 3.54512 17.3201 4.52602 17.8067 5.65366C18.2933 6.7813 18.5366 7.98618 18.5366 9.26829C18.5366 9.40732 18.5327 9.54634 18.525 9.68537C18.5173 9.82439 18.5057 9.96342 18.4902 10.1024L17.1463 9.68537V9.26829C17.1463 7.0748 16.3817 5.21341 14.8524 3.68415C13.3232 2.15488 11.4618 1.39024 9.26829 1.39024C7.0748 1.39024 5.21341 2.15488 3.68415 3.68415C2.15488 5.21341 1.39024 7.0748 1.39024 9.26829C1.39024 11.4618 2.15488 13.3232 3.68415 14.8524C5.21341 16.3817 7.0748 17.1463 9.26829 17.1463H9.68537L10.1024 18.4902ZM17.1695 19L13.2073 15.0378L12.0488 18.5366L9.26829 9.26829L18.5366 12.0488L15.0378 13.2073L19 17.1695L17.1695 19Z" fill="#26B5B5"/>
</svg>
