<svg width="18" height="18" viewBox="0 0 18 18" fill="none" xmlns="http://www.w3.org/2000/svg">
<path d="M5.4 10.8H12.6V10.3725C12.6 9.7425 12.2813 9.255 11.6438 8.91C11.0063 8.565 10.125 8.3925 9 8.3925C7.875 8.3925 6.99375 8.565 6.35625 8.91C5.71875 9.255 5.4 9.7425 5.4 10.3725V10.8ZM9 6.9075C9.465 6.9075 9.85875 6.74625 10.1813 6.42375C10.5038 6.10125 10.665 5.7075 10.665 5.2425C10.665 4.7775 10.5038 4.38375 10.1813 4.06125C9.85875 3.73875 9.465 3.5775 9 3.5775C8.535 3.5775 8.14125 3.73875 7.81875 4.06125C7.49625 4.38375 7.335 4.7775 7.335 5.2425C7.335 5.7075 7.49625 6.10125 7.81875 6.42375C8.14125 6.74625 8.535 6.9075 9 6.9075ZM0 18V1.35C0 1.005 0.135 0.69375 0.405 0.41625C0.675 0.13875 0.99 0 1.35 0H16.65C16.995 0 17.3063 0.13875 17.5837 0.41625C17.8612 0.69375 18 1.005 18 1.35V13.05C18 13.395 17.8612 13.7063 17.5837 13.9838C17.3063 14.2613 16.995 14.4 16.65 14.4H3.6L0 18Z" fill="#26B5B5"/>
</svg>
