<svg width="18" height="18" viewBox="0 0 18 18" fill="none" xmlns="http://www.w3.org/2000/svg">
<path d="M5.41347 18C4.95753 18 4.56885 17.8407 4.24742 17.5221C3.926 17.2035 3.76528 16.8206 3.76528 16.3732C3.76528 15.9258 3.92762 15.5444 4.25229 15.229C4.57698 14.9136 4.96728 14.7559 5.4232 14.7559C5.87914 14.7559 6.26782 14.9152 6.58925 15.2338C6.91067 15.5524 7.07139 15.9354 7.07139 16.3827C7.07139 16.8301 6.90905 17.2115 6.58438 17.5269C6.25969 17.8423 5.86939 18 5.41347 18ZM14.5971 18C14.1411 18 13.7525 17.8407 13.431 17.5221C13.1096 17.2035 12.9489 16.8206 12.9489 16.3732C12.9489 15.9258 13.1112 15.5444 13.4359 15.229C13.7606 14.9136 14.1509 14.7559 14.6068 14.7559C15.0628 14.7559 15.4514 14.9152 15.7729 15.2338C16.0943 15.5524 16.255 15.9354 16.255 16.3827C16.255 16.8301 16.0927 17.2115 15.768 17.5269C15.4433 17.8423 15.053 18 14.5971 18ZM3.53569 1.77972H17.0603C17.4118 1.77972 17.6792 1.93742 17.8626 2.25282C18.046 2.56821 18.0458 2.8836 17.8621 3.199L14.7627 8.67334C14.5943 8.9587 14.3757 9.18773 14.107 9.36045C13.8382 9.53317 13.544 9.61952 13.2244 9.61952H6.26782L4.98211 11.9625H16.255V13.3141H5.18874C4.54589 13.3141 4.08288 13.1039 3.79972 12.6834C3.51656 12.2628 3.52039 11.7897 3.8112 11.2641L5.28058 8.60576L1.79081 1.35169H0V0H2.68621L3.53569 1.77972Z" fill="#26B5B5"/>
</svg>
