<svg width="21" height="14" viewBox="0 0 21 14" fill="none" xmlns="http://www.w3.org/2000/svg">
<path d="M0 14V11.8808C0 11.3548 0.142534 10.8776 0.427602 10.4493C0.71267 10.0209 1.1086 9.70156 1.61538 9.49114C2.77149 9.0102 3.81278 8.66452 4.73925 8.45411C5.66572 8.24369 6.61991 8.13849 7.60181 8.13849C8.58371 8.13849 9.53394 8.24369 10.4525 8.45411C11.371 8.66452 12.4084 9.0102 13.5645 9.49114C14.0713 9.70156 14.4712 10.0209 14.7641 10.4493C15.0571 10.8776 15.2036 11.3548 15.2036 11.8808V14H0ZM16.629 14V11.8808C16.629 10.934 16.3756 10.1562 15.8688 9.5475C15.362 8.93881 14.6968 8.44659 13.8733 8.07085C14.9661 8.19109 15.9955 8.36769 16.9615 8.60064C17.9276 8.8336 18.7115 9.10038 19.3133 9.40097C19.836 9.68653 20.2477 10.0397 20.5486 10.4605C20.8495 10.8814 21 11.3548 21 11.8808V14H16.629ZM7.60181 6.76329C6.55656 6.76329 5.70136 6.44767 5.0362 5.81643C4.37104 5.18518 4.03846 4.37359 4.03846 3.38164C4.03846 2.38969 4.37104 1.5781 5.0362 0.94686C5.70136 0.31562 6.55656 0 7.60181 0C8.64706 0 9.50226 0.31562 10.1674 0.94686C10.8326 1.5781 11.1652 2.38969 11.1652 3.38164C11.1652 4.37359 10.8326 5.18518 10.1674 5.81643C9.50226 6.44767 8.64706 6.76329 7.60181 6.76329ZM16.1538 3.38164C16.1538 4.37359 15.8213 5.18518 15.1561 5.81643C14.491 6.44767 13.6357 6.76329 12.5905 6.76329C12.4163 6.76329 12.2223 6.75201 12.0085 6.72947C11.7947 6.70692 11.6007 6.66559 11.4265 6.60547C11.8066 6.22974 12.0956 5.76758 12.2936 5.219C12.4915 4.67042 12.5905 4.05797 12.5905 3.38164C12.5905 2.70531 12.4915 2.10789 12.2936 1.58937C12.0956 1.07085 11.8066 0.593666 11.4265 0.15781C11.6007 0.112721 11.7947 0.0751476 12.0085 0.0450886C12.2223 0.0150295 12.4163 0 12.5905 0C13.6357 0 14.491 0.31562 15.1561 0.94686C15.8213 1.5781 16.1538 2.38969 16.1538 3.38164Z" fill="#26B5B5"/>
</svg>
