<svg width="14" height="18" viewBox="0 0 14 18" fill="none" xmlns="http://www.w3.org/2000/svg">
<path d="M1.14062 13.6419H1.83293V15.3692H11.2483V13.6419H11.9406V16.7539C11.9406 17.1023 11.82 17.3971 11.5789 17.6383C11.3377 17.8794 11.0429 18 10.6945 18H2.38677C2.03831 18 1.74351 17.8794 1.50236 17.6383C1.2612 17.3971 1.14062 17.1023 1.14062 16.7539V13.6419ZM1.83293 4.22653H1.14062V1.24614C1.14062 0.89769 1.2612 0.602887 1.50236 0.361732C1.74351 0.120577 2.03831 0 2.38677 0H10.6945C11.0429 0 11.3377 0.120577 11.5789 0.361732C11.82 0.602887 11.9406 0.89769 11.9406 1.24614V4.22653H11.2483V2.63077H1.83293V4.22653Z" fill="#C7FF50"/>
<path d="M0 8.99793L3.4823 12.4802L3.9773 11.9749L1.00037 8.99793L3.9773 6.021L3.4823 5.51562L0 8.99793Z" fill="#C7FF50"/>
<path d="M9.1073 11.9749L9.6023 12.4802L13.0846 8.99793L9.6023 5.51562L9.1073 6.021L12.0842 8.99793L9.1073 11.9749Z" fill="#C7FF50"/>
</svg>
