<svg width="22" height="18" viewBox="0 0 22 18" fill="none" xmlns="http://www.w3.org/2000/svg">
<path d="M17.7702 9.8112V8.1862H21.8327V9.8112H17.7702ZM19.1243 17.6654L15.8473 15.2279L16.8223 13.9279L20.0993 16.3654L19.1243 17.6654ZM16.9035 4.04245L15.9285 2.74245L19.1243 0.332031L20.0993 1.63203L16.9035 4.04245ZM3.68685 16.582V12.2487H1.79102C1.33963 12.2487 0.955946 12.0907 0.639974 11.7747C0.324002 11.4588 0.166016 11.0751 0.166016 10.6237V7.3737C0.166016 6.92231 0.324002 6.53863 0.639974 6.22266C0.955946 5.90668 1.33963 5.7487 1.79102 5.7487H6.66602L12.0827 2.4987V15.4987L6.66602 12.2487H5.31185V16.582H3.68685ZM13.166 12.6279V5.36953C13.6535 5.80286 14.0462 6.33099 14.3441 6.95391C14.6421 7.57682 14.791 8.25842 14.791 8.9987C14.791 9.73898 14.6421 10.4206 14.3441 11.0435C14.0462 11.6664 13.6535 12.1945 13.166 12.6279Z" fill="#26B5B5"/>
</svg>
