<svg width="16" height="22" viewBox="0 0 16 22" fill="none" xmlns="http://www.w3.org/2000/svg">
<path d="M4.6 15.6L0 11L4.6 6.4L5.65 7.5L2.15 11L5.65 14.5L4.6 15.6ZM1 16.35H2.5V18.25H13.5V16.35H15V20.5C15 20.9 14.85 21.25 14.55 21.55C14.25 21.85 13.9 22 13.5 22H2.5C2.1 22 1.75 21.85 1.45 21.55C1.15 21.25 1 20.9 1 20.5V16.35ZM2.5 5.35H1V1.5C1 1.1 1.15 0.75 1.45 0.45C1.75 0.15 2.1 0 2.5 0H13.5C13.9 0 14.25 0.15 14.55 0.45C14.85 0.75 15 1.1 15 1.5V5.35H13.5V3.75H2.5V5.35ZM11.4 15.6L10.35 14.5L13.85 11L10.35 7.5L11.4 6.4L16 11L11.4 15.6Z" fill="#26B5B5"/>
</svg>
