<svg width="18" height="14" viewBox="0 0 18 14" fill="none" xmlns="http://www.w3.org/2000/svg">
<path d="M1.35 14C0.99 14 0.675 13.8687 0.405 13.6062C0.135 13.3438 0 13.0375 0 12.6875V1.3125C0 0.9625 0.135 0.65625 0.405 0.39375C0.675 0.13125 0.99 0 1.35 0H16.65C17.01 0 17.325 0.13125 17.595 0.39375C17.865 0.65625 18 0.9625 18 1.3125V12.6875C18 13.0375 17.865 13.3438 17.595 13.6062C17.325 13.8687 17.01 14 16.65 14H1.35ZM1.35 12.6875H11.7225V9.12187H1.35V12.6875ZM13.0725 12.6875H16.65V4.24375H13.0725V12.6875ZM1.35 7.80937H11.7225V4.24375H1.35V7.80937Z" fill="#26B5B5"/>
</svg>
