<svg width="25" height="23" viewBox="0 0 25 23" fill="none" xmlns="http://www.w3.org/2000/svg">
<g clip-path="url(#clip0_4165_6267)">
<path d="M2.8913 12.8502L1.15652 11.1155C0.771015 10.73 0.51401 10.3444 0.321256 9.83043C0.128502 9.31643 0 8.86667 0 8.35266C0 7.83865 0.0642512 7.38889 0.257005 7.00338C0.449758 6.61787 0.642512 6.23237 0.899517 5.97536L5.91111 0.899517C6.16812 0.642512 6.48937 0.385507 6.87488 0.257005C7.19614 0.0642512 7.58164 0 7.96715 0C8.41691 0 8.80242 0.0642512 9.18792 0.192754C9.57343 0.321256 9.89469 0.578261 10.1517 0.899517L15.4845 6.29662C15.6773 6.42512 15.8058 6.61787 15.8701 6.81063C15.9343 7.00338 15.9986 7.19614 15.9986 7.38889C15.9986 7.7744 15.87 8.0314 15.6773 8.28841C15.4845 8.54541 15.1633 8.67391 14.7135 8.67391C14.5208 8.67391 14.328 8.60966 14.071 8.54541C13.8783 8.48116 13.6855 8.35266 13.4928 8.1599L10.6014 5.1401L2.8913 12.8502Z" fill="#1AE3E3"/>
<path d="M12.2064 22.1667C11.8851 22.1667 11.6281 22.0382 11.3711 21.8454C11.1141 21.6527 11.0499 21.3314 11.0499 21.0101C11.0499 20.8174 11.1141 20.6246 11.1141 20.4319C11.1141 20.2391 11.3069 20.0464 11.4354 19.9179L16.19 15.1633L15.6117 14.585L10.8571 19.2754C10.7286 19.4039 10.6001 19.5324 10.4073 19.5966C10.2146 19.6609 10.0218 19.7251 9.82908 19.7251C9.50782 19.7251 9.18657 19.5966 8.99381 19.4039C8.73681 19.1469 8.67256 18.8899 8.67256 18.5686C8.67256 18.3758 8.73681 18.1831 8.80106 17.9903C8.86531 17.7976 8.99381 17.6691 9.12232 17.5406L13.8769 12.8502L13.2986 12.2077L8.54406 16.8981C8.41555 17.0266 8.28705 17.1551 8.0943 17.2193C7.90154 17.2836 7.70879 17.3478 7.51604 17.3478C7.19478 17.3478 6.87352 17.2193 6.68077 17.0266C6.42377 16.7696 6.35951 16.5126 6.35951 16.1913C6.35951 15.9986 6.35951 15.8058 6.42377 15.613C6.48802 15.4203 6.61652 15.2918 6.74502 15.099L11.1784 10.6657L10.6001 10.0874L6.16676 14.5208C6.03826 14.6493 5.90976 14.7778 5.65275 14.842C5.46 14.9063 5.26724 14.9705 5.07449 14.9705C4.75323 14.9705 4.43198 14.842 4.23922 14.6493C4.04647 14.4565 3.91797 14.1353 3.91797 13.814C3.91797 13.6213 3.98222 13.4285 4.04647 13.2357C4.11072 13.043 4.23923 12.9145 4.36773 12.7217L10.7286 6.42512L13.1701 8.80242C13.4271 9.05942 13.6842 9.18792 13.9412 9.31643C14.1982 9.44493 14.5194 9.50918 14.9049 9.50918C15.4832 9.50918 15.9972 9.31643 16.447 8.93092C16.8325 8.54541 17.0895 8.0314 17.0895 7.38889C17.0895 7.06763 17.0252 6.74638 16.8967 6.48937C16.7682 6.23237 16.5755 5.97536 16.3185 5.65411L12.9131 2.24879L14.2624 0.899517C14.5194 0.642512 14.9049 0.385507 15.2904 0.257005C15.4832 0.0642512 15.8687 0 16.3185 0C16.7682 0 17.1537 0.0642512 17.5392 0.257005C17.9247 0.385507 18.3102 0.642512 18.5672 0.899517L24.0928 6.42512C24.3499 6.68213 24.6069 7.00338 24.7354 7.38889C24.8639 7.7744 24.9281 8.22415 24.9281 8.67391C24.9281 9.12367 24.8639 9.50918 24.7354 9.89469C24.6069 10.2802 24.3499 10.6014 24.0928 10.8585L13.2344 21.7169C13.1059 21.8454 12.9131 21.9739 12.7204 22.0382C12.5276 22.1024 12.3991 22.1024 12.2064 22.1667Z" fill="#C7FF50"/>
</g>
<defs>
<clipPath id="clip0_4165_6267">
<rect width="24.9295" height="22.1667" fill="white"/>
</clipPath>
</defs>
</svg>
