<svg width="44" height="34" viewBox="0 0 44 34" fill="none" xmlns="http://www.w3.org/2000/svg">
<path d="M6.82377 31V21.9091H3.38115C2.47951 21.9091 1.69057 21.5801 1.01434 20.9222C0.338115 20.2644 0 19.4968 0 18.6196V14.9115C0 14.0343 0.338115 13.2667 1.01434 12.6089C1.69057 11.951 2.47951 11.622 3.38115 11.622H13.1557L22.8689 6V27.5311L13.1557 21.9091H8.66803V31H6.82377ZM27.2336 23.7033V9.82775C28.0533 10.5853 28.7193 11.5722 29.2316 12.7883C29.7439 14.0044 30 15.3301 30 16.7655C30 18.201 29.7439 19.5267 29.2316 20.7428C28.7193 21.9589 28.0533 22.9458 27.2336 23.7033ZM3.38115 13.4761C3.0123 13.4761 2.67418 13.6256 2.3668 13.9246C2.05943 14.2237 1.90574 14.5526 1.90574 14.9115V18.6196C1.90574 18.9785 2.05943 19.3074 2.3668 19.6065C2.67418 19.9055 3.0123 20.055 3.38115 20.055H13.6475L20.9631 24.3014V9.22967L13.6475 13.4761H3.38115Z" fill="#26B5B5"/>
<path d="M36.5055 18.0321V16.2107H44V18.0321H36.5055ZM39.1648 34L33.1209 29.5071L34.2692 28.05L40.3132 32.5429L39.1648 34ZM34.1484 6.01071L33 4.55357L38.9835 0L40.1319 1.51786L34.1484 6.01071Z" fill="#C7FF50"/>
</svg>
