<svg width="460" height="460" viewBox="0 0 460 460" fill="none" xmlns="http://www.w3.org/2000/svg">
<path d="M230 460C357.025 460 460 357.025 460 230C460 102.975 357.025 0 230 0C102.975 0 0 102.975 0 230C0 357.025 102.975 460 230 460Z" fill="#00516A"/>
<path d="M366.729 118.605H192.871V128.637H366.729V118.605Z" fill="#006584"/>
<path d="M401.147 287.087H192.98C192.582 287.087 192.316 286.735 192.316 286.206V118.932C192.316 118.403 192.582 118.051 192.98 118.051H401.147C401.545 118.051 401.81 118.403 401.81 118.932V286.206C401.81 286.735 401.479 287.087 401.147 287.087ZM193.644 285.325H400.483V119.812H193.644V285.325Z" fill="#006584"/>
<path d="M201.791 123.702C201.791 124.977 200.793 125.974 199.518 125.974C198.244 125.974 197.246 124.977 197.246 123.702C197.246 122.427 198.244 121.43 199.518 121.43C200.793 121.43 201.791 122.427 201.791 123.702Z" fill="#027497"/>
<path d="M209.162 123.702C209.162 124.977 208.164 125.974 206.889 125.974C205.615 125.974 204.617 124.977 204.617 123.702C204.617 122.427 205.615 121.43 206.889 121.43C208.164 121.43 209.162 122.427 209.162 123.702Z" fill="#027497"/>
<path d="M216.537 123.702C216.537 124.977 215.539 125.974 214.264 125.974C212.99 125.974 211.992 124.977 211.992 123.702C211.992 122.427 212.99 121.43 214.264 121.43C215.539 121.43 216.537 122.427 216.537 123.702Z" fill="#027497"/>
<path d="M247.845 269.958H82.855C82.5225 269.958 82.3008 269.736 82.3008 269.404V232.992C82.3008 232.659 82.5225 232.438 82.855 232.438C83.1875 232.438 83.4092 232.659 83.4092 232.992V268.85H247.901C248.233 268.85 248.455 269.071 248.455 269.404C248.4 269.736 248.178 269.958 247.845 269.958Z" fill="#006584"/>
<path d="M104.19 197.301H102.084C101.918 196.248 101.641 195.306 101.308 194.309L103.137 193.256L99.5903 187.104L97.7614 188.157C97.0964 187.381 96.3759 186.66 95.6 185.995L96.653 184.166L90.5012 180.619L89.4482 182.448C88.506 182.116 87.5084 181.839 86.4554 181.672V179.566H79.2506V181.672C78.1976 181.839 77.2554 182.116 76.2578 182.448L75.2048 180.619L69.053 184.166L70.106 185.995C69.3301 186.66 68.6096 187.381 67.9445 188.157L66.1156 187.104L62.5686 193.256L64.3976 194.309C64.065 195.251 63.7879 196.248 63.6216 197.301H61.5156V204.395H63.6216C63.7879 205.448 64.065 206.391 64.3976 207.388L62.5686 208.441L66.1156 214.593L67.9445 213.54C68.6096 214.316 69.3301 215.036 70.106 215.701L69.053 217.53L75.2048 221.077L76.2578 219.248C77.2 219.581 78.1976 219.858 79.2506 220.024V222.13H86.3445V220.024C87.3975 219.858 88.3397 219.581 89.3373 219.248L90.3903 221.077L96.5421 217.53L95.4891 215.701C96.265 215.036 96.9855 214.316 97.6506 213.54L99.4795 214.593L103.026 208.441L101.198 207.388C101.53 206.446 101.807 205.448 101.973 204.395H104.079V197.301H104.19ZM95.4891 206.169C94.2144 209.55 91.4988 212.265 88.118 213.54C76.5903 217.918 65.8385 207.166 70.2168 195.639C71.4915 192.258 74.2072 189.542 77.5879 188.268C89.0602 183.889 99.812 194.641 95.4891 206.169Z" fill="#005A76"/>
<path d="M82.8543 217.031C73.9868 217.031 66.7266 209.771 66.7266 200.904C66.7266 192.978 72.6013 186.106 80.4157 184.942C80.6928 184.887 81.0254 185.108 81.0254 185.386C81.0808 185.663 80.8591 185.995 80.582 185.995C73.3217 187.104 67.835 193.477 67.835 200.848C67.835 209.106 74.5964 215.867 82.8543 215.867C89.6711 215.867 95.6567 211.267 97.3748 204.617C97.4302 204.34 97.7627 204.118 98.0398 204.229C98.3169 204.284 98.5386 204.617 98.4278 204.894C96.5988 212.043 90.1699 217.031 82.8543 217.031Z" fill="#006584"/>
<path d="M273.357 386.383C275.102 382.169 273.101 377.338 268.887 375.593C264.674 373.847 259.843 375.848 258.098 380.062C256.352 384.276 258.353 389.106 262.567 390.852C266.78 392.597 271.611 390.596 273.357 386.383Z" fill="#006584"/>
<path d="M378.295 375.507H278.425C278.093 375.507 277.871 375.285 277.871 374.953C277.871 374.62 278.093 374.398 278.425 374.398H378.295C378.628 374.398 378.849 374.62 378.849 374.953C378.849 375.23 378.572 375.507 378.295 375.507Z" fill="#006584"/>
<path d="M378.296 383.765H310.792C310.46 383.765 310.238 383.543 310.238 383.21C310.238 382.878 310.46 382.656 310.792 382.656H378.296C378.629 382.656 378.85 382.878 378.85 383.21C378.85 383.488 378.573 383.765 378.296 383.765Z" fill="#006584"/>
<path d="M301.093 383.765H278.425C278.093 383.765 277.871 383.543 277.871 383.21C277.871 382.878 278.093 382.656 278.425 382.656H301.093C301.425 382.656 301.647 382.878 301.647 383.21C301.647 383.488 301.37 383.765 301.093 383.765Z" fill="#006584"/>
<path d="M378.296 392.022H350.917C350.585 392.022 350.363 391.801 350.363 391.468C350.363 391.136 350.585 390.914 350.917 390.914H378.296C378.628 390.914 378.85 391.136 378.85 391.468C378.85 391.745 378.573 392.022 378.296 392.022Z" fill="#006584"/>
<path d="M332.683 392.022H278.425C278.093 392.022 277.871 391.801 277.871 391.468C277.871 391.136 278.093 390.914 278.425 390.914H332.683C333.016 390.914 333.237 391.136 333.237 391.468C333.237 391.745 332.96 392.022 332.683 392.022Z" fill="#006584"/>
<path d="M172.062 103.894C184.659 91.2976 184.659 70.8742 172.062 58.2775C159.465 45.6807 139.042 45.6807 126.445 58.2775C113.848 70.8742 113.848 91.2976 126.445 103.894C139.042 116.491 159.465 116.491 172.062 103.894Z" fill="#005A76"/>
<path d="M146.017 93.5356C146.546 90.2747 144.332 87.2023 141.071 86.6731C137.81 86.1438 134.737 88.3583 134.208 91.6191C133.679 94.88 135.893 97.9525 139.154 98.4817C142.415 99.0109 145.488 96.7964 146.017 93.5356Z" fill="#006584"/>
<path d="M152.719 92.8323C152.574 92.8323 152.477 92.7355 152.477 92.5902C152.477 85.7611 146.907 80.1914 140.078 80.1914C139.933 80.1914 139.836 80.0945 139.836 79.9492C139.836 79.8039 139.933 79.707 140.078 79.707C147.174 79.707 152.961 85.4705 152.961 92.5902C152.961 92.7113 152.864 92.8323 152.719 92.8323Z" fill="#006584"/>
<path d="M162.841 92.833C162.695 92.833 162.599 92.7361 162.599 92.5908C162.599 80.192 152.5 70.0937 140.102 70.0937C139.956 70.0937 139.859 69.9968 139.859 69.8515C139.859 69.7062 139.956 69.6094 140.102 69.6094C152.767 69.6094 163.083 79.9256 163.083 92.5908C163.083 92.7119 162.962 92.833 162.841 92.833Z" fill="#006584"/>
<path d="M172.939 92.8336C172.794 92.8336 172.697 92.7367 172.697 92.5914C172.697 74.6228 158.07 59.996 140.102 59.996C139.956 59.996 139.859 59.8992 139.859 59.7539C139.859 59.6086 139.956 59.5117 140.102 59.5117C158.337 59.5117 173.181 74.3564 173.181 92.5914C173.181 92.7125 173.084 92.8336 172.939 92.8336Z" fill="#006584"/>
<path d="M424.665 305.241H280.139C273.252 305.241 267.684 299.673 267.684 292.786V32.4042C267.684 25.5173 273.252 19.9492 280.139 19.9492H424.665C431.551 19.9492 437.12 25.5173 437.12 32.4042V292.786C437.12 299.673 431.503 305.241 424.665 305.241Z" fill="#006584"/>
<path d="M383.296 29.5703V33.8196C383.296 36.0664 381.489 37.8736 379.242 37.8736H325.515C323.268 37.8736 321.461 36.0664 321.461 33.8196V29.5703H275.598V292.199H429.111V29.5703H383.296Z" fill="#005D7A"/>
<rect x="283.703" y="54.2578" width="137" height="18.9518" fill="#005D7A" stroke="#087B9E"/>
<rect x="283.703" y="82.5234" width="78.8072" height="78.8072" fill="#005D7A" stroke="#087B9E"/>
<path d="M357.472 93.1055H296.508V126.913H357.472V93.1055Z" fill="#015772"/>
<path d="M350.265 88.6719H289.301V122.479H350.265V88.6719Z" fill="#006584"/>
<path d="M350.945 135.777H289.18C288.589 135.777 288.195 135.666 288.195 135.5C288.195 135.333 288.589 135.223 289.18 135.223H350.945C351.536 135.223 351.93 135.333 351.93 135.5C351.93 135.638 351.536 135.777 350.945 135.777Z" fill="#087B9E"/>
<path d="M337.648 142.429H289.177C288.588 142.429 288.195 142.207 288.195 141.875C288.195 141.542 288.588 141.32 289.177 141.32H337.648C338.237 141.32 338.629 141.542 338.629 141.875C338.629 142.207 338.237 142.429 337.648 142.429Z" fill="#087B9E"/>
<path d="M345.958 147.968H289.179C288.589 147.968 288.195 147.746 288.195 147.414C288.195 147.081 288.589 146.859 289.179 146.859H345.958C346.549 146.859 346.942 147.081 346.942 147.414C346.942 147.691 346.45 147.968 345.958 147.968Z" fill="#087B9E"/>
<path d="M328.224 154.065H289.179C288.589 154.065 288.195 153.844 288.195 153.511C288.195 153.179 288.589 152.957 289.179 152.957H328.224C328.814 152.957 329.207 153.179 329.207 153.511C329.207 153.844 328.716 154.065 328.224 154.065Z" fill="#087B9E"/>
<rect x="370.711" y="82.5234" width="78.8072" height="78.8072" fill="#005D7A" stroke="#087B9E"/>
<path d="M444.479 93.1055H383.516V126.913H444.479V93.1055Z" fill="#015772"/>
<path d="M437.272 88.6719H376.309V122.479H437.272V88.6719Z" fill="#006584"/>
<path d="M437.953 135.777H376.188C375.597 135.777 375.203 135.666 375.203 135.5C375.203 135.333 375.597 135.223 376.188 135.223H437.953C438.544 135.223 438.938 135.333 438.938 135.5C438.938 135.638 438.544 135.777 437.953 135.777Z" fill="#087B9E"/>
<path d="M424.656 142.429H376.184C375.596 142.429 375.203 142.207 375.203 141.875C375.203 141.542 375.596 141.32 376.184 141.32H424.656C425.244 141.32 425.637 141.542 425.637 141.875C425.637 142.207 425.244 142.429 424.656 142.429Z" fill="#087B9E"/>
<path d="M432.966 147.968H376.187C375.597 147.968 375.203 147.746 375.203 147.414C375.203 147.081 375.597 146.859 376.187 146.859H432.966C433.556 146.859 433.95 147.081 433.95 147.414C433.95 147.691 433.458 147.968 432.966 147.968Z" fill="#087B9E"/>
<path d="M415.232 154.065H376.187C375.597 154.065 375.203 153.844 375.203 153.511C375.203 153.179 375.597 152.957 376.187 152.957H415.232C415.822 152.957 416.215 153.179 416.215 153.511C416.215 153.844 415.723 154.065 415.232 154.065Z" fill="#087B9E"/>
<path d="M421.528 260.476H285.097C284.626 260.476 284.312 260.281 284.312 259.988V204.988C284.312 204.695 284.626 204.5 285.097 204.5H421.528C421.999 204.5 422.312 204.695 422.312 204.988V259.988C422.312 260.281 421.92 260.476 421.528 260.476ZM285.881 259.501H420.744V205.475H285.881V259.501Z" fill="#087B9E"/>
<path d="M329.202 217.055H295.012V246.36H329.202V217.055Z" fill="#015772"/>
<path d="M325.096 213.004H290.906V242.31H325.096V213.004Z" fill="#006584"/>
<path d="M395.277 217.25H333.512C332.921 217.25 332.527 217.139 332.527 216.972C332.527 216.806 332.921 216.695 333.512 216.695H395.277C395.868 216.695 396.262 216.806 396.262 216.972C396.262 217.111 395.868 217.25 395.277 217.25Z" fill="#087B9E"/>
<path d="M381.98 223.901H333.509C332.92 223.901 332.527 223.68 332.527 223.347C332.527 223.015 332.92 222.793 333.509 222.793H381.98C382.569 222.793 382.961 223.015 382.961 223.347C382.961 223.68 382.569 223.901 381.98 223.901Z" fill="#087B9E"/>
<path d="M390.29 229.44H333.511C332.921 229.44 332.527 229.219 332.527 228.886C332.527 228.554 332.921 228.332 333.511 228.332H390.29C390.881 228.332 391.274 228.554 391.274 228.886C391.274 229.163 390.782 229.44 390.29 229.44Z" fill="#087B9E"/>
<path d="M372.556 235.538H333.511C332.921 235.538 332.527 235.316 332.527 234.984C332.527 234.651 332.921 234.43 333.511 234.43H372.556C373.146 234.43 373.539 234.651 373.539 234.984C373.539 235.316 373.048 235.538 372.556 235.538Z" fill="#087B9E"/>
<path d="M233.785 320.629L236.944 401.766H116.623L113.021 323.843L112.91 322.181L233.785 320.629Z" fill="#021F28"/>
<path d="M182.353 399.997L144.777 376.055L131.254 413.298L168.22 421.334L182.353 399.997Z" fill="#F7AFBC"/>
<path d="M247.251 421.057H166.059L171.49 390.907C171.49 390.907 205.907 376.054 243.594 398.112C243.594 398.112 252.849 409.418 247.251 421.057Z" fill="#FABCC6"/>
<path d="M189.558 413.685C189.226 413.685 189.004 413.463 189.004 413.131V394.675C189.004 394.343 189.226 394.121 189.558 394.121C189.891 394.121 190.112 394.343 190.112 394.675V413.186C190.112 413.463 189.835 413.685 189.558 413.685Z" fill="#41193E"/>
<path d="M194.769 413.685C194.437 413.685 194.215 413.463 194.215 413.131V394.675C194.215 394.343 194.437 394.121 194.769 394.121C195.102 394.121 195.323 394.343 195.323 394.675V413.186C195.323 413.463 195.102 413.685 194.769 413.685Z" fill="#41193E"/>
<path d="M163.897 369.625L141.063 421.001C141.063 421.001 77.6609 407.645 33.5452 380.045C18.138 370.401 13.15 350.228 22.35 334.543C22.4609 334.322 22.6271 334.1 22.738 333.878C30.6079 320.743 46.4585 314.813 61.0898 319.192C84.5332 326.23 128.261 341.97 163.897 369.625Z" fill="#00303F"/>
<path d="M162.066 399.997L199.642 376.055L213.165 413.298L176.199 421.334L162.066 399.997Z" fill="#FABCC6"/>
<path d="M98.0547 421.057H178.361L172.929 392.57C172.929 392.57 143.223 375.279 107.753 388.58C107.753 388.58 103.043 398.667 98.0547 421.057Z" fill="white"/>
<path d="M154.863 413.685C154.53 413.685 154.309 413.463 154.309 413.131V394.675C154.309 394.343 154.53 394.121 154.863 394.121C155.195 394.121 155.417 394.343 155.417 394.675V413.186C155.417 413.463 155.195 413.685 154.863 413.685Z" fill="#41193E"/>
<path d="M149.652 413.685C149.319 413.685 149.098 413.463 149.098 413.131V394.675C149.098 394.343 149.319 394.121 149.652 394.121C149.984 394.121 150.206 394.343 150.206 394.675V413.186C150.206 413.463 149.929 413.685 149.652 413.685Z" fill="#41193E"/>
<path d="M180.523 369.625L203.357 421.001C203.357 421.001 266.76 407.645 310.875 380.045C326.282 370.401 331.27 350.228 322.07 334.543C321.96 334.322 321.793 334.1 321.682 333.878C313.813 320.743 297.962 314.813 283.331 319.192C259.887 326.23 216.16 341.97 180.523 369.625Z" fill="#00303F"/>
<path d="M86.5815 340.025L80.208 338.917C68.7911 336.921 61.5863 325.56 64.6345 314.365C67.5165 303.724 71.7285 290.644 77.1598 279.338C82.5357 268.254 92.7887 260.273 104.871 257.946C130.365 253.013 182.239 246.196 235.721 258.555C246.75 261.105 256.172 268.309 261.437 278.285C265.982 286.876 271.302 298.403 274.96 311.15C278.451 323.232 271.136 335.758 258.943 338.75L230.456 332.543L86.5815 340.025Z" fill="#1AE3E3"/>
<path d="M71.3427 316.472C70.8993 318.135 70.5668 319.964 70.5668 321.959C70.5114 330.937 76.2198 338.918 84.5885 342.132L126.376 353.272L135.466 322.292L92.4584 305.998C83.7572 302.728 73.8921 307.494 71.3427 316.472Z" fill="#FABCC6"/>
<path d="M266.978 326.279C266.424 327.942 265.593 329.604 264.429 331.212C259.386 338.583 250.075 341.908 241.374 339.747L199.309 329.327L211.113 294.301L255.672 305.607C264.762 307.879 270.082 317.467 266.978 326.279Z" fill="#FABCC6"/>
<path d="M226.077 282.105H117.672V347.115H226.077V282.105Z" fill="#C7FF50"/>
<path d="M226.077 348.887H117.672V355.537H226.077V348.887Z" fill="#C7FF50"/>
<path d="M177.75 318.351H165.945C165.612 318.351 165.391 318.129 165.391 317.797V305.992C165.391 305.659 165.612 305.438 165.945 305.438H177.75C178.082 305.438 178.304 305.659 178.304 305.992V317.797C178.304 318.074 178.082 318.351 177.75 318.351ZM166.499 317.242H177.195V306.546H166.499V317.242Z" fill="#BAF144"/>
<path d="M221.366 287.87H122.328C121.995 287.87 121.773 287.648 121.773 287.316C121.773 286.983 121.995 286.762 122.328 286.762H221.366C221.699 286.762 221.92 286.983 221.92 287.316C221.92 287.648 221.699 287.87 221.366 287.87Z" fill="#BAF144"/>
<path d="M156.631 229.289C159.015 232.503 158.737 236.771 155.966 238.821C153.195 240.872 149.039 239.874 146.655 236.66C144.272 233.445 144.549 229.178 147.321 227.127C150.092 225.077 154.248 226.074 156.631 229.289Z" fill="#FABCC6"/>
<path d="M186.226 227.794C184.176 231.23 184.896 235.498 187.834 237.216C190.771 238.989 194.817 237.604 196.867 234.112C198.918 230.676 198.198 226.409 195.26 224.69C192.323 222.972 188.277 224.358 186.226 227.794Z" fill="#FABCC6"/>
<path d="M189.718 219.979C189.164 209.726 180.463 201.856 170.154 202.354C159.901 202.909 152.031 211.61 152.53 221.918L153.195 233.945L190.328 232.005L189.718 219.979Z" fill="#003C4F"/>
<path d="M170.378 268.861C163.173 268.528 157.631 262.432 157.963 255.282L159.183 228.957L185.176 230.176L183.956 256.502C183.624 263.651 177.527 269.193 170.378 268.861Z" fill="#FABCC6"/>
<path d="M189.61 231.285C190.219 242.868 182.682 252.678 172.817 253.177C162.952 253.675 154.472 244.697 153.863 233.114C153.253 221.531 160.79 214.88 170.655 214.381C180.52 213.883 189 219.646 189.61 231.285Z" fill="#FABCC6"/>
<path d="M171.985 253.732C167.33 253.732 162.896 251.737 159.405 248.024C159.183 247.802 159.183 247.47 159.405 247.248C159.626 247.026 159.959 247.026 160.18 247.248C163.617 250.906 168.106 252.79 172.706 252.568C177.306 252.347 181.518 250.019 184.621 245.973C184.788 245.751 185.176 245.696 185.397 245.862C185.619 246.029 185.674 246.417 185.508 246.638C182.238 250.906 177.694 253.4 172.761 253.621C172.539 253.732 172.262 253.732 171.985 253.732Z" fill="#003C4F"/>
<path d="M189.555 237.439C189.5 237.439 189.5 237.439 189.444 237.439C189.167 237.384 188.945 237.106 189.001 236.774C189.333 235 189.444 233.116 189.333 231.287C189.223 229.625 189.001 228.017 188.557 226.41C188.502 226.133 188.668 225.8 188.945 225.745C189.223 225.69 189.555 225.856 189.611 226.133C190.054 227.796 190.331 229.514 190.386 231.232C190.497 233.171 190.386 235.111 189.998 236.996C190.054 237.273 189.832 237.439 189.555 237.439Z" fill="#003C4F"/>
<path d="M154.414 239.101C154.192 239.101 153.97 238.935 153.86 238.713C153.361 236.884 153.028 235 152.917 233.115C152.807 231.342 152.917 229.568 153.195 227.85C153.25 227.573 153.527 227.352 153.804 227.407C154.081 227.462 154.303 227.74 154.248 228.017C153.971 229.679 153.915 231.342 153.971 233.005C154.081 234.833 154.358 236.607 154.857 238.325C154.968 238.602 154.746 238.935 154.469 238.99C154.525 239.101 154.469 239.101 154.414 239.101Z" fill="#003C4F"/>
<path d="M172.982 240.488C172.816 240.488 172.65 240.432 172.539 240.266C172.373 240.044 172.373 239.656 172.65 239.49C172.927 239.268 173.315 238.936 173.315 238.603C173.315 238.437 173.204 238.271 172.982 237.994C172.761 237.661 172.483 237.273 172.317 236.663C172.206 236.109 172.262 235.555 172.483 234.945C172.594 234.668 172.927 234.502 173.204 234.613C173.481 234.724 173.647 235.056 173.536 235.333C173.37 235.721 173.37 236.109 173.426 236.442C173.481 236.83 173.703 237.107 173.869 237.384C174.091 237.716 174.423 238.104 174.368 238.659C174.368 239.268 173.98 239.878 173.259 240.432C173.204 240.432 173.093 240.488 172.982 240.488Z" fill="#41193E"/>
<path d="M170.155 243.369C169.379 243.369 168.271 243.203 167.218 242.538C166.498 242.094 165.943 241.485 165.5 240.764C165.334 240.487 165.445 240.155 165.722 239.988C165.999 239.822 166.331 239.933 166.498 240.21C166.83 240.764 167.329 241.263 167.883 241.651C168.936 242.316 170.045 242.371 170.599 242.316C170.876 242.316 171.153 242.538 171.208 242.815C171.208 243.147 170.987 243.369 170.71 243.424C170.488 243.369 170.322 243.369 170.155 243.369Z" fill="#41193E"/>
<path d="M169.767 211.445C169.767 211.445 203.241 178.525 183.511 169.491C166.497 161.676 168.27 204.961 169.767 211.445Z" fill="#003C4F"/>
<path d="M169.713 210.723C169.713 210.723 180.132 155.523 158.629 158.626C140.118 161.286 164.947 206.123 169.713 210.723Z" fill="#003C4F"/>
<path d="M166.939 208.284C166.939 208.284 156.409 168.99 141.279 184.619C128.311 197.976 160.4 207.564 166.939 208.284Z" fill="#003C4F"/>
<path d="M161.896 206.898C161.896 206.898 147.541 200.192 146.987 207.563C146.544 213.826 160.067 208.173 161.896 206.898Z" fill="#003C4F"/>
<path d="M167.105 232.674C167.105 233.561 166.551 234.337 165.941 234.337C165.332 234.337 164.777 233.561 164.777 232.674C164.777 231.788 165.332 231.012 165.941 231.012C166.606 231.012 167.105 231.788 167.105 232.674Z" fill="#41193E"/>
<path d="M163.948 228.185C163.782 228.185 163.615 228.129 163.504 228.018C163.283 227.797 163.338 227.464 163.56 227.243C163.892 226.965 164.28 226.688 164.668 226.522C166.22 225.857 167.495 226.522 167.716 226.633C167.994 226.799 168.049 227.132 167.883 227.409C167.716 227.686 167.384 227.741 167.107 227.575C166.996 227.52 166.165 227.021 165.056 227.52C164.779 227.631 164.447 227.852 164.225 228.074C164.225 228.129 164.059 228.185 163.948 228.185Z" fill="#41193E"/>
<path d="M177.859 232.674C177.859 233.561 178.413 234.337 179.023 234.337C179.633 234.337 180.187 233.561 180.187 232.674C180.187 231.788 179.633 231.012 179.023 231.012C178.358 231.012 177.804 231.788 177.859 232.674Z" fill="#41193E"/>
<path d="M181.016 228.185C180.906 228.185 180.739 228.13 180.628 228.074C180.351 227.853 180.074 227.686 179.797 227.52C178.689 227.021 177.857 227.52 177.747 227.576C177.469 227.742 177.137 227.631 176.971 227.409C176.804 227.132 176.915 226.8 177.137 226.633C177.359 226.467 178.633 225.858 180.185 226.523C180.573 226.689 180.961 226.966 181.294 227.243C181.515 227.465 181.571 227.797 181.349 228.019C181.294 228.13 181.127 228.185 181.016 228.185Z" fill="#41193E"/>
</svg>
