<svg width="36" height="36" viewBox="0 0 36 36" fill="none" xmlns="http://www.w3.org/2000/svg">
<path d="M6.1 29.4423C7.99487 28.2115 9.88397 27.2545 11.7673 26.5711C13.6506 25.8878 15.7282 25.5461 18 25.5461C20.2718 25.5461 22.3513 25.8878 24.2384 26.5711C26.1257 27.2545 28.0167 28.2115 29.9116 29.4423C31.3526 27.8731 32.4712 26.1333 33.2673 24.2231C34.0635 22.3128 34.4616 20.2385 34.4616 18C34.4616 13.3974 32.8686 9.5032 29.6827 6.3173C26.4968 3.1314 22.6026 1.53845 18 1.53845C13.3974 1.53845 9.5032 3.1314 6.3173 6.3173C3.1314 9.5032 1.53845 13.3974 1.53845 18C1.53845 20.2385 1.93845 22.3128 2.73845 24.2231C3.53845 26.1333 4.65897 27.8731 6.1 29.4423ZM17.9907 18.7693C16.32 18.7693 14.916 18.1975 13.7788 17.0542C12.6417 15.9108 12.0731 14.5037 12.0731 12.833C12.0731 11.1623 12.6448 9.75832 13.7881 8.62115C14.9315 7.48398 16.3386 6.9154 18.0093 6.9154C19.68 6.9154 21.084 7.48708 22.2211 8.63045C23.3583 9.77382 23.927 11.1809 23.927 12.8516C23.927 14.5223 23.3552 15.9263 22.2119 17.0634C21.0685 18.2006 19.6614 18.7693 17.9907 18.7693ZM17.9797 36C15.4903 36 13.1485 35.5327 10.9544 34.5981C8.76042 33.6635 6.85155 32.3776 5.22785 30.7404C3.60415 29.1032 2.32692 27.1988 1.39615 25.0272C0.465384 22.8556 0 20.5049 0 17.975C0 15.4708 0.4673 13.1265 1.4019 10.942C2.33653 8.75762 3.62243 6.85513 5.2596 5.2346C6.8968 3.6141 8.8012 2.33653 10.9728 1.4019C13.1444 0.4673 15.4951 0 18.025 0C20.5292 0 22.8736 0.4673 25.058 1.4019C27.2424 2.33653 29.1449 3.6141 30.7654 5.2346C32.3859 6.85513 33.6635 8.76027 34.5981 10.95C35.5327 13.1397 36 15.4853 36 17.9867C36 20.5137 35.5327 22.8618 34.5981 25.031C33.6635 27.2001 32.3859 29.1032 30.7654 30.7404C29.1449 32.3776 27.2376 33.6635 25.0435 34.5981C22.8495 35.5327 20.4949 36 17.9797 36Z" fill="#26B5B5"/>
</svg>
