<svg width="32" height="37" viewBox="0 0 32 37" fill="none" xmlns="http://www.w3.org/2000/svg">
<path d="M16 23.3083C15.5872 23.3083 15.2276 23.1551 14.9212 22.8487C14.6148 22.5423 14.4615 22.1827 14.4615 21.7699C14.4615 21.357 14.6148 20.9974 14.9212 20.691C15.2276 20.3846 15.5872 20.2314 16 20.2314C16.4128 20.2314 16.7724 20.3846 17.0788 20.691C17.3853 20.9974 17.5385 21.357 17.5385 21.7699C17.5385 22.1827 17.3853 22.5423 17.0788 22.8487C16.7724 23.1551 16.4128 23.3083 16 23.3083ZM8 23.3083C7.58717 23.3083 7.22755 23.1551 6.92115 22.8487C6.61475 22.5423 6.46155 22.1827 6.46155 21.7699C6.46155 21.357 6.61475 20.9974 6.92115 20.691C7.22755 20.3846 7.58717 20.2314 8 20.2314C8.41283 20.2314 8.77245 20.3846 9.07885 20.691C9.38525 20.9974 9.53845 21.357 9.53845 21.7699C9.53845 22.1827 9.38525 22.5423 9.07885 22.8487C8.77245 23.1551 8.41283 23.3083 8 23.3083ZM24 23.3083C23.5872 23.3083 23.2275 23.1551 22.9211 22.8487C22.6147 22.5423 22.4616 22.1827 22.4616 21.7699C22.4616 21.357 22.6147 20.9974 22.9211 20.691C23.2275 20.3846 23.5872 20.2314 24 20.2314C24.4128 20.2314 24.7725 20.3846 25.0789 20.691C25.3853 20.9974 25.5385 21.357 25.5385 21.7699C25.5385 22.1827 25.3853 22.5423 25.0789 22.8487C24.7725 23.1551 24.4128 23.3083 24 23.3083ZM16 31.0006C15.5872 31.0006 15.2276 30.8474 14.9212 30.541C14.6148 30.2346 14.4615 29.875 14.4615 29.4622C14.4615 29.0493 14.6148 28.6897 14.9212 28.3833C15.2276 28.0769 15.5872 27.9237 16 27.9237C16.4128 27.9237 16.7724 28.0769 17.0788 28.3833C17.3853 28.6897 17.5385 29.0493 17.5385 29.4622C17.5385 29.875 17.3853 30.2346 17.0788 30.541C16.7724 30.8474 16.4128 31.0006 16 31.0006ZM8 31.0006C7.58717 31.0006 7.22755 30.8474 6.92115 30.541C6.61475 30.2346 6.46155 29.875 6.46155 29.4622C6.46155 29.0493 6.61475 28.6897 6.92115 28.3833C7.22755 28.0769 7.58717 27.9237 8 27.9237C8.41283 27.9237 8.77245 28.0769 9.07885 28.3833C9.38525 28.6897 9.53845 29.0493 9.53845 29.4622C9.53845 29.875 9.38525 30.2346 9.07885 30.541C8.77245 30.8474 8.41283 31.0006 8 31.0006ZM24 31.0006C23.5872 31.0006 23.2275 30.8474 22.9211 30.541C22.6147 30.2346 22.4616 29.875 22.4616 29.4622C22.4616 29.0493 22.6147 28.6897 22.9211 28.3833C23.2275 28.0769 23.5872 27.9237 24 27.9237C24.4128 27.9237 24.7725 28.0769 25.0789 28.3833C25.3853 28.6897 25.5385 29.0493 25.5385 29.4622C25.5385 29.875 25.3853 30.2346 25.0789 30.541C24.7725 30.8474 24.4128 31.0006 24 31.0006ZM2.7692 37.0006C2.00063 37.0006 1.34695 36.7312 0.80815 36.1925C0.269383 35.6537 0 35 0 34.2314V7.30831C0 6.53971 0.269383 5.88601 0.80815 5.34721C1.34695 4.80845 2.00063 4.53906 2.7692 4.53906H6.90385V0.539062H8.6923V4.53906H23.4616V0.539062H25.1346V4.53906H29.2308C29.9994 4.53906 30.653 4.80845 31.1918 5.34721C31.7306 5.88601 32 6.53971 32 7.30831V34.2314C32 35 31.7306 35.6537 31.1918 36.1925C30.653 36.7312 29.9994 37.0006 29.2308 37.0006H2.7692ZM2.7692 35.4622H29.2308C29.5385 35.4622 29.8205 35.334 30.077 35.0776C30.3334 34.8211 30.4616 34.5391 30.4616 34.2314V16.0006H1.53845V34.2314C1.53845 34.5391 1.66665 34.8211 1.92305 35.0776C2.17948 35.334 2.46153 35.4622 2.7692 35.4622Z" fill="#26B5B5"/>
</svg>
