<svg width="28" height="36" viewBox="0 0 28 36" fill="none" xmlns="http://www.w3.org/2000/svg">
<path d="M2.7692 36C2.00063 36 1.34695 35.7306 0.80815 35.1918C0.269383 34.653 0 33.9994 0 33.2308V2.7692C0 2.00063 0.269383 1.34695 0.80815 0.80815C1.34695 0.269383 2.00063 0 2.7692 0H19.4731L28 8.52695V33.2308C28 33.9994 27.7306 34.653 27.1918 35.1918C26.653 35.7306 25.9994 36 25.2308 36H2.7692ZM13.923 30.4884H15.4615V28.4884H18.923C19.1494 28.4884 19.3341 28.4168 19.4774 28.2736C19.6207 28.1303 19.6923 27.9455 19.6923 27.7193V21.4884C19.6923 21.2622 19.6207 21.0774 19.4774 20.9341C19.3341 20.7909 19.1494 20.7193 18.923 20.7193H11.2308V16.027H19.6923V14.4885H15.4615V12.4885H13.923V14.4885H10.4615C10.2352 14.4885 10.0505 14.5601 9.9072 14.7033C9.76393 14.8466 9.6923 15.0314 9.6923 15.2577V21.4884C9.6923 21.7148 9.76393 21.8995 9.9072 22.0428C10.0505 22.1861 10.2352 22.2577 10.4615 22.2577H18.1539V26.95H9.6923V28.4884H13.923V30.4884ZM18.8384 8.52695H25.7885L18.8384 1.53845V8.52695Z" fill="#26B5B5"/>
</svg>
