<svg width="36" height="33" viewBox="0 0 36 33" fill="none" xmlns="http://www.w3.org/2000/svg">
<path d="M12.2308 6.76903V3.75748C12.2308 2.98892 12.5001 2.33523 13.0389 1.79643C13.5777 1.25767 14.2314 0.988281 15 0.988281H21C21.7686 0.988281 22.4223 1.25767 22.9611 1.79643C23.4999 2.33523 23.7693 2.98892 23.7693 3.75748V6.76903H33.2308C33.9994 6.76903 34.653 7.03843 35.1918 7.57723C35.7306 8.116 36 8.76968 36 9.53828V20.2191H21.3193V17.6806H14.7038V20.2191H0V9.53828C0 8.76968 0.269383 8.116 0.80815 7.57723C1.34695 7.03843 2.00063 6.76903 2.7692 6.76903H12.2308ZM13.7693 6.76903H22.2307V3.75748C22.2307 3.44982 22.1025 3.16777 21.8461 2.91133C21.5897 2.65493 21.3077 2.52673 21 2.52673H15C14.6923 2.52673 14.4102 2.65493 14.1538 2.91133C13.8975 3.16777 13.7693 3.44982 13.7693 3.75748V6.76903ZM16.2423 22.7575V19.2191H19.7808V22.7575H16.2423ZM0 21.7575H14.7038V24.296H21.3193V21.7575H36V30.2191C36 30.9877 35.7306 31.6414 35.1918 32.1801C34.653 32.7189 33.9994 32.9883 33.2308 32.9883H2.7692C2.00063 32.9883 1.34695 32.7189 0.80815 32.1801C0.269383 31.6414 0 30.9877 0 30.2191V21.7575Z" fill="#26B5B5"/>
</svg>
