<svg width="32" height="37" viewBox="0 0 32 37" fill="none" xmlns="http://www.w3.org/2000/svg">
<path d="M13.8039 30.1776L8.17305 24.5968L9.2346 23.5352L13.8039 28.0429L22.6193 19.1891L23.7193 20.2622L13.8039 30.1776ZM2.7692 37.0006C2.00063 37.0006 1.34695 36.7312 0.80815 36.1925C0.269383 35.6537 0 35 0 34.2314V7.30831C0 6.53971 0.269383 5.88601 0.80815 5.34721C1.34695 4.80845 2.00063 4.53906 2.7692 4.53906H6.90385V0.539062H8.6923V4.53906H23.4616V0.539062H25.1346V4.53906H29.2308C29.9994 4.53906 30.653 4.80845 31.1918 5.34721C31.7306 5.88601 32 6.53971 32 7.30831V34.2314C32 35 31.7306 35.6537 31.1918 36.1925C30.653 36.7312 29.9994 37.0006 29.2308 37.0006H2.7692ZM2.7692 35.4622H29.2308C29.5385 35.4622 29.8205 35.334 30.077 35.0776C30.3334 34.8211 30.4616 34.5391 30.4616 34.2314V16.0006H1.53845V34.2314C1.53845 34.5391 1.66665 34.8211 1.92305 35.0776C2.17948 35.334 2.46153 35.4622 2.7692 35.4622Z" fill="#26B5B5"/>
</svg>
