<svg width="48" height="48" viewBox="0 0 48 48" fill="none" xmlns="http://www.w3.org/2000/svg">
<path d="M15.6984 44.0016L15.1984 39.4016C14.7318 39.3349 14.2484 39.1849 13.7484 38.9516C13.2484 38.7182 12.8151 38.4349 12.4484 38.1016L8.54844 39.7516L4.14844 32.5516L7.94844 30.0516C7.78177 29.4849 7.69844 28.9849 7.69844 28.5516C7.69844 28.1182 7.78177 27.6182 7.94844 27.0516L4.14844 24.5516L8.54844 17.3516L12.4484 19.0016C12.8151 18.6682 13.2484 18.3849 13.7484 18.1516C14.2484 17.9182 14.7318 17.7682 15.1984 17.7016L15.6984 13.1016H24.0984L24.5984 17.7016C25.0651 17.7682 25.5484 17.9182 26.0484 18.1516C26.5484 18.3849 26.9818 18.6682 27.3484 19.0016L31.2484 17.3516L35.6484 24.5516L31.8484 27.0516C32.0151 27.6182 32.0984 28.1182 32.0984 28.5516C32.0984 28.9849 32.0151 29.4849 31.8484 30.0516L35.6484 32.5516L31.2484 39.7516L27.3484 38.1016C26.9818 38.4349 26.5484 38.7182 26.0484 38.9516C25.5484 39.1849 25.0651 39.3349 24.5984 39.4016L24.0984 44.0016H15.6984ZM19.8984 34.3016C21.5651 34.3016 22.9401 33.7599 24.0234 32.6766C25.1068 31.5932 25.6484 30.2182 25.6484 28.5516C25.6484 26.8849 25.1068 25.5099 24.0234 24.4266C22.9401 23.3432 21.5651 22.8016 19.8984 22.8016C18.2318 22.8016 16.8568 23.3432 15.7734 24.4266C14.6901 25.5099 14.1484 26.8849 14.1484 28.5516C14.1484 30.2182 14.6901 31.5932 15.7734 32.6766C16.8568 33.7599 18.2318 34.3016 19.8984 34.3016Z" fill="#1AE3E3"/>
<path d="M36.9 17.8L34.7 13.1L30 10.9L34.7 8.7L36.9 4L39.1 8.7L43.8 10.9L39.1 13.1L36.9 17.8ZM41.1 32.25L39.6 29.1L36.45 27.6L39.6 26.1L41.1 22.95L42.6 26.1L45.75 27.6L42.6 29.1L41.1 32.25Z" fill="#C7FF50"/>
</svg>
