<svg width="48" height="48" viewBox="0 0 48 48" fill="none" xmlns="http://www.w3.org/2000/svg">
<path d="M9 42C8.2 42 7.5 41.7 6.9 41.1C6.3 40.5 6 39.8 6 39V9C6 8.2 6.3 7.5 6.9 6.9C7.5 6.3 8.2 6 9 6H39C39.8 6 40.5 6.3 41.1 6.9C41.7 7.5 42 8.2 42 9V39C42 39.8 41.7 40.5 41.1 41.1C40.5 41.7 39.8 42 39 42H9Z" fill="#1AE3E3"/>
<path d="M18.85 30.8484L21.05 28.6484L16.4 23.9984L21 19.3984L18.8 17.1984L12 23.9984L18.85 30.8484ZM28.95 30.8484L35.8 23.9984L28.95 17.1484L26.75 19.3484L31.4 23.9984L26.75 28.6484L28.95 30.8484Z" fill="#C7FF50"/>
</svg>
