<svg width="48" height="48" viewBox="0 0 48 48" fill="none" xmlns="http://www.w3.org/2000/svg">
<path d="M7 40C6.2 40 5.5 39.7 4.9 39.1C4.3 38.5 4 37.8 4 37V11C4 10.2 4.3 9.5 4.9 8.9C5.5 8.3 6.2 8 7 8H41C41.8 8 42.5 8.3 43.1 8.9C43.7 9.5 44 10.2 44 11V37C44 37.8 43.7 38.5 43.1 39.1C42.5 39.7 41.8 40 41 40H7ZM7 37H30.05V28.85H7V37ZM33.05 37H41V17.7H33.05V37ZM7 25.85H30.05V17.7H7V25.85Z" fill="#1AE3E3"/>
<path d="M7 36.9992H30.05V28.8492H7V36.9992ZM33.05 36.9992H41V17.6992H33.05V36.9992ZM7 25.8492H30.05V17.6992H7V25.8492Z" fill="#C7FF50"/>
</svg>
