<svg width="461" height="457" viewBox="0 0 461 457" fill="none" xmlns="http://www.w3.org/2000/svg">
<g clip-path="url(#clip0_4227_14390)">
<path d="M228.192 456.365C354.215 456.365 456.376 354.203 456.376 228.18C456.376 102.158 354.215 -0.00390625 228.192 -0.00390625C102.169 -0.00390625 0.0078125 102.158 0.0078125 228.18C0.0078125 354.203 102.169 456.365 228.192 456.365Z" fill="#00516A"/>
<path d="M388.187 78.2305H59.6016V310.327H388.187V78.2305Z" fill="#137FA0"/>
<path d="M74.2136 93.4662C76.8039 93.4662 78.9037 91.3664 78.9037 88.7761C78.9037 86.1858 76.8039 84.0859 74.2136 84.0859C71.6233 84.0859 69.5234 86.1858 69.5234 88.7761C69.5234 91.3664 71.6233 93.4662 74.2136 93.4662Z" fill="#E8F1F3"/>
<path d="M89.362 93.4662C91.9523 93.4662 94.0522 91.3664 94.0522 88.7761C94.0522 86.1858 91.9523 84.0859 89.362 84.0859C86.7717 84.0859 84.6719 86.1858 84.6719 88.7761C84.6719 91.3664 86.7717 93.4662 89.362 93.4662Z" fill="#E8F1F3"/>
<path d="M104.53 93.4662C107.12 93.4662 109.22 91.3664 109.22 88.7761C109.22 86.1858 107.12 84.0859 104.53 84.0859C101.94 84.0859 99.8398 86.1858 99.8398 88.7761C99.8398 91.3664 101.94 93.4662 104.53 93.4662Z" fill="#E8F1F3"/>
<path d="M349.569 68H247.431C241.67 68 237 72.6702 237 78.4313V90.5687C237 96.3298 241.67 101 247.431 101H349.569C355.33 101 360 96.3298 360 90.5687V78.4313C360 72.6702 355.33 68 349.569 68Z" fill="#1AE3E3"/>
<path d="M346.438 222.646H278.368C268.383 222.646 260.262 214.525 260.262 204.54C260.262 194.555 268.383 186.434 278.368 186.434H346.438C356.423 186.434 364.545 194.555 364.545 204.54C364.545 214.525 356.423 222.646 346.438 222.646ZM278.368 187.539C268.993 187.539 261.361 195.165 261.361 204.545C261.361 213.926 268.988 221.552 278.368 221.552H346.438C355.813 221.552 363.445 213.926 363.445 204.545C363.445 195.165 355.819 187.539 346.438 187.539H278.368Z" fill="#71B8CE"/>
<path d="M224.728 186.669H74.6162C74.3138 186.669 74.0664 186.421 74.0664 186.119V166.968C74.0664 166.665 74.3138 166.418 74.6162 166.418H224.728C225.031 166.418 225.278 166.665 225.278 166.968V186.119C225.278 186.421 225.031 186.669 224.728 186.669ZM75.1661 185.569H224.179V167.518H75.1661V185.569Z" fill="#71B8CE"/>
<path d="M346.435 271.574H278.365C268.671 271.574 260.809 263.717 260.809 254.017C260.809 244.324 268.666 236.461 278.365 236.461H346.435C356.129 236.461 363.992 244.318 363.992 254.017C363.992 263.711 356.135 271.574 346.435 271.574Z" fill="#1790B5"/>
<path d="M334.094 307.194L330.652 249.125L373.562 288.4L349.446 288.593L334.094 307.194ZM331.912 251.77L335.024 304.34L348.918 287.498L370.752 287.328L331.906 251.77H331.912Z" fill="#AECBD3"/>
<path d="M365 110H75V154H365V110Z" fill="#1790B5"/>
<g clip-path="url(#clip1_4227_14390)">
<path d="M231.562 474.827H336.082V444.602H242.482L231.562 474.827Z" fill="#00303F"/>
<path d="M397.559 409.355C386.493 414.962 373.038 408.868 369.772 396.924C361.24 365.675 355.731 342.568 350.71 327.748C348.078 319.948 343.934 312.684 346.03 305.079C346.956 301.715 348.614 298.205 351.051 299.132C354.805 300.594 352.026 310.442 355.146 311.514C358.266 312.635 362.654 303.665 362.8 299.765C362.995 294.646 361.776 282.459 366.603 282.849C371.039 283.19 370.747 299.814 370.795 300.253C372.404 296.84 377.523 283.775 381.082 285.579C385.323 287.724 379.18 302.983 377.035 307.078C378.157 305.615 384.884 290.503 388.93 292.599C392.635 294.5 385.615 306.639 383.568 311.173C386.737 307.565 388.638 302.252 391.124 303.47C393.805 304.738 388.833 320.484 382.739 331.648C385.372 338.473 398.924 370.209 405.993 386.687C409.6 395.072 406.188 404.87 398.095 409.16C397.852 409.16 397.705 409.258 397.559 409.355Z" fill="#F7AFBC"/>
<path d="M382.837 410.477L322.24 385.42L343.788 344.957L399.168 382.202L382.837 410.477Z" fill="#F7AFBC"/>
<path d="M368.847 391.562C368.896 391.562 368.944 391.562 368.993 391.562C369.237 391.465 369.383 391.221 369.334 390.977C367.969 386.248 364.459 374.451 361.632 364.993C360.218 360.313 358.999 356.267 358.414 354.171C358.317 353.927 358.073 353.781 357.829 353.83C357.586 353.927 357.439 354.171 357.488 354.415C358.122 356.511 359.341 360.557 360.706 365.237C363.533 374.695 367.043 386.443 368.408 391.172C368.408 391.416 368.603 391.562 368.847 391.562Z" fill="#41193E"/>
<path d="M364.066 327.406C364.31 327.406 364.505 327.26 364.553 327.016C364.797 325.554 364.992 322.678 363.53 319.655C361.872 316.243 359.093 314.536 357.582 313.854C357.338 313.756 357.046 313.854 356.948 314.098C356.851 314.341 356.948 314.634 357.192 314.731C358.606 315.365 361.141 316.876 362.652 320.045C364.017 322.824 363.822 325.505 363.578 326.821C363.53 327.065 363.725 327.358 363.968 327.406C364.017 327.406 364.066 327.406 364.066 327.406Z" fill="#41193E"/>
<path d="M188.96 378.489L252.871 374.882L250.287 329.105L184.377 339.684L188.96 378.489Z" fill="#F7AFBC"/>
<path d="M196.273 377.61C199.636 336.416 200.465 307.019 202.854 288.884C203.926 280.743 206.559 272.797 203.049 265.728C201.489 262.608 199.149 259.488 196.955 260.902C193.543 263.047 198.174 272.163 195.346 273.869C192.519 275.576 188.619 268.897 186.864 264.266C185.694 261.146 183.841 257.636 180.77 258.172C176.431 258.952 177.845 265.387 177.845 265.826C175.7 264.509 173.214 264.558 171.849 265.728C170.045 267.337 170.045 271.286 173.068 273.723C172.629 273.479 169.46 271.871 168.046 272.992C166.633 274.113 166.974 277.916 169.899 281.962C167.315 280.743 165.219 280.841 164.536 281.621C162.586 283.863 164.097 289.177 172.239 298.927C171.215 304.728 166.389 327.836 162.586 345.727C158.491 365.081 175.798 382.338 195.054 377.853C195.493 377.805 195.883 377.707 196.273 377.61Z" fill="#F7AFBC"/>
<path d="M197.489 362.544C197.733 362.544 197.977 362.349 197.977 362.105C198.269 357.815 198.562 352.306 198.854 346.944C199.049 343.141 199.244 339.583 199.391 336.853C199.391 336.56 199.196 336.365 198.952 336.316C198.708 336.316 198.464 336.511 198.416 336.755C198.221 339.485 198.074 343.093 197.879 346.895C197.587 352.209 197.343 357.718 197.002 362.008C196.953 362.251 197.148 362.495 197.489 362.544C197.441 362.544 197.441 362.544 197.489 362.544Z" fill="#41193E"/>
<path d="M185.206 302.241C185.45 302.241 185.645 302.046 185.694 301.802C185.889 300.339 185.986 297.463 184.426 294.489C182.622 291.126 179.795 289.566 178.284 288.932C178.04 288.834 177.747 288.932 177.65 289.176C177.552 289.419 177.65 289.712 177.894 289.809C179.015 290.297 181.842 291.711 183.549 294.928C185.011 297.658 184.914 300.339 184.719 301.656C184.67 301.899 184.865 302.192 185.157 302.192C185.157 302.241 185.157 302.241 185.206 302.241Z" fill="#41193E"/>
<path d="M170.044 298.589C173.944 301.709 179.892 300.782 183.402 296.444L211.141 261.197L197.491 250.18L169.313 285.085C165.803 289.423 166.144 295.469 170.044 298.589Z" fill="#C7FF50"/>
<path d="M133.239 204.403C133.337 204.403 133.483 204.354 133.581 204.257C133.776 204.062 133.824 203.769 133.629 203.574C129.291 198.65 129.096 191.582 133.093 186.707C136.944 182.027 143.769 180.759 149.327 183.733C149.571 183.879 149.863 183.782 150.009 183.538C150.156 183.294 150.058 183.002 149.814 182.855C143.867 179.638 136.506 181.003 132.362 186.073C128.023 191.338 128.267 198.943 132.898 204.208C132.947 204.354 133.093 204.403 133.239 204.403Z" fill="#C7FF50"/>
<path d="M211.676 233.021L193.589 254.958L121 222.491L165.802 167.988L211.676 233.021Z" fill="#C7FF50"/>
<path d="M211.665 233.077L226.27 245.098L208.27 266.966L193.665 254.946L211.665 233.077Z" fill="#C7FF50"/>
<path d="M180.622 267.832C184.815 271.05 186.18 275.047 185.107 276.51C184.132 277.826 180.525 277.728 176.722 275.583C176.673 275.535 176.625 275.632 176.673 275.681C180.671 279.045 182.328 282.652 181.402 283.968C180.525 285.187 177.21 284.992 173.407 283.286C173.358 283.237 173.31 283.335 173.358 283.383C176.771 285.577 178.428 288.21 177.843 289.428C177.21 290.696 172.968 291.915 166.631 287.478L180.622 267.832Z" fill="#F7AFBC"/>
<path d="M361.727 355.289C352.269 346.904 328.186 325.551 292.306 321.944C264.226 319.116 234.05 325.941 220.741 330.182C221.082 347.05 221.716 364.941 222.057 381.809C228.541 382.784 231.954 383.271 238.73 384.295V448.596L341.3 448.694L341.398 399.846L352.805 404.088L361.727 355.289Z" fill="#1AE3E3"/>
<path d="M238.68 384.686C238.973 384.686 239.168 384.442 239.168 384.198C239.168 379.177 239.119 376.691 239.07 373.473C239.022 371.962 239.022 370.304 238.973 368.159C238.973 367.916 238.729 367.672 238.485 367.672C238.193 367.672 237.998 367.916 237.998 368.159C238.047 370.304 238.047 371.962 238.095 373.473C238.144 376.642 238.193 379.177 238.193 384.149C238.193 384.491 238.388 384.686 238.68 384.686Z" fill="white"/>
<path d="M342.324 400.528C342.519 400.528 342.714 400.382 342.762 400.187C342.86 399.943 342.714 399.651 342.47 399.553C337.741 397.847 335.352 397.018 332.33 395.946C330.916 395.458 329.356 394.873 327.357 394.191C327.114 394.093 326.821 394.239 326.724 394.483C326.626 394.727 326.772 395.019 327.016 395.117C329.015 395.848 330.575 396.384 331.989 396.872C335.011 397.944 337.4 398.773 342.08 400.479C342.226 400.479 342.275 400.528 342.324 400.528Z" fill="white"/>
<path d="M202.852 288.892C204.509 279.678 206.313 272.463 203.047 265.736C202.072 263.688 200.366 261.104 198.318 261.153C194.272 261.299 196.027 267.491 195.491 271.927C194.954 276.022 192.078 277.972 190.079 281.677C188.519 284.602 186.959 289.331 188.081 296.741C193.053 294.108 197.928 291.476 202.852 288.892Z" fill="#F7AFBC"/>
<path d="M287.82 337.984C280.8 338.472 274.706 333.158 274.219 326.138L272.22 297.912C271.732 290.892 276.997 284.749 284.066 284.262C291.086 283.774 297.229 289.039 297.716 296.108L299.715 324.334C300.203 331.403 294.889 337.546 287.82 337.984Z" fill="#F7AFBC"/>
<path d="M297.472 264.86C296.595 264.324 288.015 259.352 279.727 262.91C273.585 265.543 270.319 271.149 266.272 281.387C261.495 293.428 260.373 301.325 262.616 305.225C266.175 311.368 285.967 310.832 296.79 303.47C304.59 298.157 308.636 288.455 307.515 278.998C306.394 269.54 298.009 265.202 297.472 264.86Z" fill="#F7AFBC"/>
<path d="M275.242 309.908C280.215 309.908 285.626 308.933 290.306 307.226C290.55 307.129 290.696 306.836 290.598 306.593C290.501 306.349 290.208 306.203 289.965 306.3C284.797 308.201 278.703 309.176 273.341 308.884C273.097 308.884 272.853 309.079 272.805 309.323C272.805 309.615 273 309.81 273.243 309.859C273.975 309.908 274.608 309.908 275.242 309.908Z" fill="#41193E"/>
<path d="M265.049 289.92C265.098 289.92 265.147 289.92 265.147 289.92C265.391 289.871 265.586 289.579 265.488 289.335C265.342 288.799 265.244 288.067 265.586 287.726C265.732 287.58 265.878 287.531 266.268 287.482C266.561 287.434 266.902 287.336 267.341 287.19C268.072 286.849 268.706 286.312 269.242 285.581C269.388 285.337 269.339 285.045 269.096 284.899C268.852 284.752 268.559 284.801 268.413 285.045C267.974 285.63 267.487 286.069 266.902 286.312C266.561 286.459 266.317 286.507 266.024 286.556C265.586 286.654 265.196 286.702 264.806 287.092C264.318 287.629 264.221 288.457 264.513 289.579C264.659 289.774 264.854 289.92 265.049 289.92Z" fill="#41193E"/>
<path d="M269.143 300.937C269.192 300.937 269.241 300.937 269.29 300.937C270.07 300.693 271.142 300.206 271.922 299.133C272.605 298.158 272.995 296.793 272.848 295.867C272.751 295.38 272.556 295.136 272.361 294.99C271.825 294.648 271.288 294.941 270.801 295.233C270.265 295.526 269.631 295.916 268.705 295.867C267.925 295.818 267.145 295.623 266.413 295.233C266.17 295.087 265.877 295.185 265.731 295.428C265.585 295.672 265.682 295.965 265.926 296.111C266.755 296.55 267.681 296.793 268.607 296.842C269.777 296.891 270.606 296.403 271.191 296.062C271.386 295.965 271.678 295.77 271.776 295.77C271.971 295.916 271.873 297.378 271.045 298.5C270.411 299.377 269.533 299.767 268.9 299.962C268.656 300.06 268.51 300.303 268.558 300.547C268.753 300.791 268.948 300.937 269.143 300.937Z" fill="#41193E"/>
<path d="M292.695 298.911C290.751 295.651 292.212 291.197 295.958 288.963C299.704 286.73 304.317 287.562 306.261 290.823C308.205 294.083 306.744 298.537 302.998 300.771C299.252 303.004 294.639 302.172 292.695 298.911Z" fill="#F7AFBC"/>
<path d="M298.055 302.494C298.299 302.494 298.543 302.299 298.543 302.055C298.543 301.763 298.348 301.568 298.104 301.519C295.91 301.373 294.107 300.349 293.083 298.643C292.937 298.399 292.644 298.35 292.4 298.496C292.157 298.643 292.108 298.935 292.254 299.179C293.424 301.129 295.52 302.348 298.055 302.494Z" fill="#41193E"/>
<path d="M305.904 290.792C306.001 290.792 306.099 290.743 306.196 290.694C306.391 290.548 306.44 290.207 306.294 290.012C304.003 286.941 299.469 286.307 295.715 288.549C295.471 288.696 295.423 288.988 295.569 289.232C295.715 289.476 296.008 289.524 296.251 289.378C299.518 287.428 303.613 287.964 305.563 290.597C305.611 290.694 305.758 290.792 305.904 290.792Z" fill="#41193E"/>
<path d="M301.615 297.764C301.712 297.764 301.761 297.764 301.858 297.716C303.76 296.594 304.54 294.254 303.516 292.548C302.882 291.524 301.761 290.891 300.445 290.891C300.152 290.891 299.957 291.134 299.957 291.378C299.957 291.671 300.152 291.866 300.445 291.866C301.42 291.866 302.248 292.304 302.687 293.036C303.418 294.254 302.833 296.009 301.371 296.887C301.127 297.033 301.078 297.326 301.225 297.569C301.273 297.716 301.42 297.764 301.615 297.764Z" fill="#41193E"/>
<path d="M297.616 279.193C287.963 269.102 276.312 268.76 272.899 268.273C271.047 263.739 271.876 260.765 272.266 259.693C274.508 253.599 284.015 249.163 294.983 251.649C294.106 251.747 290.011 253.404 289.475 254.623C293.472 252.673 296.787 253.063 298.445 253.258C306.147 254.184 312.777 261.253 314.971 271.539C314.678 270.954 312.923 268.322 310.973 267.493C312.046 268.76 313.07 270.32 313.947 272.173C317.75 280.265 315.458 288.407 314.483 291.234C313.216 289.187 308.097 280.85 297.616 279.193Z" fill="#003C4F"/>
<path d="M272.509 284.41C271.924 285.677 272.119 287.042 272.996 287.481C273.874 287.92 275.092 287.237 275.677 285.97C276.262 284.702 276.067 283.337 275.19 282.898C274.312 282.411 273.094 283.142 272.509 284.41Z" fill="#41193E"/>
<path d="M280.262 280.021C280.311 280.021 280.408 280.021 280.457 279.972C280.701 279.875 280.798 279.582 280.701 279.338C280.457 278.705 280.116 278.168 279.677 277.681C278.068 275.828 276.07 275.877 275.68 275.926C275.387 275.926 275.192 276.17 275.241 276.462C275.241 276.755 275.485 276.95 275.777 276.901C276.07 276.852 277.678 276.803 278.946 278.315C279.287 278.705 279.58 279.192 279.823 279.728C279.872 279.875 280.067 280.021 280.262 280.021Z" fill="#41193E"/>
</g>
</g>
<defs>
<clipPath id="clip0_4227_14390">
<rect width="460.8" height="456.369" fill="white"/>
</clipPath>
<clipPath id="clip1_4227_14390">
<rect width="286.31" height="306.833" fill="white" transform="matrix(-1 0 0 1 407.309 168)"/>
</clipPath>
</defs>
</svg>
