<svg width="40" height="40" viewBox="0 0 40 40" fill="none" xmlns="http://www.w3.org/2000/svg">
<path d="M9.65234 22.0492L9.65242 22.0495C9.67719 22.0245 9.67555 22.026 9.65234 22.0492Z" fill="black"/>
<path d="M39.1122 16.5217L37.1231 16.0434C36.6906 14.1554 35.9457 12.3612 34.9045 10.6929L35.9125 9.00055C36.1872 8.53945 36.1127 7.95125 35.734 7.5725L32.4305 4.26898C32.0517 3.89141 31.4648 3.81586 31.0024 4.09047L29.3101 5.09852C27.6418 4.05727 25.8476 3.31234 23.9595 2.87984L23.4813 0.890781C23.3508 0.370156 22.8828 0.00390625 22.345 0.00390625H17.6581C17.1203 0.00390625 16.6523 0.370078 16.5219 0.890781L16.0436 2.87984C14.1555 3.31234 12.3613 4.05727 10.693 5.09852L9.0007 4.09047C8.53961 3.81578 7.95141 3.89023 7.57266 4.26898L4.26898 7.57242C3.89023 7.95117 3.81586 8.5393 4.09047 9.00047L5.09852 10.6928C4.05727 12.3611 3.31234 14.1553 2.87984 16.0434L0.890781 16.5216C0.370156 16.6521 0.00390625 17.1201 0.00390625 17.6579V22.3448C0.00390625 22.8826 0.370078 23.3517 0.891875 23.481L2.88094 23.9593C3.1693 25.2104 3.60328 26.4123 4.16062 27.5652C5.02117 26.7011 9.3432 22.3605 9.65383 22.0503C9.63852 21.9714 9.47109 20.4705 9.46664 20.1782C9.36695 14.2073 14.1763 9.45687 20.006 9.45687C25.8757 9.45687 30.5563 14.1898 30.5341 20.0379C30.509 25.4463 26.4723 30.0505 20.8345 30.4716C20.5906 30.4903 19.488 30.653 17.951 30.35L12.4517 35.8493C13.6002 36.4033 14.7976 36.8345 16.0435 37.1217L16.5218 39.112C16.6523 39.6326 17.1202 39.9988 17.658 39.9988H22.3449C22.8827 39.9988 23.3507 39.6327 23.4812 39.112L23.9595 37.1229C25.8475 36.6904 27.6417 35.9455 29.31 34.9042L31.0023 35.9123C31.4612 36.187 32.0505 36.1114 32.4304 35.7337L35.7339 32.4302C36.1127 32.0515 36.187 31.4634 35.9124 31.0022L34.9044 29.3098C35.9468 27.6416 36.6905 25.8473 37.123 23.9581L39.1109 23.481C39.6327 23.3517 39.9989 22.8826 39.9989 22.3448V17.6579C39.9989 17.1202 39.6328 16.6521 39.1122 16.5217Z" fill="#1AE3E3"/>
<path d="M27.9311 17.8589C27.8283 17.4555 27.5168 17.1381 27.1151 17.0281C26.7136 16.918 26.2847 17.0327 25.9902 17.3271L23.3164 20.0011C22.4024 20.9151 20.9166 20.9151 20.0026 20.0011C19.0894 19.088 19.0894 17.6005 20.0026 16.6873L22.6776 14.0123C22.9719 13.7179 23.0856 13.2882 22.9755 12.8869C22.8654 12.4856 22.5484 12.1736 22.1451 12.0711C17.2008 10.8146 12.7515 14.0352 11.9354 18.4826C11.6734 19.9473 11.7901 21.4062 12.2695 22.7495C11.6028 23.4163 1.30482 33.7141 1.02802 33.9911C-0.346273 35.3654 -0.346273 37.6013 1.04974 38.9973C2.43271 40.3082 4.55076 40.3634 6.0124 38.9755L17.254 27.734C19.0542 28.3765 21.0619 28.3634 23.0267 27.6702C26.5669 26.4209 29.0447 22.2285 27.9311 17.8589Z" fill="#C7FF50"/>
</svg>
