<svg width="42" height="36" viewBox="0 0 42 36" fill="none" xmlns="http://www.w3.org/2000/svg">
<path d="M20 0C15.1606 0.278064 10.6224 2.16051 7 5.39213L12.6022 11C14.7104 9.24306 17.2703 8.18132 20 7.93166V0Z" fill="#1AE3E3"/>
<path d="M11 12.6019L5.39568 7C2.16328 10.6212 0.279651 15.1596 0 20H7.9271C8.17829 17.2699 9.24163 14.7099 11 12.6019Z" fill="#1AE3E3"/>
<path d="M34.0729 20H42C41.7203 15.1596 39.8368 10.6212 36.6043 7L31 12.6019C32.7584 14.7098 33.8217 17.2699 34.0729 20Z" fill="#1AE3E3"/>
<path d="M34.3582 22C34.1885 23.8938 33.6566 25.4734 33.0274 26.7404C33.6411 27.702 34.1529 28.5147 34.4909 29.0544C35.4116 30.5243 35.2078 32.4111 33.9952 33.6431C33.7008 33.9422 33.3645 34.1832 33 34.3613L34.2578 35.6392C34.4946 35.8797 34.8049 36 35.1151 36C35.4255 36 35.7357 35.8797 35.9723 35.6392C39.5971 31.9572 41.7107 27.1524 42 22H34.3582Z" fill="#1AE3E3"/>
<path d="M7.79163 22H0C0.294932 27.1524 2.44995 31.9571 6.14569 35.6392C6.38706 35.8798 6.70338 36 7.0197 36C7.33603 36 7.65243 35.8797 7.89381 35.6392L11.638 31.9083C12.1207 31.4273 12.1207 30.6475 11.638 30.1664C10.6609 29.1929 8.19968 26.4672 7.79163 22Z" fill="#1AE3E3"/>
<path d="M35 5.39213C31.3776 2.16042 26.8394 0.278064 22 0V7.93166C24.7296 8.18132 27.2896 9.24306 29.3978 11L35 5.39213Z" fill="#1AE3E3"/>
<path d="M23.8795 18.1051C22.3078 16.6316 19.7504 16.6316 18.1788 18.1051C16.6071 19.5786 16.6071 21.9761 18.1788 23.4495C20.1643 25.311 29.9222 31.1521 31.0284 31.8119C31.5356 32.1146 32.199 32.0463 32.6242 31.6477C33.0494 31.2492 33.1222 30.6272 32.7994 30.1516C32.0954 29.1146 25.865 19.9665 23.8795 18.1051Z" fill="#C7FF50"/>
</svg>
