<svg width="42" height="38" viewBox="0 0 42 38" fill="none" xmlns="http://www.w3.org/2000/svg">
<path d="M0.968553 27.1353C0.413734 28.0973 0.0875913 29.174 0.0153428 30.2821C-0.0569056 31.3903 0.126676 32.5002 0.551893 33.5261C0.97711 34.5519 1.63257 35.4663 2.46759 36.1983C3.30261 36.9304 4.29481 37.4607 5.36749 37.7481C6.44016 38.0355 7.56456 38.0723 8.65374 37.8557C9.74292 37.6392 10.7677 37.175 11.6488 36.4991C12.53 35.8232 13.2439 34.9538 13.7353 33.9579C14.2268 32.9621 14.4826 31.8666 14.483 30.7561C14.4837 29.1614 13.9579 27.6112 12.9874 26.3459C12.0169 25.0806 10.6559 24.1711 9.11555 23.7584C7.57525 23.3457 5.9418 23.453 4.46871 24.0636C2.99561 24.6742 1.76525 25.754 0.968553 27.1353Z" fill="#C7FF50"/>
<path d="M11.8381 8.30859L3.69141 22.4296C4.98342 21.8787 6.38591 21.636 7.7879 21.7208C9.1899 21.8055 10.5529 22.2154 11.7692 22.9179C12.9854 23.6204 14.0215 24.5963 14.7954 25.7684C15.5694 26.9405 16.0599 28.2766 16.2283 29.6711L19.7766 23.5158C13.042 11.875 12.0644 10.7617 11.8381 8.30859Z" fill="#1AE3E3"/>
<path d="M40.6707 27.1363C40.2091 26.3578 26.9752 3.35698 26.7127 3.02206C25.6233 1.50258 23.9884 0.46334 22.1501 0.121844C20.3119 -0.219653 18.4129 0.16306 16.8504 1.18989C15.288 2.21671 14.1832 3.80806 13.7673 5.6309C13.3515 7.45373 13.6568 9.36676 14.6193 10.9696C14.5288 10.9696 14.1667 10.1912 28.1248 34.3778C28.6003 35.2016 29.2333 35.9237 29.9879 36.5028C30.7424 37.0819 31.6036 37.5067 32.5223 37.753C33.4411 37.9993 34.3993 38.0622 35.3423 37.9381C36.2853 37.8141 37.1947 37.5055 38.0185 37.03C38.8423 36.5546 39.5643 35.9215 40.1434 35.1669C40.7225 34.4124 41.1474 33.5512 41.3937 32.6325C41.6399 31.7137 41.7028 30.7555 41.5788 29.8125C41.4548 28.8695 41.1462 27.9601 40.6707 27.1363Z" fill="#1AE3E3"/>
</svg>
