<svg width="28" height="38" viewBox="0 0 28 38" fill="none" xmlns="http://www.w3.org/2000/svg">
<path fill-rule="evenodd" clip-rule="evenodd" d="M14 7.79297C10.5859 7.79297 7.39453 7.42188 4.94531 6.75391C2.34766 6.01172 0.9375 5.04688 0.9375 3.85938C0.9375 2.74609 2.34766 1.70703 4.94531 1.03906C7.39453 0.371094 10.5859 0 14 0C17.4141 0 20.6055 0.371094 23.0547 1.03906C25.6523 1.70703 27.0625 2.74609 27.0625 3.85938C27.0625 5.04688 25.6523 6.01172 23.0547 6.75391C20.6055 7.42188 17.4141 7.79297 14 7.79297Z" fill="#1AE3E3"/>
<path fill-rule="evenodd" clip-rule="evenodd" d="M14 25.3828C10.5859 25.3828 7.39453 25.1602 5.01953 24.7891C1.38281 24.2695 0.9375 23.5273 0.9375 22.9336V18.5547C1.60547 18.8516 2.49609 19.0742 3.46094 19.2969C6.28125 19.9648 9.99219 20.3359 14 20.3359C18.0078 20.3359 21.7188 19.9648 24.5391 19.2969C25.5039 19.0742 26.3945 18.8516 27.0625 18.5547V22.9336C27.0625 23.5273 26.6172 24.2695 22.9805 24.7891C20.6055 25.1602 17.4141 25.3828 14 25.3828ZM0.9375 17.5156V12.0977C1.60547 12.3945 2.49609 12.6172 3.46094 12.9141C6.28125 13.5078 9.99219 13.8789 14 13.8789C18.0078 13.8789 21.7188 13.5078 24.5391 12.9141C25.5039 12.6172 26.3945 12.3945 27.0625 12.0977V17.5156C25.0586 18.4805 20.3828 19.4453 14 19.4453C7.61719 19.4453 2.94141 18.4805 0.9375 17.5156ZM0.9375 11.1328V5.78906C1.97656 6.75391 3.60938 7.27344 4.72266 7.57031C7.69141 8.38672 10.957 8.68359 14 8.68359C17.043 8.68359 20.3086 8.38672 23.2773 7.57031C24.3906 7.27344 26.0234 6.75391 27.0625 5.78906V11.1328C25.0586 12.0977 20.3828 12.9883 14 12.9883C7.61719 12.9883 2.94141 12.0977 0.9375 11.1328Z" fill="#1AE3E3"/>
<path fill-rule="evenodd" clip-rule="evenodd" d="M14 29.0938C13.7773 29.0938 13.5547 28.8711 13.5547 28.6484V26.2734H14H14.4453V28.6484C14.4453 28.8711 14.2227 29.0938 14 29.0938Z" fill="#C7FF50"/>
<path fill-rule="evenodd" clip-rule="evenodd" d="M24.0195 34.0664C23.7969 34.0664 23.5742 33.8438 23.5742 33.6211V29.0938H4.42578V33.6211C4.42578 33.8438 4.20312 34.0664 3.98047 34.0664C3.75781 34.0664 3.53516 33.8438 3.53516 33.6211V28.6484C3.53516 28.4258 3.75781 28.2031 3.98047 28.2031H24.0195C24.2422 28.2031 24.4648 28.4258 24.4648 28.6484V33.6211C24.4648 33.8438 24.2422 34.0664 24.0195 34.0664Z" fill="#C7FF50"/>
<path fill-rule="evenodd" clip-rule="evenodd" d="M14 34.0664C13.7773 34.0664 13.5547 33.8438 13.5547 33.6211V28.6484C13.5547 28.4258 13.7773 28.2031 14 28.2031C14.2227 28.2031 14.4453 28.4258 14.4453 28.6484V33.6211C14.4453 33.8438 14.2227 34.0664 14 34.0664Z" fill="#C7FF50"/>
<path fill-rule="evenodd" clip-rule="evenodd" d="M6.42969 38H1.53125C1.16016 38 0.789062 37.6289 0.789062 37.2578V33.918C0.789062 33.5469 1.16016 33.1758 1.53125 33.1758H6.42969C6.80078 33.1758 7.17188 33.5469 7.17188 33.918V37.2578C7.17188 37.6289 6.80078 38 6.42969 38ZM5.31641 36.0703H4.72266C4.5 36.0703 4.27734 35.8477 4.27734 35.625C4.27734 35.3281 4.5 35.1797 4.72266 35.1797H5.31641C5.53906 35.1797 5.76172 35.3281 5.76172 35.625C5.76172 35.8477 5.53906 36.0703 5.31641 36.0703ZM3.23828 36.0703H2.64453C2.42188 36.0703 2.19922 35.8477 2.19922 35.625C2.19922 35.3281 2.42188 35.1797 2.64453 35.1797H3.23828C3.53516 35.1797 3.68359 35.3281 3.68359 35.625C3.68359 35.8477 3.53516 36.0703 3.23828 36.0703Z" fill="#C7FF50"/>
<path fill-rule="evenodd" clip-rule="evenodd" d="M16.4492 38H11.5508C11.1797 38 10.8086 37.6289 10.8086 37.2578V33.918C10.8086 33.5469 11.1797 33.1758 11.5508 33.1758H16.4492C16.8203 33.1758 17.1914 33.5469 17.1914 33.918V37.2578C17.1914 37.6289 16.8203 38 16.4492 38ZM15.3359 36.0703H14.7422C14.4453 36.0703 14.2969 35.8477 14.2969 35.625C14.2969 35.3281 14.4453 35.1797 14.7422 35.1797H15.3359C15.5586 35.1797 15.7812 35.3281 15.7812 35.625C15.7812 35.8477 15.5586 36.0703 15.3359 36.0703ZM13.2578 36.0703H12.6641C12.4414 36.0703 12.2188 35.8477 12.2188 35.625C12.2188 35.3281 12.4414 35.1797 12.6641 35.1797H13.2578C13.5547 35.1797 13.7031 35.3281 13.7031 35.625C13.7031 35.8477 13.5547 36.0703 13.2578 36.0703Z" fill="#C7FF50"/>
<path fill-rule="evenodd" clip-rule="evenodd" d="M26.4688 38H21.5703C21.1992 38 20.8281 37.6289 20.8281 37.2578V33.918C20.8281 33.5469 21.1992 33.1758 21.5703 33.1758H26.4688C26.8398 33.1758 27.2109 33.5469 27.2109 33.918V37.2578C27.2109 37.6289 26.8398 38 26.4688 38ZM25.3555 36.0703H24.7617C24.4648 36.0703 24.3164 35.8477 24.3164 35.625C24.3164 35.3281 24.4648 35.1797 24.7617 35.1797H25.3555C25.5781 35.1797 25.8008 35.3281 25.8008 35.625C25.8008 35.8477 25.5781 36.0703 25.3555 36.0703ZM23.2773 36.0703H22.6836C22.4609 36.0703 22.2383 35.8477 22.2383 35.625C22.2383 35.3281 22.4609 35.1797 22.6836 35.1797H23.2773C23.5 35.1797 23.7227 35.3281 23.7227 35.625C23.7227 35.8477 23.5 36.0703 23.2773 36.0703Z" fill="#C7FF50"/>
</svg>
