<svg width="32" height="40" viewBox="0 0 32 40" fill="none" xmlns="http://www.w3.org/2000/svg">
<path d="M3.57031 16.7108C5.08164 16.373 6.89789 16.0315 8.93859 15.7704V12.4288C8.93859 8.53555 12.1059 5.3682 15.9991 5.3682C19.8923 5.3682 23.0597 8.53555 23.0597 12.4288V15.7704C25.1004 16.0315 26.9166 16.373 28.428 16.7108V12.4288C28.428 5.57555 22.8524 0 15.9991 0C9.14586 0 3.57031 5.57555 3.57031 12.4288V16.7108Z" fill="#C7FF50"/>
<path fill-rule="evenodd" clip-rule="evenodd" d="M15.979 17.6562C8.6132 17.6562 2.47727 19.3258 0.375 19.9733V37.6835C2.48047 38.3305 8.62969 40.0012 15.979 40.0012C23.3448 40.0012 29.4807 38.3316 31.5829 37.6841V19.9739C29.4775 19.3269 23.3284 17.6562 15.979 17.6562ZM10.075 32.7413C9.745 32.7413 9.39625 32.7225 9.02875 32.685C8.66875 32.6475 8.32375 32.6025 7.99375 32.55C7.66375 32.49 7.38625 32.4375 7.16125 32.3925L7.2625 30.8513C7.5025 30.8738 7.78 30.9038 8.095 30.9413C8.4175 30.9788 8.74 31.0125 9.0625 31.0425C9.385 31.065 9.66625 31.0763 9.90625 31.0763C10.2513 31.0763 10.495 31.02 10.6375 30.9075C10.7875 30.7875 10.8625 30.6075 10.8625 30.3675C10.8625 30.2325 10.8325 30.1275 10.7725 30.0525C10.7125 29.97 10.5963 29.9025 10.4237 29.85C10.2587 29.79 10.0188 29.7338 9.70375 29.6813C9.05875 29.5688 8.545 29.4263 8.1625 29.2538C7.78 29.0813 7.50625 28.8413 7.34125 28.5338C7.17625 28.2188 7.09375 27.8063 7.09375 27.2963C7.09375 26.6513 7.20625 26.1525 7.43125 25.8C7.66375 25.4475 7.99 25.2 8.41 25.0575C8.83 24.915 9.32875 24.8438 9.90625 24.8438C10.1763 24.8438 10.48 24.8587 10.8175 24.8888C11.1625 24.9188 11.4963 24.9525 11.8188 24.99C12.1488 25.0275 12.4338 25.0688 12.6737 25.1138L12.595 26.6888C12.37 26.6663 12.1038 26.6438 11.7963 26.6213C11.4963 26.5913 11.1925 26.565 10.885 26.5425C10.5775 26.52 10.3075 26.5087 10.075 26.5087C9.7375 26.5087 9.49375 26.5538 9.34375 26.6438C9.19375 26.7338 9.11875 26.88 9.11875 27.0825C9.11875 27.2325 9.1525 27.3525 9.22 27.4425C9.2875 27.525 9.40375 27.5963 9.56875 27.6563C9.74125 27.7088 9.985 27.7725 10.3 27.8475C10.7875 27.9525 11.1962 28.0613 11.5262 28.1738C11.8563 28.2863 12.1188 28.425 12.3138 28.59C12.5162 28.755 12.6625 28.9688 12.7525 29.2313C12.8425 29.4862 12.8875 29.8163 12.8875 30.2213C12.8875 30.8363 12.7788 31.3313 12.5612 31.7063C12.3438 32.0738 12.025 32.34 11.605 32.505C11.185 32.6625 10.675 32.7413 10.075 32.7413ZM16.4361 32.7413C16.1061 32.7413 15.7573 32.7225 15.3898 32.685C15.0298 32.6475 14.6848 32.6025 14.3548 32.55C14.0248 32.49 13.7473 32.4375 13.5223 32.3925L13.6236 30.8513C13.8636 30.8738 14.1411 30.9038 14.4561 30.9413C14.7786 30.9788 15.1011 31.0125 15.4236 31.0425C15.7461 31.065 16.0273 31.0763 16.2673 31.0763C16.6123 31.0763 16.8561 31.02 16.9986 30.9075C17.1486 30.7875 17.2236 30.6075 17.2236 30.3675C17.2236 30.2325 17.1936 30.1275 17.1336 30.0525C17.0736 29.97 16.9573 29.9025 16.7848 29.85C16.6198 29.79 16.3798 29.7338 16.0648 29.6813C15.4198 29.5688 14.9061 29.4263 14.5236 29.2538C14.1411 29.0813 13.8673 28.8413 13.7023 28.5338C13.5373 28.2188 13.4548 27.8063 13.4548 27.2963C13.4548 26.6513 13.5673 26.1525 13.7923 25.8C14.0248 25.4475 14.3511 25.2 14.7711 25.0575C15.1911 24.915 15.6898 24.8438 16.2673 24.8438C16.5373 24.8438 16.8411 24.8587 17.1786 24.8888C17.5236 24.9188 17.8573 24.9525 18.1798 24.99C18.5098 25.0275 18.7948 25.0688 19.0348 25.1138L18.9561 26.6888C18.7311 26.6663 18.4648 26.6438 18.1573 26.6213C17.8573 26.5913 17.5536 26.565 17.2461 26.5425C16.9386 26.52 16.6686 26.5087 16.4361 26.5087C16.0986 26.5087 15.8548 26.5538 15.7048 26.6438C15.5548 26.7338 15.4798 26.88 15.4798 27.0825C15.4798 27.2325 15.5136 27.3525 15.5811 27.4425C15.6486 27.525 15.7648 27.5963 15.9298 27.6563C16.1023 27.7088 16.3461 27.7725 16.6611 27.8475C17.1486 27.9525 17.5573 28.0613 17.8873 28.1738C18.2173 28.2863 18.4798 28.425 18.6748 28.59C18.8773 28.755 19.0236 28.9688 19.1136 29.2313C19.2036 29.4862 19.2486 29.8163 19.2486 30.2213C19.2486 30.8363 19.1398 31.3313 18.9223 31.7063C18.7048 32.0738 18.3861 32.34 17.9661 32.505C17.5461 32.6625 17.0361 32.7413 16.4361 32.7413ZM20.0634 24.99V32.6063H24.8559V30.9525H22.0659V24.99H20.0634Z" fill="#1AE3E3"/>
</svg>
