<svg width="36" height="36" viewBox="0 0 36 36" fill="none" xmlns="http://www.w3.org/2000/svg">
<path d="M28.1053 28H7.89474C6.8501 28 6 28.673 6 29.5C6 30.327 6.8501 31 7.89474 31H28.1053C29.1499 31 30 30.327 30 29.5C30 28.673 29.1499 28 28.1053 28Z" fill="#26B5B5"/>
<path d="M31.44 8.70588C30.0282 8.70588 28.88 9.81397 28.88 11.1765C28.88 12.0918 29.4048 12.8836 30.1741 13.311C28.6931 16.6957 26.3827 18.7723 24.2233 18.5845C21.8221 18.3955 19.8636 15.6556 18.7833 11.0715C20.1682 10.733 21.1999 9.52855 21.1999 8.08824C21.1999 6.38476 19.7651 5 17.9999 5C16.2348 5 14.7999 6.38476 14.7999 8.08824C14.7999 9.52861 15.8316 10.733 17.2166 11.0715C16.1362 15.6556 14.1778 18.3955 11.7766 18.5845C9.62619 18.7723 7.3055 16.6957 5.82588 13.311C6.59513 12.8836 7.11994 12.0918 7.11994 11.1765C7.11994 9.81397 5.97175 8.70588 4.55994 8.70588C3.14819 8.70588 2 9.81397 2 11.1765C2 12.4439 2.99838 13.4791 4.27325 13.6199L6.73856 26H29.2614L31.7267 13.6199C33.0016 13.4791 34 12.4439 34 11.1765C34 9.81397 32.8518 8.70588 31.44 8.70588Z" fill="#26B5B5"/>
</svg>
