<svg width="34" height="34" viewBox="0 0 34 34" fill="none" xmlns="http://www.w3.org/2000/svg">
<path d="M20.8902 19.8125H13.1094L16.9998 30.511L20.8902 19.8125Z" fill="#26B5B5"/>
<path d="M23.0089 19.8125L17.9349 33.7662L17.8516 33.9953L33.3238 19.8125H23.0089Z" fill="#26B5B5"/>
<path d="M10.9906 19.8125H0.675781L16.148 33.9953L10.9906 19.8125Z" fill="#26B5B5"/>
<path d="M6.91016 9.85156L11.6895 17.0206L16.4689 9.85156H6.91016Z" fill="#26B5B5"/>
<path d="M17.5352 9.85156L22.3145 17.0206L27.0939 9.85156H17.5352Z" fill="#26B5B5"/>
<path d="M17.0021 12.6445L13.5508 17.8215H20.4534L17.0021 12.6445Z" fill="#26B5B5"/>
<path d="M5.17969 10.8477L0.53125 17.8204H9.82812L5.17969 10.8477Z" fill="#26B5B5"/>
<path d="M28.8242 10.8477L24.1758 17.8203H33.4727L28.8242 10.8477Z" fill="#26B5B5"/>
<path d="M27.6132 7.38374C27.3583 7.38374 27.1034 7.28646 26.9089 7.09195C26.5199 6.70301 26.5199 6.07228 26.9089 5.68328L29.7263 2.86592C30.1152 2.47698 30.746 2.47698 31.135 2.86592C31.524 3.25487 31.524 3.88559 31.135 4.2746L28.3176 7.09195C28.1231 7.28646 27.8682 7.38374 27.6132 7.38374Z" fill="#26B5B5"/>
<path d="M17.0039 5.97656C16.4538 5.97656 16.0078 5.53058 16.0078 4.98047V0.996094C16.0078 0.445984 16.4538 0 17.0039 0C17.554 0 18 0.445984 18 0.996094V4.98047C18 5.53058 17.554 5.97656 17.0039 5.97656Z" fill="#26B5B5"/>
<path d="M6.39154 7.38368C6.1366 7.38368 5.88167 7.28639 5.68723 7.09189L2.86988 4.2746C2.48087 3.88566 2.48087 3.25493 2.86988 2.86592C3.25882 2.47698 3.88955 2.47698 4.27856 2.86592L7.09591 5.68328C7.48492 6.07222 7.48492 6.70294 7.09591 7.09195C6.9014 7.28639 6.64647 7.38368 6.39154 7.38368Z" fill="#26B5B5"/>
</svg>
