<svg width="48" height="48" viewBox="0 0 48 48" fill="none" xmlns="http://www.w3.org/2000/svg">
<path fill-rule="evenodd" clip-rule="evenodd" d="M23.1537 16.8517H35.3137V33.8251C35.3137 34.3451 35.737 34.7684 36.257 34.7684H39.622C40.2304 34.7684 40.8137 35.0084 41.2437 35.4401C41.6737 35.8701 41.9154 36.4534 41.9154 37.0617V37.0767C41.9154 38.4001 40.832 39.4817 39.497 39.4817C39.497 39.4817 14.5054 39.4817 7.7487 39.4817C6.8287 39.4817 6.08203 38.7367 6.08203 37.8151C6.08203 34.2667 6.08203 26.2801 6.08203 26.2801V23.2084C6.22703 23.4001 6.3787 23.5884 6.5387 23.7701C7.1787 24.5051 8.14703 24.8717 9.1137 24.7451L9.8487 24.6484C9.9937 24.9951 10.1337 25.3334 10.1337 25.3334C10.507 26.2351 11.307 26.8884 12.2654 27.0767C13.5637 27.3317 14.8987 27.3317 16.1954 27.0767C17.1537 26.8884 17.9537 26.2351 18.3287 25.3334L18.612 24.6484C18.9854 24.6967 19.347 24.7451 19.347 24.7451C20.3154 24.8717 21.282 24.5051 21.9237 23.7701C22.792 22.7734 23.4604 21.6167 23.8887 20.3667C24.2054 19.4434 24.0387 18.4217 23.4454 17.6484L22.9937 17.0584C23.0487 16.9884 23.102 16.9167 23.1537 16.8517ZM13.9987 34.1434H28.9987C29.6887 34.1434 30.2487 33.5817 30.2487 32.8934C30.2487 32.2034 29.6887 31.6434 28.9987 31.6434H13.9987C13.3087 31.6434 12.7487 32.2034 12.7487 32.8934C12.7487 33.5817 13.3087 34.1434 13.9987 34.1434ZM22.332 28.3101H28.9987C29.6887 28.3101 30.2487 27.7484 30.2487 27.0601C30.2487 26.3701 29.6887 25.8101 28.9987 25.8101H22.332C21.642 25.8101 21.082 26.3701 21.082 27.0601C21.082 27.7484 21.642 28.3101 22.332 28.3101ZM37.2004 32.8817V12.1367H39.622C40.2304 12.1367 40.8137 12.3784 41.2437 12.8084C41.6737 13.2384 41.9154 13.8217 41.9154 14.4301V33.5667C41.2387 33.1234 40.4437 32.8817 39.622 32.8817H37.2004Z" fill="#26B5B5"/>
<path fill-rule="evenodd" clip-rule="evenodd" d="M16.789 9.42661C16.789 9.42661 17.3807 10.8516 17.379 10.8499C17.604 10.9649 17.824 11.0899 18.034 11.2283L19.564 11.0283C19.979 10.9733 20.3923 11.1299 20.6673 11.4449C21.3957 12.2799 21.954 13.2466 22.3123 14.2933C22.4473 14.6899 22.3757 15.1266 22.1223 15.4583C22.1223 15.4583 21.184 16.6833 21.184 16.6816C21.1973 16.9349 21.1973 17.1866 21.184 17.4383L22.1223 18.6633C22.3757 18.9949 22.4473 19.4316 22.3123 19.8283C21.954 20.8749 21.3957 21.8416 20.6673 22.6766C20.3923 22.9916 19.979 23.1483 19.564 23.0933C19.564 23.0933 18.034 22.8933 18.0357 22.8933C17.824 23.0299 17.6057 23.1566 17.3807 23.2699L16.789 24.6949C16.629 25.0816 16.2857 25.3616 15.8757 25.4433C14.789 25.6549 13.6723 25.6549 12.5857 25.4433C12.1757 25.3616 11.8323 25.0816 11.6723 24.6949C11.6723 24.6949 11.0807 23.2699 11.0823 23.2716C10.8573 23.1566 10.639 23.0316 10.4273 22.8933L8.89734 23.0933C8.48401 23.1483 8.06901 22.9916 7.79401 22.6766C7.06734 21.8416 6.50901 20.8749 6.14901 19.8283C6.01401 19.4316 6.08567 18.9949 6.34067 18.6633C6.34067 18.6633 7.27734 17.4383 7.27734 17.4399C7.26401 17.1883 7.26401 16.9349 7.27734 16.6833L6.34067 15.4583C6.08567 15.1266 6.01401 14.6899 6.14901 14.2933C6.50901 13.2466 7.06734 12.2799 7.79401 11.4449C8.06901 11.1299 8.48401 10.9733 8.89734 11.0283C8.89734 11.0283 10.4273 11.2283 10.4257 11.2283C10.6373 11.0916 10.8573 10.9649 11.0807 10.8516L11.6723 9.42661C11.8323 9.03995 12.1757 8.75995 12.5857 8.67828C13.6723 8.46661 14.789 8.46661 15.8757 8.67828C16.2857 8.75995 16.629 9.03995 16.789 9.42661ZM14.2307 14.5616C12.8507 14.5616 11.7307 15.6816 11.7307 17.0616C11.7307 18.4399 12.8507 19.5616 14.2307 19.5616C15.6107 19.5616 16.7307 18.4399 16.7307 17.0616C16.7307 15.6816 15.6107 14.5616 14.2307 14.5616Z" fill="#26B5B5"/>
</svg>
