<svg width="48" height="48" viewBox="0 0 48 48" fill="none" xmlns="http://www.w3.org/2000/svg">
<path d="M43.353 5.93481V12.3862H4.64453V5.93481C4.64453 5.22516 5.22516 4.64453 5.93481 4.64453H42.0627C42.7723 4.64453 43.353 5.22516 43.353 5.93481Z" fill="#26B5B5"/>
<path d="M7.22266 7.22266H9.80322V9.80322H7.22266V7.22266Z" fill="white"/>
<path d="M12.3867 7.22266H14.9673V9.80322H12.3867V7.22266Z" fill="white"/>
<path d="M17.5469 7.22266H20.1274V9.80322H17.5469V7.22266Z" fill="white"/>
<path d="M42.0627 35.6118H5.93481C5.22193 35.6118 4.64453 35.0344 4.64453 34.3215V12.3867H43.353V34.3215C43.353 35.0344 42.7756 35.6118 42.0627 35.6118Z" fill="#26B5B5"/>
<path d="M8.51562 14.9648H16.2573V22.7065H8.51562V14.9648Z" fill="white"/>
<path d="M8.51562 25.2891H16.2573V33.0307H8.51562V25.2891Z" fill="white"/>
<path d="M40.7707 14.9648V22.7065H30.4485V21.4162C30.4485 21.0614 30.3065 20.7389 30.0678 20.5066C29.8356 20.2679 29.513 20.126 29.1582 20.126C28.4485 20.126 27.8679 20.7066 27.8679 21.4162V22.7065H18.8359V14.9648H40.7707Z" fill="white"/>
<path d="M27.8679 25.2891V33.1856C27.8679 30.9469 26.0551 29.1341 23.81 29.1341H23.7519C23.1713 29.1341 22.7068 29.5986 22.7068 30.1792C22.7068 30.3405 22.7455 30.5018 22.8165 30.6437L23.5713 32.1469C23.7132 32.4243 23.8164 32.7211 23.8874 33.0307H18.8359V25.2891H27.8679Z" fill="white"/>
<path d="M36.9006 29.1599C36.191 29.1599 35.6103 29.7405 35.6103 30.4502V29.1599C35.6103 28.8051 35.4684 28.4825 35.2297 28.2503C34.9975 28.0116 34.6749 27.8696 34.3201 27.8696C33.6104 27.8696 33.0298 28.4503 33.0298 29.1599C33.0298 28.8051 32.8878 28.4825 32.6491 28.2503C32.4169 28.0116 32.0943 27.8696 31.7395 27.8696C31.0298 27.8696 30.4492 28.4503 30.4492 29.1599V25.2891H40.7715V33.0307H38.1909V30.4502C38.1909 30.0954 38.049 29.7728 37.8103 29.5405C37.578 29.3018 37.2555 29.1599 36.9006 29.1599Z" fill="white"/>
<path d="M35.6098 30.4472C35.6098 29.7376 36.1905 29.157 36.9001 29.157C37.2549 29.157 37.5775 29.2989 37.8098 29.5376C38.0485 29.7698 38.1904 30.0924 38.1904 30.4472V33.0278V35.6084V37.5438C38.1904 38.3825 37.9194 39.1954 37.4162 39.8663L36.255 41.4146V43.3501L25.9327 43.3243V41.4146L24.4038 38.3309C24.1328 37.7954 23.9973 37.2083 23.9973 36.6083V35.6084V33.9568C23.9973 33.6471 23.9586 33.331 23.8876 33.0278C23.8167 32.7181 23.7135 32.4214 23.5715 32.144L22.8167 30.6408C22.7457 30.4989 22.707 30.3376 22.707 30.1763C22.707 29.5957 23.1715 29.1312 23.7522 29.1312H23.8102C26.0553 29.1312 27.8682 30.944 27.8682 33.1826V25.2861V22.7056V21.4153C27.8682 20.7056 28.4488 20.125 29.1584 20.125C29.5133 20.125 29.8358 20.2669 30.0681 20.5056C30.3068 20.7379 30.4487 21.0605 30.4487 21.4153V22.7056V25.2861V29.157C30.4487 28.4473 31.0293 27.8667 31.739 27.8667C32.0938 27.8667 32.4164 28.0086 32.6486 28.2473C32.8873 28.4796 33.0293 28.8021 33.0293 29.157C33.0293 28.4473 33.6099 27.8667 34.3196 27.8667C34.6744 27.8667 34.997 28.0086 35.2292 28.2473C35.4679 28.4796 35.6098 28.8021 35.6098 29.157V30.4472Z" fill="#26B5B5"/>
</svg>
