<svg width="48" height="48" viewBox="0 0 48 48" fill="none" xmlns="http://www.w3.org/2000/svg">
<path d="M42.832 20.6667H39.4987L34.4987 27.3333L29.4987 20.6667H23.6654C22.7813 20.6667 21.9335 20.3155 21.3083 19.6904C20.6832 19.0652 20.332 18.2174 20.332 17.3333V7.33333C20.332 6.44928 20.6832 5.60143 21.3083 4.97631C21.9335 4.35119 22.7813 4 23.6654 4H42.832C43.7161 4 44.5639 4.35119 45.1891 4.97631C45.8142 5.60143 46.1654 6.44928 46.1654 7.33333V17.3333C46.1654 18.2174 45.8142 19.0652 45.1891 19.6904C44.5639 20.3155 43.7161 20.6667 42.832 20.6667Z" fill="#26B5B5"/>
<path d="M33.6667 34.832H27.8333L21.1667 43.9987L14.4167 34.832H5.33333C4.44928 34.832 3.60143 34.4808 2.97631 33.8557C2.35119 33.2306 2 32.3828 2 31.4987V15.6654C2 14.7813 2.35119 13.9335 2.97631 13.3083C3.60143 12.6832 4.44928 12.332 5.33333 12.332H33.6667C34.5507 12.332 35.3986 12.6832 36.0237 13.3083C36.6488 13.9335 37 14.7813 37 15.6654V31.4987C37 32.3828 36.6488 33.2306 36.0237 33.8557C35.3986 34.4808 34.5507 34.832 33.6667 34.832Z" fill="#26B5B5"/>
<path d="M23.6641 7.33594H42.8307V9.0026H23.6641V7.33594Z" fill="#EAFFFF"/>
<path d="M38.6641 11.5039H42.8307V13.1706H38.6641V11.5039Z" fill="#EAFFFF"/>
<path d="M26.168 23.8359H7.0013V22.1693H26.168V23.8359Z" fill="#EAFFFF"/>
<path d="M11.168 19.668H7.0013V18.0013H11.168V19.668Z" fill="#EAFFFF"/>
</svg>
