<svg width="48" height="48" viewBox="0 0 48 48" fill="none" xmlns="http://www.w3.org/2000/svg">
<path d="M37.5484 18.2016L29.7984 10.4516L33.2984 6.95156C33.8651 6.3849 34.5651 6.10156 35.3984 6.10156C36.2318 6.10156 36.9318 6.3849 37.4984 6.95156L41.0484 10.5016C41.6151 11.0682 41.8984 11.7682 41.8984 12.6016C41.8984 13.4349 41.6151 14.1349 41.0484 14.7016L37.5484 18.2016ZM5.99844 42.0016V34.2016L15.6984 24.5016L4.64844 13.4016L13.3484 4.60156L24.4984 15.7516L27.6484 12.6016L35.3984 20.3516L32.2484 23.5016L43.3984 34.6516L34.6484 43.3016L23.5484 32.2516L13.7984 42.0016H5.99844ZM17.8484 22.3516L22.3484 17.8516L18.6984 14.2016L16.2984 16.6016L14.1984 14.5016L16.5984 12.1016L13.3984 8.90156L8.89844 13.4016L17.8484 22.3516ZM34.5484 39.1016L39.0484 34.6016L35.8484 31.4016L33.4484 33.8016L31.3484 31.7016L33.7484 29.3016L30.0984 25.6516L25.5984 30.1516L34.5484 39.1016Z" fill="#26B5B5"/>
<g clip-path="url(#clip0_4227_18916)">
<path d="M37.5484 18.2016L29.7984 10.4516L33.2984 6.95156C33.8651 6.3849 34.5651 6.10156 35.3984 6.10156C36.2318 6.10156 36.9318 6.3849 37.4984 6.95156L41.0484 10.5016C41.6151 11.0682 41.8984 11.7682 41.8984 12.6016C41.8984 13.4349 41.6151 14.1349 41.0484 14.7016L37.5484 18.2016ZM5.99844 42.0016V34.2016L15.6984 24.5016L4.64844 13.4016L13.3484 4.60156L24.4984 15.7516L27.6484 12.6016L35.3984 20.3516L32.2484 23.5016L43.3984 34.6516L34.6484 43.3016L23.5484 32.2516L13.7984 42.0016H5.99844ZM17.8484 22.3516L22.3484 17.8516L18.6984 14.2016L16.2984 16.6016L14.1984 14.5016L16.5984 12.1016L13.3984 8.90156L8.89844 13.4016L17.8484 22.3516ZM34.5484 39.1016L39.0484 34.6016L35.8484 31.4016L33.4484 33.8016L31.3484 31.7016L33.7484 29.3016L30.0984 25.6516L25.5984 30.1516L34.5484 39.1016Z" fill="#26B5B5"/>
</g>
<defs>
<clipPath id="clip0_4227_18916">
<rect width="17" height="48" fill="white"/>
</clipPath>
</defs>
</svg>
