<svg width="48" height="48" viewBox="0 0 48 48" fill="none" xmlns="http://www.w3.org/2000/svg">
<path d="M4 47.9993V41.9493H44V47.9993H4ZM8.1 36.6493V29.9993L26.75 11.3493L33.4 17.9993L14.75 36.6493H8.1ZM35.6 15.7993L28.95 9.1493L33.15 4.9493C33.5167 4.51597 33.9333 4.29097 34.4 4.2743C34.8667 4.25763 35.3333 4.48263 35.8 4.9493L39.7 8.8493C40.1333 9.28263 40.35 9.74097 40.35 10.2243C40.35 10.7076 40.1667 11.166 39.8 11.5993L35.6 15.7993Z" fill="#26B5B5"/>
<g clip-path="url(#clip0_4227_18095)">
<path d="M4 47.9993V41.9493H44V47.9993H4ZM8.1 36.6493V29.9993L26.75 11.3493L33.4 17.9993L14.75 36.6493H8.1ZM35.6 15.7993L28.95 9.1493L33.15 4.9493C33.5167 4.51597 33.9333 4.29097 34.4 4.2743C34.8667 4.25763 35.3333 4.48263 35.8 4.9493L39.7 8.8493C40.1333 9.28263 40.35 9.74097 40.35 10.2243C40.35 10.7076 40.1667 11.166 39.8 11.5993L35.6 15.7993Z" fill="#26B5B5"/>
</g>
<defs>
<clipPath id="clip0_4227_18095">
<rect width="48" height="37" fill="white"/>
</clipPath>
</defs>
</svg>
