<svg width="48" height="48" viewBox="0 0 48 48" fill="none" xmlns="http://www.w3.org/2000/svg">
<path d="M44 36.5443V19.8027C44 19.1555 43.4753 18.6308 42.8281 18.6308H29.6956C29.0484 18.6308 28.5237 19.1555 28.5237 19.8027V31.0169H25.1996V17.7354C25.1996 17.0882 24.6749 16.5635 24.0277 16.5635H19.4762V5.17188C19.4762 4.52469 18.9515 4 18.3043 4H5.17188C4.52469 4 4 4.52469 4 5.17188V21.9134H19.4762V18.9073H22.8559V32.1888C22.8559 32.836 23.3805 33.3607 24.0277 33.3607H28.5237V36.5443H44ZM13.3884 18.7298H10.0877C9.44047 18.7298 8.91578 18.2052 8.91578 17.558C8.91578 16.9108 9.44047 16.3861 10.0877 16.3861H13.3884C14.0356 16.3861 14.5603 16.9108 14.5603 17.558C14.5603 18.2052 14.0357 18.7298 13.3884 18.7298ZM13.3884 11.8711H10.0877C9.44047 11.8711 8.91578 11.3464 8.91578 10.6992C8.91578 10.052 9.44047 9.52734 10.0877 9.52734H13.3884C14.0356 9.52734 14.5603 10.052 14.5603 10.6992C14.5603 11.3464 14.0357 11.8711 13.3884 11.8711ZM37.9123 33.3607H34.6115C33.9643 33.3607 33.4396 32.836 33.4396 32.1888C33.4396 31.5416 33.9643 31.017 34.6115 31.017H37.9123C38.5595 31.017 39.0841 31.5416 39.0841 32.1888C39.0841 32.836 38.5595 33.3607 37.9123 33.3607ZM37.9123 26.5019H34.6115C33.9643 26.5019 33.4396 25.9772 33.4396 25.33C33.4396 24.6828 33.9643 24.1581 34.6115 24.1581H37.9123C38.5595 24.1581 39.0841 24.6828 39.0841 25.33C39.0841 25.9772 38.5595 26.5019 37.9123 26.5019Z" fill="#26B5B5"/>
<path d="M28.5234 38.8867V42.8268C28.5234 43.474 29.0481 43.9987 29.6953 43.9987H42.8278C43.475 43.9987 43.9997 43.474 43.9997 42.8268V38.8867H28.5234Z" fill="#26B5B5"/>
<path d="M4 24.2578V28.1979C4 28.8451 4.52469 29.3698 5.17188 29.3698H18.3043C18.9515 29.3698 19.4762 28.8451 19.4762 28.1979V24.2578H4Z" fill="#26B5B5"/>
</svg>
