<svg width="48" height="48" viewBox="0 0 48 48" fill="none" xmlns="http://www.w3.org/2000/svg">
<g clip-path="url(#clip0_4227_19746)">
<path d="M38.121 13.5H31.5V6.879L38.121 13.5ZM39 16.5V42H9V10.5C9 9.30653 9.47411 8.16193 10.318 7.31802C11.1619 6.47411 12.3065 6 13.5 6H28.5V16.5H39ZM16.5 30H27V27H16.5V30ZM31.5 33H16.5V36H31.5V33ZM31.5 21H16.5V24H31.5V21Z" fill="#26B5B5"/>
</g>
<g clip-path="url(#clip1_4227_19746)">
<g clip-path="url(#clip2_4227_19746)">
<path d="M38.121 13.5H31.5V6.879L38.121 13.5ZM39 16.5V42H9V10.5C9 9.30653 9.47411 8.16193 10.318 7.31802C11.1619 6.47411 12.3065 6 13.5 6H28.5V16.5H39ZM16.5 30H27V27H16.5V30ZM31.5 33H16.5V36H31.5V33ZM31.5 21H16.5V24H31.5V21Z" fill="#26B5B5"/>
</g>
</g>
<defs>
<clipPath id="clip0_4227_19746">
<rect width="36" height="36" fill="white" transform="translate(6 6)"/>
</clipPath>
<clipPath id="clip1_4227_19746">
<rect width="48" height="19" fill="white"/>
</clipPath>
<clipPath id="clip2_4227_19746">
<rect width="36" height="36" fill="white" transform="translate(6 6)"/>
</clipPath>
</defs>
</svg>
