<svg width="48" height="48" viewBox="0 0 48 48" fill="none" xmlns="http://www.w3.org/2000/svg">
<path d="M22.45 29.3H25.45L25.6 27.1C26 27.0333 26.375 26.8917 26.725 26.675C27.075 26.4583 27.3833 26.2167 27.65 25.95L29.75 26.65L31.15 24.25L29.65 23.05C29.8167 22.5833 29.9 22.1 29.9 21.6C29.9 21.1 29.8167 20.6167 29.65 20.15L31.15 18.95L29.75 16.55L27.65 17.25C27.3833 16.9833 27.0667 16.75 26.7 16.55C26.3333 16.35 25.9667 16.2 25.6 16.1L25.45 13.9H22.45L22.3 16.1C21.9333 16.2 21.5667 16.35 21.2 16.55C20.8333 16.75 20.5167 16.9833 20.25 17.25L18.15 16.55L16.75 18.95L18.25 20.15C18.0833 20.6167 18 21.1 18 21.6C18 22.1 18.0833 22.5833 18.25 23.05L16.75 24.25L18.15 26.65L20.25 25.95C20.5167 26.2167 20.825 26.4583 21.175 26.675C21.525 26.8917 21.9 27.0333 22.3 27.1L22.45 29.3ZM23.95 25.1C22.9833 25.1 22.1583 24.7583 21.475 24.075C20.7917 23.3917 20.45 22.5667 20.45 21.6C20.45 20.6333 20.7917 19.8083 21.475 19.125C22.1583 18.4417 22.9833 18.1 23.95 18.1C24.9167 18.1 25.7417 18.4417 26.425 19.125C27.1083 19.8083 27.45 20.6333 27.45 21.6C27.45 22.5667 27.1083 23.3917 26.425 24.075C25.7417 24.7583 24.9167 25.1 23.95 25.1ZM12 44V35.4C10.1 33.6667 8.625 31.6417 7.575 29.325C6.525 27.0083 6 24.5667 6 22C6 17 7.75 12.75 11.25 9.25C14.75 5.75 19 4 24 4C28.1667 4 31.8583 5.225 35.075 7.675C38.2917 10.125 40.3833 13.3167 41.35 17.25L44.1 28.15C44.2333 28.6167 44.15 29.0417 43.85 29.425C43.55 29.8083 43.15 30 42.65 30H38V37C38 37.8333 37.7083 38.5417 37.125 39.125C36.5417 39.7083 35.8333 40 35 40H30V44H12Z" fill="#26B5B5"/>
<g clip-path="url(#clip0_4227_18100)">
<path d="M22.45 29.3H25.45L25.6 27.1C26 27.0333 26.375 26.8917 26.725 26.675C27.075 26.4583 27.3833 26.2167 27.65 25.95L29.75 26.65L31.15 24.25L29.65 23.05C29.8167 22.5833 29.9 22.1 29.9 21.6C29.9 21.1 29.8167 20.6167 29.65 20.15L31.15 18.95L29.75 16.55L27.65 17.25C27.3833 16.9833 27.0667 16.75 26.7 16.55C26.3333 16.35 25.9667 16.2 25.6 16.1L25.45 13.9H22.45L22.3 16.1C21.9333 16.2 21.5667 16.35 21.2 16.55C20.8333 16.75 20.5167 16.9833 20.25 17.25L18.15 16.55L16.75 18.95L18.25 20.15C18.0833 20.6167 18 21.1 18 21.6C18 22.1 18.0833 22.5833 18.25 23.05L16.75 24.25L18.15 26.65L20.25 25.95C20.5167 26.2167 20.825 26.4583 21.175 26.675C21.525 26.8917 21.9 27.0333 22.3 27.1L22.45 29.3ZM23.95 25.1C22.9833 25.1 22.1583 24.7583 21.475 24.075C20.7917 23.3917 20.45 22.5667 20.45 21.6C20.45 20.6333 20.7917 19.8083 21.475 19.125C22.1583 18.4417 22.9833 18.1 23.95 18.1C24.9167 18.1 25.7417 18.4417 26.425 19.125C27.1083 19.8083 27.45 20.6333 27.45 21.6C27.45 22.5667 27.1083 23.3917 26.425 24.075C25.7417 24.7583 24.9167 25.1 23.95 25.1ZM12 44V35.4C10.1 33.6667 8.625 31.6417 7.575 29.325C6.525 27.0083 6 24.5667 6 22C6 17 7.75 12.75 11.25 9.25C14.75 5.75 19 4 24 4C28.1667 4 31.8583 5.225 35.075 7.675C38.2917 10.125 40.3833 13.3167 41.35 17.25L44.1 28.15C44.2333 28.6167 44.15 29.0417 43.85 29.425C43.55 29.8083 43.15 30 42.65 30H38V37C38 37.8333 37.7083 38.5417 37.125 39.125C36.5417 39.7083 35.8333 40 35 40H30V44H12Z" fill="#26B5B5"/>
</g>
<defs>
<clipPath id="clip0_4227_18100">
<rect width="48" height="13" fill="white"/>
</clipPath>
</defs>
</svg>
