<svg width="36" height="36" viewBox="0 0 36 36" fill="none" xmlns="http://www.w3.org/2000/svg">
<g clip-path="url(#clip0_4450_14481)">
<path d="M28.5907 10.125H23.625V5.15925L28.5907 10.125ZM29.25 12.375V31.5H6.75V7.875C6.75 6.97989 7.10558 6.12145 7.73851 5.48851C8.37145 4.85558 9.22989 4.5 10.125 4.5H21.375V12.375H29.25ZM12.375 22.5H20.25V20.25H12.375V22.5ZM23.625 24.75H12.375V27H23.625V24.75ZM23.625 15.75H12.375V18H23.625V15.75Z" fill="#26B5B5"/>
</g>
<g clip-path="url(#clip1_4450_14481)">
<g clip-path="url(#clip2_4450_14481)">
<path d="M28.5907 10.125H23.625V5.15925L28.5907 10.125ZM29.25 12.375V31.5H6.75V7.875C6.75 6.97989 7.10558 6.12145 7.73851 5.48851C8.37145 4.85558 9.22989 4.5 10.125 4.5H21.375V12.375H29.25ZM12.375 22.5H20.25V20.25H12.375V22.5ZM23.625 24.75H12.375V27H23.625V24.75ZM23.625 15.75H12.375V18H23.625V15.75Z" fill="#26B5B5"/>
</g>
</g>
<defs>
<clipPath id="clip0_4450_14481">
<rect width="27" height="27" fill="white" transform="translate(4.5 4.5)"/>
</clipPath>
<clipPath id="clip1_4450_14481">
<rect width="36" height="14.25" fill="white"/>
</clipPath>
<clipPath id="clip2_4450_14481">
<rect width="27" height="27" fill="white" transform="translate(4.5 4.5)"/>
</clipPath>
</defs>
</svg>
