<svg width="146" height="190" viewBox="0 0 146 190" fill="none" xmlns="http://www.w3.org/2000/svg">
<g clip-path="url(#clip0_4226_12511)">
<path d="M102.594 102.512L130.155 170.048L100.361 166.421L86.1942 184.298L84.9921 185.853L81.6435 189.998L54.168 122.548L102.594 102.512Z" fill="#003C4F"/>
<path d="M43.6942 102.512L16.1328 170.048L45.9266 166.421L60.0937 184.298L61.2958 185.853L64.6444 189.998L92.1199 122.548L43.6942 102.512Z" fill="#003C4F"/>
<path d="M145.524 114.777V48.6227C145.524 43.0955 142.604 38 137.796 35.2364L80.8702 2.07273C76.062 -0.690909 70.2234 -0.690909 65.4152 2.07273L8.48922 35.15C3.681 37.9136 0.761719 43.0091 0.761719 48.5364V114.691C0.761719 120.218 3.681 125.314 8.48922 128.077L65.501 161.155C70.3092 163.918 76.1478 163.918 80.956 161.155L137.968 128.077C142.604 125.4 145.524 120.305 145.524 114.777Z" fill="#E8F1F3"/>
<path d="M133.159 109.081V54.2397C133.159 49.6624 130.755 45.4306 126.805 43.0988L79.5816 15.7215C75.632 13.3897 70.7379 13.3897 66.7883 15.7215L19.5647 43.0988C15.615 45.4306 13.2109 49.6624 13.2109 54.2397V109.081C13.2109 113.658 15.615 117.89 19.5647 120.222L66.7883 147.599C70.7379 149.931 75.632 149.931 79.5816 147.599L126.805 120.222C130.669 117.89 133.159 113.658 133.159 109.081Z" fill="#AECBD3"/>
<path d="M126.113 105.97V57.4338C126.113 53.3747 123.966 49.6611 120.446 47.5884L78.7173 23.3202C75.197 21.2474 70.9039 21.2474 67.3836 23.3202L25.6551 47.5884C22.1348 49.6611 19.9883 53.3747 19.9883 57.4338V105.97C19.9883 110.029 22.1348 113.743 25.6551 115.816L67.3836 140.084C70.9039 142.157 75.197 142.157 78.7173 140.084L120.446 115.816C123.966 113.743 126.113 110.029 126.113 105.97Z" fill="white"/>
<rect x="19.9883" y="83.6914" width="106.31" height="22.619" fill="#8FFF00"/>
<path d="M45.6688 100.351C44.945 100.351 44.3433 100.247 43.8638 100.038C43.3933 99.8213 43.0179 99.5091 42.7374 99.102C42.4659 98.6948 42.2714 98.1927 42.1538 97.5956C42.0452 96.9984 41.9909 96.3153 41.9909 95.5463C41.9909 94.7591 42.0452 94.067 42.1538 93.4698C42.2714 92.8637 42.4705 92.357 42.7509 91.9498C43.0314 91.5337 43.4069 91.2215 43.8774 91.0134C44.3479 90.8053 44.9359 90.7013 45.6417 90.7013C46.0036 90.7013 46.3745 90.7194 46.7545 90.7556C47.1436 90.7917 47.5145 90.8415 47.8674 90.9048C48.2202 90.9591 48.5143 91.0134 48.7495 91.0677L48.7088 92.0448C48.4736 91.9996 48.1795 91.9589 47.8267 91.9227C47.4829 91.8775 47.13 91.8413 46.7681 91.8141C46.4152 91.787 46.0895 91.7734 45.7909 91.7734C45.2662 91.7734 44.8364 91.8503 44.5017 92.0041C44.1669 92.1489 43.9045 92.3796 43.7145 92.6963C43.5336 93.0039 43.4069 93.3929 43.3345 93.8634C43.2621 94.3339 43.2259 94.8948 43.2259 95.5463C43.2259 96.3967 43.2893 97.1025 43.4159 97.6634C43.5517 98.2153 43.8005 98.627 44.1624 98.8984C44.5333 99.1698 45.0671 99.3056 45.7638 99.3056C45.9629 99.3056 46.1709 99.2965 46.3881 99.2784C46.6143 99.2603 46.8359 99.2377 47.0531 99.2106C47.2702 99.1834 47.4467 99.1563 47.5824 99.1291V96.4148H46.1167V95.3834H48.7495V100.025C48.5957 100.052 48.3876 100.084 48.1252 100.12C47.8719 100.156 47.5959 100.192 47.2974 100.228C47.0079 100.265 46.7183 100.292 46.4288 100.31C46.1483 100.337 45.895 100.351 45.6688 100.351ZM53.2174 100.351C52.4574 100.351 51.8602 100.219 51.426 99.957C51.0007 99.6946 50.7021 99.301 50.5302 98.7763C50.3583 98.2425 50.2724 97.5639 50.2724 96.7406C50.2724 95.9625 50.3674 95.3201 50.5574 94.8134C50.7474 94.2977 51.0595 93.9177 51.4938 93.6734C51.9281 93.4201 52.5026 93.2934 53.2174 93.2934C53.9412 93.2934 54.5202 93.4201 54.9545 93.6734C55.3888 93.9177 55.701 94.2977 55.891 94.8134C56.081 95.3201 56.176 95.9625 56.176 96.7406C56.176 97.5639 56.0855 98.2425 55.9045 98.7763C55.7326 99.301 55.434 99.6946 55.0088 99.957C54.5836 100.219 53.9864 100.351 53.2174 100.351ZM53.2174 99.3598C53.724 99.3598 54.104 99.2739 54.3574 99.102C54.6107 98.921 54.7781 98.636 54.8595 98.247C54.941 97.8579 54.9817 97.3558 54.9817 96.7406C54.9817 96.1344 54.9274 95.6503 54.8188 95.2884C54.7193 94.9265 54.5429 94.6687 54.2895 94.5148C54.0362 94.361 53.6788 94.2841 53.2174 94.2841C52.765 94.2841 52.4076 94.361 52.1452 94.5148C51.8919 94.6687 51.711 94.9265 51.6024 95.2884C51.5029 95.6503 51.4531 96.1344 51.4531 96.7406C51.4531 97.3558 51.4938 97.8579 51.5752 98.247C51.6567 98.636 51.824 98.921 52.0774 99.102C52.3307 99.2739 52.7107 99.3598 53.2174 99.3598ZM60.4272 100.351C59.6672 100.351 59.0701 100.219 58.6358 99.957C58.2105 99.6946 57.912 99.301 57.7401 98.7763C57.5682 98.2425 57.4822 97.5639 57.4822 96.7406C57.4822 95.9625 57.5772 95.3201 57.7672 94.8134C57.9572 94.2977 58.2693 93.9177 58.7036 93.6734C59.1379 93.4201 59.7124 93.2934 60.4272 93.2934C61.151 93.2934 61.7301 93.4201 62.1643 93.6734C62.5986 93.9177 62.9108 94.2977 63.1008 94.8134C63.2908 95.3201 63.3858 95.9625 63.3858 96.7406C63.3858 97.5639 63.2953 98.2425 63.1143 98.7763C62.9424 99.301 62.6439 99.6946 62.2186 99.957C61.7934 100.219 61.1963 100.351 60.4272 100.351ZM60.4272 99.3598C60.9339 99.3598 61.3139 99.2739 61.5672 99.102C61.8205 98.921 61.9879 98.636 62.0693 98.247C62.1508 97.8579 62.1915 97.3558 62.1915 96.7406C62.1915 96.1344 62.1372 95.6503 62.0286 95.2884C61.9291 94.9265 61.7527 94.6687 61.4993 94.5148C61.246 94.361 60.8886 94.2841 60.4272 94.2841C59.9748 94.2841 59.6174 94.361 59.3551 94.5148C59.1017 94.6687 58.9208 94.9265 58.8122 95.2884C58.7127 95.6503 58.6629 96.1344 58.6629 96.7406C58.6629 97.3558 58.7036 97.8579 58.7851 98.247C58.8665 98.636 59.0339 98.921 59.2872 99.102C59.5405 99.2739 59.9205 99.3598 60.4272 99.3598ZM67.1485 100.351C66.868 100.351 66.6056 100.319 66.3613 100.256C66.117 100.201 65.8908 100.102 65.6827 99.957C65.4837 99.8032 65.3073 99.5951 65.1535 99.3327C64.9996 99.0703 64.882 98.7401 64.8006 98.342C64.7192 97.9348 64.6785 97.4463 64.6785 96.8763C64.6785 96.071 64.7735 95.406 64.9635 94.8813C65.1535 94.3475 65.4565 93.9494 65.8727 93.687C66.298 93.4246 66.8544 93.2934 67.542 93.2934C67.7954 93.2934 68.0804 93.3115 68.397 93.3477C68.7227 93.3839 68.9761 93.4201 69.157 93.4563V90.4977H70.3106V100.215H69.1706V99.7806C69.0258 99.8529 68.8404 99.9344 68.6142 100.025C68.388 100.115 68.1482 100.192 67.8949 100.256C67.6415 100.319 67.3927 100.351 67.1485 100.351ZM67.3249 99.3191C67.5511 99.3191 67.7773 99.2965 68.0035 99.2513C68.2387 99.197 68.4558 99.1337 68.6549 99.0613C68.8539 98.9889 69.0213 98.921 69.157 98.8577V94.4334C69.0485 94.4153 68.9037 94.3972 68.7227 94.3791C68.5418 94.352 68.3518 94.3339 68.1527 94.3248C67.9627 94.3067 67.7863 94.2977 67.6235 94.2977C67.1801 94.2977 66.8318 94.3927 66.5785 94.5827C66.3251 94.7727 66.1442 95.0622 66.0356 95.4513C65.927 95.8313 65.8727 96.3063 65.8727 96.8763C65.8727 97.392 65.9089 97.8127 65.9813 98.1384C66.0627 98.4551 66.1713 98.6994 66.307 98.8713C66.4427 99.0432 66.5965 99.1608 66.7685 99.2241C66.9494 99.2875 67.1349 99.3191 67.3249 99.3191ZM75.345 100.215V90.8506H81.0314V91.8956H76.5392V95.397H80.3121V96.442H76.5392V100.215H75.345ZM82.3392 100.215V93.4291H83.4792V100.215H82.3392ZM82.3392 91.9906V90.7284H83.4792V91.9906H82.3392ZM85.3742 100.215V93.4291H86.5142V94.3248C86.6861 94.2072 86.8988 94.0806 87.1521 93.9448C87.4145 93.8001 87.6995 93.6644 88.0071 93.5377C88.3147 93.411 88.6223 93.3251 88.93 93.2798V94.4334C88.6314 94.4967 88.3283 94.5782 88.0207 94.6777C87.7131 94.7772 87.4281 94.8858 87.1657 95.0034C86.9033 95.121 86.6861 95.2251 86.5142 95.3156V100.215H85.3742ZM90.0924 100.215V93.4291H91.2324V93.8906C91.4496 93.7639 91.7436 93.6327 92.1146 93.497C92.4855 93.3613 92.8384 93.2934 93.1732 93.2934C93.6255 93.2934 93.9874 93.3477 94.2589 93.4563C94.5303 93.5648 94.752 93.7367 94.9239 93.972C95.1048 93.8725 95.3265 93.7729 95.5889 93.6734C95.8512 93.5648 96.1317 93.4744 96.4303 93.402C96.7289 93.3296 97.0229 93.2934 97.3124 93.2934C97.9367 93.2934 98.4117 93.402 98.7374 93.6191C99.0722 93.8272 99.3029 94.1801 99.4296 94.6777C99.5653 95.1663 99.6332 95.8177 99.6332 96.632V100.215H98.4796V96.6863C98.4796 96.1163 98.4434 95.6594 98.371 95.3156C98.3077 94.9627 98.181 94.7094 97.991 94.5556C97.801 94.4017 97.5115 94.3248 97.1224 94.3248C96.7696 94.3248 96.4258 94.3791 96.091 94.4877C95.7562 94.5872 95.4984 94.6867 95.3174 94.7863C95.3717 95.0215 95.4079 95.311 95.426 95.6548C95.4532 95.9896 95.4667 96.3379 95.4667 96.6998V100.215H94.3267V96.7406C94.3267 96.1434 94.2951 95.6684 94.2317 95.3156C94.1684 94.9627 94.0372 94.7094 93.8382 94.5556C93.6482 94.4017 93.3541 94.3248 92.956 94.3248C92.6303 94.3248 92.3046 94.3791 91.9789 94.4877C91.6622 94.5872 91.4134 94.6867 91.2324 94.7863V100.215H90.0924ZM103.608 100.351C103.391 100.351 103.129 100.337 102.821 100.31C102.523 100.283 102.229 100.251 101.939 100.215C101.65 100.17 101.392 100.129 101.166 100.093L101.233 99.1156C101.46 99.1427 101.713 99.1744 101.993 99.2106C102.283 99.2467 102.563 99.2784 102.835 99.3056C103.106 99.3237 103.328 99.3327 103.5 99.3327C103.853 99.3327 104.147 99.301 104.382 99.2377C104.617 99.1744 104.794 99.0658 104.911 98.912C105.038 98.7582 105.101 98.5365 105.101 98.247C105.101 98.0298 105.052 97.8625 104.952 97.7448C104.862 97.6272 104.69 97.5277 104.436 97.4463C104.192 97.3648 103.83 97.2925 103.351 97.2291C102.844 97.1477 102.419 97.0437 102.075 96.917C101.74 96.7903 101.491 96.6048 101.328 96.3606C101.175 96.1163 101.098 95.7679 101.098 95.3156C101.098 94.7998 101.215 94.3972 101.451 94.1077C101.686 93.8091 101.993 93.601 102.373 93.4834C102.753 93.3567 103.152 93.2934 103.568 93.2934C103.83 93.2934 104.115 93.307 104.423 93.3341C104.73 93.3613 105.029 93.3975 105.318 93.4427C105.608 93.4789 105.857 93.5151 106.065 93.5513L106.038 94.5284C105.821 94.4922 105.563 94.4606 105.264 94.4334C104.975 94.3972 104.685 94.3701 104.396 94.352C104.106 94.3248 103.853 94.3113 103.636 94.3113C103.373 94.3113 103.138 94.3384 102.93 94.3927C102.722 94.447 102.554 94.5465 102.428 94.6913C102.31 94.827 102.251 95.017 102.251 95.2613C102.251 95.4513 102.297 95.6051 102.387 95.7227C102.477 95.8403 102.645 95.9398 102.889 96.0213C103.133 96.0937 103.491 96.1706 103.961 96.252C104.522 96.3425 104.97 96.4556 105.305 96.5913C105.649 96.727 105.897 96.9215 106.051 97.1748C106.205 97.4191 106.282 97.7629 106.282 98.2063C106.282 99.0115 106.042 99.5725 105.563 99.8891C105.092 100.197 104.441 100.351 103.608 100.351Z" fill="black"/>
<path d="M56.8608 124.114C56.517 124.114 56.146 124.087 55.7479 124.033C55.3498 123.987 54.9653 123.929 54.5943 123.856C54.2234 123.784 53.9067 123.721 53.6443 123.666L53.8072 122.282C54.0515 122.318 54.341 122.363 54.6758 122.418C55.0105 122.463 55.3543 122.499 55.7072 122.526C56.0601 122.553 56.3812 122.567 56.6708 122.567C57.1322 122.567 57.4986 122.449 57.7701 122.214C58.0415 121.97 58.1772 121.617 58.1772 121.156C58.1772 120.839 58.1184 120.59 58.0008 120.409C57.8922 120.228 57.7293 120.102 57.5122 120.029C57.3041 119.948 57.0598 119.907 56.7793 119.907C56.5622 119.907 56.3451 119.93 56.1279 119.975C55.9108 120.011 55.7072 120.061 55.5172 120.124C55.3272 120.178 55.1734 120.237 55.0558 120.301L53.8343 120.111L54.0515 115.008H59.6565V116.65H55.5172L55.3408 118.645C55.4674 118.591 55.6258 118.536 55.8158 118.482C56.0058 118.419 56.2093 118.364 56.4265 118.319C56.6527 118.274 56.8698 118.251 57.0779 118.251C57.7022 118.251 58.2315 118.337 58.6658 118.509C59.1001 118.681 59.4303 118.966 59.6565 119.364C59.8917 119.762 60.0093 120.305 60.0093 120.993C60.0093 121.707 59.8781 122.296 59.6158 122.757C59.3624 123.209 59.0005 123.549 58.5301 123.775C58.0686 124.001 57.5122 124.114 56.8608 124.114ZM61.2805 123.965V121.956H63.1669V123.965H61.2805ZM67.6345 124.114C67.0554 124.114 66.5533 124.037 66.128 123.883C65.7028 123.721 65.3499 123.463 65.0695 123.11C64.798 122.748 64.5899 122.277 64.4452 121.698C64.3095 121.119 64.2416 120.409 64.2416 119.568C64.2416 118.699 64.3095 117.962 64.4452 117.356C64.5899 116.749 64.8026 116.265 65.083 115.903C65.3635 115.532 65.7118 115.266 66.128 115.103C66.5533 114.94 67.0509 114.858 67.6209 114.858C68.209 114.858 68.7157 114.94 69.1409 115.103C69.5661 115.266 69.9145 115.532 70.1859 115.903C70.4664 116.265 70.6699 116.749 70.7966 117.356C70.9323 117.953 71.0002 118.69 71.0002 119.568C71.0002 120.681 70.878 121.572 70.6338 122.241C70.3985 122.902 70.0321 123.381 69.5345 123.68C69.0368 123.969 68.4035 124.114 67.6345 124.114ZM67.6345 122.54C67.8878 122.54 68.1049 122.499 68.2859 122.418C68.4759 122.327 68.6342 122.173 68.7609 121.956C68.8876 121.739 68.978 121.436 69.0323 121.047C69.0957 120.658 69.1273 120.165 69.1273 119.568C69.1273 118.934 69.0957 118.414 69.0323 118.007C68.978 117.6 68.8921 117.283 68.7745 117.057C68.6568 116.822 68.503 116.659 68.313 116.568C68.123 116.469 67.8968 116.419 67.6345 116.419C67.3721 116.419 67.1459 116.469 66.9559 116.568C66.7659 116.659 66.6076 116.817 66.4809 117.043C66.3633 117.27 66.2728 117.591 66.2095 118.007C66.1461 118.414 66.1145 118.939 66.1145 119.581C66.1145 120.178 66.1461 120.672 66.2095 121.061C66.2818 121.45 66.3814 121.753 66.508 121.97C66.6347 122.178 66.7885 122.327 66.9695 122.418C67.1595 122.499 67.3811 122.54 67.6345 122.54ZM73.4656 124.481L71.7556 124.033L75.6913 114.288L77.4013 114.736L73.4656 124.481ZM81.565 124.114C81.2212 124.114 80.8502 124.087 80.4521 124.033C80.0541 123.987 79.6695 123.929 79.2986 123.856C78.9276 123.784 78.611 123.721 78.3486 123.666L78.5114 122.282C78.7557 122.318 79.0452 122.363 79.38 122.418C79.7148 122.463 80.0586 122.499 80.4114 122.526C80.7643 122.553 81.0855 122.567 81.375 122.567C81.8364 122.567 82.2029 122.449 82.4743 122.214C82.7457 121.97 82.8814 121.617 82.8814 121.156C82.8814 120.839 82.8226 120.59 82.705 120.409C82.5964 120.228 82.4336 120.102 82.2164 120.029C82.0083 119.948 81.7641 119.907 81.4836 119.907C81.2664 119.907 81.0493 119.93 80.8321 119.975C80.615 120.011 80.4114 120.061 80.2214 120.124C80.0314 120.178 79.8776 120.237 79.76 120.301L78.5386 120.111L78.7557 115.008H84.3607V116.65H80.2214L80.045 118.645C80.1717 118.591 80.33 118.536 80.52 118.482C80.71 118.419 80.9136 118.364 81.1307 118.319C81.3569 118.274 81.5741 118.251 81.7821 118.251C82.4064 118.251 82.9357 118.337 83.37 118.509C83.8043 118.681 84.1345 118.966 84.3607 119.364C84.596 119.762 84.7136 120.305 84.7136 120.993C84.7136 121.707 84.5824 122.296 84.32 122.757C84.0667 123.209 83.7048 123.549 83.2343 123.775C82.7729 124.001 82.2164 124.114 81.565 124.114ZM85.9847 123.965V121.956H87.8712V123.965H85.9847ZM92.3387 124.114C91.7597 124.114 91.2575 124.037 90.8323 123.883C90.407 123.721 90.0542 123.463 89.7737 123.11C89.5023 122.748 89.2942 122.277 89.1494 121.698C89.0137 121.119 88.9458 120.409 88.9458 119.568C88.9458 118.699 89.0137 117.962 89.1494 117.356C89.2942 116.749 89.5068 116.265 89.7873 115.903C90.0678 115.532 90.4161 115.266 90.8323 115.103C91.2575 114.94 91.7551 114.858 92.3251 114.858C92.9132 114.858 93.4199 114.94 93.8451 115.103C94.2704 115.266 94.6187 115.532 94.8901 115.903C95.1706 116.265 95.3742 116.749 95.5008 117.356C95.6366 117.953 95.7044 118.69 95.7044 119.568C95.7044 120.681 95.5823 121.572 95.338 122.241C95.1028 122.902 94.7363 123.381 94.2387 123.68C93.7411 123.969 93.1078 124.114 92.3387 124.114ZM92.3387 122.54C92.592 122.54 92.8092 122.499 92.9901 122.418C93.1801 122.327 93.3385 122.173 93.4651 121.956C93.5918 121.739 93.6823 121.436 93.7366 121.047C93.7999 120.658 93.8316 120.165 93.8316 119.568C93.8316 118.934 93.7999 118.414 93.7366 118.007C93.6823 117.6 93.5963 117.283 93.4787 117.057C93.3611 116.822 93.2073 116.659 93.0173 116.568C92.8273 116.469 92.6011 116.419 92.3387 116.419C92.0763 116.419 91.8501 116.469 91.6601 116.568C91.4701 116.659 91.3118 116.817 91.1851 117.043C91.0675 117.27 90.977 117.591 90.9137 118.007C90.8504 118.414 90.8187 118.939 90.8187 119.581C90.8187 120.178 90.8504 120.672 90.9137 121.061C90.9861 121.45 91.0856 121.753 91.2123 121.97C91.3389 122.178 91.4928 122.327 91.6737 122.418C91.8637 122.499 92.0854 122.54 92.3387 122.54Z" fill="#000E23"/>
<g clip-path="url(#clip1_4226_12511)">
<path d="M35.4492 59.5717C35.4492 59.5717 34.7132 59.4999 34.7132 60.143V63H39.5735V63.8573C39.5735 63.8573 39.588 64.2857 39.1317 64.2857H34.7132V68H40.0153C40.0153 68 43.2257 67.514 43.2553 64.2857V59.5717H35.4492ZM43.1076 55H33.5348C30.0732 55.7998 30 58.5855 30 58.5855V68H33.6825V59.4287C33.6825 58.7 34.4184 58.5719 34.4184 58.5719H43.1082L43.1076 55ZM55.7456 65.3059C55.4931 65.4712 55.3063 65.5925 55.1744 65.6699C54.7022 65.9565 54.2522 66.1775 53.835 66.354C53.2309 66.5966 52.6925 66.718 52.2096 66.718C50.5514 66.718 49.1786 66.2215 48.0689 65.2174C46.9592 64.2133 46.4113 62.956 46.4113 61.4338C46.4113 59.9666 46.9056 58.6976 47.9048 57.6161C48.904 56.5352 50.1121 56.0053 51.5399 56.0053C52.1332 56.0053 52.7695 56.1044 53.4285 56.3149C54.285 56.5792 54.9768 56.9766 55.526 57.4948L54.5703 58.5317C54.1644 58.146 53.6374 57.8588 53.022 57.6823C52.5612 57.5499 52.0562 57.4842 51.4957 57.4842C50.4965 57.4842 49.6507 57.8804 48.981 58.6641C48.3113 59.4584 47.9711 60.3962 47.9711 61.4994C47.9711 62.592 48.3548 63.4853 49.1236 64.2028C49.8924 64.9196 50.8696 65.2836 52.0556 65.2836C52.5498 65.2836 53.0554 65.1289 53.5711 64.8317C53.9997 64.5117 54.2194 64.3569 54.2301 64.3458V62.0844H51.0236L51.4843 60.6723H55.7456V65.3059ZM65.4315 62.5474C65.4315 63.6394 65.0363 64.5884 64.2454 65.3827C63.4545 66.1769 62.4774 66.5855 61.3135 66.5855C60.2373 66.5855 59.293 66.188 58.48 65.405C57.667 64.6219 57.2719 63.6729 57.2719 62.5586C57.2719 61.4554 57.6569 60.5064 58.4251 59.6899C59.1933 58.8734 60.1382 58.4766 61.2472 58.4766C62.4774 58.4766 63.4766 58.8629 64.2562 59.646C65.0363 60.4074 65.4315 61.378 65.4315 62.5474ZM63.9267 62.5697C63.9267 61.8306 63.6742 61.2016 63.1692 60.694C62.6643 60.1752 62.0381 59.9214 61.2914 59.9214C60.5889 59.9214 59.9955 60.1864 59.5013 60.7163C59.0071 61.2456 58.7653 61.8522 58.7653 62.5363C58.7653 63.2538 59.0178 63.8604 59.512 64.368C60.0063 64.8757 60.6217 65.14 61.3678 65.14C62.0602 65.14 62.6529 64.8862 63.1585 64.3786C63.6742 63.871 63.9267 63.2643 63.9267 62.5697ZM74.9854 62.5474C74.9854 63.6394 74.5903 64.5884 73.7994 65.3827C73.0085 66.1769 72.0314 66.5855 70.8674 66.5855C69.7912 66.5855 68.8469 66.188 68.0339 65.405C67.2216 64.6219 66.8258 63.6729 66.8258 62.5586C66.8258 61.4554 67.2108 60.5064 67.979 59.6899C68.7478 58.8734 69.6921 58.4766 70.8011 58.4766C72.0314 58.4766 73.0306 58.8629 73.8101 59.646C74.5903 60.4074 74.9854 61.378 74.9854 62.5474ZM73.4806 62.5697C73.4806 61.8306 73.2281 61.2016 72.7232 60.694C72.2182 60.1752 71.592 59.9214 70.8453 59.9214C70.1428 59.9214 69.5495 60.1864 69.0552 60.7163C68.561 61.2456 68.3192 61.8522 68.3192 62.5363C68.3192 63.2538 68.5717 63.8604 69.0666 64.368C69.5602 64.8757 70.1756 65.14 70.9223 65.14C71.6141 65.14 72.2068 64.8862 72.7124 64.3786C73.2281 63.871 73.4806 63.2643 73.4806 62.5697ZM83.8261 66.3645L82.4425 66.5743V65.2613L82.1458 65.5919C81.8845 65.832 81.5884 66.0329 81.2672 66.188C80.7957 66.4013 80.2822 66.5106 79.763 66.5081C78.6868 66.5081 77.764 66.1218 77.0172 65.3381C76.2705 64.5544 75.8975 63.6283 75.8975 62.5474C75.8975 61.4331 76.2705 60.4736 77.0065 59.6788C77.7425 58.8839 78.6426 58.4871 79.7188 58.4871C80.3342 58.4871 80.872 58.5861 81.3221 58.7849C81.6408 58.9285 81.9154 59.116 82.1458 59.3482C82.2228 59.4472 82.2998 59.5574 82.3768 59.6565V56.2146L83.8475 56.0047L83.8261 66.3645ZM82.5302 62.6465C82.5302 61.8745 82.2664 61.2233 81.7286 60.694C81.1908 60.153 80.5861 59.8886 79.8949 59.8886C79.1261 59.8886 78.5113 60.1424 78.0392 60.65C77.5992 61.1348 77.3688 61.7309 77.3688 62.4261C77.3688 63.2092 77.5992 63.8598 78.0606 64.3674C78.5214 64.875 79.104 65.1289 79.8179 65.1289C80.5204 65.1289 81.1359 64.8973 81.685 64.4231C82.2449 63.9372 82.5302 63.3417 82.5302 62.6465ZM91.5899 57.6495H87.4719V60.3962H90.6671V61.8083H87.4719V66.354L85.8686 66.5855V56.2257H91.2711L91.5899 57.6495ZM94.8955 56.8435L93.9071 58.068L92.9628 56.8435L93.962 55.6302L94.8955 56.8435ZM94.5989 66.3645L93.1275 66.5632V58.8957L94.5989 58.6753V66.3645ZM101.243 58.5979L100.551 60.1641C100.46 60.1505 100.368 60.1433 100.277 60.1424C100.134 60.1424 99.9912 60.1536 99.848 60.1752C99.7047 60.1969 99.5513 60.2526 99.3872 60.33C99.0798 60.4625 98.8159 60.7491 98.5855 61.1793C98.3306 61.6676 98.1986 62.2087 98.2005 62.7573V66.354L96.7298 66.5855V58.8957L98.0913 58.653V60.2526C98.2668 59.9765 98.4536 59.701 98.6291 59.4144C98.8816 59.1272 99.1783 58.918 99.5077 58.796C99.6832 58.7304 100.002 58.6747 100.485 58.6307C100.946 58.5979 101.21 58.5756 101.243 58.5979ZM112.202 66.3645L110.731 66.5743V61.3118C110.731 60.8259 110.621 60.473 110.401 60.2526C110.181 60.0316 109.852 59.9214 109.423 59.9214C108.908 59.9214 108.512 60.1313 108.249 60.5504C108.073 60.837 107.974 61.1459 107.974 61.4548V66.3533L106.503 66.6183V61.3446C106.503 60.8816 106.393 60.5281 106.184 60.286C105.964 60.0428 105.679 59.9214 105.305 59.9214H105.163C104.646 59.9214 104.273 60.1313 104.042 60.5615C103.867 60.8816 103.779 61.2895 103.779 61.786V66.3533L102.253 66.6183V58.8957L103.625 58.6641V59.646C103.779 59.4138 103.932 59.2262 104.076 59.0944C104.471 58.7304 104.932 58.5533 105.448 58.5533C106.03 58.5533 106.458 58.6419 106.755 58.8294C107.007 58.9842 107.249 59.2925 107.491 59.7339C107.996 58.9508 108.709 58.5533 109.654 58.5533C110.554 58.5533 111.225 58.8294 111.663 59.3921C112.026 59.8552 112.202 60.5392 112.202 61.4331V66.3645ZM118.924 64.0369C118.924 64.7426 118.672 65.3276 118.167 65.7801C117.662 66.2431 117.024 66.4641 116.256 66.4641C115.674 66.4641 115.157 66.3317 114.685 66.0667C114.213 65.8024 113.862 65.504 113.631 65.1511L114.664 64.2467C114.74 64.3569 114.806 64.4448 114.872 64.511C115.257 64.8973 115.718 65.096 116.256 65.096C116.629 65.096 116.926 64.997 117.134 64.8094C117.354 64.6219 117.453 64.3569 117.453 64.0146C117.453 63.6289 117.2 63.364 116.695 63.2203C115.696 62.9226 115.157 62.7573 115.081 62.7239C114.619 62.4923 114.29 62.2497 114.081 61.9736C113.851 61.6535 113.73 61.2344 113.73 60.694C113.73 60.0316 113.983 59.4807 114.477 59.0393C114.971 58.5979 115.564 58.388 116.244 58.388C116.761 58.388 117.244 58.4982 117.683 58.7304C118.123 58.9619 118.441 59.2046 118.628 59.4918L117.749 60.429C117.617 60.2995 117.474 60.1814 117.321 60.0762C116.969 59.8335 116.629 59.7122 116.311 59.7122C116.003 59.7122 115.751 59.7784 115.553 59.9103C115.322 60.0762 115.201 60.3189 115.201 60.6389C115.201 60.9478 115.311 61.1793 115.542 61.323C115.74 61.4443 116.157 61.5768 116.816 61.7198C117.474 61.8745 117.98 62.1395 118.342 62.5146C118.749 62.9114 118.924 63.4079 118.924 64.0369Z" fill="#3A7AF3"/>
</g>
</g>
<defs>
<clipPath id="clip0_4226_12511">
<rect width="144.762" height="190" fill="white" transform="translate(0.761719)"/>
</clipPath>
<clipPath id="clip1_4226_12511">
<rect width="89" height="13" fill="white" transform="translate(30 55)"/>
</clipPath>
</defs>
</svg>
