<svg width="351" height="215" viewBox="0 0 351 215" fill="none" xmlns="http://www.w3.org/2000/svg">
<path d="M93.8214 204.936C93.3737 202.317 91.9017 196.177 88.1697 189.424C83.2312 180.607 77.3301 173.164 77.2068 172.946C77.2095 173.164 73.9332 180.185 78.0192 189.664C81.1024 197.055 88.6416 202.857 92.1377 205.178C93.4997 206.894 94.9528 208.594 96.5025 210.273C87.5289 207.052 79.3972 202.935 72.1128 198.081C70.9036 195.653 69.8285 193.222 68.8848 190.794C69.2601 188.221 69.7561 182.097 68.2896 174.867C66.3136 165.391 62.7692 156.922 62.7237 156.721C62.6674 156.911 57.694 162.844 58.8307 172.785C59.6377 180.505 64.7988 187.668 67.2868 190.644C68.0134 192.57 68.8177 194.498 69.7078 196.427C62.6137 191.412 56.3615 185.688 50.9564 179.419C50.5168 176.838 50.195 174.281 49.9805 171.756C51.0503 169.398 53.2139 163.696 53.7689 156.468C54.4552 146.901 53.1469 137.865 53.1737 137.806C53.2675 137.833 46.8383 142.329 45.3155 152.257C44.0956 159.823 47.0045 167.835 48.522 171.243C48.6722 173.244 48.8893 175.264 49.1762 177.3C43.9589 170.91 39.5887 163.999 36.0604 156.731C36.3151 154.164 36.6663 151.641 37.1087 149.173C38.7388 147.169 42.2725 142.233 44.6077 135.426C47.648 126.41 48.5167 117.369 48.5542 117.315C48.6346 117.361 41.3502 120.152 37.4733 129.343C34.4732 136.332 35.2481 144.701 35.8433 148.33C35.4759 150.282 35.1649 152.27 34.9129 154.287C31.575 146.944 29.0816 139.265 27.4354 131.419C28.3041 129.007 29.2532 126.665 30.272 124.393C32.3337 122.856 36.9398 118.951 40.8086 112.94C45.8812 104.965 48.8196 96.3917 48.8733 96.3488C48.9403 96.4105 41.2161 97.3506 35.3097 105.314C30.7734 111.358 29.5401 119.622 29.2505 123.27C28.4274 125.067 27.6472 126.907 26.918 128.789C25.4595 120.909 24.8455 112.883 25.0788 104.879C26.4863 102.755 27.9529 100.713 29.473 98.758C31.8324 97.7696 37.216 95.1025 42.3743 90.2033C49.1548 83.6846 54.0611 76.0323 54.1282 76.0028C54.1818 76.078 46.4388 75.1164 38.8219 81.4364C32.9933 86.2201 29.8725 93.9475 28.7411 97.4178C27.5239 98.9595 26.3389 100.558 25.1887 102.204C25.6096 94.2081 26.8778 86.255 28.9878 78.5115C30.8538 76.7844 32.7627 75.154 34.7038 73.615C37.2294 73.2282 43.0929 71.9417 49.2969 68.4097C57.4634 63.6958 64.2304 57.3893 64.3109 57.3758C64.3511 57.4618 57.0076 54.6415 48.0046 58.9713C41.1276 62.2347 36.2374 69.0194 34.3097 72.1297C32.76 73.3383 31.2291 74.6034 29.7224 75.9303C32.0227 68.2377 35.1703 60.7762 39.1597 53.7176C41.4092 52.4847 43.68 51.3513 45.9643 50.3172C48.5247 50.5536 54.5678 50.7201 61.5788 48.7647C70.8098 46.1271 79.3329 41.5718 79.4267 41.5798C79.4535 41.6738 72.9278 37.1319 62.8604 39.1974C55.1764 40.7338 48.64 46.1943 45.9589 48.7701C44.1358 49.5759 42.3234 50.4434 40.5244 51.3728C43.7042 46.0734 47.3719 41.0158 51.5275 36.2751C51.5919 36.2026 51.6562 36.1301 51.7206 36.0576C52.0503 35.6842 52.3828 35.3135 52.7179 34.9429C52.7742 34.8811 52.8305 34.8193 52.8895 34.7576C53.2407 34.3708 53.5973 33.9867 53.9539 33.6053C53.9566 33.6026 53.9566 33.6026 53.9592 33.5999C54.3534 33.1809 54.7528 32.7646 55.155 32.3483C56.0049 31.4727 56.8736 30.6105 57.761 29.7617C61.1204 28.0266 68.8794 23.8983 77.5661 18.6581C88.9821 11.5833 99.6581 4.39842 99.7385 4.3447C99.9021 4.32859 86.1535 4.36619 73.4908 12.1285C63.9382 17.949 58.8388 25.5743 56.9138 28.9344C56.0263 29.7859 55.1577 30.6481 54.3051 31.5237C54.3024 31.5237 54.3024 31.521 54.2997 31.521C50.002 35.9394 46.16 40.6747 42.7711 45.6544C42.8864 43.5594 43.0687 41.4402 43.3288 39.3049C45.109 35.7084 49.0877 27.5404 52.2139 19.2355C56.3132 8.12113 55.8333 0.0203478 55.7073 0.00154625C55.6349 -0.148866 44.0018 10.6969 41.0204 22.6306C38.7013 31.4915 40.7067 37.5214 41.8006 39.9763C41.5057 42.6676 41.3234 45.3267 41.251 47.9509C36.7977 54.8806 33.1997 62.2562 30.457 69.9084C30.0387 67.8725 29.6768 65.8016 29.3792 63.6985C30.1647 59.8361 31.8592 51.08 32.5509 42.4501C33.4008 30.9167 30.6339 23.3558 30.5213 23.3611C30.4355 23.2295 22.5666 36.208 22.8347 48.3081C22.95 57.3167 26.4113 62.6161 28.0842 64.7057C28.4864 67.3514 28.9851 69.9433 29.5722 72.4762C27.0199 80.1875 25.3227 88.154 24.4782 96.2064C23.5908 94.3451 22.7462 92.4353 21.9526 90.48C21.7864 86.5693 21.3172 77.7245 19.8158 69.2826C17.738 58.0204 13.1024 51.4587 13.0032 51.4909C12.904 51.3781 8.69742 65.6619 11.8906 77.2437C14.2017 85.8817 18.8211 90.155 20.9365 91.7666C21.958 94.2188 23.0572 96.5985 24.2262 98.9058C23.572 106.974 23.7758 115.11 24.8321 123.138C23.5345 121.546 22.2717 119.896 21.0437 118.193C19.9713 114.439 17.4565 105.978 14.0033 98.1886C9.31675 87.8155 3.22804 82.6263 3.14225 82.6773C3.02964 82.5887 2.37814 97.3721 8.17729 107.815C12.4402 115.62 17.9203 118.642 20.352 119.69C21.9151 121.822 23.5371 123.866 25.2101 125.822C26.4568 133.823 28.5588 141.701 31.5133 149.281C29.8698 148.042 28.2478 146.742 26.6499 145.378C24.7168 141.977 20.2743 134.344 15.1132 127.618C8.15048 118.68 1.02956 115.14 0.957173 115.209C0.831163 115.148 3.6302 129.646 11.7109 138.405C17.6844 144.964 23.7302 146.576 26.3415 147.006C28.3684 148.703 30.4355 150.304 32.5321 151.805C35.6797 159.318 39.6799 166.513 44.5353 173.22C42.6076 172.406 40.6879 171.525 38.7817 170.58C36.0309 167.719 29.784 161.33 23.1564 156.022C14.2365 148.99 6.49894 147.285 6.44264 147.368C6.30323 147.336 12.4482 160.792 22.4862 167.394C29.9288 172.355 36.2401 172.465 38.8997 172.251C41.3126 173.422 43.7444 174.485 46.1895 175.447C51.2353 182.044 57.1363 188.133 63.8926 193.545C61.7424 193.212 59.5868 192.811 57.4339 192.344C53.911 190.201 45.9777 185.447 38.1248 181.858C27.5668 177.136 19.6362 177.354 19.5933 177.448C19.4405 177.448 28.8269 189.126 40.5003 193.169C49.1682 196.231 55.4526 194.81 58.0264 193.956C60.7477 194.52 63.4663 194.976 66.1822 195.331C73.1289 200.59 80.9281 205.148 89.5826 208.838C87.2715 209.029 84.9471 209.155 82.6092 209.214C78.3597 207.957 68.858 205.202 60.0238 203.574C48.1547 201.492 40.444 203.63 40.4145 203.732C40.2482 203.77 52.7715 212.956 65.7586 214.111C75.4105 215.027 81.3705 212.115 83.7272 210.654C86.6763 210.552 89.6068 210.345 92.5103 210.039C94.7517 210.925 97.044 211.755 99.3953 212.524C99.5187 212.148 99.6393 211.771 99.7626 211.395C99.6849 211.371 99.6071 211.342 99.5294 211.318C97.4811 209.223 95.5775 207.093 93.8214 204.936Z" fill="url(#paint0_linear_4420_14716)"/>
<path d="M328.484 156.024C321.776 161.332 315.455 167.719 312.671 170.582C310.742 171.528 308.799 172.409 306.848 173.222C311.762 166.513 315.813 159.32 318.995 151.807C321.117 150.306 323.209 148.705 325.26 147.007C327.903 146.578 334.021 144.966 340.066 138.407C348.244 129.648 351.077 115.149 350.949 115.211C350.876 115.144 343.669 118.681 336.623 127.62C331.4 134.346 326.904 141.979 324.948 145.38C323.331 146.744 321.69 148.044 320.026 149.282C323.016 141.703 325.144 133.825 326.405 125.823C328.098 123.868 329.737 121.824 331.322 119.691C333.78 118.644 339.328 115.622 343.642 107.816C349.511 97.3733 348.852 82.5897 348.738 82.6784C348.651 82.6273 342.489 87.8166 337.752 98.1899C334.257 105.979 331.712 114.44 330.627 118.195C329.384 119.898 328.106 121.547 326.793 123.14C327.862 115.111 328.066 106.976 327.406 98.907C328.589 96.6024 329.702 94.2227 330.735 91.7677C332.879 90.1561 337.554 85.8854 339.89 77.2447C343.121 65.6628 338.864 51.3788 338.764 51.4916C338.664 51.462 333.972 58.0212 331.87 69.2835C330.35 77.7255 329.875 86.5704 329.707 90.4811C328.904 92.4365 328.049 94.3462 327.151 96.2076C326.297 88.1551 324.579 80.1885 321.996 72.4771C322.59 69.9442 323.095 67.3522 323.502 64.7066C325.192 62.6169 328.695 57.3175 328.815 48.3087C329.086 36.2057 321.123 23.2271 321.036 23.3614C320.922 23.3534 318.122 30.9171 318.982 42.4506C319.685 51.0833 321.399 59.8369 322.192 63.6993C321.888 65.8024 321.524 67.8733 321.101 69.9093C318.325 62.257 314.684 54.8813 310.177 47.9515C310.104 45.3273 309.92 42.6682 309.621 39.9768C310.725 37.5219 312.758 31.4892 310.411 22.6308C307.394 10.6971 295.618 -0.148868 295.548 0.00154627C295.42 0.0203481 294.935 8.12123 299.083 19.2358C302.249 27.5381 306.273 35.7088 308.075 39.3053C308.335 41.4407 308.522 43.5599 308.639 45.655C305.209 40.6725 301.324 35.9371 296.972 31.5214C296.969 31.5214 296.969 31.5241 296.967 31.5241C296.104 30.6485 295.225 29.7863 294.327 28.9348C292.379 25.5747 287.218 17.9465 277.551 12.1287C264.739 4.36893 250.826 4.32864 250.988 4.34476C251.07 4.39848 261.874 11.5834 273.427 18.6583C282.218 23.8959 290.07 28.027 293.469 29.7621C294.367 30.6109 295.247 31.4731 296.107 32.3487C296.514 32.7623 296.918 33.1786 297.317 33.6003C297.319 33.603 297.319 33.603 297.322 33.6057C297.686 33.9871 298.044 34.3712 298.399 34.758C298.456 34.8198 298.513 34.8815 298.573 34.9433C298.912 35.314 299.249 35.6847 299.582 36.058C299.647 36.1305 299.712 36.203 299.778 36.2756C303.983 41.0163 307.698 46.074 310.913 51.3734C309.089 50.4441 307.255 49.5738 305.413 48.7707C302.7 46.1949 296.085 40.7343 288.309 39.1979C278.123 37.1324 271.517 41.6744 271.544 41.5804C271.639 41.575 280.264 46.1304 289.606 48.7653C296.701 50.718 302.816 50.5542 305.408 50.3178C307.722 51.3519 310.017 52.4854 312.294 53.7183C316.334 60.7797 319.516 68.2386 321.844 75.9312C320.319 74.6044 318.773 73.3393 317.202 72.1306C315.251 69.0202 310.305 62.2382 303.343 58.972C294.232 54.6422 286.8 57.4625 286.841 57.3765C286.922 57.39 293.771 63.6966 302.035 68.4105C308.316 71.9426 314.247 73.2291 316.803 73.6159C318.767 75.1523 320.699 76.7854 322.588 78.5124C324.726 86.2534 326.006 94.2066 326.432 102.205C325.268 100.556 324.069 98.9607 322.837 97.419C321.692 93.9487 318.534 86.2212 312.636 81.4375C304.927 75.1174 297.092 76.079 297.146 76.0037C297.214 76.0333 302.179 83.6856 309.041 90.2045C314.261 95.1064 319.709 97.7735 322.097 98.7593C323.635 100.715 325.119 102.759 326.544 104.881C326.78 112.885 326.158 120.91 324.682 128.791C323.942 126.908 323.155 125.068 322.322 123.271C322.026 119.624 320.781 111.362 316.19 105.316C310.213 97.3518 302.396 96.4117 302.464 96.35C302.518 96.3929 305.492 104.967 310.625 112.941C314.54 118.952 319.202 122.858 321.288 124.394C322.319 126.667 323.28 129.011 324.159 131.421C322.493 139.266 319.969 146.946 316.591 154.289C316.336 152.272 316.022 150.284 315.65 148.332C316.25 144.703 317.034 136.333 314 129.344C310.077 120.153 302.705 117.362 302.787 117.317C302.827 117.37 303.706 126.411 306.78 135.428C309.144 142.232 312.717 147.171 314.369 149.175C314.817 151.643 315.172 154.165 315.43 156.733C311.862 164.001 307.437 170.912 302.157 177.302C302.447 175.266 302.667 173.247 302.819 171.246C304.358 167.837 307.299 159.825 306.064 152.258C304.523 142.331 298.017 137.835 298.112 137.808C298.136 137.867 296.815 146.905 297.509 156.47C298.074 163.698 300.261 169.398 301.343 171.759C301.129 174.283 300.8 176.84 300.356 179.422C294.886 185.691 288.561 191.417 281.379 196.429C282.277 194.501 283.094 192.572 283.827 190.646C286.344 187.67 291.567 180.504 292.384 172.787C293.534 162.847 288.501 156.913 288.444 156.723C288.396 156.924 284.809 165.396 282.812 174.869C281.33 182.1 281.83 188.224 282.209 190.797C281.252 193.225 280.166 195.656 278.943 198.084C271.571 202.937 263.344 207.055 254.261 210.275C255.826 208.597 257.297 206.896 258.678 205.18C262.218 202.859 269.848 197.058 272.966 189.666C277.098 180.187 273.785 173.166 273.788 172.948C273.663 173.166 267.691 180.609 262.693 189.427C258.919 196.182 257.427 202.32 256.974 204.938C255.197 207.095 253.27 209.228 251.189 211.32C251.11 211.347 251.032 211.374 250.953 211.398C250.967 211.438 250.98 211.479 250.994 211.516C251.105 211.852 251.216 212.188 251.328 212.524C253.707 211.755 256.027 210.923 258.295 210.039C261.234 210.345 264.199 210.552 267.186 210.654C269.574 212.115 275.605 215.027 285.37 214.111C298.513 212.956 311.187 203.767 311.018 203.732C310.989 203.63 303.185 201.492 291.174 203.574C282.234 205.199 272.618 207.957 268.318 209.214C265.952 209.155 263.599 209.029 261.261 208.838C270.019 205.148 277.912 200.587 284.942 195.331C287.687 194.976 290.441 194.519 293.195 193.955C295.803 194.81 302.163 196.23 310.932 193.168C322.745 189.126 332.247 177.447 332.089 177.447C332.046 177.353 324.018 177.136 313.336 181.858C305.389 185.446 297.36 190.2 293.795 192.344C291.616 192.811 289.438 193.211 287.259 193.544C294.096 188.132 300.068 182.043 305.174 175.446C307.649 174.485 310.11 173.419 312.551 172.25C315.243 172.465 321.633 172.358 329.162 167.394C339.32 160.792 345.539 147.335 345.398 147.367C345.341 147.287 337.513 148.995 328.484 156.024Z" fill="url(#paint1_linear_4420_14716)"/>
<g clip-path="url(#clip0_4420_14716)">
<path d="M208.146 107.91L237.158 179.001L205.796 175.183L190.884 194.001L189.618 195.637L186.094 200.001L157.172 129.001L208.146 107.91Z" fill="#003C4F"/>
<path d="M146.145 107.91L117.133 179.001L148.495 175.183L163.407 194.001L164.673 195.637L168.198 200.001L197.119 129.001L146.145 107.91Z" fill="#003C4F"/>
<path d="M253.334 120.818V51.1818C253.334 45.3636 250.261 40 245.2 37.0909L185.278 2.18182C180.217 -0.727273 174.071 -0.727273 169.009 2.18182L109.087 37C104.026 39.9091 100.953 45.2727 100.953 51.0909V120.727C100.953 126.545 104.026 131.909 109.087 134.818L169.1 169.636C174.161 172.545 180.307 172.545 185.368 169.636L245.381 134.818C250.261 132 253.334 126.636 253.334 120.818Z" fill="#E8F1F3"/>
<path d="M240.32 114.821V57.0934C240.32 52.2752 237.789 47.8207 233.632 45.3661L183.922 16.5479C179.765 14.0934 174.613 14.0934 170.456 16.5479L120.747 45.3661C116.589 47.8207 114.059 52.2752 114.059 57.0934V114.821C114.059 119.639 116.589 124.093 120.747 126.548L170.456 155.366C174.613 157.821 179.765 157.821 183.922 155.366L233.632 126.548C237.699 124.093 240.32 119.639 240.32 114.821Z" fill="#AECBD3"/>
<path d="M232.901 111.547V60.4556C232.901 56.1829 230.642 52.2738 226.936 50.092L183.011 24.5465C179.306 22.3647 174.787 22.3647 171.081 24.5465L127.156 50.092C123.451 52.2738 121.191 56.1829 121.191 60.4556V111.547C121.191 115.819 123.451 119.728 127.156 121.91L171.081 147.456C174.787 149.637 179.306 149.637 183.011 147.456L226.936 121.91C230.642 119.728 232.901 115.819 232.901 111.547Z" fill="white"/>
<rect x="120" y="86" width="113" height="22" fill="#1AE3E3"/>
<mask id="mask0_4420_14716" style="mask-type:luminance" maskUnits="userSpaceOnUse" x="158" y="38" width="38" height="38">
<path d="M194.76 53.5455H177.029V60.8864H187.235C186.284 65.55 182.305 68.2273 177.029 68.2273C170.801 68.2273 165.785 63.2182 165.785 57C165.785 50.7818 170.801 45.7727 177.029 45.7727C179.71 45.7727 182.132 46.7227 184.035 48.2773L189.571 42.75C186.197 39.8136 181.873 38 177.029 38C166.477 38 158 46.4636 158 57C158 67.5364 166.477 76 177.029 76C186.543 76 195.193 69.0909 195.193 57C195.193 55.8773 195.02 54.6682 194.76 53.5455Z" fill="white"/>
</mask>
<g mask="url(#mask0_4420_14716)">
<path d="M156.27 68.228V45.7734L170.974 57.0007L156.27 68.228Z" fill="#FBBC05"/>
</g>
<mask id="mask1_4420_14716" style="mask-type:luminance" maskUnits="userSpaceOnUse" x="158" y="38" width="38" height="38">
<path d="M194.76 53.5455H177.029V60.8864H187.235C186.284 65.55 182.305 68.2273 177.029 68.2273C170.801 68.2273 165.785 63.2182 165.785 57C165.785 50.7818 170.801 45.7727 177.029 45.7727C179.71 45.7727 182.132 46.7227 184.035 48.2773L189.571 42.75C186.197 39.8136 181.873 38 177.029 38C166.477 38 158 46.4636 158 57C158 67.5364 166.477 76 177.029 76C186.543 76 195.193 69.0909 195.193 57C195.193 55.8773 195.02 54.6682 194.76 53.5455Z" fill="white"/>
</mask>
<g mask="url(#mask1_4420_14716)">
<path d="M156.27 45.7734L170.974 57.0007L177.028 51.7325L197.787 48.3643V36.2734H156.27V45.7734Z" fill="#EA4335"/>
</g>
<mask id="mask2_4420_14716" style="mask-type:luminance" maskUnits="userSpaceOnUse" x="158" y="38" width="38" height="38">
<path d="M194.76 53.5455H177.029V60.8864H187.235C186.284 65.55 182.305 68.2273 177.029 68.2273C170.801 68.2273 165.785 63.2182 165.785 57C165.785 50.7818 170.801 45.7727 177.029 45.7727C179.71 45.7727 182.132 46.7227 184.035 48.2773L189.571 42.75C186.197 39.8136 181.873 38 177.029 38C166.477 38 158 46.4636 158 57C158 67.5364 166.477 76 177.029 76C186.543 76 195.193 69.0909 195.193 57C195.193 55.8773 195.02 54.6682 194.76 53.5455Z" fill="white"/>
</mask>
<g mask="url(#mask2_4420_14716)">
<path d="M156.27 68.228L182.218 48.3643L189.051 49.228L197.787 36.2734V77.728H156.27V68.228Z" fill="#34A853"/>
</g>
<mask id="mask3_4420_14716" style="mask-type:luminance" maskUnits="userSpaceOnUse" x="158" y="38" width="38" height="38">
<path d="M194.76 53.5455H177.029V60.8864H187.235C186.284 65.55 182.305 68.2273 177.029 68.2273C170.801 68.2273 165.785 63.2182 165.785 57C165.785 50.7818 170.801 45.7727 177.029 45.7727C179.71 45.7727 182.132 46.7227 184.035 48.2773L189.571 42.75C186.197 39.8136 181.873 38 177.029 38C166.477 38 158 46.4636 158 57C158 67.5364 166.477 76 177.029 76C186.543 76 195.193 69.0909 195.193 57C195.193 55.8773 195.02 54.6682 194.76 53.5455Z" fill="white"/>
</mask>
<g mask="url(#mask3_4420_14716)">
<path d="M197.789 77.728L170.975 57.0007L167.516 54.4098L197.789 45.7734V77.728Z" fill="#4285F4"/>
</g>
<path d="M160.932 127.859V126.288H156.646V124.859L158.789 118.431H160.989L158.603 124.645H160.932L161.046 122.217L162.875 122.188V124.645H163.746V126.288H162.875V127.859H160.932ZM164.87 127.859V125.745H166.856V127.859H164.87ZM171.43 128.017L169.544 127.559L172.63 120.588V120.217H168.53V118.431H174.63V120.559L171.43 128.017ZM177.697 128.402L175.897 127.931L180.039 117.674L181.839 118.145L177.697 128.402ZM186.222 128.017C185.86 128.017 185.47 127.988 185.051 127.931C184.632 127.883 184.227 127.821 183.836 127.745C183.446 127.669 183.113 127.602 182.836 127.545L183.008 126.088C183.265 126.126 183.57 126.174 183.922 126.231C184.275 126.278 184.636 126.317 185.008 126.345C185.379 126.374 185.717 126.388 186.022 126.388C186.508 126.388 186.894 126.264 187.179 126.017C187.465 125.759 187.608 125.388 187.608 124.902C187.608 124.569 187.546 124.307 187.422 124.117C187.308 123.926 187.136 123.793 186.908 123.717C186.689 123.631 186.432 123.588 186.136 123.588C185.908 123.588 185.679 123.612 185.451 123.659C185.222 123.697 185.008 123.75 184.808 123.817C184.608 123.874 184.446 123.936 184.322 124.002L183.036 123.802L183.265 118.431H189.165V120.159H184.808L184.622 122.259C184.756 122.202 184.922 122.145 185.122 122.088C185.322 122.021 185.536 121.964 185.765 121.917C186.003 121.869 186.232 121.845 186.451 121.845C187.108 121.845 187.665 121.936 188.122 122.117C188.579 122.297 188.927 122.597 189.165 123.017C189.413 123.436 189.536 124.007 189.536 124.731C189.536 125.483 189.398 126.102 189.122 126.588C188.856 127.064 188.475 127.421 187.979 127.659C187.494 127.897 186.908 128.017 186.222 128.017ZM190.875 127.859V125.745H192.86V127.859H190.875ZM197.563 128.017C196.953 128.017 196.425 127.936 195.977 127.774C195.53 127.602 195.158 127.331 194.863 126.959C194.577 126.578 194.358 126.083 194.206 125.474C194.063 124.864 193.992 124.117 193.992 123.231C193.992 122.317 194.063 121.54 194.206 120.902C194.358 120.264 194.582 119.755 194.877 119.374C195.172 118.983 195.539 118.702 195.977 118.531C196.425 118.359 196.949 118.274 197.549 118.274C198.168 118.274 198.701 118.359 199.149 118.531C199.596 118.702 199.963 118.983 200.249 119.374C200.544 119.755 200.758 120.264 200.892 120.902C201.034 121.531 201.106 122.307 201.106 123.231C201.106 124.402 200.977 125.34 200.72 126.045C200.472 126.74 200.087 127.245 199.563 127.559C199.039 127.864 198.372 128.017 197.563 128.017ZM197.563 126.359C197.83 126.359 198.058 126.317 198.249 126.231C198.449 126.136 198.615 125.974 198.749 125.745C198.882 125.517 198.977 125.197 199.034 124.788C199.101 124.378 199.134 123.859 199.134 123.231C199.134 122.564 199.101 122.017 199.034 121.588C198.977 121.159 198.887 120.826 198.763 120.588C198.639 120.34 198.477 120.169 198.277 120.074C198.077 119.969 197.839 119.917 197.563 119.917C197.287 119.917 197.049 119.969 196.849 120.074C196.649 120.169 196.482 120.336 196.349 120.574C196.225 120.812 196.13 121.15 196.063 121.588C195.996 122.017 195.963 122.569 195.963 123.245C195.963 123.874 195.996 124.393 196.063 124.802C196.139 125.212 196.244 125.531 196.377 125.759C196.511 125.978 196.672 126.136 196.863 126.231C197.063 126.317 197.296 126.359 197.563 126.359Z" fill="#000E23"/>
<path d="M160.758 101.143C159.996 101.143 159.363 101.033 158.858 100.814C158.363 100.586 157.968 100.257 157.673 99.8286C157.387 99.4 157.182 98.8714 157.058 98.2429C156.944 97.6143 156.887 96.8952 156.887 96.0857C156.887 95.2571 156.944 94.5286 157.058 93.9C157.182 93.2619 157.392 92.7286 157.687 92.3C157.982 91.8619 158.377 91.5333 158.873 91.3143C159.368 91.0952 159.987 90.9857 160.73 90.9857C161.111 90.9857 161.501 91.0048 161.901 91.0429C162.311 91.081 162.701 91.1333 163.073 91.2C163.444 91.2571 163.754 91.3143 164.001 91.3714L163.958 92.4C163.711 92.3524 163.401 92.3095 163.03 92.2714C162.668 92.2238 162.296 92.1857 161.916 92.1571C161.544 92.1286 161.201 92.1143 160.887 92.1143C160.335 92.1143 159.882 92.1952 159.53 92.3571C159.177 92.5095 158.901 92.7524 158.701 93.0857C158.511 93.4095 158.377 93.819 158.301 94.3143C158.225 94.8095 158.187 95.4 158.187 96.0857C158.187 96.981 158.254 97.7238 158.387 98.3143C158.53 98.8952 158.792 99.3286 159.173 99.6143C159.563 99.9 160.125 100.043 160.858 100.043C161.068 100.043 161.287 100.033 161.516 100.014C161.754 99.9952 161.987 99.9714 162.216 99.9429C162.444 99.9143 162.63 99.8857 162.773 99.8571V97H161.23V95.9143H164.001V100.8C163.839 100.829 163.62 100.862 163.344 100.9C163.077 100.938 162.787 100.976 162.473 101.014C162.168 101.052 161.863 101.081 161.558 101.1C161.263 101.129 160.996 101.143 160.758 101.143ZM168.704 101.143C167.904 101.143 167.276 101.005 166.819 100.729C166.371 100.452 166.057 100.038 165.876 99.4857C165.695 98.9238 165.604 98.2095 165.604 97.3429C165.604 96.5238 165.704 95.8476 165.904 95.3143C166.104 94.7714 166.433 94.3714 166.89 94.1143C167.347 93.8476 167.952 93.7143 168.704 93.7143C169.466 93.7143 170.076 93.8476 170.533 94.1143C170.99 94.3714 171.319 94.7714 171.519 95.3143C171.719 95.8476 171.819 96.5238 171.819 97.3429C171.819 98.2095 171.723 98.9238 171.533 99.4857C171.352 100.038 171.038 100.452 170.59 100.729C170.142 101.005 169.514 101.143 168.704 101.143ZM168.704 100.1C169.238 100.1 169.638 100.01 169.904 99.8286C170.171 99.6381 170.347 99.3381 170.433 98.9286C170.519 98.519 170.561 97.9905 170.561 97.3429C170.561 96.7048 170.504 96.1952 170.39 95.8143C170.285 95.4333 170.099 95.1619 169.833 95C169.566 94.8381 169.19 94.7571 168.704 94.7571C168.228 94.7571 167.852 94.8381 167.576 95C167.309 95.1619 167.119 95.4333 167.004 95.8143C166.899 96.1952 166.847 96.7048 166.847 97.3429C166.847 97.9905 166.89 98.519 166.976 98.9286C167.061 99.3381 167.238 99.6381 167.504 99.8286C167.771 100.01 168.171 100.1 168.704 100.1ZM176.294 101.143C175.494 101.143 174.865 101.005 174.408 100.729C173.96 100.452 173.646 100.038 173.465 99.4857C173.284 98.9238 173.194 98.2095 173.194 97.3429C173.194 96.5238 173.294 95.8476 173.494 95.3143C173.694 94.7714 174.022 94.3714 174.479 94.1143C174.936 93.8476 175.541 93.7143 176.294 93.7143C177.055 93.7143 177.665 93.8476 178.122 94.1143C178.579 94.3714 178.908 94.7714 179.108 95.3143C179.308 95.8476 179.408 96.5238 179.408 97.3429C179.408 98.2095 179.313 98.9238 179.122 99.4857C178.941 100.038 178.627 100.452 178.179 100.729C177.732 101.005 177.103 101.143 176.294 101.143ZM176.294 100.1C176.827 100.1 177.227 100.01 177.494 99.8286C177.76 99.6381 177.936 99.3381 178.022 98.9286C178.108 98.519 178.151 97.9905 178.151 97.3429C178.151 96.7048 178.094 96.1952 177.979 95.8143C177.874 95.4333 177.689 95.1619 177.422 95C177.155 94.8381 176.779 94.7571 176.294 94.7571C175.817 94.7571 175.441 94.8381 175.165 95C174.898 95.1619 174.708 95.4333 174.594 95.8143C174.489 96.1952 174.436 96.7048 174.436 97.3429C174.436 97.9905 174.479 98.519 174.565 98.9286C174.651 99.3381 174.827 99.6381 175.094 99.8286C175.36 100.01 175.76 100.1 176.294 100.1ZM183.897 104.343C183.154 104.343 182.554 104.281 182.097 104.157C181.64 104.033 181.302 103.814 181.083 103.5C180.873 103.186 180.769 102.757 180.769 102.214C180.769 101.938 180.811 101.7 180.897 101.5C180.983 101.31 181.107 101.133 181.269 100.971C181.43 100.8 181.635 100.624 181.883 100.443C181.759 100.348 181.659 100.214 181.583 100.043C181.516 99.8619 181.483 99.6619 181.483 99.4429C181.483 99.3381 181.54 99.1714 181.654 98.9429C181.769 98.7048 181.878 98.4952 181.983 98.3143C181.783 98.219 181.597 98.0905 181.426 97.9286C181.264 97.7571 181.13 97.5286 181.026 97.2429C180.921 96.9571 180.869 96.5952 180.869 96.1571C180.869 95.281 181.116 94.6571 181.611 94.2857C182.116 93.9048 182.773 93.7143 183.583 93.7143C183.84 93.7143 184.111 93.7333 184.397 93.7714C184.683 93.8095 184.907 93.8476 185.069 93.8857L187.226 93.8429V94.8286L185.911 94.8C186.045 94.9333 186.154 95.1095 186.24 95.3286C186.326 95.5381 186.369 95.8143 186.369 96.1571C186.369 96.7857 186.264 97.2762 186.054 97.6286C185.845 97.981 185.53 98.2286 185.111 98.3714C184.702 98.5143 184.183 98.5857 183.554 98.5857C183.488 98.5857 183.373 98.581 183.211 98.5714C183.059 98.5524 182.945 98.5381 182.869 98.5286C182.821 98.6524 182.769 98.8 182.711 98.9714C182.654 99.1333 182.626 99.2429 182.626 99.3C182.626 99.481 182.659 99.619 182.726 99.7143C182.792 99.8 182.949 99.8571 183.197 99.8857C183.445 99.9143 183.83 99.9286 184.354 99.9286C185.03 99.9286 185.573 99.9857 185.983 100.1C186.392 100.214 186.683 100.424 186.854 100.729C187.035 101.024 187.126 101.457 187.126 102.029C187.126 102.848 186.84 103.438 186.269 103.8C185.707 104.162 184.916 104.343 183.897 104.343ZM183.897 103.343C184.592 103.343 185.102 103.243 185.426 103.043C185.749 102.852 185.911 102.538 185.911 102.1C185.911 101.767 185.854 101.519 185.74 101.357C185.635 101.205 185.459 101.1 185.211 101.043C184.964 100.995 184.63 100.971 184.211 100.971C184.116 100.971 183.992 100.971 183.84 100.971C183.697 100.962 183.545 100.957 183.383 100.957C183.23 100.948 183.088 100.938 182.954 100.929C182.83 100.919 182.745 100.914 182.697 100.914C182.411 101.114 182.216 101.295 182.111 101.457C182.007 101.619 181.954 101.833 181.954 102.1C181.954 102.395 182.007 102.633 182.111 102.814C182.226 102.995 182.426 103.129 182.711 103.214C182.997 103.3 183.392 103.343 183.897 103.343ZM183.583 97.6286C184.154 97.6286 184.559 97.519 184.797 97.3C185.035 97.0714 185.154 96.6905 185.154 96.1571C185.154 95.6238 185.035 95.2429 184.797 95.0143C184.559 94.7857 184.154 94.6714 183.583 94.6714C183.049 94.6714 182.664 94.7857 182.426 95.0143C182.197 95.2429 182.083 95.6238 182.083 96.1571C182.083 96.6905 182.197 97.0714 182.426 97.3C182.664 97.519 183.049 97.6286 183.583 97.6286ZM188.549 101V90.7714H189.763V101H188.549ZM194.411 101.143C193.687 101.143 193.115 101.005 192.696 100.729C192.277 100.452 191.973 100.043 191.782 99.5C191.601 98.9571 191.511 98.281 191.511 97.4714C191.511 96.5762 191.635 95.8524 191.882 95.3C192.13 94.7476 192.477 94.3476 192.925 94.1C193.382 93.8429 193.925 93.7143 194.554 93.7143C195.525 93.7143 196.254 93.981 196.739 94.5143C197.235 95.0381 197.482 95.881 197.482 97.0429L197.425 97.9286H192.754C192.763 98.6333 192.896 99.1714 193.154 99.5429C193.411 99.9048 193.877 100.086 194.554 100.086C194.82 100.086 195.115 100.081 195.439 100.071C195.763 100.052 196.082 100.033 196.396 100.014C196.72 99.9952 196.992 99.9762 197.211 99.9571L197.239 100.9C197.011 100.938 196.73 100.976 196.396 101.014C196.063 101.052 195.72 101.081 195.368 101.1C195.025 101.129 194.706 101.143 194.411 101.143ZM192.754 96.9714H196.254C196.254 96.1333 196.12 95.5476 195.854 95.2143C195.587 94.8714 195.154 94.7 194.554 94.7C193.973 94.7 193.525 94.8762 193.211 95.2286C192.906 95.581 192.754 96.1619 192.754 96.9714Z" fill="black"/>
</g>
<defs>
<linearGradient id="paint0_linear_4420_14716" x1="50.3579" y1="0" x2="50.3579" y2="214.286" gradientUnits="userSpaceOnUse">
<stop stop-color="#AECBD3"/>
<stop offset="1" stop-color="#AECBD3" stop-opacity="0"/>
</linearGradient>
<linearGradient id="paint1_linear_4420_14716" x1="300.953" y1="0" x2="300.953" y2="214.286" gradientUnits="userSpaceOnUse">
<stop stop-color="#AECBD3"/>
<stop offset="1" stop-color="#AECBD3" stop-opacity="0"/>
</linearGradient>
<clipPath id="clip0_4420_14716">
<rect width="152.381" height="200" fill="white" transform="translate(100.953)"/>
</clipPath>
</defs>
</svg>
