<svg width="115" height="150" viewBox="0 0 115 150" fill="none" xmlns="http://www.w3.org/2000/svg">
<g clip-path="url(#clip0_4226_12549)">
<path d="M80.723 80.9297L102.482 134.248L78.9606 131.384L67.776 145.498L66.827 146.725L64.1834 149.998L42.4922 96.7479L80.723 80.9297Z" fill="#003C4F"/>
<path d="M34.2239 80.9297L12.4648 134.248L35.9863 131.384L47.1708 145.498L48.1198 146.725L50.7634 149.998L72.4547 96.7479L34.2239 80.9297Z" fill="#003C4F"/>
<path d="M114.618 90.6136V38.3864C114.618 34.0227 112.313 30 108.517 27.8182L63.5756 1.63636C59.7796 -0.545455 55.1702 -0.545455 51.3742 1.63636L6.43269 27.75C2.63673 29.9318 0.332031 33.9545 0.332031 38.3182V90.5455C0.332031 94.9091 2.63673 98.9318 6.43269 101.114L51.442 127.227C55.238 129.409 59.8474 129.409 63.6433 127.227L108.653 101.114C112.313 99 114.618 94.9773 114.618 90.6136Z" fill="#E8F1F3"/>
<path d="M104.856 86.1165V42.821C104.856 39.2074 102.958 35.8665 99.8399 34.0256L62.5581 12.4119C59.4399 10.571 55.5762 10.571 52.4581 12.4119L15.1763 34.0256C12.0581 35.8665 10.1602 39.2074 10.1602 42.821V86.1165C10.1602 89.7301 12.0581 93.071 15.1763 94.9119L52.4581 116.526C55.5762 118.366 59.4399 118.366 62.5581 116.526L99.8399 94.9119C102.89 93.071 104.856 89.7301 104.856 86.1165Z" fill="#AECBD3"/>
<path d="M99.2941 83.6609V45.3427C99.2941 42.1381 97.5995 39.2063 94.8203 37.57L61.8767 18.4109C59.0975 16.7745 55.7083 16.7745 52.9291 18.4109L19.9855 37.57C17.2063 39.2063 15.5117 42.1381 15.5117 45.3427V83.6609C15.5117 86.8654 17.2063 89.7972 19.9855 91.4336L52.9291 110.593C55.7083 112.229 59.0975 112.229 61.8767 110.593L94.8203 91.4336C97.5995 89.7972 99.2941 86.8654 99.2941 83.6609Z" fill="white"/>
<rect x="15.5117" y="66.0742" width="83.9286" height="17.8571" fill="#FFB800"/>
<path d="M51.0862 78.7517C50.9291 78.7517 50.7362 78.7445 50.5077 78.7302C50.2862 78.7231 50.0612 78.7088 49.8327 78.6874C49.6041 78.666 49.4041 78.6481 49.2327 78.6338V70.9731H50.1434V73.5338C50.3148 73.4552 50.5434 73.3767 50.8291 73.2981C51.1219 73.2195 51.4005 73.1802 51.6648 73.1802C52.1577 73.1802 52.5469 73.2731 52.8327 73.4588C53.1255 73.6374 53.3327 73.9267 53.4541 74.3267C53.5827 74.7267 53.6469 75.2445 53.6469 75.8802C53.6469 76.5945 53.5684 77.1624 53.4112 77.5838C53.2612 77.9981 53.0005 78.2981 52.6291 78.4838C52.2577 78.6624 51.7434 78.7517 51.0862 78.7517ZM51.0755 77.9374C51.5469 77.9374 51.8969 77.866 52.1255 77.7231C52.3541 77.5802 52.5077 77.3588 52.5862 77.0588C52.6648 76.7517 52.7041 76.3588 52.7041 75.8802C52.7041 75.4374 52.6684 75.0767 52.5969 74.7981C52.5327 74.5195 52.4148 74.316 52.2434 74.1874C52.0719 74.0517 51.8398 73.9838 51.5469 73.9838C51.2969 73.9838 51.0398 74.0195 50.7755 74.091C50.5184 74.1552 50.3077 74.216 50.1434 74.2731V77.8838C50.2934 77.8981 50.4612 77.9124 50.6469 77.9267C50.8398 77.9338 50.9827 77.9374 51.0755 77.9374ZM54.9144 78.6445V73.2874H55.8144V78.6445H54.9144ZM54.9144 72.1517V71.1552H55.8144V72.1517H54.9144ZM57.3105 78.6445V73.2874H58.2105V73.6517C58.3319 73.5802 58.4819 73.5088 58.6605 73.4374C58.8462 73.366 59.039 73.3052 59.239 73.2552C59.4462 73.2052 59.6426 73.1802 59.8283 73.1802C60.3212 73.1802 60.6998 73.2695 60.964 73.4481C61.2283 73.6195 61.4105 73.8981 61.5105 74.2838C61.6105 74.6695 61.6605 75.1802 61.6605 75.816V78.6445H60.7498V75.8481C60.7498 75.3981 60.7212 75.0374 60.664 74.766C60.614 74.4945 60.5105 74.2981 60.3533 74.1767C60.2033 74.0552 59.9676 73.9945 59.6462 73.9945C59.4748 73.9945 59.2962 74.016 59.1105 74.0588C58.9319 74.0945 58.764 74.141 58.6069 74.1981C58.4498 74.2552 58.3176 74.3124 58.2105 74.3695V78.6445H57.3105ZM65.1966 81.1517C64.6395 81.1517 64.1895 81.1052 63.8466 81.0124C63.5038 80.9195 63.2502 80.7552 63.0859 80.5195C62.9288 80.2838 62.8502 79.9624 62.8502 79.5552C62.8502 79.3481 62.8823 79.1695 62.9466 79.0195C63.0109 78.8767 63.1038 78.7445 63.2252 78.6231C63.3466 78.4945 63.5002 78.3624 63.6859 78.2267C63.593 78.1552 63.518 78.0552 63.4609 77.9267C63.4109 77.791 63.3859 77.641 63.3859 77.4767C63.3859 77.3981 63.4288 77.2731 63.5145 77.1017C63.6002 76.9231 63.6823 76.766 63.7609 76.6302C63.6109 76.5588 63.4716 76.4624 63.343 76.341C63.2216 76.2124 63.1216 76.041 63.043 75.8267C62.9645 75.6124 62.9252 75.341 62.9252 75.0124C62.9252 74.3552 63.1109 73.8874 63.4823 73.6088C63.8609 73.3231 64.3538 73.1802 64.9609 73.1802C65.1538 73.1802 65.3573 73.1945 65.5716 73.2231C65.7859 73.2517 65.9538 73.2802 66.0752 73.3088L67.693 73.2767V74.016L66.7073 73.9945C66.8073 74.0945 66.8895 74.2267 66.9538 74.391C67.018 74.5481 67.0502 74.7552 67.0502 75.0124C67.0502 75.4838 66.9716 75.8517 66.8145 76.116C66.6573 76.3802 66.4216 76.566 66.1073 76.6731C65.8002 76.7802 65.4109 76.8338 64.9395 76.8338C64.8895 76.8338 64.8038 76.8302 64.6823 76.8231C64.568 76.8088 64.4823 76.7981 64.4252 76.791C64.3895 76.8838 64.3502 76.9945 64.3073 77.1231C64.2645 77.2445 64.243 77.3267 64.243 77.3695C64.243 77.5052 64.268 77.6088 64.318 77.6802C64.368 77.7445 64.4859 77.7874 64.6716 77.8088C64.8573 77.8302 65.1466 77.841 65.5395 77.841C66.0466 77.841 66.4538 77.8838 66.7609 77.9695C67.068 78.0552 67.2859 78.2124 67.4145 78.441C67.5502 78.6624 67.618 78.9874 67.618 79.416C67.618 80.0302 67.4038 80.4731 66.9752 80.7445C66.5538 81.016 65.9609 81.1517 65.1966 81.1517ZM65.1966 80.4017C65.718 80.4017 66.1002 80.3267 66.343 80.1767C66.5859 80.0338 66.7073 79.7981 66.7073 79.4695C66.7073 79.2195 66.6645 79.0338 66.5788 78.9124C66.5002 78.7981 66.368 78.7195 66.1823 78.6767C65.9966 78.641 65.7466 78.6231 65.4323 78.6231C65.3609 78.6231 65.268 78.6231 65.1538 78.6231C65.0466 78.616 64.9323 78.6124 64.8109 78.6124C64.6966 78.6052 64.5895 78.5981 64.4895 78.591C64.3966 78.5838 64.3323 78.5802 64.2966 78.5802C64.0823 78.7302 63.9359 78.866 63.8573 78.9874C63.7788 79.1088 63.7395 79.2695 63.7395 79.4695C63.7395 79.691 63.7788 79.8695 63.8573 80.0052C63.943 80.141 64.093 80.241 64.3073 80.3052C64.5216 80.3695 64.818 80.4017 65.1966 80.4017ZM64.9609 76.116C65.3895 76.116 65.693 76.0338 65.8716 75.8695C66.0502 75.6981 66.1395 75.4124 66.1395 75.0124C66.1395 74.6124 66.0502 74.3267 65.8716 74.1552C65.693 73.9838 65.3895 73.8981 64.9609 73.8981C64.5609 73.8981 64.2716 73.9838 64.093 74.1552C63.9216 74.3267 63.8359 74.6124 63.8359 75.0124C63.8359 75.4124 63.9216 75.6981 64.093 75.8695C64.2716 76.0338 64.5609 76.116 64.9609 76.116Z" fill="black"/>
<path d="M45.8162 97.3945V96.216H42.6019V95.1445L44.2091 90.3231H45.8591L44.0698 94.9838H45.8162L45.9019 93.1624L47.2734 93.141V94.9838H47.9269V96.216H47.2734V97.3945H45.8162ZM48.7698 97.3945V95.8088H50.259V97.3945H48.7698ZM53.7646 97.5124C53.286 97.5124 52.8396 97.4552 52.4253 97.341C52.0182 97.2267 51.6896 97.0267 51.4396 96.741C51.1896 96.4552 51.0646 96.0624 51.0646 95.5624C51.0646 95.2052 51.1075 94.9195 51.1932 94.7052C51.286 94.491 51.4146 94.3088 51.5789 94.1588C51.7432 94.0088 51.9396 93.866 52.1682 93.7302C51.8253 93.5445 51.5753 93.3302 51.4182 93.0874C51.261 92.8445 51.1825 92.5017 51.1825 92.0588C51.1825 91.6231 51.2896 91.2695 51.5039 90.9981C51.7253 90.7267 52.0289 90.5267 52.4146 90.3981C52.8075 90.2695 53.2575 90.2052 53.7646 90.2052C54.2718 90.2052 54.7218 90.266 55.1146 90.3874C55.5146 90.5088 55.8253 90.7088 56.0468 90.9874C56.2753 91.2588 56.3896 91.6195 56.3896 92.0695C56.3896 92.5267 56.311 92.8731 56.1539 93.1088C55.9968 93.3374 55.7325 93.5481 55.361 93.741C55.611 93.8552 55.8182 93.9874 55.9825 94.1374C56.1539 94.2802 56.2825 94.4588 56.3682 94.6731C56.4539 94.8874 56.4968 95.1624 56.4968 95.4981C56.4968 96.0195 56.3718 96.4267 56.1218 96.7195C55.8718 97.0124 55.5396 97.2195 55.1253 97.341C54.7182 97.4552 54.2646 97.5124 53.7646 97.5124ZM53.7646 96.3445C54.0146 96.3445 54.2325 96.316 54.4182 96.2588C54.611 96.1945 54.7575 96.091 54.8575 95.9481C54.9646 95.7981 55.0182 95.5945 55.0182 95.3374C55.0182 95.1374 54.9789 94.9731 54.9003 94.8445C54.8289 94.7088 54.7253 94.5981 54.5896 94.5124C54.461 94.4267 54.3182 94.3588 54.161 94.3088H53.3575C53.1075 94.3874 52.9075 94.5124 52.7575 94.6838C52.6146 94.8481 52.5432 95.0767 52.5432 95.3695C52.5432 95.6052 52.5932 95.7945 52.6932 95.9374C52.8003 96.0802 52.9468 96.1838 53.1325 96.2481C53.3182 96.3124 53.5289 96.3445 53.7646 96.3445ZM53.3575 93.2267H54.161C54.3968 93.1338 54.5825 93.0124 54.7182 92.8624C54.8539 92.7124 54.9218 92.516 54.9218 92.2731C54.9218 91.9517 54.8218 91.7195 54.6218 91.5767C54.4289 91.4338 54.1468 91.3624 53.7753 91.3624C53.411 91.3624 53.1325 91.4338 52.9396 91.5767C52.7468 91.7195 52.6503 91.9481 52.6503 92.2624C52.6503 92.5124 52.711 92.7124 52.8325 92.8624C52.9539 93.0124 53.1289 93.1338 53.3575 93.2267ZM58.3896 97.8017L57.0396 97.4481L60.1467 89.7552L61.4967 90.1088L58.3896 97.8017ZM64.7838 97.5124C64.5124 97.5124 64.2196 97.491 63.9053 97.4481C63.591 97.4124 63.2874 97.366 62.9946 97.3088C62.7017 97.2517 62.4517 97.2017 62.2446 97.1588L62.3731 96.066C62.566 96.0945 62.7946 96.1302 63.0588 96.1731C63.3231 96.2088 63.5946 96.2374 63.8731 96.2588C64.1517 96.2802 64.4053 96.291 64.6338 96.291C64.9981 96.291 65.2874 96.1981 65.5017 96.0124C65.716 95.8195 65.8231 95.541 65.8231 95.1767C65.8231 94.9267 65.7767 94.7302 65.6838 94.5874C65.5981 94.4445 65.4696 94.3445 65.2981 94.2874C65.1338 94.2231 64.941 94.191 64.7196 94.191C64.5481 94.191 64.3767 94.2088 64.2053 94.2445C64.0338 94.2731 63.8731 94.3124 63.7231 94.3624C63.5731 94.4052 63.4517 94.4517 63.3588 94.5017L62.3946 94.3517L62.566 90.3231H66.991V91.6195H63.7231L63.5838 93.1945C63.6838 93.1517 63.8088 93.1088 63.9588 93.066C64.1088 93.016 64.2696 92.9731 64.441 92.9374C64.6196 92.9017 64.791 92.8838 64.9553 92.8838C65.4481 92.8838 65.866 92.9517 66.2088 93.0874C66.5517 93.2231 66.8124 93.4481 66.991 93.7624C67.1767 94.0767 67.2696 94.5052 67.2696 95.0481C67.2696 95.6124 67.166 96.0767 66.9588 96.441C66.7588 96.7981 66.4731 97.066 66.1017 97.2445C65.7374 97.4231 65.2981 97.5124 64.7838 97.5124ZM68.2731 97.3945V95.8088H69.7624V97.3945H68.2731ZM73.2894 97.5124C72.8323 97.5124 72.4358 97.4517 72.1001 97.3302C71.7644 97.2017 71.4858 96.9981 71.2644 96.7195C71.0501 96.4338 70.8858 96.0624 70.7715 95.6052C70.6644 95.1481 70.6108 94.5874 70.6108 93.9231C70.6108 93.2374 70.6644 92.6552 70.7715 92.1767C70.8858 91.6981 71.0537 91.316 71.2751 91.0302C71.4965 90.7374 71.7715 90.5267 72.1001 90.3981C72.4358 90.2695 72.8287 90.2052 73.2787 90.2052C73.743 90.2052 74.143 90.2695 74.4787 90.3981C74.8144 90.5267 75.0894 90.7374 75.3037 91.0302C75.5251 91.316 75.6858 91.6981 75.7858 92.1767C75.893 92.6481 75.9465 93.2302 75.9465 93.9231C75.9465 94.8017 75.8501 95.5052 75.6573 96.0338C75.4715 96.5552 75.1823 96.9338 74.7894 97.1695C74.3965 97.3981 73.8965 97.5124 73.2894 97.5124ZM73.2894 96.2695C73.4894 96.2695 73.6608 96.2374 73.8037 96.1731C73.9537 96.1017 74.0787 95.9802 74.1787 95.8088C74.2787 95.6374 74.3501 95.3981 74.393 95.091C74.443 94.7838 74.468 94.3945 74.468 93.9231C74.468 93.4231 74.443 93.0124 74.393 92.691C74.3501 92.3695 74.2823 92.1195 74.1894 91.941C74.0965 91.7552 73.9751 91.6267 73.8251 91.5552C73.6751 91.4767 73.4965 91.4374 73.2894 91.4374C73.0823 91.4374 72.9037 91.4767 72.7537 91.5552C72.6037 91.6267 72.4787 91.7517 72.3787 91.9302C72.2858 92.1088 72.2144 92.3624 72.1644 92.691C72.1144 93.0124 72.0894 93.4267 72.0894 93.9338C72.0894 94.4052 72.1144 94.7945 72.1644 95.1017C72.2215 95.4088 72.3001 95.6481 72.4001 95.8195C72.5001 95.9838 72.6215 96.1017 72.7644 96.1731C72.9144 96.2374 73.0894 96.2695 73.2894 96.2695Z" fill="#000E23"/>
<g clip-path="url(#clip1_4226_12549)">
<path d="M58.7231 38.0579C58.7187 38.0927 58.7188 38.1322 58.7188 38.171C58.7188 38.3218 58.749 38.4669 58.8036 38.6003L58.8524 38.7004L59.0455 39.1921L60.0482 41.7385L60.9227 43.9622C61.1722 44.4111 61.5718 44.7635 62.0536 44.9514L62.2033 45.0061C62.2092 45.0079 62.219 45.0079 62.227 45.0101L64.624 45.8306V45.8325L65.5404 46.1457L65.603 46.1668C65.6052 46.1668 65.6089 46.1689 65.611 46.1689C65.7917 46.2143 65.9687 46.2752 66.1377 46.3495C66.5285 46.5174 66.8829 46.7567 67.1856 47.0486C67.3076 47.1646 67.4198 47.2897 67.5236 47.4231C67.612 47.5351 67.6928 47.6529 67.7655 47.7756C68.0852 48.3042 68.2688 48.9257 68.2688 49.5874C68.2688 49.7056 68.263 49.8198 68.251 49.9358C68.247 49.987 68.2408 50.0363 68.2331 50.0852V50.0892C68.2251 50.1411 68.2153 50.1947 68.2054 50.2473C68.1952 50.2984 68.1858 50.3492 68.1741 50.4C68.1723 50.4058 68.1701 50.4119 68.1679 50.4177C68.157 50.4692 68.1432 50.52 68.129 50.5711C68.1162 50.6193 68.1002 50.669 68.0823 50.7158C68.0666 50.7669 68.0483 50.8173 68.0273 50.8666C68.0095 50.9174 67.9884 50.9688 67.9647 51.0174C67.8999 51.1665 67.8226 51.3097 67.736 51.4464C67.6242 51.6259 67.4966 51.7952 67.3546 51.9522C68.4793 50.7484 69.2271 49.194 69.4132 47.4739C69.4445 47.1918 69.4606 46.9057 69.4606 46.6178C69.4606 46.434 69.4526 46.252 69.4405 46.0692C69.2989 44.0065 68.3555 42.1616 66.9157 40.8451C66.5187 40.4792 66.0849 40.1536 65.6183 39.8773L64.7369 39.4288L60.2704 37.1471C60.1331 37.0885 59.9852 37.0584 59.8358 37.0586C59.2574 37.0586 58.7799 37.4977 58.7231 38.0579Z" fill="#7F7F7F"/>
<path d="M58.7231 38.0579C58.7187 38.0927 58.7188 38.1322 58.7188 38.171C58.7188 38.3218 58.749 38.4669 58.8036 38.6003L58.8524 38.7004L59.0455 39.1921L60.0482 41.7385L60.9227 43.9622C61.1722 44.4111 61.5718 44.7635 62.0536 44.9514L62.2033 45.0061C62.2092 45.0079 62.219 45.0079 62.227 45.0101L64.624 45.8306V45.8325L65.5404 46.1457L65.603 46.1668C65.6052 46.1668 65.6089 46.1689 65.611 46.1689C65.7917 46.2143 65.9687 46.2752 66.1377 46.3495C66.5285 46.5174 66.8829 46.7567 67.1856 47.0486C67.3076 47.1646 67.4198 47.2897 67.5236 47.4231C67.612 47.5351 67.6928 47.6529 67.7655 47.7756C68.0852 48.3042 68.2688 48.9257 68.2688 49.5874C68.2688 49.7056 68.263 49.8198 68.251 49.9358C68.247 49.987 68.2408 50.0363 68.2331 50.0852V50.0892C68.2251 50.1411 68.2153 50.1947 68.2054 50.2473C68.1952 50.2984 68.1858 50.3492 68.1741 50.4C68.1723 50.4058 68.1701 50.4119 68.1679 50.4177C68.157 50.4692 68.1432 50.52 68.129 50.5711C68.1162 50.6193 68.1002 50.669 68.0823 50.7158C68.0666 50.7669 68.0483 50.8173 68.0273 50.8666C68.0095 50.9174 67.9884 50.9688 67.9647 51.0174C67.8999 51.1665 67.8226 51.3097 67.736 51.4464C67.6242 51.6259 67.4966 51.7952 67.3546 51.9522C68.4793 50.7484 69.2271 49.194 69.4132 47.4739C69.4445 47.1918 69.4606 46.9057 69.4606 46.6178C69.4606 46.434 69.4526 46.252 69.4405 46.0692C69.2989 44.0065 68.3555 42.1616 66.9157 40.8451C66.5187 40.4792 66.0849 40.1536 65.6183 39.8773L64.7369 39.4288L60.2704 37.1471C60.1331 37.0885 59.9852 37.0584 59.8358 37.0586C59.2574 37.0586 58.7799 37.4977 58.7231 38.0579Z" fill="url(#paint0_linear_4226_12549)"/>
<path d="M50.7709 28C50.1353 28.0112 49.625 28.529 49.625 29.1621V49.4328C49.6275 49.5742 49.6356 49.7138 49.6458 49.8556C49.6549 49.9303 49.6647 50.0079 49.6785 50.0833C49.9688 51.7102 51.3908 52.9448 53.1078 52.9448C53.7098 52.9448 54.2744 52.7922 54.7683 52.5268C54.7712 52.5246 54.7763 52.5217 54.7788 52.5217L54.9566 52.4147L55.677 51.9927L56.5934 51.4513L56.5956 33.4406C56.5956 32.2437 55.9939 31.1886 55.0728 30.5617C55.0509 30.5486 55.0298 30.5348 55.0105 30.5192L51.4447 28.198C51.264 28.079 51.0462 28.0044 50.8127 28H50.7709Z" fill="#7F7F7F"/>
<path d="M50.7709 28C50.1353 28.0112 49.625 28.529 49.625 29.1621V49.4328C49.6275 49.5742 49.6356 49.7138 49.6458 49.8556C49.6549 49.9303 49.6647 50.0079 49.6785 50.0833C49.9688 51.7102 51.3908 52.9448 53.1078 52.9448C53.7098 52.9448 54.2744 52.7922 54.7683 52.5268C54.7712 52.5246 54.7763 52.5217 54.7788 52.5217L54.9566 52.4147L55.677 51.9927L56.5934 51.4513L56.5956 33.4406C56.5956 32.2437 55.9939 31.1886 55.0728 30.5617C55.0509 30.5486 55.0298 30.5348 55.0105 30.5192L51.4447 28.198C51.264 28.079 51.0462 28.0044 50.8127 28H50.7709Z" fill="url(#paint1_linear_4226_12549)"/>
<path d="M64.9103 46.5212L56.7118 51.3588L56.5938 51.4295V51.4552L55.6774 51.9955L54.9574 52.4186L54.7807 52.5249L54.7687 52.5307C54.2759 52.7972 53.711 52.948 53.1093 52.948C51.3927 52.948 49.9689 51.7141 49.6797 50.0865C49.817 51.2772 50.2246 52.3856 50.8394 53.3512C52.1054 55.3407 54.2464 56.7247 56.7231 56.9651H58.2376C59.5772 56.8259 60.6958 56.2918 61.8715 55.5706L63.6795 54.4698C64.4939 53.9502 66.7045 52.6721 67.3557 51.9549C67.4974 51.7979 67.6252 51.6297 67.737 51.4494C67.8237 51.3124 67.9009 51.1692 67.9658 51.0201C67.9876 50.9694 68.0084 50.9201 68.0284 50.8697C68.0474 50.8196 68.0652 50.7692 68.0834 50.7181C68.1173 50.6202 68.1442 50.522 68.1701 50.4208C68.1832 50.3631 68.1952 50.3062 68.2073 50.2496C68.2466 50.0361 68.2681 49.8167 68.2681 49.5894C68.2681 48.9277 68.0845 48.3062 67.7665 47.7783C67.6937 47.655 67.6136 47.5371 67.5247 47.4258C67.4209 47.2917 67.3087 47.1673 67.1867 47.0513C66.884 46.7594 66.5307 46.5201 66.1388 46.3518C65.9698 46.2775 65.7935 46.2162 65.6121 46.1716C65.6099 46.1716 65.6063 46.1695 65.6041 46.1695L65.5415 46.1484L64.9103 46.5212Z" fill="#7F7F7F"/>
<path d="M64.9103 46.5212L56.7118 51.3588L56.5938 51.4295V51.4552L55.6774 51.9955L54.9574 52.4186L54.7807 52.5249L54.7687 52.5307C54.2759 52.7972 53.711 52.948 53.1093 52.948C51.3927 52.948 49.9689 51.7141 49.6797 50.0865C49.817 51.2772 50.2246 52.3856 50.8394 53.3512C52.1054 55.3407 54.2464 56.7247 56.7231 56.9651H58.2376C59.5772 56.8259 60.6958 56.2918 61.8715 55.5706L63.6795 54.4698C64.4939 53.9502 66.7045 52.6721 67.3557 51.9549C67.4974 51.7979 67.6252 51.6297 67.737 51.4494C67.8237 51.3124 67.9009 51.1692 67.9658 51.0201C67.9876 50.9694 68.0084 50.9201 68.0284 50.8697C68.0474 50.8196 68.0652 50.7692 68.0834 50.7181C68.1173 50.6202 68.1442 50.522 68.1701 50.4208C68.1832 50.3631 68.1952 50.3062 68.2073 50.2496C68.2466 50.0361 68.2681 49.8167 68.2681 49.5894C68.2681 48.9277 68.0845 48.3062 67.7665 47.7783C67.6937 47.655 67.6136 47.5371 67.5247 47.4258C67.4209 47.2917 67.3087 47.1673 67.1867 47.0513C66.884 46.7594 66.5307 46.5201 66.1388 46.3518C65.9698 46.2775 65.7935 46.2162 65.6121 46.1716C65.6099 46.1716 65.6063 46.1695 65.6041 46.1695L65.5415 46.1484L64.9103 46.5212Z" fill="url(#paint2_linear_4226_12549)"/>
<path opacity="0.15" d="M68.2681 49.5894C68.2681 49.8167 68.2466 50.0364 68.2069 50.25C68.1952 50.3066 68.1832 50.3631 68.1697 50.4204C68.1442 50.522 68.1173 50.6202 68.0834 50.7185C68.0656 50.7692 68.0474 50.82 68.0284 50.8693C68.0088 50.9201 67.9876 50.9694 67.9654 51.0201C67.9005 51.1687 67.8242 51.3121 67.7374 51.4491C67.6257 51.6287 67.498 51.7979 67.3557 51.9545C66.7045 52.6721 64.4939 53.9502 63.6795 54.4698L61.8715 55.5706C60.5461 56.3835 59.2939 56.9589 57.7146 56.9985C57.6399 57.0006 57.5667 57.0025 57.4942 57.0025C57.3922 57.0025 57.2917 57.0006 57.1908 56.9967C54.5166 56.8951 52.1845 55.4647 50.8394 53.3512C50.21 52.3642 49.8135 51.248 49.6797 50.0865C49.9689 51.7141 51.3927 52.948 53.1093 52.948C53.711 52.948 54.2759 52.7968 54.7687 52.5307L54.7807 52.5245L54.9574 52.4186L55.6774 51.9955L56.5938 51.4552V51.4295L56.7118 51.3588L64.9103 46.5208L65.5415 46.1484L65.6041 46.1695C65.6059 46.1695 65.6099 46.1716 65.6121 46.1716C65.7935 46.2162 65.9702 46.2775 66.1388 46.3518C66.5307 46.5201 66.8837 46.7594 67.1867 47.0513C67.3087 47.1675 67.4217 47.2927 67.5247 47.4258C67.6136 47.5371 67.6937 47.655 67.7665 47.7783C68.0845 48.3062 68.2681 48.9277 68.2681 49.5894Z" fill="#7F7F7F"/>
<path opacity="0.15" d="M68.2681 49.5894C68.2681 49.8167 68.2466 50.0364 68.2069 50.25C68.1952 50.3066 68.1832 50.3631 68.1697 50.4204C68.1442 50.522 68.1173 50.6202 68.0834 50.7185C68.0656 50.7692 68.0474 50.82 68.0284 50.8693C68.0088 50.9201 67.9876 50.9694 67.9654 51.0201C67.9005 51.1687 67.8242 51.3121 67.7374 51.4491C67.6257 51.6287 67.498 51.7979 67.3557 51.9545C66.7045 52.6721 64.4939 53.9502 63.6795 54.4698L61.8715 55.5706C60.5461 56.3835 59.2939 56.9589 57.7146 56.9985C57.6399 57.0006 57.5667 57.0025 57.4942 57.0025C57.3922 57.0025 57.2917 57.0006 57.1908 56.9967C54.5166 56.8951 52.1845 55.4647 50.8394 53.3512C50.21 52.3642 49.8135 51.248 49.6797 50.0865C49.9689 51.7141 51.3927 52.948 53.1093 52.948C53.711 52.948 54.2759 52.7968 54.7687 52.5307L54.7807 52.5245L54.9574 52.4186L55.6774 51.9955L56.5938 51.4552V51.4295L56.7118 51.3588L64.9103 46.5208L65.5415 46.1484L65.6041 46.1695C65.6059 46.1695 65.6099 46.1716 65.6121 46.1716C65.7935 46.2162 65.9702 46.2775 66.1388 46.3518C66.5307 46.5201 66.8837 46.7594 67.1867 47.0513C67.3087 47.1675 67.4217 47.2927 67.5247 47.4258C67.6136 47.5371 67.6937 47.655 67.7665 47.7783C68.0845 48.3062 68.2681 48.9277 68.2681 49.5894Z" fill="url(#paint3_linear_4226_12549)"/>
</g>
</g>
<defs>
<linearGradient id="paint0_linear_4226_12549" x1="60.0494" y1="38.3004" x2="69.3152" y2="48.6737" gradientUnits="userSpaceOnUse">
<stop stop-color="#37BDFF"/>
<stop offset="0.25" stop-color="#26C6F4"/>
<stop offset="0.5" stop-color="#15D0E9"/>
<stop offset="0.75" stop-color="#3BD6DF"/>
<stop offset="1" stop-color="#62DCD4"/>
</linearGradient>
<linearGradient id="paint1_linear_4226_12549" x1="53.5885" y1="52.5065" x2="53.2917" y2="29.5797" gradientUnits="userSpaceOnUse">
<stop stop-color="#1B48EF"/>
<stop offset="0.5" stop-color="#2080F1"/>
<stop offset="1" stop-color="#26B8F4"/>
</linearGradient>
<linearGradient id="paint2_linear_4226_12549" x1="58.9738" y1="51.5567" x2="81.5126" y2="51.5567" gradientUnits="userSpaceOnUse">
<stop stop-color="#39D2FF"/>
<stop offset="0.5" stop-color="#248FFA"/>
<stop offset="1" stop-color="#104CF5"/>
</linearGradient>
<linearGradient id="paint3_linear_4226_12549" x1="58.9738" y1="51.5567" x2="81.5126" y2="51.5567" gradientUnits="userSpaceOnUse">
<stop stop-color="white"/>
<stop offset="1"/>
</linearGradient>
<clipPath id="clip0_4226_12549">
<rect width="114.286" height="150" fill="white" transform="translate(0.332031)"/>
</clipPath>
<clipPath id="clip1_4226_12549">
<rect width="22" height="29" fill="white" transform="translate(48 28)"/>
</clipPath>
</defs>
</svg>
