<svg width="115" height="150" viewBox="0 0 115 150" fill="none" xmlns="http://www.w3.org/2000/svg">
<g clip-path="url(#clip0_4226_12530)">
<path d="M80.391 80.9297L102.15 134.248L78.6286 131.384L67.444 145.498L66.495 146.725L63.8514 149.998L42.1602 96.7479L80.391 80.9297Z" fill="#003C4F"/>
<path d="M33.8918 80.9297L12.1328 134.248L35.6542 131.384L46.8388 145.498L47.7878 146.725L50.4314 149.998L72.1226 96.7479L33.8918 80.9297Z" fill="#003C4F"/>
<path d="M114.286 90.6136V38.3864C114.286 34.0227 111.981 30 108.185 27.8182L63.2435 1.63636C59.4476 -0.545455 54.8382 -0.545455 51.0422 1.63636L6.10066 27.75C2.30469 29.9318 0 33.9545 0 38.3182V90.5455C0 94.9091 2.30469 98.9318 6.10066 101.114L51.11 127.227C54.9059 129.409 59.5153 129.409 63.3113 127.227L108.321 101.114C111.981 99 114.286 94.9773 114.286 90.6136Z" fill="#E8F1F3"/>
<path d="M104.524 86.1165V42.821C104.524 39.2074 102.626 35.8665 99.5078 34.0256L62.226 12.4119C59.1079 10.571 55.2442 10.571 52.126 12.4119L14.8442 34.0256C11.7261 35.8665 9.82812 39.2074 9.82812 42.821V86.1165C9.82812 89.7301 11.7261 93.071 14.8442 94.9119L52.126 116.526C55.2442 118.366 59.1079 118.366 62.226 116.526L99.5078 94.9119C102.558 93.071 104.524 89.7301 104.524 86.1165Z" fill="#AECBD3"/>
<path d="M98.9621 83.6609V45.3427C98.9621 42.1381 97.2675 39.2063 94.4883 37.57L61.5447 18.4109C58.7655 16.7745 55.3763 16.7745 52.5971 18.4109L19.6535 37.57C16.8743 39.2063 15.1797 42.1381 15.1797 45.3427V83.6609C15.1797 86.8654 16.8743 89.7972 19.6535 91.4336L52.5971 110.593C55.3763 112.229 58.7655 112.229 61.5447 110.593L94.4883 91.4336C97.2675 89.7972 98.9621 86.8654 98.9621 83.6609Z" fill="white"/>
<rect x="15.1797" y="66.0742" width="83.9286" height="17.8571" fill="#FFB0D6"/>
<path d="M46.045 78.6445V71.2517H48.7771C49.2628 71.2517 49.67 71.316 49.9985 71.4445C50.3271 71.5731 50.5771 71.7767 50.7485 72.0552C50.92 72.3267 51.0057 72.6874 51.0057 73.1374C51.0057 73.4445 50.9664 73.7088 50.8878 73.9302C50.8164 74.1445 50.7128 74.3231 50.5771 74.466C50.4485 74.6088 50.2843 74.7338 50.0843 74.841C50.2985 74.9124 50.4914 75.016 50.6628 75.1517C50.8342 75.2874 50.97 75.4695 51.07 75.6981C51.1771 75.9195 51.2307 76.2088 51.2307 76.566C51.2307 76.9517 51.1735 77.2802 51.0593 77.5517C50.9521 77.816 50.795 78.0302 50.5878 78.1945C50.3807 78.3517 50.1342 78.466 49.8485 78.5374C49.57 78.6088 49.2521 78.6445 48.895 78.6445H46.045ZM46.9878 77.8517H48.8521C49.145 77.8517 49.3985 77.8124 49.6128 77.7338C49.8271 77.6552 49.9914 77.5231 50.1057 77.3374C50.22 77.1445 50.2771 76.8731 50.2771 76.5231C50.2771 76.2588 50.2271 76.0445 50.1271 75.8802C50.0343 75.7088 49.9093 75.5838 49.7521 75.5052C49.6021 75.4195 49.445 75.3624 49.2807 75.3338C49.1164 75.3052 48.9628 75.291 48.82 75.291H46.9878V77.8517ZM46.9878 74.4981H48.8092C49.2521 74.4981 49.57 74.3945 49.7628 74.1874C49.9628 73.9731 50.0628 73.6517 50.0628 73.2231C50.0628 72.816 49.9521 72.5195 49.7307 72.3338C49.5164 72.141 49.1842 72.0445 48.7342 72.0445H46.9878V74.4981ZM52.5189 78.6445V73.2874H53.4189V73.9945C53.5546 73.9017 53.7225 73.8017 53.9225 73.6945C54.1296 73.5802 54.3546 73.4731 54.5975 73.3731C54.8403 73.2731 55.0832 73.2052 55.326 73.1695V74.0802C55.0903 74.1302 54.851 74.1945 54.6082 74.2731C54.3653 74.3517 54.1403 74.4374 53.9332 74.5302C53.726 74.6231 53.5546 74.7052 53.4189 74.7767V78.6445H52.5189ZM57.4438 78.7517C56.9366 78.7517 56.5509 78.6124 56.2866 78.3338C56.0295 78.0552 55.9009 77.6445 55.9009 77.1017C55.9009 76.7445 55.9616 76.4552 56.0831 76.2338C56.2116 76.0124 56.4009 75.8445 56.6509 75.7302C56.9081 75.616 57.2188 75.5445 57.5831 75.516L59.1902 75.3552V74.916C59.1902 74.566 59.1116 74.3195 58.9545 74.1767C58.7974 74.0338 58.5688 73.9624 58.2688 73.9624C58.0831 73.9624 57.8652 73.9695 57.6152 73.9838C57.3724 73.9981 57.1259 74.016 56.8759 74.0374C56.6331 74.0588 56.4188 74.0802 56.2331 74.1017L56.1902 73.416C56.3616 73.3802 56.5688 73.3445 56.8116 73.3088C57.0616 73.2731 57.3188 73.2445 57.5831 73.2231C57.8545 73.1945 58.1009 73.1802 58.3224 73.1802C58.7366 73.1802 59.0759 73.241 59.3402 73.3624C59.6045 73.4838 59.7974 73.6731 59.9188 73.9302C60.0474 74.1802 60.1116 74.5052 60.1116 74.9052V77.5838C60.1259 77.7338 60.1866 77.8445 60.2938 77.916C60.4009 77.9802 60.5366 78.0231 60.7009 78.0445L60.6688 78.7517C60.5116 78.7517 60.3652 78.741 60.2295 78.7195C60.0938 78.7052 59.9724 78.6838 59.8652 78.6552C59.7581 78.6195 59.6616 78.5767 59.5759 78.5267C59.4902 78.4695 59.4081 78.4052 59.3295 78.3338C59.1938 78.391 59.0224 78.4517 58.8152 78.516C58.6081 78.5802 58.3866 78.6338 58.1509 78.6767C57.9152 78.7267 57.6795 78.7517 57.4438 78.7517ZM57.6045 78.0017C57.7902 78.0017 57.9831 77.9874 58.1831 77.9588C58.3831 77.9231 58.5724 77.8802 58.7509 77.8302C58.9295 77.7802 59.0759 77.7338 59.1902 77.691V76.0195L57.7009 76.1588C57.3938 76.1874 57.1724 76.2802 57.0366 76.4374C56.9009 76.5874 56.8331 76.8017 56.8331 77.0802C56.8331 77.366 56.8974 77.591 57.0259 77.7552C57.1616 77.9195 57.3545 78.0017 57.6045 78.0017ZM62.6175 78.6445L61.1497 73.2874H62.1354L63.314 77.8624H63.6997L64.9211 73.2874H65.864L64.3961 78.6445H62.6175ZM68.782 78.7517C68.2392 78.7517 67.8106 78.6481 67.4963 78.441C67.182 78.2338 66.9534 77.9267 66.8106 77.5195C66.6749 77.1124 66.607 76.6052 66.607 75.9981C66.607 75.3267 66.6999 74.7838 66.8856 74.3695C67.0713 73.9552 67.332 73.6552 67.6677 73.4695C68.0106 73.2767 68.4177 73.1802 68.8892 73.1802C69.6177 73.1802 70.1642 73.3802 70.5284 73.7802C70.8999 74.1731 71.0856 74.8052 71.0856 75.6767L71.0427 76.341H67.5392C67.5463 76.8695 67.6463 77.2731 67.8392 77.5517C68.032 77.8231 68.382 77.9588 68.8892 77.9588C69.0892 77.9588 69.3106 77.9552 69.5534 77.9481C69.7963 77.9338 70.0356 77.9195 70.2713 77.9052C70.5142 77.891 70.7177 77.8767 70.882 77.8624L70.9034 78.5695C70.732 78.5981 70.5213 78.6267 70.2713 78.6552C70.0213 78.6838 69.7642 78.7052 69.4999 78.7195C69.2427 78.741 69.0034 78.7517 68.782 78.7517ZM67.5392 75.6231H70.1642C70.1642 74.9945 70.0642 74.5552 69.8642 74.3052C69.6642 74.0481 69.3392 73.9195 68.8892 73.9195C68.4534 73.9195 68.1177 74.0517 67.882 74.316C67.6534 74.5802 67.5392 75.016 67.5392 75.6231Z" fill="black"/>
<path d="M45.4842 97.3945V96.216H42.2699V95.1445L43.877 90.3231H45.527L43.7378 94.9838H45.4842L45.5699 93.1624L46.9413 93.141V94.9838H47.5949V96.216H46.9413V97.3945H45.4842ZM48.4377 97.3945V95.8088H49.927V97.3945H48.4377ZM53.529 97.5124C52.6076 97.5124 51.9326 97.1945 51.504 96.5588C51.0754 95.9231 50.8612 95.0267 50.8612 93.8695C50.8612 93.1838 50.929 92.6088 51.0647 92.1445C51.2076 91.6731 51.404 91.2981 51.654 91.0195C51.9112 90.7338 52.2147 90.5267 52.5647 90.3981C52.9147 90.2695 53.3004 90.2052 53.7219 90.2052C53.9433 90.2052 54.1826 90.2195 54.4397 90.2481C54.704 90.2767 54.9612 90.3124 55.2112 90.3552C55.4612 90.391 55.6719 90.4267 55.8433 90.4624L55.7254 91.566C55.5754 91.5517 55.3862 91.5338 55.1576 91.5124C54.9362 91.491 54.704 91.4731 54.4612 91.4588C54.2183 91.4374 53.9862 91.4267 53.7647 91.4267C53.279 91.4267 52.9147 91.5802 52.6719 91.8874C52.429 92.1874 52.3004 92.6195 52.2862 93.1838C52.3576 93.1624 52.4469 93.1374 52.554 93.1088C52.6683 93.0731 52.7897 93.0374 52.9183 93.0017C53.054 92.9588 53.1897 92.9267 53.3254 92.9052C53.4612 92.8767 53.5897 92.8624 53.7112 92.8624C54.504 92.8624 55.0969 93.0481 55.4897 93.4195C55.8897 93.7838 56.0897 94.3588 56.0897 95.1445C56.0897 95.6731 55.9862 96.1124 55.779 96.4624C55.5719 96.8124 55.279 97.0767 54.9004 97.2552C54.5219 97.4267 54.0647 97.5124 53.529 97.5124ZM53.529 96.3124C53.9219 96.3124 54.2147 96.2124 54.4076 96.0124C54.6076 95.8052 54.7076 95.516 54.7076 95.1445C54.7076 94.7731 54.6076 94.5017 54.4076 94.3302C54.2076 94.1517 53.9254 94.0624 53.5612 94.0624C53.4112 94.0624 53.254 94.0767 53.0897 94.1052C52.9254 94.1338 52.7719 94.1731 52.629 94.2231C52.4862 94.266 52.3683 94.3088 52.2754 94.3517C52.2826 94.7302 52.3254 95.0695 52.404 95.3695C52.4826 95.6624 52.6112 95.8945 52.7897 96.066C52.9754 96.2302 53.2219 96.3124 53.529 96.3124ZM58.0576 97.8017L56.7076 97.4481L59.8147 89.7552L61.1647 90.1088L58.0576 97.8017ZM64.4518 97.5124C64.1804 97.5124 63.8875 97.491 63.5732 97.4481C63.259 97.4124 62.9554 97.366 62.6625 97.3088C62.3697 97.2517 62.1197 97.2017 61.9125 97.1588L62.0411 96.066C62.234 96.0945 62.4625 96.1302 62.7268 96.1731C62.9911 96.2088 63.2625 96.2374 63.5411 96.2588C63.8197 96.2802 64.0732 96.291 64.3018 96.291C64.6661 96.291 64.9554 96.1981 65.1697 96.0124C65.384 95.8195 65.4911 95.541 65.4911 95.1767C65.4911 94.9267 65.4447 94.7302 65.3518 94.5874C65.2661 94.4445 65.1375 94.3445 64.9661 94.2874C64.8018 94.2231 64.609 94.191 64.3875 94.191C64.2161 94.191 64.0447 94.2088 63.8732 94.2445C63.7018 94.2731 63.5411 94.3124 63.3911 94.3624C63.2411 94.4052 63.1197 94.4517 63.0268 94.5017L62.0625 94.3517L62.234 90.3231H66.659V91.6195H63.3911L63.2518 93.1945C63.3518 93.1517 63.4768 93.1088 63.6268 93.066C63.7768 93.016 63.9375 92.9731 64.109 92.9374C64.2875 92.9017 64.459 92.8838 64.6232 92.8838C65.1161 92.8838 65.534 92.9517 65.8768 93.0874C66.2197 93.2231 66.4804 93.4481 66.659 93.7624C66.8447 94.0767 66.9375 94.5052 66.9375 95.0481C66.9375 95.6124 66.834 96.0767 66.6268 96.441C66.4268 96.7981 66.1411 97.066 65.7697 97.2445C65.4054 97.4231 64.9661 97.5124 64.4518 97.5124ZM67.9411 97.3945V95.8088H69.4304V97.3945H67.9411ZM72.9574 97.5124C72.5002 97.5124 72.1038 97.4517 71.7681 97.3302C71.4324 97.2017 71.1538 96.9981 70.9324 96.7195C70.7181 96.4338 70.5538 96.0624 70.4395 95.6052C70.3324 95.1481 70.2788 94.5874 70.2788 93.9231C70.2788 93.2374 70.3324 92.6552 70.4395 92.1767C70.5538 91.6981 70.7217 91.316 70.9431 91.0302C71.1645 90.7374 71.4395 90.5267 71.7681 90.3981C72.1038 90.2695 72.4967 90.2052 72.9467 90.2052C73.4109 90.2052 73.8109 90.2695 74.1467 90.3981C74.4824 90.5267 74.7574 90.7374 74.9717 91.0302C75.1931 91.316 75.3538 91.6981 75.4538 92.1767C75.5609 92.6481 75.6145 93.2302 75.6145 93.9231C75.6145 94.8017 75.5181 95.5052 75.3252 96.0338C75.1395 96.5552 74.8502 96.9338 74.4574 97.1695C74.0645 97.3981 73.5645 97.5124 72.9574 97.5124ZM72.9574 96.2695C73.1574 96.2695 73.3288 96.2374 73.4717 96.1731C73.6217 96.1017 73.7467 95.9802 73.8467 95.8088C73.9467 95.6374 74.0181 95.3981 74.0609 95.091C74.1109 94.7838 74.1359 94.3945 74.1359 93.9231C74.1359 93.4231 74.1109 93.0124 74.0609 92.691C74.0181 92.3695 73.9502 92.1195 73.8574 91.941C73.7645 91.7552 73.6431 91.6267 73.4931 91.5552C73.3431 91.4767 73.1645 91.4374 72.9574 91.4374C72.7502 91.4374 72.5717 91.4767 72.4217 91.5552C72.2717 91.6267 72.1467 91.7517 72.0467 91.9302C71.9538 92.1088 71.8824 92.3624 71.8324 92.691C71.7824 93.0124 71.7574 93.4267 71.7574 93.9338C71.7574 94.4052 71.7824 94.7945 71.8324 95.1017C71.8895 95.4088 71.9681 95.6481 72.0681 95.8195C72.1681 95.9838 72.2895 96.1017 72.4324 96.1731C72.5824 96.2374 72.7574 96.2695 72.9574 96.2695Z" fill="#000E23"/>
<path d="M68.1895 34.4685L68.8241 32.9128C68.8241 32.9128 68.0258 32.0531 67.0432 31.0705C66.0607 30.0879 63.9932 30.6611 63.9932 30.6611L61.6391 28H53.3692L50.9947 30.6816C50.9947 30.6816 48.9272 30.1084 47.9447 31.091C46.9621 32.0735 46.1638 32.9333 46.1638 32.9333L46.7983 34.489L46 36.7817C46 36.7817 48.3745 45.7475 48.6406 46.8529C49.1933 49.0023 49.5618 49.8415 51.1175 50.9469C52.6732 52.0523 55.4776 53.9356 55.9484 54.2221C56.3988 54.5087 56.9924 55 57.5042 55C58.0159 55 58.5891 54.5087 59.0599 54.2221C59.5102 53.9356 62.3351 52.0318 63.8908 50.9469C65.4466 49.862 65.815 49.0227 66.3677 46.8529C66.6543 45.7475 69.0083 36.7817 69.0083 36.7817L68.1895 34.4685Z" fill="url(#paint0_linear_4226_12530)"/>
<path d="M63.337 32.3824C63.337 32.3824 66.3666 36.0465 66.3666 36.8448C66.3666 37.6432 65.9777 37.8274 65.5887 38.2368C65.1998 38.6462 63.5213 40.4271 63.3166 40.6523C63.0914 40.8774 62.6615 41.2254 62.9072 41.86C63.1733 42.4741 63.5622 43.2724 63.1323 44.0912C62.7025 44.8896 61.9655 45.4423 61.4947 45.3399C61.0239 45.258 59.8981 44.6644 59.4887 44.3983C59.0793 44.1322 57.7896 43.0677 57.7896 42.6583C57.7896 42.2489 59.1407 41.512 59.3863 41.3482C59.632 41.1845 60.7578 40.5294 60.7783 40.2838C60.7987 40.0382 60.7987 39.9563 60.4508 39.3217C60.1232 38.6871 59.5091 37.8479 59.6115 37.2952C59.7138 36.7425 60.6759 36.4559 61.3719 36.1898C62.0679 35.9237 63.3984 35.4324 63.5622 35.3505C63.726 35.2686 63.685 35.2072 63.1733 35.1458C62.6615 35.1049 61.2491 34.9002 60.594 35.0844C59.939 35.2686 58.8541 35.5347 58.7517 35.678C58.6699 35.8213 58.588 35.8213 58.6699 36.3331C58.7517 36.8244 59.243 39.2398 59.284 39.6697C59.3249 40.0996 59.4273 40.3862 58.9564 40.4885C58.5061 40.5909 57.7282 40.7751 57.4621 40.7751C57.196 40.7751 56.4182 40.5909 55.9678 40.4885C55.5175 40.3862 55.5994 40.0996 55.6403 39.6697C55.6812 39.2398 56.152 36.8448 56.2544 36.3331C56.3363 35.8418 56.2749 35.8213 56.1725 35.678C56.0906 35.5347 54.9853 35.2686 54.3302 35.0844C53.6752 34.9002 52.2627 35.0844 51.751 35.1458C51.2392 35.1868 51.1983 35.2686 51.3621 35.3505C51.5258 35.4324 52.8564 35.9237 53.5523 36.1898C54.2483 36.4559 55.2104 36.7425 55.3128 37.2952C55.4151 37.8479 54.8215 38.6871 54.4735 39.3217C54.146 39.9563 54.1255 40.0177 54.146 40.2838C54.1664 40.5294 55.2923 41.1845 55.5379 41.3482C55.7836 41.512 57.1346 42.2489 57.1346 42.6583C57.1346 43.0677 55.845 44.1322 55.4356 44.3983C55.0262 44.6644 53.9208 45.2376 53.4295 45.3399C52.9587 45.4218 52.2218 44.8896 51.7919 44.0912C51.3621 43.2929 51.751 42.4946 52.0171 41.86C52.2832 41.2459 51.8329 40.8979 51.6077 40.6523C51.3825 40.4271 49.7244 38.6462 49.3355 38.2368C48.9466 37.8274 48.5781 37.6227 48.5781 36.8448C48.5781 36.067 51.6077 32.3824 51.6077 32.3824C51.6077 32.3824 54.1664 32.8736 54.5144 32.8736C54.8624 32.8736 55.5994 32.5871 56.2953 32.3619C56.9913 32.1367 57.4417 32.1367 57.4417 32.1367C57.4417 32.1367 57.892 32.1367 58.588 32.3619C59.284 32.5871 60.0209 32.8736 60.3689 32.8736C60.7169 32.8736 63.337 32.3824 63.337 32.3824ZM61.0649 46.4043C61.2491 46.5272 61.1467 46.7523 60.9625 46.8547C60.7987 46.9775 58.4856 48.7584 58.2809 48.9631C58.0558 49.1678 57.7282 49.4749 57.5031 49.4749C57.2779 49.4749 56.9504 49.1473 56.7252 48.9631C56.5 48.7584 54.2074 46.9775 54.0436 46.8547C53.8799 46.7319 53.757 46.5067 53.9413 46.4043C54.1255 46.2815 54.7191 45.9949 55.5175 45.5651C56.3363 45.1352 57.3393 44.7872 57.5031 44.7872C57.6668 44.7872 58.6699 45.1352 59.4887 45.5651C60.287 45.9949 60.8806 46.302 61.0649 46.4043Z" fill="white"/>
<path d="M63.9938 30.6816L61.6398 28H53.3699L50.9954 30.6816C50.9954 30.6816 48.9279 30.1084 47.9453 31.091C47.9453 31.091 50.7088 30.8453 51.6504 32.3806C51.6504 32.3806 54.2092 32.8719 54.5571 32.8719C54.9051 32.8719 55.6421 32.5853 56.338 32.3601C57.034 32.135 57.4844 32.135 57.4844 32.135C57.4844 32.135 57.9347 32.135 58.6307 32.3601C59.3267 32.5853 60.0636 32.8719 60.4116 32.8719C60.7596 32.8719 63.3183 32.3806 63.3183 32.3806C64.2599 30.8453 67.0234 31.091 67.0234 31.091C66.0613 30.1084 63.9938 30.6816 63.9938 30.6816Z" fill="url(#paint1_linear_4226_12530)"/>
</g>
<defs>
<linearGradient id="paint0_linear_4226_12530" x1="46.0135" y1="41.494" x2="69.0039" y2="41.494" gradientUnits="userSpaceOnUse">
<stop stop-color="#FF5500"/>
<stop offset="0.41" stop-color="#FF5500"/>
<stop offset="0.582" stop-color="#FF2000"/>
<stop offset="1" stop-color="#FF2000"/>
</linearGradient>
<linearGradient id="paint1_linear_4226_12530" x1="48.3717" y1="30.4276" x2="67.053" y2="30.4276" gradientUnits="userSpaceOnUse">
<stop stop-color="#FF452A"/>
<stop offset="1" stop-color="#FF2000"/>
</linearGradient>
<clipPath id="clip0_4226_12530">
<rect width="114.286" height="150" fill="white"/>
</clipPath>
</defs>
</svg>
