<svg width="146" height="190" viewBox="0 0 146 190" fill="none" xmlns="http://www.w3.org/2000/svg">
<g clip-path="url(#clip0_4226_12492)">
<path d="M102.594 102.512L130.155 170.048L100.361 166.421L86.1942 184.298L84.9921 185.853L81.6435 189.998L54.168 122.548L102.594 102.512Z" fill="#003C4F"/>
<path d="M43.6942 102.512L16.1328 170.048L45.9266 166.421L60.0937 184.298L61.2958 185.853L64.6444 189.998L92.1199 122.548L43.6942 102.512Z" fill="#003C4F"/>
<path d="M145.524 114.777V48.6227C145.524 43.0955 142.604 38 137.796 35.2364L80.8702 2.07273C76.062 -0.690909 70.2234 -0.690909 65.4152 2.07273L8.48922 35.15C3.681 37.9136 0.761719 43.0091 0.761719 48.5364V114.691C0.761719 120.218 3.681 125.314 8.48922 128.077L65.501 161.155C70.3092 163.918 76.1478 163.918 80.956 161.155L137.968 128.077C142.604 125.4 145.524 120.305 145.524 114.777Z" fill="#E8F1F3"/>
<path d="M133.159 109.081V54.2397C133.159 49.6624 130.755 45.4306 126.805 43.0988L79.5816 15.7215C75.632 13.3897 70.7379 13.3897 66.7883 15.7215L19.5647 43.0988C15.615 45.4306 13.2109 49.6624 13.2109 54.2397V109.081C13.2109 113.658 15.615 117.89 19.5647 120.222L66.7883 147.599C70.7379 149.931 75.632 149.931 79.5816 147.599L126.805 120.222C130.669 117.89 133.159 113.658 133.159 109.081Z" fill="#AECBD3"/>
<path d="M126.113 105.97V57.4338C126.113 53.3747 123.966 49.6611 120.446 47.5884L78.7173 23.3202C75.197 21.2474 70.9039 21.2474 67.3836 23.3202L25.6551 47.5884C22.1348 49.6611 19.9883 53.3747 19.9883 57.4338V105.97C19.9883 110.029 22.1348 113.743 25.6551 115.816L67.3836 140.084C70.9039 142.157 75.197 142.157 78.7173 140.084L120.446 115.816C123.966 113.743 126.113 110.029 126.113 105.97Z" fill="white"/>
<path d="M59.5938 48H62.176V63.9423H59.5938V48Z" fill="#17313B"/>
<path d="M71.1589 58.8898C71.1589 61.3598 69.1381 61.5843 68.4645 61.5843C66.8927 61.5843 66.6681 60.1248 66.6681 59.3389V53.1641H64.0859V59.2266C64.0859 60.6861 64.535 62.0334 65.4332 62.8193C66.2191 63.6052 67.2295 63.942 68.4645 63.942C69.3626 63.942 70.4853 63.7174 71.1589 63.0438V63.942H73.7412V53.1641H71.1589V58.8898Z" fill="#17313B"/>
<path d="M78.7916 49.2344H76.2094V53.1638H74.3008V55.6338H76.2094V63.9417H78.7916V55.6338H80.7002V53.1638H78.7916V49.2344Z" fill="#17313B"/>
<path d="M88.7867 60.6841C88.2254 61.1332 87.4395 61.47 86.6536 61.47C84.8573 61.47 83.6223 60.1228 83.6223 58.3265C83.6223 56.5301 84.8573 55.2952 86.6536 55.2952C87.4395 55.2952 88.2254 55.5197 88.7867 56.0811L89.1235 56.4179L90.9198 54.7338L90.4707 54.397C89.4603 53.4988 88.1131 52.9375 86.6536 52.9375C83.51 52.9375 81.1523 55.2952 81.1523 58.4387C81.1523 61.5823 83.51 63.94 86.6536 63.94C88.1131 63.94 89.4603 63.3786 90.4707 62.4804L90.9198 62.1436L89.1235 60.3473L88.7867 60.6841Z" fill="#17313B"/>
<path d="M100.011 54.0626C99.2253 53.2767 98.4395 52.9399 97.2045 52.9399C96.3063 52.9399 95.4082 53.1644 94.7345 53.838V48H92.1523V63.9423H94.7345V57.992C94.7345 55.5221 96.4186 55.2975 97.0922 55.2975C98.664 55.2975 98.5517 56.7571 98.5517 57.5429V63.8301H101.134V57.6552C101.134 56.1957 100.797 54.8485 100.011 54.0626Z" fill="#17313B"/>
<path d="M86.5385 60.2372C87.5306 60.2372 88.3348 59.4329 88.3348 58.4409C88.3348 57.4488 87.5306 56.6445 86.5385 56.6445C85.5464 56.6445 84.7422 57.4488 84.7422 58.4409C84.7422 59.4329 85.5464 60.2372 86.5385 60.2372Z" fill="#EF4335"/>
<path d="M56.0025 60.0129C55.1043 60.911 53.7571 61.4724 52.2975 61.4724C49.4908 61.4724 47.4699 59.227 47.4699 56.1957C47.4699 53.1644 49.4908 50.919 52.4098 50.919C53.7571 50.919 55.1043 51.4803 56.1147 52.4908L56.4515 52.8276L58.1356 51.1435L57.7988 50.8067C56.3393 49.3472 54.4307 48.5613 52.4098 48.5613C48.1436 48.4491 45 51.8171 45 56.1957C45 60.5742 48.1436 63.9423 52.2975 63.9423C54.3184 63.9423 56.3393 63.1564 57.6865 61.6969L58.0233 61.3601L56.3393 59.676L56.0025 60.0129Z" fill="#17313B"/>
<rect x="19.9883" y="83.6914" width="106.31" height="22.619" fill="#FFD100"/>
<path d="M60.3494 100.351C59.6346 100.351 59.051 100.251 58.5987 100.052C58.1553 99.8439 57.8025 99.5363 57.5401 99.1291C57.2868 98.722 57.1103 98.2198 57.0108 97.6227C56.9203 97.0256 56.8751 96.3334 56.8751 95.5463C56.8751 94.7501 56.9203 94.0489 57.0108 93.4427C57.1103 92.8365 57.2868 92.3298 57.5401 91.9227C57.8025 91.5156 58.1599 91.2125 58.6122 91.0134C59.0646 90.8053 59.6437 90.7013 60.3494 90.7013C60.6751 90.7013 60.9963 90.7194 61.313 90.7556C61.6387 90.7827 61.9418 90.8234 62.2222 90.8777C62.5118 90.9229 62.756 90.9682 62.9551 91.0134L62.9144 92.0041C62.7153 91.9679 62.471 91.9317 62.1815 91.8956C61.901 91.8594 61.6115 91.8322 61.313 91.8141C61.0144 91.787 60.743 91.7734 60.4987 91.7734C59.992 91.7734 59.5803 91.8458 59.2637 91.9906C58.956 92.1353 58.7163 92.366 58.5444 92.6827C58.3815 92.9903 58.2684 93.3839 58.2051 93.8634C58.1418 94.3339 58.1101 94.8948 58.1101 95.5463C58.1101 96.1887 58.1418 96.7496 58.2051 97.2291C58.2684 97.6996 58.3815 98.0887 58.5444 98.3963C58.7072 98.6948 58.947 98.921 59.2637 99.0748C59.5803 99.2196 59.9965 99.292 60.5122 99.292C60.8922 99.292 61.3084 99.2694 61.7608 99.2241C62.2132 99.1698 62.5977 99.1156 62.9144 99.0613L62.9551 100.066C62.738 100.111 62.4846 100.156 62.1951 100.201C61.9056 100.247 61.598 100.283 61.2722 100.31C60.9556 100.337 60.648 100.351 60.3494 100.351ZM64.5018 100.215V90.4977H65.6554V100.215H64.5018ZM69.7044 100.351C69.1254 100.351 68.6775 100.233 68.3609 99.9977C68.0533 99.7625 67.8406 99.396 67.723 98.8984C67.6144 98.3917 67.5602 97.7494 67.5602 96.9713V93.4291H68.7002V96.9577C68.7002 97.5367 68.7273 97.9982 68.7816 98.342C68.8449 98.6858 68.9716 98.9346 69.1616 99.0884C69.3606 99.2422 69.6502 99.3191 70.0302 99.3191C70.4102 99.3191 70.7585 99.2694 71.0752 99.1698C71.3918 99.0613 71.6452 98.9527 71.8352 98.8441V93.4291H72.9887V100.215H71.8352V99.7534C71.5456 99.9163 71.2335 100.057 70.8987 100.174C70.564 100.292 70.1659 100.351 69.7044 100.351ZM77.1169 100.364C76.6464 100.364 76.2709 100.292 75.9905 100.147C75.71 100.002 75.5064 99.7534 75.3797 99.4006C75.2621 99.0387 75.2033 98.532 75.2033 97.8806V94.4198H74.2669V93.4291H75.2033V91.3934H76.3569V93.4291H78.4333V94.4198H76.3569V97.5548C76.3569 98.0163 76.375 98.3782 76.4112 98.6406C76.4564 98.8939 76.5424 99.0748 76.669 99.1834C76.8047 99.2829 77.0128 99.3327 77.2933 99.3327C77.3838 99.3327 77.4969 99.3282 77.6326 99.3191C77.7774 99.3101 77.9221 99.301 78.0669 99.292C78.2207 99.2739 78.3519 99.2603 78.4605 99.2513L78.5283 100.215C78.3293 100.242 78.0895 100.274 77.809 100.31C77.5376 100.346 77.3069 100.364 77.1169 100.364ZM82.1867 100.351C81.4628 100.351 80.8928 100.233 80.4767 99.9977C80.0695 99.7534 79.78 99.3644 79.6081 98.8306C79.4452 98.2967 79.3638 97.591 79.3638 96.7134C79.3638 95.8901 79.4588 95.2251 79.6488 94.7184C79.8388 94.2117 80.1419 93.8498 80.5581 93.6327C80.9833 93.4065 81.5307 93.2934 82.2002 93.2934C82.3631 93.2934 82.5576 93.307 82.7838 93.3341C83.01 93.3522 83.2407 93.3794 83.4759 93.4156C83.7202 93.4427 83.9283 93.4698 84.1002 93.497L84.0595 94.447C83.8967 94.4289 83.7157 94.4108 83.5167 94.3927C83.3176 94.3746 83.1186 94.361 82.9195 94.352C82.7295 94.3339 82.5712 94.3248 82.4445 94.3248C81.9469 94.3248 81.5578 94.4063 81.2774 94.5691C81.0059 94.7229 80.8159 94.9717 80.7074 95.3156C80.5988 95.6594 80.5445 96.1253 80.5445 96.7134C80.5445 97.3558 80.5898 97.867 80.6802 98.247C80.7798 98.627 80.9652 98.9029 81.2367 99.0748C81.5081 99.2377 81.9107 99.3191 82.4445 99.3191C82.5712 99.3191 82.734 99.3146 82.9331 99.3056C83.1321 99.2875 83.3312 99.2694 83.5302 99.2513C83.7383 99.2332 83.9238 99.2196 84.0867 99.2106L84.1138 100.147C83.9328 100.183 83.7202 100.215 83.4759 100.242C83.2407 100.269 83.0055 100.292 82.7702 100.31C82.544 100.337 82.3495 100.351 82.1867 100.351ZM85.5996 100.215V90.4977H86.7396V93.782C86.9748 93.6734 87.2869 93.5648 87.676 93.4563C88.065 93.3477 88.436 93.2934 88.7888 93.2934C89.4131 93.2934 89.8926 93.4065 90.2274 93.6327C90.5622 93.8498 90.7884 94.2027 90.906 94.6913C91.0326 95.1798 91.096 95.8222 91.096 96.6184V100.215H89.9424V96.6727C89.9424 96.1027 89.9062 95.6458 89.8338 95.302C89.7705 94.9582 89.6438 94.7094 89.4538 94.5556C89.2638 94.4017 88.9653 94.3248 88.5581 94.3248C88.2324 94.3248 87.8976 94.3701 87.5538 94.4606C87.2191 94.542 86.9476 94.6234 86.7396 94.7048V100.215H85.5996Z" fill="black"/>
<path d="M57.5393 123.965V122.472H53.4679V121.115L55.5036 115.008H57.5936L55.3272 120.911H57.5393L57.6479 118.604L59.3851 118.577V120.911H60.2129V122.472H59.3851V123.965H57.5393ZM61.2805 123.965V121.956H63.1669V123.965H61.2805ZM67.6073 124.114C67.0011 124.114 66.4357 124.042 65.9109 123.897C65.3952 123.752 64.979 123.499 64.6623 123.137C64.3457 122.775 64.1873 122.277 64.1873 121.644C64.1873 121.192 64.2416 120.83 64.3502 120.558C64.4678 120.287 64.6307 120.056 64.8388 119.866C65.0468 119.676 65.2957 119.495 65.5852 119.323C65.1509 119.088 64.8342 118.817 64.6352 118.509C64.4361 118.202 64.3366 117.767 64.3366 117.206C64.3366 116.654 64.4723 116.207 64.7438 115.863C65.0242 115.519 65.4088 115.266 65.8973 115.103C66.3949 114.94 66.9649 114.858 67.6073 114.858C68.2497 114.858 68.8197 114.935 69.3173 115.089C69.824 115.243 70.2176 115.496 70.498 115.849C70.7876 116.193 70.9323 116.65 70.9323 117.22C70.9323 117.799 70.8328 118.238 70.6338 118.536C70.4347 118.826 70.0999 119.093 69.6295 119.337C69.9461 119.482 70.2085 119.649 70.4166 119.839C70.6338 120.02 70.7966 120.246 70.9052 120.518C71.0138 120.789 71.068 121.137 71.068 121.563C71.068 122.223 70.9097 122.739 70.593 123.11C70.2764 123.481 69.8557 123.743 69.3309 123.897C68.8152 124.042 68.2407 124.114 67.6073 124.114ZM67.6073 122.635C67.924 122.635 68.1999 122.599 68.4352 122.526C68.6795 122.445 68.8649 122.314 68.9916 122.133C69.1273 121.943 69.1952 121.685 69.1952 121.359C69.1952 121.106 69.1454 120.898 69.0459 120.735C68.9554 120.563 68.8242 120.423 68.6523 120.314C68.4895 120.206 68.3085 120.12 68.1095 120.056H67.0916C66.7749 120.156 66.5216 120.314 66.3316 120.531C66.1507 120.739 66.0602 121.029 66.0602 121.4C66.0602 121.698 66.1235 121.938 66.2502 122.119C66.3859 122.3 66.5714 122.431 66.8066 122.513C67.0418 122.594 67.3088 122.635 67.6073 122.635ZM67.0916 118.686H68.1095C68.408 118.568 68.6433 118.414 68.8152 118.224C68.9871 118.034 69.073 117.785 69.073 117.478C69.073 117.071 68.9464 116.777 68.693 116.596C68.4488 116.415 68.0914 116.324 67.6209 116.324C67.1595 116.324 66.8066 116.415 66.5623 116.596C66.318 116.777 66.1959 117.066 66.1959 117.464C66.1959 117.781 66.2728 118.034 66.4266 118.224C66.5804 118.414 66.8021 118.568 67.0916 118.686ZM73.4656 124.481L71.7556 124.033L75.6913 114.288L77.4013 114.736L73.4656 124.481ZM81.565 124.114C81.2212 124.114 80.8502 124.087 80.4521 124.033C80.0541 123.987 79.6695 123.929 79.2986 123.856C78.9276 123.784 78.611 123.721 78.3486 123.666L78.5114 122.282C78.7557 122.318 79.0452 122.363 79.38 122.418C79.7148 122.463 80.0586 122.499 80.4114 122.526C80.7643 122.553 81.0855 122.567 81.375 122.567C81.8364 122.567 82.2029 122.449 82.4743 122.214C82.7457 121.97 82.8814 121.617 82.8814 121.156C82.8814 120.839 82.8226 120.59 82.705 120.409C82.5964 120.228 82.4336 120.102 82.2164 120.029C82.0083 119.948 81.7641 119.907 81.4836 119.907C81.2664 119.907 81.0493 119.93 80.8321 119.975C80.615 120.011 80.4114 120.061 80.2214 120.124C80.0314 120.178 79.8776 120.237 79.76 120.301L78.5386 120.111L78.7557 115.008H84.3607V116.65H80.2214L80.045 118.645C80.1717 118.591 80.33 118.536 80.52 118.482C80.71 118.419 80.9136 118.364 81.1307 118.319C81.3569 118.274 81.5741 118.251 81.7821 118.251C82.4064 118.251 82.9357 118.337 83.37 118.509C83.8043 118.681 84.1345 118.966 84.3607 119.364C84.596 119.762 84.7136 120.305 84.7136 120.993C84.7136 121.707 84.5824 122.296 84.32 122.757C84.0667 123.209 83.7048 123.549 83.2343 123.775C82.7729 124.001 82.2164 124.114 81.565 124.114ZM85.9847 123.965V121.956H87.8712V123.965H85.9847ZM92.3387 124.114C91.7597 124.114 91.2575 124.037 90.8323 123.883C90.407 123.721 90.0542 123.463 89.7737 123.11C89.5023 122.748 89.2942 122.277 89.1494 121.698C89.0137 121.119 88.9458 120.409 88.9458 119.568C88.9458 118.699 89.0137 117.962 89.1494 117.356C89.2942 116.749 89.5068 116.265 89.7873 115.903C90.0678 115.532 90.4161 115.266 90.8323 115.103C91.2575 114.94 91.7551 114.858 92.3251 114.858C92.9132 114.858 93.4199 114.94 93.8451 115.103C94.2704 115.266 94.6187 115.532 94.8901 115.903C95.1706 116.265 95.3742 116.749 95.5008 117.356C95.6366 117.953 95.7044 118.69 95.7044 119.568C95.7044 120.681 95.5823 121.572 95.338 122.241C95.1028 122.902 94.7363 123.381 94.2387 123.68C93.7411 123.969 93.1078 124.114 92.3387 124.114ZM92.3387 122.54C92.592 122.54 92.8092 122.499 92.9901 122.418C93.1801 122.327 93.3385 122.173 93.4651 121.956C93.5918 121.739 93.6823 121.436 93.7366 121.047C93.7999 120.658 93.8316 120.165 93.8316 119.568C93.8316 118.934 93.7999 118.414 93.7366 118.007C93.6823 117.6 93.5963 117.283 93.4787 117.057C93.3611 116.822 93.2073 116.659 93.0173 116.568C92.8273 116.469 92.6011 116.419 92.3387 116.419C92.0763 116.419 91.8501 116.469 91.6601 116.568C91.4701 116.659 91.3118 116.817 91.1851 117.043C91.0675 117.27 90.977 117.591 90.9137 118.007C90.8504 118.414 90.8187 118.939 90.8187 119.581C90.8187 120.178 90.8504 120.672 90.9137 121.061C90.9861 121.45 91.0856 121.753 91.2123 121.97C91.3389 122.178 91.4928 122.327 91.6737 122.418C91.8637 122.499 92.0854 122.54 92.3387 122.54Z" fill="#000E23"/>
</g>
<defs>
<clipPath id="clip0_4226_12492">
<rect width="144.762" height="190" fill="white" transform="translate(0.761719)"/>
</clipPath>
</defs>
</svg>
