<svg width="48" height="48" viewBox="0 0 48 48" fill="none" xmlns="http://www.w3.org/2000/svg">
<path d="M3.04844 19.9017L11.8484 11.0017C12.5151 10.335 13.2901 9.87668 14.1734 9.62668C15.0568 9.37668 15.9818 9.33502 16.9484 9.50168L20.8984 10.2017C18.8984 12.4683 17.2568 14.6433 15.9734 16.7267C14.6901 18.81 13.4984 21.2017 12.3984 23.9017L3.04844 19.9017ZM14.7484 24.7017C16.0151 21.735 17.3818 19.1267 18.8484 16.8767C20.3151 14.6267 21.9484 12.6017 23.7484 10.8017C26.6818 7.86835 30.1568 5.67668 34.1734 4.22668C38.1901 2.77668 42.0318 2.30168 45.6984 2.80168C46.1984 6.46835 45.7401 10.31 44.3234 14.3267C42.9068 18.3434 40.7318 21.8017 37.7984 24.7017C35.9984 26.535 33.9401 28.1933 31.6234 29.6767C29.3068 31.16 26.6984 32.535 23.7984 33.8017L14.7484 24.7017ZM30.3984 18.0517C31.0651 18.7183 31.8484 19.0517 32.7484 19.0517C33.6484 19.0517 34.4318 18.7183 35.0984 18.0517C35.7318 17.4184 36.0484 16.6517 36.0484 15.7517C36.0484 14.8517 35.7318 14.0683 35.0984 13.4017C34.4318 12.8017 33.6484 12.5017 32.7484 12.5017C31.8484 12.5017 31.0651 12.8017 30.3984 13.4017C29.7651 14.0683 29.4484 14.8517 29.4484 15.7517C29.4484 16.6517 29.7651 17.4184 30.3984 18.0517ZM28.5984 45.4517L24.5484 36.1017C27.2484 35.0017 29.6318 33.81 31.6984 32.5267C33.7651 31.2433 35.9651 29.6017 38.2984 27.6017L38.9984 31.5517C39.1651 32.5517 39.1151 33.4933 38.8484 34.3767C38.5818 35.26 38.1151 36.0183 37.4484 36.6517L28.5984 45.4517ZM6.69844 32.0017C8.0651 30.635 9.73177 29.96 11.6984 29.9767C13.6651 29.9933 15.3318 30.6683 16.6984 32.0017C18.0318 33.335 18.7151 34.9933 18.7484 36.9767C18.7818 38.96 18.1151 40.635 16.7484 42.0017C15.5818 43.135 13.8484 44.035 11.5484 44.7017C9.24844 45.3683 6.19844 45.885 2.39844 46.2517C2.79844 42.4517 3.33177 39.41 3.99844 37.1267C4.6651 34.8433 5.5651 33.135 6.69844 32.0017Z" fill="#26B5B5"/>
</svg>
