<svg width="34" height="34" viewBox="0 0 34 34" fill="none" xmlns="http://www.w3.org/2000/svg">
<path d="M32.2501 33.3008L19.4501 20.5008C18.4501 21.4008 17.2918 22.0841 15.9751 22.5508C14.6584 23.0174 13.3334 23.2508 12.0001 23.2508C8.83343 23.2508 6.14176 22.1508 3.9251 19.9508C1.70843 17.7508 0.600098 15.0674 0.600098 11.9008C0.600098 8.73411 1.70843 6.05078 3.9251 3.85078C6.14176 1.65078 8.83343 0.550781 12.0001 0.550781C15.1334 0.550781 17.8084 1.65078 20.0251 3.85078C22.2418 6.05078 23.3501 8.71745 23.3501 11.8508C23.3501 13.2508 23.1084 14.6091 22.6251 15.9258C22.1418 17.2424 21.4501 18.4008 20.5501 19.4008L33.4001 32.1508L32.2501 33.3008ZM12.0001 21.7008C14.7334 21.7008 17.0584 20.7591 18.9751 18.8758C20.8918 16.9924 21.8501 14.6674 21.8501 11.9008C21.8501 9.13411 20.8918 6.80078 18.9751 4.90078C17.0584 3.00078 14.7334 2.05078 12.0001 2.05078C9.23343 2.05078 6.9001 3.00078 5.0001 4.90078C3.1001 6.80078 2.1501 9.13411 2.1501 11.9008C2.1501 14.6674 3.1001 16.9924 5.0001 18.8758C6.9001 20.7591 9.23343 21.7008 12.0001 21.7008Z" fill="#1AE3E3"/>
<path d="M9.75 15.9008L10.8 12.7008L8 10.5508H11.3L12.45 7.30078L13.5 10.5508H16.85L14.1 12.7008L15.1 15.9008L12.45 13.9008L9.75 15.9008Z" fill="#C7FF50"/>
</svg>
