<svg width="48" height="48" viewBox="0 0 48 48" fill="none" xmlns="http://www.w3.org/2000/svg">
<path d="M33.5419 28.8086H32.3594V31.1737H33.5419C34.194 31.1737 34.7245 30.6432 34.7245 29.9912C34.7245 29.3391 34.194 28.8086 33.5419 28.8086Z" fill="#26B5B5"/>
<path d="M17.6209 12.0954H44.1872V5H12.8906L17.6209 12.0954ZM37.0917 7.36515H39.4569V9.73029H37.0917V7.36515ZM32.3614 7.36515H34.7266V9.73029H32.3614V7.36515ZM27.6312 7.36515H29.9963V9.73029H27.6312V7.36515Z" fill="#26B5B5"/>
<path d="M14.6094 28.7964H17.0016L15.8055 24.9688L14.6094 28.7964Z" fill="#26B5B5"/>
<path d="M16.3534 14.4606L10.0463 5H3.82031V43H44.1855V14.4606H16.3534ZM18.5754 33.8384L17.739 31.1617H13.8685L13.032 33.8384L10.7745 33.1329L14.343 21.7137H17.2644L20.833 33.1329L18.5754 33.8384ZM25.0538 36.0829L22.7208 35.6941L25.4748 19.1702L27.8078 19.559L25.0538 36.0829ZM37.09 29.9917C37.09 31.9479 35.4985 33.5394 33.5423 33.5394H29.9946V21.7137H33.5423C35.4985 21.7137 37.09 23.3052 37.09 25.2614C37.09 26.1692 36.7473 26.9985 36.1845 27.6266C36.7473 28.2547 37.09 29.0839 37.09 29.9917Z" fill="#26B5B5"/>
<path d="M33.5419 24.0781H32.3594V26.4433H33.5419C34.194 26.4433 34.7245 25.9128 34.7245 25.2607C34.7245 24.6086 34.194 24.0781 33.5419 24.0781Z" fill="#26B5B5"/>
</svg>
