<svg width="209" height="209" viewBox="0 0 209 209" fill="none" xmlns="http://www.w3.org/2000/svg">
<path d="M104.5 209C162.214 209 209 162.214 209 104.5C209 46.7862 162.214 0 104.5 0C46.7862 0 0 46.7862 0 104.5C0 162.214 46.7862 209 104.5 209Z" fill="#E1F8FF"/>
<path d="M106.411 49.43C106.411 52.0418 106.733 54.6069 107.332 57.0787L100.657 60.9031L108.621 75.1744L115.296 71.3501C117.091 73.169 119.07 74.7547 121.326 76.1072L119.3 83.616L134.906 88L136.931 80.4912C139.509 80.4912 142.041 80.1647 144.48 79.5584L148.255 86.321L162.341 78.2526L158.566 71.49C160.362 69.6711 161.927 67.6657 163.262 65.3804L170.673 67.4325L175 51.622L167.589 49.57C167.589 46.9582 167.267 44.3931 166.668 41.9213L173.343 38.0969L165.379 23.8256L158.704 27.6499C156.909 25.831 154.93 24.2453 152.674 22.8928L154.7 15.384L139.094 11L137.069 18.5088C134.491 18.5088 131.959 18.8353 129.52 19.4415L125.745 12.679L111.659 20.7474L115.434 27.51C113.638 29.3289 112.073 31.3343 110.738 33.6196L103.327 31.5675L99 47.3779L106.411 49.43ZM120.727 44.9528C123.213 35.8583 132.466 30.5415 141.442 33.06C150.419 35.5784 155.666 44.9528 153.181 54.0472C150.695 63.1417 141.442 68.4585 132.466 65.94C123.535 63.4216 118.242 54.0472 120.727 44.9528Z" fill="white"/>
<path d="M48.8498 140.43C48.8498 141.966 49.026 143.477 49.4038 144.938L45.4 147.204L50.1592 155.614L54.1629 153.348C55.2205 154.406 56.4292 155.363 57.7386 156.143L56.5047 160.575L65.8216 163.143L67.0554 158.712C68.5915 158.712 70.1023 158.535 71.5628 158.158L73.8291 162.161L82.2394 157.402L79.9732 153.399C81.0307 152.341 81.9876 151.132 82.7682 149.823L87.2 151.057L89.7684 141.74L85.3366 140.506C85.3366 138.97 85.1604 137.459 84.7827 135.999L88.7864 133.732L84.0272 125.322L80.0235 127.588C78.9659 126.531 77.7572 125.574 76.4478 124.793L77.6817 120.361L68.3648 117.793L67.131 122.225C65.595 122.225 64.0841 122.401 62.6236 122.779L60.3574 118.775L51.947 123.534L54.2133 127.538C53.1557 128.596 52.1988 129.804 51.4182 131.114L46.9864 129.88L44.418 139.197L48.8498 140.43ZM57.4112 137.786C58.8969 132.448 64.4115 129.301 69.775 130.786C75.1133 132.272 78.2609 137.786 76.7752 143.15C75.2895 148.513 69.775 151.636 64.4115 150.15C59.0732 148.665 55.9256 143.125 57.4112 137.786Z" fill="white"/>
<path d="M178.555 118.269L206.38 128.492C206.38 128.492 195.779 80.3216 156.119 79.9691C130.762 79.7425 71.4615 88.6816 71.4615 88.6816L64.7383 119.881L107.117 116.003L107.193 164.501H184.019L178.555 118.269Z" fill="#1AE3E3"/>
<path d="M132.575 81.2265C132.575 81.2265 122.1 120.458 122.654 164.474H159.645C159.645 164.474 148.54 104.997 154.558 79.8164C154.558 79.8416 145.468 79.9423 132.575 81.2265Z" fill="white"/>
<path d="M122.656 146.141C122.555 146.141 122.454 146.091 122.429 145.99L110.77 116.604C110.72 116.504 110.77 116.378 110.846 116.302L123.713 106.733L114.144 101.496C114.094 101.471 114.044 101.42 114.019 101.345C113.993 101.269 114.019 101.219 114.044 101.143L124.469 82.3081C124.544 82.1822 124.695 82.1318 124.821 82.2074C124.947 82.2829 124.997 82.434 124.922 82.5599L114.623 101.168L124.292 106.482C124.368 106.532 124.418 106.607 124.418 106.683C124.418 106.759 124.393 106.859 124.318 106.91L111.299 116.604L122.882 145.789C122.933 145.915 122.882 146.066 122.731 146.116C122.706 146.141 122.681 146.141 122.656 146.141Z" fill="#FFF3F6"/>
<path d="M159.646 141.61C159.621 141.61 159.57 141.61 159.545 141.585C159.419 141.534 159.369 141.383 159.419 141.257L170.574 116.706L158.387 105.576C158.337 105.526 158.286 105.425 158.311 105.35C158.337 105.274 158.387 105.199 158.462 105.148L168.56 100.515L159.847 80.4209C159.797 80.295 159.847 80.1439 159.973 80.0935C160.099 80.0432 160.25 80.0935 160.301 80.2194L169.114 100.54C169.164 100.666 169.114 100.817 168.988 100.868L159.016 105.451L171.078 116.454C171.154 116.53 171.179 116.656 171.128 116.757L159.898 141.459C159.822 141.534 159.747 141.61 159.646 141.61Z" fill="#FFF3F6"/>
<path d="M86.5709 107.644C92.7654 103.212 106.237 91.8049 110.165 88.607C110.568 88.2796 111.298 87.6753 112.003 86.6932C114.622 83.0168 112.734 79.6678 113.716 74.5309C114.849 68.7142 118.777 66.0702 117.82 64.8867C117.165 64.0558 115.403 64.6349 112.532 67.0271C114.496 64.9623 117.065 62.0413 115.906 60.9585C114.521 59.775 111.122 62.8471 109.158 64.8112C111.55 62.4442 112.104 60.4549 111.298 60.0017C110.065 59.2966 107.773 60.7067 104.751 63.9802C106.212 61.1348 106.136 60.2283 105.356 60.0017C103.895 59.5988 101.478 62.3183 99.6901 65.063C97.6756 68.1602 97.1972 71.2323 96.9454 73.1964C82.3909 81.0276 73.7539 86.945 73.7539 86.945L86.5709 107.644Z" fill="#F7AFBC"/>
<path d="M111.725 79.0392C116.534 75.6902 118.977 75.5139 119.506 76.2945C120.362 77.6039 117.416 82.1365 110.969 87.9029C110.944 85.41 111.725 81.5321 111.725 79.0392Z" fill="#FABCC6"/>
<path d="M113.06 84.1511C113.035 84.1511 113.035 84.1511 113.01 84.1511C112.884 84.126 112.783 84 112.809 83.849C113.06 82.6151 113.01 81.3309 112.985 79.9711C112.96 79.3164 112.934 78.6366 112.934 77.9315C112.934 77.8056 113.06 77.6797 113.186 77.6797C113.337 77.6797 113.438 77.8056 113.438 77.9315C113.438 78.6366 113.463 79.2913 113.488 79.946C113.539 81.3309 113.589 82.6403 113.312 83.9245C113.287 84.0756 113.186 84.1511 113.06 84.1511Z" fill="#41193E"/>
<path d="M110.267 72.1389C110.242 72.1389 110.217 72.1389 110.217 72.1389C110.091 72.1137 109.99 71.9626 110.041 71.8367C110.217 71.1317 110.443 70.4266 110.746 69.7719C111.174 68.8151 111.728 67.9085 112.408 67.0776C112.483 66.9769 112.659 66.9517 112.76 67.0524C112.861 67.1279 112.886 67.3042 112.785 67.4049C112.156 68.1855 111.602 69.0669 111.199 69.9734C110.922 70.6029 110.695 71.2828 110.544 71.9626C110.494 72.0634 110.393 72.1389 110.267 72.1389Z" fill="#41193E"/>
<path d="M107.22 69.6467C107.195 69.6467 107.17 69.6467 107.17 69.6467C107.044 69.6215 106.943 69.4705 106.994 69.3446C107.17 68.6395 107.397 67.9344 107.699 67.2797C108.127 66.3229 108.681 65.4164 109.361 64.5854C109.436 64.4847 109.613 64.4595 109.713 64.5602C109.814 64.6358 109.839 64.812 109.738 64.9127C109.109 65.6933 108.555 66.5747 108.152 67.4812C107.875 68.1107 107.648 68.7906 107.497 69.4705C107.422 69.546 107.321 69.6467 107.22 69.6467Z" fill="#41193E"/>
<path d="M102.435 69.0178C102.41 69.0178 102.385 69.0178 102.385 69.0178C102.259 68.9926 102.158 68.8415 102.209 68.7156C102.385 68.0106 102.611 67.3055 102.914 66.6508C103.342 65.694 103.896 64.7875 104.576 63.9565C104.651 63.8558 104.827 63.8306 104.928 63.9313C105.029 64.0068 105.054 64.1831 104.953 64.2838C104.324 65.0644 103.77 65.9458 103.367 66.8523C103.09 67.4818 102.863 68.1617 102.712 68.8415C102.637 68.9423 102.536 69.0178 102.435 69.0178Z" fill="#41193E"/>
<path d="M103.57 83.3944C103.519 83.3944 103.469 83.3692 103.419 83.3441C103.318 83.2685 103.293 83.0923 103.368 82.9915C105.483 80.3224 104.476 74.833 104.476 74.7826C104.451 74.6567 104.552 74.5056 104.678 74.4804C104.829 74.4553 104.955 74.556 104.98 74.6819C105.03 74.9085 106.037 80.4483 103.771 83.2937C103.721 83.3441 103.645 83.3944 103.57 83.3944Z" fill="#41193E"/>
<path d="M89.1662 74.707L105.534 98.0747C105.534 98.0747 68.1403 129.903 56.6075 116.633C41.5495 99.3338 89.1662 74.707 89.1662 74.707Z" fill="#1AE3E3"/>
<path d="M174.776 116.806C167.172 116.63 149.545 117.612 144.484 117.788C143.955 117.813 143.023 117.839 141.84 118.191C137.534 119.551 137.03 123.353 133.153 126.853C128.746 130.807 124.037 130.555 124.087 132.066C124.113 133.123 125.875 133.728 129.602 133.526C126.782 133.979 122.98 134.785 123.256 136.346C123.659 138.134 128.217 137.731 130.987 137.329C127.663 137.782 126.026 139.041 126.379 139.872C126.958 141.181 129.627 141.433 133.983 140.652C131.113 142.037 130.609 142.793 131.113 143.473C132.019 144.681 135.62 143.951 138.692 142.843C142.167 141.584 144.408 139.419 145.793 138.008C162.136 140.526 172.586 141.03 172.586 141.03L174.776 116.806Z" fill="#F7AFBC"/>
<path d="M137.482 124.486C131.615 124.234 129.576 122.925 129.626 121.993C129.752 120.432 134.813 118.594 143.425 117.863C141.939 119.853 138.968 122.471 137.482 124.486Z" fill="#F7AFBC"/>
<path d="M135.644 124.688C135.593 124.688 135.543 124.662 135.493 124.637C135.392 124.562 135.367 124.385 135.442 124.285C135.87 123.731 136.248 123.177 136.626 122.648C137.432 121.515 138.187 120.432 139.169 119.576C139.27 119.475 139.421 119.5 139.522 119.601C139.622 119.702 139.597 119.853 139.496 119.954C138.565 120.785 137.809 121.817 137.029 122.95C136.651 123.479 136.273 124.033 135.845 124.587C135.795 124.662 135.719 124.688 135.644 124.688Z" fill="#41193E"/>
<path d="M129.679 133.625C129.578 133.625 129.452 133.549 129.427 133.423C129.402 133.297 129.477 133.146 129.603 133.121C130.585 132.869 131.542 132.517 132.423 132.013C133.028 131.686 133.607 131.283 134.161 130.83C134.261 130.729 134.438 130.754 134.513 130.855C134.614 130.956 134.589 131.132 134.488 131.207C133.934 131.661 133.33 132.089 132.675 132.441C131.743 132.945 130.761 133.348 129.729 133.6C129.729 133.625 129.704 133.625 129.679 133.625Z" fill="#41193E"/>
<path d="M130.608 137.48C130.507 137.48 130.382 137.405 130.356 137.279C130.331 137.153 130.407 137.002 130.533 136.977C131.515 136.725 132.472 136.372 133.353 135.869C133.957 135.541 134.536 135.138 135.09 134.685C135.191 134.584 135.367 134.61 135.443 134.71C135.544 134.811 135.518 134.987 135.418 135.063C134.864 135.516 134.259 135.944 133.605 136.297C132.673 136.8 131.691 137.203 130.659 137.455C130.659 137.48 130.633 137.48 130.608 137.48Z" fill="#41193E"/>
<path d="M134.057 140.855C133.957 140.855 133.831 140.78 133.806 140.654C133.78 140.528 133.856 140.377 133.982 140.352C134.964 140.1 135.921 139.747 136.802 139.244C137.406 138.916 137.986 138.513 138.54 138.06C138.64 137.959 138.817 137.985 138.892 138.085C138.993 138.186 138.968 138.362 138.867 138.438C138.313 138.916 137.709 139.319 137.054 139.672C136.122 140.175 135.14 140.578 134.108 140.83C134.108 140.855 134.083 140.855 134.057 140.855Z" fill="#41193E"/>
<path d="M152.668 143.879L155.816 114.468C155.816 114.468 206.807 107.871 206.378 130.76C206.076 146.221 152.668 143.879 152.668 143.879Z" fill="#1AE3E3"/>
<path d="M159.264 144.532C158.282 144.532 157.275 144.532 156.267 144.507C156.116 144.507 156.016 144.381 156.016 144.255C156.016 144.129 156.142 144.003 156.267 144.003C165.458 144.129 173.919 143.701 181.398 142.719C181.524 142.694 181.65 142.794 181.675 142.945C181.7 143.071 181.599 143.197 181.448 143.222C174.8 144.078 167.347 144.532 159.264 144.532Z" fill="white"/>
<path d="M155.486 117.538H155.461C155.335 117.513 155.234 117.387 155.234 117.261L155.562 114.441C155.587 114.315 155.662 114.24 155.788 114.214C156.04 114.189 179.962 111.168 194.768 116.531C194.894 116.581 194.97 116.733 194.919 116.858C194.869 116.984 194.718 117.06 194.592 117.01C180.591 111.948 158.357 114.416 156.04 114.693L155.738 117.337C155.738 117.438 155.612 117.538 155.486 117.538Z" fill="white"/>
<path d="M172.89 113.838C172.815 113.838 172.764 113.813 172.714 113.763L168.685 109.608C168.584 109.507 168.584 109.356 168.685 109.255C168.786 109.155 168.937 109.155 169.037 109.255L173.066 113.41C173.167 113.511 173.167 113.662 173.066 113.763C173.016 113.813 172.94 113.838 172.89 113.838Z" fill="white"/>
<path d="M144.611 89.8925C148.211 88.9104 150.327 85.1837 149.345 81.5828L145.593 67.8845C144.611 64.2837 140.884 62.1685 137.283 63.1505C133.682 64.1326 131.567 67.8593 132.549 71.4602L136.301 85.1585C137.308 88.7593 141.01 90.8745 144.611 89.8925Z" fill="#F7AFBC"/>
<path d="M131.163 52.6978C130.635 52.8489 125.699 54.3094 124.088 58.716C122.879 61.9895 123.861 65.2127 126.278 70.3999C129.149 76.4936 131.717 79.7419 133.984 80.2707C137.584 81.1017 144.434 73.4216 145.491 66.6983C146.272 61.8384 144.031 56.8778 140.052 53.9317C136.124 50.9856 131.491 52.5971 131.163 52.6978Z" fill="#F7AFBC"/>
<path d="M138.29 49.3489C139.776 48.6187 143.125 48.8705 145.164 50.9353C149.496 55.2916 149.974 59.7485 146.65 66.1696C145.693 64.2055 142.898 62.2666 141.413 61.2342C139.549 59.9752 138.542 58.414 138.315 56.2988C132.02 59.396 129.704 60.1011 129.401 59.6226C129.099 59.119 130.862 57.2053 130.862 57.2053C130.862 57.2053 126.631 61.1838 125.977 60.6802C125.775 60.5291 125.448 59.8996 126.757 57.4571C123.559 62.04 123.031 62.0148 122.754 61.8889C121.948 61.5112 121.469 57.6334 122.88 53.8311C123.66 51.6655 125.7 49.5755 128.419 48.392C133.279 46.2769 137.258 48.115 138.29 49.3489Z" fill="#003C4F"/>
<path d="M147.831 63.9206C147.982 61.7704 146.631 59.9239 144.814 59.7962C142.997 59.6685 141.401 61.3081 141.25 63.4583C141.099 65.6085 142.45 67.4551 144.267 67.5827C146.084 67.7104 147.68 66.0708 147.831 63.9206Z" fill="#FABCC6"/>
<path d="M146.148 64.433C146.123 64.433 146.098 64.433 146.098 64.433C145.972 64.4078 145.871 64.2568 145.921 64.1309C145.947 64.005 145.972 63.9042 145.972 63.7783C145.997 63.2999 145.871 62.8466 145.619 62.5193C145.367 62.1919 145.04 61.9905 144.662 61.9653C144.486 61.9401 144.285 61.9905 144.108 62.066C143.982 62.1164 143.831 62.066 143.781 61.9401C143.731 61.8142 143.781 61.6632 143.907 61.6128C144.159 61.5121 144.411 61.4617 144.688 61.4869C145.216 61.5121 145.695 61.7891 146.022 62.2423C146.349 62.6956 146.501 63.2495 146.45 63.8539C146.45 64.005 146.425 64.156 146.375 64.2819C146.375 64.3575 146.274 64.433 146.148 64.433Z" fill="#41193E"/>
<path d="M130.384 72.0372C130.334 72.0372 130.284 72.012 130.233 71.9868C129.856 71.735 129.654 71.4328 129.579 71.0803C129.503 70.7026 129.654 70.4256 129.805 70.1234C129.906 69.922 130.007 69.6954 130.082 69.4184C130.183 69.0658 130.183 68.663 130.082 68.2601C130.057 68.1342 130.133 67.9831 130.284 67.9579C130.41 67.9327 130.561 68.0083 130.586 68.1593C130.687 68.6378 130.687 69.1162 130.561 69.5443C130.485 69.8968 130.359 70.1486 130.233 70.3501C130.082 70.6271 130.007 70.8033 130.057 71.0048C130.107 71.2062 130.259 71.4077 130.51 71.5839C130.636 71.6595 130.661 71.8105 130.561 71.9365C130.536 72.012 130.46 72.0372 130.384 72.0372Z" fill="#41193E"/>
<path d="M135.318 80.4969C135.192 80.4969 135.092 80.4214 135.066 80.2955C135.041 80.1696 135.142 80.0185 135.268 80.0185C142.948 78.7595 144.157 70.1225 144.182 70.0469C144.207 69.921 144.333 69.8203 144.459 69.8203C144.585 69.8455 144.685 69.9714 144.685 70.0973C144.685 70.198 143.401 79.1875 135.369 80.4969C135.343 80.4969 135.318 80.4969 135.318 80.4969Z" fill="#41193E"/>
<path d="M133.984 74.5063C134.815 74.9596 135.848 74.6574 136.301 73.8265C136.754 72.9955 136.452 71.9631 135.621 71.5098C134.79 71.0566 135.243 72.1897 134.79 72.9955C134.362 73.8265 133.153 74.0531 133.984 74.5063Z" fill="#41193E"/>
<path d="M137.938 56.401C131.642 53.4801 126.153 55.419 124.491 55.7967C122.804 54.034 122.678 52.498 122.653 51.944C122.603 48.7209 126.203 44.9438 131.743 44.1128C131.365 44.3143 129.754 45.8251 129.703 46.4798C131.189 44.8431 132.826 44.4402 133.632 44.2387C137.384 43.2567 141.74 45.3467 144.61 49.7281C144.359 49.5015 143.074 48.6202 142.017 48.5698C142.747 48.9727 143.503 49.5015 144.258 50.2066C147.481 53.2786 147.884 57.4586 147.959 58.9695C147.003 58.214 143.1 55.2679 137.938 56.401Z" fill="#003C4F"/>
<path d="M129.702 54.5386C129.652 54.5386 129.627 54.5386 129.576 54.5134C129.501 54.463 129.425 54.3623 129.45 54.2867C129.501 53.5061 129.727 52.3227 130.583 51.2147C131.364 50.1823 132.296 49.6283 132.976 49.3513C133.101 49.301 133.253 49.3513 133.303 49.4772C133.353 49.6031 133.303 49.7542 133.177 49.8046C132.573 50.0564 131.717 50.56 131.011 51.4917C130.432 52.2723 130.155 53.0781 130.055 53.7328C130.936 53.1033 131.893 52.5241 132.85 52.0457C133.781 51.5924 134.738 51.2147 135.72 50.9125C135.846 50.8622 135.997 50.9377 136.022 51.0888C136.073 51.2147 135.997 51.3658 135.846 51.391C134.889 51.668 133.932 52.0457 133.051 52.4737C131.918 53.0277 130.86 53.6824 129.853 54.4378C129.828 54.5134 129.778 54.5386 129.702 54.5386Z" fill="#602960"/>
<path d="M136.556 66.2482C136.632 67.0036 136.254 67.6583 135.725 67.7087C135.196 67.759 134.718 67.1799 134.642 66.4245C134.567 65.669 134.945 65.0144 135.473 64.964C135.977 64.9136 136.481 65.4928 136.556 66.2482Z" fill="#41193E"/>
<path d="M128.419 67.1545C128.495 67.9099 128.117 68.5646 127.588 68.6149C127.06 68.6653 126.581 68.0861 126.506 67.3307C126.43 66.5753 126.808 65.9206 127.337 65.8702C127.84 65.8199 128.344 66.399 128.419 67.1545Z" fill="#41193E"/>
<path d="M125.349 63.5035C125.299 63.5035 125.223 63.4783 125.173 63.428C125.072 63.3272 125.072 63.1762 125.148 63.0754C125.399 62.7984 125.676 62.597 125.979 62.4207C127.137 61.766 128.144 62.1689 128.32 62.2696C128.446 62.32 128.497 62.4711 128.446 62.597C128.396 62.7229 128.245 62.7733 128.119 62.7229C127.968 62.6474 127.162 62.3452 126.23 62.8488C125.979 62.9999 125.727 63.1762 125.525 63.4028C125.475 63.4783 125.425 63.5035 125.349 63.5035Z" fill="#41193E"/>
<path d="M133.33 62.4723C133.279 62.4723 133.204 62.4471 133.153 62.3967C133.053 62.296 133.053 62.1449 133.128 62.0442C133.38 61.7672 133.657 61.5657 133.959 61.3895C135.117 60.7348 136.125 61.1377 136.326 61.2384C136.452 61.2888 136.502 61.4398 136.452 61.5657C136.402 61.6917 136.25 61.742 136.125 61.6917C135.973 61.6161 135.168 61.3139 134.236 61.8176C133.984 61.9686 133.732 62.1449 133.531 62.3715C133.455 62.4219 133.38 62.4723 133.33 62.4723Z" fill="#41193E"/>
<path d="M37.1905 118.72L53.1041 120.901L58.2636 106.117L49.5892 115.719L37.1905 118.72Z" fill="#95C7D7"/>
<path d="M35.7399 114.643L43.2528 100.914L58.2555 106.151L45.1783 106.868L35.7399 114.643Z" fill="#95C7D7"/>
<path d="M99.8685 127.31C104.275 134.942 106.258 143.916 105.448 152.787C104.566 162.338 100.508 171.427 93.99 178.418C93.9062 178.524 93.7376 178.534 93.6402 178.416C93.5336 178.332 93.5235 178.164 93.6418 178.066C107.008 163.749 108.98 142.286 98.4285 125.873C89.8298 112.49 73.9983 104.912 58.1111 106.554C57.9769 106.573 57.8577 106.467 57.8384 106.333C57.819 106.199 57.9247 106.08 58.0589 106.06C65.9635 105.247 73.9435 106.63 81.1205 110.046C88.4006 113.49 94.5338 118.875 98.8647 125.621C99.1794 126.166 99.5286 126.721 99.8685 127.31Z" fill="white"/>
<path d="M35.3003 137.668L40.8149 136.258C39.8328 132.481 39.6314 128.654 40.1602 124.826C40.5883 121.855 41.4444 118.984 42.7538 116.265L37.6169 113.797C36.0557 117.045 35.0233 120.495 34.5197 124.02C33.8902 128.603 34.142 133.186 35.3003 137.668Z" fill="#4F96AC"/>
<path d="M40.6145 122.964H40.5893L34.8985 122.234C34.7726 122.209 34.6719 122.083 34.6719 121.957C34.6971 121.831 34.823 121.73 34.9489 121.73L40.6397 122.461C40.7656 122.486 40.8663 122.612 40.8663 122.738C40.8412 122.864 40.7404 122.964 40.6145 122.964Z" fill="#41193E"/>
<path d="M40.187 125.255L34.4961 124.953C34.345 124.953 34.2443 124.827 34.2695 124.676C34.2695 124.525 34.3954 124.424 34.5465 124.449L40.2373 124.751C40.3884 124.751 40.4891 124.877 40.4639 125.028C40.4388 125.154 40.3129 125.255 40.187 125.255Z" fill="#41193E"/>
<path d="M34.2948 127.472C34.1689 127.472 34.043 127.371 34.043 127.22C34.043 127.069 34.1437 126.968 34.2948 126.968L39.9856 126.867C40.1115 126.867 40.2374 126.968 40.2374 127.119C40.2374 127.27 40.1367 127.371 39.9856 127.371L34.2948 127.472Z" fill="#41193E"/>
<path d="M48.7484 128.754H11.3047V172.291H48.7484V128.754Z" fill="#B2EB38"/>
<path d="M59.8539 128.754H22.4102V172.291H59.8539V128.754Z" fill="#C7FF50"/>
<path d="M60.733 172.315H30.3651C30.214 172.315 30.1133 172.215 30.1133 172.064V137.994C30.1133 137.843 30.214 137.742 30.3651 137.742H60.7582C60.9093 137.742 61.01 137.843 61.01 137.994V172.064C60.9848 172.189 60.8841 172.315 60.733 172.315ZM30.6169 171.812H60.5064V138.246H30.6169V171.812Z" fill="white"/>
<path d="M16.0397 145.549C17.2987 145.549 18.306 144.541 18.306 143.282V137.239C18.306 135.98 17.2987 134.973 16.0397 134.973C14.7807 134.973 13.7734 135.98 13.7734 137.239V143.282C13.7734 144.541 14.8058 145.549 16.0397 145.549Z" fill="white"/>
</svg>
