<svg width="209" height="213" viewBox="0 0 209 213" fill="none" xmlns="http://www.w3.org/2000/svg">
<path d="M104.637 212.696C162.275 212.696 209 165.971 209 108.332C209 50.6939 162.275 3.96875 104.637 3.96875C46.9985 3.96875 0.273438 50.6939 0.273438 108.332C0.273438 165.971 46.9985 212.696 104.637 212.696Z" fill="#E1F8FF"/>
<rect x="120.691" y="129" width="33.6197" height="77" fill="#C7FF50"/>
<rect x="176" y="150.691" width="33.6197" height="77" transform="rotate(90 176 150.691)" fill="#C7FF50"/>
<path d="M171.674 99.4916C189.99 81.1759 189.99 51.4803 171.674 33.1646C153.358 14.8489 123.663 14.8489 105.347 33.1646C87.0314 51.4803 87.0314 81.1759 105.347 99.4916C123.663 117.807 153.358 117.807 171.674 99.4916Z" fill="white"/>
<path d="M60.0264 55.4751C60.6299 55.3242 66.4642 54.0919 70.513 57.6629C73.5307 60.3286 74.3355 64.1259 74.7378 70.7147C75.2157 78.4602 74.4109 83.1628 72.3739 84.9735C69.1802 87.8152 58.0145 83.8167 53.2113 77.6052C49.7409 73.1288 49.2631 66.8419 51.6521 61.6614C54.0663 56.481 59.6492 55.5757 60.0264 55.4751Z" fill="#F7AFBC"/>
<path d="M73.1253 74.7626C73.0498 74.7626 72.9744 74.7375 72.9492 74.6872C72.8486 74.5866 72.8738 74.4357 72.9744 74.3351C73.4773 73.8825 73.7288 73.5053 73.6785 73.2286C73.6534 73.1029 73.5528 73.0274 73.3516 72.8514C73.1756 72.7257 72.9744 72.5496 72.7732 72.2982C72.4714 71.9209 72.2451 71.4431 72.1445 70.915C72.1194 70.7893 72.22 70.6384 72.3457 70.6133C72.4714 70.5881 72.6223 70.6887 72.6475 70.8144C72.7229 71.2671 72.8989 71.6695 73.1756 71.9964C73.3516 72.2227 73.5276 72.3485 73.6785 72.4742C73.9049 72.6502 74.106 72.8263 74.1815 73.128C74.2821 73.6058 74.0054 74.1088 73.3265 74.7123C73.251 74.7375 73.1756 74.7626 73.1253 74.7626Z" fill="#41193E"/>
<path d="M61.5817 99.7103H60.2992C56.8539 99.7103 54.0625 96.9189 54.0625 93.4737V76.1468C54.0625 72.7016 56.8539 69.9102 60.2992 69.9102H61.5817C65.0269 69.9102 67.8184 72.7016 67.8184 76.1468V93.4737C67.8184 96.9189 65.0269 99.7103 61.5817 99.7103Z" fill="#F7AFBC"/>
<path d="M67.844 86.0556H67.8189C63.3677 85.5275 56.6532 82.4343 53.032 77.7317C52.9565 77.6311 52.9565 77.4551 53.0823 77.3796C53.1828 77.3042 53.3589 77.3042 53.4343 77.4299C56.8544 81.8308 63.4683 85.0246 67.8692 85.5527C67.9949 85.5778 68.0955 85.7035 68.0955 85.8293C68.0955 85.9802 67.9698 86.0556 67.844 86.0556Z" fill="#41193E"/>
<path d="M64.5004 60.5803C64.274 59.7001 63.922 58.9709 63.6202 58.4679C64.2237 59.0714 65.0536 60.0019 65.7326 61.3096C66.0092 61.8377 66.2104 62.3155 66.3613 62.7933L74.7355 61.033C74.7355 61.033 71.7932 46.2209 53.3347 51.0744C37.9694 55.1735 39.7549 82.8362 39.7549 82.8362C39.7549 82.8362 42.3954 84.4205 46.0419 85.9796C46.4694 83.1379 47.5256 80.4471 47.5256 80.4471V86.5832C50.3421 87.6897 53.5611 88.6956 56.5788 88.9722L56.7297 64.8303L64.7267 63.1454C64.777 62.4413 64.7518 61.5611 64.5004 60.5803Z" fill="#003C4F"/>
<path d="M59.743 76.6061C61.6595 75.3752 62.0328 72.5395 60.5767 70.2724C59.1206 68.0054 56.3866 67.1654 54.4701 68.3963C52.5536 69.6272 52.1804 72.4628 53.6364 74.7299C55.0925 76.997 57.8265 77.837 59.743 76.6061Z" fill="#FABCC6"/>
<path d="M55.6487 74.2875C55.5732 74.2875 55.5229 74.2624 55.4726 74.2121C55.3469 74.0863 55.2463 73.9355 55.1457 73.7846C54.341 72.5272 54.5422 70.9177 55.6487 70.2136C55.9253 70.0375 56.2271 69.937 56.554 69.8867C56.6797 69.8615 56.8055 69.9621 56.8306 70.113C56.8558 70.2387 56.7552 70.3645 56.6043 70.3896C56.3528 70.4148 56.1265 70.4902 55.9253 70.6411C55.0703 71.1944 54.9194 72.4769 55.5732 73.508C55.6487 73.6337 55.7493 73.7594 55.8499 73.86C55.9505 73.9606 55.9253 74.1115 55.8247 74.2121C55.7744 74.2624 55.699 74.2875 55.6487 74.2875Z" fill="#41193E"/>
<path d="M69.629 78.5358C69.2769 78.5358 68.8997 78.4352 68.598 78.2591C67.6172 77.6556 67.6172 76.4736 67.6172 76.4234C67.6172 76.2725 67.7178 76.1719 67.8687 76.1719C68.0196 76.1719 68.1201 76.2976 68.1201 76.4234C68.1201 76.4234 68.1201 77.379 68.8494 77.8316C69.453 78.1837 70.2326 78.0831 70.7858 77.5802C70.8864 77.4796 71.0373 77.5047 71.1379 77.6053C71.2385 77.7059 71.2133 77.8568 71.1127 77.9574C70.6852 78.3346 70.1571 78.5358 69.629 78.5358Z" fill="#41193E"/>
<path d="M107.625 125.934C116.15 104.206 121.783 88.6394 123.72 83.9116C123.921 83.4087 124.273 82.5285 125.027 81.5729C127.794 77.9768 131.591 78.8066 136.243 76.3673C141.524 73.5759 142.907 69.0241 144.341 69.5774C145.322 69.9797 145.271 71.8407 143.813 75.3111C145.221 72.7963 147.308 69.4768 148.691 70.2815C150.251 71.2623 148.264 75.462 146.956 77.9265C148.541 74.9339 150.301 73.8274 150.955 74.4561C151.986 75.4368 151.307 78.0522 149.043 81.925C151.357 79.6868 152.237 79.4856 152.69 80.1898C153.52 81.4723 151.583 84.6158 149.471 87.1557C147.082 89.9974 144.24 91.3805 142.43 92.2104C138.029 108.028 135.237 118.213 131.943 131.089C131.264 133.729 128.498 135.213 125.933 134.308C118.967 131.843 115.094 130.335 107.625 125.934Z" fill="#F7AFBC"/>
<path d="M132.47 79.5865C134.281 73.9534 133.728 71.5392 132.822 71.2877C131.313 70.8602 127.793 75.0347 124.121 82.9311C126.56 82.2018 130.081 80.3158 132.47 79.5865Z" fill="#F7AFBC"/>
<path d="M133.277 89.645C133.252 89.645 133.227 89.645 133.202 89.645C133.076 89.5947 133.001 89.4689 133.051 89.318C133.378 88.287 134.082 86.8033 135.591 85.5962C137.703 83.8861 140.092 83.8358 141.023 83.8861C141.174 83.8861 141.274 84.0118 141.249 84.1627C141.249 84.3136 141.123 84.4142 140.972 84.3891C140.092 84.3388 137.854 84.3891 135.867 85.9985C134.459 87.1302 133.805 88.5133 133.504 89.4941C133.478 89.5947 133.378 89.645 133.277 89.645Z" fill="#41193E"/>
<path d="M127.391 79.9654C127.29 79.9654 127.215 79.9151 127.164 79.8396C127.089 79.7139 127.139 79.563 127.265 79.4875C128.422 78.8588 129.704 78.5068 131.062 78.1547C131.691 77.9787 132.345 77.8026 133.024 77.6015C133.15 77.5512 133.3 77.6266 133.351 77.7775C133.401 77.9032 133.326 78.0541 133.175 78.1044C132.496 78.3307 131.842 78.5068 131.213 78.6577C129.88 79.0097 128.648 79.3367 127.542 79.9402C127.466 79.9654 127.441 79.9654 127.391 79.9654Z" fill="#41193E"/>
<path d="M139.789 79.1359C139.714 79.1359 139.613 79.0856 139.563 79.0102C139.487 78.8844 139.538 78.7335 139.663 78.6581C140.267 78.306 140.845 77.9037 141.373 77.4259C142.153 76.772 142.832 75.9924 143.385 75.1374C143.461 75.0117 143.612 74.9865 143.737 75.062C143.863 75.1374 143.888 75.2883 143.813 75.414C143.209 76.2942 142.505 77.0989 141.7 77.8031C141.147 78.2809 140.544 78.7084 139.915 79.0856C139.865 79.1359 139.839 79.1359 139.789 79.1359Z" fill="#41193E"/>
<path d="M143.109 81.3703C143.034 81.3703 142.933 81.32 142.883 81.2445C142.808 81.1188 142.858 80.9679 142.984 80.8925C143.587 80.5404 144.166 80.138 144.694 79.6602C145.473 79.0064 146.152 78.2268 146.706 77.3718C146.781 77.246 146.932 77.2209 147.058 77.2963C147.183 77.3718 147.209 77.5227 147.133 77.6484C146.53 78.5286 145.825 79.3333 145.021 80.0375C144.467 80.5153 143.864 80.9428 143.235 81.32C143.21 81.3451 143.16 81.3703 143.109 81.3703Z" fill="#41193E"/>
<path d="M145.094 85.8C145.018 85.8 144.918 85.7497 144.867 85.6742C144.792 85.5485 144.842 85.3976 144.968 85.3222C145.572 84.9701 146.15 84.5677 146.678 84.0899C147.458 83.4361 148.137 82.6565 148.69 81.8015C148.765 81.6757 148.916 81.6506 149.042 81.726C149.168 81.8015 149.193 81.9524 149.117 82.0781C148.514 82.9583 147.81 83.763 147.005 84.4671C146.452 84.945 145.848 85.3725 145.22 85.7497C145.194 85.7748 145.144 85.8 145.094 85.8Z" fill="#41193E"/>
<path d="M80.8695 96.6866L109.84 107.877L114.769 95.3789L143.085 105.564C143.085 105.564 134.208 141.777 127.846 146.152C121.232 150.704 93.3931 138.13 79.2349 129.58C65.0766 121.03 80.8695 96.6866 80.8695 96.6866Z" fill="#1AE3E3"/>
<path d="M106.62 118.995C106.594 118.995 106.569 118.995 106.544 118.995C106.418 118.945 106.343 118.819 106.368 118.693L109.562 107.829C109.612 107.704 109.738 107.628 109.864 107.653C109.989 107.704 110.065 107.829 110.04 107.955L106.846 118.819C106.821 118.919 106.72 118.995 106.62 118.995Z" fill="#2DAEAE"/>
<path d="M14.8086 212.246C14.8086 212.246 15.1858 91.6875 60.5776 91.6875C104.737 91.6875 101.569 212.271 101.569 212.271L14.8086 212.246Z" fill="white"/>
<path d="M69.5554 89.6016H52.0273V102.326H69.5554V89.6016Z" fill="white"/>
<path d="M72.1406 94.125V212.798H109.837C109.837 212.798 103.877 135.267 103.575 134.211C97.6405 113.765 96.5089 99.1294 72.1406 94.125Z" fill="#1AE3E3"/>
<path d="M73.2486 185.388C73.2234 185.388 73.1731 185.388 73.148 185.363C73.0222 185.312 72.9468 185.162 73.0222 185.036L91.0784 141.882L79.8625 134.941L88.8151 120.683L78.8817 96.2137C76.8196 95.4844 74.5311 94.8809 72.0918 94.3779C71.966 94.3528 71.8655 94.227 71.8906 94.0762C71.9157 93.9504 72.0415 93.8498 72.1924 93.875C74.7072 94.3779 77.0459 95.0318 79.1583 95.7611L79.2589 95.7862L79.3092 95.8868L89.3935 120.708L80.5666 134.765L91.7322 141.656L73.5001 185.212C73.4498 185.338 73.3492 185.388 73.2486 185.388Z" fill="#2DAEAE"/>
<path d="M104.708 142.409C104.582 142.409 104.482 142.334 104.457 142.208L99.4774 116.607C99.4523 116.482 99.5277 116.331 99.6786 116.306C99.8043 116.28 99.9552 116.356 99.9804 116.507L104.96 142.107C104.985 142.233 104.909 142.384 104.758 142.409C104.733 142.409 104.733 142.409 104.708 142.409Z" fill="#2DAEAE"/>
<path d="M48.7597 94.0273V212.448H0.199219C0.199219 212.448 4.65038 151.214 4.80127 150.61C11.3146 126.116 18.6829 98.8557 48.7597 94.0273Z" fill="#1AE3E3"/>
<path d="M30.3746 101.27C17.7755 109.191 -8.47881 140.55 2.71197 150.258C11.9412 158.305 35.2784 130.139 43.9544 120.583C41.4648 112.963 36.7621 107.28 30.3746 101.27Z" fill="#1AE3E3"/>
<path d="M47.8771 181.617C47.8017 181.617 47.7011 181.566 47.6508 181.491L26.6523 144.247L37.8431 134.816L28.9911 120.734L29.0414 120.608L38.8742 96.3905L38.9748 96.3402C41.9925 95.1582 45.2617 94.2781 48.707 93.75C48.8579 93.7248 48.9836 93.8254 48.9836 93.9512C49.0088 94.0769 48.9082 94.2278 48.7824 94.2278C45.4126 94.7559 42.2188 95.6109 39.2514 96.7677L29.5443 120.658L38.4718 134.892L27.281 144.322L48.1034 181.264C48.1789 181.39 48.1286 181.541 48.0028 181.617C47.9525 181.617 47.9274 181.617 47.8771 181.617Z" fill="#2DAEAE"/>
<path d="M17.1241 130.809C27.2838 132.217 45.1136 133.877 47.4524 134.178C51.8281 134.732 75.2407 138.378 75.0898 141.823C75.0144 143.458 70.4626 142.98 68.9286 142.754C70.0854 143.533 74.8384 146.048 74.26 147.809C73.6061 149.871 67.4952 147.733 67.3695 147.758C68.6269 148.437 73.7067 150.927 73.3295 152.26C72.8517 153.995 67.4198 153.09 65.8103 152.763C65.936 153.014 70.9656 155.73 70.6135 156.761C70.2363 157.918 65.1565 157.214 63.1195 157.113C59.2216 156.61 20.5191 152.486 12.1448 150.801C8.90078 150.097 12.4215 133.675 17.1241 130.809Z" fill="#F7AFBC"/>
<path d="M69.0054 142.829C68.9551 142.829 68.9299 142.829 68.8796 142.804C68.0749 142.376 67.2199 142.024 66.3648 141.723C64.8308 141.169 63.1962 140.817 61.5616 140.666C61.4359 140.641 61.3101 140.541 61.3353 140.39C61.3604 140.264 61.461 140.138 61.6119 140.163C63.2968 140.314 64.9566 140.692 66.5409 141.245C67.421 141.547 68.2761 141.924 69.1311 142.351C69.2568 142.427 69.3071 142.578 69.2317 142.678C69.2065 142.779 69.1059 142.829 69.0054 142.829Z" fill="#41193E"/>
<path d="M67.4952 147.883C67.4701 147.883 67.4449 147.883 67.3946 147.858C67.2186 147.783 67.0426 147.732 66.8414 147.657C65.3074 147.104 63.6728 146.751 62.0382 146.601C61.9124 146.575 61.7867 146.475 61.8118 146.324C61.837 146.173 61.9376 146.072 62.0885 146.098C63.7734 146.248 65.4331 146.626 67.0174 147.179C67.2186 147.254 67.3946 147.305 67.5707 147.38C67.6964 147.43 67.7719 147.581 67.7216 147.707C67.6964 147.833 67.5958 147.883 67.4952 147.883Z" fill="#41193E"/>
<path d="M65.7354 152.912C65.7102 152.912 65.6851 152.912 65.6599 152.912C64.6289 152.635 63.5475 152.459 62.4913 152.358C62.3655 152.333 62.2398 152.233 62.265 152.082C62.2901 151.931 62.3907 151.83 62.5416 151.855C63.6481 151.956 64.7294 152.157 65.7857 152.434C65.9114 152.459 66.012 152.61 65.9617 152.736C65.9617 152.836 65.8611 152.912 65.7354 152.912Z" fill="#41193E"/>
<path d="M50.0401 132.367C49.1599 132.241 25.7221 131.311 10.8849 130.305C6.18229 133.172 2.0329 150.85 5.32727 151.529C13.7266 153.24 40.8611 158.37 43.9795 158.898L50.0401 132.367Z" fill="#1AE3E3"/>
<path d="M48.9077 132.544C47.5498 132.469 45.0853 132.368 41.9921 132.217C33.4167 131.815 20.4404 131.211 10.8591 130.558C10.7082 130.558 10.6076 130.432 10.6328 130.281C10.6328 130.13 10.7585 130.055 10.9094 130.055C20.4907 130.709 33.4418 131.312 42.0172 131.714C45.1356 131.865 47.5749 131.966 48.9329 132.041C49.0838 132.041 49.1844 132.167 49.1592 132.318C49.1592 132.444 49.0335 132.544 48.9077 132.544Z" fill="#2DAEAE"/>
<path d="M44.1534 159.2L43.9271 159.149C40.7585 158.621 13.0959 153.34 4.82225 151.655C4.69651 151.63 4.59592 151.504 4.62107 151.353C4.64621 151.228 4.77195 151.127 4.92284 151.152C13.0456 152.812 39.7023 157.892 43.7762 158.596L44.581 155.101C44.6061 154.975 44.757 154.874 44.8827 154.899C45.0085 154.924 45.1091 155.075 45.0839 155.201L44.1534 159.2Z" fill="#2DAEAE"/>
<path d="M138.439 82.8139C138.372 82.8139 138.304 82.8139 138.236 82.8139C135.352 82.6782 132.807 79.7264 131.043 74.5013C129.347 69.3781 128.6 62.6602 128.939 55.569C129.279 48.4779 130.67 41.8618 132.875 36.9421C135.114 31.9207 137.931 29.2403 140.848 29.376C143.732 29.5117 146.277 32.4635 148.041 37.6886C149.738 42.8118 150.484 49.5297 150.145 56.6208C149.806 63.712 148.415 70.3281 146.209 75.2478C144.004 80.1335 141.256 82.8139 138.439 82.8139ZM140.611 30.0546C138.066 30.0546 135.556 32.5992 133.486 37.2475C131.314 42.0993 129.957 48.6136 129.584 55.6369C129.245 62.6262 129.991 69.2763 131.654 74.2978C133.316 79.2174 135.623 82.0335 138.236 82.1353C140.814 82.271 143.427 79.7264 145.531 74.9763C147.702 70.1245 149.059 63.6102 149.432 56.5869C149.772 49.5976 149.025 42.9475 147.363 37.9261C145.7 33.0064 143.393 30.1903 140.781 30.0885C140.747 30.0546 140.679 30.0546 140.611 30.0546Z" fill="#54808D"/>
<path d="M124.259 75.7234C122.291 75.7234 120.73 75.1467 119.712 74.027C117.778 71.8895 118.05 67.9877 120.493 63.068C122.902 58.2501 127.109 52.9572 132.368 48.2072C137.627 43.4232 143.293 39.7589 148.314 37.825C153.438 35.8571 157.339 35.9589 159.307 38.0964C161.241 40.2339 160.97 44.1357 158.527 49.0554C156.118 53.8733 151.911 59.1662 146.652 63.9162C141.393 68.6663 135.727 72.3645 130.705 74.2984C128.262 75.2824 126.091 75.7234 124.259 75.7234ZM154.761 37.0785C149.434 37.0785 140.85 41.4553 132.843 48.7161C122.189 58.3858 116.523 69.5484 120.221 73.5859C121.952 75.5199 125.616 75.5538 130.468 73.6877C135.421 71.7877 141.02 68.1573 146.211 63.4412C156.864 53.7715 162.53 42.6089 158.832 38.5714C157.916 37.5535 156.525 37.0785 154.761 37.0785Z" fill="#54808D"/>
<path d="M142.342 66.7636C141.222 66.7636 140.137 66.7296 138.983 66.6957C131.892 66.3564 125.276 64.9653 120.356 62.76C115.335 60.5207 112.654 57.7046 112.79 54.7867C112.926 51.9028 115.878 49.3581 121.103 47.5938C126.226 45.8974 132.944 45.1509 140.035 45.4902C147.126 45.8295 153.742 47.2206 158.662 49.426C163.683 51.6653 166.364 54.4813 166.228 57.3992C166.092 60.2832 163.14 62.8278 157.915 64.5921C153.64 66.0171 148.178 66.7636 142.342 66.7636ZM139.051 66.0171C146.04 66.3564 152.69 65.61 157.712 63.9475C162.631 62.285 165.448 59.9778 165.549 57.3653C165.685 54.7867 163.14 52.1742 158.39 50.0706C153.539 47.8991 147.024 46.542 140.001 46.1688C125.649 45.4563 113.74 49.3581 113.469 54.8206C113.333 57.3992 115.878 60.0117 120.628 62.1153C125.513 64.2868 132.028 65.6778 139.051 66.0171Z" fill="#54808D"/>
<path d="M144.173 56.3488C144.071 58.7916 141.968 60.6577 139.559 60.5559C137.116 60.4541 135.25 58.3506 135.352 55.9416C135.453 53.4987 137.557 51.6327 139.966 51.7344C142.409 51.8362 144.275 53.9059 144.173 56.3488Z" fill="#003C4F"/>
<path d="M121.355 77.6224C123.213 76.9207 124.151 74.8455 123.449 72.9873C122.747 71.1291 120.672 70.1917 118.814 70.8934C116.956 71.5952 116.018 73.6704 116.72 75.5286C117.422 77.3867 119.497 78.3242 121.355 77.6224Z" fill="#003C4F"/>
<path d="M124.682 47.9037C125.052 46.3354 124.081 44.7638 122.513 44.3935C120.944 44.0232 119.373 44.9944 119.003 46.5627C118.632 48.131 119.603 49.7026 121.172 50.0729C122.74 50.4432 124.312 49.472 124.682 47.9037Z" fill="#1AE3E3"/>
<ellipse cx="68.399" cy="68.5982" rx="0.754435" ry="0.754435" fill="#41193E"/>
</svg>
