<svg width="48" height="48" viewBox="0 0 48 48" fill="none" xmlns="http://www.w3.org/2000/svg">
<path d="M20.4904 8.98546C20.4904 8.62201 20.7861 8.32633 21.1495 8.32633H26.849C27.2125 8.32633 27.5082 8.62201 27.5082 8.98546V10.4782H29.8345V8.98546C29.8345 7.33927 28.4952 6 26.849 6H21.1495C19.5033 6 18.1641 7.33927 18.1641 8.98546V10.4782H20.4904V8.98546Z" fill="#26B5B5"/>
<path d="M27.7898 27.6526V29.1561C27.7898 29.6572 27.4688 30.1021 26.9931 30.26L24.3663 31.132C24.1284 31.2109 23.8713 31.2109 23.6334 31.132L21.0066 30.26C20.5309 30.1021 20.2099 29.6572 20.2099 29.1561V27.6526L7.77612 24.5442C6.36528 24.1915 5.12612 23.4724 4.14844 22.5039V39.6726C4.14844 40.9575 5.18994 41.999 6.47477 41.999H41.5249C42.8097 41.999 43.8512 40.9575 43.8512 39.6726V22.5039C42.8735 23.4724 41.6343 24.1915 40.2235 24.5442L27.7898 27.6526ZM40.9239 37.9085C40.9239 38.5509 40.4031 39.0717 39.7607 39.0717H34.5071C33.8647 39.0717 33.3439 38.5509 33.3439 37.9085C33.3439 37.2661 33.8647 36.7453 34.5071 36.7453H39.7607C40.4031 36.7453 40.9239 37.2661 40.9239 37.9085Z" fill="#26B5B5"/>
<path d="M41.5249 12.8047H6.47477C5.18994 12.8047 4.14844 13.8462 4.14844 15.131V16.9197C4.14844 19.4592 5.87667 21.6727 8.34026 22.2885L20.2098 25.2559V24.7756C20.2098 24.1332 20.7306 23.6124 21.373 23.6124H26.6266C27.269 23.6124 27.7898 24.1332 27.7898 24.7756V25.2559L39.6594 22.2885C42.1229 21.6727 43.8512 19.4592 43.8512 16.9197V15.131C43.8512 13.8462 42.8097 12.8047 41.5249 12.8047Z" fill="#26B5B5"/>
<path d="M25.4664 28.3166V25.9375H22.5391V28.3166L24.0027 28.8024L25.4664 28.3166Z" fill="#26B5B5"/>
</svg>
