<svg width="211" height="209" viewBox="0 0 211 209" fill="none" xmlns="http://www.w3.org/2000/svg">
<path d="M105.1 209C162.772 209 209.524 162.214 209.524 104.5C209.524 46.7862 162.772 0 105.1 0C47.4281 0 0.675781 46.7862 0.675781 104.5C0.675781 162.214 47.4281 209 105.1 209Z" fill="#E1F8FF"/>
<path d="M121.315 178.835C121.163 178.835 121.062 178.734 121.062 178.583V71.9145C121.062 71.7632 121.163 71.6623 121.315 71.6623H183.5V30.4826C183.5 30.3313 183.601 30.2305 183.752 30.2305C183.904 30.2305 184.004 30.3313 184.004 30.4826V71.9145C184.004 72.0658 183.904 72.1666 183.752 72.1666H121.567V178.583C121.567 178.734 121.466 178.835 121.315 178.835Z" fill="#9CCCDB"/>
<path d="M140.608 178.835C140.456 178.835 140.355 178.734 140.355 178.583V90.0708C140.355 89.9195 140.456 89.8187 140.608 89.8187H202.793V30.4826C202.793 30.3313 202.894 30.2305 203.045 30.2305C203.197 30.2305 203.297 30.3313 203.297 30.4826V90.0708C203.297 90.2221 203.197 90.323 203.045 90.323H140.86V178.583C140.86 178.734 140.759 178.835 140.608 178.835Z" fill="#9CCCDB"/>
<path d="M196.562 24.0781H190.258V37.3171H196.562V24.0781Z" fill="white"/>
<path d="M196.562 44.3516H190.258V63.9957H196.562V44.3516Z" fill="white"/>
<path d="M196.563 84.2703H183.324V77.966H190.259V71.0312H196.563V84.2703Z" fill="white"/>
<path d="M173.339 77.9688H150.719V84.273H173.339V77.9688Z" fill="white"/>
<path d="M133.773 91.2078H127.469V77.9688H140.708V84.273H133.773V91.2078Z" fill="white"/>
<path d="M133.773 154.527H127.469V132.386H133.773V154.527ZM133.773 122.879H127.469V100.738H133.773V122.879Z" fill="white"/>
<path d="M133.773 164.059H127.469V177.298H133.773V164.059Z" fill="white"/>
<path d="M103.184 35.8867H73.957V109.143H103.184V35.8867Z" fill="#AECBD3"/>
<path d="M103.182 41.6879H73.9553C73.804 41.6879 73.7031 41.5871 73.7031 41.4358C73.7031 41.2845 73.804 41.1836 73.9553 41.1836H103.182C103.333 41.1836 103.434 41.2845 103.434 41.4358C103.434 41.5871 103.308 41.6879 103.182 41.6879Z" fill="white"/>
<path d="M103.182 47.2348H73.9553C73.804 47.2348 73.7031 47.1339 73.7031 46.9826C73.7031 46.8313 73.804 46.7305 73.9553 46.7305H103.182C103.333 46.7305 103.434 46.8313 103.434 46.9826C103.434 47.1087 103.308 47.2348 103.182 47.2348Z" fill="white"/>
<path d="M103.182 52.7856H73.9553C73.804 52.7856 73.7031 52.6847 73.7031 52.5334C73.7031 52.3821 73.804 52.2812 73.9553 52.2812H103.182C103.333 52.2812 103.434 52.3821 103.434 52.5334C103.434 52.6595 103.308 52.7856 103.182 52.7856Z" fill="white"/>
<path d="M103.182 58.3325H73.9553C73.804 58.3325 73.7031 58.2316 73.7031 58.0803C73.7031 57.929 73.804 57.8281 73.9553 57.8281H103.182C103.333 57.8281 103.434 57.929 103.434 58.0803C103.434 58.2064 103.308 58.3325 103.182 58.3325Z" fill="white"/>
<path d="M103.182 63.8793H73.9553C73.804 63.8793 73.7031 63.7785 73.7031 63.6272C73.7031 63.4759 73.804 63.375 73.9553 63.375H103.182C103.333 63.375 103.434 63.4759 103.434 63.6272C103.434 63.7533 103.308 63.8793 103.182 63.8793Z" fill="white"/>
<path d="M103.182 69.4262H73.9553C73.804 69.4262 73.7031 69.3253 73.7031 69.174C73.7031 69.0227 73.804 68.9219 73.9553 68.9219H103.182C103.333 68.9219 103.434 69.0227 103.434 69.174C103.434 69.3001 103.308 69.4262 103.182 69.4262Z" fill="white"/>
<path d="M103.182 74.977H73.9553C73.804 74.977 73.7031 74.8761 73.7031 74.7248C73.7031 74.5735 73.804 74.4727 73.9553 74.4727H103.182C103.333 74.4727 103.434 74.5735 103.434 74.7248C103.434 74.8509 103.308 74.977 103.182 74.977Z" fill="white"/>
<path d="M103.182 80.5239H73.9553C73.804 80.5239 73.7031 80.423 73.7031 80.2717C73.7031 80.1204 73.804 80.0195 73.9553 80.0195H103.182C103.333 80.0195 103.434 80.1204 103.434 80.2717C103.434 80.3978 103.308 80.5239 103.182 80.5239Z" fill="white"/>
<path d="M103.182 86.0707H73.9553C73.804 86.0707 73.7031 85.9699 73.7031 85.8186C73.7031 85.6673 73.804 85.5664 73.9553 85.5664H103.182C103.333 85.5664 103.434 85.6673 103.434 85.8186C103.434 85.9447 103.308 86.0707 103.182 86.0707Z" fill="#FCC8D0"/>
<path d="M79.678 109.397C79.5266 109.397 79.4258 109.296 79.4258 109.145V35.8889C79.4258 35.7376 79.5266 35.6367 79.678 35.6367C79.8293 35.6367 79.9301 35.7376 79.9301 35.8889V109.145C79.9301 109.296 79.8293 109.397 79.678 109.397Z" fill="white"/>
<path d="M88.7326 109.397C88.5813 109.397 88.4805 109.296 88.4805 109.145V35.8889C88.4805 35.7376 88.5813 35.6367 88.7326 35.6367C88.8839 35.6367 88.9848 35.7376 88.9848 35.8889V109.145C88.9848 109.296 88.8839 109.397 88.7326 109.397Z" fill="white"/>
<path d="M97.8108 109.397C97.6595 109.397 97.5586 109.296 97.5586 109.145V35.8889C97.5586 35.7376 97.6595 35.6367 97.8108 35.6367C97.9621 35.6367 98.0629 35.7376 98.0629 35.8889V109.145C98.0629 109.296 97.9369 109.397 97.8108 109.397Z" fill="white"/>
<path d="M113.875 64.4102H79V129.975H113.875V64.4102Z" fill="#C7FF50"/>
<path d="M85.809 70.3867H83.0352V75.5815H85.809V70.3867Z" fill="white"/>
<path d="M93.7544 70.3867H90.9805V75.5815H93.7544V70.3867Z" fill="white"/>
<path d="M101.672 70.3867H98.8984V75.5815H101.672V70.3867Z" fill="white"/>
<path d="M109.614 70.3867H106.84V75.5815H109.614V70.3867Z" fill="white"/>
<path d="M85.809 82.3164H83.0352V87.5111H85.809V82.3164Z" fill="white"/>
<path d="M93.7544 82.3164H90.9805V87.5111H93.7544V82.3164Z" fill="white"/>
<path d="M101.672 82.3164H98.8984V87.5111H101.672V82.3164Z" fill="white"/>
<path d="M109.614 82.3164H106.84V87.5111H109.614V82.3164Z" fill="white"/>
<path d="M85.809 94.2188H83.0352V99.4135H85.809V94.2188Z" fill="white"/>
<path d="M93.7544 94.2188H90.9805V99.4135H93.7544V94.2188Z" fill="white"/>
<path d="M101.672 94.2188H98.8984V99.4135H101.672V94.2188Z" fill="white"/>
<path d="M109.614 94.2188H106.84V99.4135H109.614V94.2188Z" fill="white"/>
<path d="M85.809 106.121H83.0352V111.316H85.809V106.121Z" fill="white"/>
<path d="M93.7544 106.121H90.9805V111.316H93.7544V106.121Z" fill="white"/>
<path d="M101.672 106.121H98.8984V111.316H101.672V106.121Z" fill="white"/>
<path d="M109.614 106.121H106.84V111.316H109.614V106.121Z" fill="white"/>
<path d="M85.809 118.047H83.0352V123.242H85.809V118.047Z" fill="white"/>
<path d="M93.7544 118.047H90.9805V123.242H93.7544V118.047Z" fill="white"/>
<path d="M101.672 118.047H98.8984V123.242H101.672V118.047Z" fill="white"/>
<path d="M109.614 118.047H106.84V123.242H109.614V118.047Z" fill="white"/>
<path d="M87.4222 81.5039H52.5469V143.084H87.4222V81.5039Z" fill="white"/>
<path d="M59.3559 87.125H56.582V92.0171H59.3559V87.125Z" fill="#DBECEC"/>
<path d="M67.2739 87.125H64.5V92.0171H67.2739V87.125Z" fill="#DBECEC"/>
<path d="M75.2192 87.125H72.4453V92.0171H75.2192V87.125Z" fill="#DBECEC"/>
<path d="M83.1372 87.125H80.3633V92.0171H83.1372V87.125Z" fill="#DBECEC"/>
<path d="M59.3559 98.2969H56.582V103.189H59.3559V98.2969Z" fill="#DBECEC"/>
<path d="M67.2739 98.2969H64.5V103.189H67.2739V98.2969Z" fill="#DBECEC"/>
<path d="M75.2192 98.2969H72.4453V103.189H75.2192V98.2969Z" fill="#DBECEC"/>
<path d="M83.1372 98.2969H80.3633V103.189H83.1372V98.2969Z" fill="#DBECEC"/>
<path d="M59.3559 109.492H56.582V114.384H59.3559V109.492Z" fill="#DBECEC"/>
<path d="M67.2739 109.492H64.5V114.384H67.2739V109.492Z" fill="#DBECEC"/>
<path d="M75.2192 109.492H72.4453V114.384H75.2192V109.492Z" fill="#DBECEC"/>
<path d="M83.1372 109.492H80.3633V114.384H83.1372V109.492Z" fill="#DBECEC"/>
<path d="M59.3559 131.859H56.582V136.751H59.3559V131.859Z" fill="#DBECEC"/>
<path d="M67.2739 131.859H64.5V136.751H67.2739V131.859Z" fill="#DBECEC"/>
<path d="M75.2192 131.859H72.4453V136.751H75.2192V131.859Z" fill="#DBECEC"/>
<path d="M83.1372 131.859H80.3633V136.751H83.1372V131.859Z" fill="#DBECEC"/>
<path d="M43.7348 96H9V159.677H43.7348V96Z" fill="white"/>
<path d="M15.7759 101.59H13.0234V106.458H15.7759V101.59Z" fill="#DBECEC"/>
<path d="M23.6626 101.59H20.9102V106.458H23.6626V101.59Z" fill="#DBECEC"/>
<path d="M31.5689 101.59H28.8164V106.458H31.5689V101.59Z" fill="#DBECEC"/>
<path d="M39.483 101.59H36.7305V106.458H39.483V101.59Z" fill="#DBECEC"/>
<path d="M15.7759 112.742H13.0234V117.61H15.7759V112.742Z" fill="#DBECEC"/>
<path d="M23.6626 112.742H20.9102V117.61H23.6626V112.742Z" fill="#DBECEC"/>
<path d="M31.5689 112.742H28.8164V117.61H31.5689V112.742Z" fill="#DBECEC"/>
<path d="M39.483 112.742H36.7305V117.61H39.483V112.742Z" fill="#DBECEC"/>
<path d="M15.7759 123.875H13.0234V128.743H15.7759V123.875Z" fill="#DBECEC"/>
<path d="M23.6626 123.875H20.9102V128.743H23.6626V123.875Z" fill="#DBECEC"/>
<path d="M31.5689 123.875H28.8164V128.743H31.5689V123.875Z" fill="#DBECEC"/>
<path d="M39.483 123.875H36.7305V128.743H39.483V123.875Z" fill="#DBECEC"/>
<path d="M15.7759 135.031H13.0234V139.899H15.7759V135.031Z" fill="#DBECEC"/>
<path d="M23.6626 135.031H20.9102V139.899H23.6626V135.031Z" fill="#DBECEC"/>
<path d="M31.5689 135.031H28.8164V139.899H31.5689V135.031Z" fill="#DBECEC"/>
<path d="M39.483 135.031H36.7305V139.899H39.483V135.031Z" fill="#DBECEC"/>
<path d="M15.7759 146.164H13.0234V151.032H15.7759V146.164Z" fill="#DBECEC"/>
<path d="M23.6626 146.164H20.9102V151.032H23.6626V146.164Z" fill="#DBECEC"/>
<path d="M31.5689 146.164H28.8164V151.032H31.5689V146.164Z" fill="#DBECEC"/>
<path d="M39.483 146.164H36.7305V151.032H39.483V146.164Z" fill="#DBECEC"/>
<path d="M210.216 169.594H204.691V172.751H210.216V169.594Z" fill="#41193E"/>
<path d="M1.63693 164.827C0.847671 170.89 5.5832 176.271 11.682 176.271H198.879C204.475 176.271 209.032 171.715 209.032 166.118V158.943C206.413 155.966 204.978 152.127 204.978 148.145V142.799C204.978 139.284 202.144 136.413 198.628 136.413H189.085C169.82 118.261 144.384 108.108 117.944 108.036L106.357 108C95.7376 107.964 85.4415 111.624 77.1902 118.332L57.9252 134.046C56.0238 135.588 53.7636 136.593 51.3241 136.952L24.3459 141.293C12.4354 143.266 3.17956 152.808 1.63693 164.827Z" fill="#2DAEAE"/>
<path d="M41.2438 189.411C50.4372 189.411 57.8899 181.942 57.8899 172.729C57.8899 163.516 50.4372 156.047 41.2438 156.047C32.0504 156.047 24.5977 163.516 24.5977 172.729C24.5977 181.942 32.0504 189.411 41.2438 189.411Z" fill="#00303F"/>
<path d="M41.2475 184.536C47.7463 184.536 53.0146 179.251 53.0146 172.733C53.0146 166.214 47.7463 160.93 41.2475 160.93C34.7488 160.93 29.4805 166.214 29.4805 172.733C29.4805 179.251 34.7488 184.536 41.2475 184.536Z" fill="white"/>
<path d="M167.056 189.411C176.25 189.411 183.702 181.942 183.702 172.729C183.702 163.516 176.25 156.047 167.056 156.047C157.863 156.047 150.41 163.516 150.41 172.729C150.41 181.942 157.863 189.411 167.056 189.411Z" fill="#00303F"/>
<path d="M167.06 184.536C173.559 184.536 178.827 179.251 178.827 172.733C178.827 166.214 173.559 160.93 167.06 160.93C160.561 160.93 155.293 166.214 155.293 172.733C155.293 179.251 160.561 184.536 167.06 184.536Z" fill="white"/>
<path d="M169.032 137.236H62.1953L90.7161 115.639C92.6534 114.168 94.9135 113.307 97.3172 113.092C124.008 110.832 150.592 117.182 173.05 130.958L169.032 137.236Z" fill="white"/>
<path d="M18.5377 154.57C24.3405 152.383 28.4326 148.986 27.6777 146.984C26.9227 144.981 21.6066 145.132 15.8038 147.32C10.001 149.508 5.90888 152.904 6.66381 154.907C7.41875 156.909 12.7349 156.758 18.5377 154.57Z" fill="white"/>
<path d="M196.586 151.269H205.268L204.909 143.699H193.25L196.586 151.269Z" fill="#BC2649"/>
<path d="M140.692 173.083H64.1344C63.9909 173.083 63.8474 172.975 63.8116 172.867L57.2823 155.934C53.5513 146.284 57.2823 135.413 66.1076 130.104L91.2561 115.359C91.4355 115.252 91.6507 115.323 91.7584 115.503C91.866 115.682 91.7942 115.897 91.6149 116.005L66.5022 130.714C57.9639 135.88 54.3764 146.355 57.9639 155.683L64.3856 172.365H140.513L163.688 140.005L159.024 130.678C158.953 130.499 159.024 130.283 159.168 130.212C159.347 130.14 159.563 130.212 159.634 130.355L164.406 139.898C164.477 140.005 164.442 140.149 164.37 140.257L140.979 172.939C140.907 173.011 140.8 173.083 140.692 173.083Z" fill="#41193E"/>
<path d="M110.163 173.15H110.128C109.948 173.114 109.805 172.934 109.805 172.755L114.971 135.803C115.007 135.624 115.186 135.48 115.365 135.48C115.545 135.516 115.688 135.696 115.688 135.875L110.522 172.827C110.486 173.006 110.343 173.15 110.163 173.15Z" fill="#41193E"/>
<path d="M142.125 143.088C142.125 143.662 145.426 144.164 149.515 144.164C153.605 144.164 156.906 143.698 156.906 143.088C156.906 142.478 153.605 142.012 149.515 142.012C145.461 142.048 142.125 142.514 142.125 143.088Z" fill="#43C7C7"/>
<path d="M93.4414 143.088C93.4414 143.662 96.7419 144.164 100.832 144.164C104.921 144.164 108.222 143.698 108.222 143.088C108.222 142.478 104.921 142.012 100.832 142.012C96.7419 142.048 93.4414 142.514 93.4414 143.088Z" fill="#43C7C7"/>
<path d="M196.833 166.088H206.878C205.12 161.962 201.281 159.092 196.833 158.59C194.752 158.59 193.102 160.276 193.102 162.321C193.102 164.438 194.752 166.088 196.833 166.088Z" fill="#43C7C7"/>
<path d="M6.4475 169.63H10.2861C11.3265 169.63 12.1158 168.733 12.0082 167.729L11.5777 163.89C11.47 163.029 10.7525 162.348 9.85565 162.348H6.017C4.97662 162.348 4.18736 163.245 4.29499 164.249L4.72549 168.088C4.83312 168.985 5.55062 169.63 6.4475 169.63Z" fill="#43C7C7"/>
<path d="M159.691 6.42969H54.4258V13.0749H159.691V6.42969Z" fill="#AECBD3"/>
<path d="M159.731 80.0288H54.4233C54.1693 80.0288 54 79.8595 54 79.6055V6.42326C54 6.16931 54.1693 6 54.4233 6H159.731C159.985 6 160.154 6.16931 160.154 6.42326V79.6055C160.154 79.8595 159.943 80.0288 159.731 80.0288ZM54.8465 79.1822H159.308V6.84653H54.8465V79.1822Z" fill="#AECBD3"/>
<path d="M154.184 8.71156C152.957 10.32 154.777 12.14 156.385 10.9125C157.655 9.30413 155.793 7.4841 154.184 8.71156Z" fill="white"/>
<path d="M149.317 8.71156C148.09 10.32 149.91 12.14 151.518 10.9125C152.745 9.30413 150.925 7.4841 149.317 8.71156Z" fill="white"/>
<path d="M144.45 8.71156C143.222 10.32 145.042 12.14 146.651 10.9125C147.878 9.30413 146.058 7.4841 144.45 8.71156Z" fill="white"/>
<path d="M55.5478 78.7578L159.48 78.7578V12.9338L55.5478 12.9338L55.5478 78.7578Z" fill="white"/>
<path opacity="0.21" d="M150.425 21.5352H113.602V28.9846H150.425V21.5352Z" fill="#AECBD3"/>
<path opacity="0.21" d="M150.425 32.8008H113.602V47.9536H150.425V32.8008Z" fill="#AECBD3"/>
<path opacity="0.21" d="M150.419 51.3789H65.3008V57.4739H150.419V51.3789Z" fill="#AECBD3"/>
<path opacity="0.21" d="M150.419 61.0273H65.3008V69.7466H150.419V61.0273Z" fill="#AECBD3"/>
</svg>
