<svg width="80" height="80" viewBox="0 0 80 80" fill="none" xmlns="http://www.w3.org/2000/svg">
<path d="M40.2985 79.0326C23.6455 65.5041 10.5311 52.4568 0.939831 39.893C11.3009 26.1267 24.4177 13.1435 40.2989 0.946264C54.4896 11.9387 67.4063 24.9198 79.0483 39.8928C73.9264 46.3794 67.7188 53.2686 60.4222 60.5604C53.137 67.8409 46.4293 73.9973 40.2985 79.0326Z" fill="white" stroke="url(#paint0_linear_4573_40600)" stroke-width="1.5"/>
<path d="M24.0833 37.6261L31.0833 30.6261C31.4722 30.2372 31.9306 29.9595 32.4583 29.7928C32.9861 29.6261 33.5278 29.5983 34.0833 29.7095L37.2917 30.2928C35.7639 32.015 34.5278 33.647 33.5833 35.1886C32.6389 36.7303 31.7639 38.5289 30.9583 40.5845L24.0833 37.6261ZM32.5 41.3345C33.25 39.3067 34.1944 37.397 35.3333 35.6053C36.4722 33.8136 37.7639 32.1956 39.2083 30.7511C41.6528 28.3067 44.4444 26.4803 47.5833 25.272C50.7222 24.0636 53.6528 23.6956 56.375 24.1678C56.8472 26.89 56.4861 29.8206 55.2917 32.9595C54.0972 36.0983 52.2778 38.89 49.8333 41.3345C48.3889 42.7789 46.7639 44.0706 44.9583 45.2095C43.1528 46.3483 41.2361 47.2928 39.2083 48.0428L32.5 41.3345ZM44.4167 36.1261C44.9722 36.6817 45.6597 36.9595 46.4792 36.9595C47.2986 36.9595 47.9861 36.6817 48.5417 36.1261C49.0972 35.5706 49.375 34.8831 49.375 34.0636C49.375 33.2442 49.0972 32.5567 48.5417 32.0011C47.9861 31.4456 47.2986 31.1678 46.4792 31.1678C45.6597 31.1678 44.9722 31.4456 44.4167 32.0011C43.8611 32.5567 43.5833 33.2442 43.5833 34.0636C43.5833 34.8831 43.8611 35.5706 44.4167 36.1261ZM42.9583 56.4595L39.9583 49.5845C42.0139 48.7789 43.8125 47.9039 45.3542 46.9595C46.8958 46.015 48.5278 44.7789 50.25 43.2511L50.8333 46.4595C50.9444 47.015 50.9167 47.5636 50.75 48.1053C50.5833 48.647 50.3056 49.1122 49.9167 49.5011L42.9583 56.4595ZM26.75 46.7511C27.7222 45.7789 28.9028 45.2858 30.2917 45.272C31.6806 45.2581 32.8611 45.7372 33.8333 46.7095C34.8056 47.6817 35.2917 48.8622 35.2917 50.2511C35.2917 51.64 34.8056 52.8206 33.8333 53.7928C33.1111 54.515 31.9861 55.1122 30.4583 55.5845C28.9306 56.0567 26.6528 56.5011 23.625 56.9178C24.0417 53.89 24.4861 51.6192 24.9583 50.1053C25.4306 48.5914 26.0278 47.4733 26.75 46.7511Z" fill="#26B5B5"/>
<defs>
<linearGradient id="paint0_linear_4573_40600" x1="-1.04793e-06" y1="47.0588" x2="80" y2="43.2941" gradientUnits="userSpaceOnUse">
<stop stop-color="#26B5B5"/>
<stop offset="1" stop-color="#C7FF50"/>
</linearGradient>
</defs>
</svg>
