<svg width="80" height="80" viewBox="0 0 80 80" fill="none" xmlns="http://www.w3.org/2000/svg">
<path d="M40.2985 79.0326C23.6455 65.5041 10.5311 52.4568 0.939831 39.893C11.3009 26.1267 24.4177 13.1435 40.2989 0.946264C54.4896 11.9387 67.4063 24.9198 79.0483 39.8928C73.9264 46.3794 67.7188 53.2686 60.4222 60.5604C53.137 67.8409 46.4293 73.9973 40.2985 79.0326Z" fill="white" stroke="url(#paint0_linear_4573_40585)" stroke-width="1.5"/>
<path d="M47.9503 44.0078H46.9648V45.9788H47.9503C48.4937 45.9788 48.9358 45.5367 48.9358 44.9933C48.9358 44.4499 48.4937 44.0078 47.9503 44.0078Z" fill="#26B5B5"/>
<path d="M34.6841 30.0808H56.8226V24.168H30.7422L34.6841 30.0808ZM50.9098 26.1389H52.8807V28.1099H50.9098V26.1389ZM46.9679 26.1389H48.9388V28.1099H46.9679V26.1389ZM43.026 26.1389H44.9969V28.1099H43.026V26.1389Z" fill="#26B5B5"/>
<path d="M32.1719 43.9983H34.1654L33.1687 40.8086L32.1719 43.9983Z" fill="#26B5B5"/>
<path d="M33.6278 32.0518L28.3719 24.168H23.1836V55.8346H56.8212V32.0518H33.6278ZM35.4795 48.1999L34.7825 45.9694H31.5571L30.86 48.1999L28.9787 47.6121L31.9525 38.096H34.387L37.3608 47.612L35.4795 48.1999ZM40.8782 50.0704L38.934 49.7464L41.229 35.9765L43.1731 36.3005L40.8782 50.0704ZM50.9084 44.9944C50.9084 46.6246 49.5821 47.9508 47.9519 47.9508H44.9955V38.096H47.9519C49.5821 38.096 50.9084 39.4223 50.9084 41.0525C50.9084 41.809 50.6228 42.5 50.1537 43.0234C50.6228 43.5469 50.9084 44.2379 50.9084 44.9944Z" fill="#26B5B5"/>
<path d="M47.9503 40.0664H46.9648V42.0374H47.9503C48.4937 42.0374 48.9358 41.5953 48.9358 41.0519C48.9358 40.5085 48.4937 40.0664 47.9503 40.0664Z" fill="#26B5B5"/>
<defs>
<linearGradient id="paint0_linear_4573_40585" x1="-1.04793e-06" y1="47.0588" x2="80" y2="43.2941" gradientUnits="userSpaceOnUse">
<stop stop-color="#26B5B5"/>
<stop offset="1" stop-color="#C7FF50"/>
</linearGradient>
</defs>
</svg>
