<svg width="80" height="80" viewBox="0 0 80 80" fill="none" xmlns="http://www.w3.org/2000/svg">
<path d="M40.2985 79.0326C23.6455 65.5041 10.5311 52.4568 0.939831 39.893C11.3009 26.1267 24.4177 13.1435 40.2989 0.946264C54.4896 11.9387 67.4063 24.9198 79.0483 39.8928C73.9264 46.3794 67.7188 53.2686 60.4222 60.5604C53.137 67.8409 46.4293 73.9973 40.2985 79.0326Z" fill="white" stroke="url(#paint0_linear_4573_40561)" stroke-width="1.5"/>
<path d="M37.0753 27.4879C37.0753 27.185 37.3217 26.9386 37.6246 26.9386H42.3742C42.6771 26.9386 42.9235 27.185 42.9235 27.4879V28.7318H44.8621V27.4879C44.8621 26.1161 43.746 25 42.3742 25H37.6246C36.2528 25 35.1367 26.1161 35.1367 27.4879V28.7318H37.0753V27.4879Z" fill="#26B5B5"/>
<path d="M43.1582 43.0445V44.2974C43.1582 44.715 42.8906 45.0857 42.4943 45.2173L40.3052 45.944C40.107 46.0097 39.8928 46.0097 39.6945 45.944L37.5055 45.2173C37.1091 45.0857 36.8416 44.715 36.8416 44.2974V43.0445L26.4801 40.4541C25.3044 40.1602 24.2718 39.5609 23.457 38.7539V53.0612C23.457 54.1319 24.3249 54.9998 25.3956 54.9998H54.604C55.6747 54.9998 56.5427 54.1319 56.5427 53.0612V38.7539C55.7279 39.5609 54.6953 40.1602 53.5196 40.4541L43.1582 43.0445ZM54.1032 51.5911C54.1032 52.1264 53.6692 52.5604 53.1339 52.5604H48.7559C48.2206 52.5604 47.7866 52.1264 47.7866 51.5911C47.7866 51.0557 48.2206 50.6218 48.7559 50.6218H53.1339C53.6692 50.6218 54.1032 51.0557 54.1032 51.5911Z" fill="#26B5B5"/>
<path d="M54.604 30.6719H25.3956C24.3249 30.6719 23.457 31.5398 23.457 32.6105V34.1011C23.457 36.2173 24.8972 38.0619 26.9502 38.5751L36.8415 41.0479V40.6476C36.8415 40.1123 37.2755 39.6783 37.8108 39.6783H42.1889C42.7242 39.6783 43.1582 40.1123 43.1582 40.6476V41.0479L53.0495 38.5751C55.1024 38.0619 56.5427 36.2173 56.5427 34.1011V32.6105C56.5427 31.5398 55.6747 30.6719 54.604 30.6719Z" fill="#26B5B5"/>
<path d="M41.2207 43.5958V41.6133H38.7812V43.5958L40.001 44.0007L41.2207 43.5958Z" fill="#26B5B5"/>
<defs>
<linearGradient id="paint0_linear_4573_40561" x1="-1.04793e-06" y1="47.0588" x2="80" y2="43.2941" gradientUnits="userSpaceOnUse">
<stop stop-color="#26B5B5"/>
<stop offset="1" stop-color="#C7FF50"/>
</linearGradient>
</defs>
</svg>
