<svg width="80" height="80" viewBox="0 0 80 80" fill="none" xmlns="http://www.w3.org/2000/svg">
<path d="M40.2985 79.0326C23.6455 65.5041 10.5311 52.4568 0.939831 39.893C11.3009 26.1267 24.4177 13.1435 40.2989 0.946264C54.4896 11.9387 67.4063 24.9198 79.0483 39.8928C73.9264 46.3794 67.7188 53.2686 60.4222 60.5604C53.137 67.8409 46.4293 73.9973 40.2985 79.0326Z" fill="white" stroke="url(#paint0_linear_4573_40575)" stroke-width="1.5"/>
<path d="M26.668 58.3346V49.168H30.8346V44.5846H26.668V35.418H30.8346V30.8346H26.668V21.668H37.5013V30.8346H33.3346V35.418H37.5013V38.7513H44.168V35.418H55.0013V44.5846H44.168V41.2513H37.5013V44.5846H33.3346V49.168H37.5013V58.3346H26.668Z" fill="#26B5B5"/>
<defs>
<linearGradient id="paint0_linear_4573_40575" x1="-1.04793e-06" y1="47.0588" x2="80" y2="43.2941" gradientUnits="userSpaceOnUse">
<stop stop-color="#26B5B5"/>
<stop offset="1" stop-color="#C7FF50"/>
</linearGradient>
</defs>
</svg>
