<svg width="40" height="40" viewBox="0 0 40 40" fill="none" xmlns="http://www.w3.org/2000/svg">
<path d="M20.75 40L24.05 37C28.0833 33.3333 30.75 30.5667 32.05 28.7C33.35 26.8333 34 24.85 34 22.75C34 21.85 33.8583 21.025 33.575 20.275C33.2917 19.525 32.9167 18.7667 32.45 18H37C37.8333 18 38.5417 18.2917 39.125 18.875C39.7083 19.4583 40 20.1667 40 21V40H20.75ZM0 40V21C0 20.1667 0.283333 19.4583 0.85 18.875C1.41667 18.2917 2.13333 18 3 18H7.55C7.05 18.7 6.66667 19.45 6.4 20.25C6.13333 21.05 6 21.8833 6 22.75C6 24.85 6.63333 26.8167 7.9 28.65C9.16667 30.4833 11.85 33.2667 15.95 37L19.25 40H0ZM34 16C32.3 16 30.875 15.425 29.725 14.275C28.575 13.125 28 11.7 28 10C28 8.33333 28.575 6.91667 29.725 5.75C30.875 4.58333 32.3 4 34 4C35.6667 4 37.0833 4.58333 38.25 5.75C39.4167 6.91667 40 8.33333 40 10C40 11.7 39.4167 13.125 38.25 14.275C37.0833 15.425 35.6667 16 34 16ZM20 14C18.0333 14 16.375 13.325 15.025 11.975C13.675 10.625 13 8.96667 13 7C13 5.06667 13.675 3.41667 15.025 2.05C16.375 0.683333 18.0333 0 20 0C21.9333 0 23.5833 0.683333 24.95 2.05C26.3167 3.41667 27 5.06667 27 7C27 8.96667 26.3167 10.625 24.95 11.975C23.5833 13.325 21.9333 14 20 14ZM6 16C4.3 16 2.875 15.425 1.725 14.275C0.575 13.125 0 11.7 0 10C0 8.33333 0.575 6.91667 1.725 5.75C2.875 4.58333 4.3 4 6 4C7.66667 4 9.08333 4.58333 10.25 5.75C11.4167 6.91667 12 8.33333 12 10C12 11.7 11.4167 13.125 10.25 14.275C9.08333 15.425 7.66667 16 6 16Z" fill="#1AE3E3"/>
<path d="M9 22.75C9 24.2833 9.74167 25.9917 11.225 27.875C12.7083 29.7583 15.6333 32.6833 20 36.65C24.3 32.75 27.2083 29.8583 28.725 27.975C30.2417 26.0917 31 24.35 31 22.75C31 21.15 30.4583 19.7917 29.375 18.675C28.2917 17.5583 26.9667 17 25.4 17C24.5 17 23.675 17.1917 22.925 17.575C22.175 17.9583 21.5 18.4333 20.9 19L20 19.9L19.05 19C18.45 18.4667 17.775 18 17.025 17.6C16.275 17.2 15.4667 17 14.6 17C13 17 11.6667 17.5583 10.6 18.675C9.53333 19.7917 9 21.15 9 22.75Z" fill="#C7FF50"/>
</svg>
