<svg width="39" height="32" viewBox="0 0 39 32" fill="none" xmlns="http://www.w3.org/2000/svg">
<path d="M6.5 30V22H3C2.16667 22 1.45833 21.7083 0.875 21.125C0.291667 20.5417 0 19.8333 0 19V13C0 12.1667 0.291667 11.4583 0.875 10.875C1.45833 10.2917 2.16667 10 3 10H12L22 4V28L12 22H9.5V30H6.5ZM24 22.7V9.3C24.9 10.1 25.625 11.075 26.175 12.225C26.725 13.375 27 14.6333 27 16C27 17.3667 26.725 18.625 26.175 19.775C25.625 20.925 24.9 21.9 24 22.7Z" fill="#1AE3E3"/>
<path d="M30.55 17.5V14.5H38.05V17.5H30.55ZM33.05 32L27 27.5L28.8 25.1L34.85 29.6L33.05 32ZM28.95 6.85L27.15 4.45L33.05 0L34.85 2.4L28.95 6.85Z" fill="#C7FF50"/>
</svg>
