<svg width="38" height="34" viewBox="0 0 38 34" fill="none" xmlns="http://www.w3.org/2000/svg">
<path d="M0 31.8V27.1C0 25.9333 0.291667 24.8833 0.875 23.95C1.45833 23.0167 2.3 22.3 3.4 21.8C5.8 20.7333 8.025 19.9667 10.075 19.5C12.125 19.0333 14.1 18.8 16 18.8H17.15C16.45 20.5 16.1333 22.7417 16.2 25.525C16.2667 28.3083 16.8333 30.4 17.9 31.8H0ZM16 15.75C13.8 15.75 12 15.05 10.6 13.65C9.2 12.25 8.5 10.45 8.5 8.25C8.5 6.05 9.2 4.25 10.6 2.85C12 1.45 13.8 0.75 16 0.75C18.2 0.75 20 1.45 21.4 2.85C22.8 4.25 23.5 6.05 23.5 8.25C23.5 10.45 22.8 12.25 21.4 13.65C20 15.05 18.2 15.75 16 15.75Z" fill="#1AE3E3"/>
<path d="M26.7 33.9984L26.2 30.6984C25.6333 30.5318 25.0583 30.2901 24.475 29.9734C23.8917 29.6568 23.4 29.2984 23 28.8984L20.25 29.4984L19 27.3984L21.35 25.1984C21.2833 24.8984 21.25 24.4818 21.25 23.9484C21.25 23.4151 21.2833 22.9984 21.35 22.6984L19 20.4984L20.25 18.3984L23 18.9984C23.4 18.5984 23.8917 18.2401 24.475 17.9234C25.0583 17.6068 25.6333 17.3651 26.2 17.1984L26.7 13.8984H29.4L29.9 17.1984C30.4667 17.3651 31.0417 17.6068 31.625 17.9234C32.2083 18.2401 32.7 18.5984 33.1 18.9984L35.85 18.3984L37.1 20.4984L34.75 22.6984C34.8167 22.9984 34.85 23.4151 34.85 23.9484C34.85 24.4818 34.8167 24.8984 34.75 25.1984L37.1 27.3984L35.85 29.4984L33.1 28.8984C32.7 29.2984 32.2083 29.6568 31.625 29.9734C31.0417 30.2901 30.4667 30.5318 29.9 30.6984L29.4 33.9984H26.7ZM28.05 27.9484C29.25 27.9484 30.2167 27.5818 30.95 26.8484C31.6833 26.1151 32.05 25.1484 32.05 23.9484C32.05 22.7484 31.6833 21.7818 30.95 21.0484C30.2167 20.3151 29.25 19.9484 28.05 19.9484C26.85 19.9484 25.8833 20.3151 25.15 21.0484C24.4167 21.7818 24.05 22.7484 24.05 23.9484C24.05 25.1484 24.4167 26.1151 25.15 26.8484C25.8833 27.5818 26.85 27.9484 28.05 27.9484Z" fill="#C7FF50"/>
</svg>
