<svg width="36" height="36" viewBox="0 0 36 36" fill="none" xmlns="http://www.w3.org/2000/svg">
<path d="M16.5686 16.2773H20.7734L20.0642 19.5951H15.8594L16.5686 16.2773Z" fill="#26B5B5"/>
<path d="M18 0C8.05889 0 0 8.05889 0 18C0 27.9411 8.05889 36 18 36C27.9411 36 36 27.9411 36 18C36 8.05889 27.9411 0 18 0ZM28.7777 16.2778H24.8263L24.1171 19.5955H27.157V23.4965H23.2812L22.4453 27.3722H18.3924L19.2283 23.4965H15.0235L14.1876 27.3722H10.1354L10.9706 23.4965H7.22232V19.5955H11.8066L12.5158 16.2778H8.84304V12.3768H13.3265L14.1372 8.62776H18.1901L17.3794 12.3768H21.5842L22.3949 8.62776H26.4478L25.637 12.3768H28.7777V16.2778Z" fill="#26B5B5"/>
</svg>
