<svg width="48" height="48" viewBox="0 0 48 48" fill="none" xmlns="http://www.w3.org/2000/svg">
<g clip-path="url(#clip0_4186_7356)">
<path d="M44.15 18.8492L43.3 16.8992L41.3 15.9992L43.3 15.0992L44.15 13.1492L45.1 15.0992L47 15.9992L45.1 16.8992L44.15 18.8492ZM38 9.99922L36.65 7.09922L33.7 5.74922L36.65 4.39922L38 1.44922L39.35 4.39922L42.3 5.74922L39.35 7.09922L38 9.99922ZM18 42.2992C17.0667 42.2992 16.2583 41.9909 15.575 41.3742C14.8917 40.7576 14.4833 39.9826 14.35 39.0492H21.65C21.5167 39.9826 21.1083 40.7576 20.425 41.3742C19.7417 41.9909 18.9333 42.2992 18 42.2992ZM10.95 34.9992V33.4492H25.05V34.9992H10.95ZM10.95 29.4492C9.11667 28.1826 7.66667 26.6326 6.6 24.7992C5.53333 22.9659 5 20.8992 5 18.5992C5 15.0326 6.275 11.9742 8.825 9.42422C11.375 6.87422 14.4333 5.59922 18 5.59922C21.5667 5.59922 24.625 6.87422 27.175 9.42422C29.725 11.9742 31 15.0326 31 18.5992C31 20.8992 30.4667 22.9659 29.4 24.7992C28.3333 26.6326 26.8833 28.1826 25.05 29.4492H10.95Z" fill="#26B5B5"/>
<g clip-path="url(#clip1_4186_7356)">
<path d="M44.15 18.8492L43.3 16.8992L41.3 15.9992L43.3 15.0992L44.15 13.1492L45.1 15.0992L47 15.9992L45.1 16.8992L44.15 18.8492ZM38 9.99922L36.65 7.09922L33.7 5.74922L36.65 4.39922L38 1.44922L39.35 4.39922L42.3 5.74922L39.35 7.09922L38 9.99922ZM18 42.2992C17.0667 42.2992 16.2583 41.9909 15.575 41.3742C14.8917 40.7576 14.4833 39.9826 14.35 39.0492H21.65C21.5167 39.9826 21.1083 40.7576 20.425 41.3742C19.7417 41.9909 18.9333 42.2992 18 42.2992ZM10.95 34.9992V33.4492H25.05V34.9992H10.95ZM10.95 29.4492C9.11667 28.1826 7.66667 26.6326 6.6 24.7992C5.53333 22.9659 5 20.8992 5 18.5992C5 15.0326 6.275 11.9742 8.825 9.42422C11.375 6.87422 14.4333 5.59922 18 5.59922C21.5667 5.59922 24.625 6.87422 27.175 9.42422C29.725 11.9742 31 15.0326 31 18.5992C31 20.8992 30.4667 22.9659 29.4 24.7992C28.3333 26.6326 26.8833 28.1826 25.05 29.4492H10.95Z" fill="#26B5B5"/>
</g>
</g>
<defs>
<clipPath id="clip0_4186_7356">
<rect width="48" height="48" fill="white"/>
</clipPath>
<clipPath id="clip1_4186_7356">
<rect width="48" height="18" fill="white" transform="translate(0 30)"/>
</clipPath>
</defs>
</svg>
