<svg width="461" height="461" viewBox="0 0 461 461" fill="none" xmlns="http://www.w3.org/2000/svg">
<g clip-path="url(#clip0_4193_6273)">
<path d="M230.123 460.245C357.216 460.245 460.245 357.216 460.245 230.123C460.245 103.029 357.216 0 230.123 0C103.029 0 0 103.029 0 230.123C0 357.216 103.029 460.245 230.123 460.245Z" fill="#00516A"/>
<path opacity="0.2" d="M372.181 345.839L364.902 329.17L356.956 332.615C355.122 330.336 353.067 328.392 350.788 326.669L353.956 318.612L337.008 312L333.841 320.057C331.007 319.779 328.118 319.779 325.284 320.224L321.839 312.278L305.17 319.557L308.615 327.503C306.336 329.336 304.392 331.392 302.669 333.67L294.612 330.503L288 347.45L296.057 350.618C295.779 353.451 295.779 356.341 296.224 359.175L288.278 362.675L295.557 379.345L303.503 375.9C305.336 378.178 307.392 380.123 309.67 381.845L306.503 389.902L323.45 396.514L326.618 388.457C329.451 388.735 332.341 388.735 335.175 388.291L338.62 396.236L355.289 388.957L351.844 381.012C354.122 379.178 356.067 377.122 357.79 374.844L365.846 378.011L372.459 361.064L364.402 357.897C364.68 355.063 364.68 352.173 364.235 349.34L372.181 345.839ZM337.786 371.621C328.229 375.788 317.005 371.454 312.838 361.842C308.67 352.285 313.004 341.06 322.617 336.893C332.23 332.726 343.398 337.06 347.566 346.672C351.789 356.285 347.399 367.454 337.786 371.621Z" fill="#137FA0"/>
<path d="M460.798 216.926H272.818V83.0664H460.798V216.926ZM273.927 215.817H459.689V84.1754H273.927V215.817Z" fill="#FCC8D0"/>
<path d="M460.798 216.926H272.818V83.0664H460.798V216.926ZM273.927 215.817H459.689V84.1754H273.927V215.817Z" fill="#067294"/>
<path d="M281.191 92.2725C282.661 92.2725 283.853 91.0809 283.853 89.6109C283.853 88.1409 282.661 86.9492 281.191 86.9492C279.721 86.9492 278.529 88.1409 278.529 89.6109C278.529 91.0809 279.721 92.2725 281.191 92.2725Z" fill="white"/>
<path d="M289.841 92.2725C291.311 92.2725 292.503 91.0809 292.503 89.6109C292.503 88.1409 291.311 86.9492 289.841 86.9492C288.371 86.9492 287.18 88.1409 287.18 89.6109C287.18 91.0809 288.371 92.2725 289.841 92.2725Z" fill="white"/>
<path d="M298.492 92.2725C299.962 92.2725 301.153 91.0809 301.153 89.6109C301.153 88.1409 299.962 86.9492 298.492 86.9492C297.022 86.9492 295.83 88.1409 295.83 89.6109C295.83 91.0809 297.022 92.2725 298.492 92.2725Z" fill="white"/>
<path d="M380.949 37.9844H216.037V139.516H380.949V37.9844Z" fill="#FCC8D0"/>
<path d="M380.949 37.9844H216.037V139.516H380.949V37.9844Z" fill="#067294"/>
<path d="M391.929 17.2461H205.059V29.0018H391.929V17.2461Z" fill="#FCC8D0"/>
<path d="M391.929 17.2461H205.059V29.0018H391.929V17.2461Z" fill="#067294"/>
<path d="M322.393 150.551H204.504V16.6914H392.484V75.0261C392.484 75.3588 392.262 75.5807 391.929 75.5807C391.596 75.5807 391.375 75.3588 391.375 75.0261V17.8004H205.613V149.442H322.393C322.726 149.442 322.948 149.664 322.948 149.996C322.948 150.329 322.726 150.551 322.393 150.551Z" fill="#FCC8D0"/>
<path d="M322.393 150.551H204.504V16.6914H392.484V75.0261C392.484 75.3588 392.262 75.5807 391.929 75.5807C391.596 75.5807 391.375 75.3588 391.375 75.0261V17.8004H205.613V149.442H322.393C322.726 149.442 322.948 149.664 322.948 149.996C322.948 150.329 322.726 150.551 322.393 150.551Z" fill="#067294"/>
<path opacity="0.21" d="M214.873 21.2933C217.035 24.1767 213.819 27.3929 210.936 25.2303C208.718 22.3468 211.989 19.0752 214.873 21.2933Z" fill="white"/>
<path opacity="0.21" d="M223.523 21.2933C225.686 24.1767 222.47 27.3929 219.586 25.2303C217.368 22.3468 220.64 19.0752 223.523 21.2933Z" fill="white"/>
<path opacity="0.21" d="M232.174 21.2933C234.337 24.1767 231.121 27.3929 228.237 25.2303C226.075 22.3468 229.291 19.0752 232.174 21.2933Z" fill="white"/>
<path d="M371.634 98.3161H315.517C315.185 98.3161 314.963 98.0943 314.963 97.7615C314.963 97.4288 315.185 97.207 315.517 97.207H371.634C371.967 97.207 372.189 97.4288 372.189 97.7615C372.189 98.0388 371.967 98.3161 371.634 98.3161Z" fill="#2C95B6"/>
<path d="M304.981 98.3161H284.908C284.575 98.3161 284.354 98.0943 284.354 97.7615C284.354 97.4288 284.575 97.207 284.908 97.207H304.981C305.314 97.207 305.536 97.4288 305.536 97.7615C305.536 98.0388 305.314 98.3161 304.981 98.3161Z" fill="#2C95B6"/>
<path d="M371.633 109.461H349.176C348.843 109.461 348.621 109.239 348.621 108.906C348.621 108.573 348.843 108.352 349.176 108.352H371.633C371.966 108.352 372.188 108.573 372.188 108.906C372.188 109.239 371.966 109.461 371.633 109.461Z" fill="#2C95B6"/>
<path d="M338.972 109.461H284.963C284.63 109.461 284.408 109.239 284.408 108.906C284.408 108.573 284.63 108.352 284.963 108.352H338.972C339.305 108.352 339.527 108.573 339.527 108.906C339.527 109.239 339.249 109.461 338.972 109.461Z" fill="#2C95B6"/>
<path d="M371.633 120.609H322.392C322.06 120.609 321.838 120.387 321.838 120.055C321.838 119.722 322.06 119.5 322.392 119.5H371.633C371.966 119.5 372.188 119.722 372.188 120.055C372.188 120.387 371.966 120.609 371.633 120.609Z" fill="#2C95B6"/>
<path d="M303.04 120.609H284.963C284.63 120.609 284.408 120.387 284.408 120.055C284.408 119.722 284.63 119.5 284.963 119.5H303.04C303.373 119.5 303.594 119.722 303.594 120.055C303.594 120.387 303.373 120.609 303.04 120.609Z" fill="#FCC8D0"/>
<path d="M371.635 131.808H363.539C363.206 131.808 362.984 131.586 362.984 131.254C362.984 130.921 363.206 130.699 363.539 130.699H371.635C371.968 130.699 372.189 130.921 372.189 131.254C372.189 131.531 371.968 131.808 371.635 131.808Z" fill="#2C95B6"/>
<path d="M326.718 131.808H284.963C284.63 131.808 284.408 131.586 284.408 131.254C284.408 130.921 284.63 130.699 284.963 130.699H326.718C327.05 130.699 327.272 130.921 327.272 131.254C327.272 131.531 326.995 131.808 326.718 131.808Z" fill="#FCC8D0"/>
<path d="M276.701 46.1367H224.965V131.199H276.701V46.1367Z" fill="#2C95B6"/>
<path d="M43.3065 367.197L23.2886 363.87C-0.278162 353.723 -4.71426 327.272 4.32429 301.21C11.4221 280.693 18.5198 267.274 31.2182 247.922C47.0772 223.745 73.6938 208.773 102.528 207.83L374.018 200.289L375.293 221.97C377.179 253.91 352.447 281.137 320.507 282.301L284.852 283.632L288.124 360.987L43.3065 367.197Z" fill="#1AE3E3"/>
<path d="M126.65 206.611C163.137 204.005 197.24 202.674 227.017 203.672V204.781C220.363 222.747 205.613 234.115 189.199 237.83C187.425 238.218 181.603 221.804 181.603 221.804C181.603 221.804 178.719 239.161 176.113 239.105C162.084 238.717 147.999 232.784 137.63 220.64L126.65 206.611Z" fill="white"/>
<path d="M365.09 226.519C345.461 245.927 312.578 240.548 299.436 216.261C285.407 190.365 266.276 154.987 258.014 139.294C243.486 111.79 226.074 69.0929 232.118 66.7085C235.556 65.3777 239.105 70.701 247.756 85.6174C248.088 84.4529 249.918 81.0704 253.301 80.3495C258.291 79.2959 260.288 83.0666 260.62 83.3439C260.676 82.9557 261.785 78.2978 265.001 77.0224C268.661 75.5807 271.655 76.967 273.818 79.1296C274.039 78.1315 275.648 73.9726 278.808 72.8636C282.912 71.4773 286.571 74.5826 288.18 77.7987C291.174 83.6766 298.882 99.8684 304.094 107.909C308.197 114.286 372.133 177.001 374.462 202.065C375.404 212.268 371.412 220.309 365.09 226.519Z" fill="#F7AFBC"/>
<path d="M255.962 123.658C255.685 123.658 255.407 123.437 255.407 123.104L255.186 102.864C255.186 101.422 256.017 100.147 257.348 99.648C258.679 99.1489 260.121 99.4816 261.063 100.591C263.947 103.862 265.555 106.968 265.777 109.796C266.054 112.845 268.827 113.677 273.041 114.842C277.366 116.062 282.745 117.614 287.846 122.383C288.068 122.605 288.068 122.938 287.902 123.159C287.68 123.381 287.347 123.381 287.125 123.215C282.19 118.668 276.978 117.171 272.764 115.951C268.438 114.731 265.056 113.733 264.723 109.906C264.501 107.356 262.949 104.417 260.287 101.367C259.511 100.48 258.513 100.48 257.792 100.757C257.071 101.034 256.295 101.755 256.295 102.92L256.516 123.159C256.516 123.381 256.239 123.658 255.962 123.658Z" fill="#41193E"/>
<path d="M270.989 98.9819C270.324 98.9819 269.658 98.871 268.993 98.7046C267.163 98.1501 265.666 96.9302 264.779 95.2666L263.115 92.1614C263.17 94.4349 261.84 96.6529 259.622 97.5956C256.96 98.7046 253.855 97.651 252.413 95.1557L248.809 88.7234C248.642 88.4461 248.753 88.1134 249.03 87.9471C249.308 87.7807 249.64 87.8916 249.807 88.1689L253.411 94.6012C254.576 96.6529 257.071 97.4847 259.233 96.5975C261.507 95.5993 262.616 92.9377 261.729 90.6642L259.843 85.9508C259.733 85.6736 259.843 85.3409 260.121 85.23C260.398 85.1191 260.731 85.23 260.842 85.4518L265.777 94.7676C266.553 96.2093 267.773 97.2074 269.326 97.651C270.878 98.0947 272.486 97.9283 273.873 97.152C276.368 95.7657 277.477 92.7713 276.534 90.0542L273.928 82.5683C273.817 82.291 273.983 82.0138 274.205 81.9029C274.483 81.792 274.76 81.9029 274.926 82.1247L277.033 85.5627C279.64 89.8324 285.129 91.385 289.565 89.1115C289.843 88.9452 290.175 89.0561 290.286 89.3334C290.453 89.6106 290.342 89.9433 290.064 90.0542C285.406 92.4386 279.695 91.0523 276.645 86.8935L277.588 89.6661C278.697 92.8822 277.366 96.4311 274.372 98.0392C273.318 98.6492 272.154 98.9819 270.989 98.9819Z" fill="#41193E"/>
<path d="M164.523 279.529C135.578 277.367 64.2675 291.618 28.6124 299.27C16.3576 301.932 7.65178 312.689 7.54087 325.221C7.48542 330.545 8.70535 335.812 10.9789 340.581C22.3464 364.314 50.1829 375.072 74.5815 365.202L148.942 334.149C148.942 334.149 152.712 339.583 156.372 339.528C160.753 339.417 165.244 335.202 165.244 335.202C165.244 335.202 168.96 337.143 173.063 334.759C176.778 332.652 176.667 328.493 176.667 328.493C176.667 328.493 182.323 327.162 183.876 322.005C186.149 314.353 177.444 303.263 177.444 303.263C177.444 303.263 200.511 327.55 206.001 320.73C210.992 314.408 179.107 280.638 164.523 279.529Z" fill="#F7AFBC"/>
<path d="M19.6295 301.822C19.3522 301.822 19.1304 301.655 19.075 301.378C19.0195 301.101 19.1859 300.768 19.5186 300.713C28.169 298.827 41.6991 295.888 57.1145 292.839C57.3918 292.783 57.7245 292.95 57.7799 293.282C57.8354 293.56 57.669 293.892 57.3363 293.948C41.9209 296.997 28.3908 299.936 19.7958 301.822C19.7404 301.766 19.6849 301.822 19.6295 301.822Z" fill="#41193E"/>
<path d="M176.557 328.99H176.502C176.224 328.935 176.002 328.658 176.002 328.38C176.335 325.719 176.391 320.395 173.341 315.017C171.123 311.08 168.073 308.695 165.91 307.364C165.633 307.198 165.578 306.865 165.744 306.588C165.91 306.311 166.243 306.255 166.52 306.422C168.794 307.808 171.955 310.359 174.339 314.462C177.555 320.063 177.5 325.663 177.167 328.491C177.111 328.769 176.834 328.99 176.557 328.99Z" fill="#41193E"/>
<path d="M165.522 335.756C165.189 335.756 164.967 335.479 164.967 335.202C165.134 332.318 164.69 329.435 163.692 326.773C162.139 322.559 159.533 319.676 157.648 318.012C157.426 317.79 157.371 317.458 157.592 317.236C157.814 317.014 158.147 316.958 158.369 317.18C160.365 318.955 163.082 321.949 164.746 326.441C165.799 329.269 166.243 332.263 166.076 335.313C166.076 335.479 165.799 335.756 165.522 335.756Z" fill="#41193E"/>
<path d="M148.942 334.426C148.721 334.426 148.554 334.315 148.443 334.148C148.277 333.871 148.388 333.538 148.665 333.427L153.379 331.043C153.656 330.877 153.989 330.988 154.099 331.265C154.266 331.542 154.155 331.875 153.878 331.986L149.164 334.37C149.109 334.426 149.053 334.426 148.942 334.426Z" fill="#41193E"/>
<path d="M169.458 184.264C169.458 184.264 155.207 157.037 157.259 144.172C159.31 131.363 170.9 123.933 187.258 126.927C203.616 129.921 204.947 111.401 203.394 110.791C201.841 110.181 213.098 110.791 213.098 110.791C213.098 110.791 214.595 113.563 213.764 118.498C213.764 118.498 217.479 112.898 216.869 110.791C216.259 108.683 243.652 145.004 216.702 154.985C189.753 164.911 167.794 172.674 169.458 184.264Z" fill="#003C4F"/>
<path d="M171.066 166.133L166.075 207.888C165.632 211.603 168.072 215.041 171.731 215.817C180.16 217.592 187.757 217.702 193.247 213.322C194.855 212.046 195.797 210.161 195.964 208.165L198.514 171.179L171.066 166.133Z" fill="#F7AFBC"/>
<path d="M216.924 148.276C216.924 148.276 217.201 185.817 201.675 188.755C192.248 190.53 182.378 180.549 179.661 175.669C176.999 170.789 178.164 162.194 178.164 162.194C178.164 162.194 181.657 164.801 184.042 162.582C186.371 160.309 182.045 148.276 193.357 147.5C204.669 146.779 206.388 151.381 216.924 148.276Z" fill="#F7AFBC"/>
<path d="M197.628 189.977C197.572 189.977 197.572 189.977 197.517 189.977C192.027 189.089 186.482 185.097 183.432 181.437C183.21 181.215 183.266 180.827 183.488 180.661C183.709 180.439 184.098 180.494 184.264 180.716C187.203 184.154 192.471 188.036 197.683 188.868C197.96 188.923 198.182 189.2 198.127 189.477C198.127 189.81 197.905 189.977 197.628 189.977Z" fill="#41193E"/>
<path d="M183.82 165.354C185.095 168.238 184.763 173.783 181.879 175.114C178.996 176.389 174.615 172.951 173.34 170.068C172.064 167.184 173.34 163.802 176.223 162.471C179.162 161.195 182.545 162.471 183.82 165.354Z" fill="#FABCC6"/>
<path d="M176.444 170.567C176.222 170.567 176 170.456 175.945 170.234C175.834 170.012 175.779 169.79 175.723 169.569C175.28 167.739 176.222 165.909 177.775 165.521C178.163 165.41 178.607 165.41 178.995 165.521C179.272 165.576 179.494 165.909 179.438 166.186C179.383 166.463 179.05 166.685 178.773 166.63C178.551 166.574 178.274 166.574 178.052 166.63C177.054 166.852 176.499 168.071 176.777 169.347C176.832 169.513 176.888 169.68 176.943 169.79C177.054 170.068 176.943 170.4 176.666 170.511C176.555 170.511 176.499 170.567 176.444 170.567Z" fill="#41193E"/>
<path d="M206.388 173.34C206.221 173.34 206.111 173.284 206 173.174C205.778 172.952 205.778 172.619 206 172.397C206.332 172.065 206.554 171.676 206.554 171.399C206.554 171.066 206.388 170.845 206.111 170.456C205.889 170.124 205.556 169.736 205.334 169.181C205.002 168.46 204.891 167.684 204.891 166.797C204.891 166.464 205.112 166.242 205.445 166.242C205.778 166.242 206 166.519 206 166.797C206 167.518 206.111 168.128 206.332 168.682C206.554 169.126 206.776 169.458 206.998 169.791C207.33 170.235 207.663 170.734 207.663 171.399C207.663 172.009 207.386 172.619 206.776 173.174C206.665 173.284 206.499 173.34 206.388 173.34Z" fill="#41193E"/>
<path d="M202.062 178.554C201.619 178.554 201.231 178.443 200.842 178.277C199.456 177.611 199.013 175.837 199.013 175.782C198.957 175.504 199.123 175.172 199.401 175.116C199.678 175.061 200.011 175.227 200.066 175.504C200.066 175.56 200.399 176.835 201.342 177.279C201.841 177.501 202.451 177.501 203.116 177.168C203.393 177.057 203.726 177.168 203.837 177.445C203.948 177.722 203.837 178.055 203.56 178.166C203.061 178.443 202.561 178.554 202.062 178.554Z" fill="#41193E"/>
<path d="M165.965 149.442C165.965 149.442 111.678 166.521 121.161 118.167C130.698 69.7583 183.488 90.5525 177.887 139.239L165.965 149.442Z" fill="#003C4F"/>
<path d="M212.987 164.359C213.154 165.856 212.377 167.187 211.324 167.298C210.27 167.409 209.272 166.245 209.161 164.747C208.995 163.25 209.771 161.919 210.825 161.808C211.823 161.698 212.821 162.807 212.987 164.359Z" fill="#41193E"/>
<path d="M196.741 166.187C196.908 167.684 196.131 169.015 195.078 169.126C194.024 169.237 193.026 168.073 192.915 166.575C192.749 165.078 193.525 163.747 194.579 163.637C195.632 163.526 196.575 164.635 196.741 166.187Z" fill="#41193E"/>
<path d="M190.586 158.922C190.475 158.922 190.308 158.867 190.197 158.756C189.976 158.534 189.976 158.201 190.142 157.979C190.641 157.425 191.196 156.981 191.806 156.648C194.135 155.373 196.186 156.149 196.574 156.316C196.852 156.427 196.963 156.759 196.852 157.037C196.741 157.314 196.408 157.425 196.131 157.314C195.854 157.203 194.245 156.538 192.416 157.591C191.916 157.868 191.417 158.257 191.029 158.7C190.918 158.867 190.752 158.922 190.586 158.922Z" fill="#41193E"/>
<path d="M206.556 156.816C206.445 156.816 206.279 156.761 206.168 156.65C205.946 156.428 205.946 156.095 206.113 155.874C206.612 155.319 207.166 154.876 207.776 154.543C210.105 153.212 212.157 154.044 212.545 154.21C212.822 154.321 212.933 154.654 212.822 154.931C212.711 155.208 212.379 155.319 212.101 155.208C211.824 155.097 210.216 154.432 208.386 155.485C207.887 155.763 207.388 156.151 207 156.595C206.834 156.761 206.667 156.816 206.556 156.816Z" fill="#41193E"/>
<path d="M318.454 362.651H216.701L258.068 274.262H359.765L318.454 362.651Z" fill="#C7FF50"/>
<path d="M156.094 353.777C156.094 358.713 160.086 362.705 165.021 362.705H250.139L254.298 353.777H156.094Z" fill="#C7FF50"/>
<path d="M408.674 289.512C408.341 289.512 408.119 289.29 408.119 288.958V279.254C408.119 278.921 408.341 278.699 408.674 278.699C409.006 278.699 409.228 278.921 409.228 279.254V288.958C409.228 289.29 409.006 289.512 408.674 289.512Z" fill="#FCC8D0"/>
<path d="M408.674 289.512C408.341 289.512 408.119 289.29 408.119 288.958V279.254C408.119 278.921 408.341 278.699 408.674 278.699C409.006 278.699 409.228 278.921 409.228 279.254V288.958C409.228 289.29 409.006 289.512 408.674 289.512Z" fill="#067294"/>
<path d="M408.674 270.602C408.341 270.602 408.119 270.38 408.119 270.047V245.815H435.29V221.805C435.29 221.472 435.512 221.25 435.845 221.25C436.177 221.25 436.399 221.472 436.399 221.805V246.924H409.228V270.047C409.228 270.38 409.006 270.602 408.674 270.602Z" fill="#FCC8D0"/>
<path d="M408.674 270.602C408.341 270.602 408.119 270.38 408.119 270.047V245.815H435.29V221.805C435.29 221.472 435.512 221.25 435.845 221.25C436.177 221.25 436.399 221.472 436.399 221.805V246.924H409.228V270.047C409.228 270.38 409.006 270.602 408.674 270.602Z" fill="#067294"/>
<path opacity="0.2" d="M412.389 246.59C412.389 248.642 410.726 250.305 408.674 250.305C406.623 250.305 404.959 248.642 404.959 246.59C404.959 244.539 406.623 242.875 408.674 242.875C410.726 242.875 412.389 244.539 412.389 246.59Z" fill="white"/>
<path opacity="0.2" d="M439.561 246.59C439.561 248.642 437.898 250.305 435.846 250.305C433.794 250.305 432.131 248.642 432.131 246.59C432.131 244.539 433.794 242.875 435.846 242.875C437.898 242.875 439.561 244.539 439.561 246.59Z" fill="white"/>
<path d="M396.752 289.511C396.419 289.511 396.197 289.289 396.197 288.957V261.176C396.197 260.843 396.419 260.621 396.752 260.621C397.084 260.621 397.306 260.843 397.306 261.176V288.957C397.306 289.289 397.084 289.511 396.752 289.511Z" fill="#FCC8D0"/>
<path d="M396.752 289.511C396.419 289.511 396.197 289.289 396.197 288.957V261.176C396.197 260.843 396.419 260.621 396.752 260.621C397.084 260.621 397.306 260.843 397.306 261.176V288.957C397.306 289.289 397.084 289.511 396.752 289.511Z" fill="#067294"/>
<path d="M396.752 252.304C396.42 252.304 396.198 252.082 396.198 251.75V164.137H362.982V147.39C362.982 147.058 363.204 146.836 363.537 146.836C363.87 146.836 364.091 147.058 364.091 147.39V163.028H397.307V251.75C397.307 252.027 397.085 252.304 396.752 252.304Z" fill="#FCC8D0"/>
<path d="M396.752 252.304C396.42 252.304 396.198 252.082 396.198 251.75V164.137H362.982V147.39C362.982 147.058 363.204 146.836 363.537 146.836C363.87 146.836 364.091 147.058 364.091 147.39V163.028H397.307V251.75C397.307 252.027 397.085 252.304 396.752 252.304Z" fill="#067294"/>
<path opacity="0.2" d="M400.468 216.371C400.468 218.423 398.804 220.087 396.752 220.087C394.701 220.087 393.037 218.423 393.037 216.371C393.037 214.32 394.701 212.656 396.752 212.656C398.804 212.656 400.468 214.32 400.468 216.371Z" fill="white"/>
<path opacity="0.2" d="M396.752 273.763C398.804 273.763 400.468 272.099 400.468 270.047C400.468 267.995 398.804 266.332 396.752 266.332C394.7 266.332 393.037 267.995 393.037 270.047C393.037 272.099 394.7 273.763 396.752 273.763Z" fill="white"/>
<g clip-path="url(#clip1_4193_6273)">
<path d="M292.478 41.8165L291.951 40.6279C291.708 40.0793 291.048 39.8246 290.5 40.0676L289.403 40.5535L283.185 43.3072C283.738 40.1096 282.064 38.5539 281.111 37.8825C280.593 37.4554 279.629 37.0074 278.715 37.4124L278.624 37.4529C277.801 37.8173 277.17 38.8623 277.402 39.6343C277.554 40.2234 278.67 41.2605 278.881 42.4792C279.073 43.1597 278.808 44.0427 278.564 44.479C278.32 44.9153 277.068 46.7819 277.392 47.5133L277.878 48.6105C278 48.8848 278.04 48.9763 278.04 48.9763L281.928 57.7539C282.252 58.4854 283.043 58.791 283.775 58.4671L293.65 54.0936L294.747 53.6077C295.295 53.3647 295.844 53.1217 295.754 52.1773C295.755 51.1925 295.512 50.6439 295.512 50.6439C295.269 50.0953 293.878 50.1645 293.329 50.4075C293.878 50.1645 294.59 49.3024 294.621 48.6323C294.653 47.9622 294.511 47.1498 294.511 47.1498C294.268 46.6012 293.335 46.4679 292.877 46.6704C293.426 46.4275 294.229 45.5248 293.986 44.9762L293.419 43.6962C293.176 43.1476 292.151 43.0548 291.602 43.2978C292.1 43.1868 292.72 42.3652 292.478 41.8165Z" fill="#1AE3E3"/>
<path d="M276.873 49.0575C276.67 48.6003 276.183 48.488 275.817 48.65L269.508 51.4441C269.051 51.6466 268.807 52.0829 269.01 52.5401L273.261 62.1406C273.464 62.5978 273.951 62.7101 274.317 62.5481L280.626 59.754C281.083 59.5515 281.195 59.0643 281.033 58.6985L276.873 49.0575ZM278.271 59.3752C277.539 59.6992 276.748 59.3936 276.424 58.6621C276.1 57.9306 276.405 57.139 277.137 56.8151C277.868 56.4911 278.66 56.7968 278.984 57.5282C279.308 58.2597 279.002 59.0513 278.271 59.3752Z" fill="#1AE3E3"/>
</g>
<g opacity="0.7" clip-path="url(#clip2_4193_6273)">
<path d="M165.618 59.7611L166.07 58.9777C166.279 58.6162 166.151 58.1409 165.79 57.9322L165.067 57.5147L160.969 55.1489C162.993 54.1482 163.181 52.5696 163.168 51.7583C163.196 51.2924 163.052 50.5668 162.45 50.2189L162.389 50.1841C161.847 49.871 161.001 49.9449 160.662 50.3922C160.393 50.7189 160.268 51.7713 159.67 52.39C159.366 52.777 158.761 52.9901 158.415 53.0317C158.07 53.0733 156.507 53.1354 156.229 53.6175L155.812 54.3406C155.707 54.5214 155.672 54.5816 155.672 54.5816L152.333 60.3665C152.054 60.8485 152.207 61.4188 152.689 61.6971L159.197 65.4545L159.92 65.872C160.282 66.0807 160.643 66.2895 161.137 65.8515C161.691 65.4483 161.9 65.0868 161.9 65.0868C162.109 64.7252 161.499 63.9717 161.138 63.7629C161.499 63.9717 162.276 64.0183 162.665 63.7611C163.055 63.5039 163.454 63.0914 163.454 63.0914C163.663 62.7299 163.354 62.1503 163.053 61.9763C163.415 62.1851 164.251 62.2665 164.46 61.9049L164.947 61.0613C165.156 60.6997 164.788 60.0853 164.426 59.8766C164.693 60.1108 165.409 60.1226 165.618 59.7611Z" fill="#1AE3E3"/>
<path d="M155.148 53.9584C155.322 53.6571 155.185 53.3372 154.944 53.198L150.786 50.7975C150.485 50.6235 150.14 50.6652 149.966 50.9664L146.313 57.2936C146.139 57.5949 146.276 57.9148 146.517 58.054L150.674 60.4545C150.976 60.6285 151.296 60.4918 151.435 60.2508L155.148 53.9584ZM149.922 58.9753C149.439 58.697 149.287 58.1267 149.565 57.6447C149.843 57.1626 150.414 57.0098 150.896 57.2881C151.378 57.5664 151.531 58.1367 151.252 58.6188C150.974 59.1009 150.404 59.2537 149.922 58.9753Z" fill="#1AE3E3"/>
</g>
<g clip-path="url(#clip3_4193_6273)">
<path d="M210.408 48.6064C207.511 53.6237 201.08 55.3036 196.063 52.4068C191.075 49.4589 189.366 43.0792 192.262 38.0619C195.159 33.0446 201.59 31.3647 206.607 34.2614C211.625 37.1582 213.304 43.5891 210.408 48.6064Z" fill="#FF428E"/>
<path d="M207.716 42.2741C205.726 39.6914 202.5 41.3782 202.5 41.3782C202.5 41.3782 202.347 37.7406 199.115 37.3082C195.884 36.8759 193.915 40.9954 195.2 43.8535C196.042 45.7051 197.837 49.3354 197.837 49.3354C197.837 49.3354 201.849 49.126 203.925 48.9592C207.043 48.6432 209.626 44.8783 207.716 42.2741Z" fill="white"/>
</g>
<g clip-path="url(#clip4_4193_6273)">
<path d="M240.923 27.0241C242.521 29.7907 241.55 33.3249 238.783 34.9223C236 36.4914 232.482 35.5488 230.885 32.7821C229.288 30.0154 230.259 26.4812 233.025 24.8839C235.792 23.2865 239.326 24.2574 240.923 27.0241Z" fill="#FF428E"/>
<path d="M237.157 26.5655C235.375 26.8039 235.291 28.8099 235.291 28.8099C235.291 28.8099 233.511 27.8797 232.414 29.3038C231.316 30.728 232.741 32.804 234.46 32.9783C235.576 33.0865 237.805 33.2302 237.805 33.2302C237.805 33.2302 238.811 31.2566 239.304 30.2193C240.013 28.6433 238.927 26.3717 237.157 26.5655Z" fill="white"/>
</g>
</g>
<defs>
<clipPath id="clip0_4193_6273">
<rect width="460.8" height="460.8" fill="white"/>
</clipPath>
<clipPath id="clip1_4193_6273">
<rect width="25.9" height="21.3" fill="white" transform="translate(265 43.4883) rotate(-23.888)"/>
</clipPath>
<clipPath id="clip2_4193_6273">
<rect width="18.0214" height="14.8207" fill="white" transform="translate(153.41 45) rotate(30)"/>
</clipPath>
<clipPath id="clip3_4193_6273">
<rect width="20.9866" height="20.9866" fill="white" transform="translate(197.494 29) rotate(30)"/>
</clipPath>
<clipPath id="clip4_4193_6273">
<rect width="11.5725" height="11.5725" fill="white" transform="translate(228 27.7852) rotate(-30)"/>
</clipPath>
</defs>
</svg>
