<svg width="460" height="460" viewBox="0 0 460 460" fill="none" xmlns="http://www.w3.org/2000/svg">
<path d="M230 460C357.025 460 460 357.025 460 230C460 102.975 357.025 0 230 0C102.975 0 0 102.975 0 230C0 357.025 102.975 460 230 460Z" fill="#04617E"/>
<path d="M339.997 95.9414H146.594V242.953H339.997V95.9414Z" fill="#005D7A"/>
<path d="M264.846 92.5166C267.418 91.2424 270.029 89.3418 270.599 86.5341C271.201 83.5703 268.876 80.349 265.868 79.9735C267.911 78.789 269.824 77.3818 271.564 75.7869C265.043 71.7914 257.551 69.0452 249.898 69.223C242.247 69.4008 234.463 72.8131 230.132 79.103C228.331 81.7196 227.141 84.8927 227.502 88.046C227.882 91.357 229.912 94.276 232.318 96.5886C235.451 99.6006 239.503 101.89 243.854 102.046C246.79 102.151 249.823 101.134 252.018 99.167C252.576 98.6669 253.078 98.1054 253.503 97.489C253.809 97.0438 254.068 96.0486 254.484 95.7413C254.979 95.3758 256.171 95.414 256.777 95.2894C257.642 95.1116 258.499 94.9006 259.345 94.6548C261.239 94.1065 263.082 93.3905 264.846 92.5166Z" fill="#003C4F"/>
<path d="M245.118 118.814L240.839 118.348L245.123 103.659C245.123 103.659 245.637 82.6961 231.942 95.9536L222.208 119.064L218.18 119.569C218.18 119.569 219.813 128.793 231.307 128.768C241.072 128.747 245.29 125.462 245.118 118.814Z" fill="#F7AFBC"/>
<path d="M257.87 89.1136C257.87 89.1136 246.849 90.5689 239.28 87.4805C237.074 89.2398 235.689 91.3962 234.952 93.8683C234.952 93.8683 234.209 91.5607 232.238 91.6704C230.108 91.79 228.228 93.6042 228.002 95.719C227.775 97.8339 229.111 99.9804 231.056 100.854C232.154 101.348 233.224 101.695 234.569 101.294C235.469 103.835 234.364 112.095 245.076 113.464C251.647 114.304 252.975 110.849 254.63 106.652C256.285 102.456 258.693 95.9234 257.87 89.1136Z" fill="#F7AFBC"/>
<path d="M234.294 98.7434C234.204 98.7434 234.116 98.7102 234.044 98.6454C233.244 97.9028 232.572 97.0439 232.046 96.0886C231.948 95.9125 232.013 95.6899 232.191 95.5919C232.367 95.4955 232.591 95.5586 232.689 95.7364C233.179 96.6236 233.802 97.421 234.546 98.1105C234.694 98.2483 234.702 98.4793 234.564 98.6271C234.491 98.7052 234.392 98.7434 234.294 98.7434Z" fill="#41193E"/>
<path d="M247.212 106.082C244.857 105.748 242.557 104.696 240.996 102.907C238.883 100.488 238.355 97.0058 238.853 93.836C239.12 92.1331 239.656 90.4884 240.298 88.8919C240.701 87.8884 241.708 86.257 240.953 85.1572C239.599 83.1852 233.399 87.3834 232.024 88.3552C233.708 91.9736 235.097 95.6718 234.13 99.5427C233.259 103.038 231.302 106.569 232.3 110.031C232.862 111.978 234.327 113.581 236.067 114.629C237.805 115.678 239.804 116.221 241.808 116.565C244.282 116.988 246.969 117.091 249.158 115.869C250.918 114.887 251.691 113.498 252.44 111.629C253.186 109.762 255.788 104.732 256.095 102.743C253.74 104.317 249.567 106.414 247.212 106.082Z" fill="#003C4F"/>
<path d="M326.701 118.644C337.04 109.231 346.542 98.6916 358.444 91.3402C359.493 90.6923 360.604 90.056 361.832 89.953C363.061 89.85 364.435 90.4364 364.852 91.5927C365.274 92.764 364.615 94.0299 363.915 95.0616C361.716 98.2979 358.503 101.644 355.208 103.765C355.208 103.765 360.659 104.599 360.379 109.713C360.379 109.713 363.596 110.283 362.139 116.466C362.139 116.466 363.962 121.307 359.618 124.015C356.493 125.963 354.435 125.19 354.435 125.19C354.435 125.19 343.984 138.228 337.175 142.697C330.368 147.166 321.135 123.711 326.701 118.644Z" fill="#F7AFBC"/>
<path d="M342.319 118.957C341.35 118.957 340.384 118.562 339.931 117.679C339.839 117.5 339.911 117.279 340.091 117.188C340.271 117.096 340.492 117.166 340.584 117.347C341.045 118.246 342.39 118.425 343.355 118.03C344.258 117.659 344.998 116.922 345.712 116.207C345.838 116.081 345.965 115.955 346.092 115.83C346.931 115.01 348.073 114.056 349.468 113.973C350.249 113.926 350.998 114.161 351.716 114.388C352.457 114.623 353.157 114.845 353.854 114.75C354.522 114.661 355.119 114.25 355.535 113.597C356.069 112.76 356.222 111.675 355.934 110.768C355.299 108.763 353.242 107.666 352.073 107.193C349.936 106.326 347.601 106.063 345.325 106.434C345.125 106.467 344.937 106.331 344.903 106.131C344.87 105.932 345.007 105.744 345.207 105.713C347.616 105.319 350.086 105.598 352.349 106.515C353.637 107.039 355.907 108.258 356.632 110.549C356.982 111.655 356.799 112.974 356.152 113.99C355.619 114.829 354.836 115.357 353.951 115.476C353.091 115.593 352.279 115.335 351.493 115.086C350.808 114.868 350.161 114.664 349.509 114.704C348.358 114.774 347.351 115.623 346.603 116.354C346.478 116.477 346.353 116.6 346.23 116.724C345.465 117.49 344.672 118.281 343.632 118.708C343.23 118.869 342.774 118.957 342.319 118.957Z" fill="#41193E"/>
<path d="M272.298 164.092C272.298 164.092 309.429 169.724 340.264 140.659C332.903 136.459 328.384 128.935 325.979 118.935C325.979 118.935 313.415 131.138 301.413 131.144C290.999 131.149 268.48 120.136 245.16 118.578C244.7 120.047 244.04 121.467 243.061 122.667C241.175 124.981 238.16 126.255 235.267 126.714C232.489 127.154 229.568 127.004 226.855 126.25C224.415 125.572 222.039 124.341 220.236 122.55C219.407 121.726 218.729 120.788 218.219 119.771C201.364 121.108 190.752 123.143 181.848 133.98C170.375 147.946 160.811 174.216 163.597 190.803C166.383 207.39 174.031 212.523 183.793 215.717L183.366 224.686C182.893 234.623 192.752 241.815 202.109 238.359L280.054 209.573C283.845 208.172 285.832 204.021 284.539 200.201L272.298 164.092Z" fill="#1AE3E3"/>
<path d="M272.104 163.738C271.951 163.738 271.807 163.642 271.756 163.489L269.659 157.23C269.596 157.039 269.699 156.832 269.891 156.769C270.083 156.705 270.291 156.808 270.354 156.999L272.451 163.258C272.514 163.449 272.411 163.656 272.219 163.72C272.182 163.731 272.142 163.738 272.104 163.738Z" fill="#41193E"/>
<path d="M259.507 189.779H217.578L233.255 137.121H275.183L259.507 189.779Z" fill="#C7FF50"/>
<path d="M253.315 176.165C255.003 174.543 256.033 172.781 254.957 171.055C253.878 169.328 251.169 168.925 249.632 170.264C250.77 169.37 251.939 168.441 252.632 167.174C253.323 165.904 253.418 164.197 252.464 163.11C251.625 162.155 250.187 161.917 248.944 162.191C248.331 162.328 247.752 162.568 247.196 162.859C247.736 162.052 247.884 160.91 247.426 160.028C246.646 158.521 244.741 157.877 243.05 158.068C241.36 158.257 239.827 159.11 238.345 159.944C228.433 165.507 208.847 176.806 208.847 176.806C208.332 179.617 218.652 202.251 222.557 206.032C225.083 205.275 244.019 190.152 251.195 184.016C252.399 182.988 253.637 181.898 254.247 180.439C254.86 178.979 254.633 177.044 253.315 176.165Z" fill="#F7AFBC"/>
<path d="M235.571 170.732C235.448 170.732 235.328 170.671 235.258 170.558C235.151 170.387 235.206 170.161 235.378 170.054C239.001 167.832 242.627 165.509 246.156 163.148C246.325 163.035 246.553 163.08 246.665 163.248C246.778 163.416 246.733 163.643 246.565 163.755C243.027 166.12 239.392 168.448 235.763 170.676C235.703 170.714 235.638 170.732 235.571 170.732Z" fill="#41193E"/>
<path d="M240.164 177.509C240.049 177.509 239.937 177.456 239.866 177.357C239.747 177.192 239.786 176.964 239.951 176.847L249.306 170.178C249.471 170.06 249.7 170.098 249.818 170.263C249.936 170.427 249.898 170.655 249.733 170.773L240.377 177.441C240.312 177.488 240.237 177.509 240.164 177.509Z" fill="#41193E"/>
<path d="M244.538 183.067C244.42 183.067 244.305 183.01 244.235 182.905C244.122 182.738 244.165 182.512 244.333 182.399C247.171 180.485 249.953 178.415 252.597 176.247C252.754 176.119 252.986 176.142 253.114 176.297C253.242 176.453 253.221 176.682 253.064 176.812C250.401 178.993 247.601 181.078 244.745 183.005C244.68 183.045 244.608 183.067 244.538 183.067Z" fill="#41193E"/>
<path d="M192.584 217.264C189.918 217.264 187.247 217.053 184.597 216.623C184.397 216.592 184.262 216.404 184.294 216.205C184.327 216.005 184.515 215.869 184.714 215.902C197.792 218.022 211.411 214.749 222.083 206.923C222.246 206.803 222.474 206.838 222.596 207.001C222.716 207.164 222.681 207.393 222.518 207.512C213.852 213.867 203.268 217.264 192.584 217.264Z" fill="#41193E"/>
<path d="M186.727 189.971C186.6 189.971 186.477 189.906 186.409 189.788C186.307 189.613 186.367 189.389 186.544 189.288L207.563 177.178C207.738 177.077 207.963 177.137 208.065 177.311C208.166 177.486 208.106 177.71 207.93 177.811L186.91 189.921C186.852 189.954 186.789 189.971 186.727 189.971Z" fill="#41193E"/>
<path d="M275.896 204.085C249.046 185.822 193.286 234.713 193.286 234.713C193.286 234.713 193.178 237.727 193 243H234.993H263.43H291C282.285 218.779 291.318 214.575 275.896 204.085Z" fill="#00303F"/>
<path d="M245.828 243.317C245.624 243.317 245.461 243.154 245.461 242.951V237.482C245.461 234.972 246.497 232.53 248.304 230.78L253.638 225.619C253.783 225.477 254.015 225.482 254.157 225.627C254.298 225.772 254.293 226.002 254.148 226.144L248.814 231.305C247.149 232.917 246.193 235.17 246.193 237.482V242.951C246.194 243.154 246.029 243.317 245.828 243.317Z" fill="#41193E"/>
<path d="M169.738 65.9609H123.32V112.205H169.738V65.9609Z" fill="#005D7A"/>
<path d="M169.738 112.522H123.32C123.143 112.522 123 112.38 123 112.202V65.9601C123 65.7844 123.143 65.6406 123.32 65.6406H169.738C169.916 65.6406 170.058 65.7829 170.058 65.9601C170.058 66.1358 169.916 66.2796 169.738 66.2796H123.641V111.884H169.418V88.3414C169.418 88.1657 169.56 88.022 169.738 88.022C169.916 88.022 170.058 88.1643 170.058 88.3414V112.204C170.058 112.38 169.916 112.522 169.738 112.522Z" fill="#005A76"/>
<path d="M150.857 105.842C150.752 105.842 150.654 105.791 150.594 105.705L128.566 74.3544C128.464 74.2106 128.499 74.0102 128.645 73.91C128.789 73.8084 128.989 73.8432 129.091 73.9884L150.848 104.955L182.452 57.144C182.549 56.9973 182.747 56.9552 182.896 57.0525C183.045 57.1498 183.085 57.3473 182.988 57.4954L151.125 105.698C151.066 105.787 150.967 105.84 150.862 105.842C150.859 105.842 150.858 105.842 150.857 105.842Z" fill="#005A76"/>
<path d="M230.006 354.283C229.812 354.283 229.656 354.128 229.656 353.934V288.81C229.656 288.618 229.812 288.461 230.006 288.461H291.171C291.365 288.461 291.521 288.616 291.521 288.81C291.521 289.003 291.365 289.158 291.171 289.158H230.354V353.934C230.356 354.128 230.198 354.283 230.006 354.283Z" fill="#005A76"/>
<path d="M227.781 349.816L228.438 349.578L230.005 353.87L231.571 349.578L232.229 349.816L230.005 355.907L227.781 349.816Z" fill="#005A76"/>
<path d="M289.508 334.262C289.508 334.262 297.626 315.255 304.105 300.823C308.423 291.209 316.986 284.149 327.264 281.709L350.354 276.23H362.978C362.978 276.23 376.258 278.925 387.63 281.794C394.501 283.527 400.395 287.914 404.017 293.988C409.85 303.767 419.469 320.098 428.52 336.405C439.481 356.153 425.17 380.379 402.531 380.379H379.648L337.731 374.145L289.508 334.262Z" fill="#1AE3E3"/>
<path d="M281.989 380.387H379.647C380.301 380.387 380.957 380.22 381.495 379.85C382.76 378.984 383.198 377.433 382.699 376.101C381.395 373.375 378.701 372.418 374.717 372.418H274.734L276.199 376.386C277.102 378.792 279.41 380.387 281.989 380.387Z" fill="#C7FF50"/>
<path d="M281.364 380.39C279.153 380.39 277.165 379.046 276.347 377L250.3 328.054C249.781 326.756 249.942 325.284 250.729 324.128C251.517 322.971 252.828 322.277 254.232 322.277H322.18C326.274 322.277 329.924 324.848 331.292 328.694L356.139 380.39H281.364Z" fill="#C7FF50"/>
<path d="M347.139 373.294H279.771C279.552 373.294 279.375 373.118 279.375 372.899C279.375 372.68 279.552 372.504 279.771 372.504H347.139C347.358 372.504 347.535 372.68 347.535 372.899C347.535 373.118 347.357 373.294 347.139 373.294Z" fill="#41193E"/>
<path d="M336.069 274.118C336.069 274.118 327.872 261.304 333.067 243.588C338.262 225.873 342.26 215.287 368.003 212.211C393.745 209.134 398.609 240.202 379.804 271.66C379.804 271.66 382.011 270.446 393.199 282.816C398.301 288.455 382.698 303.72 362.271 302.731C341.844 301.743 317.641 285.602 317.641 285.602C317.641 285.602 324.337 278.819 336.069 274.118Z" fill="#003C4F"/>
<path d="M342.986 235.949C341.962 236.795 332.459 259.483 343.212 267.382C353.964 275.281 361.159 267.593 364.36 261.608C367.561 255.623 363.49 233.569 351.56 231.093C351.56 231.093 348.223 230.061 345.679 232.57C344.475 233.756 342.986 235.949 342.986 235.949Z" fill="#F7AFBC"/>
<path d="M415.799 194.828H351.311C351.117 194.828 350.961 194.673 350.961 194.479C350.961 194.288 351.117 194.131 351.311 194.131H415.45V116.837C415.45 116.645 415.605 116.488 415.799 116.488C415.993 116.488 416.149 116.644 416.149 116.837V194.479C416.149 194.671 415.993 194.828 415.799 194.828Z" fill="#005A76"/>
<path d="M418.026 120.959L417.369 121.196L415.802 116.905L414.236 121.196L413.578 120.959L415.802 114.867L418.026 120.959Z" fill="#005A76"/>
<path d="M366.352 181.161C368.512 179.008 368.512 175.516 366.352 173.362C364.192 171.209 360.689 171.209 358.529 173.362C356.368 175.516 356.368 179.008 358.529 181.161C360.689 183.315 364.192 183.315 366.352 181.161Z" fill="#005A76"/>
<path d="M382.492 181.161C384.653 179.008 384.653 175.516 382.492 173.362C380.332 171.209 376.83 171.209 374.669 173.362C372.509 175.516 372.509 179.008 374.669 181.161C376.83 183.315 380.332 183.315 382.492 181.161Z" fill="#005A76"/>
<path d="M398.641 181.161C400.801 179.008 400.801 175.516 398.641 173.362C396.481 171.209 392.978 171.209 390.818 173.362C388.658 175.516 388.658 179.008 390.818 181.161C392.978 183.315 396.481 183.315 398.641 181.161Z" fill="#005A76"/>
<path d="M106.945 202.792L107.603 202.555L109.171 206.844L110.737 202.555L111.393 202.792L109.171 208.882L106.945 202.792Z" fill="#005A76"/>
<path d="M55.3048 153.814C57.5812 151.783 57.7749 148.296 55.7374 146.027C53.6999 143.758 50.2028 143.564 47.9265 145.596C45.6501 147.627 45.4564 151.113 47.4939 153.382C49.5313 155.652 53.0284 155.845 55.3048 153.814Z" fill="#005A76"/>
<path d="M71.4454 153.814C73.7218 151.783 73.9155 148.296 71.878 146.027C69.8405 143.758 66.3435 143.564 64.0671 145.596C61.7907 147.627 61.597 151.113 63.6345 153.382C65.672 155.652 69.169 155.845 71.4454 153.814Z" fill="#005A76"/>
<path d="M87.5939 153.814C89.8703 151.783 90.0639 148.296 88.0264 146.027C85.989 143.758 82.4919 143.564 80.2155 145.596C77.9391 147.627 77.7455 151.113 79.7829 153.382C81.8204 155.652 85.3175 155.845 87.5939 153.814Z" fill="#005A76"/>
<path d="M25.9964 143.602H29.8539C30.2023 141.736 30.7001 139.894 31.3223 138.127L27.9874 136.211L34.5079 124.912L37.8428 126.853C39.0622 125.41 40.4061 124.091 41.8496 122.846L39.9084 119.511L51.2073 112.991L53.1236 116.326C54.8906 115.704 56.7074 115.206 58.5988 114.858V111H71.6398V114.858C73.5063 115.206 75.348 115.704 77.115 116.326L79.0313 112.991L90.3302 119.511L88.3889 122.846C89.8324 124.066 91.1515 125.41 92.3958 126.853L95.7307 124.912L102.251 136.211L98.9163 138.127C99.5385 139.894 100.036 141.711 100.385 143.602H104.242V156.643H100.385C100.036 158.51 99.5385 160.352 98.9163 162.119L102.251 164.035L95.7307 175.334L92.3958 173.393C91.1763 174.836 89.8324 176.155 88.3889 177.399L90.3302 180.734L79.0313 187.255L77.115 183.92C75.348 184.542 73.5312 185.04 71.6398 185.388V189.246H58.5988V185.388C56.7323 185.04 54.8906 184.542 53.1236 183.92L51.2073 187.255L39.9084 180.734L41.8496 177.399C40.4061 176.18 39.0871 174.836 37.8428 173.393L34.5079 175.334L27.9874 164.035L31.3223 162.119C30.7001 160.352 30.2023 158.535 29.8539 156.643H25.9964V143.602ZM38.241 160.65C40.9537 168.241 46.9764 174.264 54.5671 176.976C78.434 185.513 100.484 163.463 91.9478 139.596C89.2351 132.005 83.2124 125.982 75.6217 123.269C51.7797 114.733 29.7046 136.783 38.241 160.65Z" fill="#005A76"/>
<path d="M392.996 232.936H396.065C396.342 231.451 396.738 229.986 397.233 228.58L394.58 227.056L399.767 218.067L402.42 219.612C403.39 218.463 404.46 217.414 405.608 216.424L404.064 213.771L413.052 208.584L414.577 211.237C415.982 210.742 417.427 210.346 418.932 210.069V207H429.306V210.069C430.791 210.346 432.256 210.742 433.662 211.237L435.187 208.584L444.175 213.771L442.631 216.424C443.779 217.394 444.828 218.463 445.818 219.612L448.471 218.067L453.658 227.056L451.005 228.58C451.5 229.986 451.896 231.431 452.173 232.936H455.242V243.31H452.173C451.896 244.795 451.5 246.26 451.005 247.666L453.658 249.19L448.471 258.179L445.818 256.634C444.848 257.783 443.779 258.832 442.631 259.822L444.175 262.475L435.187 267.662L433.662 265.009C432.256 265.504 430.811 265.9 429.306 266.177V269.246H418.932V266.177C417.447 265.9 415.982 265.504 414.577 265.009L413.052 267.662L404.064 262.475L405.608 259.822C404.46 258.852 403.41 257.783 402.42 256.634L399.767 258.179L394.58 249.19L397.233 247.666C396.738 246.26 396.342 244.815 396.065 243.31H392.996V232.936ZM402.737 246.498C404.895 252.536 409.686 257.327 415.725 259.485C434.711 266.276 452.253 248.735 445.462 229.748C443.304 223.71 438.513 218.919 432.474 216.761C413.507 209.97 395.946 227.511 402.737 246.498Z" fill="#005A76"/>
<path d="M24.8777 354.25L26.8173 353.719L35.5482 365.892L37.828 379.794H176.03L177.219 316.786L199.201 302.762C201.333 301.403 201.893 298.539 200.43 296.481C184.252 273.718 163.947 263.297 155.284 259.653C152.692 258.562 149.886 258.094 147.078 258.271C98.1937 261.358 55.0265 278.301 37.8818 285.866C32.4516 288.262 28.139 292.606 25.7051 298.007C15.6382 320.336 16.5892 340.15 17.9754 349.725C18.4482 353 21.6791 355.123 24.8777 354.25Z" fill="#1AE3E3"/>
<path d="M166.518 319.102L197.276 303.902C197.276 303.902 217.755 339.613 192.911 360.473C168.067 381.336 124.927 355.924 109.388 350.448C93.8502 344.974 58.6437 340.275 58.6437 340.275L48.1058 343.057C45.3012 343.798 42.8314 341.012 43.9526 338.343C44.6098 336.777 46.1268 335.126 49.2251 333.728C49.2251 333.728 35.3256 336.401 45.4337 326.281C55.5418 316.159 68.0587 310.742 96.918 318.327C118.832 324.087 130.769 316.129 130.769 316.129L166.518 319.102Z" fill="#F7AFBC"/>
<path d="M50.7609 333.454C50.5853 333.454 50.4242 333.336 50.3794 333.157C50.3257 332.947 50.4546 332.734 50.6659 332.681L61.6516 329.926C61.8611 329.874 62.0761 330.001 62.1298 330.211C62.1835 330.422 62.0546 330.634 61.8432 330.688L50.8576 333.443C50.8253 333.45 50.7931 333.454 50.7609 333.454Z" fill="#41193E"/>
<path d="M44.3326 327.874C44.1929 327.874 44.0568 327.799 43.9852 327.669C43.8813 327.478 43.9529 327.24 44.1446 327.137C48.7742 324.641 53.7404 322.873 58.9073 321.882C59.124 321.841 59.3282 321.98 59.3694 322.193C59.4106 322.405 59.2709 322.612 59.0578 322.653C53.9697 323.63 49.0786 325.371 44.5207 327.828C44.4616 327.86 44.3971 327.874 44.3326 327.874Z" fill="#41193E"/>
<path d="M162.993 318.805L155.199 318.325C155.199 318.325 128.562 335.838 115.718 350.446C102.873 365.053 81.7165 391.647 59.6645 388.52C37.6126 385.394 27.9254 369.725 23.2188 354.701L45.7166 343.99L56.8456 340.273C56.8456 340.273 104.678 303.861 141.874 299.242C141.874 299.24 158.795 298.266 162.993 318.805Z" fill="#F7AFBC"/>
<path d="M115.714 350.84C115.621 350.84 115.53 350.808 115.455 350.742C115.292 350.599 115.274 350.351 115.419 350.188C128.151 335.709 154.714 318.174 154.979 317.999C155.051 317.953 155.135 317.928 155.221 317.935L163.015 318.415C163.232 318.429 163.398 318.615 163.384 318.831C163.37 319.047 163.18 319.215 162.967 319.199L155.303 318.728C153.426 319.972 128.256 336.78 116.01 350.708C115.933 350.795 115.824 350.84 115.714 350.84Z" fill="#41193E"/>
<path d="M48.1452 343.568C47.9804 343.568 47.8264 343.464 47.7709 343.3C47.701 343.095 47.8121 342.872 48.0198 342.804L56.6558 339.92C57.6891 339.14 73.5265 327.26 93.4902 316.505C93.6818 316.401 93.9218 316.472 94.0239 316.663C94.1278 316.854 94.0561 317.092 93.8645 317.196C73.3689 328.238 57.2432 340.463 57.082 340.585C57.048 340.611 57.0086 340.631 56.9674 340.645L48.2706 343.55C48.2276 343.561 48.1864 343.568 48.1452 343.568Z" fill="#41193E"/>
<path d="M80.0938 270.926C80.0938 270.926 92.7593 280.103 102.817 277.816C112.875 275.529 104.983 264.486 104.983 264.486L108.07 245.654L86.448 242.465L80.0938 270.926Z" fill="#F7AFBC"/>
<path d="M65.5779 221.301C62.5583 215.767 66.2817 209.432 72.8885 208.63C76.8788 208.146 77.1886 201.61 80.749 199.751C84.3094 197.893 89.324 198.271 91.6397 201.546C94.9924 198.896 101.252 194.834 105.263 196.316C111.113 198.478 108.903 203.795 107.588 208.907C106.274 214.019 113.865 224.263 110.371 228.227C104.015 235.435 96.3374 241.63 87.4686 245.362C75.8275 250.256 70.7842 230.843 65.5779 221.301Z" fill="#003C4F"/>
<path d="M80.2563 232.481C77.6898 233.281 76.1353 236.057 76.0225 238.735C75.7932 244.199 81.3559 249.132 86.7717 248.269C88.7328 252.278 93.9266 253.267 98.3878 253.619C103.684 254.035 109.744 253.958 113.326 250.048C115.676 247.484 116.373 243.745 115.968 240.294C115.563 236.845 114.186 233.593 112.823 230.396C111.44 227.155 110.059 223.913 108.677 220.672C108.131 219.39 107.523 218.033 106.358 217.264C104.194 215.839 101.329 217.069 99.0541 218.31C95.431 220.285 91.4103 222.793 90.7387 226.855C90.3895 228.965 91.0467 231.156 90.6294 233.254C90.162 235.607 87.7084 237.302 85.8942 235.707C84.0961 234.127 83.6877 231.412 80.2563 232.481Z" fill="#F7AFBC"/>
<path d="M102.182 254.182C100.801 254.182 99.4881 254.101 98.3454 254.01C94.2316 253.687 88.5185 252.757 86.407 248.443C86.3121 248.249 86.3927 248.013 86.5879 247.919C86.7849 247.824 87.0195 247.904 87.1144 248.099C89.0486 252.052 94.486 252.92 98.4081 253.228C100.684 253.407 103.65 253.552 106.421 253.07C106.639 253.034 106.84 253.175 106.878 253.389C106.915 253.603 106.772 253.807 106.557 253.844C105.104 254.096 103.607 254.182 102.182 254.182Z" fill="#41193E"/>
<path d="M88.5667 243.105C88.4682 243.105 88.3679 243.067 88.2927 242.994C86.5698 241.325 84.1018 240.391 81.7073 240.496C81.496 240.507 81.3062 240.337 81.2972 240.121C81.2883 239.905 81.4566 239.721 81.6733 239.712C84.2917 239.594 86.9656 240.614 88.8425 242.432C88.9983 242.583 89.0019 242.831 88.8496 242.987C88.7726 243.065 88.6688 243.105 88.5667 243.105Z" fill="#41193E"/>
<path d="M240.439 351.5H200.922V390.895H240.439V351.5Z" fill="#005D7A"/>
<path d="M235.464 386.31C235.364 386.31 235.262 386.272 235.185 386.195L205.647 356.749C205.493 356.595 205.493 356.347 205.647 356.193C205.801 356.04 206.05 356.04 206.204 356.193L235.742 385.64C235.896 385.794 235.896 386.042 235.742 386.195C235.667 386.272 235.566 386.31 235.464 386.31Z" fill="#005A76"/>
<path d="M205.926 386.31C205.826 386.31 205.724 386.272 205.647 386.195C205.493 386.042 205.493 385.794 205.647 385.64L235.185 356.193C235.339 356.04 235.588 356.04 235.742 356.193C235.896 356.347 235.896 356.595 235.742 356.749L206.204 386.195C206.129 386.272 206.026 386.31 205.926 386.31Z" fill="#005A76"/>
</svg>
