<svg width="67" height="102" viewBox="0 0 67 102" fill="none" xmlns="http://www.w3.org/2000/svg">
<path d="M13.139 58.1797L9.02588 6.76562H58.3834L54.2703 58.1797L33.7046 64.3494L13.139 58.1797Z" fill="#E44D26"/>
<path d="M54.2702 10.8789H33.7046V61.2647L50.1571 56.1233L54.2702 10.8789Z" fill="#F16529"/>
<path d="M20.3373 36.5881L18.2808 17.0508H50.1575L49.1292 23.2205H24.4504L25.4787 30.4184H48.1009L46.0444 49.9558L33.705 54.0689L21.3656 49.9558L20.3373 39.673H26.507L27.5353 44.8144L33.705 46.8709L39.8747 44.8144L40.9029 36.5881H20.3373Z" fill="white"/>
<path d="M7.45068 97.0078V84.5878H9.03468V90.0778H15.0827V84.5878H16.6667V97.0078H15.0827V91.4638H9.03468V97.0078H7.45068ZM22.0816 97.0078V85.9918H18.3556V84.5878H27.3556V85.9918H23.6656V97.0078H22.0816ZM29.0542 97.0078V84.5878H31.8622L35.1562 94.7218L38.4862 84.5878H41.2942V97.0078H39.7102V86.3518H39.4402L36.0202 96.5758H34.3282L30.9082 86.3518H30.6382V97.0078H29.0542ZM44.2065 97.0078V84.5878H45.7905V95.6038H51.1545V97.0078H44.2065ZM56.4378 97.1698C55.9938 97.1698 55.5198 97.1398 55.0158 97.0798C54.5238 97.0198 54.0498 96.9538 53.5938 96.8818C53.1378 96.7978 52.7598 96.7198 52.4598 96.6478L52.6218 95.3878C52.9218 95.4358 53.2818 95.4958 53.7018 95.5678C54.1338 95.6278 54.5718 95.6818 55.0158 95.7298C55.4718 95.7658 55.8918 95.7838 56.2758 95.7838C57.0678 95.7838 57.6918 95.5618 58.1478 95.1178C58.6038 94.6738 58.8318 94.0258 58.8318 93.1738C58.8318 92.5978 58.7298 92.1478 58.5258 91.8238C58.3338 91.4878 58.0578 91.2538 57.6978 91.1218C57.3498 90.9778 56.9358 90.9058 56.4558 90.9058C56.1078 90.9058 55.7538 90.9418 55.3938 91.0138C55.0458 91.0858 54.7278 91.1758 54.4398 91.2838C54.1518 91.3798 53.9118 91.4818 53.7198 91.5898L52.6578 91.3918L52.9818 85.1278H59.9838V86.5498H54.2598L53.9538 90.1858C54.1578 90.0898 54.4038 89.9938 54.6918 89.8978C54.9918 89.7898 55.3098 89.6998 55.6458 89.6278C55.9818 89.5438 56.3178 89.5018 56.6538 89.5018C57.4338 89.5018 58.1058 89.6218 58.6698 89.8618C59.2338 90.0898 59.6718 90.4618 59.9838 90.9778C60.2958 91.4938 60.4518 92.1778 60.4518 93.0298C60.4518 93.9538 60.2898 94.7218 59.9658 95.3338C59.6538 95.9458 59.1978 96.4078 58.5978 96.7198C57.9978 97.0198 57.2778 97.1698 56.4378 97.1698Z" fill="#A6D3E1"/>
</svg>
