<svg width="66" height="102" viewBox="0 0 66 102" fill="none" xmlns="http://www.w3.org/2000/svg">
<path fill-rule="evenodd" clip-rule="evenodd" d="M32.9033 33.5032C32.9033 28.9602 36.5861 25.2773 41.1291 25.2773C45.6721 25.2773 49.3549 28.9602 49.3549 33.5032C49.3549 38.0461 45.6721 41.729 41.1291 41.729C36.5861 41.729 32.9033 38.0461 32.9033 33.5032Z" fill="#1ABCFE"/>
<path fill-rule="evenodd" clip-rule="evenodd" d="M16.4517 49.9524C16.4517 45.4094 20.1345 41.7266 24.6775 41.7266H32.9033V49.9524C32.9033 54.4954 29.2205 58.1782 24.6775 58.1782C20.1345 58.1782 16.4517 54.4954 16.4517 49.9524Z" fill="#0ACF83"/>
<path fill-rule="evenodd" clip-rule="evenodd" d="M32.9033 8.82422V25.2758H41.1291C45.6721 25.2758 49.3549 21.593 49.3549 17.05C49.3549 12.507 45.6721 8.82422 41.1291 8.82422H32.9033Z" fill="#FF7262"/>
<path fill-rule="evenodd" clip-rule="evenodd" d="M16.4517 17.05C16.4517 21.593 20.1345 25.2758 24.6775 25.2758H32.9033V8.82422H24.6775C20.1345 8.82422 16.4517 12.507 16.4517 17.05Z" fill="#F24E1E"/>
<path fill-rule="evenodd" clip-rule="evenodd" d="M16.4517 33.5032C16.4517 38.0461 20.1345 41.729 24.6775 41.729H32.9033V25.2773H24.6775C20.1345 25.2773 16.4517 28.9602 16.4517 33.5032Z" fill="#A259FF"/>
<path d="M10.8857 97.0039V84.5839H18.4277V85.9699H12.4697V90.6139H17.4737V91.9999H12.4697V97.0039H10.8857ZM20.1623 97.0039V88.0039H21.6743V97.0039H20.1623ZM20.1623 86.0959V84.4219H21.6743V86.0959H20.1623ZM27.7157 101.216C26.7797 101.216 26.0237 101.138 25.4477 100.982C24.8717 100.826 24.4457 100.55 24.1697 100.154C23.9057 99.7579 23.7737 99.2179 23.7737 98.5339C23.7737 98.1859 23.8277 97.8859 23.9357 97.6339C24.0437 97.3939 24.1997 97.1719 24.4037 96.9679C24.6077 96.7519 24.8657 96.5299 25.1777 96.3019C25.0217 96.1819 24.8957 96.0139 24.7997 95.7979C24.7157 95.5699 24.6737 95.3179 24.6737 95.0419C24.6737 94.9099 24.7457 94.6999 24.8897 94.4119C25.0337 94.1119 25.1717 93.8479 25.3037 93.6199C25.0517 93.4999 24.8177 93.3379 24.6017 93.1339C24.3977 92.9179 24.2297 92.6299 24.0977 92.2699C23.9657 91.9099 23.8997 91.4539 23.8997 90.9019C23.8997 89.7979 24.2117 89.0119 24.8357 88.5439C25.4717 88.0639 26.2997 87.8239 27.3197 87.8239C27.6437 87.8239 27.9857 87.8479 28.3457 87.8959C28.7057 87.9439 28.9877 87.9919 29.1917 88.0399L31.9097 87.9859V89.2279L30.2537 89.1919C30.4217 89.3599 30.5597 89.5819 30.6677 89.8579C30.7757 90.1219 30.8297 90.4699 30.8297 90.9019C30.8297 91.6939 30.6977 92.3119 30.4337 92.7559C30.1697 93.1999 29.7737 93.5119 29.2457 93.6919C28.7297 93.8719 28.0757 93.9619 27.2837 93.9619C27.1997 93.9619 27.0557 93.9559 26.8517 93.9439C26.6597 93.9199 26.5157 93.9019 26.4197 93.8899C26.3597 94.0459 26.2937 94.2319 26.2217 94.4479C26.1497 94.6519 26.1137 94.7899 26.1137 94.8619C26.1137 95.0899 26.1557 95.2639 26.2397 95.3839C26.3237 95.4919 26.5217 95.5639 26.8337 95.5999C27.1457 95.6359 27.6317 95.6539 28.2917 95.6539C29.1437 95.6539 29.8277 95.7259 30.3437 95.8699C30.8597 96.0139 31.2257 96.2779 31.4417 96.6619C31.6697 97.0339 31.7837 97.5799 31.7837 98.2999C31.7837 99.3319 31.4237 100.076 30.7037 100.532C29.9957 100.988 28.9997 101.216 27.7157 101.216ZM27.7157 99.9559C28.5917 99.9559 29.2337 99.8299 29.6417 99.5779C30.0497 99.3379 30.2537 98.9419 30.2537 98.3899C30.2537 97.9699 30.1817 97.6579 30.0377 97.4539C29.9057 97.2619 29.6837 97.1299 29.3717 97.0579C29.0597 96.9979 28.6397 96.9679 28.1117 96.9679C27.9917 96.9679 27.8357 96.9679 27.6437 96.9679C27.4637 96.9559 27.2717 96.9499 27.0677 96.9499C26.8757 96.9379 26.6957 96.9259 26.5277 96.9139C26.3717 96.9019 26.2637 96.8959 26.2037 96.8959C25.8437 97.1479 25.5977 97.3759 25.4657 97.5799C25.3337 97.7839 25.2677 98.0539 25.2677 98.3899C25.2677 98.7619 25.3337 99.0619 25.4657 99.2899C25.6097 99.5179 25.8617 99.6859 26.2217 99.7939C26.5817 99.9019 27.0797 99.9559 27.7157 99.9559ZM27.3197 92.7559C28.0397 92.7559 28.5497 92.6179 28.8497 92.3419C29.1497 92.0539 29.2997 91.5739 29.2997 90.9019C29.2997 90.2299 29.1497 89.7499 28.8497 89.4619C28.5497 89.1739 28.0397 89.0299 27.3197 89.0299C26.6477 89.0299 26.1617 89.1739 25.8617 89.4619C25.5737 89.7499 25.4297 90.2299 25.4297 90.9019C25.4297 91.5739 25.5737 92.0539 25.8617 92.3419C26.1617 92.6179 26.6477 92.7559 27.3197 92.7559ZM33.4866 97.0039V88.0039H34.9986V88.6159C35.2866 88.4479 35.6766 88.2739 36.1686 88.0939C36.6606 87.9139 37.1286 87.8239 37.5726 87.8239C38.1726 87.8239 38.6526 87.8959 39.0126 88.0399C39.3726 88.1839 39.6666 88.4119 39.8946 88.7239C40.1346 88.5919 40.4286 88.4599 40.7766 88.3279C41.1246 88.1839 41.4966 88.0639 41.8926 87.9679C42.2886 87.8719 42.6786 87.8239 43.0626 87.8239C43.8906 87.8239 44.5206 87.9679 44.9526 88.2559C45.3966 88.5319 45.7026 88.9999 45.8706 89.6599C46.0506 90.3079 46.1406 91.1719 46.1406 92.2519V97.0039H44.6106V92.3239C44.6106 91.5679 44.5626 90.9619 44.4666 90.5059C44.3826 90.0379 44.2146 89.7019 43.9626 89.4979C43.7106 89.2939 43.3266 89.1919 42.8106 89.1919C42.3426 89.1919 41.8866 89.2639 41.4426 89.4079C40.9986 89.5399 40.6566 89.6719 40.4166 89.8039C40.4886 90.1159 40.5366 90.4999 40.5606 90.9559C40.5966 91.3999 40.6146 91.8619 40.6146 92.3419V97.0039H39.1026V92.3959C39.1026 91.6039 39.0606 90.9739 38.9766 90.5059C38.8926 90.0379 38.7186 89.7019 38.4546 89.4979C38.2026 89.2939 37.8126 89.1919 37.2846 89.1919C36.8526 89.1919 36.4206 89.2639 35.9886 89.4079C35.5686 89.5399 35.2386 89.6719 34.9986 89.8039V97.0039H33.4866ZM50.567 97.1839C49.715 97.1839 49.067 96.9499 48.623 96.4819C48.191 96.0139 47.975 95.3239 47.975 94.4119C47.975 93.8119 48.077 93.3259 48.281 92.9539C48.497 92.5819 48.815 92.2999 49.235 92.1079C49.667 91.9159 50.189 91.7959 50.801 91.7479L53.501 91.4779V90.7399C53.501 90.1519 53.369 89.7379 53.105 89.4979C52.841 89.2579 52.457 89.1379 51.953 89.1379C51.641 89.1379 51.275 89.1499 50.855 89.1739C50.447 89.1979 50.033 89.2279 49.613 89.2639C49.205 89.2999 48.845 89.3359 48.533 89.3719L48.461 88.2199C48.749 88.1599 49.097 88.0999 49.505 88.0399C49.925 87.9799 50.357 87.9319 50.801 87.8959C51.257 87.8479 51.671 87.8239 52.043 87.8239C52.739 87.8239 53.309 87.9259 53.753 88.1299C54.197 88.3339 54.521 88.6519 54.725 89.0839C54.941 89.5039 55.049 90.0499 55.049 90.7219V95.2219C55.073 95.4739 55.175 95.6599 55.355 95.7799C55.535 95.8879 55.763 95.9599 56.039 95.9959L55.985 97.1839C55.721 97.1839 55.475 97.1659 55.247 97.1299C55.019 97.1059 54.815 97.0699 54.635 97.0219C54.455 96.9619 54.293 96.8899 54.149 96.8059C54.005 96.7099 53.867 96.6019 53.735 96.4819C53.507 96.5779 53.219 96.6799 52.871 96.7879C52.523 96.8959 52.151 96.9859 51.755 97.0579C51.359 97.1419 50.963 97.1839 50.567 97.1839ZM50.837 95.9239C51.149 95.9239 51.473 95.8999 51.809 95.8519C52.145 95.7919 52.463 95.7199 52.763 95.6359C53.063 95.5519 53.309 95.4739 53.501 95.4019V92.5939L50.999 92.8279C50.483 92.8759 50.111 93.0319 49.883 93.2959C49.655 93.5479 49.541 93.9079 49.541 94.3759C49.541 94.8559 49.649 95.2339 49.865 95.5099C50.093 95.7859 50.417 95.9239 50.837 95.9239Z" fill="#A6D3E1"/>
</svg>
