<svg width="66" height="101" viewBox="0 0 66 101" fill="none" xmlns="http://www.w3.org/2000/svg">
<path d="M45.5234 51.9726C38.7354 55.877 29.4021 56.2782 20.012 52.2709C12.4091 49.0501 6.10064 43.4122 2.05664 36.9705C3.99777 38.5809 6.26238 39.8698 8.68872 40.9965C18.386 45.5222 28.0811 45.2123 34.904 41.0081C25.1984 33.599 16.9385 23.9234 10.7919 16.032C9.49726 14.7434 8.52669 13.1327 7.55613 11.6831C14.997 18.4478 26.806 26.9836 31.0109 29.4007C22.1154 20.0582 14.1885 8.4623 14.5114 8.78381C28.5848 22.9576 41.6881 31.0112 41.6881 31.0112C42.1216 31.2545 42.4561 31.4572 42.7252 31.6382C43.0088 30.9199 43.2575 30.1741 43.4669 29.4007C45.7315 21.1864 43.144 11.8439 37.4818 4.11328C50.5836 12.0054 58.349 26.8229 55.1129 39.2255C55.0285 39.56 54.9369 39.8902 54.838 40.2146C61.3074 48.2682 59.6421 56.9431 58.8334 55.3326C55.3238 48.4941 48.8265 50.5852 45.5234 51.9726Z" fill="url(#paint0_linear_4153_5697)"/>
<path d="M3.81348 96.4102L7.16148 83.9902H10.4555L13.8035 96.4102H12.2195L11.3555 93.3502H6.24348L5.37948 96.4102H3.81348ZM6.54948 91.9822H11.0495L9.24948 85.3222H8.34948L6.54948 91.9822ZM15.4353 96.4102V87.4102H16.9473V88.0222C17.1513 87.9022 17.4033 87.7822 17.7033 87.6622C18.0153 87.5422 18.3393 87.4402 18.6753 87.3562C19.0233 87.2722 19.3533 87.2302 19.6653 87.2302C20.4933 87.2302 21.1293 87.3802 21.5733 87.6802C22.0173 87.9682 22.3233 88.4362 22.4913 89.0842C22.6593 89.7322 22.7433 90.5902 22.7433 91.6582V96.4102H21.2133V91.7122C21.2133 90.9562 21.1653 90.3502 21.0693 89.8942C20.9853 89.4382 20.8113 89.1082 20.5473 88.9042C20.2953 88.7002 19.8993 88.5982 19.3593 88.5982C19.0713 88.5982 18.7713 88.6342 18.4593 88.7062C18.1593 88.7662 17.8773 88.8442 17.6133 88.9402C17.3493 89.0362 17.1273 89.1322 16.9473 89.2282V96.4102H15.4353ZM28.684 100.622C27.748 100.622 26.992 100.544 26.416 100.388C25.84 100.232 25.414 99.9562 25.138 99.5602C24.874 99.1642 24.742 98.6242 24.742 97.9402C24.742 97.5922 24.796 97.2922 24.904 97.0402C25.012 96.8002 25.168 96.5782 25.372 96.3742C25.576 96.1582 25.834 95.9362 26.146 95.7082C25.99 95.5882 25.864 95.4202 25.768 95.2042C25.684 94.9762 25.642 94.7242 25.642 94.4482C25.642 94.3162 25.714 94.1062 25.858 93.8182C26.002 93.5182 26.14 93.2542 26.272 93.0262C26.02 92.9062 25.786 92.7442 25.57 92.5402C25.366 92.3242 25.198 92.0362 25.066 91.6762C24.934 91.3162 24.868 90.8602 24.868 90.3082C24.868 89.2042 25.18 88.4182 25.804 87.9502C26.44 87.4702 27.268 87.2302 28.288 87.2302C28.612 87.2302 28.954 87.2542 29.314 87.3022C29.674 87.3502 29.956 87.3982 30.16 87.4462L32.878 87.3922V88.6342L31.222 88.5982C31.39 88.7662 31.528 88.9882 31.636 89.2642C31.744 89.5282 31.798 89.8762 31.798 90.3082C31.798 91.1002 31.666 91.7182 31.402 92.1622C31.138 92.6062 30.742 92.9182 30.214 93.0982C29.698 93.2782 29.044 93.3682 28.252 93.3682C28.168 93.3682 28.024 93.3622 27.82 93.3502C27.628 93.3262 27.484 93.3082 27.388 93.2962C27.328 93.4522 27.262 93.6382 27.19 93.8542C27.118 94.0582 27.082 94.1962 27.082 94.2682C27.082 94.4962 27.124 94.6702 27.208 94.7902C27.292 94.8982 27.49 94.9702 27.802 95.0062C28.114 95.0422 28.6 95.0602 29.26 95.0602C30.112 95.0602 30.796 95.1322 31.312 95.2762C31.828 95.4202 32.194 95.6842 32.41 96.0682C32.638 96.4402 32.752 96.9862 32.752 97.7062C32.752 98.7382 32.392 99.4822 31.672 99.9382C30.964 100.394 29.968 100.622 28.684 100.622ZM28.684 99.3622C29.56 99.3622 30.202 99.2362 30.61 98.9842C31.018 98.7442 31.222 98.3482 31.222 97.7962C31.222 97.3762 31.15 97.0642 31.006 96.8602C30.874 96.6682 30.652 96.5362 30.34 96.4642C30.028 96.4042 29.608 96.3742 29.08 96.3742C28.96 96.3742 28.804 96.3742 28.612 96.3742C28.432 96.3622 28.24 96.3562 28.036 96.3562C27.844 96.3442 27.664 96.3322 27.496 96.3202C27.34 96.3082 27.232 96.3022 27.172 96.3022C26.812 96.5542 26.566 96.7822 26.434 96.9862C26.302 97.1902 26.236 97.4602 26.236 97.7962C26.236 98.1682 26.302 98.4682 26.434 98.6962C26.578 98.9242 26.83 99.0922 27.19 99.2002C27.55 99.3082 28.048 99.3622 28.684 99.3622ZM28.288 92.1622C29.008 92.1622 29.518 92.0242 29.818 91.7482C30.118 91.4602 30.268 90.9802 30.268 90.3082C30.268 89.6362 30.118 89.1562 29.818 88.8682C29.518 88.5802 29.008 88.4362 28.288 88.4362C27.616 88.4362 27.13 88.5802 26.83 88.8682C26.542 89.1562 26.398 89.6362 26.398 90.3082C26.398 90.9802 26.542 91.4602 26.83 91.7482C27.13 92.0242 27.616 92.1622 28.288 92.1622ZM37.2088 96.5902C36.4408 96.5902 35.8468 96.4342 35.4268 96.1222C35.0188 95.8102 34.7368 95.3242 34.5808 94.6642C34.4368 93.9922 34.3648 93.1402 34.3648 92.1082V87.4102H35.8768V92.0902C35.8768 92.8582 35.9128 93.4702 35.9848 93.9262C36.0688 94.3822 36.2368 94.7122 36.4888 94.9162C36.7528 95.1202 37.1368 95.2222 37.6408 95.2222C38.1448 95.2222 38.6068 95.1562 39.0268 95.0242C39.4468 94.8802 39.7828 94.7362 40.0348 94.5922V87.4102H41.5648V96.4102H40.0348V95.7982C39.6508 96.0142 39.2368 96.2002 38.7928 96.3562C38.3488 96.5122 37.8208 96.5902 37.2088 96.5902ZM44.1601 96.4102V83.5222H45.6901V96.4102H44.1601ZM50.3224 96.5902C49.4704 96.5902 48.8224 96.3562 48.3784 95.8882C47.9464 95.4202 47.7304 94.7302 47.7304 93.8182C47.7304 93.2182 47.8324 92.7322 48.0364 92.3602C48.2524 91.9882 48.5704 91.7062 48.9904 91.5142C49.4224 91.3222 49.9444 91.2022 50.5564 91.1542L53.2564 90.8842V90.1462C53.2564 89.5582 53.1244 89.1442 52.8604 88.9042C52.5964 88.6642 52.2124 88.5442 51.7084 88.5442C51.3964 88.5442 51.0304 88.5562 50.6104 88.5802C50.2024 88.6042 49.7884 88.6342 49.3684 88.6702C48.9604 88.7062 48.6004 88.7422 48.2884 88.7782L48.2164 87.6262C48.5044 87.5662 48.8524 87.5062 49.2604 87.4462C49.6804 87.3862 50.1124 87.3382 50.5564 87.3022C51.0124 87.2542 51.4264 87.2302 51.7984 87.2302C52.4944 87.2302 53.0644 87.3322 53.5084 87.5362C53.9524 87.7402 54.2764 88.0582 54.4804 88.4902C54.6964 88.9102 54.8044 89.4562 54.8044 90.1282V94.6282C54.8284 94.8802 54.9304 95.0662 55.1104 95.1862C55.2904 95.2942 55.5184 95.3662 55.7944 95.4022L55.7404 96.5902C55.4764 96.5902 55.2304 96.5722 55.0024 96.5362C54.7744 96.5122 54.5704 96.4762 54.3904 96.4282C54.2104 96.3682 54.0484 96.2962 53.9044 96.2122C53.7604 96.1162 53.6224 96.0082 53.4904 95.8882C53.2624 95.9842 52.9744 96.0862 52.6264 96.1942C52.2784 96.3022 51.9064 96.3922 51.5104 96.4642C51.1144 96.5482 50.7184 96.5902 50.3224 96.5902ZM50.5924 95.3302C50.9044 95.3302 51.2284 95.3062 51.5644 95.2582C51.9004 95.1982 52.2184 95.1262 52.5184 95.0422C52.8184 94.9582 53.0644 94.8802 53.2564 94.8082V92.0002L50.7544 92.2342C50.2384 92.2822 49.8664 92.4382 49.6384 92.7022C49.4104 92.9542 49.2964 93.3142 49.2964 93.7822C49.2964 94.2622 49.4044 94.6402 49.6204 94.9162C49.8484 95.1922 50.1724 95.3302 50.5924 95.3302ZM57.3943 96.4102V87.4102H58.9063V88.5982C59.1343 88.4422 59.4163 88.2742 59.7523 88.0942C60.1003 87.9022 60.4783 87.7222 60.8863 87.5542C61.2943 87.3862 61.7023 87.2722 62.1103 87.2122V88.7422C61.7143 88.8262 61.3123 88.9342 60.9043 89.0662C60.4963 89.1982 60.1183 89.3422 59.7703 89.4982C59.4223 89.6542 59.1343 89.7922 58.9063 89.9122V96.4102H57.3943Z" fill="#A6D3E1"/>
<defs>
<linearGradient id="paint0_linear_4153_5697" x1="30.8697" y1="4.11328" x2="30.8697" y2="55.53" gradientUnits="userSpaceOnUse">
<stop stop-color="#F88A36"/>
<stop offset="1" stop-color="#FD2020"/>
</linearGradient>
</defs>
</svg>
