<svg width="66" height="101" viewBox="0 0 66 101" fill="none" xmlns="http://www.w3.org/2000/svg">
<path fill-rule="evenodd" clip-rule="evenodd" d="M16.6758 9.85152L32.903 8.22656L49.1303 9.85152L61.6933 25.8257L32.903 57.5812L4.11279 25.8257L16.6758 9.85152Z" fill="#FDB300"/>
<path d="M15.7742 25.8281L32.9029 57.5838L4.11279 25.8281H15.7742ZM50.0321 25.8281L32.9033 57.5838L61.6934 25.8281" fill="#EA6C00"/>
<path fill-rule="evenodd" clip-rule="evenodd" d="M15.7744 25.8281H50.0319L32.9032 57.5838" fill="#FDAD00"/>
<path d="M32.9032 8.22656L16.6759 9.85125L15.7744 25.8255L32.9032 8.22656ZM32.9034 8.22656L49.1307 9.85125L50.0322 25.8255" fill="#FDD231"/>
<path d="M61.6934 25.8258L49.1306 9.85156L50.0321 25.8258H61.6934ZM4.11279 25.8258L16.6757 9.85156L15.7742 25.8258" fill="#FDAD00"/>
<path fill-rule="evenodd" clip-rule="evenodd" d="M32.9032 8.22656L15.7744 25.8255H50.0319" fill="#FEEEB7"/>
<path d="M12.0574 96.5683C11.6734 96.5683 11.2354 96.5443 10.7434 96.4963C10.2634 96.4603 9.78342 96.4123 9.30342 96.3522C8.82342 96.2802 8.40342 96.2202 8.04342 96.1722L8.18742 94.8762C8.54742 94.9122 8.95542 94.9542 9.41142 95.0022C9.87942 95.0502 10.3414 95.0922 10.7974 95.1282C11.2534 95.1642 11.6434 95.1822 11.9674 95.1822C12.8074 95.1822 13.4374 94.9962 13.8574 94.6242C14.2774 94.2402 14.4874 93.6462 14.4874 92.8422C14.4874 92.4102 14.4034 92.0622 14.2354 91.7982C14.0674 91.5342 13.7854 91.3302 13.3894 91.1862C13.0054 91.0302 12.4834 90.8862 11.8234 90.7542C10.9474 90.5742 10.2214 90.3582 9.64542 90.1062C9.06942 89.8542 8.63742 89.5002 8.34942 89.0442C8.07342 88.5882 7.93542 87.9702 7.93542 87.1902C7.93542 86.3622 8.10342 85.7022 8.43942 85.2102C8.77542 84.7062 9.24942 84.3402 9.86142 84.1122C10.4734 83.8842 11.1874 83.7702 12.0034 83.7702C12.3634 83.7702 12.7774 83.7942 13.2454 83.8422C13.7134 83.8782 14.1754 83.9262 14.6314 83.9862C15.0874 84.0342 15.4774 84.0882 15.8014 84.1482L15.6934 85.4622C15.3334 85.4142 14.9254 85.3722 14.4694 85.3362C14.0134 85.2882 13.5694 85.2462 13.1374 85.2102C12.7174 85.1742 12.3754 85.1562 12.1114 85.1562C11.2594 85.1562 10.6174 85.3122 10.1854 85.6242C9.75342 85.9362 9.53742 86.4162 9.53742 87.0642C9.53742 87.5802 9.63342 87.9702 9.82542 88.2342C10.0174 88.4982 10.3294 88.7082 10.7614 88.8642C11.1934 89.0082 11.7574 89.1582 12.4534 89.3142C13.0894 89.4702 13.6354 89.6322 14.0914 89.8002C14.5474 89.9682 14.9254 90.1782 15.2254 90.4302C15.5254 90.6702 15.7414 90.9762 15.8734 91.3482C16.0174 91.7202 16.0894 92.1762 16.0894 92.7162C16.0894 93.6402 15.9214 94.3842 15.5854 94.9482C15.2614 95.5122 14.7994 95.9262 14.1994 96.1902C13.5994 96.4423 12.8854 96.5683 12.0574 96.5683ZM18.1584 96.4062V83.5182H19.6704V91.0422L21.0204 91.0062L23.4504 87.4062H25.1784L22.3704 91.5642L25.3224 96.4062H23.5944L21.0564 92.3382L19.6704 92.4102V96.4062H18.1584ZM30.1348 96.5863C29.2228 96.5863 28.5028 96.4123 27.9748 96.0642C27.4468 95.7162 27.0628 95.2002 26.8228 94.5162C26.5948 93.8322 26.4808 92.9802 26.4808 91.9602C26.4808 90.8322 26.6368 89.9202 26.9488 89.2242C27.2608 88.5282 27.6988 88.0242 28.2628 87.7122C28.8388 87.3882 29.5228 87.2262 30.3148 87.2262C31.5388 87.2262 32.4568 87.5622 33.0688 88.2342C33.6928 88.8942 34.0048 89.9562 34.0048 91.4202L33.9328 92.5362H28.0468C28.0588 93.4242 28.2268 94.1022 28.5508 94.5702C28.8748 95.0262 29.4628 95.2542 30.3148 95.2542C30.6508 95.2542 31.0228 95.2482 31.4308 95.2362C31.8388 95.2122 32.2408 95.1882 32.6368 95.1642C33.0448 95.1402 33.3868 95.1162 33.6628 95.0922L33.6988 96.2802C33.4108 96.3282 33.0568 96.3762 32.6368 96.4243C32.2168 96.4723 31.7848 96.5083 31.3408 96.5323C30.9088 96.5683 30.5068 96.5863 30.1348 96.5863ZM28.0468 91.3302H32.4568C32.4568 90.2742 32.2888 89.5362 31.9528 89.1162C31.6168 88.6842 31.0708 88.4682 30.3148 88.4682C29.5828 88.4682 29.0188 88.6902 28.6228 89.1342C28.2388 89.5782 28.0468 90.3102 28.0468 91.3302ZM38.9878 96.6043C38.3638 96.6043 37.8658 96.5083 37.4938 96.3162C37.1218 96.1242 36.8518 95.7942 36.6838 95.3262C36.5278 94.8462 36.4498 94.1742 36.4498 93.3102V88.7202H35.2078V87.4062H36.4498V84.7062H37.9798V87.4062H40.7338V88.7202H37.9798V92.8782C37.9798 93.4902 38.0038 93.9702 38.0518 94.3182C38.1118 94.6542 38.2258 94.8942 38.3938 95.0382C38.5738 95.1702 38.8498 95.2362 39.2218 95.2362C39.3418 95.2362 39.4918 95.2302 39.6718 95.2183C39.8638 95.2062 40.0558 95.1942 40.2478 95.1822C40.4518 95.1582 40.6258 95.1402 40.7698 95.1282L40.8598 96.4062C40.5958 96.4423 40.2778 96.4843 39.9058 96.5323C39.5458 96.5803 39.2398 96.6043 38.9878 96.6043ZM45.7119 96.5863C44.7519 96.5863 43.9959 96.4303 43.4439 96.1182C42.9039 95.7942 42.5199 95.2782 42.2919 94.5702C42.0759 93.8622 41.9679 92.9262 41.9679 91.7622C41.9679 90.6702 42.0939 89.7882 42.3459 89.1162C42.5979 88.4442 42.9999 87.9642 43.5519 87.6762C44.1159 87.3762 44.8419 87.2262 45.7299 87.2262C45.9459 87.2262 46.2039 87.2442 46.5039 87.2802C46.8039 87.3042 47.1099 87.3402 47.4219 87.3882C47.7459 87.4242 48.0219 87.4602 48.2499 87.4962L48.1959 88.7562C47.9799 88.7322 47.7399 88.7082 47.4759 88.6842C47.2119 88.6602 46.9479 88.6422 46.6839 88.6302C46.4319 88.6062 46.2219 88.5942 46.0539 88.5942C45.3939 88.5942 44.8779 88.7022 44.5059 88.9182C44.1459 89.1222 43.8939 89.4522 43.7499 89.9082C43.6059 90.3642 43.5339 90.9822 43.5339 91.7622C43.5339 92.6142 43.5939 93.2922 43.7139 93.7962C43.8459 94.3002 44.0919 94.6662 44.4519 94.8942C44.8119 95.1102 45.3459 95.2183 46.0539 95.2183C46.2219 95.2183 46.4379 95.2122 46.7019 95.2002C46.9659 95.1762 47.2299 95.1522 47.4939 95.1282C47.7699 95.1042 48.0159 95.0862 48.2319 95.0742L48.2679 96.3162C48.0279 96.3642 47.7459 96.4062 47.4219 96.4423C47.1099 96.4783 46.7979 96.5083 46.4859 96.5323C46.1859 96.5683 45.9279 96.5863 45.7119 96.5863ZM50.2385 96.4062V83.5182H51.7505V87.8742C52.0625 87.7302 52.4765 87.5862 52.9925 87.4422C53.5085 87.2982 54.0005 87.2262 54.4685 87.2262C55.2965 87.2262 55.9325 87.3762 56.3765 87.6762C56.8205 87.9642 57.1205 88.4322 57.2765 89.0802C57.4445 89.7282 57.5285 90.5802 57.5285 91.6362V96.4062H55.9985V91.7082C55.9985 90.9522 55.9505 90.3462 55.8545 89.8902C55.7705 89.4342 55.6025 89.1042 55.3505 88.9002C55.0985 88.6962 54.7025 88.5942 54.1625 88.5942C53.7305 88.5942 53.2865 88.6542 52.8305 88.7742C52.3865 88.8822 52.0265 88.9902 51.7505 89.0982V96.4062H50.2385Z" fill="#A6D3E1"/>
</svg>
