<svg width="77" height="88" viewBox="0 0 77 88" fill="none" xmlns="http://www.w3.org/2000/svg">
<g clip-path="url(#clip0_4139_1407)">
<rect x="24.3979" y="9.40234" width="28.2043" height="33.8451" fill="white"/>
<path fill-rule="evenodd" clip-rule="evenodd" d="M19.2642 0.0078125C15.5091 0.0078125 12.7306 3.30766 12.855 6.88625C12.9744 10.3243 12.8193 14.7771 11.7028 18.4083C10.5824 22.0498 8.6888 24.3574 5.59521 24.6535V27.9975C8.6888 28.2943 10.5824 30.6007 11.7027 34.2427C12.8193 37.8739 12.9743 42.3267 12.8549 45.7648C12.7305 49.3429 15.509 52.6432 19.2647 52.6432H57.7413C61.4963 52.6432 64.2743 49.3434 64.1499 45.7648C64.0305 42.3267 64.1856 37.8739 65.3021 34.2427C66.4225 30.6007 68.3115 28.2934 71.4052 27.9975V24.6535C68.3116 24.3567 66.4227 22.0503 65.3021 18.4083C64.1855 14.7776 64.0305 10.3243 64.1499 6.88625C64.2743 3.30817 61.4963 0.0078125 57.7413 0.0078125H19.2636H19.2642ZM50.2122 32.4084C50.2122 37.3359 46.5514 40.3244 40.4762 40.3244H30.1345C29.8387 40.3244 29.555 40.2064 29.3458 39.9963C29.1366 39.7863 29.0191 39.5015 29.0191 39.2045V13.4467C29.0191 13.1497 29.1366 12.8648 29.3458 12.6548C29.555 12.4448 29.8387 12.3268 30.1345 12.3268H40.4173C45.483 12.3268 48.8076 15.0818 48.8076 19.3116C48.8076 22.2804 46.5711 24.9382 43.7218 25.4038V25.5587C47.6005 25.9859 50.2122 28.683 50.2122 32.4084ZM39.3485 15.8769H33.4519V24.2394H38.4183C42.2577 24.2394 44.3747 22.6872 44.3747 19.9127C44.3743 17.3126 42.5542 15.8769 39.3485 15.8769ZM33.4519 27.5574V36.7731H39.5655C43.563 36.7731 45.6803 35.1627 45.6803 32.1362C45.6803 29.1097 43.5036 27.5569 39.3084 27.5569H33.4519V27.5574Z" fill="#7952B3"/>
</g>
<path d="M1.88378 83.2461V70.8261H6.47378C7.28978 70.8261 7.97378 70.9341 8.52578 71.1501C9.07778 71.3661 9.49778 71.7081 9.78578 72.1761C10.0738 72.6321 10.2178 73.2381 10.2178 73.9941C10.2178 74.5101 10.1518 74.9541 10.0198 75.3261C9.89978 75.6861 9.72578 75.9861 9.49778 76.2261C9.28178 76.4661 9.00578 76.6761 8.66978 76.8561C9.02978 76.9761 9.35378 77.1501 9.64178 77.3781C9.92978 77.6061 10.1578 77.9121 10.3258 78.2961C10.5058 78.6681 10.5958 79.1541 10.5958 79.7541C10.5958 80.4021 10.4998 80.9541 10.3078 81.4101C10.1278 81.8541 9.86378 82.2141 9.51578 82.4901C9.16778 82.7541 8.75378 82.9461 8.27378 83.0661C7.80578 83.1861 7.27178 83.2461 6.67178 83.2461H1.88378ZM3.46778 81.9141H6.59978C7.09178 81.9141 7.51778 81.8481 7.87778 81.7161C8.23778 81.5841 8.51378 81.3621 8.70578 81.0501C8.89778 80.7261 8.99378 80.2701 8.99378 79.6821C8.99378 79.2381 8.90978 78.8781 8.74178 78.6021C8.58578 78.3141 8.37578 78.1041 8.11178 77.9721C7.85978 77.8281 7.59578 77.7321 7.31978 77.6841C7.04378 77.6361 6.78578 77.6121 6.54578 77.6121H3.46778V81.9141ZM3.46778 76.2801H6.52778C7.27178 76.2801 7.80578 76.1061 8.12978 75.7581C8.46578 75.3981 8.63378 74.8581 8.63378 74.1381C8.63378 73.4541 8.44778 72.9561 8.07578 72.6441C7.71578 72.3201 7.15778 72.1581 6.40178 72.1581H3.46778V76.2801ZM16.27 83.4261C15.262 83.4261 14.47 83.2521 13.894 82.9041C13.33 82.5561 12.934 82.0341 12.706 81.3381C12.478 80.6301 12.364 79.7301 12.364 78.6381C12.364 77.6061 12.49 76.7541 12.742 76.0821C12.994 75.3981 13.408 74.8941 13.984 74.5701C14.56 74.2341 15.322 74.0661 16.27 74.0661C17.23 74.0661 17.998 74.2341 18.574 74.5701C19.15 74.8941 19.564 75.3981 19.816 76.0821C20.068 76.7541 20.194 77.6061 20.194 78.6381C20.194 79.7301 20.074 80.6301 19.834 81.3381C19.606 82.0341 19.21 82.5561 18.646 82.9041C18.082 83.2521 17.29 83.4261 16.27 83.4261ZM16.27 82.1121C16.942 82.1121 17.446 81.9981 17.782 81.7701C18.118 81.5301 18.34 81.1521 18.448 80.6361C18.556 80.1201 18.61 79.4541 18.61 78.6381C18.61 77.8341 18.538 77.1921 18.394 76.7121C18.262 76.2321 18.028 75.8901 17.692 75.6861C17.356 75.4821 16.882 75.3801 16.27 75.3801C15.67 75.3801 15.196 75.4821 14.848 75.6861C14.512 75.8901 14.272 76.2321 14.128 76.7121C13.996 77.1921 13.93 77.8341 13.93 78.6381C13.93 79.4541 13.984 80.1201 14.092 80.6361C14.2 81.1521 14.422 81.5301 14.758 81.7701C15.094 81.9981 15.598 82.1121 16.27 82.1121ZM25.8325 83.4261C24.8245 83.4261 24.0325 83.2521 23.4565 82.9041C22.8925 82.5561 22.4965 82.0341 22.2685 81.3381C22.0405 80.6301 21.9265 79.7301 21.9265 78.6381C21.9265 77.6061 22.0525 76.7541 22.3045 76.0821C22.5565 75.3981 22.9705 74.8941 23.5465 74.5701C24.1225 74.2341 24.8845 74.0661 25.8325 74.0661C26.7925 74.0661 27.5605 74.2341 28.1365 74.5701C28.7125 74.8941 29.1265 75.3981 29.3785 76.0821C29.6305 76.7541 29.7565 77.6061 29.7565 78.6381C29.7565 79.7301 29.6365 80.6301 29.3965 81.3381C29.1685 82.0341 28.7725 82.5561 28.2085 82.9041C27.6445 83.2521 26.8525 83.4261 25.8325 83.4261ZM25.8325 82.1121C26.5045 82.1121 27.0085 81.9981 27.3445 81.7701C27.6805 81.5301 27.9025 81.1521 28.0105 80.6361C28.1185 80.1201 28.1725 79.4541 28.1725 78.6381C28.1725 77.8341 28.1005 77.1921 27.9565 76.7121C27.8245 76.2321 27.5905 75.8901 27.2545 75.6861C26.9185 75.4821 26.4445 75.3801 25.8325 75.3801C25.2325 75.3801 24.7585 75.4821 24.4105 75.6861C24.0745 75.8901 23.8345 76.2321 23.6905 76.7121C23.5585 77.1921 23.4925 77.8341 23.4925 78.6381C23.4925 79.4541 23.5465 80.1201 23.6545 80.6361C23.7625 81.1521 23.9845 81.5301 24.3205 81.7701C24.6565 81.9981 25.1605 82.1121 25.8325 82.1121ZM34.855 83.4441C34.231 83.4441 33.733 83.3481 33.361 83.1561C32.989 82.9641 32.719 82.6341 32.551 82.1661C32.395 81.6861 32.317 81.0141 32.317 80.1501V75.5601H31.075V74.2461H32.317V71.5461H33.847V74.2461H36.601V75.5601H33.847V79.7181C33.847 80.3301 33.871 80.8101 33.919 81.1581C33.979 81.4941 34.093 81.7341 34.261 81.8781C34.441 82.0101 34.717 82.0761 35.089 82.0761C35.209 82.0761 35.359 82.0701 35.539 82.0581C35.731 82.0461 35.923 82.0341 36.115 82.0221C36.319 81.9981 36.493 81.9801 36.637 81.9681L36.727 83.2461C36.463 83.2821 36.145 83.3241 35.773 83.3721C35.413 83.4201 35.107 83.4441 34.855 83.4441ZM41.0751 83.4261C40.7871 83.4261 40.4391 83.4081 40.0311 83.3721C39.6351 83.3361 39.2451 83.2941 38.8611 83.2461C38.4771 83.1861 38.1351 83.1321 37.8351 83.0841L37.9251 81.7881C38.2251 81.8241 38.5611 81.8661 38.9331 81.9141C39.3171 81.9621 39.6891 82.0041 40.0491 82.0401C40.4091 82.0641 40.7031 82.0761 40.9311 82.0761C41.3991 82.0761 41.7891 82.0341 42.1011 81.9501C42.4131 81.8661 42.6471 81.7221 42.8031 81.5181C42.9711 81.3141 43.0551 81.0201 43.0551 80.6361C43.0551 80.3481 42.9891 80.1261 42.8571 79.9701C42.7371 79.8141 42.5091 79.6821 42.1731 79.5741C41.8491 79.4661 41.3691 79.3701 40.7331 79.2861C40.0611 79.1781 39.4971 79.0401 39.0411 78.8721C38.5971 78.7041 38.2671 78.4581 38.0511 78.1341C37.8471 77.8101 37.7451 77.3481 37.7451 76.7481C37.7451 76.0641 37.9011 75.5301 38.2131 75.1461C38.5251 74.7501 38.9331 74.4741 39.4371 74.3181C39.9411 74.1501 40.4691 74.0661 41.0211 74.0661C41.3691 74.0661 41.7471 74.0841 42.1551 74.1201C42.5631 74.1561 42.9591 74.2041 43.3431 74.2641C43.7271 74.3121 44.0571 74.3601 44.3331 74.4081L44.2971 75.7041C44.0091 75.6561 43.6671 75.6141 43.2711 75.5781C42.8871 75.5301 42.5031 75.4941 42.1191 75.4701C41.7351 75.4341 41.3991 75.4161 41.1111 75.4161C40.7631 75.4161 40.4511 75.4521 40.1751 75.5241C39.8991 75.5961 39.6771 75.7281 39.5091 75.9201C39.3531 76.1001 39.2751 76.3521 39.2751 76.6761C39.2751 76.9281 39.3351 77.1321 39.4551 77.2881C39.5751 77.4441 39.7971 77.5761 40.1211 77.6841C40.4451 77.7801 40.9191 77.8821 41.5431 77.9901C42.2871 78.1101 42.8811 78.2601 43.3251 78.4401C43.7811 78.6201 44.1111 78.8781 44.3151 79.2141C44.5191 79.5381 44.6211 79.9941 44.6211 80.5821C44.6211 81.6501 44.3031 82.3941 43.6671 82.8141C43.0431 83.2221 42.1791 83.4261 41.0751 83.4261ZM49.5855 83.4441C48.9615 83.4441 48.4635 83.3481 48.0915 83.1561C47.7195 82.9641 47.4495 82.6341 47.2815 82.1661C47.1255 81.6861 47.0475 81.0141 47.0475 80.1501V75.5601H45.8055V74.2461H47.0475V71.5461H48.5775V74.2461H51.3315V75.5601H48.5775V79.7181C48.5775 80.3301 48.6015 80.8101 48.6495 81.1581C48.7095 81.4941 48.8235 81.7341 48.9915 81.8781C49.1715 82.0101 49.4475 82.0761 49.8195 82.0761C49.9395 82.0761 50.0895 82.0701 50.2695 82.0581C50.4615 82.0461 50.6535 82.0341 50.8455 82.0221C51.0495 81.9981 51.2235 81.9801 51.3675 81.9681L51.4575 83.2461C51.1935 83.2821 50.8755 83.3241 50.5035 83.3721C50.1435 83.4201 49.8375 83.4441 49.5855 83.4441ZM52.9436 83.2461V74.2461H54.4556V75.4341C54.6836 75.2781 54.9656 75.1101 55.3016 74.9301C55.6496 74.7381 56.0276 74.5581 56.4356 74.3901C56.8436 74.2221 57.2516 74.1081 57.6596 74.0481V75.5781C57.2636 75.6621 56.8616 75.7701 56.4536 75.9021C56.0456 76.0341 55.6676 76.1781 55.3196 76.3341C54.9716 76.4901 54.6836 76.6281 54.4556 76.7481V83.2461H52.9436ZM61.2174 83.4261C60.3654 83.4261 59.7174 83.1921 59.2734 82.7241C58.8414 82.2561 58.6254 81.5661 58.6254 80.6541C58.6254 80.0541 58.7274 79.5681 58.9314 79.1961C59.1474 78.8241 59.4654 78.5421 59.8854 78.3501C60.3174 78.1581 60.8394 78.0381 61.4514 77.9901L64.1514 77.7201V76.9821C64.1514 76.3941 64.0194 75.9801 63.7554 75.7401C63.4914 75.5001 63.1074 75.3801 62.6034 75.3801C62.2914 75.3801 61.9254 75.3921 61.5054 75.4161C61.0974 75.4401 60.6834 75.4701 60.2634 75.5061C59.8554 75.5421 59.4954 75.5781 59.1834 75.6141L59.1114 74.4621C59.3994 74.4021 59.7474 74.3421 60.1554 74.2821C60.5754 74.2221 61.0074 74.1741 61.4514 74.1381C61.9074 74.0901 62.3214 74.0661 62.6934 74.0661C63.3894 74.0661 63.9594 74.1681 64.4034 74.3721C64.8474 74.5761 65.1714 74.8941 65.3754 75.3261C65.5914 75.7461 65.6994 76.2921 65.6994 76.9641V81.4641C65.7234 81.7161 65.8254 81.9021 66.0054 82.0221C66.1854 82.1301 66.4134 82.2021 66.6894 82.2381L66.6354 83.4261C66.3714 83.4261 66.1254 83.4081 65.8974 83.3721C65.6694 83.3481 65.4654 83.3121 65.2854 83.2641C65.1054 83.2041 64.9434 83.1321 64.7994 83.0481C64.6554 82.9521 64.5174 82.8441 64.3854 82.7241C64.1574 82.8201 63.8694 82.9221 63.5214 83.0301C63.1734 83.1381 62.8014 83.2281 62.4054 83.3001C62.0094 83.3841 61.6134 83.4261 61.2174 83.4261ZM61.4874 82.1661C61.7994 82.1661 62.1234 82.1421 62.4594 82.0941C62.7954 82.0341 63.1134 81.9621 63.4134 81.8781C63.7134 81.7941 63.9594 81.7161 64.1514 81.6441V78.8361L61.6494 79.0701C61.1334 79.1181 60.7614 79.2741 60.5334 79.5381C60.3054 79.7901 60.1914 80.1501 60.1914 80.6181C60.1914 81.0981 60.2994 81.4761 60.5154 81.7521C60.7434 82.0281 61.0674 82.1661 61.4874 82.1661ZM68.2893 87.2061V74.2461H69.8013V74.8761C69.9933 74.7561 70.2333 74.6361 70.5213 74.5161C70.8093 74.3841 71.1153 74.2761 71.4393 74.1921C71.7753 74.1081 72.0993 74.0661 72.4113 74.0661C73.5633 74.0661 74.4033 74.4321 74.9313 75.1641C75.4593 75.8961 75.7233 77.0541 75.7233 78.6381C75.7233 79.8141 75.5853 80.7561 75.3093 81.4641C75.0453 82.1601 74.6193 82.6641 74.0313 82.9761C73.4553 83.2761 72.7053 83.4261 71.7813 83.4261C71.4213 83.4261 71.0493 83.4021 70.6653 83.3541C70.2933 83.3061 70.0053 83.2641 69.8013 83.2281V87.2061H68.2893ZM71.6553 82.0941C72.2913 82.0941 72.7893 81.9801 73.1493 81.7521C73.5093 81.5121 73.7613 81.1401 73.9053 80.6361C74.0613 80.1201 74.1393 79.4541 74.1393 78.6381C74.1393 77.4621 73.9653 76.6341 73.6173 76.1541C73.2693 75.6621 72.7833 75.4161 72.1593 75.4161C71.8833 75.4161 71.5953 75.4521 71.2953 75.5241C71.0073 75.5961 70.7313 75.6801 70.4673 75.7761C70.2033 75.8721 69.9813 75.9741 69.8013 76.0821V81.9321C69.9933 81.9561 70.2633 81.9921 70.6113 82.0401C70.9713 82.0761 71.3193 82.0941 71.6553 82.0941Z" fill="#A6D3E1"/>
<defs>
<clipPath id="clip0_4139_1407">
<rect width="65.81" height="52.648" fill="white" transform="translate(5.59521)"/>
</clipPath>
</defs>
</svg>
