<svg width="66" height="101" viewBox="0 0 66 101" fill="none" xmlns="http://www.w3.org/2000/svg">
<circle cx="32.9031" cy="32.9036" r="28.7903" fill="#FF3366"/>
<path d="M23.3599 22.3343C25.3475 22.3343 26.9587 20.7231 26.9587 18.7355C26.9587 16.748 25.3475 15.1367 23.3599 15.1367C21.3724 15.1367 19.7612 16.748 19.7612 18.7355C19.7612 20.7231 21.3724 22.3343 23.3599 22.3343Z" fill="white"/>
<path d="M15.841 25.419L14.5879 30.0139H18.7008C17.8761 33.3663 16.1495 40.4182 15.841 41.8063C15.4555 43.5415 15.3911 48.4898 20.5966 48.4898C24.2298 48.4898 26.5473 46.1427 27.8399 44.2261L26.8623 48.1363H32.7104L35.7629 35.7808C36.1967 33.7251 37.2177 29.7568 40.904 29.7568C45.2882 29.7568 43.6798 34.9484 42.8916 37.4926C42.8595 37.5963 42.8288 37.6955 42.7998 37.7898C42.2086 39.7177 41.5788 41.967 41.5788 43.5093C41.5788 45.2445 42.3821 48.4898 46.8806 48.4898C51.3791 48.4898 53.2963 44.0342 53.6926 41.8063L51.4112 40.8745C51.2506 42.0634 49.8046 44.6339 48.4551 44.6339C46.6076 44.6339 47.5356 41.5192 48.526 38.1951C48.9653 36.7207 49.4169 35.2051 49.644 33.9018C50.2181 30.6068 49.644 25.0013 43.9245 25.0013C40.3721 25.0013 37.5827 28.1666 36.2557 30.3642L37.3695 25.419H28.4689L27.2479 30.0139H31.393C31.393 30.0139 28.9332 40.0381 28.7742 40.3524C27.1033 43.6539 24.5762 44.7622 22.6852 44.6339C21.1685 44.5311 21.3463 42.706 21.6248 41.8063L25.7377 25.419H15.841Z" fill="white"/>
<path d="M5.01464 96.4062V83.9862H6.59864V96.4062H5.01464ZM9.31664 96.4062V87.4062H10.8286V88.0182C11.0326 87.8982 11.2846 87.7782 11.5846 87.6582C11.8966 87.5382 12.2206 87.4362 12.5566 87.3522C12.9046 87.2682 13.2346 87.2262 13.5466 87.2262C14.3746 87.2262 15.0106 87.3762 15.4546 87.6762C15.8986 87.9642 16.2046 88.4322 16.3726 89.0802C16.5406 89.7282 16.6246 90.5862 16.6246 91.6543V96.4062H15.0946V91.7082C15.0946 90.9522 15.0466 90.3462 14.9506 89.8902C14.8666 89.4342 14.6926 89.1042 14.4286 88.9002C14.1766 88.6962 13.7806 88.5942 13.2406 88.5942C12.9526 88.5942 12.6526 88.6302 12.3406 88.7022C12.0406 88.7622 11.7586 88.8402 11.4946 88.9362C11.2306 89.0322 11.0086 89.1282 10.8286 89.2242V96.4062H9.31664ZM20.6573 96.4062L18.1913 87.4062H19.8473L21.8273 95.0922H22.4753L24.5273 87.4062H26.1113L23.6453 96.4062H20.6573ZM27.7737 96.4062V87.4062H29.2857V96.4062H27.7737ZM27.7737 85.4982V83.8242H29.2857V85.4982H27.7737ZM34.6611 96.5863C34.3731 96.5863 34.0251 96.5683 33.6171 96.5323C33.2211 96.4963 32.8311 96.4543 32.4471 96.4062C32.0631 96.3462 31.7211 96.2922 31.4211 96.2442L31.5111 94.9482C31.8111 94.9842 32.1471 95.0262 32.5191 95.0742C32.9031 95.1222 33.2751 95.1642 33.6351 95.2002C33.9951 95.2242 34.2891 95.2362 34.5171 95.2362C34.9851 95.2362 35.3751 95.1942 35.6871 95.1102C35.9991 95.0262 36.2331 94.8822 36.3891 94.6782C36.5571 94.4742 36.6411 94.1802 36.6411 93.7962C36.6411 93.5082 36.5751 93.2862 36.4431 93.1302C36.3231 92.9742 36.0951 92.8422 35.7591 92.7342C35.4351 92.6262 34.9551 92.5302 34.3191 92.4462C33.6471 92.3382 33.0831 92.2002 32.6271 92.0322C32.1831 91.8642 31.8531 91.6182 31.6371 91.2942C31.4331 90.9702 31.3311 90.5082 31.3311 89.9082C31.3311 89.2242 31.4871 88.6902 31.7991 88.3062C32.1111 87.9102 32.5191 87.6342 33.0231 87.4782C33.5271 87.3102 34.0551 87.2262 34.6071 87.2262C34.9551 87.2262 35.3331 87.2442 35.7411 87.2802C36.1491 87.3162 36.5451 87.3642 36.9291 87.4242C37.3131 87.4722 37.6431 87.5202 37.9191 87.5682L37.8831 88.8642C37.5951 88.8162 37.2531 88.7742 36.8571 88.7382C36.4731 88.6902 36.0891 88.6542 35.7051 88.6302C35.3211 88.5942 34.9851 88.5762 34.6971 88.5762C34.3491 88.5762 34.0371 88.6122 33.7611 88.6842C33.4851 88.7562 33.2631 88.8882 33.0951 89.0802C32.9391 89.2602 32.8611 89.5122 32.8611 89.8362C32.8611 90.0882 32.9211 90.2922 33.0411 90.4482C33.1611 90.6042 33.3831 90.7362 33.7071 90.8442C34.0311 90.9402 34.5051 91.0422 35.1291 91.1502C35.8731 91.2702 36.4671 91.4202 36.9111 91.6002C37.3671 91.7802 37.6971 92.0382 37.9011 92.3742C38.1051 92.6982 38.2071 93.1542 38.2071 93.7422C38.2071 94.8102 37.8891 95.5542 37.2531 95.9742C36.6291 96.3823 35.7651 96.5863 34.6611 96.5863ZM40.2014 96.4062V87.4062H41.7134V96.4062H40.2014ZM40.2014 85.4982V83.8242H41.7134V85.4982H40.2014ZM47.7368 96.5863C46.7288 96.5863 45.9368 96.4123 45.3608 96.0642C44.7968 95.7162 44.4008 95.1942 44.1728 94.4982C43.9448 93.7902 43.8308 92.8902 43.8308 91.7982C43.8308 90.7662 43.9568 89.9142 44.2088 89.2422C44.4608 88.5582 44.8748 88.0542 45.4508 87.7302C46.0268 87.3942 46.7888 87.2262 47.7368 87.2262C48.6968 87.2262 49.4648 87.3942 50.0408 87.7302C50.6168 88.0542 51.0308 88.5582 51.2828 89.2422C51.5348 89.9142 51.6608 90.7662 51.6608 91.7982C51.6608 92.8902 51.5408 93.7902 51.3008 94.4982C51.0728 95.1942 50.6768 95.7162 50.1128 96.0642C49.5488 96.4123 48.7568 96.5863 47.7368 96.5863ZM47.7368 95.2722C48.4088 95.2722 48.9128 95.1582 49.2488 94.9302C49.5848 94.6902 49.8068 94.3122 49.9148 93.7962C50.0228 93.2802 50.0768 92.6142 50.0768 91.7982C50.0768 90.9942 50.0048 90.3522 49.8608 89.8722C49.7288 89.3922 49.4948 89.0502 49.1588 88.8462C48.8228 88.6422 48.3488 88.5402 47.7368 88.5402C47.1368 88.5402 46.6628 88.6422 46.3148 88.8462C45.9788 89.0502 45.7388 89.3922 45.5948 89.8722C45.4628 90.3522 45.3968 90.9942 45.3968 91.7982C45.3968 92.6142 45.4508 93.2802 45.5588 93.7962C45.6668 94.3122 45.8888 94.6902 46.2248 94.9302C46.5608 95.1582 47.0648 95.2722 47.7368 95.2722ZM53.7893 96.4062V87.4062H55.3013V88.0182C55.5053 87.8982 55.7573 87.7782 56.0573 87.6582C56.3693 87.5382 56.6933 87.4362 57.0293 87.3522C57.3773 87.2682 57.7073 87.2262 58.0193 87.2262C58.8473 87.2262 59.4833 87.3762 59.9273 87.6762C60.3713 87.9642 60.6773 88.4322 60.8453 89.0802C61.0133 89.7282 61.0973 90.5862 61.0973 91.6543V96.4062H59.5673V91.7082C59.5673 90.9522 59.5193 90.3462 59.4233 89.8902C59.3393 89.4342 59.1653 89.1042 58.9013 88.9002C58.6493 88.6962 58.2533 88.5942 57.7133 88.5942C57.4253 88.5942 57.1253 88.6302 56.8133 88.7022C56.5133 88.7622 56.2313 88.8402 55.9673 88.9362C55.7033 89.0322 55.4813 89.1282 55.3013 89.2242V96.4062H53.7893Z" fill="#A6D3E1"/>
</svg>
