<svg width="67" height="101" viewBox="0 0 67 101" fill="none" xmlns="http://www.w3.org/2000/svg">
<path d="M33.4052 4.3125L6.66992 14.5953L10.783 49.5569L33.4052 61.8962L56.0274 49.5569L60.1406 14.5953L33.4052 4.3125Z" fill="#DD0031"/>
<path d="M33.4053 4.3125V61.8962L56.0275 49.5569L60.1406 14.5953L33.4053 4.3125Z" fill="#C3002F"/>
<path d="M33.4051 10.6758L16.6919 48.2492H22.9234L26.2833 39.842H40.4694L43.8292 48.2492H50.0608L33.4051 10.6758ZM38.2869 34.6594H28.5232L33.4051 22.8835L38.2869 34.6594Z" fill="white"/>
<path d="M4.31348 96.6094L7.66148 84.1894H10.9555L14.3035 96.6094H12.7195L11.8555 93.5494H6.74348L5.87948 96.6094H4.31348ZM7.04948 92.1814H11.5495L9.74948 85.5214H8.84948L7.04948 92.1814ZM15.9353 96.6094V87.6094H17.4473V88.2214C17.6513 88.1014 17.9033 87.9814 18.2033 87.8614C18.5153 87.7414 18.8393 87.6394 19.1753 87.5554C19.5233 87.4714 19.8533 87.4294 20.1653 87.4294C20.9933 87.4294 21.6293 87.5794 22.0733 87.8794C22.5173 88.1674 22.8233 88.6354 22.9913 89.2834C23.1593 89.9314 23.2433 90.7894 23.2433 91.8574V96.6094H21.7133V91.9114C21.7133 91.1554 21.6653 90.5494 21.5693 90.0934C21.4853 89.6374 21.3113 89.3074 21.0473 89.1034C20.7953 88.8994 20.3993 88.7974 19.8593 88.7974C19.5713 88.7974 19.2713 88.8334 18.9593 88.9054C18.6593 88.9654 18.3773 89.0434 18.1133 89.1394C17.8493 89.2354 17.6273 89.3314 17.4473 89.4274V96.6094H15.9353ZM29.184 100.821C28.248 100.821 27.492 100.743 26.916 100.587C26.34 100.431 25.914 100.155 25.638 99.7594C25.374 99.3634 25.242 98.8234 25.242 98.1394C25.242 97.7914 25.296 97.4914 25.404 97.2394C25.512 96.9994 25.668 96.7774 25.872 96.5734C26.076 96.3574 26.334 96.1354 26.646 95.9074C26.49 95.7874 26.364 95.6194 26.268 95.4034C26.184 95.1754 26.142 94.9234 26.142 94.6474C26.142 94.5154 26.214 94.3054 26.358 94.0174C26.502 93.7174 26.64 93.4534 26.772 93.2254C26.52 93.1054 26.286 92.9434 26.07 92.7394C25.866 92.5234 25.698 92.2354 25.566 91.8754C25.434 91.5154 25.368 91.0594 25.368 90.5074C25.368 89.4034 25.68 88.6174 26.304 88.1494C26.94 87.6694 27.768 87.4294 28.788 87.4294C29.112 87.4294 29.454 87.4534 29.814 87.5014C30.174 87.5494 30.456 87.5974 30.66 87.6454L33.378 87.5914V88.8334L31.722 88.7974C31.89 88.9654 32.028 89.1874 32.136 89.4634C32.244 89.7274 32.298 90.0754 32.298 90.5074C32.298 91.2994 32.166 91.9174 31.902 92.3614C31.638 92.8054 31.242 93.1174 30.714 93.2974C30.198 93.4774 29.544 93.5674 28.752 93.5674C28.668 93.5674 28.524 93.5614 28.32 93.5494C28.128 93.5254 27.984 93.5074 27.888 93.4954C27.828 93.6514 27.762 93.8374 27.69 94.0534C27.618 94.2574 27.582 94.3954 27.582 94.4674C27.582 94.6954 27.624 94.8694 27.708 94.9894C27.792 95.0974 27.99 95.1694 28.302 95.2054C28.614 95.2414 29.1 95.2594 29.76 95.2594C30.612 95.2594 31.296 95.3314 31.812 95.4754C32.328 95.6194 32.694 95.8834 32.91 96.2674C33.138 96.6394 33.252 97.1854 33.252 97.9054C33.252 98.9374 32.892 99.6814 32.172 100.137C31.464 100.593 30.468 100.821 29.184 100.821ZM29.184 99.5614C30.06 99.5614 30.702 99.4354 31.11 99.1834C31.518 98.9434 31.722 98.5474 31.722 97.9954C31.722 97.5754 31.65 97.2634 31.506 97.0594C31.374 96.8674 31.152 96.7354 30.84 96.6634C30.528 96.6034 30.108 96.5734 29.58 96.5734C29.46 96.5734 29.304 96.5734 29.112 96.5734C28.932 96.5614 28.74 96.5554 28.536 96.5554C28.344 96.5434 28.164 96.5314 27.996 96.5194C27.84 96.5074 27.732 96.5014 27.672 96.5014C27.312 96.7534 27.066 96.9814 26.934 97.1854C26.802 97.3894 26.736 97.6594 26.736 97.9954C26.736 98.3674 26.802 98.6674 26.934 98.8954C27.078 99.1234 27.33 99.2914 27.69 99.3994C28.05 99.5074 28.548 99.5614 29.184 99.5614ZM28.788 92.3614C29.508 92.3614 30.018 92.2234 30.318 91.9474C30.618 91.6594 30.768 91.1794 30.768 90.5074C30.768 89.8354 30.618 89.3554 30.318 89.0674C30.018 88.7794 29.508 88.6354 28.788 88.6354C28.116 88.6354 27.63 88.7794 27.33 89.0674C27.042 89.3554 26.898 89.8354 26.898 90.5074C26.898 91.1794 27.042 91.6594 27.33 91.9474C27.63 92.2234 28.116 92.3614 28.788 92.3614ZM37.7088 96.7894C36.9408 96.7894 36.3468 96.6334 35.9268 96.3214C35.5188 96.0094 35.2368 95.5234 35.0808 94.8634C34.9368 94.1914 34.8648 93.3394 34.8648 92.3074V87.6094H36.3768V92.2894C36.3768 93.0574 36.4128 93.6694 36.4848 94.1254C36.5688 94.5814 36.7368 94.9114 36.9888 95.1154C37.2528 95.3194 37.6368 95.4214 38.1408 95.4214C38.6448 95.4214 39.1068 95.3554 39.5268 95.2234C39.9468 95.0794 40.2828 94.9354 40.5348 94.7914V87.6094H42.0648V96.6094H40.5348V95.9974C40.1508 96.2134 39.7368 96.3994 39.2928 96.5554C38.8488 96.7114 38.3208 96.7894 37.7088 96.7894ZM44.6601 96.6094V83.7214H46.1901V96.6094H44.6601ZM50.8224 96.7894C49.9704 96.7894 49.3224 96.5554 48.8784 96.0874C48.4464 95.6194 48.2304 94.9294 48.2304 94.0174C48.2304 93.4174 48.3324 92.9314 48.5364 92.5594C48.7524 92.1874 49.0704 91.9054 49.4904 91.7134C49.9224 91.5214 50.4444 91.4014 51.0564 91.3534L53.7564 91.0834V90.3454C53.7564 89.7574 53.6244 89.3434 53.3604 89.1034C53.0964 88.8634 52.7124 88.7434 52.2084 88.7434C51.8964 88.7434 51.5304 88.7554 51.1104 88.7794C50.7024 88.8034 50.2884 88.8334 49.8684 88.8694C49.4604 88.9054 49.1004 88.9414 48.7884 88.9774L48.7164 87.8254C49.0044 87.7654 49.3524 87.7054 49.7604 87.6454C50.1804 87.5854 50.6124 87.5374 51.0564 87.5014C51.5124 87.4534 51.9264 87.4294 52.2984 87.4294C52.9944 87.4294 53.5644 87.5314 54.0084 87.7354C54.4524 87.9394 54.7764 88.2574 54.9804 88.6894C55.1964 89.1094 55.3044 89.6554 55.3044 90.3274V94.8274C55.3284 95.0794 55.4304 95.2654 55.6104 95.3854C55.7904 95.4934 56.0184 95.5654 56.2944 95.6014L56.2404 96.7894C55.9764 96.7894 55.7304 96.7714 55.5024 96.7354C55.2744 96.7114 55.0704 96.6754 54.8904 96.6274C54.7104 96.5674 54.5484 96.4954 54.4044 96.4114C54.2604 96.3154 54.1224 96.2074 53.9904 96.0874C53.7624 96.1834 53.4744 96.2854 53.1264 96.3934C52.7784 96.5014 52.4064 96.5914 52.0104 96.6634C51.6144 96.7474 51.2184 96.7894 50.8224 96.7894ZM51.0924 95.5294C51.4044 95.5294 51.7284 95.5054 52.0644 95.4574C52.4004 95.3974 52.7184 95.3254 53.0184 95.2414C53.3184 95.1574 53.5644 95.0794 53.7564 95.0074V92.1994L51.2544 92.4334C50.7384 92.4814 50.3664 92.6374 50.1384 92.9014C49.9104 93.1534 49.7964 93.5134 49.7964 93.9814C49.7964 94.4614 49.9044 94.8394 50.1204 95.1154C50.3484 95.3914 50.6724 95.5294 51.0924 95.5294ZM57.8943 96.6094V87.6094H59.4063V88.7974C59.6343 88.6414 59.9163 88.4734 60.2523 88.2934C60.6003 88.1014 60.9783 87.9214 61.3863 87.7534C61.7943 87.5854 62.2023 87.4714 62.6103 87.4114V88.9414C62.2143 89.0254 61.8123 89.1334 61.4043 89.2654C60.9963 89.3974 60.6183 89.5414 60.2703 89.6974C59.9223 89.8534 59.6343 89.9914 59.4063 90.1114V96.6094H57.8943Z" fill="#A6D3E1"/>
</svg>
