<svg width="67" height="102" viewBox="0 0 67 102" fill="none" xmlns="http://www.w3.org/2000/svg">
<path fill-rule="evenodd" clip-rule="evenodd" d="M27.3234 24.5354C27.2928 24.5354 27.2338 24.5354 27.2033 24.5354C26.6968 24.4736 26.2799 24.0095 26.2799 23.4836C26.2494 22.9885 25.9808 11.4174 32.5082 8.78772C34.1476 8.13795 35.6692 8.26163 36.9507 9.22091C38.5291 10.3656 39.6621 12.655 40.3476 15.9964C40.8236 18.3477 40.9131 20.3896 40.9131 20.4825C40.9436 20.9774 40.5571 21.3489 40.0486 21.2559C39.5421 21.194 39.1252 20.7301 39.1252 20.2349C39.0357 18.1311 38.3502 12.3457 36.0862 10.6749C35.3702 10.149 34.4751 10.0871 33.4032 10.5203C27.7992 12.7787 28.0678 23.6382 28.0678 23.7619C28.0678 24.1951 27.7709 24.5354 27.3234 24.5354Z" fill="#595961"/>
<path opacity="0.46" fill-rule="evenodd" clip-rule="evenodd" d="M36.6213 9.28382C35.4293 8.41745 34.0298 8.29377 32.5083 8.8816C29.8558 9.96436 27.9784 12.8108 27.055 17.1423C26.3695 20.3288 26.4589 23.2062 26.4589 23.3299C26.4589 23.4846 26.5179 23.6394 26.6379 23.7631C26.7559 23.8868 26.8759 23.9797 27.0244 23.9797C27.0549 23.9797 27.0855 23.9797 27.1139 23.9797C27.3824 23.9797 27.5919 23.7631 27.5919 23.4846C27.5919 23.3609 27.3235 12.3157 33.0759 9.99534C34.2374 9.53138 35.2503 9.59312 36.0864 10.2119C38.4988 11.9754 39.2147 17.9467 39.3042 20.0814C39.3042 20.3907 39.5728 20.7003 39.9003 20.731C40.1993 20.762 40.4372 20.5454 40.4372 20.2361C40.4067 19.8649 40.0793 11.8208 36.6213 9.28382Z" fill="#B2B2C2"/>
<path opacity="0.46" fill-rule="evenodd" clip-rule="evenodd" d="M27.0546 23.606C27.0241 23.606 27.0241 23.606 26.9957 23.606C26.8167 23.575 26.6661 23.3894 26.6376 23.2038C26.6376 23.0799 26.5482 20.2646 27.2337 17.0778C28.1266 12.8393 30.0061 10.0238 32.5975 8.97183C34.058 8.384 35.3701 8.50788 36.5031 9.31231C39.841 11.7564 40.1685 19.6767 40.1685 20.017C40.1685 20.2026 40.02 20.3263 39.841 20.2956C39.662 20.2646 39.5135 20.1099 39.4829 19.8933C39.4829 19.8004 39.1555 12.0349 36.145 9.80723C35.25 9.15766 34.1476 9.06475 32.8966 9.55967C27.0547 12.0039 27.3232 23.2038 27.3232 23.3274C27.3517 23.4821 27.2336 23.606 27.0546 23.606Z" fill="#B2B2C2"/>
<path opacity="0.62" fill-rule="evenodd" clip-rule="evenodd" d="M29.4696 14.759C29.7076 14.295 29.9455 13.8309 30.155 13.3359C30.0655 13.4906 29.4695 15.0994 27.651 14.8519C27.6205 14.8519 28.7231 15.1922 29.4696 14.759Z" fill="#595961"/>
<path opacity="0.62" fill-rule="evenodd" clip-rule="evenodd" d="M28.8124 16.7386C28.9914 16.2435 29.1704 15.7176 29.2904 15.2227C29.2314 15.4083 28.9324 17.0789 27.0244 17.0789C27.0244 17.0789 28.127 17.2955 28.8124 16.7386Z" fill="#595961"/>
<path opacity="0.62" fill-rule="evenodd" clip-rule="evenodd" d="M39.2737 12.7453C39.0357 12.1882 38.7671 11.6623 38.4986 11.1055C38.5881 11.2911 39.4832 13.0546 38.4702 14.323C38.4702 14.323 39.2452 13.7044 39.2737 12.7453Z" fill="#595961"/>
<path opacity="0.62" fill-rule="evenodd" clip-rule="evenodd" d="M37.6362 9.96139C37.1582 9.55917 36.6821 9.18793 36.2041 8.84766C36.3831 9.00231 37.9636 10.147 37.8741 11.8797C37.8436 11.8797 38.1122 10.8587 37.6362 9.96139Z" fill="#595961"/>
<path opacity="0.62" fill-rule="evenodd" clip-rule="evenodd" d="M30.3335 13.0543C30.6915 12.6831 30.9884 12.2808 31.3159 11.8477C31.1979 11.9713 30.2135 13.2399 28.4561 12.7758C28.4561 12.7758 29.469 13.3328 30.3335 13.0543Z" fill="#595961"/>
<path opacity="0.62" fill-rule="evenodd" clip-rule="evenodd" d="M31.436 11.6349C31.853 11.3256 32.2395 11.0161 32.628 10.6758C32.4795 10.7687 31.2571 11.7895 29.5586 11.047C29.5586 11.047 30.541 11.7585 31.436 11.6349Z" fill="#595961"/>
<path opacity="0.62" fill-rule="evenodd" clip-rule="evenodd" d="M33.045 10.6103C33.5515 10.4557 34.0295 10.27 34.5055 10.0844C34.3265 10.1461 32.8069 10.703 31.3159 9.52734C31.3464 9.52734 32.1215 10.4557 33.045 10.6103Z" fill="#595961"/>
<path opacity="0.62" fill-rule="evenodd" clip-rule="evenodd" d="M34.5059 10.054C34.9229 10.116 35.3398 10.1469 35.7568 10.1779C35.6083 10.1469 34.2962 10.054 33.5518 8.81641C33.5518 8.81641 33.8509 9.6518 34.5059 10.054Z" fill="#595961"/>
<path opacity="0.62" fill-rule="evenodd" clip-rule="evenodd" d="M36.2349 10.7355C36.5319 11.076 36.8613 11.4163 37.2173 11.7256C37.0993 11.6019 36.0864 10.5809 36.3244 9.3125C36.2939 9.3125 35.9664 10.024 36.2349 10.7355Z" fill="#595961"/>
<path opacity="0.74" fill-rule="evenodd" clip-rule="evenodd" d="M39.841 19.8636C39.841 19.5231 39.5135 11.6957 36.2651 9.31356C35.6386 8.8494 34.9531 8.63281 34.2371 8.63281C33.7 8.63281 33.1345 8.75649 32.5385 9.00405C29.9451 10.0251 28.1266 12.7786 27.2337 16.9862C26.5482 20.142 26.6376 22.9574 26.6376 23.0811C26.6376 23.174 26.7271 23.2667 26.8166 23.2667H26.8451C26.9346 23.2667 26.9957 23.205 26.9957 23.1121C26.9957 22.9884 26.6966 11.6957 32.687 9.28259C33.999 8.75649 35.132 8.8494 36.086 9.56092C39.184 11.8196 39.5135 19.709 39.5135 19.8017C39.5135 19.8946 39.603 19.9873 39.6925 19.9873C39.6925 19.9873 39.6925 19.9873 39.7209 19.9873C39.782 20.0183 39.841 19.9563 39.841 19.8636Z" fill="url(#paint0_linear_4153_5682)"/>
<path fill-rule="evenodd" clip-rule="evenodd" d="M40.3478 15.9943C39.6623 12.6529 38.5294 10.3943 36.9509 9.21865C36.0864 8.60005 35.1609 8.32151 34.1479 8.38345C34.9535 8.44519 35.6979 8.72373 36.3834 9.21865C37.9639 10.3636 39.0969 12.6529 39.7824 15.9943C40.2584 18.3457 40.3478 20.3875 40.3478 20.4804C40.3478 20.8517 40.1688 21.1302 39.8698 21.2229C39.9309 21.2539 39.9899 21.2539 40.0204 21.2539C40.5269 21.3158 40.9134 20.9754 40.8849 20.4804C40.9134 20.3875 40.8238 18.3766 40.3478 15.9943Z" fill="url(#paint1_linear_4153_5682)"/>
<path fill-rule="evenodd" clip-rule="evenodd" d="M32.8379 10.5211C27.234 12.7795 27.5024 23.6391 27.5024 23.7628C27.5024 24.134 27.3234 24.4126 27.0244 24.5053C27.0854 24.5362 27.114 24.5362 27.175 24.5362C27.2035 24.5362 27.2645 24.5362 27.293 24.5362C27.7405 24.5362 28.0374 24.196 28.0374 23.7628C28.0374 23.6391 27.771 12.8105 33.3729 10.5521C33.7614 10.3974 34.1193 10.3045 34.4468 10.2735C33.9688 10.1808 33.4339 10.2735 32.8379 10.5211Z" fill="url(#paint2_linear_4153_5682)"/>
<path fill-rule="evenodd" clip-rule="evenodd" d="M41.3301 13.2098L16.0564 21.3156C16.0564 21.3156 14.9845 21.6251 14.716 21.9654C14.4475 22.3057 14.3885 23.2648 14.3885 23.2648L10.4829 54.5129L39.8106 60.2057L42.0766 13.1788C41.7491 13.1169 41.4196 13.1788 41.3301 13.2098Z" fill="url(#paint3_linear_4153_5682)"/>
<path fill-rule="evenodd" clip-rule="evenodd" d="M50.0646 17.2326C50.0646 17.2326 50.034 16.985 49.8855 16.8923C49.7655 16.7994 49.617 16.7994 49.617 16.7994L45.4736 16.4901L42.4346 13.3653C42.3146 13.2724 42.1946 13.2107 42.0461 13.1797L39.7822 60.2065L55.6664 56.6485L50.0646 17.2326Z" fill="url(#paint4_linear_4153_5682)"/>
<path fill-rule="evenodd" clip-rule="evenodd" d="M30.8992 39.3226C30.4517 38.7038 29.9167 38.1469 29.3797 37.6518C28.8427 37.1569 28.2772 36.7547 27.7097 36.3834C27.3232 36.1359 26.9652 35.8883 26.6662 35.6407C26.3692 35.3934 26.1312 35.1458 25.9522 34.9292C25.7732 34.6817 25.6247 34.4651 25.5352 34.2177C25.4457 33.9701 25.4151 33.7226 25.4151 33.475C25.4151 33.1348 25.5047 32.7945 25.6247 32.5159C25.7427 32.2376 25.9522 31.99 26.1597 31.7735C26.3997 31.5569 26.6662 31.4022 26.9957 31.2785C27.3232 31.1546 27.7096 31.0929 28.1266 31.0619C28.5741 31.031 29.0217 31.0619 29.4386 31.0929C29.8556 31.1237 30.2441 31.2166 30.6306 31.3093C30.9886 31.4022 31.3466 31.5259 31.6436 31.6498C31.9426 31.7735 32.2396 31.8971 32.4491 32.021L34.4161 25.957C34.1191 25.8024 33.7611 25.6475 33.3726 25.5548C32.9556 25.431 32.5081 25.3382 32.0016 25.2763C31.4951 25.2146 30.9581 25.1836 30.3926 25.1836C29.8271 25.1836 29.2312 25.2146 28.6047 25.3073C27.2643 25.4929 26.0702 25.8641 24.9982 26.421C23.9853 26.9471 23.0902 27.6276 22.3458 28.463C21.6298 29.2675 21.0642 30.1956 20.6472 31.2476C20.2587 32.2686 20.0208 33.4133 19.9618 34.6507C19.9313 35.3934 19.9903 36.0739 20.1693 36.6927C20.3177 37.3115 20.5577 37.8994 20.8852 38.4562C21.1822 39.0131 21.5707 39.5082 21.9877 39.9722C22.4047 40.4363 22.9112 40.8695 23.4177 41.2717C23.8347 41.581 24.1927 41.8903 24.4917 42.1689C24.7887 42.4474 25.0287 42.7257 25.2057 43.0352C25.3847 43.3136 25.5047 43.5921 25.5942 43.9014C25.6837 44.1799 25.7142 44.4892 25.6837 44.7987C25.6837 45.108 25.5943 45.4173 25.4742 45.6649C25.3563 45.9125 25.2057 46.16 24.9677 46.3457C24.7602 46.5313 24.4918 46.655 24.1928 46.7169C23.8958 46.7786 23.5378 46.8096 23.1493 46.7479C22.7038 46.6859 22.2562 46.5623 21.8392 46.3764C21.4222 46.2218 21.0033 46.0052 20.6168 45.7886C20.2303 45.5722 19.8723 45.3246 19.5733 45.108C19.2458 44.8915 18.9773 44.6439 18.7698 44.4583L17.4272 49.0682C17.6368 49.3775 17.9338 49.6561 18.2613 49.9344C18.5908 50.2129 18.9773 50.4913 19.4248 50.7698C19.8723 51.0174 20.3483 51.2647 20.8548 51.4813C21.3613 51.6979 21.9288 51.8835 22.4942 52.0384H22.5248H22.5532H22.5838H22.6143C23.8348 52.3167 24.9982 52.3787 26.1007 52.224C27.2337 52.0692 28.2771 51.6669 29.1701 51.0483C30.0936 50.3986 30.8401 49.5322 31.4056 48.3875C31.9731 47.2428 32.3006 45.8505 32.3596 44.2726C32.3901 43.2826 32.2701 42.4164 32.0016 41.612C31.7331 40.6839 31.3467 39.9722 30.8992 39.3226Z" fill="url(#paint5_linear_4153_5682)"/>
<path opacity="0.226763" fill-rule="evenodd" clip-rule="evenodd" d="M17.6206 49.321C17.5515 49.239 17.4863 49.1552 17.4273 49.0692L18.7699 44.4592C18.7882 44.4764 18.8085 44.4942 18.8289 44.5124C19.0282 44.6905 19.2764 44.9124 19.5734 45.109C19.8724 45.3255 20.2304 45.5731 20.6169 45.7897C21.0034 46.0061 21.4223 46.2227 21.8393 46.3775C22.2563 46.5632 22.7039 46.6868 23.1494 46.7488C23.5379 46.8105 23.8959 46.7797 24.1928 46.7178C24.4919 46.6559 24.7603 46.5322 24.9678 46.3466C25.2058 46.1609 25.3564 45.9134 25.4743 45.6658C25.5944 45.4183 25.6838 45.109 25.6838 44.7996C25.7143 44.4901 25.6838 44.1808 25.5943 43.9023C25.5048 43.593 25.3848 43.3145 25.2058 43.0361C25.037 42.742 24.8132 42.476 24.5345 42.2113C24.681 42.3767 24.8051 42.5465 24.9088 42.7266C25.0878 43.0052 25.2058 43.2835 25.2953 43.593C25.3848 43.8713 25.4153 44.1808 25.3848 44.4902C25.3848 44.7997 25.2953 45.109 25.1774 45.3565C25.0574 45.6041 24.9088 45.8514 24.6708 46.0371C24.4613 46.2227 24.1929 46.3466 23.8959 46.4083C23.5969 46.4702 23.2389 46.5012 22.8524 46.4393C22.4049 46.3775 21.9573 46.2537 21.5404 46.068C21.1234 45.9134 20.7063 45.6968 20.3178 45.4802C19.9314 45.2636 19.5734 45.0162 19.2765 44.7996C18.9774 44.6031 18.7293 44.3812 18.5299 44.2031C18.5096 44.1849 18.4912 44.1671 18.4708 44.1499L17.1304 48.7596C17.2626 48.9566 17.4315 49.141 17.6206 49.321ZM22.0123 40.0012C21.9004 39.8905 21.7926 39.7782 21.6888 39.6638C21.2718 39.1996 20.8854 38.7047 20.5864 38.1478C20.2589 37.5908 20.0209 37.0029 19.8724 36.3843C19.6934 35.7655 19.6323 35.0848 19.6628 34.3423C19.7218 33.1047 19.9619 31.96 20.3484 30.939C20.7654 29.8872 21.3329 28.9591 22.0469 28.1547C22.7934 27.3193 23.6863 26.6385 24.6993 26.1126C25.7733 25.5557 26.9653 25.1845 28.3057 24.9989C28.9322 24.906 29.5283 24.875 30.0938 24.875C30.6613 24.875 31.1983 24.906 31.7048 24.9679C32.2112 25.0299 32.6588 25.1226 33.0758 25.2464C33.4622 25.3392 33.8202 25.4938 34.1192 25.6485L34.0724 25.7932C33.8568 25.6995 33.6209 25.6151 33.3727 25.5557C32.9557 25.4321 32.5082 25.3392 32.0017 25.2772C31.4952 25.2155 30.9582 25.1845 30.3927 25.1845C29.8272 25.1845 29.2313 25.2155 28.6048 25.3082C27.2643 25.4938 26.0703 25.8651 24.9983 26.4221C23.9854 26.948 23.0903 27.6286 22.3458 28.4639C21.6298 29.2684 21.0643 30.1965 20.6473 31.2485C20.2588 32.2695 20.0209 33.4142 19.9619 34.6516C19.9314 35.3943 19.9903 36.0748 20.1693 36.6936C20.3178 37.3124 20.5578 37.9003 20.8853 38.4571C21.1823 39.014 21.5708 39.5091 21.9878 39.9731C21.9959 39.9824 22.0041 39.9919 22.0123 40.0012ZM26.0601 35.0569C26.2228 35.2409 26.4263 35.4413 26.6663 35.6417C26.9653 35.8892 27.3233 36.1368 27.7098 36.3843C28.2773 36.7556 28.8428 37.1578 29.3798 37.6527C29.5364 37.7968 29.691 37.946 29.8456 38.1007C29.5974 37.8339 29.339 37.5815 29.0807 37.3434C28.5457 36.8483 27.9783 36.4461 27.4128 36.0748C27.0243 35.8273 26.6663 35.5799 26.3693 35.3324C26.2575 35.24 26.1557 35.1477 26.0601 35.0569Z" fill="black"/>
<path opacity="0.41" fill-rule="evenodd" clip-rule="evenodd" d="M46.4864 51.4512L45.4735 16.4904L45.2944 16.3048L45.7725 50.9561C45.7725 50.9561 41.5701 57.5769 40.9436 57.3913C40.0201 57.1129 42.762 13.7059 42.762 13.7059L42.463 13.3966C42.3451 13.3037 42.1945 13.2419 42.0766 13.2109L39.8411 59.588L39.8105 60.2377L40.5855 59.2167L46.4864 51.4512Z" fill="url(#paint6_linear_4153_5682)"/>
<path fill-rule="evenodd" clip-rule="evenodd" d="M35.0711 15.2204C34.7152 16.6744 34.2677 18.0357 33.9402 18.8711C33.7307 19.3662 33.9687 19.8301 34.4162 19.8921C34.8942 19.954 35.4292 19.6135 35.6082 19.1186C35.6387 19.0257 36.4421 17.0148 36.9506 14.6325V14.6016L35.0711 15.2204Z" fill="url(#paint7_linear_4153_5682)"/>
<path fill-rule="evenodd" clip-rule="evenodd" d="M21.6297 19.5516C21.2127 20.4797 20.7957 21.2841 20.4967 21.841C20.2303 22.3051 20.3787 22.8 20.8262 22.9237C21.2717 23.0786 21.8676 22.8 22.1361 22.3359C22.1667 22.2741 23.0312 20.7582 23.8062 18.8398L21.6297 19.5516Z" fill="url(#paint8_linear_4153_5682)"/>
<path opacity="0.32" fill-rule="evenodd" clip-rule="evenodd" d="M39.8105 60.205L46.4864 51.4492L55.7274 56.647L39.8105 60.205Z" fill="url(#paint9_linear_4153_5682)"/>
<path opacity="0.19" fill-rule="evenodd" clip-rule="evenodd" d="M39.8105 60.205L46.4274 51.4492L55.7274 56.647L39.8105 60.205Z" fill="url(#paint10_linear_4153_5682)"/>
<path opacity="0.19" fill-rule="evenodd" clip-rule="evenodd" d="M39.8105 60.205L46.4274 51.4492L55.7274 56.647L39.8105 60.205Z" fill="url(#paint11_linear_4153_5682)"/>
<path opacity="0.6" fill-rule="evenodd" clip-rule="evenodd" d="M33.3139 35.7018C36.7719 40.5592 39.0967 45.8187 40.2582 50.9236L42.0768 13.1475C41.7493 13.0858 41.4197 13.1475 41.3302 13.1785L16.0566 21.3155C16.0566 21.3155 15.8185 21.3772 15.5195 21.5011C21.929 23.7905 28.3365 28.7098 33.3139 35.7018Z" fill="url(#paint12_linear_4153_5682)"/>
<path fill-rule="evenodd" clip-rule="evenodd" d="M49.9135 16.9249C50.0641 17.0488 50.0641 17.2344 50.0641 17.2344L55.607 56.6191L46.4861 51.4215L45.4731 16.4609L49.5576 16.7702C49.5861 16.8012 49.7651 16.8012 49.9135 16.9249Z" fill="url(#paint13_linear_4153_5682)"/>
<path fill-rule="evenodd" clip-rule="evenodd" d="M49.2589 17.0184C49.2589 17.0184 49.4379 17.0184 49.5864 17.173C49.7349 17.2969 49.7653 17.4825 49.7653 17.4825L55.2207 56.4343L55.6378 56.6819L50.0928 17.2659C50.0928 17.2659 50.0643 17.0803 49.9443 16.9566C49.7958 16.8327 49.5864 16.8327 49.5864 16.8327L45.5039 16.5234L49.2589 17.0184Z" fill="url(#paint14_linear_4153_5682)"/>
<path fill-rule="evenodd" clip-rule="evenodd" d="M10.4829 54.5142L39.8106 60.207L41.2425 27.9688L14.13 28.7394L10.4829 54.5142Z" fill="url(#paint15_linear_4153_5682)"/>
<path opacity="0.3" fill-rule="evenodd" clip-rule="evenodd" d="M20.1104 21.7665C19.844 22.5185 20.1063 23.3085 20.7003 23.5316C21.2922 23.7545 21.9879 23.3257 22.2564 22.5739C22.5229 21.8222 22.2585 21.0319 21.6666 20.809C21.0746 20.586 20.3769 21.0147 20.1104 21.7665Z" fill="white"/>
<path opacity="0.89" fill-rule="evenodd" clip-rule="evenodd" d="M20.0779 21.4112C19.8114 22.163 20.0758 22.9533 20.6678 23.1761C21.2597 23.3992 21.9574 22.9705 22.2239 22.2187C22.4903 21.4667 22.228 20.6764 21.634 20.4536C21.0421 20.2305 20.3464 20.6592 20.0779 21.4112Z" fill="black"/>
<path fill-rule="evenodd" clip-rule="evenodd" d="M45.504 16.4901L42.463 13.3653C42.3451 13.2724 42.1945 13.2107 42.0766 13.1797L39.8105 60.2065L46.517 51.4197L45.504 16.4901Z" fill="url(#paint16_linear_4153_5682)"/>
<path fill-rule="evenodd" clip-rule="evenodd" d="M41.3299 13.2131L16.0563 21.3189C16.0563 21.3189 14.9843 21.6284 14.7158 21.9687C14.6853 21.9997 14.6852 22.0307 14.6567 22.0616L40.1379 14.76C40.3475 14.6981 40.8539 14.5125 40.795 16.0284L39.2449 60.147L39.782 60.2399L42.0459 13.2131C41.7489 13.1202 41.4194 13.1822 41.3299 13.2131Z" fill="url(#paint17_linear_4153_5682)"/>
<path fill-rule="evenodd" clip-rule="evenodd" d="M41.3299 13.2131L16.0563 21.3189C16.0563 21.3189 14.9843 21.6284 14.7158 21.9687C14.6853 21.9997 14.6852 22.0307 14.6567 22.0616L20.5577 20.3599L40.8539 13.8319C40.9434 13.801 41.271 13.739 41.5985 13.801L39.363 60.147L39.782 60.2399L42.0459 13.2131C41.7489 13.1202 41.4194 13.1822 41.3299 13.2131Z" fill="url(#paint18_linear_4153_5682)"/>
<path opacity="0.32" fill-rule="evenodd" clip-rule="evenodd" d="M47.8291 52.1953L46.4865 51.4219L39.7822 60.2084L40.1382 60.1155C40.1382 60.1155 46.0411 52.2263 46.576 51.9787C46.9646 51.8241 47.8291 52.1953 47.8291 52.1953Z" fill="url(#paint19_linear_4153_5682)"/>
<path opacity="0.57" fill-rule="evenodd" clip-rule="evenodd" d="M39.8105 60.2084L46.517 51.4219C46.4864 51.4528 42.2555 56.2482 39.8105 60.2084Z" fill="url(#paint20_linear_4153_5682)"/>
<path opacity="0.46" fill-rule="evenodd" clip-rule="evenodd" d="M55.7272 56.647L46.5167 51.4492C46.4862 51.4492 47.5603 51.6348 55.7272 56.647Z" fill="url(#paint21_linear_4153_5682)"/>
<path opacity="0.3" fill-rule="evenodd" clip-rule="evenodd" d="M33.7368 18.6844C33.4683 19.4364 33.7328 20.2266 34.3247 20.4497C34.9187 20.6728 35.6143 20.244 35.8808 19.4922C36.1493 18.7402 35.8849 17.95 35.293 17.7269C34.701 17.504 34.0033 17.9326 33.7368 18.6844Z" fill="white"/>
<path opacity="0.89" fill-rule="evenodd" clip-rule="evenodd" d="M33.7044 18.329C33.4379 19.081 33.7024 19.8712 34.2943 20.0943C34.8862 20.3172 35.5838 19.8886 35.8503 19.1366C36.1168 18.3848 35.8544 17.5946 35.2625 17.3715C34.6685 17.1485 33.9729 17.5772 33.7044 18.329Z" fill="black"/>
<path fill-rule="evenodd" clip-rule="evenodd" d="M21.154 22.926C21.1235 22.926 21.0645 22.926 21.034 22.926C20.558 22.8643 20.2306 22.4001 20.2896 21.8742C20.3486 21.3791 22.047 9.80802 29.0219 7.17835C30.7794 6.52857 32.2703 6.65225 33.4033 7.61153C34.7743 8.75623 35.5188 11.0456 35.6388 14.387C35.7283 16.7384 35.4599 18.7802 35.4599 18.8731C35.4009 19.368 34.9534 19.7395 34.4754 19.6466C33.9994 19.5846 33.6413 19.1207 33.7308 18.6256C33.9993 16.5218 34.2963 10.7363 32.3009 9.06554C31.6744 8.53964 30.81 8.4777 29.6485 8.91088C23.6581 11.1693 22.0775 22.0289 22.0775 22.1216C21.9575 22.5857 21.6015 22.926 21.154 22.926Z" fill="#595961"/>
<path opacity="0.46" fill-rule="evenodd" clip-rule="evenodd" d="M33.0453 7.67425C32.0018 6.80809 30.6309 6.68441 28.9914 7.27224C26.1599 8.355 23.7759 11.2013 22.1364 15.5017C20.9159 18.6885 20.497 21.5657 20.497 21.6896C20.4685 21.8442 20.5275 21.9989 20.617 22.1228C20.7065 22.2465 20.8265 22.3394 20.9749 22.3394C21.0034 22.3394 21.0339 22.3394 21.0645 22.3394C21.333 22.3394 21.5709 22.1228 21.6014 21.8442C21.6299 21.7206 23.2105 10.6754 29.3799 8.355C30.6308 7.89085 31.6438 7.95279 32.3598 8.5716C34.4752 10.3351 34.1783 16.3062 33.9098 18.4409C33.8793 18.7504 34.0888 19.0597 34.3858 19.0907C34.6848 19.1217 34.9817 18.9051 35.0123 18.5958C35.0428 18.2553 36.0863 10.2114 33.0453 7.67425Z" fill="#B2B2C2"/>
<path opacity="0.81" fill-rule="evenodd" clip-rule="evenodd" d="M21.0339 21.9966C21.0034 21.9966 21.0034 21.9966 20.9749 21.9966C20.7959 21.9656 20.6759 21.78 20.7064 21.5944C20.7369 21.4705 21.1234 18.6552 22.3459 15.4685C23.9854 11.2299 26.3103 8.41445 29.0808 7.36246C30.6613 6.77462 31.9428 6.89851 32.9253 7.70293C35.8462 10.147 34.8332 18.0674 34.7742 18.4076C34.7437 18.5933 34.5953 18.7169 34.3858 18.6862C34.2088 18.6552 34.0888 18.5006 34.0888 18.284C34.0888 18.1911 35.1018 10.4255 32.4798 8.19785C31.7048 7.61002 30.6309 7.54828 29.3209 8.0432C23.0315 10.4255 21.392 21.5944 21.392 21.7181C21.3615 21.8727 21.2129 21.9966 21.0339 21.9966Z" fill="#B2B2C2"/>
<path opacity="0.42" fill-rule="evenodd" clip-rule="evenodd" d="M24.9678 13.1496C25.2953 12.6856 25.5942 12.2215 25.8912 11.7266C25.7732 11.8812 24.9087 13.4901 23.1208 13.2425C23.0903 13.2425 24.1338 13.5828 24.9678 13.1496Z" fill="#595961"/>
<path opacity="0.42" fill-rule="evenodd" clip-rule="evenodd" d="M23.9548 15.1292C24.2233 14.6341 24.4917 14.1082 24.6992 13.6133C24.6097 13.7989 24.0137 15.4695 22.1362 15.4695C22.1362 15.4695 23.1798 15.6861 23.9548 15.1292Z" fill="#595961"/>
<path opacity="0.42" fill-rule="evenodd" clip-rule="evenodd" d="M23.18 17.1716C23.418 16.6455 23.597 16.1196 23.776 15.5938C23.6865 15.7794 23.3591 17.4809 21.3921 17.6975C21.3921 17.6666 22.464 17.7904 23.18 17.1716Z" fill="#595961"/>
<path opacity="0.62" fill-rule="evenodd" clip-rule="evenodd" d="M35.1017 11.1398C34.9532 10.5828 34.8047 10.0569 34.5952 9.5C34.6542 9.68562 35.2502 11.4491 34.0298 12.7175C34.0298 12.7175 34.9227 12.0989 35.1017 11.1398Z" fill="#595961"/>
<path opacity="0.62" fill-rule="evenodd" clip-rule="evenodd" d="M33.9401 8.35201C33.5231 7.94979 33.104 7.57855 32.687 7.23828C32.8375 7.39293 34.237 8.53763 33.8506 10.2702C33.82 10.2702 34.2676 9.24914 33.9401 8.35201Z" fill="#595961"/>
<path opacity="0.62" fill-rule="evenodd" clip-rule="evenodd" d="M35.4006 13.983C35.37 13.4261 35.2806 12.8383 35.1911 12.2812C35.1911 12.4978 35.4901 14.3233 34.0581 15.3133C34.0581 15.3133 35.0426 14.8801 35.4006 13.983Z" fill="#595961"/>
<path opacity="0.62" fill-rule="evenodd" clip-rule="evenodd" d="M35.5492 16.893C35.5797 16.3361 35.5797 15.7483 35.5492 15.1914C35.5492 15.408 35.5796 17.2334 34.0581 18.0686C34.0581 18.0379 35.1017 17.7284 35.5492 16.893Z" fill="#595961"/>
<path opacity="0.42" fill-rule="evenodd" clip-rule="evenodd" d="M22.4941 19.4289C22.6731 18.872 22.7931 18.3152 22.9111 17.7891C22.8521 17.9747 22.5836 19.7382 20.7651 20.1714C20.7956 20.1714 21.8676 20.1404 22.4941 19.4289Z" fill="#595961"/>
<path opacity="0.42" fill-rule="evenodd" clip-rule="evenodd" d="M26.1009 11.4488C26.5179 11.0776 26.9063 10.6754 27.2643 10.2422C27.1138 10.3659 25.9219 11.6344 24.2539 11.1703C24.2824 11.1703 25.2059 11.7274 26.1009 11.4488Z" fill="#595961"/>
<path opacity="0.42" fill-rule="evenodd" clip-rule="evenodd" d="M27.4411 10.0255C27.9191 9.71618 28.3666 9.40668 28.8121 9.06641C28.6351 9.15932 27.2641 10.1801 25.6836 9.43765C25.6836 9.43765 26.5176 10.1492 27.4411 10.0255Z" fill="#595961"/>
<path opacity="0.62" fill-rule="evenodd" clip-rule="evenodd" d="M29.2599 9.00484C29.7969 8.84998 30.3034 8.66436 30.8099 8.47874C30.6309 8.54068 29.022 9.09755 27.71 7.92188C27.71 7.92188 28.3364 8.84998 29.2599 9.00484Z" fill="#595961"/>
<path opacity="0.62" fill-rule="evenodd" clip-rule="evenodd" d="M30.7792 8.44854C31.1982 8.51048 31.6153 8.54146 32.0323 8.57243C31.8838 8.54146 30.6022 8.44855 30.0347 7.21094C30.0652 7.21094 30.2137 8.04633 30.7792 8.44854Z" fill="#595961"/>
<path opacity="0.62" fill-rule="evenodd" clip-rule="evenodd" d="M32.3901 9.12635C32.6586 9.46663 32.9251 9.8069 33.1936 10.1164C33.1041 9.99252 32.2701 8.97171 32.6871 7.70312C32.7176 7.70312 32.2701 8.41484 32.3901 9.12635Z" fill="#595961"/>
<path fill-rule="evenodd" clip-rule="evenodd" d="M34.4464 18.254C34.4749 17.9138 35.4899 10.0863 32.6585 7.70398C32.1215 7.24003 31.4665 7.02344 30.7505 7.02344C30.2135 7.02344 29.6176 7.14712 28.9911 7.39468C26.2491 8.4157 23.9546 11.1693 22.3456 15.3768C21.1231 18.5326 20.7366 21.3481 20.7061 21.4718C20.7061 21.5645 20.7652 21.6574 20.8547 21.6574H20.8851C20.9746 21.6574 21.0336 21.5954 21.0336 21.5027C21.0641 21.3788 22.673 10.0863 29.0804 7.67301C30.4514 7.14712 31.6149 7.24003 32.4489 7.95154C35.1604 10.21 34.1475 18.0994 34.119 18.1923C34.119 18.285 34.178 18.3779 34.2675 18.3779C34.2675 18.3779 34.2674 18.3779 34.2959 18.3779C34.3854 18.4089 34.4464 18.347 34.4464 18.254Z" fill="url(#paint22_linear_4153_5682)"/>
<path fill-rule="evenodd" clip-rule="evenodd" d="M35.6388 14.385C35.5188 11.0436 34.7743 8.78495 33.4033 7.60928C32.6589 6.99067 31.764 6.71214 30.751 6.77408C31.526 6.83582 32.2399 7.11435 32.838 7.60928C34.2089 8.75418 34.9533 11.0436 35.0713 14.385C35.1608 16.7363 34.8944 18.7781 34.8944 18.8711C34.8334 19.2423 34.5954 19.5208 34.2964 19.6135C34.3574 19.6445 34.3858 19.6445 34.4468 19.6445C34.9228 19.7064 35.3704 19.366 35.4294 18.8711C35.4599 18.7781 35.7283 16.7673 35.6388 14.385Z" fill="url(#paint23_linear_4153_5682)"/>
<path fill-rule="evenodd" clip-rule="evenodd" d="M29.0522 8.91093C23.0618 11.1694 21.4813 22.0289 21.4813 22.1526C21.4223 22.5238 21.1822 22.8024 20.8853 22.8951C20.9442 22.9261 20.9748 22.9261 21.0337 22.9261C21.0643 22.9261 21.1233 22.9261 21.1538 22.9261C21.6013 22.9261 21.9572 22.5858 22.0183 22.1526C22.0467 22.0289 23.5967 11.2003 29.5872 8.9417C30.0062 8.78705 30.3622 8.69434 30.6917 8.66337C30.2442 8.60143 29.6767 8.69434 29.0522 8.91093Z" fill="url(#paint24_linear_4153_5682)"/>
<path d="M9.3499 97.1698C8.9659 97.1698 8.5279 97.1458 8.0359 97.0978C7.5559 97.0618 7.0759 97.0138 6.5959 96.9538C6.1159 96.8818 5.6959 96.8218 5.3359 96.7738L5.4799 95.4778C5.8399 95.5138 6.2479 95.5558 6.7039 95.6038C7.1719 95.6518 7.6339 95.6938 8.0899 95.7298C8.5459 95.7658 8.9359 95.7838 9.2599 95.7838C10.0999 95.7838 10.7299 95.5978 11.1499 95.2258C11.5699 94.8418 11.7799 94.2478 11.7799 93.4438C11.7799 93.0118 11.6959 92.6638 11.5279 92.3998C11.3599 92.1358 11.0779 91.9318 10.6819 91.7878C10.2979 91.6318 9.7759 91.4878 9.1159 91.3558C8.2399 91.1758 7.5139 90.9598 6.9379 90.7078C6.3619 90.4558 5.9299 90.1018 5.6419 89.6458C5.3659 89.1898 5.2279 88.5718 5.2279 87.7918C5.2279 86.9638 5.3959 86.3038 5.7319 85.8118C6.0679 85.3078 6.5419 84.9418 7.1539 84.7138C7.7659 84.4858 8.4799 84.3718 9.2959 84.3718C9.6559 84.3718 10.0699 84.3958 10.5379 84.4438C11.0059 84.4798 11.4679 84.5278 11.9239 84.5878C12.3799 84.6358 12.7699 84.6898 13.0939 84.7498L12.9859 86.0638C12.6259 86.0158 12.2179 85.9738 11.7619 85.9378C11.3059 85.8898 10.8619 85.8478 10.4299 85.8118C10.0099 85.7758 9.6679 85.7578 9.4039 85.7578C8.5519 85.7578 7.9099 85.9138 7.4779 86.2258C7.0459 86.5378 6.8299 87.0178 6.8299 87.6658C6.8299 88.1818 6.9259 88.5718 7.1179 88.8358C7.3099 89.0998 7.6219 89.3098 8.0539 89.4658C8.4859 89.6098 9.0499 89.7598 9.7459 89.9158C10.3819 90.0718 10.9279 90.2338 11.3839 90.4018C11.8399 90.5698 12.2179 90.7798 12.5179 91.0318C12.8179 91.2718 13.0339 91.5778 13.1659 91.9498C13.3099 92.3218 13.3819 92.7778 13.3819 93.3178C13.3819 94.2418 13.2139 94.9858 12.8779 95.5498C12.5539 96.1138 12.0919 96.5278 11.4919 96.7918C10.8919 97.0438 10.1779 97.1698 9.3499 97.1698ZM15.4509 97.0078V84.1198H16.9629V88.4758C17.2749 88.3318 17.6889 88.1878 18.2049 88.0438C18.7209 87.8998 19.2129 87.8278 19.6809 87.8278C20.5089 87.8278 21.1449 87.9778 21.5889 88.2778C22.0329 88.5658 22.3329 89.0338 22.4889 89.6818C22.6569 90.3298 22.7409 91.1818 22.7409 92.2378V97.0078H21.2109V92.3098C21.2109 91.5538 21.1629 90.9478 21.0669 90.4918C20.9829 90.0358 20.8149 89.7058 20.5629 89.5018C20.3109 89.2978 19.9149 89.1958 19.3749 89.1958C18.9429 89.1958 18.4989 89.2558 18.0429 89.3758C17.5989 89.4838 17.2389 89.5918 16.9629 89.6998V97.0078H15.4509ZM28.6816 97.1878C27.6736 97.1878 26.8816 97.0138 26.3056 96.6658C25.7416 96.3178 25.3456 95.7958 25.1176 95.0998C24.8896 94.3918 24.7756 93.4918 24.7756 92.3998C24.7756 91.3678 24.9016 90.5158 25.1536 89.8438C25.4056 89.1598 25.8196 88.6558 26.3956 88.3318C26.9716 87.9958 27.7336 87.8278 28.6816 87.8278C29.6416 87.8278 30.4096 87.9958 30.9856 88.3318C31.5616 88.6558 31.9756 89.1598 32.2276 89.8438C32.4796 90.5158 32.6056 91.3678 32.6056 92.3998C32.6056 93.4918 32.4856 94.3918 32.2456 95.0998C32.0176 95.7958 31.6216 96.3178 31.0576 96.6658C30.4936 97.0138 29.7016 97.1878 28.6816 97.1878ZM28.6816 95.8738C29.3536 95.8738 29.8576 95.7598 30.1936 95.5318C30.5296 95.2918 30.7516 94.9138 30.8596 94.3978C30.9676 93.8818 31.0216 93.2158 31.0216 92.3998C31.0216 91.5958 30.9496 90.9538 30.8056 90.4738C30.6736 89.9938 30.4396 89.6518 30.1036 89.4478C29.7676 89.2438 29.2936 89.1418 28.6816 89.1418C28.0816 89.1418 27.6076 89.2438 27.2596 89.4478C26.9236 89.6518 26.6836 89.9938 26.5396 90.4738C26.4076 90.9538 26.3416 91.5958 26.3416 92.3998C26.3416 93.2158 26.3956 93.8818 26.5036 94.3978C26.6116 94.9138 26.8336 95.2918 27.1696 95.5318C27.5056 95.7598 28.0096 95.8738 28.6816 95.8738ZM34.7341 100.968V88.0078H36.2461V88.6378C36.4381 88.5178 36.6781 88.3978 36.9661 88.2778C37.2541 88.1458 37.5601 88.0378 37.8841 87.9538C38.2201 87.8698 38.5441 87.8278 38.8561 87.8278C40.0081 87.8278 40.8481 88.1938 41.3761 88.9258C41.9041 89.6578 42.1681 90.8158 42.1681 92.3998C42.1681 93.5758 42.0301 94.5178 41.7541 95.2258C41.4901 95.9218 41.0641 96.4258 40.4761 96.7378C39.9001 97.0378 39.1501 97.1878 38.2261 97.1878C37.8661 97.1878 37.4941 97.1638 37.1101 97.1158C36.7381 97.0678 36.4501 97.0258 36.2461 96.9898V100.968H34.7341ZM38.1001 95.8558C38.7361 95.8558 39.2341 95.7418 39.5941 95.5138C39.9541 95.2738 40.2061 94.9018 40.3501 94.3978C40.5061 93.8818 40.5841 93.2158 40.5841 92.3998C40.5841 91.2238 40.4101 90.3958 40.0621 89.9158C39.7141 89.4238 39.2281 89.1778 38.6041 89.1778C38.3281 89.1778 38.0401 89.2138 37.7401 89.2858C37.4521 89.3578 37.1761 89.4418 36.9121 89.5378C36.6481 89.6338 36.4261 89.7358 36.2461 89.8438V95.6938C36.4381 95.7178 36.7081 95.7538 37.0561 95.8018C37.4161 95.8378 37.7641 95.8558 38.1001 95.8558ZM44.279 97.0078V88.0078H45.791V97.0078H44.279ZM44.279 86.0998V84.4258H45.791V86.0998H44.279ZM48.6644 97.0078V89.3218H47.5664V88.0078H48.6644V87.2518C48.6644 86.3878 48.7424 85.7158 48.8984 85.2358C49.0664 84.7558 49.3304 84.4198 49.6904 84.2278C50.0504 84.0358 50.5304 83.9398 51.1304 83.9398C51.2864 83.9398 51.4904 83.9458 51.7424 83.9578C51.9944 83.9698 52.2404 83.9878 52.4804 84.0118C52.7324 84.0358 52.9064 84.0598 53.0024 84.0838L52.9844 85.3438C52.7684 85.3318 52.5104 85.3258 52.2104 85.3258C51.9224 85.3138 51.6824 85.3078 51.4904 85.3078C51.1664 85.3078 50.9084 85.3618 50.7164 85.4698C50.5364 85.5778 50.4044 85.7758 50.3204 86.0638C50.2484 86.3518 50.2124 86.7478 50.2124 87.2518V88.0078H52.7504V89.3218H50.2124V97.0078H48.6644ZM56.2066 100.968L57.3766 97.0078H55.9546L53.4706 88.0078H55.0186L57.1426 95.6938H57.7366L59.8606 88.0078H61.4086L57.7726 100.968H56.2066Z" fill="#A6D3E1"/>
<defs>
<linearGradient id="paint0_linear_4153_5682" x1="28.1917" y1="8.70265" x2="27.257" y2="21.429" gradientUnits="userSpaceOnUse">
<stop stop-color="white" stop-opacity="0.65"/>
<stop offset="1" stop-color="white" stop-opacity="0.01"/>
</linearGradient>
<linearGradient id="paint1_linear_4153_5682" x1="35.0226" y1="15.985" x2="41.6036" y2="21.7492" gradientUnits="userSpaceOnUse">
<stop stop-opacity="0.01"/>
<stop offset="1" stop-opacity="0.4"/>
</linearGradient>
<linearGradient id="paint2_linear_4153_5682" x1="32.3842" y1="22.6561" x2="39.3501" y2="16.1679" gradientUnits="userSpaceOnUse">
<stop stop-opacity="0.01"/>
<stop offset="1" stop-opacity="0.4"/>
</linearGradient>
<linearGradient id="paint3_linear_4153_5682" x1="23.5174" y1="3.71924" x2="-3.53835" y2="34.8934" gradientUnits="userSpaceOnUse">
<stop stop-color="#B8D26E"/>
<stop offset="1" stop-color="#7FB525"/>
</linearGradient>
<linearGradient id="paint4_linear_4153_5682" x1="60.5279" y1="11.5247" x2="45.6791" y2="11.8004" gradientUnits="userSpaceOnUse">
<stop stop-color="#B4E034"/>
<stop offset="1" stop-color="#60A927"/>
</linearGradient>
<linearGradient id="paint5_linear_4153_5682" x1="16.3614" y1="32.3115" x2="4.18736" y2="61.9576" gradientUnits="userSpaceOnUse">
<stop stop-color="white"/>
<stop offset="1" stop-color="#CECEEB"/>
</linearGradient>
<linearGradient id="paint6_linear_4153_5682" x1="33.8161" y1="105.321" x2="53.0972" y2="105.282" gradientUnits="userSpaceOnUse">
<stop stop-color="#1D1D1B" stop-opacity="0.5"/>
<stop offset="0.038033" stop-color="#1D1D1B" stop-opacity="0.4837"/>
<stop offset="0.4243" stop-color="#1D1D1B" stop-opacity="0.3185"/>
<stop offset="1" stop-color="#1D1D1B" stop-opacity="0.01"/>
</linearGradient>
<linearGradient id="paint7_linear_4153_5682" x1="36.0557" y1="12.5251" x2="32.8569" y2="14.2467" gradientUnits="userSpaceOnUse">
<stop stop-opacity="0.01"/>
<stop offset="1" stop-opacity="0.4"/>
</linearGradient>
<linearGradient id="paint8_linear_4153_5682" x1="22.6447" y1="17.6312" x2="20.3962" y2="19.5636" gradientUnits="userSpaceOnUse">
<stop stop-opacity="0.01"/>
<stop offset="1" stop-opacity="0.4"/>
</linearGradient>
<linearGradient id="paint9_linear_4153_5682" x1="44.5785" y1="56.6701" x2="44.8061" y2="59.671" gradientUnits="userSpaceOnUse">
<stop stop-opacity="0.01"/>
<stop offset="1" stop-opacity="0.4"/>
</linearGradient>
<linearGradient id="paint10_linear_4153_5682" x1="39.2634" y1="52.2769" x2="39.7912" y2="60.079" gradientUnits="userSpaceOnUse">
<stop stop-color="white" stop-opacity="0.5"/>
<stop offset="0.0896271" stop-color="white" stop-opacity="0.4552"/>
<stop offset="1" stop-color="white" stop-opacity="0.01"/>
</linearGradient>
<linearGradient id="paint11_linear_4153_5682" x1="38.2484" y1="53.4904" x2="39.1872" y2="61.8248" gradientUnits="userSpaceOnUse">
<stop stop-opacity="0.01"/>
<stop offset="1" stop-opacity="0.4"/>
</linearGradient>
<linearGradient id="paint12_linear_4153_5682" x1="34.5648" y1="5.53966" x2="10.4868" y2="19.4654" gradientUnits="userSpaceOnUse">
<stop stop-color="white" stop-opacity="0.5"/>
<stop offset="1" stop-color="white" stop-opacity="0.01"/>
</linearGradient>
<linearGradient id="paint13_linear_4153_5682" x1="39.2102" y1="78.3235" x2="60.4624" y2="78.3664" gradientUnits="userSpaceOnUse">
<stop stop-color="#1D1D1B" stop-opacity="0.5"/>
<stop offset="0.0896271" stop-color="#1D1D1B" stop-opacity="0.4552"/>
<stop offset="1" stop-color="#1D1D1B" stop-opacity="0.01"/>
</linearGradient>
<linearGradient id="paint14_linear_4153_5682" x1="54.4295" y1="15.351" x2="51.4105" y2="16.0907" gradientUnits="userSpaceOnUse">
<stop stop-color="white" stop-opacity="0.4"/>
<stop offset="1" stop-color="white" stop-opacity="0.01"/>
</linearGradient>
<linearGradient id="paint15_linear_4153_5682" x1="27.3435" y1="60.5513" x2="28.9134" y2="52.9829" gradientUnits="userSpaceOnUse">
<stop stop-color="#1D1D1B" stop-opacity="0.5"/>
<stop offset="0.0896271" stop-color="#1D1D1B" stop-opacity="0.4552"/>
<stop offset="1" stop-color="#1D1D1B" stop-opacity="0.01"/>
</linearGradient>
<linearGradient id="paint16_linear_4153_5682" x1="36.4197" y1="104.357" x2="55.7701" y2="104.374" gradientUnits="userSpaceOnUse">
<stop stop-color="#1D1D1B" stop-opacity="0.5"/>
<stop offset="1" stop-color="#1D1D1B" stop-opacity="0.01"/>
</linearGradient>
<linearGradient id="paint17_linear_4153_5682" x1="18.7371" y1="10.4867" x2="9.35229" y2="46.5431" gradientUnits="userSpaceOnUse">
<stop stop-color="white" stop-opacity="0.5"/>
<stop offset="1" stop-color="white" stop-opacity="0.01"/>
</linearGradient>
<linearGradient id="paint18_linear_4153_5682" x1="18.7371" y1="10.4867" x2="9.35229" y2="46.5431" gradientUnits="userSpaceOnUse">
<stop stop-color="white" stop-opacity="0.5"/>
<stop offset="1" stop-color="white" stop-opacity="0.01"/>
</linearGradient>
<linearGradient id="paint19_linear_4153_5682" x1="41.5132" y1="48.2831" x2="34.0954" y2="58.4928" gradientUnits="userSpaceOnUse">
<stop stop-color="white" stop-opacity="0.5"/>
<stop offset="0.0896271" stop-color="white" stop-opacity="0.4552"/>
<stop offset="1" stop-color="white" stop-opacity="0.01"/>
</linearGradient>
<linearGradient id="paint20_linear_4153_5682" x1="43.7506" y1="50.6304" x2="43.0162" y2="52.2767" gradientUnits="userSpaceOnUse">
<stop stop-opacity="0.01"/>
<stop offset="1" stop-opacity="0.4"/>
</linearGradient>
<linearGradient id="paint21_linear_4153_5682" x1="51.0345" y1="52.8038" x2="50.9982" y2="53.2464" gradientUnits="userSpaceOnUse">
<stop stop-opacity="0.01"/>
<stop offset="1" stop-opacity="0.4"/>
</linearGradient>
<linearGradient id="paint22_linear_4153_5682" x1="24.3227" y1="5.98197" x2="21.1159" y2="18.6504" gradientUnits="userSpaceOnUse">
<stop stop-color="white" stop-opacity="0.65"/>
<stop offset="1" stop-color="white" stop-opacity="0.01"/>
</linearGradient>
<linearGradient id="paint23_linear_4153_5682" x1="31.4995" y1="13.288" x2="37.0779" y2="18.9594" gradientUnits="userSpaceOnUse">
<stop stop-opacity="0.01"/>
<stop offset="1" stop-opacity="0.4"/>
</linearGradient>
<linearGradient id="paint24_linear_4153_5682" x1="27.9335" y1="21.6419" x2="35.6408" y2="13.7265" gradientUnits="userSpaceOnUse">
<stop stop-opacity="0.01"/>
<stop offset="1" stop-opacity="0.4"/>
</linearGradient>
</defs>
</svg>
