<svg width="67" height="101" viewBox="0 0 67 101" fill="none" xmlns="http://www.w3.org/2000/svg">
<path d="M4.81299 25.1512C4.81299 17.857 4.81299 14.2099 6.23254 11.4238C7.48121 8.97317 9.47366 6.98073 11.9243 5.73205C14.7103 4.3125 18.3575 4.3125 25.6517 4.3125H41.5549C48.8492 4.3125 52.4963 4.3125 55.2823 5.73205C57.733 6.98073 59.7254 8.97317 60.9741 11.4238C62.3936 14.2099 62.3936 17.857 62.3936 25.1512V41.0544C62.3936 48.3487 62.3936 51.9958 60.9741 54.7818C59.7254 57.2325 57.733 59.2249 55.2823 60.4736C52.4963 61.8931 48.8492 61.8931 41.5549 61.8931H25.6517C18.3575 61.8931 14.7103 61.8931 11.9243 60.4736C9.47366 59.2249 7.48121 57.2325 6.23254 54.7818C4.81299 51.9958 4.81299 48.3487 4.81299 41.0544V25.1512Z" fill="#470137"/>
<path d="M34.933 21.2443L27.7484 33.4069L35.4351 46.3222C35.5949 46.615 35.4351 46.6797 35.2034 46.6797H29.7184C29.3321 46.6797 29.0617 46.6657 28.9072 46.4014C28.3917 45.3714 27.8767 44.3479 27.3621 43.3311C26.8467 42.3146 26.2995 41.2779 25.7205 40.221C25.1411 39.165 24.5681 38.0954 24.0016 37.012C23.4861 38.0687 22.9131 39.1252 22.3599 40.1815C21.8059 41.2381 21.2587 42.288 20.7183 43.3311C20.1775 44.3747 19.6239 45.4114 19.0574 46.441C18.9542 46.6787 18.7736 46.7033 18.5165 46.7033H13.2247C13.0168 46.7033 12.9917 46.5469 13.1088 46.3618L20.5638 33.803L13.3019 21.2046C13.17 21.0249 13.2835 20.8333 13.4951 20.8481H18.9414C19.1772 20.8348 19.3856 20.9238 19.5208 21.1255C19.9844 22.1821 20.4994 23.2385 21.0659 24.2948C21.632 25.3515 22.205 26.3948 22.7848 27.4246C23.3642 28.4547 23.9372 29.4979 24.4265 30.5544C24.9412 29.4717 25.4627 28.4153 25.9909 27.385C26.5184 26.355 27.0592 25.3183 27.6132 24.275C28.1667 23.232 28.701 22.1953 29.2162 21.1651C29.2847 20.9391 29.4483 20.8246 29.6798 20.8481H34.7399C34.933 20.8481 35.0129 21.1118 34.933 21.2443Z" fill="#FF61F6"/>
<path d="M46.0187 47.194C42.6121 47.2472 39.0439 45.8447 37.2504 42.7371C36.3746 41.2452 35.9368 39.3766 35.937 37.1312C35.9225 35.3129 36.3755 33.5228 37.2504 31.9413C39.5077 27.9062 44.0552 26.3944 48.3749 26.7911V18.9864C48.3749 18.8019 48.4522 18.7091 48.6067 18.7091H53.4736C53.6066 18.6896 53.7244 18.8103 53.7055 18.9468V42.3607C53.7055 43.3267 53.8012 44.2894 53.86 45.2527C53.8694 45.4174 53.7742 45.5801 53.6281 45.649C51.2234 46.6776 48.6215 47.1821 46.0187 47.194ZM48.3749 42.2815V31.4659C44.8469 30.4857 41.4216 33.1729 41.422 36.8935C41.3382 40.7401 44.654 43.3976 48.3749 42.2815Z" fill="#FF61F6"/>
<path d="M23.0726 96.6055L26.8346 90.5395L23.0726 84.1855H24.8366L27.8246 89.3515L30.8666 84.1855H32.5586L28.7966 90.4495L32.5406 96.6055H30.7766L27.8066 91.6015L24.7646 96.6055H23.0726ZM34.2969 96.6055V84.1855H38.7789C39.7029 84.1855 40.4649 84.3355 41.0649 84.6355C41.6769 84.9235 42.1569 85.3315 42.5049 85.8595C42.8649 86.3875 43.1169 87.0235 43.2609 87.7675C43.4169 88.4995 43.4949 89.3155 43.4949 90.2155C43.4949 91.1155 43.4229 91.9555 43.2789 92.7355C43.1349 93.5035 42.8829 94.1815 42.5229 94.7695C42.1749 95.3455 41.6949 95.7955 41.0829 96.1195C40.4829 96.4435 39.7209 96.6055 38.7969 96.6055H34.2969ZM35.8809 95.2195H38.7789C39.4149 95.2195 39.9309 95.0875 40.3269 94.8235C40.7229 94.5475 41.0289 94.1755 41.2449 93.7075C41.4729 93.2395 41.6289 92.7115 41.7129 92.1235C41.8089 91.5235 41.8569 90.8875 41.8569 90.2155C41.8569 89.5555 41.8089 88.9435 41.7129 88.3795C41.6289 87.8155 41.4729 87.3235 41.2449 86.9035C41.0289 86.4835 40.7169 86.1595 40.3089 85.9315C39.9129 85.6915 39.4029 85.5715 38.7789 85.5715H35.8809V95.2195Z" fill="#A6D3E1"/>
</svg>
