<svg width="70" height="102" viewBox="0 0 70 102" fill="none" xmlns="http://www.w3.org/2000/svg">
<g clip-path="url(#clip0_4153_5687)">
<path d="M35.1003 66.4077C53.2732 66.4077 68.0053 51.6756 68.0053 33.5027C68.0053 15.3297 53.2732 0.597656 35.1003 0.597656C16.9274 0.597656 2.19531 15.3297 2.19531 33.5027C2.19531 51.6756 16.9274 66.4077 35.1003 66.4077Z" fill="#4353FF"/>
<path d="M44.7657 29.5936L41.7837 38.9921C41.7837 38.2723 39.7271 22.6836 39.7271 22.6836C34.997 22.6836 32.488 26.0358 31.1718 29.5936L27.5317 39.0127C27.5317 38.334 27.0176 29.6759 27.0176 29.6759C26.842 27.8016 25.9851 26.0568 24.6093 24.7719C23.2334 23.487 21.4342 22.7513 19.5522 22.7042L23.4186 46.3135C28.3543 46.3135 31.0279 42.9613 32.4058 39.4034L35.4906 31.3829C35.4906 31.7119 37.5472 46.3135 37.5472 46.3135C39.5655 46.3109 41.5305 45.6657 43.1575 44.4713C44.7844 43.277 45.9888 41.5956 46.596 39.6708L53.5884 22.6836C48.6526 22.6836 46.0613 26.0358 44.7451 29.5936H44.7657Z" fill="white"/>
</g>
<path d="M3.96854 97.0078L1.52054 84.5878H3.15854L5.15654 95.5858H5.66054L8.09054 84.6778H9.92654L12.3565 95.5858H12.8605L14.8585 84.5878H16.4965L14.0305 97.0078H11.2585L8.88254 86.0098H9.11654L6.74054 97.0078H3.96854ZM21.4946 97.1878C20.5826 97.1878 19.8626 97.0138 19.3346 96.6658C18.8066 96.3178 18.4226 95.8018 18.1826 95.1178C17.9546 94.4338 17.8406 93.5818 17.8406 92.5618C17.8406 91.4338 17.9966 90.5218 18.3086 89.8258C18.6206 89.1298 19.0586 88.6258 19.6226 88.3138C20.1986 87.9898 20.8826 87.8278 21.6746 87.8278C22.8986 87.8278 23.8166 88.1638 24.4286 88.8358C25.0526 89.4958 25.3646 90.5578 25.3646 92.0218L25.2926 93.1378H19.4066C19.4186 94.0258 19.5866 94.7038 19.9106 95.1718C20.2346 95.6278 20.8226 95.8558 21.6746 95.8558C22.0106 95.8558 22.3826 95.8498 22.7906 95.8378C23.1986 95.8138 23.6006 95.7898 23.9966 95.7658C24.4046 95.7418 24.7466 95.7178 25.0226 95.6938L25.0586 96.8818C24.7706 96.9298 24.4166 96.9778 23.9966 97.0258C23.5766 97.0738 23.1446 97.1098 22.7006 97.1338C22.2686 97.1698 21.8666 97.1878 21.4946 97.1878ZM19.4066 91.9318H23.8166C23.8166 90.8758 23.6486 90.1378 23.3126 89.7178C22.9766 89.2858 22.4306 89.0698 21.6746 89.0698C20.9426 89.0698 20.3786 89.2918 19.9826 89.7358C19.5986 90.1798 19.4066 90.9118 19.4066 91.9318ZM30.4737 97.1878C30.2097 97.1878 29.8857 97.1758 29.5017 97.1518C29.1297 97.1398 28.7517 97.1158 28.3677 97.0798C27.9837 97.0438 27.6477 97.0138 27.3597 96.9898V84.1198H28.8897V88.4218C29.1777 88.2898 29.5617 88.1578 30.0417 88.0258C30.5337 87.8938 31.0017 87.8278 31.4457 87.8278C32.2737 87.8278 32.9277 87.9838 33.4077 88.2958C33.8997 88.5958 34.2477 89.0818 34.4517 89.7538C34.6677 90.4258 34.7757 91.2958 34.7757 92.3638C34.7757 93.5638 34.6437 94.5178 34.3797 95.2258C34.1277 95.9218 33.6897 96.4258 33.0657 96.7378C32.4417 97.0378 31.5777 97.1878 30.4737 97.1878ZM30.4557 95.8198C31.2477 95.8198 31.8357 95.6998 32.2197 95.4598C32.6037 95.2198 32.8617 94.8478 32.9937 94.3438C33.1257 93.8278 33.1917 93.1678 33.1917 92.3638C33.1917 91.6198 33.1317 91.0138 33.0117 90.5458C32.9037 90.0778 32.7057 89.7358 32.4177 89.5198C32.1297 89.2918 31.7397 89.1778 31.2477 89.1778C30.8277 89.1778 30.3957 89.2378 29.9517 89.3578C29.5197 89.4658 29.1657 89.5678 28.8897 89.6638V95.7298C29.1417 95.7538 29.4237 95.7778 29.7357 95.8018C30.0597 95.8138 30.2997 95.8198 30.4557 95.8198ZM37.265 97.0078V89.3218H36.167V88.0078H37.265V87.2518C37.265 86.3878 37.343 85.7158 37.499 85.2358C37.667 84.7558 37.931 84.4198 38.291 84.2278C38.651 84.0358 39.131 83.9398 39.731 83.9398C39.887 83.9398 40.091 83.9458 40.343 83.9578C40.595 83.9698 40.841 83.9878 41.081 84.0118C41.333 84.0358 41.507 84.0598 41.603 84.0838L41.585 85.3438C41.369 85.3318 41.111 85.3258 40.811 85.3258C40.523 85.3138 40.283 85.3078 40.091 85.3078C39.767 85.3078 39.509 85.3618 39.317 85.4698C39.137 85.5778 39.005 85.7758 38.921 86.0638C38.849 86.3518 38.813 86.7478 38.813 87.2518V88.0078H41.351V89.3218H38.813V97.0078H37.265ZM42.9892 97.0078V84.1198H44.5192V97.0078H42.9892ZM50.6455 97.1878C49.6375 97.1878 48.8455 97.0138 48.2695 96.6658C47.7055 96.3178 47.3095 95.7958 47.0815 95.0998C46.8535 94.3918 46.7395 93.4918 46.7395 92.3998C46.7395 91.3678 46.8655 90.5158 47.1175 89.8438C47.3695 89.1598 47.7835 88.6558 48.3595 88.3318C48.9355 87.9958 49.6975 87.8278 50.6455 87.8278C51.6055 87.8278 52.3735 87.9958 52.9495 88.3318C53.5255 88.6558 53.9395 89.1598 54.1915 89.8438C54.4435 90.5158 54.5695 91.3678 54.5695 92.3998C54.5695 93.4918 54.4495 94.3918 54.2095 95.0998C53.9815 95.7958 53.5855 96.3178 53.0215 96.6658C52.4575 97.0138 51.6655 97.1878 50.6455 97.1878ZM50.6455 95.8738C51.3175 95.8738 51.8215 95.7598 52.1575 95.5318C52.4935 95.2918 52.7155 94.9138 52.8235 94.3978C52.9315 93.8818 52.9855 93.2158 52.9855 92.3998C52.9855 91.5958 52.9135 90.9538 52.7695 90.4738C52.6375 89.9938 52.4035 89.6518 52.0675 89.4478C51.7315 89.2438 51.2575 89.1418 50.6455 89.1418C50.0455 89.1418 49.5715 89.2438 49.2235 89.4478C48.8875 89.6518 48.6475 89.9938 48.5035 90.4738C48.3715 90.9538 48.3055 91.5958 48.3055 92.3998C48.3055 93.2158 48.3595 93.8818 48.4675 94.3978C48.5755 94.9138 48.7975 95.2918 49.1335 95.5318C49.4695 95.7598 49.9735 95.8738 50.6455 95.8738ZM58.048 97.0078L55.978 88.0078H57.544L59.218 95.6938H59.524L61.54 88.1878H63.106L65.14 95.6938H65.446L67.12 88.0078H68.668L66.598 97.0078H64.096L62.314 90.2038L60.532 97.0078H58.048Z" fill="#A6D3E1"/>
<defs>
<clipPath id="clip0_4153_5687">
<rect width="65.81" height="65.81" fill="white" transform="translate(2.19531 0.597656)"/>
</clipPath>
</defs>
</svg>
