<svg width="66" height="66" viewBox="0 0 66 66" fill="none" xmlns="http://www.w3.org/2000/svg">
<circle cx="33" cy="33" r="28.875" fill="#8892BF"/>
<path d="M29.7808 20.625H33.2459L32.2666 25.8312H35.3802C37.0876 25.8677 38.3597 26.2493 39.1968 26.976C40.0506 27.7027 40.3016 29.0841 39.9501 31.1192L38.2678 40.196H34.7525L36.3595 31.528C36.5267 30.6193 36.4765 29.9744 36.2088 29.5928C35.9411 29.2111 35.3636 29.0203 34.4763 29.0203L31.6891 28.9931L29.6302 40.196H26.1651L29.7808 20.625Z" fill="white"/>
<path fill-rule="evenodd" clip-rule="evenodd" d="M13.9031 25.8313H20.6325C22.6076 25.8493 24.0388 26.4675 24.9262 27.6848C25.8135 28.9022 26.1063 30.5649 25.805 32.673C25.688 33.6362 25.4284 34.581 25.0266 35.5077C24.6414 36.4345 24.1061 37.2702 23.4196 38.0154C22.5825 38.9602 21.6871 39.5599 20.7329 39.8144C19.7787 40.069 18.7909 40.1961 17.77 40.1961H14.7569L13.8027 45.375H10.3125L13.9031 25.8313ZM15.3344 37.1159L16.8359 28.9659H17.3431C17.5274 28.9659 17.7198 28.9567 17.9206 28.9387C19.26 28.9207 20.3728 29.057 21.2602 29.3475C22.1641 29.6381 22.4654 30.7377 22.1641 32.6457C21.796 34.9173 21.0759 36.2437 20.0047 36.6253C18.9336 36.9889 17.5942 37.1612 15.9872 37.1432H15.6357C15.5353 37.1432 15.4348 37.1339 15.3344 37.1159Z" fill="white"/>
<path fill-rule="evenodd" clip-rule="evenodd" d="M50.4004 25.8313H43.6711L40.0804 45.375H43.5706L44.5248 40.1961H47.5379C48.5589 40.1961 49.5466 40.069 50.5008 39.8144C51.455 39.5599 52.3504 38.9602 53.1875 38.0154C53.874 37.2702 54.4093 36.4345 54.7945 35.5077C55.1963 34.581 55.4559 33.6362 55.5729 32.673C55.8742 30.5649 55.5814 28.9022 54.6941 27.6848C53.8067 26.4675 52.3755 25.8493 50.4004 25.8313ZM46.6038 28.9659L45.1023 37.1159C45.2027 37.1339 45.3032 37.1432 45.4036 37.1432H45.7551C47.3621 37.1612 48.7015 36.9889 49.7726 36.6253C50.8438 36.2437 51.5639 34.9173 51.932 32.6457C52.2333 30.7377 51.932 29.6381 51.0281 29.3475C50.1407 29.057 49.0279 28.9207 47.6886 28.9387C47.4877 28.9567 47.2953 28.9659 47.111 28.9659H46.6038Z" fill="white"/>
</svg>
