<svg width="66" height="66" viewBox="0 0 66 66" fill="none" xmlns="http://www.w3.org/2000/svg">
<g clip-path="url(#clip0_4966_35692)">
<path d="M19.417 40.7708L11.6475 32.9989L36.8751 7.76562H52.4122L19.417 40.7708ZM52.4122 31.0508H36.8751L31.055 36.8726L38.8246 44.6445" fill="#42A5F5" fill-opacity="0.8"/>
<path d="M31.0547 52.4183L36.8747 58.2401H52.4118L38.8243 44.6484" fill="#0D47A1"/>
<path d="M23.3037 44.6445L31.061 36.8828L38.8184 44.6425L31.061 52.4042L23.3037 44.6445Z" fill="#42A5F5"/>
<path d="M31.0605 52.4081L38.8179 44.6484L39.9007 45.7316L32.1434 53.4913L31.0605 52.4081Z" fill="url(#paint0_linear_4966_35692)"/>
<path d="M31.0547 52.4126L42.5826 48.4287L38.8242 44.6406" fill="url(#paint1_linear_4966_35692)"/>
</g>
<defs>
<linearGradient id="paint0_linear_4966_35692" x1="34.9407" y1="48.5269" x2="36.0239" y2="49.6097" gradientUnits="userSpaceOnUse">
<stop offset="0.2" stop-opacity="0.15"/>
<stop offset="0.85" stop-color="#616161" stop-opacity="0.01"/>
</linearGradient>
<linearGradient id="paint1_linear_4966_35692" x1="31.0574" y1="48.5268" x2="42.5852" y2="48.5268" gradientUnits="userSpaceOnUse">
<stop offset="0.2" stop-opacity="0.55"/>
<stop offset="0.85" stop-color="#616161" stop-opacity="0.01"/>
</linearGradient>
<clipPath id="clip0_4966_35692">
<rect width="40.7647" height="50.4706" fill="white" transform="translate(11.6475 7.76562)"/>
</clipPath>
</defs>
</svg>
