<svg width="66" height="66" viewBox="0 0 66 66" fill="none" xmlns="http://www.w3.org/2000/svg">
<path d="M38.5252 32.9503C38.5252 29.9918 36.0516 27.5932 33 27.5932C29.9486 27.5932 27.4748 29.9918 27.4748 32.9503C27.4748 35.9091 29.9486 38.3077 33 38.3077C36.0516 38.3077 38.5252 35.9091 38.5252 32.9503Z" fill="#53C1DE"/>
<path fill-rule="evenodd" clip-rule="evenodd" d="M50.9445 23.0045C52.1114 18.4074 53.578 9.88243 48.4077 6.99221C43.2616 4.11458 36.5649 9.62863 33.0288 12.9384C29.5029 9.66161 22.6181 4.17113 17.4521 7.07053C12.308 9.9578 13.8943 18.3414 15.087 22.9673C10.2884 24.2888 2.0625 27.1351 2.0625 32.9503C2.0625 38.749 10.2798 41.8456 15.05 43.1658C13.8529 47.8174 12.346 56.0813 17.4967 58.962C22.6819 61.8609 29.5454 56.5012 33.1142 53.1552C36.673 56.4844 43.3055 61.8793 48.4526 58.9904C53.616 56.0924 52.2711 47.6817 51.0784 43.0288C55.7025 41.7058 63.9375 38.6767 63.9375 32.9503C63.9375 27.1909 55.6676 24.3216 50.9445 23.0045ZM50.3585 40.5631C49.5753 38.1595 48.5183 35.6035 47.2253 32.963C48.4594 30.385 49.4754 27.8619 50.2366 25.4737C53.699 26.447 61.2944 28.6714 61.2944 32.9503C61.2944 37.2693 54.0058 39.5148 50.3585 40.5631ZM47.128 56.7724C43.2878 58.9277 37.5832 53.7686 34.9549 51.3168C36.6984 49.4679 38.4409 47.3183 40.1414 44.9315C43.1328 44.6742 45.9588 44.2534 48.5216 43.6791C49.3611 46.9701 50.9855 54.6073 47.128 56.7724ZM18.8175 56.7416C14.9767 54.5944 16.7322 47.2202 17.6129 43.7938C20.1472 44.3373 22.9527 44.7283 25.9512 44.9641C27.6629 47.2998 29.4557 49.4466 31.2625 51.3267C29.0302 53.4203 22.6762 58.8988 18.8175 56.7416ZM4.70557 32.9503C4.70557 28.6151 12.2555 26.4069 15.7968 25.436C16.5712 27.8778 17.5868 30.4309 18.8125 33.0127C17.571 35.633 16.5408 38.2267 15.7593 40.6972C12.3826 39.7601 4.70557 37.2882 4.70557 32.9503ZM18.7764 9.28855C22.6329 7.12421 28.6166 12.3953 31.1765 14.7678C29.3791 16.6393 27.6027 18.77 25.9057 21.0921C22.9957 21.3536 20.2099 21.7736 17.649 22.3362C16.6882 18.6052 14.9241 11.4506 18.7764 9.28855ZM42.0322 23.8778C44.0066 24.1194 45.898 24.4406 47.6741 24.8338C47.1409 26.4908 46.4763 28.2235 45.6937 29.9998C44.5591 27.9124 43.3411 25.8671 42.0322 23.8778ZM33.0296 16.5992C34.2487 17.8797 35.4697 19.3098 36.6708 20.8611C34.2345 20.7495 31.7941 20.7489 29.3577 20.8595C30.5598 19.3225 31.7913 17.8946 33.0296 16.5992ZM20.329 29.9979C19.5593 28.2278 18.9007 26.4874 18.3629 24.8068C20.1283 24.4236 22.0109 24.1106 23.9724 23.873C22.6599 25.8579 21.444 27.9025 20.329 29.9979ZM24.0288 42.2106C22.0025 41.9913 20.0913 41.6942 18.3265 41.3217C18.8728 39.6113 19.5459 37.8335 20.3321 36.0254C21.4624 38.1424 22.6968 40.2069 24.0288 42.2106ZM33.1027 49.4825C31.8499 48.1717 30.6004 46.722 29.3799 45.1627C31.8302 45.2561 34.2852 45.2563 36.7351 45.1502C35.5303 46.7379 34.3136 48.1897 33.1027 49.4825ZM45.7189 35.9332C46.5459 37.761 47.2431 39.5292 47.7968 41.2107C46.0026 41.6076 44.0657 41.9273 42.0248 42.1646C43.3435 40.1378 44.5806 38.0606 45.7189 35.9332ZM38.6662 42.4753C34.9184 42.7349 31.147 42.7322 27.3979 42.4965C25.2674 39.4792 23.3711 36.3061 21.7341 33.0119C23.3631 29.7245 25.2457 26.5576 27.3661 23.5451C31.1181 23.2701 34.893 23.2694 38.6449 23.5467C40.7469 26.5591 42.6267 29.7177 44.2936 32.9755C42.6465 36.2613 40.754 39.4346 38.6662 42.4753ZM47.0875 9.21235C50.945 11.3696 49.2279 19.0312 48.3852 22.3628C45.8183 21.7885 43.0306 21.361 40.1121 21.0955C38.4118 18.7482 36.6502 16.6138 34.8818 14.7664C37.4746 12.3428 43.2673 7.07621 47.0875 9.21235Z" fill="#53C1DE"/>
</svg>
