<svg width="66" height="66" viewBox="0 0 66 66" fill="none" xmlns="http://www.w3.org/2000/svg">
<path fill-rule="evenodd" clip-rule="evenodd" d="M44.3351 52.5658C36.4133 52.5658 29.3599 50.7949 22.4049 47.8307C17.1951 45.615 13.2855 43.1983 10.8432 40.9784C10.5437 40.7046 10.317 40.3581 10.317 40.0844C10.317 39.5839 10.6678 39.2588 11.2666 39.2588H22.0071C22.7557 39.2588 23.0765 38.9124 23.1021 38.4889C23.1021 38.1168 22.9054 37.766 22.2552 37.4666C18.4441 35.6487 13.6577 33.031 9.7952 30.6143C5.38522 27.8511 2.344 25.4557 0.449125 23.4625C0.124044 23.1417 0 22.8166 0 22.4445C0 21.9953 0.325081 21.5462 1.02229 21.5462H24.4495C25.1724 21.5462 25.5445 21.2211 25.5445 20.6993C25.5445 20.3272 25.2964 20.0277 24.6249 19.754C23.0294 19.1038 21.434 18.4323 19.3894 17.41C17.2977 16.362 15.7023 15.4167 14.6286 14.5698C14.4319 14.4201 14.2052 14.1463 14.2052 13.8469C14.2052 13.2994 14.5816 13 15.1761 13H44.6858C59.5411 13 65.9701 23.039 65.9701 32.5348C65.9701 41.3291 59.3658 52.5658 44.3351 52.5658ZM60.4137 32.6075C60.4137 24.8911 54.1174 18.6547 46.3326 18.6547C38.5435 18.6547 32.2515 24.8911 32.2515 32.6075C32.2515 40.3239 38.5435 46.5603 46.3326 46.5603C54.1174 46.5603 60.4137 40.3239 60.4137 32.6075ZM56.8977 32.5348C56.8977 33.7539 56.2732 33.9549 54.7291 33.9549C53.0866 33.9549 52.7872 33.6811 52.6118 32.4321C52.2867 29.2712 50.1437 26.5807 46.555 26.2813C45.4087 26.1786 45.1349 25.7552 45.1349 24.3351C45.1349 23.0176 45.336 22.3931 46.354 22.3931C52.5861 22.4188 56.8977 27.4276 56.8977 32.5348Z" fill="#FF642D"/>
</svg>
