<svg width="66" height="66" viewBox="0 0 66 66" fill="none" xmlns="http://www.w3.org/2000/svg">
<g clip-path="url(#clip0_4966_35699)">
<path d="M61.9094 30.6882C61.4939 30.2637 56.162 23.4018 55.2618 22.27C54.2924 21.1381 53.8769 21.3504 53.2537 21.4211C52.6305 21.4918 45.9137 22.6944 45.152 22.7652C44.3903 22.9067 43.9056 23.1896 44.3903 23.897C44.8058 24.5337 49.2375 30.9004 50.2069 32.3859L32.5494 36.7011L18.5618 12.72C18.0079 11.8711 17.8694 11.5881 16.623 11.6588C15.3766 11.7296 5.61298 12.5785 4.92053 12.5785C4.22808 12.6492 3.46638 12.9322 4.15883 14.63C4.85128 16.3277 15.9305 40.6626 16.2075 41.37C16.4845 42.0775 17.3154 43.2093 19.185 42.7849C21.1239 42.2897 27.7715 40.5212 31.4415 39.5308C33.3803 43.0678 37.2581 50.2834 38.0198 51.3445C38.9892 52.7593 39.6816 52.4764 41.1358 52.0519C42.313 51.6982 59.278 45.473 60.0397 45.1193C60.8014 44.7656 61.2861 44.5534 60.7322 43.7752C60.3167 43.2093 55.885 37.0548 53.5307 33.8715C55.1233 33.4471 60.8707 31.8908 61.4939 31.6785C62.1863 31.4663 62.3248 31.1126 61.9094 30.6882ZM29.8488 37.4086C29.6411 37.4793 19.739 39.8845 19.2543 40.026C18.7003 40.1674 18.7003 40.0967 18.7003 39.8845C18.5618 39.6723 6.92864 15.0544 6.72091 14.7714C6.58242 14.4885 6.58242 14.2055 6.72091 14.2055C6.8594 14.2055 16.069 13.3566 16.346 13.3566C16.6922 13.3566 16.623 13.4274 16.7615 13.6396C16.7615 13.6396 29.7103 36.4889 29.9181 36.8426C30.195 37.1963 30.0566 37.3378 29.8488 37.4086ZM57.6854 42.7141C57.8239 42.9971 58.0316 43.1386 57.4777 43.2801C56.9929 43.4923 40.7896 49.0808 40.4433 49.2223C40.0971 49.3638 39.8894 49.4345 39.4739 48.7978C39.0584 48.1612 33.7958 38.8941 33.7958 38.8941L51.0379 34.2959C51.4533 34.1545 51.5918 34.0837 51.8688 34.5082C52.1458 35.0034 57.5469 42.5019 57.6854 42.7141ZM58.7933 30.2637C58.3779 30.3345 52.0765 31.9615 52.0765 31.9615L46.8831 24.7459C46.7447 24.5337 46.6062 24.3215 46.9524 24.2507C47.2986 24.18 53.1845 23.1189 53.4614 23.0481C53.7384 22.9774 53.9462 22.9067 54.2924 23.4018C54.6386 23.8263 59.0703 29.627 59.278 29.8393C59.4858 30.0515 59.2088 30.193 58.7933 30.2637Z" fill="#F34D39"/>
</g>
<defs>
<clipPath id="clip0_4966_35699">
<rect width="58.2353" height="40.7647" fill="white" transform="translate(3.88281 11.6484)"/>
</clipPath>
</defs>
</svg>
