<svg width="66" height="66" viewBox="0 0 66 66" fill="none" xmlns="http://www.w3.org/2000/svg">
<path d="M48.0553 23.3113V16.265C48.9864 15.8298 49.7748 15.1391 50.3287 14.2733C50.8826 13.4074 51.1791 12.4021 51.1839 11.3742V11.2126C51.1839 8.21576 48.7545 5.78635 45.7579 5.78635H45.596C42.5992 5.78635 40.1698 8.21576 40.1698 11.2126V11.3742C40.1745 12.4021 40.4711 13.4074 41.025 14.2733C41.5788 15.1391 42.3673 15.8298 43.2984 16.265V23.3113C40.6222 23.7212 38.1017 24.8309 35.9923 26.5281L16.6674 11.476C16.8052 10.9785 16.8771 10.467 16.8852 9.95357C16.8876 8.74426 16.5312 7.56142 15.8612 6.55466C15.1913 5.5479 14.2378 4.76246 13.1213 4.29768C12.0049 3.8329 10.7757 3.70967 9.58925 3.94357C8.40277 4.17748 7.31232 4.758 6.45583 5.61173C5.59933 6.46545 5.01527 7.55401 4.77752 8.73972C4.53977 9.92543 4.65901 11.155 5.12017 12.2729C5.58132 13.3909 6.36367 14.3469 7.36825 15.0202C8.37283 15.6934 9.55451 16.0536 10.7638 16.0551C11.8217 16.0501 12.8599 15.7677 13.7745 15.236L32.804 30.0438C29.3054 35.3289 29.399 42.2169 33.0397 47.4052L27.2519 53.1947C26.7838 53.0452 26.2967 52.9657 25.8054 52.959C23.0336 52.9614 20.7881 55.2093 20.7888 57.9811C20.7895 60.7527 23.0364 62.9995 25.8081 63.0002C28.5799 63.0009 30.8278 60.7554 30.8302 57.9835C30.8237 57.4924 30.7442 57.005 30.5943 56.5373L36.3199 50.8095C41.4359 54.7479 48.4624 55.0872 53.9342 51.6601C59.4058 48.2327 62.1672 41.7624 60.8561 35.4407C59.5451 29.1187 54.4386 24.2804 48.0553 23.3113ZM45.682 46.4861C44.6242 46.5145 43.5714 46.3308 42.5858 45.9456C41.6002 45.5605 40.7018 44.9818 39.9436 44.2437C39.1853 43.5056 38.5827 42.623 38.1711 41.6481C37.7596 40.6733 37.5476 39.6258 37.5476 38.5676C37.5476 37.5095 37.7596 36.462 38.1711 35.4871C38.5827 34.5123 39.1853 33.6297 39.9436 32.8916C40.7018 32.1535 41.6002 31.5748 42.5858 31.1897C43.5714 30.8045 44.6242 30.6208 45.682 30.6492C49.9447 30.7985 53.3239 34.2963 53.3262 38.5619C53.3282 42.827 49.9526 46.3284 45.6898 46.482" fill="#FF7A59"/>
</svg>
