<svg width="66" height="66" viewBox="0 0 66 66" fill="none" xmlns="http://www.w3.org/2000/svg">
<path fill-rule="evenodd" clip-rule="evenodd" d="M16.724 9.87974L32.999 8.25L49.2739 9.87974L61.8739 25.9009L32.999 57.7498L4.12402 25.9009L16.724 9.87974Z" fill="#FDB300"/>
<path d="M15.8197 25.9023L32.9988 57.7515L4.12402 25.9023H15.8197ZM50.1783 25.9023L32.9992 57.7515L61.874 25.9023" fill="#EA6C00"/>
<path fill-rule="evenodd" clip-rule="evenodd" d="M15.8203 25.9023H50.1786L32.9994 57.7515" fill="#FDAD00"/>
<path d="M32.9994 8.25L16.7245 9.87947L15.8203 25.9007L32.9994 8.25ZM32.9997 8.25L49.2747 9.87947L50.1788 25.9007" fill="#FDD231"/>
<path d="M61.874 25.9041L49.2742 9.88281L50.1783 25.9041H61.874ZM4.12402 25.9041L16.7239 9.88281L15.8197 25.9041" fill="#FDAD00"/>
<path fill-rule="evenodd" clip-rule="evenodd" d="M32.9994 8.25L15.8203 25.9007H50.1786" fill="#FEEEB7"/>
</svg>
