<svg width="66" height="66" viewBox="0 0 66 66" fill="none" xmlns="http://www.w3.org/2000/svg">
<path fill-rule="evenodd" clip-rule="evenodd" d="M33 33.0039C33 28.4476 36.6937 24.7539 41.25 24.7539C45.8063 24.7539 49.5 28.4476 49.5 33.0039C49.5 37.5603 45.8063 41.2539 41.25 41.2539C36.6937 41.2539 33 37.5603 33 33.0039Z" fill="#1ABCFE"/>
<path fill-rule="evenodd" clip-rule="evenodd" d="M16.501 49.5C16.501 44.9437 20.1946 41.25 24.751 41.25H33.001V49.5C33.001 54.0563 29.3073 57.75 24.751 57.75C20.1946 57.75 16.501 54.0563 16.501 49.5Z" fill="#0ACF83"/>
<path fill-rule="evenodd" clip-rule="evenodd" d="M33 8.25V24.75H41.25C45.8063 24.75 49.5 21.0563 49.5 16.5C49.5 11.9437 45.8063 8.25 41.25 8.25H33Z" fill="#FF7262"/>
<path fill-rule="evenodd" clip-rule="evenodd" d="M16.501 16.5C16.501 21.0563 20.1946 24.75 24.751 24.75H33.001V8.25H24.751C20.1946 8.25 16.501 11.9437 16.501 16.5Z" fill="#F24E1E"/>
<path fill-rule="evenodd" clip-rule="evenodd" d="M16.501 33.0039C16.501 37.5603 20.1946 41.2539 24.751 41.2539H33.001V24.7539H24.751C20.1946 24.7539 16.501 28.4476 16.501 33.0039Z" fill="#A259FF"/>
</svg>
