<svg width="66" height="66" viewBox="0 0 66 66" fill="none" xmlns="http://www.w3.org/2000/svg">
<path d="M45.6548 52.1225C38.8472 56.0382 29.4869 56.4405 20.0697 52.4217C12.4449 49.1916 6.11818 43.5373 2.0625 37.077C4.00924 38.6921 6.28038 39.9848 8.71373 41.1147C18.439 45.6535 28.1621 45.3427 35.0047 41.1263C25.2711 33.6958 16.9873 23.9923 10.823 16.0782C9.5246 14.7858 8.55123 13.1704 7.57787 11.7167C15.0403 18.5009 26.8833 27.0614 31.1003 29.4855C22.1791 20.116 14.2294 8.48657 14.5532 8.80901C28.6673 23.0237 41.8084 31.1005 41.8084 31.1005C42.2431 31.3445 42.5786 31.5479 42.8484 31.7294C43.1329 31.009 43.3823 30.261 43.5924 29.4855C45.8635 21.2474 43.2685 11.8779 37.5899 4.125C50.7296 12.0399 58.5174 26.9002 55.2719 39.3386C55.1873 39.6741 55.0954 40.0052 54.9962 40.3306C61.4844 48.4074 59.8142 57.1073 59.0032 55.4922C55.4834 48.634 48.9674 50.7311 45.6548 52.1225Z" fill="url(#paint0_linear_4966_35683)"/>
<defs>
<linearGradient id="paint0_linear_4966_35683" x1="30.9587" y1="4.125" x2="30.9587" y2="55.6902" gradientUnits="userSpaceOnUse">
<stop stop-color="#F88A36"/>
<stop offset="1" stop-color="#FD2020"/>
</linearGradient>
</defs>
</svg>
