<svg width="66" height="66" viewBox="0 0 66 66" fill="none" xmlns="http://www.w3.org/2000/svg">
<path fill-rule="evenodd" clip-rule="evenodd" d="M27.2014 24.0078C27.1708 24.0078 27.1116 24.0078 27.081 24.0078C26.573 23.9459 26.1549 23.4804 26.1549 22.953C26.1243 22.4564 25.8549 10.8519 32.4012 8.21467C34.0454 7.56302 35.5713 7.68706 36.8565 8.64911C38.4395 9.79712 39.5758 12.0931 40.2632 15.4442C40.7406 17.8023 40.8304 19.85 40.8304 19.9432C40.861 20.4396 40.4734 20.8121 39.9634 20.7189C39.4555 20.6568 39.0373 20.1915 39.0373 19.6949C38.9475 17.5851 38.26 11.7829 35.9896 10.1073C35.2715 9.5799 34.3738 9.51778 33.2988 9.95221C27.6787 12.2172 27.948 23.1081 27.948 23.2321C27.948 23.6665 27.6502 24.0078 27.2014 24.0078Z" fill="#595961"/>
<path opacity="0.46" fill-rule="evenodd" clip-rule="evenodd" d="M36.5267 8.7118C35.3312 7.84294 33.9277 7.7189 32.4018 8.30843C29.7416 9.39431 27.8588 12.249 26.9327 16.5929C26.2452 19.7887 26.3349 22.6744 26.3349 22.7985C26.3349 22.9536 26.3941 23.1089 26.5144 23.2329C26.6328 23.3569 26.7531 23.4501 26.902 23.4501C26.9326 23.4501 26.9633 23.4501 26.9918 23.4501C27.2611 23.4501 27.4712 23.2329 27.4712 22.9536C27.4712 22.8295 27.202 11.7524 32.971 9.42538C34.1358 8.96009 35.1517 9.022 35.9901 9.64259C38.4095 11.4112 39.1275 17.3997 39.2173 19.5406C39.2173 19.8508 39.4866 20.1612 39.8151 20.1921C40.115 20.2231 40.3536 20.0059 40.3536 19.6957C40.323 19.3234 39.9946 11.2561 36.5267 8.7118Z" fill="#B2B2C2"/>
<path opacity="0.46" fill-rule="evenodd" clip-rule="evenodd" d="M26.9328 23.0751C26.9022 23.0751 26.9022 23.0751 26.8737 23.0751C26.6942 23.044 26.5431 22.8578 26.5146 22.6717C26.5146 22.5474 26.4249 19.724 27.1124 16.5281C28.0079 12.2773 29.8928 9.4537 32.4917 8.39867C33.9564 7.80914 35.2722 7.93338 36.4085 8.74013C39.7561 11.1912 40.0845 19.1345 40.0845 19.4757C40.0845 19.6619 39.9356 19.7859 39.7561 19.7551C39.5766 19.724 39.4276 19.5689 39.397 19.3517C39.397 19.2585 39.0686 11.4706 36.0494 9.23648C35.1518 8.58503 34.0462 8.49185 32.7916 8.9882C26.9328 11.4395 27.2021 22.6717 27.2021 22.7957C27.2307 22.9508 27.1123 23.0751 26.9328 23.0751Z" fill="#B2B2C2"/>
<path opacity="0.62" fill-rule="evenodd" clip-rule="evenodd" d="M29.3537 14.2045C29.5924 13.7392 29.831 13.2737 30.0412 12.7773C29.9514 12.9324 29.3537 14.5459 27.5299 14.2977C27.4993 14.2977 28.6051 14.6389 29.3537 14.2045Z" fill="#595961"/>
<path opacity="0.62" fill-rule="evenodd" clip-rule="evenodd" d="M28.6946 16.1844C28.8741 15.6878 29.0536 15.1604 29.1739 14.6641C29.1148 14.8502 28.8149 16.5256 26.9014 16.5256C26.9014 16.5256 28.0071 16.7429 28.6946 16.1844Z" fill="#595961"/>
<path opacity="0.62" fill-rule="evenodd" clip-rule="evenodd" d="M39.1857 12.1836C38.947 11.6249 38.6777 11.0975 38.4084 10.5391C38.4982 10.7252 39.3958 12.4938 38.3799 13.7659C38.3799 13.7659 39.1572 13.1455 39.1857 12.1836Z" fill="#595961"/>
<path opacity="0.62" fill-rule="evenodd" clip-rule="evenodd" d="M37.5436 9.39038C37.0643 8.98701 36.5868 8.61469 36.1074 8.27344C36.2869 8.42853 37.872 9.57654 37.7822 11.3143C37.7516 11.3143 38.021 10.2903 37.5436 9.39038Z" fill="#595961"/>
<path opacity="0.62" fill-rule="evenodd" clip-rule="evenodd" d="M30.2198 12.4992C30.5788 12.1269 30.8766 11.7235 31.205 11.2891C31.0867 11.4131 30.0994 12.6853 28.3369 12.2198C28.3369 12.2198 29.3528 12.7785 30.2198 12.4992Z" fill="#595961"/>
<path opacity="0.62" fill-rule="evenodd" clip-rule="evenodd" d="M31.3262 11.0634C31.7444 10.7532 32.132 10.4428 32.5216 10.1016C32.3727 10.1947 31.1467 11.2185 29.4434 10.4739C29.4434 10.4739 30.4286 11.1874 31.3262 11.0634Z" fill="#595961"/>
<path opacity="0.62" fill-rule="evenodd" clip-rule="evenodd" d="M32.9391 10.047C33.4471 9.89193 33.9265 9.70577 34.4039 9.51961C34.2243 9.58153 32.7004 10.14 31.2051 8.96094C31.2357 8.96094 32.013 9.89193 32.9391 10.047Z" fill="#595961"/>
<path opacity="0.62" fill-rule="evenodd" clip-rule="evenodd" d="M34.4041 9.48337C34.8223 9.54549 35.2405 9.57655 35.6587 9.60761C35.5098 9.57655 34.1939 9.48337 33.4473 8.24219C33.4473 8.24219 33.7473 9.07999 34.4041 9.48337Z" fill="#595961"/>
<path opacity="0.62" fill-rule="evenodd" clip-rule="evenodd" d="M36.1385 10.1693C36.4364 10.5108 36.7668 10.852 37.1238 11.1622C37.0054 11.0382 35.9896 10.0142 36.2283 8.74219C36.1977 8.74219 35.8692 9.45576 36.1385 10.1693Z" fill="#595961"/>
<path opacity="0.74" fill-rule="evenodd" clip-rule="evenodd" d="M39.7561 19.3179C39.7561 18.9765 39.4277 11.1264 36.1698 8.7374C35.5415 8.2719 34.854 8.05469 34.136 8.05469C33.5974 8.05469 33.0302 8.17872 32.4325 8.427C29.8316 9.45097 28.0079 12.2125 27.1124 16.4322C26.4249 19.5971 26.5146 22.4207 26.5146 22.5447C26.5146 22.6379 26.6044 22.7309 26.6941 22.7309H26.7226C26.8124 22.7309 26.8737 22.669 26.8737 22.5758C26.8737 22.4517 26.5737 11.1264 32.5815 8.70634C33.8972 8.17872 35.0335 8.2719 35.9903 8.98547C39.0972 11.2506 39.4276 19.1628 39.4276 19.2558C39.4276 19.349 39.5174 19.442 39.6072 19.442C39.6072 19.442 39.6071 19.442 39.6357 19.442C39.6969 19.473 39.7561 19.4109 39.7561 19.3179Z" fill="url(#paint0_linear_4966_35563)"/>
<path fill-rule="evenodd" clip-rule="evenodd" d="M40.2627 15.4382C39.5752 12.0872 38.439 9.82203 36.856 8.64296C35.989 8.02257 35.0608 7.74323 34.0449 7.80535C34.8527 7.86727 35.5994 8.14661 36.2868 8.64296C37.8719 9.79117 39.0082 12.0872 39.6957 15.4382C40.173 17.7963 40.2627 19.8441 40.2627 19.9373C40.2627 20.3096 40.0832 20.5889 39.7833 20.6819C39.8445 20.7129 39.9038 20.7129 39.9344 20.7129C40.4423 20.7751 40.8299 20.4336 40.8013 19.9373C40.8299 19.8441 40.74 17.8274 40.2627 15.4382Z" fill="url(#paint1_linear_4966_35563)"/>
<path fill-rule="evenodd" clip-rule="evenodd" d="M32.7317 9.95161C27.1115 12.2166 27.3807 23.1075 27.3807 23.2315C27.3807 23.6038 27.2012 23.8832 26.9014 23.9761C26.9626 24.0072 26.9912 24.0072 27.0524 24.0072C27.081 24.0072 27.1421 24.0072 27.1707 24.0072C27.6195 24.0072 27.9172 23.6659 27.9172 23.2315C27.9172 23.1075 27.6501 12.2476 33.2682 9.98267C33.6578 9.82757 34.0168 9.73439 34.3452 9.70333C33.8658 9.61035 33.3294 9.70333 32.7317 9.95161Z" fill="url(#paint2_linear_4966_35563)"/>
<path fill-rule="evenodd" clip-rule="evenodd" d="M41.2487 12.6514L15.9021 20.7806C15.9021 20.7806 14.8271 21.091 14.5578 21.4323C14.2885 21.7735 14.2293 22.7354 14.2293 22.7354L10.3125 54.0737L39.7248 59.7829L41.9974 12.6203C41.669 12.5582 41.3385 12.6203 41.2487 12.6514Z" fill="url(#paint3_linear_4966_35563)"/>
<path fill-rule="evenodd" clip-rule="evenodd" d="M50.0093 16.6818C50.0093 16.6818 49.9787 16.4335 49.8298 16.3405C49.7094 16.2474 49.5604 16.2474 49.5604 16.2474L45.405 15.9372L42.3573 12.8033C42.2369 12.7102 42.1166 12.6482 41.9677 12.6172L39.6973 59.7798L55.6273 56.2115L50.0093 16.6818Z" fill="url(#paint4_linear_4966_35563)"/>
<path fill-rule="evenodd" clip-rule="evenodd" d="M30.7882 38.8322C30.3394 38.2116 29.8028 37.6531 29.2643 37.1566C28.7257 36.6602 28.1587 36.2568 27.5895 35.8845C27.2019 35.6362 26.8429 35.388 26.543 35.1397C26.2452 34.8916 26.0065 34.6433 25.8269 34.4261C25.6474 34.1778 25.4985 33.9606 25.4087 33.7125C25.3189 33.4643 25.2883 33.216 25.2883 32.9677C25.2883 32.6265 25.3781 32.2852 25.4985 32.0059C25.6168 31.7267 25.8269 31.4784 26.035 31.2612C26.2757 31.044 26.543 30.8889 26.8734 30.7649C27.2019 30.6406 27.5894 30.5787 28.0076 30.5477C28.4564 30.5166 28.9052 30.5477 29.3234 30.5787C29.7416 30.6096 30.1312 30.7028 30.5188 30.7957C30.8779 30.8889 31.2369 31.013 31.5347 31.1372C31.8346 31.2612 32.1324 31.3853 32.3425 31.5095L34.3153 25.428C34.0174 25.2729 33.6584 25.1176 33.2688 25.0247C32.8506 24.9004 32.4018 24.8074 31.8938 24.7453C31.3859 24.6834 30.8473 24.6523 30.2802 24.6523C29.713 24.6523 29.1154 24.6834 28.4871 24.7764C27.1428 24.9625 25.9453 25.3348 24.8702 25.8933C23.8543 26.4209 22.9567 27.1034 22.2101 27.9413C21.492 28.748 20.9248 29.6788 20.5066 30.7338C20.117 31.7578 19.8784 32.9058 19.8192 34.1468C19.7886 34.8916 19.8478 35.5741 20.0273 36.1947C20.1762 36.8153 20.4169 37.4048 20.7453 37.9633C21.0432 38.5218 21.4328 39.0183 21.851 39.4836C22.2692 39.9491 22.7771 40.3836 23.2851 40.7869C23.7033 41.0971 24.0623 41.4073 24.3622 41.6867C24.66 41.966 24.9008 42.2451 25.0783 42.5555C25.2578 42.8347 25.3781 43.114 25.4679 43.4242C25.5576 43.7035 25.5882 44.0137 25.5576 44.3241C25.5576 44.6343 25.4679 44.9445 25.3476 45.1928C25.2293 45.4411 25.0783 45.6893 24.8396 45.8755C24.6315 46.0617 24.3623 46.1857 24.0624 46.2478C23.7645 46.3097 23.4055 46.3408 23.0159 46.2789C22.5691 46.2168 22.1202 46.0927 21.7021 45.9064C21.2839 45.7513 20.8637 45.534 20.4761 45.3168C20.0885 45.0998 19.7295 44.8515 19.4296 44.6343C19.1012 44.4171 18.8319 44.1688 18.6238 43.9827L17.2773 48.6059C17.4875 48.9161 17.7854 49.1955 18.1138 49.4746C18.4443 49.754 18.8319 50.0331 19.2807 50.3124C19.7295 50.5607 20.2069 50.8088 20.7148 51.026C21.2228 51.2432 21.7919 51.4294 22.359 51.5847H22.3896H22.4181H22.4487H22.4794C23.7033 51.8638 24.8702 51.9259 25.9759 51.7708C27.1121 51.6155 28.1586 51.2122 29.0541 50.5918C29.9803 49.9401 30.7289 49.0712 31.296 47.9232C31.8652 46.7752 32.1936 45.3789 32.2528 43.7965C32.2834 42.8036 32.1631 41.9349 31.8938 41.1282C31.6245 40.1974 31.2369 39.4836 30.7882 38.8322Z" fill="url(#paint5_linear_4966_35563)"/>
<path opacity="0.226763" fill-rule="evenodd" clip-rule="evenodd" d="M17.4712 48.8642C17.4018 48.782 17.3365 48.6979 17.2773 48.6117L18.6238 43.9884C18.6421 44.0056 18.6625 44.0235 18.6829 44.0418C18.8828 44.2204 19.1318 44.4429 19.4296 44.64C19.7295 44.8572 20.0885 45.1055 20.4761 45.3227C20.8637 45.5398 21.2838 45.757 21.702 45.9123C22.1202 46.0984 22.5691 46.2225 23.0159 46.2846C23.4055 46.3465 23.7645 46.3156 24.0624 46.2535C24.3622 46.1914 24.6315 46.0674 24.8396 45.8812C25.0782 45.6951 25.2292 45.4468 25.3476 45.1985C25.4679 44.9502 25.5576 44.64 25.5576 44.3298C25.5882 44.0194 25.5576 43.7092 25.4678 43.4299C25.3781 43.1197 25.2578 42.8404 25.0782 42.5612C24.9089 42.2663 24.6845 41.9995 24.405 41.734C24.5519 41.8998 24.6764 42.0702 24.7804 42.2508C24.9599 42.5302 25.0782 42.8093 25.168 43.1197C25.2578 43.3988 25.2884 43.7092 25.2578 44.0194C25.2578 44.3298 25.168 44.64 25.0497 44.8883C24.9294 45.1366 24.7804 45.3847 24.5417 45.5708C24.3316 45.757 24.0624 45.8812 23.7645 45.9431C23.4647 46.0052 23.1056 46.0363 22.718 45.9742C22.2692 45.9123 21.8204 45.788 21.4022 45.6019C20.984 45.4468 20.5658 45.2296 20.1762 45.0123C19.7886 44.7951 19.4296 44.547 19.1318 44.3298C18.8319 44.1327 18.583 43.9102 18.3831 43.7316C18.3627 43.7133 18.3442 43.6954 18.3238 43.6782L16.9795 48.3013C17.1121 48.4988 17.2815 48.6837 17.4712 48.8642ZM21.8755 39.5176C21.7633 39.4065 21.6552 39.2938 21.5511 39.1791C21.1329 38.7136 20.7453 38.2173 20.4455 37.6588C20.117 37.1001 19.8783 36.5106 19.7294 35.8902C19.5499 35.2696 19.4886 34.5869 19.5192 33.8423C19.5784 32.6011 19.8192 31.4531 20.2068 30.4291C20.625 29.3743 21.1942 28.4435 21.9102 27.6368C22.6589 26.799 23.5543 26.1163 24.5702 25.5888C25.6473 25.0304 26.8428 24.6581 28.1871 24.4719C28.8154 24.3787 29.4132 24.3477 29.9803 24.3477C30.5495 24.3477 31.088 24.3787 31.596 24.4408C32.1039 24.503 32.5527 24.5959 32.9709 24.7202C33.3585 24.8131 33.7175 24.9682 34.0174 25.1233L33.9705 25.2685C33.7542 25.1745 33.5176 25.0898 33.2687 25.0304C32.8505 24.9063 32.4017 24.8132 31.8938 24.751C31.3858 24.6891 30.8472 24.6581 30.2801 24.6581C29.713 24.6581 29.1154 24.6891 28.4871 24.7821C27.1427 24.9683 25.9452 25.3406 24.8702 25.8992C23.8543 26.4267 22.9567 27.1092 22.21 27.947C21.492 28.7537 20.9248 29.6845 20.5066 30.7395C20.117 31.7635 19.8783 32.9115 19.8192 34.1525C19.7886 34.8973 19.8477 35.5798 20.0272 36.2004C20.1762 36.821 20.4169 37.4105 20.7453 37.969C21.0431 38.5275 21.4327 39.024 21.8509 39.4893C21.8591 39.4987 21.8673 39.5082 21.8755 39.5176ZM25.935 34.5589C26.0982 34.7434 26.3023 34.9444 26.543 35.1454C26.8428 35.3937 27.2019 35.6419 27.5895 35.8902C28.1586 36.2625 28.7257 36.6659 29.2643 37.1623C29.4213 37.3068 29.5764 37.4564 29.7314 37.6115C29.4825 37.344 29.2234 37.0908 28.9643 36.8521C28.4278 36.3555 27.8588 35.9521 27.2916 35.5798C26.902 35.3315 26.543 35.0835 26.2451 34.8352C26.1329 34.7426 26.0309 34.6501 25.935 34.5589Z" fill="black"/>
<path opacity="0.41" fill-rule="evenodd" clip-rule="evenodd" d="M46.4207 50.9991L45.4049 15.9373L45.2253 15.7512L45.7048 50.5025C45.7048 50.5025 41.4902 57.1425 40.8619 56.9563C39.9357 56.6772 42.6856 13.1448 42.6856 13.1448L42.3857 12.8346C42.2674 12.7414 42.1165 12.6795 41.9981 12.6484L39.7562 59.1594L39.7256 59.811L40.5028 58.7871L46.4207 50.9991Z" fill="url(#paint6_linear_4966_35563)"/>
<path fill-rule="evenodd" clip-rule="evenodd" d="M34.9711 14.6636C34.6141 16.1218 34.1654 17.487 33.8369 18.3248C33.6268 18.8213 33.8655 19.2866 34.3143 19.3488C34.7937 19.4109 35.3302 19.0694 35.5097 18.5731C35.5403 18.4799 36.3461 16.4632 36.856 14.074V14.043L34.9711 14.6636Z" fill="url(#paint7_linear_4966_35563)"/>
<path fill-rule="evenodd" clip-rule="evenodd" d="M21.4918 19.0106C21.0736 19.9414 20.6554 20.7482 20.3555 21.3067C20.0883 21.7722 20.2372 22.2685 20.686 22.3925C21.1327 22.5478 21.7304 22.2685 21.9997 21.803C22.0303 21.7411 22.8973 20.2208 23.6746 18.2969L21.4918 19.0106Z" fill="url(#paint8_linear_4966_35563)"/>
<path opacity="0.32" fill-rule="evenodd" clip-rule="evenodd" d="M39.7256 59.7811L46.4207 51L55.6884 56.2128L39.7256 59.7811Z" fill="url(#paint9_linear_4966_35563)"/>
<path opacity="0.19" fill-rule="evenodd" clip-rule="evenodd" d="M39.7256 59.7811L46.3616 51L55.6884 56.2128L39.7256 59.7811Z" fill="url(#paint10_linear_4966_35563)"/>
<path opacity="0.19" fill-rule="evenodd" clip-rule="evenodd" d="M39.7256 59.7811L46.3616 51L55.6884 56.2128L39.7256 59.7811Z" fill="url(#paint11_linear_4966_35563)"/>
<path opacity="0.6" fill-rule="evenodd" clip-rule="evenodd" d="M33.21 35.2045C36.678 40.0759 39.0095 45.3506 40.1743 50.4702L41.9982 12.5851C41.6697 12.5232 41.3392 12.5851 41.2495 12.6161L15.9029 20.7766C15.9029 20.7766 15.6641 20.8385 15.3643 20.9628C21.7922 23.2588 28.2182 28.1923 33.21 35.2045Z" fill="url(#paint12_linear_4966_35563)"/>
<path fill-rule="evenodd" clip-rule="evenodd" d="M49.8565 16.3676C50.0075 16.4919 50.0076 16.678 50.0076 16.678L55.5664 56.1765L46.4192 50.9639L45.4033 15.9023L49.4996 16.2125C49.5281 16.2436 49.7076 16.2436 49.8565 16.3676Z" fill="url(#paint13_linear_4966_35563)"/>
<path fill-rule="evenodd" clip-rule="evenodd" d="M49.2013 16.4651C49.2013 16.4651 49.3809 16.4651 49.5298 16.6202C49.6787 16.7444 49.7092 16.9306 49.7092 16.9306L55.1804 55.9948L55.5987 56.2431L50.0377 16.7134C50.0377 16.7134 50.0091 16.5272 49.8888 16.4032C49.7398 16.2789 49.5298 16.2789 49.5298 16.2789L45.4355 15.9688L49.2013 16.4651Z" fill="url(#paint14_linear_4966_35563)"/>
<path fill-rule="evenodd" clip-rule="evenodd" d="M10.3125 54.0714L39.7248 59.7805L41.1609 27.4492L13.9701 28.2221L10.3125 54.0714Z" fill="url(#paint15_linear_4966_35563)"/>
<path opacity="0.3" fill-rule="evenodd" clip-rule="evenodd" d="M19.9677 21.2343C19.7004 21.9884 19.9636 22.7808 20.5592 23.0045C21.1529 23.228 21.8506 22.798 22.1198 22.0441C22.3871 21.2901 22.1219 20.4975 21.5283 20.274C20.9347 20.0503 20.2349 20.4803 19.9677 21.2343Z" fill="white"/>
<path opacity="0.89" fill-rule="evenodd" clip-rule="evenodd" d="M19.9351 20.8712C19.6679 21.6251 19.9331 22.4177 20.5267 22.6412C21.1203 22.8649 21.8201 22.4349 22.0873 21.681C22.3545 20.9268 22.0914 20.1343 21.4957 19.9108C20.9021 19.687 20.2044 20.117 19.9351 20.8712Z" fill="black"/>
<path fill-rule="evenodd" clip-rule="evenodd" d="M45.4355 15.9372L42.3857 12.8033C42.2674 12.7102 42.1165 12.6482 41.9981 12.6172L39.7256 59.7798L46.4514 50.9676L45.4355 15.9372Z" fill="url(#paint16_linear_4966_35563)"/>
<path fill-rule="evenodd" clip-rule="evenodd" d="M41.2482 12.6508L15.9016 20.78C15.9016 20.78 14.8266 21.0904 14.5573 21.4316C14.5267 21.4627 14.5266 21.4938 14.498 21.5248L40.0528 14.2022C40.2629 14.14 40.7709 13.9539 40.7117 15.4742L39.1572 59.7202L39.6959 59.8134L41.9663 12.6508C41.6685 12.5576 41.338 12.6197 41.2482 12.6508Z" fill="url(#paint17_linear_4966_35563)"/>
<path fill-rule="evenodd" clip-rule="evenodd" d="M41.2482 12.6508L15.9016 20.78C15.9016 20.78 14.8266 21.0904 14.5573 21.4316C14.5267 21.4627 14.5266 21.4938 14.498 21.5248L20.416 19.8181L40.7709 13.2714C40.8606 13.2403 41.1891 13.1782 41.5176 13.2403L39.2756 59.7202L39.6959 59.8134L41.9663 12.6508C41.6685 12.5576 41.338 12.6197 41.2482 12.6508Z" fill="url(#paint18_linear_4966_35563)"/>
<path opacity="0.32" fill-rule="evenodd" clip-rule="evenodd" d="M47.7674 51.7405L46.4209 50.9648L39.6973 59.7768L40.0542 59.6836C40.0542 59.6836 45.9742 51.7716 46.5107 51.5233C46.9003 51.3682 47.7674 51.7405 47.7674 51.7405Z" fill="url(#paint19_linear_4966_35563)"/>
<path opacity="0.57" fill-rule="evenodd" clip-rule="evenodd" d="M39.7256 59.7768L46.4514 50.9648C46.4208 50.9959 42.1776 55.8051 39.7256 59.7768Z" fill="url(#paint20_linear_4966_35563)"/>
<path opacity="0.46" fill-rule="evenodd" clip-rule="evenodd" d="M55.6878 56.2128L46.4508 51C46.4202 51 47.4973 51.1862 55.6878 56.2128Z" fill="url(#paint21_linear_4966_35563)"/>
<path opacity="0.3" fill-rule="evenodd" clip-rule="evenodd" d="M33.6327 18.1404C33.3634 18.8946 33.6286 19.6871 34.2222 19.9109C34.8179 20.1346 35.5156 19.7046 35.7828 18.9506C36.0521 18.1965 35.7869 17.4039 35.1933 17.1802C34.5996 16.9567 33.8999 17.3865 33.6327 18.1404Z" fill="white"/>
<path opacity="0.89" fill-rule="evenodd" clip-rule="evenodd" d="M33.6011 17.7772C33.3339 18.5314 33.5992 19.3239 34.1928 19.5476C34.7864 19.7712 35.4861 19.3414 35.7533 18.5872C36.0205 17.8333 35.7574 17.0407 35.1637 16.817C34.5681 16.5933 33.8704 17.0233 33.6011 17.7772Z" fill="black"/>
<path fill-rule="evenodd" clip-rule="evenodd" d="M21.0135 22.3945C20.9829 22.3945 20.9237 22.3945 20.8931 22.3945C20.4157 22.3326 20.0874 21.8671 20.1465 21.3397C20.2057 20.8431 21.909 9.23866 28.9041 6.60139C30.6666 5.94974 32.1619 6.07378 33.2981 7.03583C34.6731 8.18383 35.4197 10.4798 35.5401 13.8309C35.6298 16.189 35.3606 18.2367 35.3606 18.3299C35.3015 18.8263 34.8527 19.1988 34.3733 19.1056C33.8959 19.0435 33.5368 18.5782 33.6266 18.0816C33.8959 15.9718 34.1937 10.1696 32.1925 8.49403C31.5642 7.96662 30.6973 7.90449 29.5325 8.33893C23.5247 10.6039 21.9396 21.4948 21.9396 21.5878C21.8192 22.0533 21.4623 22.3945 21.0135 22.3945Z" fill="#595961"/>
<path opacity="0.46" fill-rule="evenodd" clip-rule="evenodd" d="M32.9385 7.09834C31.892 6.22967 30.5171 6.10563 28.8729 6.69516C26.0332 7.78105 23.6423 10.6355 21.9981 14.9484C20.7741 18.1444 20.3539 21.0299 20.3539 21.1541C20.3254 21.3092 20.3846 21.4643 20.4743 21.5886C20.5641 21.7126 20.6844 21.8058 20.8333 21.8058C20.8618 21.8058 20.8925 21.8058 20.9231 21.8058C21.1923 21.8058 21.431 21.5886 21.4616 21.3092C21.4901 21.1852 23.0752 10.1081 29.2625 7.78105C30.5171 7.31555 31.5329 7.37768 32.251 7.99827C34.3725 9.76687 34.0747 15.7552 33.8055 17.8961C33.7749 18.2065 33.985 18.5167 34.2828 18.5477C34.5827 18.5788 34.8805 18.3616 34.9111 18.0514C34.9417 17.7099 35.9883 9.64283 32.9385 7.09834Z" fill="#B2B2C2"/>
<path opacity="0.81" fill-rule="evenodd" clip-rule="evenodd" d="M20.8938 21.4657C20.8632 21.4657 20.8632 21.4657 20.8346 21.4657C20.6551 21.4346 20.5347 21.2485 20.5653 21.0623C20.5959 20.9381 20.9836 18.1147 22.2096 14.9187C23.8538 10.6679 26.1854 7.84432 28.9639 6.78929C30.5489 6.19976 31.8341 6.32401 32.8194 7.13075C35.7488 9.58186 34.7329 17.5251 34.6738 17.8664C34.6432 18.0525 34.4943 18.1766 34.2842 18.1457C34.1067 18.1146 33.9863 17.9596 33.9863 17.7423C33.9863 17.6492 35.0022 9.8612 32.3727 7.62711C31.5955 7.03757 30.5184 6.97565 29.2047 7.47201C22.8971 9.8612 21.2528 21.0623 21.2528 21.1863C21.2222 21.3414 21.0733 21.4657 20.8938 21.4657Z" fill="#B2B2C2"/>
<path opacity="0.42" fill-rule="evenodd" clip-rule="evenodd" d="M24.8383 12.5873C25.1668 12.122 25.4666 11.6565 25.7644 11.1602C25.6461 11.3153 24.7791 12.9288 22.986 12.6805C22.9554 12.6805 24.002 13.0217 24.8383 12.5873Z" fill="#595961"/>
<path opacity="0.42" fill-rule="evenodd" clip-rule="evenodd" d="M23.8228 14.5711C24.0921 14.0745 24.3613 13.5471 24.5694 13.0508C24.4796 13.2369 23.8819 14.9124 21.999 14.9124C21.999 14.9124 23.0456 15.1296 23.8228 14.5711Z" fill="#595961"/>
<path opacity="0.42" fill-rule="evenodd" clip-rule="evenodd" d="M23.047 16.6254C23.2856 16.0978 23.4652 15.5704 23.6447 15.043C23.555 15.2291 23.2266 16.9356 21.2539 17.1528C21.2539 17.1218 22.3289 17.246 23.047 16.6254Z" fill="#595961"/>
<path opacity="0.62" fill-rule="evenodd" clip-rule="evenodd" d="M35.0018 10.5703C34.8529 10.0117 34.7039 9.48425 34.4938 8.92578C34.5529 9.11194 35.1507 10.8805 33.9268 12.1526C33.9268 12.1526 34.8223 11.5322 35.0018 10.5703Z" fill="#595961"/>
<path opacity="0.62" fill-rule="evenodd" clip-rule="evenodd" d="M33.8377 7.781C33.4195 7.37763 32.9992 7.00532 32.5811 6.66406C32.732 6.81916 34.1356 7.96716 33.748 9.7047C33.7174 9.7047 34.1662 8.68073 33.8377 7.781Z" fill="#595961"/>
<path opacity="0.62" fill-rule="evenodd" clip-rule="evenodd" d="M35.3014 13.4293C35.2708 12.8709 35.1811 12.2813 35.0914 11.7227C35.0914 11.9399 35.3912 13.7706 33.9551 14.7635C33.9551 14.7635 34.9424 14.3291 35.3014 13.4293Z" fill="#595961"/>
<path opacity="0.62" fill-rule="evenodd" clip-rule="evenodd" d="M35.4504 16.3471C35.481 15.7886 35.481 15.1991 35.4504 14.6406C35.4504 14.8578 35.481 16.6886 33.9551 17.5262C33.9551 17.4953 35.0016 17.1849 35.4504 16.3471Z" fill="#595961"/>
<path opacity="0.42" fill-rule="evenodd" clip-rule="evenodd" d="M22.3589 18.8867C22.5384 18.3283 22.6588 17.7698 22.7772 17.2422C22.718 17.4283 22.4487 19.1969 20.625 19.6314C20.6556 19.6314 21.7306 19.6003 22.3589 18.8867Z" fill="#595961"/>
<path opacity="0.42" fill-rule="evenodd" clip-rule="evenodd" d="M25.9764 10.8781C26.3946 10.5058 26.7841 10.1024 27.1431 9.66797C26.9922 9.79201 25.7968 11.0643 24.124 10.5988C24.1526 10.5988 25.0788 11.1574 25.9764 10.8781Z" fill="#595961"/>
<path opacity="0.42" fill-rule="evenodd" clip-rule="evenodd" d="M27.3202 9.45404C27.7996 9.14384 28.2484 8.83344 28.6951 8.49219C28.5177 8.58537 27.1427 9.60913 25.5576 8.8645C25.5576 8.8645 26.394 9.57807 27.3202 9.45404Z" fill="#595961"/>
<path opacity="0.62" fill-rule="evenodd" clip-rule="evenodd" d="M29.1442 8.43374C29.6828 8.27844 30.1908 8.09229 30.6987 7.90613C30.5192 7.96825 28.9056 8.52672 27.5898 7.34766C27.5898 7.34766 28.2181 8.27844 29.1442 8.43374Z" fill="#595961"/>
<path opacity="0.62" fill-rule="evenodd" clip-rule="evenodd" d="M30.6666 7.87008C31.0868 7.9322 31.5051 7.96327 31.9233 7.99433C31.7744 7.96327 30.4891 7.87009 29.9199 6.62891C29.9505 6.62891 30.0995 7.46671 30.6666 7.87008Z" fill="#595961"/>
<path opacity="0.62" fill-rule="evenodd" clip-rule="evenodd" d="M32.2833 8.55624C32.5525 8.8975 32.8198 9.23876 33.0891 9.54915C32.9993 9.42491 32.1629 8.40115 32.5811 7.12891C32.6117 7.12891 32.1629 7.84268 32.2833 8.55624Z" fill="#595961"/>
<path fill-rule="evenodd" clip-rule="evenodd" d="M34.3445 17.7083C34.373 17.3671 35.391 9.51701 32.5514 7.12782C32.0128 6.66253 31.356 6.44531 30.6379 6.44531C30.0994 6.44531 29.5017 6.56935 28.8734 6.81763C26.1235 7.84159 23.8223 10.6031 22.2087 14.8228C20.9827 17.9877 20.5951 20.8113 20.5645 20.9353C20.5645 21.0283 20.6237 21.1215 20.7135 21.1215H20.744C20.8338 21.1215 20.8929 21.0594 20.8929 20.9664C20.9235 20.8422 22.5371 9.51701 28.963 7.09676C30.338 6.56935 31.5048 6.66253 32.3412 7.3761C35.0605 9.64105 34.0447 17.5532 34.0161 17.6464C34.0161 17.7394 34.0753 17.8326 34.165 17.8326C34.165 17.8326 34.165 17.8326 34.1936 17.8326C34.2833 17.8636 34.3445 17.8015 34.3445 17.7083Z" fill="url(#paint22_linear_4966_35563)"/>
<path fill-rule="evenodd" clip-rule="evenodd" d="M35.5416 13.8288C35.4212 10.4778 34.6746 8.21265 33.2997 7.03359C32.553 6.4132 31.6556 6.13386 30.6396 6.19598C31.4169 6.25789 32.1329 6.53723 32.7327 7.03359C34.1076 8.18179 34.8541 10.4778 34.9725 13.8288C35.0622 16.187 34.795 18.2347 34.795 18.3279C34.7338 18.7002 34.4952 18.9795 34.1953 19.0725C34.2565 19.1036 34.285 19.1036 34.3462 19.1036C34.8235 19.1657 35.2724 18.8242 35.3316 18.3279C35.3622 18.2347 35.6314 16.218 35.5416 13.8288Z" fill="url(#paint23_linear_4966_35563)"/>
<path fill-rule="evenodd" clip-rule="evenodd" d="M28.9366 8.34139C22.9289 10.6063 21.3439 21.4973 21.3439 21.6213C21.2847 21.9936 21.0439 22.2729 20.7461 22.3659C20.8053 22.397 20.8358 22.397 20.895 22.397C20.9256 22.397 20.9848 22.397 21.0154 22.397C21.4642 22.397 21.8212 22.0557 21.8824 21.6213C21.9109 21.4973 23.4654 10.6374 29.4731 8.37225C29.8933 8.21715 30.2504 8.12417 30.5809 8.09311C30.1321 8.03099 29.5629 8.12417 28.9366 8.34139Z" fill="url(#paint24_linear_4966_35563)"/>
<defs>
<linearGradient id="paint0_linear_4966_35563" x1="28.0731" y1="8.12472" x2="27.1357" y2="20.8878" gradientUnits="userSpaceOnUse">
<stop stop-color="white" stop-opacity="0.65"/>
<stop offset="1" stop-color="white" stop-opacity="0.01"/>
</linearGradient>
<linearGradient id="paint1_linear_4966_35563" x1="34.9221" y1="15.4289" x2="41.5221" y2="21.2097" gradientUnits="userSpaceOnUse">
<stop stop-opacity="0.01"/>
<stop offset="1" stop-opacity="0.4"/>
</linearGradient>
<linearGradient id="paint2_linear_4966_35563" x1="32.2767" y1="22.1217" x2="39.2626" y2="15.6147" gradientUnits="userSpaceOnUse">
<stop stop-opacity="0.01"/>
<stop offset="1" stop-opacity="0.4"/>
</linearGradient>
<linearGradient id="paint3_linear_4966_35563" x1="23.3847" y1="3.13341" x2="-3.74924" y2="34.3976" gradientUnits="userSpaceOnUse">
<stop stop-color="#B8D26E"/>
<stop offset="1" stop-color="#7FB525"/>
</linearGradient>
<linearGradient id="paint4_linear_4966_35563" x1="60.5028" y1="10.9574" x2="45.6112" y2="11.2339" gradientUnits="userSpaceOnUse">
<stop stop-color="#B4E034"/>
<stop offset="1" stop-color="#60A927"/>
</linearGradient>
<linearGradient id="paint5_linear_4966_35563" x1="16.2084" y1="31.8008" x2="3.99923" y2="61.5325" gradientUnits="userSpaceOnUse">
<stop stop-color="white"/>
<stop offset="1" stop-color="#CECEEB"/>
</linearGradient>
<linearGradient id="paint6_linear_4966_35563" x1="33.7138" y1="105.025" x2="53.0506" y2="104.985" gradientUnits="userSpaceOnUse">
<stop stop-color="#1D1D1B" stop-opacity="0.5"/>
<stop offset="0.038033" stop-color="#1D1D1B" stop-opacity="0.4837"/>
<stop offset="0.4243" stop-color="#1D1D1B" stop-opacity="0.3185"/>
<stop offset="1" stop-color="#1D1D1B" stop-opacity="0.01"/>
</linearGradient>
<linearGradient id="paint7_linear_4966_35563" x1="35.9585" y1="11.9605" x2="32.7505" y2="13.6871" gradientUnits="userSpaceOnUse">
<stop stop-opacity="0.01"/>
<stop offset="1" stop-opacity="0.4"/>
</linearGradient>
<linearGradient id="paint8_linear_4966_35563" x1="22.5097" y1="17.0847" x2="20.2547" y2="19.0227" gradientUnits="userSpaceOnUse">
<stop stop-opacity="0.01"/>
<stop offset="1" stop-opacity="0.4"/>
</linearGradient>
<linearGradient id="paint9_linear_4966_35563" x1="44.5073" y1="56.236" x2="44.7356" y2="59.2455" gradientUnits="userSpaceOnUse">
<stop stop-opacity="0.01"/>
<stop offset="1" stop-opacity="0.4"/>
</linearGradient>
<linearGradient id="paint10_linear_4966_35563" x1="39.1768" y1="51.8301" x2="39.7062" y2="59.6547" gradientUnits="userSpaceOnUse">
<stop stop-color="white" stop-opacity="0.5"/>
<stop offset="0.0896271" stop-color="white" stop-opacity="0.4552"/>
<stop offset="1" stop-color="white" stop-opacity="0.01"/>
</linearGradient>
<linearGradient id="paint11_linear_4966_35563" x1="38.1589" y1="53.0471" x2="39.1004" y2="61.4055" gradientUnits="userSpaceOnUse">
<stop stop-opacity="0.01"/>
<stop offset="1" stop-opacity="0.4"/>
</linearGradient>
<linearGradient id="paint12_linear_4966_35563" x1="34.4645" y1="4.95527" x2="10.317" y2="18.9213" gradientUnits="userSpaceOnUse">
<stop stop-color="white" stop-opacity="0.5"/>
<stop offset="1" stop-color="white" stop-opacity="0.01"/>
</linearGradient>
<linearGradient id="paint13_linear_4966_35563" x1="39.1223" y1="77.9435" x2="60.4358" y2="77.9866" gradientUnits="userSpaceOnUse">
<stop stop-color="#1D1D1B" stop-opacity="0.5"/>
<stop offset="0.0896271" stop-color="#1D1D1B" stop-opacity="0.4552"/>
<stop offset="1" stop-color="#1D1D1B" stop-opacity="0.01"/>
</linearGradient>
<linearGradient id="paint14_linear_4966_35563" x1="54.3869" y1="14.7929" x2="51.3592" y2="15.5348" gradientUnits="userSpaceOnUse">
<stop stop-color="white" stop-opacity="0.4"/>
<stop offset="1" stop-color="white" stop-opacity="0.01"/>
</linearGradient>
<linearGradient id="paint15_linear_4966_35563" x1="27.2218" y1="60.1258" x2="28.7962" y2="52.5356" gradientUnits="userSpaceOnUse">
<stop stop-color="#1D1D1B" stop-opacity="0.5"/>
<stop offset="0.0896271" stop-color="#1D1D1B" stop-opacity="0.4552"/>
<stop offset="1" stop-color="#1D1D1B" stop-opacity="0.01"/>
</linearGradient>
<linearGradient id="paint16_linear_4966_35563" x1="36.325" y1="104.058" x2="55.7312" y2="104.075" gradientUnits="userSpaceOnUse">
<stop stop-color="#1D1D1B" stop-opacity="0.5"/>
<stop offset="1" stop-color="#1D1D1B" stop-opacity="0.01"/>
</linearGradient>
<linearGradient id="paint17_linear_4966_35563" x1="18.5902" y1="9.91647" x2="9.17828" y2="46.077" gradientUnits="userSpaceOnUse">
<stop stop-color="white" stop-opacity="0.5"/>
<stop offset="1" stop-color="white" stop-opacity="0.01"/>
</linearGradient>
<linearGradient id="paint18_linear_4966_35563" x1="18.5902" y1="9.91647" x2="9.17828" y2="46.077" gradientUnits="userSpaceOnUse">
<stop stop-color="white" stop-opacity="0.5"/>
<stop offset="1" stop-color="white" stop-opacity="0.01"/>
</linearGradient>
<linearGradient id="paint19_linear_4966_35563" x1="41.4333" y1="47.817" x2="33.994" y2="58.0562" gradientUnits="userSpaceOnUse">
<stop stop-color="white" stop-opacity="0.5"/>
<stop offset="0.0896271" stop-color="white" stop-opacity="0.4552"/>
<stop offset="1" stop-color="white" stop-opacity="0.01"/>
</linearGradient>
<linearGradient id="paint20_linear_4966_35563" x1="43.677" y1="50.1711" x2="42.9404" y2="51.8222" gradientUnits="userSpaceOnUse">
<stop stop-opacity="0.01"/>
<stop offset="1" stop-opacity="0.4"/>
</linearGradient>
<linearGradient id="paint21_linear_4966_35563" x1="50.9816" y1="52.3585" x2="50.9452" y2="52.8023" gradientUnits="userSpaceOnUse">
<stop stop-opacity="0.01"/>
<stop offset="1" stop-opacity="0.4"/>
</linearGradient>
<linearGradient id="paint22_linear_4966_35563" x1="24.1915" y1="5.40084" x2="20.9755" y2="18.1058" gradientUnits="userSpaceOnUse">
<stop stop-color="white" stop-opacity="0.65"/>
<stop offset="1" stop-color="white" stop-opacity="0.01"/>
</linearGradient>
<linearGradient id="paint23_linear_4966_35563" x1="31.3903" y1="12.7287" x2="36.9848" y2="18.4165" gradientUnits="userSpaceOnUse">
<stop stop-opacity="0.01"/>
<stop offset="1" stop-opacity="0.4"/>
</linearGradient>
<linearGradient id="paint24_linear_4966_35563" x1="27.8147" y1="21.1091" x2="35.5442" y2="13.1708" gradientUnits="userSpaceOnUse">
<stop stop-opacity="0.01"/>
<stop offset="1" stop-opacity="0.4"/>
</linearGradient>
</defs>
</svg>
