<svg width="66" height="66" viewBox="0 0 66 66" fill="none" xmlns="http://www.w3.org/2000/svg">
<path d="M25.706 11.0742C23.0363 13.7439 21.2614 16.9417 20.3519 20.3448C22.0388 19.8901 23.7697 19.6554 25.5006 19.6407L19.6625 25.4788C19.6478 26.7697 19.7505 28.0605 19.9852 29.3367L29.3585 19.9634C30.5613 20.1688 31.7348 20.4915 32.8936 20.9169C33.231 20.3888 33.627 19.9048 34.0818 19.4354C37.5289 15.9882 43.1323 15.9882 46.5941 19.4354C50.0412 22.8825 50.0412 28.4859 46.5941 31.9477C46.1394 32.4024 45.6406 32.7985 45.1126 33.1359C45.538 34.28 45.8607 35.4682 46.066 36.671L36.6928 46.0442C37.9689 46.2789 39.2598 46.3816 40.5506 46.367L46.3887 40.5288C46.3741 42.2597 46.1394 43.9906 45.6846 45.6775C49.0731 44.7681 52.2855 42.9932 54.9552 40.3235C63.0376 32.2411 63.0376 19.1567 54.9552 11.0742C46.8728 3.0065 33.7737 3.0065 25.706 11.0742Z" fill="#0037FF"/>
<path d="M32.3363 29.5134C31.8376 28.4572 31.5589 27.3277 31.4855 26.1836L26.1755 31.4936L22.127 35.5422C22.5963 36.4223 23.1391 37.2731 23.7552 38.0945L29.5053 32.3444L32.3363 29.5134ZM39.8467 34.53C38.7025 34.4714 37.573 34.1927 36.5169 33.6793L33.6858 36.5103L27.9357 42.2604C28.7572 42.8765 29.608 43.4192 30.4881 43.8886L34.5366 39.8401L39.8467 34.53Z" fill="#0037FF"/>
<path d="M31.5007 26.1838C31.398 24.3649 31.8674 22.5166 32.8795 20.9324C31.7207 20.507 30.5472 20.1843 29.3444 19.979L19.9711 29.3522C20.1765 30.555 20.4992 31.7285 20.9246 32.8873C21.262 33.7968 21.658 34.6916 22.1274 35.557L31.5007 26.1838ZM39.8471 34.5302L30.4886 43.9035C31.354 44.3729 32.2488 44.7689 33.1582 45.1063C34.3024 45.5317 35.4906 45.8544 36.6934 46.0598L46.0666 36.6865C45.8466 35.4837 45.5386 34.3102 45.1132 33.1514C43.5143 34.1782 41.666 34.6329 39.8471 34.5302ZM45.6852 45.6784C46.14 43.9915 46.3747 42.2606 46.3893 40.5297L40.5512 46.3678C42.2675 46.3678 43.9984 46.1331 45.6852 45.6784ZM20.3525 20.3457C19.8978 22.0326 19.6631 23.7635 19.6484 25.4944L25.4866 19.6562C23.7557 19.6709 22.0248 19.9056 20.3525 20.3457ZM36.5174 33.6941C35.6372 33.2687 34.8011 32.6967 34.0677 31.9632C33.3343 31.2298 32.7622 30.4084 32.3368 29.5136L23.7557 38.0947C24.3424 38.8721 24.9878 39.6202 25.6919 40.339C26.396 41.0431 27.1441 41.6885 27.9362 42.2753L36.5174 33.6941Z" fill="#080738"/>
<path d="M20.3521 20.3438C16.9637 21.2532 13.7513 23.0281 11.0816 25.6978C7.09171 29.6877 5.08211 34.8804 5.02344 40.1024L19.6481 25.4778C19.6627 23.7615 19.8974 22.0306 20.3521 20.3438ZM25.9116 61.0052C31.1336 60.9465 36.341 58.9369 40.3308 54.947C43.0005 52.2773 44.7754 49.0796 45.6849 45.6765C43.998 46.1312 42.2671 46.3659 40.5362 46.3806L25.9116 61.0052ZM19.4427 34.0736C19.8974 33.6189 20.3962 33.2228 20.9242 32.8854C20.4988 31.7266 20.1761 30.5531 19.9708 29.3503L5.34615 43.9749C5.72753 46.1165 6.44629 48.2141 7.50243 50.1651L16.861 40.8065C16.7437 38.3862 17.5944 35.9218 19.4427 34.0736ZM33.1432 45.1044C32.8058 45.6325 32.4098 46.1312 31.955 46.5859C31.0779 47.4662 30.0247 48.1512 28.8644 48.5961C27.7041 49.041 26.4629 49.2358 25.2221 49.1676L15.8636 58.5262C17.8145 59.5823 19.9121 60.3011 22.0537 60.6825L36.6783 46.0579C35.4902 45.8525 34.302 45.5298 33.1432 45.1044ZM19.4427 46.5859C18.7093 45.8525 18.1372 45.031 17.7118 44.1363L9.13065 52.7174C9.7174 53.4948 10.3628 54.2429 11.0669 54.9617C11.771 55.6658 12.5191 56.3112 13.3112 56.898L21.8924 48.3168C21.0122 47.8914 20.1761 47.3047 19.4427 46.5859Z" fill="#0037FF"/>
</svg>
