<svg width="24" height="24" viewBox="0 0 24 24" fill="none" xmlns="http://www.w3.org/2000/svg">
<path d="M8.5 17.375H15.5V16.625H8.5V17.375ZM8.5 13.275H15.5V12.5H8.5V13.275ZM6.375 21C5.99167 21 5.66667 20.8667 5.4 20.6C5.13333 20.3333 5 20.0083 5 19.625V4.375C5 3.99167 5.13333 3.66667 5.4 3.4C5.66667 3.13333 5.99167 3 6.375 3H14.725L19 7.275V19.625C19 20.0083 18.8667 20.3333 18.6 20.6C18.3333 20.8667 18.0083 21 17.625 21H6.375ZM14.35 7.6H18.225L14.35 3.775V7.6Z" fill="#1AE3E3"/>
<g clip-path="url(#clip0_4227_18156)">
<path d="M8.5 17.375H15.5V16.625H8.5V17.375ZM8.5 13.275H15.5V12.5H8.5V13.275ZM6.375 21C5.99167 21 5.66667 20.8667 5.4 20.6C5.13333 20.3333 5 20.0083 5 19.625V4.375C5 3.99167 5.13333 3.66667 5.4 3.4C5.66667 3.13333 5.99167 3 6.375 3H14.725L19 7.275V19.625C19 20.0083 18.8667 20.3333 18.6 20.6C18.3333 20.8667 18.0083 21 17.625 21H6.375ZM14.35 7.6H18.225L14.35 3.775V7.6Z" fill="#C7FF50"/>
</g>
<defs>
<clipPath id="clip0_4227_18156">
<rect width="14" height="11" fill="white" transform="translate(5 10)"/>
</clipPath>
</defs>
</svg>
