<svg width="461" height="457" viewBox="0 0 461 457" fill="none" xmlns="http://www.w3.org/2000/svg">
<g clip-path="url(#clip0_4224_9490)">
<path d="M228.192 456.365C354.215 456.365 456.376 354.203 456.376 228.18C456.376 102.158 354.215 -0.00390625 228.192 -0.00390625C102.169 -0.00390625 0.0078125 102.158 0.0078125 228.18C0.0078125 354.203 102.169 456.365 228.192 456.365Z" fill="#00516A"/>
<path d="M388.187 78.2305H59.6016V310.327H388.187V78.2305Z" fill="#0D6A87"/>
<path d="M74.2136 93.4662C76.8039 93.4662 78.9037 91.3664 78.9037 88.7761C78.9037 86.1858 76.8039 84.0859 74.2136 84.0859C71.6233 84.0859 69.5234 86.1858 69.5234 88.7761C69.5234 91.3664 71.6233 93.4662 74.2136 93.4662Z" fill="#E8F1F3"/>
<path d="M89.362 93.4662C91.9523 93.4662 94.0522 91.3664 94.0522 88.7761C94.0522 86.1858 91.9523 84.0859 89.362 84.0859C86.7717 84.0859 84.6719 86.1858 84.6719 88.7761C84.6719 91.3664 86.7717 93.4662 89.362 93.4662Z" fill="#E8F1F3"/>
<path d="M104.53 93.4662C107.12 93.4662 109.22 91.3664 109.22 88.7761C109.22 86.1858 107.12 84.0859 104.53 84.0859C101.94 84.0859 99.8398 86.1858 99.8398 88.7761C99.8398 91.3664 101.94 93.4662 104.53 93.4662Z" fill="#E8F1F3"/>
<path d="M307.648 390.938C331.572 396.849 354.396 387.738 358.629 370.6C362.863 353.456 346.901 334.772 322.978 328.861C299.054 322.95 282.058 333.502 277.825 350.64C273.591 367.784 283.719 385.027 307.643 390.938H307.648Z" fill="white"/>
<path d="M400.98 426.793C400.98 426.793 380.306 416.236 367.423 410.209C361.595 407.482 356.982 405.767 354.32 405.585C352.654 405.47 349.718 405.288 346.106 404.018C332.728 399.322 325.289 383.932 315.029 371.149C310.817 365.903 291.286 365.007 291.798 358.645C292.062 355.352 297.577 353.647 309.272 354.593C300.474 352.85 288.642 349.974 289.615 345.114C291.039 339.56 305.34 341.314 313.934 342.793C303.526 341.001 298.533 336.932 299.749 334.359C301.667 330.306 310.058 329.817 323.722 332.72C314.847 328.079 313.39 325.633 315.018 323.62C317.998 319.947 330.441 322.07 339.975 325.88C350.713 330.174 366.12 343.349 371.629 346.186C376.908 348.896 460.797 387.028 460.797 387.028L400.969 426.798L400.98 426.793Z" fill="#FABCC6"/>
<path d="M335.024 385.047C316.626 385.201 310.023 389.16 310.138 392.074C310.336 396.978 324.846 402.169 351.767 405.331C347.285 398.925 339.5 391.453 335.024 385.047Z" fill="#FABCC6"/>
<path d="M334.018 394.481C333.898 394.481 333.771 394.442 333.667 394.354C330.697 391.902 327.343 388.96 325.029 385.744C324.853 385.496 324.908 385.155 325.155 384.974C325.402 384.798 325.743 384.853 325.925 385.1C328.168 388.218 331.451 391.099 334.37 393.502C334.607 393.694 334.64 394.041 334.442 394.277C334.332 394.409 334.178 394.475 334.018 394.475V394.481Z" fill="#003C4F"/>
<path d="M326.498 364.493C326.366 364.493 326.24 364.449 326.136 364.356C325.943 364.185 325.707 363.971 325.437 363.723C323.793 362.222 320.736 359.429 318.086 358.302C314.974 356.977 311.697 355.811 308.865 355.014C308.574 354.931 308.403 354.629 308.486 354.338C308.568 354.046 308.871 353.876 309.162 353.958C312.043 354.767 315.364 355.949 318.515 357.29C321.341 358.489 324.486 361.365 326.18 362.91C326.443 363.152 326.674 363.361 326.867 363.531C327.092 363.734 327.114 364.081 326.911 364.306C326.801 364.427 326.652 364.493 326.498 364.493Z" fill="#003C4F"/>
<path d="M334.838 352.321C334.723 352.321 334.613 352.288 334.514 352.217C332.139 350.474 329.538 348.94 326.778 347.642C322.769 345.761 318.398 344.376 313.785 343.518C313.488 343.463 313.29 343.177 313.345 342.875C313.4 342.578 313.686 342.38 313.988 342.435C318.695 343.304 323.16 344.722 327.251 346.641C330.077 347.966 332.738 349.544 335.174 351.326C335.421 351.507 335.471 351.848 335.289 352.096C335.179 352.244 335.014 352.321 334.844 352.321H334.838Z" fill="#003C4F"/>
<path d="M342.012 340.745C341.902 340.745 341.797 340.712 341.698 340.646C339.505 339.134 337.157 337.82 334.726 336.742C331.196 335.175 327.447 334.087 323.581 333.498C323.279 333.454 323.075 333.174 323.119 332.871C323.163 332.569 323.444 332.36 323.746 332.41C327.705 333.009 331.548 334.131 335.172 335.736C337.668 336.841 340.071 338.188 342.325 339.739C342.578 339.909 342.639 340.256 342.468 340.503C342.364 340.657 342.188 340.74 342.017 340.74L342.012 340.745Z" fill="#003C4F"/>
<path d="M225.712 200.719H76.1328V288.93H225.712V200.719Z" fill="#1790B5"/>
<path opacity="0.2" d="M150.919 259.884C162.759 259.884 172.357 250.286 172.357 238.446C172.357 226.606 162.759 217.008 150.919 217.008C139.079 217.008 129.48 226.606 129.48 238.446C129.48 250.286 139.079 259.884 150.919 259.884Z" fill="white"/>
<path d="M163.557 238.454L143.367 226.797V250.11L163.557 238.454Z" fill="#C7FF50"/>
<path d="M216.052 275.145H83.2539V280.896H216.052V275.145Z" fill="#127E9E"/>
<path d="M346.435 285.113H278.365C268.671 285.113 260.809 277.256 260.809 267.556C260.809 257.863 268.666 250 278.365 250H346.435C356.129 250 363.992 257.857 363.992 267.556C363.992 277.25 356.135 285.113 346.435 285.113Z" fill="#1790B5"/>
<path d="M334.094 320.733L330.652 262.664L373.562 301.939L349.446 302.132L334.094 320.733ZM331.912 265.309L335.024 317.879L348.918 301.038L370.752 300.867L331.906 265.309H331.912Z" fill="#AECBD3"/>
<path d="M365 110H75V142H365V110Z" fill="#1790B5"/>
<path opacity="0.5" d="M161 155H75V187H161V155Z" fill="#1790B5"/>
<path opacity="0.5" d="M263 155H177V187H263V155Z" fill="#1790B5"/>
<path opacity="0.5" d="M365 155H279V187H365V155Z" fill="#1790B5"/>
<path d="M-52 227.645C-52 227.645 1.7826 203.587 28.092 193.56C63.9272 179.903 123.595 160.432 126.527 170.606C127.785 174.963 114.885 180.646 95.3622 188.976C96.7716 189.539 100.523 191.957 100.909 196.205C101.479 202.486 96.6162 204.691 96.2611 205.061C96.7579 205.214 102.017 207.013 103.113 211.154C104.342 215.818 102.436 219.542 99.4575 221.877C100.667 222.294 104.98 224.294 105.915 228.3C106.873 232.425 104.884 237.424 100.732 238.941C93.1156 241.715 70.3256 249.525 59.6954 254.676C49.0228 259.835 11.4792 281.21 11.4792 281.21L-51.9923 227.644L-52 227.645Z" fill="#F7AFBC"/>
<path d="M81.8571 187.335C81.7791 187.427 81.6717 187.495 81.549 187.521C81.2536 187.581 80.9606 187.391 80.9005 187.096L79.612 180.806C79.5519 180.51 79.7417 180.217 80.0371 180.157C80.3325 180.097 80.6255 180.287 80.6856 180.582L81.9741 186.872C82.0082 187.045 81.96 187.213 81.8536 187.339L81.8571 187.335Z" fill="#003C4F"/>
<path d="M85.1579 203.288C85.0799 203.38 84.9724 203.448 84.8498 203.474C84.5544 203.534 84.2613 203.344 84.2013 203.049L82.9128 196.759C82.8527 196.463 83.0425 196.17 83.3379 196.11C83.6333 196.05 83.9263 196.24 83.9864 196.535L85.2749 202.825C85.309 202.998 85.2608 203.166 85.1544 203.292L85.1579 203.288Z" fill="#003C4F"/>
<path d="M88.6892 219.495C88.6111 219.587 88.5037 219.655 88.381 219.681C88.0857 219.741 87.7926 219.551 87.7325 219.256L86.444 212.966C86.3839 212.67 86.5738 212.377 86.8691 212.317C87.1645 212.257 87.4576 212.447 87.5176 212.742L88.8061 219.033C88.8402 219.205 88.792 219.373 88.6856 219.499L88.6892 219.495Z" fill="#003C4F"/>
<path d="M91.5876 234.276C91.5096 234.369 91.4057 234.432 91.2795 234.462C90.9841 234.522 90.691 234.333 90.6309 234.037L89.3424 227.747C89.2824 227.452 89.4722 227.159 89.7676 227.099C90.0629 227.038 90.356 227.228 90.4161 227.524L91.7046 233.814C91.7387 233.986 91.6904 234.154 91.584 234.28L91.5876 234.276Z" fill="#003C4F"/>
<rect x="98" y="305" width="132" height="36" fill="#C7FF50"/>
<rect x="215" y="60" width="128" height="36" fill="#1AE3E3"/>
<path d="M120.76 329.18C119.848 329.18 119.068 329.048 118.42 328.784C117.772 328.52 117.274 328.1 116.926 327.524C116.59 326.936 116.422 326.162 116.422 325.202V316.562H117.862V325.238C117.862 326.186 118.114 326.87 118.618 327.29C119.134 327.698 119.848 327.902 120.76 327.902C121.72 327.902 122.458 327.698 122.974 327.29C123.49 326.87 123.748 326.186 123.748 325.238V316.562H125.188V325.202C125.188 326.15 125.014 326.918 124.666 327.506C124.33 328.094 123.832 328.52 123.172 328.784C122.512 329.048 121.708 329.18 120.76 329.18ZM127.898 329V320H129.284V329H127.898ZM127.898 318.02V316.4H129.284V318.02H127.898ZM140.289 329.18C139.377 329.18 138.597 329.048 137.949 328.784C137.301 328.52 136.803 328.1 136.455 327.524C136.119 326.936 135.951 326.162 135.951 325.202V316.562H137.391V325.238C137.391 326.186 137.643 326.87 138.147 327.29C138.663 327.698 139.377 327.902 140.289 327.902C141.249 327.902 141.987 327.698 142.503 327.29C143.019 326.87 143.277 326.186 143.277 325.238V316.562H144.717V325.202C144.717 326.15 144.543 326.918 144.195 327.506C143.859 328.094 143.361 328.52 142.701 328.784C142.041 329.048 141.237 329.18 140.289 329.18ZM146.527 329L149.317 324.5L146.527 320H148.057L150.199 323.492L152.359 320H153.889L151.063 324.464L153.889 329H152.359L150.199 325.526L148.057 329H146.527ZM159.754 329V316.562H164.2C165.112 316.562 165.868 316.712 166.468 317.012C167.068 317.3 167.542 317.714 167.89 318.254C168.238 318.782 168.484 319.418 168.628 320.162C168.772 320.894 168.844 321.704 168.844 322.592C168.844 323.492 168.772 324.332 168.628 325.112C168.496 325.88 168.256 326.558 167.908 327.146C167.56 327.734 167.086 328.19 166.486 328.514C165.886 328.838 165.124 329 164.2 329H159.754ZM161.194 327.722H164.2C164.848 327.722 165.376 327.584 165.784 327.308C166.192 327.032 166.51 326.654 166.738 326.174C166.966 325.694 167.122 325.148 167.206 324.536C167.302 323.924 167.35 323.276 167.35 322.592C167.35 321.92 167.302 321.296 167.206 320.72C167.122 320.144 166.966 319.64 166.738 319.208C166.51 318.776 166.192 318.44 165.784 318.2C165.376 317.96 164.848 317.84 164.2 317.84H161.194V327.722ZM174.308 329.18C173.408 329.18 172.694 329.006 172.166 328.658C171.65 328.31 171.278 327.794 171.05 327.11C170.822 326.426 170.708 325.574 170.708 324.554C170.708 323.414 170.864 322.502 171.176 321.818C171.488 321.122 171.926 320.618 172.49 320.306C173.054 319.982 173.72 319.82 174.488 319.82C175.688 319.82 176.594 320.156 177.206 320.828C177.818 321.488 178.124 322.556 178.124 324.032L178.052 325.094H172.13C172.142 326.03 172.316 326.738 172.652 327.218C172.988 327.698 173.594 327.938 174.47 327.938C174.806 327.938 175.172 327.932 175.568 327.92C175.976 327.896 176.378 327.872 176.774 327.848C177.17 327.824 177.506 327.8 177.782 327.776L177.818 328.874C177.53 328.922 177.176 328.97 176.756 329.018C176.348 329.066 175.928 329.102 175.496 329.126C175.064 329.162 174.668 329.18 174.308 329.18ZM172.13 323.96H176.72C176.72 322.856 176.54 322.088 176.18 321.656C175.832 321.212 175.268 320.99 174.488 320.99C173.732 320.99 173.15 321.218 172.742 321.674C172.334 322.13 172.13 322.892 172.13 323.96ZM183.018 329.18C182.742 329.18 182.406 329.162 182.01 329.126C181.626 329.09 181.242 329.048 180.858 329C180.474 328.94 180.132 328.886 179.832 328.838L179.904 327.632C180.204 327.668 180.54 327.71 180.912 327.758C181.296 327.806 181.668 327.848 182.028 327.884C182.388 327.908 182.676 327.92 182.892 327.92C183.384 327.92 183.792 327.878 184.116 327.794C184.44 327.698 184.686 327.542 184.854 327.326C185.022 327.11 185.106 326.804 185.106 326.408C185.106 326.108 185.04 325.874 184.908 325.706C184.788 325.538 184.554 325.4 184.206 325.292C183.87 325.184 183.378 325.082 182.73 324.986C182.058 324.878 181.494 324.746 181.038 324.59C180.594 324.422 180.264 324.176 180.048 323.852C179.832 323.528 179.724 323.066 179.724 322.466C179.724 321.794 179.88 321.266 180.192 320.882C180.504 320.498 180.906 320.228 181.398 320.072C181.902 319.904 182.424 319.82 182.964 319.82C183.3 319.82 183.666 319.838 184.062 319.874C184.47 319.91 184.866 319.958 185.25 320.018C185.634 320.066 185.964 320.114 186.24 320.162L186.204 321.368C185.916 321.32 185.58 321.278 185.196 321.242C184.812 321.194 184.428 321.158 184.044 321.134C183.66 321.098 183.324 321.08 183.036 321.08C182.676 321.08 182.352 321.122 182.064 321.206C181.776 321.278 181.548 321.41 181.38 321.602C181.212 321.794 181.128 322.064 181.128 322.412C181.128 322.676 181.188 322.892 181.308 323.06C181.428 323.216 181.656 323.348 181.992 323.456C182.328 323.564 182.814 323.672 183.45 323.78C184.194 323.9 184.788 324.05 185.232 324.23C185.688 324.41 186.018 324.662 186.222 324.986C186.426 325.31 186.528 325.766 186.528 326.354C186.528 327.41 186.216 328.148 185.592 328.568C184.968 328.976 184.11 329.18 183.018 329.18ZM188.595 329V320H189.981V329H188.595ZM188.595 318.02V316.4H189.981V318.02H188.595ZM196.041 333.23C195.105 333.23 194.349 333.146 193.773 332.978C193.209 332.822 192.795 332.546 192.531 332.15C192.279 331.754 192.153 331.214 192.153 330.53C192.153 330.182 192.207 329.882 192.315 329.63C192.423 329.39 192.579 329.168 192.783 328.964C192.999 328.748 193.263 328.526 193.575 328.298C193.419 328.178 193.293 328.01 193.197 327.794C193.113 327.566 193.071 327.314 193.071 327.038C193.071 326.906 193.137 326.696 193.269 326.408C193.413 326.108 193.551 325.844 193.683 325.616C193.431 325.496 193.197 325.334 192.981 325.13C192.777 324.914 192.609 324.626 192.477 324.266C192.345 323.906 192.279 323.45 192.279 322.898C192.279 321.794 192.591 321.008 193.215 320.54C193.839 320.06 194.649 319.82 195.645 319.82C195.969 319.82 196.311 319.844 196.671 319.892C197.031 319.94 197.313 319.994 197.517 320.054L200.199 319.982V321.17L198.507 321.134C198.675 321.302 198.813 321.524 198.921 321.8C199.041 322.076 199.101 322.442 199.101 322.898C199.101 323.678 198.969 324.29 198.705 324.734C198.441 325.178 198.051 325.49 197.535 325.67C197.019 325.85 196.371 325.94 195.591 325.94C195.507 325.94 195.363 325.934 195.159 325.922C194.967 325.898 194.823 325.88 194.727 325.868C194.655 326.036 194.583 326.228 194.511 326.444C194.439 326.66 194.403 326.81 194.403 326.894C194.403 327.122 194.445 327.296 194.529 327.416C194.613 327.536 194.805 327.614 195.105 327.65C195.417 327.686 195.903 327.704 196.563 327.704C197.427 327.704 198.117 327.776 198.633 327.92C199.149 328.064 199.515 328.328 199.731 328.712C199.959 329.084 200.073 329.63 200.073 330.35C200.073 331.37 199.719 332.102 199.011 332.546C198.303 333.002 197.313 333.23 196.041 333.23ZM196.059 332.042C196.947 332.042 197.601 331.916 198.021 331.664C198.441 331.412 198.651 330.998 198.651 330.422C198.651 329.978 198.579 329.648 198.435 329.432C198.303 329.228 198.075 329.09 197.751 329.018C197.427 328.958 196.995 328.928 196.455 328.928C196.347 328.928 196.197 328.928 196.005 328.928C195.813 328.916 195.615 328.91 195.411 328.91C195.207 328.898 195.021 328.886 194.853 328.874C194.697 328.862 194.589 328.856 194.529 328.856C194.157 329.12 193.899 329.354 193.755 329.558C193.611 329.774 193.539 330.056 193.539 330.404C193.539 330.8 193.611 331.118 193.755 331.358C193.899 331.598 194.151 331.772 194.511 331.88C194.883 331.988 195.399 332.042 196.059 332.042ZM195.645 324.824C196.389 324.824 196.917 324.68 197.229 324.392C197.541 324.092 197.697 323.594 197.697 322.898C197.697 322.202 197.541 321.704 197.229 321.404C196.917 321.104 196.389 320.954 195.645 320.954C194.949 320.954 194.445 321.104 194.133 321.404C193.833 321.704 193.683 322.202 193.683 322.898C193.683 323.594 193.833 324.092 194.133 324.392C194.445 324.68 194.949 324.824 195.645 324.824ZM201.831 329V320H203.217V320.63C203.421 320.51 203.673 320.39 203.973 320.27C204.285 320.15 204.615 320.048 204.963 319.964C205.311 319.868 205.647 319.82 205.971 319.82C206.799 319.82 207.429 319.97 207.861 320.27C208.305 320.558 208.611 321.026 208.779 321.674C208.947 322.322 209.031 323.174 209.031 324.23V329H207.627V324.284C207.627 323.504 207.579 322.88 207.483 322.412C207.399 321.944 207.219 321.608 206.943 321.404C206.679 321.188 206.271 321.08 205.719 321.08C205.419 321.08 205.107 321.116 204.783 321.188C204.471 321.248 204.177 321.332 203.901 321.44C203.625 321.536 203.397 321.632 203.217 321.728V329H201.831Z" fill="black"/>
<path d="M233.042 84L230.54 71.562H232.034L234.122 82.74H234.626L237.146 71.652H238.838L241.358 82.74H241.862L243.95 71.562H245.444L242.924 84H240.332L237.866 72.804H238.118L235.652 84H233.042ZM247.275 84V75H248.661V84H247.275ZM247.275 73.02V71.4H248.661V73.02H247.275ZM251.247 84V75H252.633V76.206C252.861 76.05 253.149 75.882 253.497 75.702C253.845 75.51 254.229 75.33 254.649 75.162C255.069 74.994 255.489 74.874 255.909 74.802V76.224C255.501 76.308 255.087 76.422 254.667 76.566C254.247 76.698 253.857 76.842 253.497 76.998C253.149 77.154 252.861 77.292 252.633 77.412V84H251.247ZM260.673 84.18C259.773 84.18 259.059 84.006 258.531 83.658C258.015 83.31 257.643 82.794 257.415 82.11C257.187 81.426 257.073 80.574 257.073 79.554C257.073 78.414 257.229 77.502 257.541 76.818C257.853 76.122 258.291 75.618 258.855 75.306C259.419 74.982 260.085 74.82 260.853 74.82C262.053 74.82 262.959 75.156 263.571 75.828C264.183 76.488 264.489 77.556 264.489 79.032L264.417 80.094H258.495C258.507 81.03 258.681 81.738 259.017 82.218C259.353 82.698 259.959 82.938 260.835 82.938C261.171 82.938 261.537 82.932 261.933 82.92C262.341 82.896 262.743 82.872 263.139 82.848C263.535 82.824 263.871 82.8 264.147 82.776L264.183 83.874C263.895 83.922 263.541 83.97 263.121 84.018C262.713 84.066 262.293 84.102 261.861 84.126C261.429 84.162 261.033 84.18 260.673 84.18ZM258.495 78.96H263.085C263.085 77.856 262.905 77.088 262.545 76.656C262.197 76.212 261.633 75.99 260.853 75.99C260.097 75.99 259.515 76.218 259.107 76.674C258.699 77.13 258.495 77.892 258.495 78.96ZM266.953 84V76.206H265.819V75H266.953V74.208C266.953 73.344 267.031 72.672 267.187 72.192C267.343 71.712 267.601 71.382 267.961 71.202C268.321 71.01 268.795 70.914 269.383 70.914C269.527 70.914 269.725 70.92 269.977 70.932C270.229 70.944 270.475 70.962 270.715 70.986C270.955 70.998 271.123 71.016 271.219 71.04L271.201 72.21C270.985 72.198 270.721 72.192 270.409 72.192C270.109 72.18 269.863 72.174 269.671 72.174C269.335 72.174 269.071 72.234 268.879 72.354C268.687 72.462 268.549 72.666 268.465 72.966C268.393 73.266 268.357 73.686 268.357 74.226V75H270.949V76.206H268.357V84H266.953ZM272.552 84V75H273.938V76.206C274.166 76.05 274.454 75.882 274.802 75.702C275.15 75.51 275.534 75.33 275.954 75.162C276.374 74.994 276.794 74.874 277.214 74.802V76.224C276.806 76.308 276.392 76.422 275.972 76.566C275.552 76.698 275.162 76.842 274.802 76.998C274.454 77.154 274.166 77.292 273.938 77.412V84H272.552ZM280.754 84.18C279.926 84.18 279.296 83.946 278.864 83.478C278.432 83.01 278.216 82.326 278.216 81.426C278.216 80.838 278.318 80.358 278.522 79.986C278.726 79.614 279.032 79.332 279.44 79.14C279.86 78.936 280.376 78.81 280.988 78.762L283.76 78.492V77.718C283.76 77.106 283.622 76.674 283.346 76.422C283.082 76.17 282.686 76.044 282.158 76.044C281.858 76.044 281.498 76.056 281.078 76.08C280.67 76.104 280.262 76.134 279.854 76.17C279.446 76.206 279.086 76.242 278.774 76.278L278.702 75.216C278.99 75.156 279.338 75.096 279.746 75.036C280.154 74.976 280.58 74.928 281.024 74.892C281.468 74.844 281.876 74.82 282.248 74.82C282.932 74.82 283.49 74.928 283.922 75.144C284.354 75.348 284.666 75.666 284.858 76.098C285.062 76.518 285.164 77.058 285.164 77.718V82.272C285.188 82.536 285.29 82.728 285.47 82.848C285.662 82.968 285.902 83.046 286.19 83.082L286.136 84.18C285.872 84.18 285.632 84.162 285.416 84.126C285.2 84.102 284.996 84.06 284.804 84C284.648 83.94 284.498 83.868 284.354 83.784C284.222 83.7 284.09 83.598 283.958 83.478C283.73 83.574 283.436 83.676 283.076 83.784C282.728 83.892 282.35 83.982 281.942 84.054C281.546 84.138 281.15 84.18 280.754 84.18ZM280.988 83.01C281.312 83.01 281.648 82.98 281.996 82.92C282.344 82.86 282.674 82.788 282.986 82.704C283.298 82.62 283.556 82.542 283.76 82.47V79.536L281.15 79.788C280.61 79.836 280.22 79.992 279.98 80.256C279.752 80.52 279.638 80.898 279.638 81.39C279.638 81.894 279.752 82.29 279.98 82.578C280.208 82.866 280.544 83.01 280.988 83.01ZM287.827 84V75H289.213V75.63C289.501 75.462 289.891 75.288 290.383 75.108C290.875 74.916 291.349 74.82 291.805 74.82C292.405 74.82 292.885 74.892 293.245 75.036C293.617 75.18 293.917 75.414 294.145 75.738C294.385 75.606 294.679 75.468 295.027 75.324C295.375 75.18 295.747 75.06 296.143 74.964C296.551 74.868 296.947 74.82 297.331 74.82C298.147 74.82 298.771 74.964 299.203 75.252C299.647 75.528 299.953 75.99 300.121 76.638C300.289 77.286 300.373 78.15 300.373 79.23V84H298.987V79.284C298.987 78.504 298.939 77.88 298.843 77.412C298.759 76.944 298.585 76.608 298.321 76.404C298.057 76.188 297.655 76.08 297.115 76.08C296.635 76.08 296.161 76.152 295.693 76.296C295.237 76.44 294.883 76.584 294.631 76.728C294.715 77.04 294.769 77.43 294.793 77.898C294.829 78.354 294.847 78.828 294.847 79.32V84H293.461V79.356C293.461 78.54 293.419 77.898 293.335 77.43C293.251 76.95 293.071 76.608 292.795 76.404C292.531 76.188 292.129 76.08 291.589 76.08C291.133 76.08 290.683 76.152 290.239 76.296C289.795 76.44 289.453 76.584 289.213 76.728V84H287.827ZM302.874 84V75H304.26V84H302.874ZM302.874 73.02V71.4H304.26V73.02H302.874ZM306.847 84V75H308.233V75.63C308.437 75.51 308.689 75.39 308.989 75.27C309.301 75.15 309.631 75.048 309.979 74.964C310.327 74.868 310.663 74.82 310.987 74.82C311.815 74.82 312.445 74.97 312.877 75.27C313.321 75.558 313.627 76.026 313.795 76.674C313.963 77.322 314.047 78.174 314.047 79.23V84H312.643V79.284C312.643 78.504 312.595 77.88 312.499 77.412C312.415 76.944 312.235 76.608 311.959 76.404C311.695 76.188 311.287 76.08 310.735 76.08C310.435 76.08 310.123 76.116 309.799 76.188C309.487 76.248 309.193 76.332 308.917 76.44C308.641 76.536 308.413 76.632 308.233 76.728V84H306.847ZM320.006 88.23C319.07 88.23 318.314 88.146 317.738 87.978C317.174 87.822 316.76 87.546 316.496 87.15C316.244 86.754 316.118 86.214 316.118 85.53C316.118 85.182 316.172 84.882 316.28 84.63C316.388 84.39 316.544 84.168 316.748 83.964C316.964 83.748 317.228 83.526 317.54 83.298C317.384 83.178 317.258 83.01 317.162 82.794C317.078 82.566 317.036 82.314 317.036 82.038C317.036 81.906 317.102 81.696 317.234 81.408C317.378 81.108 317.516 80.844 317.648 80.616C317.396 80.496 317.162 80.334 316.946 80.13C316.742 79.914 316.574 79.626 316.442 79.266C316.31 78.906 316.244 78.45 316.244 77.898C316.244 76.794 316.556 76.008 317.18 75.54C317.804 75.06 318.614 74.82 319.61 74.82C319.934 74.82 320.276 74.844 320.636 74.892C320.996 74.94 321.278 74.994 321.482 75.054L324.164 74.982V76.17L322.472 76.134C322.64 76.302 322.778 76.524 322.886 76.8C323.006 77.076 323.066 77.442 323.066 77.898C323.066 78.678 322.934 79.29 322.67 79.734C322.406 80.178 322.016 80.49 321.5 80.67C320.984 80.85 320.336 80.94 319.556 80.94C319.472 80.94 319.328 80.934 319.124 80.922C318.932 80.898 318.788 80.88 318.692 80.868C318.62 81.036 318.548 81.228 318.476 81.444C318.404 81.66 318.368 81.81 318.368 81.894C318.368 82.122 318.41 82.296 318.494 82.416C318.578 82.536 318.77 82.614 319.07 82.65C319.382 82.686 319.868 82.704 320.528 82.704C321.392 82.704 322.082 82.776 322.598 82.92C323.114 83.064 323.48 83.328 323.696 83.712C323.924 84.084 324.038 84.63 324.038 85.35C324.038 86.37 323.684 87.102 322.976 87.546C322.268 88.002 321.278 88.23 320.006 88.23ZM320.024 87.042C320.912 87.042 321.566 86.916 321.986 86.664C322.406 86.412 322.616 85.998 322.616 85.422C322.616 84.978 322.544 84.648 322.4 84.432C322.268 84.228 322.04 84.09 321.716 84.018C321.392 83.958 320.96 83.928 320.42 83.928C320.312 83.928 320.162 83.928 319.97 83.928C319.778 83.916 319.58 83.91 319.376 83.91C319.172 83.898 318.986 83.886 318.818 83.874C318.662 83.862 318.554 83.856 318.494 83.856C318.122 84.12 317.864 84.354 317.72 84.558C317.576 84.774 317.504 85.056 317.504 85.404C317.504 85.8 317.576 86.118 317.72 86.358C317.864 86.598 318.116 86.772 318.476 86.88C318.848 86.988 319.364 87.042 320.024 87.042ZM319.61 79.824C320.354 79.824 320.882 79.68 321.194 79.392C321.506 79.092 321.662 78.594 321.662 77.898C321.662 77.202 321.506 76.704 321.194 76.404C320.882 76.104 320.354 75.954 319.61 75.954C318.914 75.954 318.41 76.104 318.098 76.404C317.798 76.704 317.648 77.202 317.648 77.898C317.648 78.594 317.798 79.092 318.098 79.392C318.41 79.68 318.914 79.824 319.61 79.824Z" fill="black"/>
</g>
<defs>
<clipPath id="clip0_4224_9490">
<rect width="460.8" height="456.369" fill="white"/>
</clipPath>
</defs>
</svg>
