<svg width="24" height="24" viewBox="0 0 24 24" fill="none" xmlns="http://www.w3.org/2000/svg">
<g clip-path="url(#clip0_4378_14715)">
<g clip-path="url(#clip1_4378_14715)">
<path d="M11.2843 11.1406H13.3867L13.0321 12.7995H10.9297L11.2843 11.1406Z" fill="#C7FF50"/>
<path d="M12 3C7.02944 3 3 7.02944 3 12C3 16.9706 7.02944 21 12 21C16.9706 21 21 16.9706 21 12C21 7.02944 16.9706 3 12 3ZM17.3888 11.1389H15.4132L15.0586 12.7978H16.5785V14.7482H14.6406L14.2226 16.6861H12.1962L12.6142 14.7482H10.5118L10.0938 16.6861H8.06772L8.48532 14.7482H6.61116V12.7978H8.90328L9.25788 11.1389H7.42152V9.1884H9.66324L10.0686 7.31388H12.095L11.6897 9.1884H13.7921L14.1974 7.31388H16.2239L15.8185 9.1884H17.3888V11.1389Z" fill="#C7FF50"/>
</g>
</g>
<g clip-path="url(#clip2_4378_14715)">
<g clip-path="url(#clip3_4378_14715)">
<path d="M12 3C7.02944 3 3 7.02944 3 12C3 16.9706 7.02944 21 12 21C16.9706 21 21 16.9706 21 12C21 7.02944 16.9706 3 12 3ZM17.3888 11.1389H15.4132L15.0586 12.7978H16.5785V14.7482H14.6406L14.2226 16.6861H12.1962L12.6142 14.7482H10.5118L10.0938 16.6861H8.06772L8.48532 14.7482H6.61116V12.7978H8.90328L9.25788 11.1389H7.42152V9.1884H9.66324L10.0686 7.31388H12.095L11.6897 9.1884H13.7921L14.1974 7.31388H16.2239L15.8185 9.1884H17.3888V11.1389Z" fill="#1AE3E3"/>
</g>
</g>
<defs>
<clipPath id="clip0_4378_14715">
<rect width="24" height="24" fill="white"/>
</clipPath>
<clipPath id="clip1_4378_14715">
<rect width="24" height="24" fill="white"/>
</clipPath>
<clipPath id="clip2_4378_14715">
<rect width="24" height="9.5" fill="white"/>
</clipPath>
<clipPath id="clip3_4378_14715">
<rect width="24" height="24" fill="white"/>
</clipPath>
</defs>
</svg>
