<svg width="124" height="40" viewBox="0 0 124 40" fill="none" xmlns="http://www.w3.org/2000/svg">
<g clip-path="url(#clip0_4095_2849)">
<path d="M15.2708 0.00390625H16.3735C20.2016 0.0861539 23.9674 1.60774 26.6721 4.30135C25.6735 5.30888 24.654 6.27529 23.6761 7.28282C22.1573 5.92574 20.3265 4.87708 18.3292 4.50697C15.3748 3.89011 12.1916 4.44528 9.71574 6.1108C7.01104 7.85856 5.18017 10.8195 4.78486 13.986C4.34795 17.1114 5.24258 20.4013 7.30231 22.8276C9.27882 25.1923 12.2956 26.6727 15.4164 26.7755C18.3292 26.94 21.3667 26.0559 23.4889 24.0408C25.1533 22.622 25.9231 20.463 26.1728 18.3657C22.7191 18.3657 19.2654 18.3863 15.8117 18.3657V14.1299H30.3547C31.1037 18.6741 30.0218 23.794 26.5265 27.0428C24.1963 29.3458 20.9714 30.7028 17.6842 30.9702C14.501 31.2786 11.2137 30.6823 8.38419 29.1607C4.99292 27.3718 2.28822 24.3492 0.956676 20.792C-0.291646 17.5227 -0.312452 13.8215 0.852649 10.5316C1.91372 7.52957 3.95265 4.87708 6.57413 3.02651C9.09158 1.1965 12.15 0.188963 15.2708 0.00390625Z" fill="#6BBDD7"/>
<path d="M98.7002 1.07422H103.153V30.4366C101.675 30.4366 100.177 30.4572 98.7002 30.4161C98.721 20.6492 98.7002 10.8617 98.7002 1.07422Z" fill="#6BBDD7"/>
<path d="M40.2588 11.2527C43.0051 10.7387 45.9802 11.3144 48.248 12.9388C50.3078 14.3781 51.7433 16.6399 52.1803 19.1074C52.742 21.9655 52.0346 25.0909 50.1621 27.3527C48.144 29.8818 44.836 31.2389 41.6111 31.0333C38.6568 30.8688 35.7856 29.4089 34.038 27.0237C32.0615 24.3918 31.5829 20.7729 32.6648 17.6886C33.7467 14.3781 36.8051 11.849 40.2588 11.2527ZM40.8829 15.1595C39.7594 15.4473 38.7192 16.0848 37.9702 16.9895C35.9521 19.3747 36.0769 23.2609 38.3031 25.4816C39.5722 26.7564 41.4863 27.3527 43.2547 27.0031C44.8984 26.7153 46.3339 25.6255 47.1245 24.1862C48.4977 21.7393 48.1024 18.3671 46.0011 16.4549C44.6487 15.2212 42.6722 14.7071 40.8829 15.1595Z" fill="#6BBDD7"/>
<path d="M62.3118 11.2503C65.4534 10.654 68.8863 11.5176 71.2373 13.6972C75.0655 17.0899 75.4816 23.4435 72.2152 27.3503C70.2387 29.8177 67.0346 31.1748 63.8722 31.0309C60.8554 30.9486 57.8803 29.4682 56.091 27.0213C54.0729 24.3277 53.636 20.6266 54.7803 17.4806C55.9246 14.2729 58.9205 11.8261 62.3118 11.2503ZM62.936 15.1571C61.8125 15.4449 60.7722 16.0824 60.0232 16.9665C58.0259 19.3106 58.1091 23.1351 60.2521 25.3764C61.5212 26.7129 63.4977 27.3709 65.3286 27.0007C66.9514 26.6923 68.4078 25.6231 69.1984 24.1838C70.5507 21.7163 70.1554 18.3442 68.0333 16.4319C66.6809 15.1982 64.7044 14.7047 62.936 15.1571Z" fill="#6BBDD7"/>
<path d="M81.0162 12.4435C83.4088 10.9631 86.592 10.5519 89.1719 11.8267C89.9833 12.1762 90.6491 12.7725 91.294 13.3688C91.3148 12.8137 91.294 12.2379 91.3148 11.6622C92.7088 11.6828 94.1028 11.6622 95.5175 11.6828V29.8184C95.4967 32.5531 94.7893 35.4523 92.792 37.4468C90.6074 39.647 87.2578 40.3255 84.241 39.8731C81.0162 39.4002 78.2074 37.0767 76.9591 34.1364C78.2074 33.5401 79.5182 33.0672 80.8081 32.512C81.5363 34.1981 83.0135 35.6374 84.8652 35.9664C86.7168 36.2954 88.8598 35.843 90.0665 34.3214C91.3564 32.7587 91.3564 30.6203 91.294 28.708C90.337 29.6333 89.2343 30.4558 87.9028 30.7642C85.0108 31.5661 81.8276 30.5792 79.6014 28.6463C77.3544 26.7135 76.0229 23.732 76.1477 20.7711C76.2101 17.4195 78.1242 14.1913 81.0162 12.4435ZM85.3229 15.0755C84.0538 15.2811 82.8678 15.9802 82.0564 16.9466C80.1007 19.2495 80.1007 22.9301 82.0772 25.1919C83.2007 26.5285 85.0108 27.2687 86.7585 27.0836C88.4021 26.9191 89.9209 25.891 90.7323 24.4723C92.1054 22.0665 91.8766 18.7972 90.0249 16.6999C88.8806 15.4045 87.0497 14.767 85.3229 15.0755Z" fill="#6BBDD7"/>
<path d="M108.5 13.4933C110.997 11.1904 114.846 10.409 118.05 11.6222C121.087 12.7531 123.022 15.6112 124 18.5516C119.485 20.4021 114.991 22.2321 110.477 24.0827C111.101 25.2547 112.058 26.324 113.348 26.7558C115.158 27.3932 117.322 27.167 118.84 25.9744C119.444 25.522 119.922 24.9257 120.38 24.35C121.524 25.1108 122.669 25.851 123.813 26.6118C122.19 29.0176 119.465 30.7036 116.531 30.971C113.285 31.3616 109.832 30.1279 107.73 27.6194C104.277 23.6715 104.61 17.0505 108.5 13.4933ZM110.726 17.2973C110.019 18.3048 109.728 19.5385 109.749 20.7517C112.765 19.518 115.782 18.2843 118.799 17.03C118.3 15.8785 117.093 15.1794 115.865 14.9943C113.889 14.6448 111.829 15.6934 110.726 17.2973Z" fill="#6BBDD7"/>
</g>
<defs>
<clipPath id="clip0_4095_2849">
<rect width="124" height="40" fill="white"/>
</clipPath>
</defs>
</svg>
