<svg width="160" height="34" viewBox="0 0 160 34" fill="none" xmlns="http://www.w3.org/2000/svg">
<g clip-path="url(#clip0_4095_2856)">
<path d="M160 15.3807V12.5814H156.506V8.22945L156.388 8.26549L153.106 9.26451L153.041 9.28406V12.5815H147.861V10.7446C147.861 9.8892 148.053 9.23463 148.432 8.7981C148.809 8.3668 149.347 8.14754 150.033 8.14754C150.527 8.14754 151.038 8.26318 151.552 8.49122L151.681 8.5485V5.6004L151.62 5.57823C151.14 5.4067 150.488 5.32031 149.679 5.32031C148.66 5.32031 147.734 5.54097 146.926 5.97827C146.118 6.41619 145.483 7.04135 145.037 7.83619C144.594 8.63011 144.368 9.54706 144.368 10.5618V12.5814H141.935V15.3807H144.368V27.1739H147.861V15.3807H153.041V22.8751C153.041 25.9616 154.505 27.5257 157.391 27.5257C157.865 27.5257 158.364 27.4705 158.874 27.3622C159.393 27.251 159.746 27.14 159.954 27.0215L160 26.9944V24.1691L159.858 24.2626C159.669 24.3883 159.432 24.491 159.156 24.5673C158.878 24.6451 158.646 24.684 158.466 24.684C157.79 24.684 157.289 24.5028 156.979 24.1451C156.665 23.7842 156.506 23.153 156.506 22.2701V15.3807H160ZM134.135 24.6845C132.867 24.6845 131.868 24.2663 131.163 23.4425C130.455 22.6146 130.096 21.4341 130.096 19.9344C130.096 18.387 130.455 17.176 131.164 16.3334C131.869 15.4964 132.859 15.0715 134.107 15.0715C135.318 15.0715 136.282 15.4773 136.972 16.2781C137.667 17.0831 138.019 18.2845 138.019 19.8498C138.019 21.4345 137.688 22.6517 137.034 23.4659C136.386 24.274 135.41 24.6845 134.135 24.6845ZM134.29 12.2298C131.872 12.2298 129.951 12.9349 128.581 14.3255C127.212 15.7163 126.518 17.6409 126.518 20.0463C126.518 22.3311 127.195 24.1688 128.532 25.5077C129.868 26.847 131.687 27.5254 133.937 27.5254C136.281 27.5254 138.164 26.8105 139.533 25.4007C140.902 23.9924 141.596 22.0859 141.596 19.7367C141.596 17.4162 140.945 15.5647 139.661 14.2348C138.376 12.9043 136.569 12.2298 134.29 12.2298ZM120.886 12.2298C119.241 12.2298 117.88 12.6485 116.84 13.474C115.795 14.3044 115.264 15.3935 115.264 16.7114C115.264 17.3965 115.378 18.005 115.604 18.5212C115.831 19.039 116.181 19.4949 116.648 19.8776C117.11 20.2571 117.824 20.6547 118.771 21.0592C119.566 21.3849 120.16 21.6603 120.536 21.8775C120.905 22.0903 121.166 22.3041 121.314 22.5125C121.457 22.7163 121.53 22.9953 121.53 23.3396C121.53 24.32 120.792 24.7971 119.274 24.7971C118.71 24.7971 118.068 24.68 117.364 24.4494C116.665 24.2222 116.006 23.8895 115.409 23.463L115.264 23.3595V26.705L115.317 26.7297C115.811 26.9566 116.434 27.148 117.169 27.2986C117.902 27.4494 118.568 27.5261 119.146 27.5261C120.932 27.5261 122.369 27.1054 123.418 26.275C124.474 25.4389 125.009 24.324 125.009 22.9605C125.009 21.9769 124.721 21.1334 124.153 20.4531C123.59 19.7784 122.611 19.1589 121.246 18.6114C120.158 18.1772 119.462 17.8167 119.174 17.54C118.897 17.2727 118.757 16.8947 118.757 16.4159C118.757 15.9916 118.93 15.6516 119.287 15.3763C119.646 15.0996 120.146 14.9588 120.773 14.9588C121.355 14.9588 121.951 15.0503 122.543 15.2295C123.134 15.4088 123.654 15.6488 124.088 15.9425L124.231 16.0395V12.8659L124.176 12.8425C123.776 12.6718 123.248 12.5256 122.607 12.4071C121.969 12.2893 121.39 12.2298 120.886 12.2298ZM106.158 24.6845C104.891 24.6845 103.891 24.2663 103.187 23.4425C102.478 22.6146 102.119 21.4345 102.119 19.9344C102.119 18.387 102.478 17.176 103.187 16.3334C103.892 15.4964 104.882 15.0715 106.13 15.0715C107.341 15.0715 108.305 15.4773 108.996 16.2781C109.69 17.0831 110.042 18.2845 110.042 19.8498C110.042 21.4345 109.711 22.6517 109.058 23.4659C108.409 24.274 107.434 24.6845 106.158 24.6845ZM106.314 12.2298C103.895 12.2298 101.973 12.9349 100.604 14.3255C99.2356 15.7163 98.5411 17.6409 98.5411 20.0463C98.5411 22.332 99.219 24.1688 100.555 25.5077C101.892 26.847 103.71 27.5254 105.96 27.5254C108.304 27.5254 110.188 26.8105 111.557 25.4007C112.926 23.9924 113.619 22.0859 113.619 19.7367C113.619 17.4162 112.968 15.5647 111.684 14.2348C110.399 12.9043 108.592 12.2298 106.314 12.2298ZM93.239 15.1085V12.5814H89.7887V27.1736H93.239V19.7091C93.239 18.4399 93.5283 17.3971 94.0991 16.6095C94.6627 15.8313 95.4137 15.4369 96.3306 15.4369C96.6413 15.4369 96.9902 15.4879 97.368 15.5888C97.742 15.689 98.0128 15.7979 98.1726 15.9124L98.3176 16.017V12.5564L98.2617 12.5326C97.9404 12.3968 97.4858 12.3282 96.9107 12.3282C96.0436 12.3282 95.2677 12.6054 94.6031 13.1511C94.0197 13.6308 93.5981 14.2884 93.2757 15.1085H93.239ZM83.6099 12.2298C82.027 12.2298 80.6151 12.5675 79.4142 13.2332C78.2108 13.9004 77.2801 14.8529 76.647 16.0641C76.0166 17.2724 75.6965 18.6838 75.6965 20.2577C75.6965 21.6365 76.0068 22.9017 76.6202 24.0168C77.2339 25.1338 78.1025 26.0077 79.202 26.6137C80.3 27.219 81.569 27.5259 82.9741 27.5259C84.6138 27.5259 86.0137 27.1998 87.1362 26.5566L87.1815 26.5307V23.386L87.0365 23.4913C86.5281 23.8598 85.9599 24.1539 85.3485 24.3658C84.7387 24.5775 84.1827 24.6845 83.6952 24.6845C82.3414 24.6845 81.2545 24.2631 80.4656 23.4322C79.675 22.6002 79.2741 21.432 79.2741 19.9619C79.2741 18.4827 79.6922 17.2844 80.5161 16.4002C81.3375 15.5187 82.4263 15.0715 83.7521 15.0715C84.8862 15.0715 85.9913 15.4536 87.0368 16.2081L87.1815 16.3126V12.9991L87.1348 12.973C86.7413 12.7538 86.2047 12.5729 85.5386 12.4357C84.8752 12.2988 84.2264 12.2298 83.6099 12.2298ZM73.3202 12.5815H69.8699V27.1736H73.3202V12.5815ZM71.6303 6.36522C71.0624 6.36522 70.5672 6.55754 70.1603 6.93864C69.7516 7.32082 69.5444 7.80201 69.5444 8.36988C69.5444 8.92883 69.7492 9.40124 70.1539 9.77326C70.556 10.1442 71.0529 10.3322 71.6305 10.3322C72.208 10.3322 72.7066 10.1442 73.1136 9.77387C73.5231 9.40124 73.7308 8.92898 73.7308 8.36988C73.7308 7.82187 73.5287 7.34561 73.1304 6.95404C72.7325 6.56324 72.2276 6.36522 71.6303 6.36522ZM63.0216 11.5049V27.1736H66.5428V6.81192H61.6693L55.4749 21.936L49.4635 6.81192H44.3916V27.1734H47.7006V11.5034H47.8142L54.162 27.1736H56.6592L62.908 11.5049H63.0216Z" fill="#6BBDD7"/>
<path d="M16.2311 16.1554H0V0.0078125H16.2311V16.1554Z" fill="#6BBDD7"/>
<path d="M34.1517 16.1554H17.9209V0.0078125H34.1517V16.1554Z" fill="#6BBDD7"/>
<path d="M16.2307 33.9912H0V17.8438H16.2307V33.9912Z" fill="#6BBDD7"/>
<path d="M34.1517 33.9912H17.9209V17.8438H34.1517V33.9912Z" fill="#6BBDD7"/>
</g>
<defs>
<clipPath id="clip0_4095_2856">
<rect width="160" height="34" fill="white"/>
</clipPath>
</defs>
</svg>
