<svg width="120" height="29" viewBox="0 0 120 29" fill="none" xmlns="http://www.w3.org/2000/svg">
<g clip-path="url(#clip0_4095_2873)">
<path d="M72.5497 9.80314C71.1311 7.84216 69.1802 6.66135 66.5388 6.66135C62.1299 6.66135 58.5576 10.2249 58.5576 14.6195C58.5576 19.0141 62.1299 22.5741 66.5388 22.5741C68.0511 22.5712 69.5314 22.1438 70.8068 21.3417C72.0823 20.5396 73.1004 19.396 73.7422 18.0442C73.7422 18.0442 65.5349 18.0477 65.5349 18.0442V11.5287H80.57V1.42681H93.9747V7.9388H86.9529C86.9529 7.9388 86.928 11.5287 86.9529 11.5287H93.9747V18.0424H86.9529V21.4091H93.9747V27.7577C94.2008 27.7718 80.5629 27.7472 80.5629 27.7577V18.0986C78.977 25.2977 73.1192 29 66.5388 29C60.0154 29 54.599 25.1958 53.0202 18.4606L53.0185 27.7577H46.4238V12.3703C46.4238 12.3703 42.6112 15.6878 42.6112 27.7577H35.8386C35.8386 15.6878 32.0277 12.3703 32.0277 12.3703V27.7577H25.4331V1.02442C33.0298 1.02442 38.0457 9.44819 39.224 14.4209H39.2275C40.4041 9.44819 45.4199 1.02442 53.0185 1.02442V9.91911L53.0202 9.90681C54.2982 4.00279 60.318 0 66.5388 0C72.9217 0 78.5462 4.76012 79.7317 9.80314H72.5497ZM108.437 27.7577C107.47 20.4919 102.607 15.3171 102.607 15.3171V27.7559H95.6087V1.43032C97.1626 1.43032 102.728 4.39815 108.433 12.4986V1.42681H115.257V27.7577H108.437ZM8.69815 21.1561C8.51482 21.9134 7.34184 25.9601 6.87194 27.8174H0.0458984C0.946544 24.4929 2.74784 18.7997 4.57939 15.0025C6.4056 11.2176 8.70883 7.05144 12.4841 4.24352C14.2302 2.94498 17.6138 0.390087 23.8792 0.969947V27.7841H17.2525V21.1561H8.69815ZM17.2578 15.0307V8.80156C15.1362 10.2618 12.8614 12.9748 11.4873 15.0307H17.2578ZM116.813 2.25794C116.813 2.05418 116.855 1.85252 116.934 1.66445C117.013 1.47638 117.13 1.3056 117.276 1.16185C117.422 1.0181 117.596 0.904196 117.787 0.826649C117.977 0.749102 118.182 0.709427 118.388 0.709888C118.595 0.71035 118.799 0.750939 118.989 0.829339C119.18 0.907739 119.353 1.02241 119.499 1.16682C119.644 1.31122 119.76 1.48252 119.838 1.67094C119.917 1.85936 119.957 2.06121 119.956 2.26497C119.955 2.67647 119.789 3.07074 119.494 3.36106C119.198 3.65137 118.798 3.81395 118.381 3.81301C117.964 3.81208 117.565 3.64772 117.271 3.35609C116.977 3.06445 116.812 2.66944 116.813 2.25794ZM119.663 2.25794C119.663 1.56211 119.093 1.00158 118.386 1.00158C118.219 1.00158 118.053 1.03416 117.898 1.09748C117.743 1.16079 117.603 1.25359 117.484 1.37058C117.366 1.48758 117.272 1.62646 117.207 1.77932C117.143 1.93217 117.11 2.096 117.11 2.26145C117.11 2.4269 117.143 2.59073 117.207 2.74359C117.272 2.89644 117.366 3.03533 117.484 3.15232C117.603 3.26931 117.743 3.36211 117.898 3.42543C118.053 3.48874 118.219 3.52133 118.386 3.52133C118.554 3.52156 118.721 3.48902 118.876 3.42556C119.031 3.36211 119.172 3.269 119.291 3.15159C119.409 3.03419 119.503 2.89479 119.567 2.74142C119.631 2.58806 119.663 2.42375 119.663 2.25794ZM119.17 3.11016H118.78L118.404 2.39851H118.07V3.11016H117.739V1.42856H118.559C118.702 1.42856 118.89 1.43208 119.018 1.51291C119.171 1.60955 119.219 1.77121 119.219 1.94868C119.219 2.25091 119.052 2.37918 118.753 2.39851L119.17 3.11016ZM118.568 2.14724C118.755 2.15075 118.888 2.10858 118.888 1.89421C118.888 1.67808 118.648 1.67808 118.484 1.67808H118.071V2.14724H118.568Z" fill="#6BBDD7"/>
</g>
<defs>
<clipPath id="clip0_4095_2873">
<rect width="120" height="29" fill="white"/>
</clipPath>
</defs>
</svg>
