<svg width="103" height="39" viewBox="0 0 103 39" fill="none" xmlns="http://www.w3.org/2000/svg">
<path fill-rule="evenodd" clip-rule="evenodd" d="M1.79067 1.96484H17.4604L16.7885 15.918C16.5398 14.401 15.4951 13.2071 13.3062 12.4609L1.49219 8.23239L1.79067 1.96484Z" fill="#6BBDD7"/>
<path fill-rule="evenodd" clip-rule="evenodd" d="M98.6681 4.55156L99.5384 5.96907H100.309L99.141 4.12899C99.7626 4.05409 100.235 3.73046 100.235 2.98481C100.235 2.11397 99.7123 1.76574 98.7184 1.76574H98.6681V2.3627C99.0907 2.3627 99.5384 2.43759 99.5384 2.93451C99.5384 3.50688 99.141 3.58122 98.6681 3.58122V4.55156ZM98.6681 7.61071V6.93941C100.235 6.86451 101.454 5.62084 101.454 3.80536C101.454 1.98987 100.235 0.721056 98.6681 0.671309V0C100.608 0.0748935 102.275 1.56675 102.275 3.80536C102.275 6.04396 100.608 7.53637 98.6681 7.61071ZM97.7978 4.17873H98.444L98.6681 4.55156V3.58122L97.7978 3.58177V2.36325L98.6681 2.3627V1.76574L97.1008 1.76628V5.96962H97.7978V4.17873ZM98.6681 0V0.671309L98.544 0.671855C96.9018 0.671855 95.6336 1.96527 95.6336 3.8059C95.6336 5.52189 96.7526 6.93995 98.544 6.93995L98.6681 6.93941V7.61071L98.544 7.61126C96.3798 7.61126 94.8125 5.96962 94.8125 3.8059C94.8125 1.51755 96.5542 0.000546368 98.544 0.000546368L98.6681 0ZM16.6646 18.2314L16.7893 15.9184C16.2667 14.6999 15.521 13.7547 14.4014 13.307C12.9588 12.71 10.1729 15.8933 7.56151 19.7735L1.36831 10.3965L1.39291 10.2724L0 38.1536H15.6697L15.9933 31.4389C17.9329 35.7909 21.2413 38.8758 25.5693 38.8758C26.9622 38.8758 28.0812 38.7265 29.0264 38.4532C30.4691 38.0306 31.4886 37.3342 32.3846 36.4382L32.3097 38.1542H44.3725L44.7459 30.6686C45.9895 35.6433 52.1325 39.0256 59.0473 38.9999H60.3155C61.7891 38.975 63.2598 38.8587 64.7189 38.6516C66.658 38.4029 68.5243 37.9798 70.3638 37.409L71.5829 32.3343C71.9814 36.4633 76.0842 38.9009 80.2132 38.9255C82.1287 38.9255 83.8944 38.504 85.6607 37.6572C86.3069 37.3347 86.9782 36.9367 87.65 36.5136H88.1978L88.1229 38.1547H100.186C100.036 32.0856 100.31 24.4754 100.758 16.218C100.783 12.388 96.9773 9.1545 88.2218 9.17965C87.3515 9.17965 86.5059 9.2294 85.6602 9.30429C82.3769 9.57762 79.268 10.3238 76.4576 11.1947L75.3877 19.7506C77.9746 18.1335 81.0583 16.7909 83.9185 16.6171C84.5657 16.5673 85.1376 16.5673 85.6602 16.6171C87.9726 16.7909 89.0429 17.7361 88.9435 19.2285C87.8233 19.5018 86.7289 19.7511 85.6602 19.9999C80.0891 21.2927 75.4872 22.4872 74.1441 24.4016L74.0692 20.248C74.0692 13.6569 69.6914 10.5977 64.7184 9.75201C63.624 9.57762 62.5038 9.47868 61.4094 9.50328C61.0366 9.50328 60.6632 9.50328 60.315 9.52843C52.9038 9.75201 47.7301 12.5876 45.3669 18.3577L46.1874 1.96691H34.1001L33.6523 10.9208L30.046 10.8962C24.2907 10.894 19.0323 12.499 16.6646 18.2314ZM85.6602 32.2097H85.2376C83.5205 32.26 82.6507 31.2148 82.5759 29.7967C82.6507 28.354 83.4718 27.235 85.6607 26.4642C86.096 26.3266 86.5353 26.2023 86.9782 26.0914C87.6254 25.9908 88.2218 25.6929 88.7439 25.419L88.446 31.364C87.7244 31.8615 86.9536 32.1348 85.6602 32.2097ZM64.7184 29.8224C64.0711 29.8973 63.3752 29.9219 62.6782 29.9219C61.7576 29.9219 60.9868 29.847 60.3155 29.7223C57.9528 29.2752 57.0076 28.0813 57.0579 26.1411H72.3789C71.9736 26.6765 71.7243 27.3135 71.6583 27.9818C69.5679 28.951 67.3287 29.5983 64.7184 29.8224ZM60.315 20.8931H56.3855C56.6835 18.1822 58.2508 16.341 60.315 16.1918C60.4145 16.1672 60.5145 16.1672 60.614 16.1672C63.0516 16.1918 64.2455 17.9083 64.2209 20.8931H60.315ZM28.857 29.5726C26.7534 29.5255 24.5547 28.2529 24.8231 25.4939C25.0964 22.5845 26.6889 20.5197 29.0264 19.873C29.576 19.717 30.147 19.6499 30.7178 19.674L33.2303 19.7238L32.957 25.1702C32.6645 27.7543 31.1541 29.4785 29.1505 29.5693C29.0521 29.5747 28.9543 29.5747 28.857 29.5726Z" fill="#6BBDD7"/>
</svg>
