<svg width="36" height="36" viewBox="0 0 36 36" fill="none" xmlns="http://www.w3.org/2000/svg">
<g clip-path="url(#clip0_4450_14351)">
<path d="M28.4984 30V25.5C28.4984 24.4 28.1922 23.3438 27.5797 22.3313C26.9672 21.3188 26.0984 20.45 24.9734 19.725C26.2484 19.875 27.4484 20.1313 28.5734 20.4938C29.6984 20.8563 30.7484 21.3 31.7234 21.825C32.6234 22.325 33.3109 22.8813 33.7859 23.4938C34.2609 24.1063 34.4984 24.775 34.4984 25.5V30H28.4984ZM28.4984 12C28.4984 13.65 27.9109 15.0625 26.7359 16.2375C25.5609 17.4125 24.1484 18 22.4984 18C22.2234 18 21.8734 17.9688 21.4484 17.9063C21.0234 17.8438 20.6734 17.775 20.3984 17.7C21.0734 16.9 21.5922 16.0125 21.9547 15.0375C22.3172 14.0625 22.4984 13.05 22.4984 12C22.4984 10.95 22.3172 9.9375 21.9547 8.9625C21.5922 7.9875 21.0734 7.1 20.3984 6.3C20.7484 6.175 21.0984 6.09375 21.4484 6.05625C21.7984 6.01875 22.1484 6 22.4984 6C24.1484 6 25.5609 6.5875 26.7359 7.7625C27.9109 8.9375 28.4984 10.35 28.4984 12Z" fill="#26B5B5"/>
<path d="M1.5 30V25.8C1.5 24.95 1.71875 24.1688 2.15625 23.4563C2.59375 22.7438 3.175 22.2 3.9 21.825C5.45 21.05 7.025 20.4688 8.625 20.0813C10.225 19.6938 11.85 19.5 13.5 19.5C15.15 19.5 16.775 19.6938 18.375 20.0813C19.975 20.4688 21.55 21.05 23.1 21.825C23.825 22.2 24.4062 22.7438 24.8438 23.4563C25.2813 24.1688 25.5 24.95 25.5 25.8V30H1.5ZM13.5 18C11.85 18 10.4375 17.4125 9.2625 16.2375C8.0875 15.0625 7.5 13.65 7.5 12C7.5 10.35 8.0875 8.9375 9.2625 7.7625C10.4375 6.5875 11.85 6 13.5 6C15.15 6 16.5625 6.5875 17.7375 7.7625C18.9125 8.9375 19.5 10.35 19.5 12C19.5 13.65 18.9125 15.0625 17.7375 16.2375C16.5625 17.4125 15.15 18 13.5 18Z" fill="#26B5B5"/>
</g>
<defs>
<clipPath id="clip0_4450_14351">
<rect width="36" height="36" fill="white"/>
</clipPath>
</defs>
</svg>
