<svg width="48" height="48" viewBox="0 0 48 48" fill="none" xmlns="http://www.w3.org/2000/svg">
<path d="M41.0833 4H6.91667C5.30833 4 4 5.1775 4 6.625V10.375C4 11.8225 5.30833 13 6.91667 13H41.0833C42.6917 13 44 11.8225 44 10.375V6.625C44 5.1775 42.6917 4 41.0833 4Z" fill="#26B5B5"/>
<path d="M6.86364 44H19.1364C20.7155 44 22 42.7244 22 41.1562V20.8438C22 19.2756 20.7155 18 19.1364 18H6.86364C5.28455 18 4 19.2756 4 20.8438V41.1562C4 42.7244 5.28455 44 6.86364 44Z" fill="#26B5B5"/>
<path d="M41.1364 18H28.8636C27.2845 18 26 19.2336 26 20.75V26.25C26 27.7664 27.2845 29 28.8636 29H41.1364C42.7155 29 44 27.7664 44 26.25V20.75C44 19.2336 42.7155 18 41.1364 18Z" fill="#26B5B5"/>
<path d="M41.1364 34H28.8636C27.2845 34 26 35.1214 26 36.5V41.5C26 42.8786 27.2845 44 28.8636 44H41.1364C42.7155 44 44 42.8786 44 41.5V36.5C44 35.1214 42.7155 34 41.1364 34Z" fill="#26B5B5"/>
</svg>
