<svg width="48" height="48" viewBox="0 0 48 48" fill="none" xmlns="http://www.w3.org/2000/svg">
<path d="M35.1058 18.3788C36.212 20.3777 36.843 22.6748 36.843 25.1166C36.843 32.8145 30.5803 39.0771 22.8824 39.0771C15.1845 39.0771 8.92193 32.8145 8.92193 25.1166C8.92193 17.4189 15.1845 11.1561 22.8824 11.1561C25.2629 11.1561 27.5058 11.7557 29.469 12.8106L32.3438 9.93581C29.533 8.17656 26.2803 7.23438 22.8824 7.23438C18.1059 7.23438 13.6152 9.09444 10.2376 12.472C6.86007 15.8495 5 20.3401 5 25.1167C5 29.8932 6.86007 34.3839 10.2376 37.7614C13.6152 41.139 18.1059 42.9991 22.8824 42.9991C27.6588 42.9991 32.1495 41.139 35.527 37.7614C38.9046 34.3838 40.7647 29.8932 40.7647 25.1167C40.7647 21.6609 39.7905 18.355 37.9728 15.5118L35.1058 18.3788Z" fill="#26B5B5"/>
<path d="M24.4737 21.5843C23.1723 21.051 21.6151 21.3073 20.5596 22.3629C19.1514 23.7711 19.1514 26.0427 20.5596 27.44C21.9672 28.8476 24.2388 28.8476 25.636 27.44C26.6922 26.3837 26.9478 24.8267 26.4145 23.5259L36.7279 13.2125L38.4455 13.4364L42.9886 8.89269L39.5547 8.43449L39.0958 5L34.5521 9.5541L34.7766 11.2711L24.4737 21.5843Z" fill="#26B5B5"/>
<path d="M30.0572 23.3987C30.1231 23.7757 30.1578 24.1634 30.1578 24.559C30.1578 28.2628 27.1447 31.2759 23.4408 31.2759C19.7372 31.2759 16.7239 28.2628 16.7239 24.559C16.7239 20.8554 19.7371 17.8422 23.4408 17.8422C23.7666 17.8422 24.0867 17.8659 24.4002 17.9109L27.5444 14.7667C26.2813 14.2354 24.8949 13.9414 23.4408 13.9414C17.5863 13.9414 12.8232 18.7045 12.8232 24.559C12.8232 30.4136 17.5863 35.1767 23.4408 35.1767C29.2954 35.1767 34.0585 30.4136 34.0585 24.559C34.0585 23.0424 33.7382 21.5994 33.1628 20.2931L30.0572 23.3987Z" fill="#26B5B5"/>
</svg>
