<svg width="48" height="48" viewBox="0 0 48 48" fill="none" xmlns="http://www.w3.org/2000/svg">
<g clip-path="url(#clip0_4157_29930)">
<path d="M7.95652 27.029L4.98261 24.0551C4.32174 23.3942 3.88116 22.7333 3.55072 21.8522C3.22029 20.971 3 20.2 3 19.3188C3 18.4377 3.11014 17.6667 3.44058 17.0058C3.77101 16.3449 4.10145 15.6841 4.54203 15.2435L13.1333 6.54203C13.5739 6.10145 14.1246 5.66087 14.7855 5.44058C15.3362 5.11014 15.9971 5 16.658 5C17.429 5 18.0899 5.11014 18.7507 5.33043C19.4116 5.55072 19.9623 5.9913 20.4029 6.54203L29.5449 15.7942C29.8754 16.0145 30.0957 16.3449 30.2058 16.6754C30.3159 17.0058 30.4261 17.3362 30.4261 17.6667C30.4261 18.3275 30.2058 18.7681 29.8754 19.2087C29.5449 19.6493 28.9942 19.8696 28.2232 19.8696C27.8928 19.8696 27.5623 19.7594 27.1217 19.6493C26.7913 19.5391 26.4609 19.3188 26.1304 18.9884L21.1739 13.8116L7.95652 27.029Z" fill="#26B5B5"/>
<path d="M23.9274 43C23.3767 43 22.9361 42.7797 22.4956 42.4493C22.055 42.1188 21.9448 41.5681 21.9448 41.0174C21.9448 40.687 22.055 40.3565 22.055 40.0261C22.055 39.6957 22.3854 39.3652 22.6057 39.1449L30.7564 30.9942L29.7651 30.0029L21.6144 38.0435C21.3941 38.2638 21.1738 38.4841 20.8434 38.5942C20.513 38.7043 20.1825 38.8145 19.8521 38.8145C19.3014 38.8145 18.7506 38.5942 18.4202 38.2638C17.9796 37.8232 17.8695 37.3826 17.8695 36.8319C17.8695 36.5014 17.9796 36.171 18.0898 35.8406C18.1999 35.5101 18.4202 35.2899 18.6405 35.0696L26.7912 27.029L25.7999 25.9275L17.6492 33.9681C17.4289 34.1884 17.2086 34.4087 16.8782 34.5188C16.5477 34.629 16.2173 34.7391 15.8869 34.7391C15.3361 34.7391 14.7854 34.5188 14.455 34.1884C14.0144 33.7478 13.9043 33.3072 13.9043 32.7565C13.9043 32.4261 13.9043 32.0957 14.0144 31.7652C14.1245 31.4348 14.3448 31.2145 14.5651 30.8841L22.1651 23.2841L21.1738 22.2928L13.5738 29.8928C13.3535 30.113 13.1332 30.3333 12.6927 30.4435C12.3622 30.5536 12.0318 30.6638 11.7014 30.6638C11.1506 30.6638 10.5999 30.4435 10.2695 30.113C9.93904 29.7826 9.71875 29.2319 9.71875 28.6812C9.71875 28.3507 9.8289 28.0203 9.93904 27.6899C10.0492 27.3594 10.2695 27.1391 10.4898 26.8087L21.3941 16.0145L25.5796 20.0899C26.0202 20.5304 26.4608 20.7507 26.9014 20.971C27.3419 21.1913 27.8927 21.3014 28.5535 21.3014C29.5448 21.3014 30.426 20.971 31.197 20.3101C31.8579 19.6493 32.2985 18.7681 32.2985 17.6667C32.2985 17.1159 32.1883 16.5652 31.968 16.1246C31.7477 15.6841 31.4173 15.2435 30.9767 14.6928L25.139 8.85507L27.4521 6.54203C27.8927 6.10145 28.5535 5.66087 29.2144 5.44058C29.5448 5.11014 30.2057 5 30.9767 5C31.7477 5 32.4086 5.11014 33.0695 5.44058C33.7303 5.66087 34.3912 6.10145 34.8318 6.54203L44.3043 16.0145C44.7448 16.4551 45.1854 17.0058 45.4057 17.6667C45.626 18.3275 45.7361 19.0986 45.7361 19.8696C45.7361 20.6406 45.626 21.3014 45.4057 21.9623C45.1854 22.6232 44.7448 23.1739 44.3043 23.6145L25.6898 42.229C25.4695 42.4493 25.139 42.6696 24.8086 42.7797C24.4782 42.8899 24.2579 42.8899 23.9274 43Z" fill="#26B5B5"/>
</g>
<defs>
<clipPath id="clip0_4157_29930">
<rect width="42.7362" height="38" fill="white" transform="translate(3 5)"/>
</clipPath>
</defs>
</svg>
