<svg width="48" height="48" viewBox="0 0 48 48" fill="none" xmlns="http://www.w3.org/2000/svg">
<path d="M45 4.875H3C2.60218 4.875 2.22064 5.03304 1.93934 5.31434C1.65804 5.59564 1.5 5.97718 1.5 6.375V41.625C1.5 42.0228 1.65804 42.4044 1.93934 42.6857C2.22064 42.967 2.60218 43.125 3 43.125H45C45.3978 43.125 45.7794 42.967 46.0607 42.6857C46.342 42.4044 46.5 42.0228 46.5 41.625V6.375C46.5 5.97718 46.342 5.59564 46.0607 5.31434C45.7794 5.03304 45.3978 4.875 45 4.875ZM43.5 40.125H4.5V16.1625H43.5V40.125ZM43.5 13.1625H4.5V7.9125H43.5V13.1625Z" fill="#26B5B5"/>
<path d="M7.47656 11.9766C8.30499 11.9766 8.97656 11.305 8.97656 10.4766C8.97656 9.64814 8.30499 8.97656 7.47656 8.97656C6.64814 8.97656 5.97656 9.64814 5.97656 10.4766C5.97656 11.305 6.64814 11.9766 7.47656 11.9766Z" fill="#26B5B5"/>
<path d="M11.9766 11.9766C12.805 11.9766 13.4766 11.305 13.4766 10.4766C13.4766 9.64814 12.805 8.97656 11.9766 8.97656C11.1481 8.97656 10.4766 9.64814 10.4766 10.4766C10.4766 11.305 11.1481 11.9766 11.9766 11.9766Z" fill="#26B5B5"/>
<path d="M16.4766 11.9766C17.305 11.9766 17.9766 11.305 17.9766 10.4766C17.9766 9.64814 17.305 8.97656 16.4766 8.97656C15.6481 8.97656 14.9766 9.64814 14.9766 10.4766C14.9766 11.305 15.6481 11.9766 16.4766 11.9766Z" fill="#26B5B5"/>
<path d="M31.8179 32.0818C31.7496 32.3087 31.5492 32.4613 31.3191 32.4613H20.311C20.0809 32.4613 19.8804 32.3087 19.8133 32.0853L17.6289 24.5508H34.0012L31.8179 32.0818Z" fill="#26B5B5"/>
<path d="M16.6553 18.8828H14.4519C14.2382 18.8828 14.0402 19.0361 14.0059 19.2574C13.9621 19.5395 14.1684 19.7834 14.4289 19.7834H16.3287L17.2805 23.4042C17.3329 23.6038 17.5055 23.7349 17.6937 23.7349C17.7207 23.7349 17.748 23.7321 17.7753 23.7264C18.0249 23.6752 18.1664 23.3895 18.0988 23.1322L17.0687 19.2133C17.0271 19.0311 16.8775 18.8986 16.6995 18.8859L16.6553 18.8828Z" fill="#26B5B5"/>
<path d="M22.6403 36.8817C21.7811 36.8817 21.082 36.1477 21.082 35.2454C21.082 34.3434 21.7811 33.6094 22.6403 33.6094C23.4997 33.6094 24.1988 34.3434 24.1988 35.2454C24.1988 36.1477 23.4997 36.8817 22.6403 36.8817Z" fill="#26B5B5"/>
<path d="M29.1638 36.8817C28.3045 36.8817 27.6055 36.1477 27.6055 35.2454C27.6055 34.3434 28.3045 33.6094 29.1638 33.6094C30.0232 33.6094 30.7222 34.3434 30.7222 35.2454C30.7222 36.1477 30.0232 36.8817 29.1638 36.8817Z" fill="#26B5B5"/>
<path d="M19.5695 23.381H32.5851C32.8219 23.381 33.014 23.1794 33.014 22.9307C33.014 22.6821 32.8219 22.4805 32.5851 22.4805H19.5695C19.3327 22.4805 19.1406 22.6821 19.1406 22.9307C19.1406 23.1794 19.3327 23.381 19.5695 23.381Z" fill="#26B5B5"/>
</svg>
