<svg width="48" height="48" viewBox="0 0 48 48" fill="none" xmlns="http://www.w3.org/2000/svg">
<g clip-path="url(#clip0_4226_10878)">
<path d="M22.7563 29.7188C18.6253 29.7188 15.2773 33.1118 15.2773 37.2938C15.2773 41.4758 18.6253 44.8688 22.7563 44.8688C26.8873 44.8688 30.2353 41.4758 30.2353 37.2938C30.2353 33.1118 26.8873 29.7188 22.7563 29.7188Z" fill="#26B5B5"/>
<path d="M32.069 28.2696C34.283 30.6126 35.645 33.7896 35.645 37.2936C35.645 41.7336 33.461 45.6426 30.125 48.0006C36.299 46.0746 41.408 41.3766 43.691 35.6856C46.856 27.8106 43.904 21.8886 38.966 16.5156C39.122 17.2056 39.206 17.9376 39.206 18.6726C39.191 23.2386 36.185 27.0756 32.069 28.2696Z" fill="#26B5B5"/>
<path d="M23.6094 18.6836C23.6094 21.8876 26.1774 24.4766 29.3274 24.4766C32.4774 24.4766 35.0604 21.8756 35.0604 18.6836C35.0604 15.4796 32.4924 12.8906 29.3424 12.8906C26.1924 12.8906 23.6094 15.4766 23.6094 18.6836Z" fill="#26B5B5"/>
<path d="M12.8947 45.702C11.0077 43.431 9.8707 40.5 9.8707 37.296C9.8707 30.612 14.8237 25.11 21.2227 24.348C20.1307 22.734 19.4797 20.781 19.4797 18.684C19.4797 13.164 23.8927 8.709 29.3437 8.709C29.7967 8.709 30.2377 8.739 30.6637 8.796C27.4417 5.979 24.2197 3.12 21.6787 0C22.9687 13.68 9.3757 8.709 4.3357 21.327C0.972704 29.778 4.00871 40.224 12.8947 45.702Z" fill="#26B5B5"/>
</g>
<defs>
<clipPath id="clip0_4226_10878">
<rect width="48" height="48" fill="white"/>
</clipPath>
</defs>
</svg>
