<svg width="48" height="48" viewBox="0 0 48 48" fill="none" xmlns="http://www.w3.org/2000/svg">
<path d="M45 4.875H3C2.60218 4.875 2.22064 5.03304 1.93934 5.31434C1.65804 5.59564 1.5 5.97718 1.5 6.375V41.625C1.5 42.0228 1.65804 42.4044 1.93934 42.6857C2.22064 42.967 2.60218 43.125 3 43.125H45C45.3978 43.125 45.7794 42.967 46.0607 42.6857C46.342 42.4044 46.5 42.0228 46.5 41.625V6.375C46.5 5.97718 46.342 5.59564 46.0607 5.31434C45.7794 5.03304 45.3978 4.875 45 4.875ZM43.5 40.125H4.5V16.1625H43.5V40.125ZM43.5 13.1625H4.5V7.9125H43.5V13.1625Z" fill="#26B5B5"/>
<path d="M7.47656 11.9766C8.30499 11.9766 8.97656 11.305 8.97656 10.4766C8.97656 9.64814 8.30499 8.97656 7.47656 8.97656C6.64814 8.97656 5.97656 9.64814 5.97656 10.4766C5.97656 11.305 6.64814 11.9766 7.47656 11.9766Z" fill="#26B5B5"/>
<path d="M11.9766 11.9766C12.805 11.9766 13.4766 11.305 13.4766 10.4766C13.4766 9.64814 12.805 8.97656 11.9766 8.97656C11.1481 8.97656 10.4766 9.64814 10.4766 10.4766C10.4766 11.305 11.1481 11.9766 11.9766 11.9766Z" fill="#26B5B5"/>
<path d="M16.4766 11.9766C17.305 11.9766 17.9766 11.305 17.9766 10.4766C17.9766 9.64814 17.305 8.97656 16.4766 8.97656C15.6481 8.97656 14.9766 9.64814 14.9766 10.4766C14.9766 11.305 15.6481 11.9766 16.4766 11.9766Z" fill="#26B5B5"/>
<path d="M16.7015 33.1274C16.836 33.2844 17.0015 33.412 17.1875 33.502C17.3736 33.592 17.5763 33.6426 17.7829 33.6506C17.9895 33.6586 18.1955 33.6238 18.388 33.5484C18.5805 33.4729 18.7553 33.3586 18.9015 33.2124C19.0477 33.0662 19.162 32.8914 19.2375 32.6989C19.3129 32.5064 19.3477 32.3004 19.3397 32.0938C19.3317 31.8872 19.2811 31.6845 19.1911 31.4984C19.1011 31.3124 18.9735 31.1469 18.8165 31.0124L15.5615 27.7499L18.8165 24.4874C19.0622 24.2005 19.1906 23.8313 19.1761 23.4538C19.1615 23.0763 19.005 22.7182 18.7378 22.4511C18.4707 22.1839 18.1126 22.0274 17.7351 22.0128C17.3576 21.9983 16.9885 22.1267 16.7015 22.3724L12.3815 26.6924C12.1021 26.9734 11.9453 27.3536 11.9453 27.7499C11.9453 28.1462 12.1021 28.5264 12.3815 28.8074L16.7015 33.1274Z" fill="#26B5B5"/>
<path d="M29.1806 33.127C29.4616 33.4063 29.8418 33.5632 30.2381 33.5632C30.6343 33.5632 31.0145 33.4063 31.2956 33.127L35.6156 28.807C35.8949 28.5259 36.0518 28.1458 36.0518 27.7495C36.0518 27.3532 35.8949 26.973 35.6156 26.692L31.2956 22.372C31.1611 22.2149 30.9956 22.0874 30.8095 21.9974C30.6234 21.9073 30.4207 21.8568 30.2141 21.8488C30.0076 21.8408 29.8016 21.8756 29.6091 21.951C29.4166 22.0264 29.2418 22.1408 29.0956 22.287C28.9494 22.4332 28.835 22.608 28.7596 22.8005C28.6842 22.993 28.6494 23.199 28.6574 23.4056C28.6653 23.6121 28.7159 23.8148 28.806 24.0009C28.896 24.187 29.0235 24.3525 29.1806 24.487L32.4356 27.7495L29.1806 31.012C28.9012 31.293 28.7444 31.6732 28.7444 32.0695C28.7444 32.4657 28.9012 32.8459 29.1806 33.127Z" fill="#26B5B5"/>
<path d="M21.3291 35.1592C21.4929 35.2174 21.6652 35.2478 21.8391 35.2492C22.1473 35.249 22.4481 35.1539 22.7004 34.9768C22.9527 34.7996 23.1443 34.5491 23.2491 34.2592L27.5691 22.2592C27.6915 21.8884 27.6644 21.4844 27.4937 21.1333C27.323 20.7821 27.022 20.5113 26.6548 20.3785C26.2877 20.2457 25.8831 20.2613 25.5273 20.422C25.1714 20.5827 24.8922 20.8759 24.7491 21.2392L20.4291 33.2392C20.294 33.6131 20.3129 34.0254 20.4817 34.3855C20.6504 34.7455 20.9552 35.0238 21.3291 35.1592Z" fill="#26B5B5"/>
</svg>
