<svg width="48" height="48" viewBox="0 0 48 48" fill="none" xmlns="http://www.w3.org/2000/svg">
<g clip-path="url(#clip0_4226_10739)">
<path d="M17 34.75H31V33.25H17V34.75ZM17 26.55H31V25H17V26.55ZM12.75 42C11.9833 42 11.3333 41.7333 10.8 41.2C10.2667 40.6667 10 40.0167 10 39.25V8.75C10 7.98333 10.2667 7.33333 10.8 6.8C11.3333 6.26667 11.9833 6 12.75 6H29.45L38 14.55V39.25C38 40.0167 37.7333 40.6667 37.2 41.2C36.6667 41.7333 36.0167 42 35.25 42H12.75ZM28.7 15.2H36.45L28.7 7.55V15.2Z" fill="#26B5B5"/>
<g clip-path="url(#clip1_4226_10739)">
<path d="M17 34.75H31V33.25H17V34.75ZM17 26.55H31V25H17V26.55ZM12.75 42C11.9833 42 11.3333 41.7333 10.8 41.2C10.2667 40.6667 10 40.0167 10 39.25V8.75C10 7.98333 10.2667 7.33333 10.8 6.8C11.3333 6.26667 11.9833 6 12.75 6H29.45L38 14.55V39.25C38 40.0167 37.7333 40.6667 37.2 41.2C36.6667 41.7333 36.0167 42 35.25 42H12.75ZM28.7 15.2H36.45L28.7 7.55V15.2Z" fill="#26B5B5"/>
</g>
</g>
<defs>
<clipPath id="clip0_4226_10739">
<rect width="48" height="48" fill="white"/>
</clipPath>
<clipPath id="clip1_4226_10739">
<rect width="28" height="22" fill="white" transform="translate(10 20)"/>
</clipPath>
</defs>
</svg>
