<svg width="48" height="48" viewBox="0 0 48 48" fill="none" xmlns="http://www.w3.org/2000/svg">
<g clip-path="url(#clip0_4226_10851)">
<rect width="48" height="48" fill="white"/>
<path d="M32.7573 22.9018V46.3542C30.0448 47.418 27.0903 48.0018 23.9998 48.0018C20.9092 48.0018 17.9557 47.418 15.2422 46.3542V22.9018L20.9434 19.6094V43.051L23.9998 44.8162L27.0561 43.051V19.6094L32.7573 22.9018Z" fill="#26B5B5"/>
<path d="M44.4959 16.1215V36.4892C43.0942 38.7863 41.3162 40.8288 39.2492 42.5313C39.0347 42.7076 38.8172 42.881 38.5968 43.0495V19.5276L23.998 11.0992L9.39912 19.5276V43.0505C7.052 41.25 5.04781 39.0244 3.5 36.4901V16.1215L23.998 4.28906L44.4959 16.1215Z" fill="#26B5B5"/>
</g>
<defs>
<clipPath id="clip0_4226_10851">
<rect width="48" height="48" fill="white"/>
</clipPath>
</defs>
</svg>
