<svg width="48" height="48" viewBox="0 0 48 48" fill="none" xmlns="http://www.w3.org/2000/svg">
<g clip-path="url(#clip0_4226_10723)">
<g clip-path="url(#clip1_4226_10723)">
<path d="M22.5686 22.2773H26.7734L26.0642 25.5951H21.8594L22.5686 22.2773Z" fill="#26B5B5"/>
<path d="M24 6C14.0589 6 6 14.0589 6 24C6 33.9411 14.0589 42 24 42C33.9411 42 42 33.9411 42 24C42 14.0589 33.9411 6 24 6ZM34.7777 22.2778H30.8263L30.1171 25.5955H33.157V29.4965H29.2812L28.4453 33.3722H24.3924L25.2283 29.4965H21.0235L20.1876 33.3722H16.1354L16.9706 29.4965H13.2223V25.5955H17.8066L18.5158 22.2778H14.843V18.3768H19.3265L20.1372 14.6278H24.1901L23.3794 18.3768H27.5842L28.3949 14.6278H32.4478L31.637 18.3768H34.7777V22.2778Z" fill="#26B5B5"/>
</g>
</g>
<defs>
<clipPath id="clip0_4226_10723">
<rect width="48" height="48" fill="white"/>
</clipPath>
<clipPath id="clip1_4226_10723">
<rect width="48" height="48" fill="white"/>
</clipPath>
</defs>
</svg>
