<svg width="48" height="48" viewBox="0 0 48 48" fill="none" xmlns="http://www.w3.org/2000/svg">
<g clip-path="url(#clip0_4226_10819)">
<path d="M23.7641 8.89404C21.5462 10.4539 19.0324 12.222 17.6855 15.1471C15.3461 20.2504 22.4726 25.817 22.7772 26.0515C22.848 26.1059 22.9327 26.1331 23.0172 26.1331C23.1069 26.1331 23.1967 26.1025 23.2697 26.0414C23.4111 25.923 23.4513 25.722 23.3663 25.5584C23.3405 25.5087 20.7825 20.5399 20.8775 16.9753C20.9112 15.7338 22.6487 14.3254 24.488 12.8343C26.1727 11.4685 28.0824 9.9206 29.1997 8.10981C31.6526 4.12392 28.9264 0.204597 28.8985 0.165409C28.7902 0.0133461 28.5904 -0.0416854 28.4195 0.0332212C28.2487 0.108596 28.1541 0.293191 28.1931 0.475723C28.1987 0.501692 28.7288 3.09351 27.2536 5.76381C26.6459 6.86725 25.3105 7.80644 23.7641 8.89404Z" fill="#26B5B5"/>
<path d="M33.1069 10.6531C33.2633 10.5352 33.3093 10.3202 33.2147 10.1487C33.1199 9.97712 32.9136 9.90146 32.7304 9.97103C32.3537 10.1143 23.5039 13.5256 23.5039 17.6473C23.5039 20.4886 24.7176 21.9895 25.6038 23.0857C25.9514 23.5156 26.2515 23.8869 26.3504 24.2038C26.6289 25.1172 25.9693 26.7682 25.6919 27.3273C25.6119 27.488 25.6511 27.6828 25.7871 27.8002C25.8606 27.8637 25.9524 27.8959 26.0443 27.8959C26.1224 27.8959 26.201 27.8727 26.2689 27.8254C26.421 27.7197 29.9877 25.198 29.348 22.1598C29.1097 21.005 28.5422 20.1612 28.0415 19.4167C27.2658 18.2631 26.7056 17.4298 27.5555 15.8908C28.5513 14.0957 33.0612 10.6872 33.1069 10.6531Z" fill="#26B5B5"/>
<path d="M10.0698 27.9635C9.91809 28.4177 9.98972 28.8683 10.2767 29.2669C11.236 30.5988 14.6342 31.3321 19.8456 31.3321C19.8459 31.3321 19.8461 31.3321 19.8463 31.3321C20.5524 31.3321 21.2979 31.3182 22.0615 31.2909C30.3935 30.9926 33.4839 28.3969 33.6114 28.2865C33.7504 28.1663 33.7875 27.966 33.7012 27.804C33.6147 27.6421 33.4284 27.5607 33.2504 27.6098C30.3159 28.4109 24.8365 28.6954 21.0359 28.6954C16.7831 28.6954 14.6172 28.389 14.087 28.1628C14.359 27.7892 16.0372 27.1221 18.1167 26.713C18.3154 26.674 18.452 26.4905 18.4323 26.2889C18.4126 26.0873 18.2433 25.9336 18.0407 25.9336C16.8218 25.9336 10.7088 26.0315 10.0698 27.9635Z" fill="#26B5B5"/>
<path d="M37.948 25.2891C36.2294 25.2891 34.5998 26.1504 34.5311 26.1869C34.3722 26.272 34.2916 26.4543 34.3352 26.6294C34.379 26.8043 34.5362 26.9272 34.7165 26.9274C34.7529 26.9274 38.3823 26.9571 38.711 29.0307C39.0022 30.8197 35.277 33.7183 33.817 34.6843C33.6593 34.7886 33.5981 34.9902 33.6713 35.1645C33.7337 35.3129 33.8782 35.4058 34.034 35.4058C34.0612 35.4058 34.0887 35.4029 34.1161 35.3971C34.4626 35.323 42.5917 33.5316 41.7322 28.7986C41.2078 25.898 39.3848 25.2891 37.948 25.2891Z" fill="#26B5B5"/>
<path d="M32.3764 34.1046C32.4047 33.9531 32.3416 33.7988 32.2154 33.7102L30.2663 32.3449C30.1712 32.2784 30.0511 32.2575 29.9395 32.287C29.9192 32.2922 27.8809 32.828 24.9216 33.1566C23.7471 33.2884 22.4315 33.3579 21.117 33.3579C18.1584 33.3579 16.224 33.0103 15.9422 32.7553C15.9049 32.6837 15.9167 32.6511 15.9234 32.633C15.9746 32.4907 16.2489 32.3216 16.4257 32.2547C16.621 32.1824 16.7263 31.9703 16.6655 31.7712C16.605 31.5718 16.3996 31.4545 16.1969 31.5032C14.2416 31.975 13.2855 32.6348 13.3551 33.4642C13.4787 34.9348 16.8848 35.6896 19.7643 35.8891C20.1784 35.9174 20.6263 35.9317 21.0951 35.9317C21.0954 35.9317 21.0956 35.9317 21.0959 35.9317C25.8841 35.9317 32.0225 34.4294 32.0838 34.4141C32.2337 34.3776 32.348 34.2565 32.3764 34.1046Z" fill="#26B5B5"/>
<path d="M17.6795 37.2619C17.8272 37.1659 17.8926 36.9834 17.8402 36.8153C17.788 36.6472 17.6308 36.5368 17.4541 36.5391C17.1921 36.546 14.8901 36.6499 14.729 38.1155C14.6802 38.5535 14.8057 38.9537 15.102 39.3048C15.9285 40.2843 18.1596 40.8665 21.9215 41.0846C22.3666 41.1113 22.8186 41.1247 23.2653 41.1247C28.048 41.1247 31.2691 39.6272 31.404 39.5635C31.5348 39.5016 31.621 39.3731 31.6287 39.2287C31.6364 39.0843 31.5643 38.9474 31.4409 38.8719L28.9776 37.3681C28.8921 37.316 28.7899 37.2988 28.6924 37.3187C28.6768 37.322 27.1128 37.6464 24.7524 37.9668C24.3058 38.0276 23.7465 38.0584 23.0902 38.0584C20.7324 38.0584 18.1098 37.6732 17.6068 37.4209C17.5995 37.3738 17.6088 37.314 17.6795 37.2619Z" fill="#26B5B5"/>
<path d="M21.0367 45.6475C31.9918 45.6383 37.8715 43.69 39.0042 42.4641C39.4052 42.0304 39.4485 41.6197 39.4145 41.3515C39.3303 40.6915 38.7291 40.2875 38.6609 40.2436C38.4965 40.1378 38.2758 40.1655 38.1475 40.3134C38.0196 40.4614 38.0166 40.6776 38.145 40.8254C38.2141 40.9143 38.254 41.0631 38.052 41.2653C37.5992 41.6882 33.0321 42.9719 25.428 43.3576C24.3863 43.4117 23.2937 43.4393 22.1808 43.4394C15.3724 43.4394 10.3897 42.5068 9.73556 41.9634C9.98765 41.6012 11.7502 41.0225 13.6245 40.6951C13.8357 40.6582 13.9784 40.4592 13.9457 40.2473C13.913 40.0356 13.7177 39.8898 13.5042 39.9174C13.4514 39.9246 13.2719 39.9353 13.0642 39.9481C9.97153 40.1369 6.39767 40.5577 6.2112 42.1512C6.15457 42.6367 6.29886 43.0776 6.6402 43.4612C7.47542 44.3996 9.87609 45.6474 21.0363 45.6474C21.0365 45.6475 21.0365 45.6475 21.0367 45.6475Z" fill="#26B5B5"/>
<path d="M41.1562 42.8099C41.0013 42.7382 40.8183 42.7744 40.7028 42.8991C40.6867 42.9165 39.0396 44.6387 34.0874 45.6501C32.1915 46.03 28.6327 46.2227 23.5099 46.2227C18.3775 46.2227 13.4938 46.0207 13.4451 46.0187C13.2411 46.0087 13.0667 46.157 13.0389 46.3578C13.0111 46.5585 13.1405 46.7477 13.3374 46.7945C13.3882 46.8065 18.5063 48.0056 25.5043 48.0056C28.8606 48.0056 32.1267 47.7331 35.2119 47.1951C40.9645 46.1867 41.3673 43.3342 41.3816 43.2133C41.4017 43.0442 41.3108 42.8815 41.1562 42.8099Z" fill="#26B5B5"/>
</g>
<defs>
<clipPath id="clip0_4226_10819">
<rect width="48" height="48" fill="white"/>
</clipPath>
</defs>
</svg>
