<svg width="48" height="48" viewBox="0 0 48 48" fill="none" xmlns="http://www.w3.org/2000/svg">
<g clip-path="url(#clip0_4226_10983)">
<path d="M43.5 3.375H4.5C3.30653 3.375 2.16193 3.84911 1.31802 4.69302C0.474106 5.53693 0 6.68153 0 7.875L0 34.125C0 35.3185 0.474106 36.4631 1.31802 37.307C2.16193 38.1509 3.30653 38.625 4.5 38.625H16.5V41.625H14.625C14.2272 41.625 13.8456 41.783 13.5643 42.0643C13.283 42.3456 13.125 42.7272 13.125 43.125C13.125 43.5228 13.283 43.9044 13.5643 44.1857C13.8456 44.467 14.2272 44.625 14.625 44.625H33.375C33.7728 44.625 34.1544 44.467 34.4357 44.1857C34.717 43.9044 34.875 43.5228 34.875 43.125C34.875 42.7272 34.717 42.3456 34.4357 42.0643C34.1544 41.783 33.7728 41.625 33.375 41.625H31.5V38.625H43.5C44.6935 38.625 45.8381 38.1509 46.682 37.307C47.5259 36.4631 48 35.3185 48 34.125V7.875C48 6.68153 47.5259 5.53693 46.682 4.69302C45.8381 3.84911 44.6935 3.375 43.5 3.375ZM28.5 41.625H19.5V38.625H28.5V41.625ZM45 34.125C45 34.5228 44.842 34.9044 44.5607 35.1857C44.2794 35.467 43.8978 35.625 43.5 35.625H4.5C4.10218 35.625 3.72064 35.467 3.43934 35.1857C3.15804 34.9044 3 34.5228 3 34.125V7.875C3 7.47718 3.15804 7.09564 3.43934 6.81434C3.72064 6.53304 4.10218 6.375 4.5 6.375H43.5C43.8978 6.375 44.2794 6.53304 44.5607 6.81434C44.842 7.09564 45 7.47718 45 7.875V34.125Z" fill="#26B5B5"/>
<path d="M23.9992 14.8867C22.7903 14.8867 21.6085 15.2452 20.6033 15.9169C19.5981 16.5885 18.8146 17.5432 18.352 18.6601C17.8894 19.777 17.7683 21.006 18.0042 22.1917C18.24 23.3774 18.8222 24.4666 19.677 25.3214C20.5319 26.1763 21.621 26.7584 22.8067 26.9943C23.9924 27.2301 25.2215 27.1091 26.3384 26.6464C27.4553 26.1838 28.4099 25.4003 29.0816 24.3951C29.7532 23.3899 30.1117 22.2082 30.1117 20.9992C30.1097 19.3787 29.4651 17.8251 28.3192 16.6792C27.1733 15.5333 25.6197 14.8887 23.9992 14.8867ZM23.9992 24.1117C23.3836 24.1117 22.7819 23.9292 22.27 23.5872C21.7582 23.2452 21.3592 22.7591 21.1236 22.1903C20.8881 21.6216 20.8264 20.9958 20.9465 20.392C21.0666 19.7882 21.3631 19.2336 21.7984 18.7983C22.2336 18.3631 22.7882 18.0666 23.392 17.9465C23.9958 17.8264 24.6216 17.8881 25.1903 18.1236C25.7591 18.3592 26.2452 18.7582 26.5872 19.27C26.9292 19.7819 27.1117 20.3836 27.1117 20.9992C27.1117 21.8247 26.7838 22.6164 26.2001 23.2001C25.6164 23.7838 24.8247 24.1117 23.9992 24.1117Z" fill="#26B5B5"/>
<path d="M35.399 24.375C35.754 24.3175 36.0764 24.1344 36.3077 23.8591C36.539 23.5837 36.6637 23.2345 36.659 22.875V19.1025C36.6637 18.7429 36.539 18.3937 36.3077 18.1184C36.0764 17.8431 35.754 17.66 35.399 17.6025L33.239 17.25L33.1715 17.085L34.4465 15.3075C34.6539 15.0186 34.7519 14.6655 34.723 14.3111C34.6942 13.9566 34.5404 13.624 34.289 13.3725L31.604 10.6875C31.3525 10.4361 31.0199 10.2823 30.6654 10.2535C30.311 10.2246 29.9579 10.3226 29.669 10.53L27.8915 11.805L27.749 11.76L27.374 9.59997C27.3165 9.24503 27.1334 8.92256 26.8581 8.69129C26.5828 8.46002 26.2336 8.33534 25.874 8.33997H22.1015C21.742 8.33534 21.3928 8.46002 21.1174 8.69129C20.8421 8.92256 20.659 9.24503 20.6015 9.59997L20.249 11.76L20.084 11.8275L18.3065 10.5525C18.0177 10.3451 17.6645 10.2471 17.3101 10.276C16.9557 10.3048 16.6231 10.4586 16.3715 10.71L13.6865 13.395C13.4352 13.6465 13.2814 13.9791 13.2525 14.3336C13.2237 14.688 13.3217 15.0411 13.529 15.33L14.804 17.1075L14.7365 17.2725L12.5765 17.625C12.2216 17.6825 11.8991 17.8656 11.6678 18.1409C11.4366 18.4162 11.3119 18.7654 11.3165 19.125V22.92C11.3119 23.2795 11.4366 23.6287 11.6678 23.9041C11.8991 24.1794 12.2216 24.3625 12.5765 24.42L14.7365 24.7725L14.804 24.9375L13.529 26.715C13.3217 27.0038 13.2237 27.357 13.2525 27.7114C13.2814 28.0658 13.4352 28.3984 13.6865 28.65L16.3715 31.335C16.6231 31.5863 16.9557 31.7401 17.3101 31.769C17.6645 31.7978 18.0177 31.6998 18.3065 31.4925L20.084 30.2175L20.249 30.285L20.6015 32.445C20.659 32.7999 20.8421 33.1224 21.1174 33.3536C21.3928 33.5849 21.742 33.7096 22.1015 33.705H25.8965C26.2561 33.7096 26.6053 33.5849 26.8806 33.3536C27.1559 33.1224 27.339 32.7999 27.3965 32.445L27.749 30.24L27.914 30.1725L29.6915 31.4475C29.9804 31.6548 30.3335 31.7528 30.6879 31.724C31.0424 31.6951 31.375 31.5413 31.6265 31.29L34.3115 28.605C34.5629 28.3534 34.7167 28.0208 34.7455 27.6664C34.7744 27.312 34.6764 26.9588 34.469 26.67L33.194 24.8925L33.2615 24.7275L35.399 24.375ZM31.8815 21.915C31.603 21.9595 31.3427 22.0816 31.1305 22.2673C30.9182 22.453 30.7626 22.6948 30.6815 22.965C30.5409 23.4355 30.3524 23.8904 30.119 24.3225C29.9828 24.5708 29.9197 24.8526 29.9369 25.1353C29.9542 25.418 30.0511 25.6901 30.2165 25.92L31.2665 27.42L30.389 28.2975L28.889 27.2475C28.6583 27.0806 28.3849 26.9828 28.1007 26.9655C27.8165 26.9482 27.5332 27.0122 27.284 27.15C26.8567 27.3878 26.4038 27.5765 25.934 27.7125C25.6639 27.7935 25.4221 27.9491 25.2364 28.1614C25.0507 28.3736 24.9285 28.634 24.884 28.9125L24.5915 30.69H23.3765L23.084 28.9125C23.0395 28.634 22.9174 28.3736 22.7317 28.1614C22.546 27.9491 22.3042 27.7935 22.034 27.7125C21.5643 27.5765 21.1114 27.3878 20.684 27.15C20.4348 27.0122 20.1516 26.9482 19.8674 26.9655C19.5831 26.9828 19.3097 27.0806 19.079 27.2475L17.579 28.2975L16.7015 27.42L17.7515 25.92C17.9169 25.6901 18.0139 25.418 18.0311 25.1353C18.0484 24.8526 17.9853 24.5708 17.849 24.3225C17.6157 23.8904 17.4272 23.4355 17.2865 22.965C17.2055 22.6948 17.0499 22.453 16.8376 22.2673C16.6253 22.0816 16.365 21.9595 16.0865 21.915L14.309 21.6225V20.3775L16.0865 20.085C16.365 20.0405 16.6253 19.9183 16.8376 19.7326C17.0499 19.5469 17.2055 19.3051 17.2865 19.035C17.4272 18.5645 17.6157 18.1096 17.849 17.6775C17.9853 17.4291 18.0484 17.1473 18.0311 16.8646C18.0139 16.5819 17.9169 16.3099 17.7515 16.08L16.7015 14.58L17.579 13.7025L19.079 14.7525C19.3097 14.9194 19.5831 15.0172 19.8674 15.0344C20.1516 15.0517 20.4348 14.9877 20.684 14.85C21.1114 14.6122 21.5643 14.4235 22.034 14.2875C22.3042 14.2064 22.546 14.0508 22.7317 13.8385C22.9174 13.6263 23.0395 13.366 23.084 13.0875L23.3765 11.31H24.6215L24.914 13.0875C24.9585 13.366 25.0807 13.6263 25.2664 13.8385C25.4521 14.0508 25.6939 14.2064 25.964 14.2875C26.4338 14.4235 26.8867 14.6122 27.314 14.85C27.5632 14.9877 27.8465 15.0517 28.1307 15.0344C28.4149 15.0172 28.6883 14.9194 28.919 14.7525L30.419 13.7025L31.2965 14.58L30.2465 16.08C30.0811 16.3099 29.9842 16.5819 29.9669 16.8646C29.9497 17.1473 30.0128 17.4291 30.149 17.6775C30.3824 18.1096 30.5709 18.5645 30.7115 19.035C30.7926 19.3051 30.9482 19.5469 31.1605 19.7326C31.3727 19.9183 31.633 20.0405 31.9115 20.085L33.689 20.3775V21.6225L31.8815 21.915Z" fill="#26B5B5"/>
<path d="M38.6987 14.0268C38.427 13.7816 38.0749 13.6443 37.7089 13.6407C37.343 13.6371 36.9883 13.7674 36.7117 14.0071C36.4351 14.2468 36.2557 14.5794 36.2073 14.9422C36.1588 15.305 36.2447 15.6729 36.4487 15.9768L40.7162 21.0018L36.4187 26.0268C36.2147 26.3307 36.1288 26.6986 36.1773 27.0614C36.2257 27.4242 36.4051 27.7568 36.6817 27.9965C36.9583 28.2362 37.313 28.3665 37.6789 28.3629C38.0449 28.3593 38.397 28.2219 38.6687 27.9768L43.7987 21.9768C44.0311 21.7051 44.1588 21.3593 44.1588 21.0018C44.1588 20.6443 44.0311 20.2985 43.7987 20.0268L38.6987 14.0268Z" fill="#26B5B5"/>
<path d="M7.28244 21.0018L11.5799 15.9768C11.784 15.6729 11.8699 15.305 11.8214 14.9422C11.773 14.5794 11.5936 14.2468 11.317 14.0071C11.0404 13.7674 10.6857 13.6371 10.3198 13.6407C9.95376 13.6443 9.60172 13.7816 9.32994 14.0268L4.19994 20.0268C3.96755 20.2985 3.83984 20.6443 3.83984 21.0018C3.83984 21.3593 3.96755 21.7051 4.19994 21.9768L9.32994 27.9768C9.47077 28.1414 9.6456 28.2736 9.84239 28.3643C10.0392 28.4549 10.2533 28.5018 10.4699 28.5018C10.7567 28.5018 11.0374 28.4196 11.2789 28.265C11.5204 28.1104 11.7125 27.8898 11.8325 27.6293C11.9524 27.3689 11.9952 27.0795 11.9558 26.7955C11.9163 26.5115 11.7963 26.2447 11.6099 26.0268L7.28244 21.0018Z" fill="#26B5B5"/>
</g>
<defs>
<clipPath id="clip0_4226_10983">
<rect width="48" height="48" fill="white"/>
</clipPath>
</defs>
</svg>
