<svg width="80" height="80" viewBox="0 0 80 80" fill="none" xmlns="http://www.w3.org/2000/svg">
<path d="M40.2985 79.0326C23.6455 65.5041 10.5311 52.4568 0.939831 39.893C11.3009 26.1267 24.4177 13.1435 40.2989 0.946264C54.4896 11.9387 67.4063 24.9198 79.0483 39.8928C73.9264 46.3794 67.7188 53.2686 60.4222 60.5604C53.137 67.8409 46.4293 73.9973 40.2985 79.0326Z" fill="#ECF4F5" stroke="url(#paint0_linear_4574_25011)" stroke-width="1.5"/>
<path d="M24.0347 36.9052L30.7452 30.1184C31.2536 29.61 31.8446 29.2605 32.5182 29.0699C33.1918 28.8792 33.8972 28.8475 34.6343 28.9745L37.6464 29.5083C36.1213 31.2368 34.8694 32.8954 33.8908 34.484C32.9122 36.0727 32.0035 37.8965 31.1647 39.9554L24.0347 36.9052ZM32.9567 40.5654C33.9226 38.3032 34.9647 36.3142 36.0832 34.5984C37.2016 32.8827 38.4471 31.3385 39.8197 29.9659C42.0565 27.729 44.7064 26.0578 47.7694 24.952C50.8323 23.8463 53.7618 23.4841 56.5579 23.8654C56.9392 26.6614 56.5897 29.5909 55.5094 32.6539C54.4291 35.7168 52.7705 38.354 50.5337 40.5654C49.1611 41.9635 47.5915 43.228 45.8249 44.3592C44.0583 45.4903 42.0693 46.5388 39.8578 47.5047L32.9567 40.5654ZM44.8907 35.4944C45.3991 36.0028 45.9964 36.257 46.6827 36.257C47.369 36.257 47.9664 36.0028 48.4748 35.4944C48.9577 35.0115 49.1992 34.4268 49.1992 33.7405C49.1992 33.0542 48.9577 32.4569 48.4748 31.9485C47.9664 31.491 47.369 31.2622 46.6827 31.2622C45.9964 31.2622 45.3991 31.491 44.8907 31.9485C44.4078 32.4569 44.1663 33.0542 44.1663 33.7405C44.1663 34.4268 44.4078 35.0115 44.8907 35.4944ZM43.5181 56.3885L40.4298 49.2586C42.4887 48.4198 44.3061 47.5111 45.882 46.5325C47.458 45.5539 49.1356 44.302 50.9149 42.7769L51.4487 45.789C51.5758 46.5515 51.5377 47.2696 51.3343 47.9432C51.131 48.6168 50.7751 49.1951 50.2668 49.678L43.5181 56.3885ZM26.8181 46.1321C27.8602 45.09 29.1312 44.5752 30.6309 44.5879C32.1306 44.6007 33.4015 45.1154 34.4437 46.1321C35.4604 47.1489 35.9815 48.4135 36.0069 49.9259C36.0323 51.4383 35.524 52.7156 34.4818 53.7577C33.5921 54.622 32.2704 55.3083 30.5165 55.8166C28.7626 56.325 26.4368 56.719 23.5391 56.9986C23.8441 54.1009 24.2508 51.7814 24.7592 50.0402C25.2675 48.2991 25.9538 46.9964 26.8181 46.1321Z" fill="#26B5B5"/>
<defs>
<linearGradient id="paint0_linear_4574_25011" x1="-1.04793e-06" y1="47.0588" x2="80" y2="43.2941" gradientUnits="userSpaceOnUse">
<stop stop-color="#26B5B5"/>
<stop offset="1" stop-color="#C7FF50"/>
</linearGradient>
</defs>
</svg>
