<svg width="80" height="80" viewBox="0 0 80 80" fill="none" xmlns="http://www.w3.org/2000/svg">
<path d="M40.2985 79.0326C23.6455 65.5041 10.5311 52.4568 0.939831 39.893C11.3009 26.1267 24.4177 13.1435 40.2989 0.946264C54.4896 11.9387 67.4063 24.9198 79.0483 39.8928C73.9264 46.3794 67.7188 53.2686 60.4222 60.5604C53.137 67.8409 46.4293 73.9973 40.2985 79.0326Z" fill="#ECF4F5" stroke="url(#paint0_linear_4574_24941)" stroke-width="1.5"/>
<path d="M54.2348 23.332H25.7626C24.4223 23.332 23.332 24.3133 23.332 25.5195V28.6445C23.332 29.8508 24.4223 30.832 25.7626 30.832H54.2348C55.5751 30.832 56.6654 29.8508 56.6654 28.6445V25.5195C56.6654 24.3133 55.5751 23.332 54.2348 23.332Z" fill="#26B5B5"/>
<path d="M25.7184 56.6667H35.9457C37.2616 56.6667 38.332 55.6036 38.332 54.2969V37.3698C38.332 36.063 37.2616 35 35.9457 35H25.7184C24.4025 35 23.332 36.063 23.332 37.3698V54.2969C23.332 55.6036 24.4025 56.6667 25.7184 56.6667Z" fill="#26B5B5"/>
<path d="M54.2816 35H44.0543C42.7384 35 41.668 36.028 41.668 37.2917V41.875C41.668 43.1387 42.7384 44.1667 44.0543 44.1667H54.2816C55.5975 44.1667 56.668 43.1387 56.668 41.875V37.2917C56.668 36.028 55.5975 35 54.2816 35Z" fill="#26B5B5"/>
<path d="M54.2816 48.332H44.0543C42.7384 48.332 41.668 49.2666 41.668 50.4154V54.582C41.668 55.7308 42.7384 56.6654 44.0543 56.6654H54.2816C55.5975 56.6654 56.668 55.7308 56.668 54.582V50.4154C56.668 49.2666 55.5975 48.332 54.2816 48.332Z" fill="#26B5B5"/>
<defs>
<linearGradient id="paint0_linear_4574_24941" x1="-1.04793e-06" y1="47.0588" x2="80" y2="43.2941" gradientUnits="userSpaceOnUse">
<stop stop-color="#26B5B5"/>
<stop offset="1" stop-color="#C7FF50"/>
</linearGradient>
</defs>
</svg>
