<svg width="80" height="80" viewBox="0 0 80 80" fill="none" xmlns="http://www.w3.org/2000/svg">
<path d="M40.2985 79.0326C23.6455 65.5041 10.5311 52.4568 0.939831 39.893C11.3009 26.1267 24.4177 13.1435 40.2989 0.946264C54.4896 11.9387 67.4063 24.9198 79.0483 39.8928C73.9264 46.3794 67.7188 53.2686 60.4222 60.5604C53.137 67.8409 46.4293 73.9973 40.2985 79.0326Z" fill="#ECF4F5" stroke="url(#paint0_linear_4574_24930)" stroke-width="1.5"/>
<path d="M24.3555 55.6471V51.5638L28.043 47.8763V55.6471H24.3555ZM31.2721 55.6471V44.8555L34.9596 41.168V55.6471H31.2721ZM38.1888 55.6471V41.168L41.8763 44.8555V55.6471H38.1888ZM45.1055 55.6471V44.7721L48.793 41.1263V55.6471H45.1055ZM52.0221 55.6471V38.0638L55.668 34.418V55.6471H52.0221ZM24.3555 46.543V41.1055L36.668 28.8555L43.3346 35.5221L55.668 23.168V28.5638L43.3346 40.9596L36.668 34.293L24.3555 46.543Z" fill="#26B5B5"/>
<defs>
<linearGradient id="paint0_linear_4574_24930" x1="-1.04793e-06" y1="47.0588" x2="80" y2="43.2941" gradientUnits="userSpaceOnUse">
<stop stop-color="#26B5B5"/>
<stop offset="1" stop-color="#C7FF50"/>
</linearGradient>
</defs>
</svg>
