<svg width="80" height="80" viewBox="0 0 80 80" fill="none" xmlns="http://www.w3.org/2000/svg">
<path d="M40.2985 79.0326C23.6455 65.5041 10.5311 52.4568 0.939831 39.893C11.3009 26.1267 24.4177 13.1435 40.2989 0.946264C54.4896 11.9387 67.4063 24.9198 79.0483 39.8928C73.9264 46.3794 67.7188 53.2686 60.4222 60.5604C53.137 67.8409 46.4293 73.9973 40.2985 79.0326Z" fill="#ECF4F5" stroke="url(#paint0_linear_4574_25000)" stroke-width="1.5"/>
<path d="M53.75 57.5H33.75C31.6789 57.5 30 55.8211 30 53.75L57.5 53.75C57.5 55.8211 55.8211 57.5 53.75 57.5Z" fill="#26B5B5"/>
<path d="M52.5 40H35C33.6193 40 32.5 41.1192 32.5 42.5V52.5H55V42.5C55 41.1192 53.8807 40 52.5 40ZM41.0254 48.8953C41.2903 49.1162 41.3257 49.5105 41.1053 49.7754C40.9814 49.9231 40.8038 50 40.6244 50C40.4834 50 40.3418 49.9524 40.2246 49.8547L36.4746 46.7297C36.3324 46.6113 36.25 46.4355 36.25 46.25C36.25 46.0645 36.3324 45.8887 36.4746 45.7703L40.2246 42.6453C40.4913 42.4231 40.885 42.4597 41.1053 42.7246C41.3257 42.9895 41.2903 43.3838 41.0254 43.6047L37.8516 46.25L41.0254 48.8953ZM43.738 49.4971C43.6782 49.7949 43.4182 50 43.1264 50C43.0849 50 43.0434 49.9963 43.0032 49.9878C42.6638 49.9207 42.4441 49.5911 42.5124 49.2529L43.7624 43.0029C43.8308 42.6624 44.1763 42.4426 44.4973 42.5122C44.8367 42.5793 45.0564 42.9089 44.988 43.2471L43.738 49.4971ZM51.0253 46.73L47.2753 49.855C47.1581 49.9527 47.0165 50.0003 46.8755 50.0003C46.6961 50.0003 46.5185 49.9234 46.3946 49.7757C46.1742 49.5108 46.2096 49.1165 46.4745 48.8956L49.6484 46.2503L46.4745 43.605C46.2096 43.3841 46.1742 42.9898 46.3946 42.7249C46.6149 42.46 47.0086 42.4234 47.2753 42.6456L51.0253 45.7706C51.1675 45.889 51.2499 46.0648 51.2499 46.2503C51.2499 46.4359 51.1675 46.6116 51.0253 46.73Z" fill="#26B5B5"/>
<path d="M29.125 22.5H37.125L36.25 25H30L29.125 22.5Z" fill="#26B5B5"/>
<path d="M42.5 22.5H38.75L37.7849 25.3953C37.6147 25.9057 37.1371 26.25 36.599 26.25H29.651C29.1129 26.25 28.6353 25.9057 28.4651 25.3953L27.5 22.5H23.75C23.0596 22.5 22.5 23.0596 22.5 23.75V50C22.5 50.6904 23.0596 51.25 23.75 51.25H31.25V42.5C31.25 40.4321 32.9321 38.75 35 38.75H43.75V23.75C43.75 23.0596 43.1904 22.5 42.5 22.5ZM29.8169 44.8169L27.3169 47.3169C27.1948 47.439 27.0349 47.5 26.875 47.5C26.7151 47.5 26.5552 47.439 26.4331 47.3169L25.1831 46.0669C24.939 45.8228 24.939 45.4272 25.1831 45.1831C25.4272 44.939 25.8228 44.939 26.0669 45.1831L26.875 45.9912L28.9331 43.9331C29.1772 43.689 29.5728 43.689 29.8169 43.9331C30.061 44.1772 30.061 44.5728 29.8169 44.8169ZM29.8169 37.3169L27.3169 39.8169C27.1948 39.939 27.0349 40 26.875 40C26.7151 40 26.5552 39.939 26.4331 39.8169L25.1831 38.5669C24.939 38.3228 24.939 37.9272 25.1831 37.6831C25.4272 37.439 25.8228 37.439 26.0669 37.6831L26.875 38.4912L28.9331 36.4331C29.1772 36.189 29.5728 36.189 29.8169 36.4331C30.061 36.6772 30.061 37.0728 29.8169 37.3169ZM29.8169 29.8169L27.3169 32.3169C27.1948 32.439 27.0349 32.5 26.875 32.5C26.7151 32.5 26.5552 32.439 26.4331 32.3169L25.1831 31.0669C24.939 30.8228 24.939 30.4272 25.1831 30.1831C25.4272 29.939 25.8228 29.939 26.0669 30.1831L26.875 30.9912L28.9331 28.9331C29.1772 28.689 29.5728 28.689 29.8169 28.9331C30.061 29.1772 30.061 29.5728 29.8169 29.8169Z" fill="#26B5B5"/>
<defs>
<linearGradient id="paint0_linear_4574_25000" x1="-1.04793e-06" y1="47.0588" x2="80" y2="43.2941" gradientUnits="userSpaceOnUse">
<stop stop-color="#26B5B5"/>
<stop offset="1" stop-color="#C7FF50"/>
</linearGradient>
</defs>
</svg>
