<svg width="80" height="80" viewBox="0 0 80 80" fill="none" xmlns="http://www.w3.org/2000/svg">
<path d="M40.2985 79.0326C23.6455 65.5041 10.5311 52.4568 0.939831 39.893C11.3009 26.1267 24.4177 13.1435 40.2989 0.946264C54.4896 11.9387 67.4063 24.9198 79.0483 39.8928C73.9264 46.3794 67.7188 53.2686 60.4222 60.5604C53.137 67.8409 46.4293 73.9973 40.2985 79.0326Z" fill="#ECF4F5" stroke="url(#paint0_linear_4574_24984)" stroke-width="1.5"/>
<path d="M32 50.6654V57.332C32 57.6857 32.1405 58.0248 32.3905 58.2748C32.6406 58.5249 32.9797 58.6654 33.3333 58.6654H46.6667C47.0203 58.6654 47.3594 58.5249 47.6095 58.2748C47.8595 58.0248 48 57.6857 48 57.332V50.6654C48 50.3117 47.8595 49.9726 47.6095 49.7226C47.3594 49.4725 47.0203 49.332 46.6667 49.332H33.3333C32.9797 49.332 32.6406 49.4725 32.3905 49.7226C32.1405 49.9726 32 50.3117 32 50.6654ZM42.9633 53.22C42.8162 53.1219 42.7141 52.9694 42.6795 52.7959C42.6449 52.6225 42.6805 52.4425 42.7787 52.2954C42.8768 52.1483 43.0293 52.0462 43.2028 52.0115C43.3762 51.9769 43.5562 52.0126 43.7033 52.1107L45.7033 53.444C45.7946 53.5049 45.8695 53.5874 45.9213 53.6842C45.9731 53.7809 46.0002 53.889 46.0002 53.9987C46.0002 54.1084 45.9731 54.2165 45.9213 54.3132C45.8695 54.41 45.7946 54.4925 45.7033 54.5534L43.7033 55.8867C43.5562 55.9848 43.3762 56.0205 43.2028 55.9859C43.0293 55.9512 42.8768 55.8491 42.7787 55.702C42.6805 55.5549 42.6449 55.3749 42.6795 55.2015C42.7141 55.028 42.8162 54.8755 42.9633 54.7774L44.1333 53.9987L42.9633 53.22ZM38.7013 55.788L40.0347 51.788C40.0905 51.6201 40.2108 51.4812 40.3691 51.4019C40.5274 51.3226 40.7107 51.3095 40.8787 51.3654C41.0466 51.4212 41.1855 51.5415 41.2648 51.6998C41.3441 51.8581 41.3572 52.0414 41.3013 52.2094L39.968 56.2094C39.9121 56.3773 39.7918 56.5162 39.6335 56.5955C39.4753 56.6748 39.292 56.6879 39.124 56.632C38.956 56.5762 38.8171 56.4559 38.7379 56.2976C38.6586 56.1393 38.6455 55.956 38.7013 55.788ZM34.2967 53.444L36.2967 52.1107C36.4438 52.0126 36.6238 51.9769 36.7972 52.0115C36.9707 52.0462 37.1232 52.1483 37.2213 52.2954C37.3195 52.4425 37.3551 52.6225 37.3205 52.7959C37.2859 52.9694 37.1838 53.1219 37.0367 53.22L35.8667 53.9987L37.0347 54.7774C37.1818 54.8755 37.2839 55.028 37.3185 55.2015C37.3531 55.3749 37.3175 55.5549 37.2193 55.702C37.1212 55.8491 36.9687 55.9512 36.7952 55.9859C36.6218 56.0205 36.4418 55.9848 36.2947 55.8867L34.2947 54.5534C34.2034 54.4925 34.1285 54.41 34.0767 54.3132C34.0249 54.2165 33.9979 54.1084 33.9979 53.9987C33.9979 53.889 34.0249 53.7809 34.0767 53.6842C34.1285 53.5874 34.2034 53.5049 34.2947 53.444H34.2967Z" fill="#26B5B5"/>
<path d="M41.999 48.001V37.3344C41.999 37.1575 42.0692 36.988 42.1942 36.8629C42.3193 36.7379 42.4888 36.6677 42.6656 36.6677H43.959L39.999 31.4297L36.0703 36.6677H37.3323C37.5091 36.6677 37.6787 36.7379 37.8037 36.8629C37.9287 36.988 37.999 37.1575 37.999 37.3344V48.001H41.999Z" fill="#26B5B5"/>
<path d="M36.6667 44.0013V38.0013H35.88C35.6557 38.0004 35.436 37.9369 35.2458 37.8179C35.0556 37.699 34.9024 37.5293 34.8033 37.328C34.6952 37.1157 34.6486 36.8774 34.6688 36.64C34.6889 36.4027 34.775 36.1757 34.9173 35.9846L39.0407 30.488C39.1551 30.3431 39.3009 30.2261 39.467 30.1456C39.6332 30.0651 39.8154 30.0233 40 30.0233C40.1846 30.0233 40.3668 30.0651 40.533 30.1456C40.6991 30.2261 40.8449 30.3431 40.9593 30.488L45.08 35.982C45.2238 36.1727 45.3112 36.3999 45.3325 36.6378C45.3537 36.8757 45.3078 37.1148 45.2 37.328C45.1007 37.5298 44.947 37.6998 44.7561 37.8188C44.5653 37.9378 44.3449 38.001 44.12 38.0013H43.3333V44.0013H52.6667C53.0203 44.0013 53.3594 43.8608 53.6095 43.6108C53.8595 43.3607 54 43.0216 54 42.668V26.668H26V42.668C26 43.0216 26.1405 43.3607 26.3905 43.6108C26.6406 43.8608 26.9797 44.0013 27.3333 44.0013H36.6667Z" fill="#26B5B5"/>
<path d="M27.3333 21.3359C26.9797 21.3359 26.6406 21.4764 26.3905 21.7265C26.1405 21.9765 26 22.3156 26 22.6693V25.3359H54V22.6693C54 22.3156 53.8595 21.9765 53.6095 21.7265C53.3594 21.4764 53.0203 21.3359 52.6667 21.3359H27.3333ZM28.6667 24.0026H28C27.8232 24.0026 27.6536 23.9324 27.5286 23.8073C27.4036 23.6823 27.3333 23.5127 27.3333 23.3359C27.3333 23.1591 27.4036 22.9896 27.5286 22.8645C27.6536 22.7395 27.8232 22.6693 28 22.6693H28.6667C28.8435 22.6693 29.013 22.7395 29.1381 22.8645C29.2631 22.9896 29.3333 23.1591 29.3333 23.3359C29.3333 23.5127 29.2631 23.6823 29.1381 23.8073C29.013 23.9324 28.8435 24.0026 28.6667 24.0026ZM32 24.0026H31.3333C31.1565 24.0026 30.987 23.9324 30.8619 23.8073C30.7369 23.6823 30.6667 23.5127 30.6667 23.3359C30.6667 23.1591 30.7369 22.9896 30.8619 22.8645C30.987 22.7395 31.1565 22.6693 31.3333 22.6693H32C32.1768 22.6693 32.3464 22.7395 32.4714 22.8645C32.5964 22.9896 32.6667 23.1591 32.6667 23.3359C32.6667 23.5127 32.5964 23.6823 32.4714 23.8073C32.3464 23.9324 32.1768 24.0026 32 24.0026ZM35.3333 24.0026H34.6667C34.4899 24.0026 34.3203 23.9324 34.1953 23.8073C34.0702 23.6823 34 23.5127 34 23.3359C34 23.1591 34.0702 22.9896 34.1953 22.8645C34.3203 22.7395 34.4899 22.6693 34.6667 22.6693H35.3333C35.5101 22.6693 35.6797 22.7395 35.8047 22.8645C35.9298 22.9896 36 23.1591 36 23.3359C36 23.5127 35.9298 23.6823 35.8047 23.8073C35.6797 23.9324 35.5101 24.0026 35.3333 24.0026ZM52 24.0026H49.3333C49.1565 24.0026 48.987 23.9324 48.8619 23.8073C48.7369 23.6823 48.6667 23.5127 48.6667 23.3359C48.6667 23.1591 48.7369 22.9896 48.8619 22.8645C48.987 22.7395 49.1565 22.6693 49.3333 22.6693H52C52.1768 22.6693 52.3464 22.7395 52.4714 22.8645C52.5964 22.9896 52.6667 23.1591 52.6667 23.3359C52.6667 23.5127 52.5964 23.6823 52.4714 23.8073C52.3464 23.9324 52.1768 24.0026 52 24.0026Z" fill="#26B5B5"/>
<defs>
<linearGradient id="paint0_linear_4574_24984" x1="-1.04793e-06" y1="47.0588" x2="80" y2="43.2941" gradientUnits="userSpaceOnUse">
<stop stop-color="#26B5B5"/>
<stop offset="1" stop-color="#C7FF50"/>
</linearGradient>
</defs>
</svg>
