<svg width="80" height="80" viewBox="0 0 80 80" fill="none" xmlns="http://www.w3.org/2000/svg">
<path d="M40.2985 79.0326C23.6455 65.5041 10.5311 52.4568 0.939831 39.893C11.3009 26.1267 24.4177 13.1435 40.2989 0.946264C54.4896 11.9387 67.4063 24.9198 79.0483 39.8928C73.9264 46.3794 67.7188 53.2686 60.4222 60.5604C53.137 67.8409 46.4293 73.9973 40.2985 79.0326Z" fill="#ECF4F5" stroke="url(#paint0_linear_4574_24952)" stroke-width="1.5"/>
<path d="M35.8651 45.1439L37.2112 43.7898L33.418 39.9965L37.1776 36.2369L35.8154 34.8828L30.7177 39.9965L35.8651 45.1439ZM44.1439 45.1439L49.2753 39.9965L44.1439 34.8491L42.7818 36.1744L46.6039 39.9965L42.7818 43.7898L44.1439 45.1439ZM28.285 54.0477C27.6515 54.0477 27.1032 53.8162 26.64 53.353C26.1769 52.8899 25.9453 52.3415 25.9453 51.708V28.285C25.9453 27.6515 26.1769 27.1032 26.64 26.64C27.1032 26.1769 27.6515 25.9453 28.285 25.9453H51.708C52.3415 25.9453 52.8899 26.1769 53.353 26.64C53.8162 27.1032 54.0477 27.6515 54.0477 28.285V51.708C54.0477 52.3415 53.8162 52.8899 53.353 53.353C52.8899 53.8162 52.3415 54.0477 51.708 54.0477H28.285Z" fill="#26B5B5"/>
<defs>
<linearGradient id="paint0_linear_4574_24952" x1="-1.04793e-06" y1="47.0588" x2="80" y2="43.2941" gradientUnits="userSpaceOnUse">
<stop stop-color="#26B5B5"/>
<stop offset="1" stop-color="#C7FF50"/>
</linearGradient>
</defs>
</svg>
