<svg width="85" height="85" viewBox="0 0 85 85" fill="none" xmlns="http://www.w3.org/2000/svg">
<circle cx="42.5" cy="42.5" r="41.75" fill="white" stroke="url(#paint0_linear_4521_13664)" stroke-width="1.5"/>
<path d="M23 52V24.1C23 23.6333 23.2167 23.1667 23.65 22.7C24.0833 22.2333 24.5333 22 25 22H50.95C51.45 22 51.9167 22.225 52.35 22.675C52.7833 23.125 53 23.6 53 24.1V41.9C53 42.3667 52.7833 42.8333 52.35 43.3C51.9167 43.7667 51.45 44 50.95 44H31L23 52Z" fill="#26B5B5"/>
<path d="M33.05 54C32.5833 54 32.125 53.7667 31.675 53.3C31.225 52.8333 31 52.3667 31 51.9V47H56V30H61C61.4667 30 61.9167 30.2333 62.35 30.7C62.7833 31.1667 63 31.65 63 32.15V61.95L55.05 54H33.05Z" fill="#26B5B5"/>
<defs>
<linearGradient id="paint0_linear_4521_13664" x1="-1.11342e-06" y1="50" x2="85" y2="46" gradientUnits="userSpaceOnUse">
<stop stop-color="#26B5B5"/>
<stop offset="1" stop-color="#C7FF50"/>
</linearGradient>
</defs>
</svg>
