<svg width="85" height="85" viewBox="0 0 85 85" fill="none" xmlns="http://www.w3.org/2000/svg">
<circle cx="42.5" cy="42.5" r="41.75" fill="white" stroke="url(#paint0_linear_4310_20345)" stroke-width="1.5"/>
<path d="M50.15 47.95L51.75 46.35L47.35 41.95C47.7167 41.3833 48.025 40.7917 48.275 40.175C48.525 39.5583 48.65 38.9167 48.65 38.25C48.65 36.35 48 34.75 46.7 33.45C45.4 32.15 43.8 31.5 41.9 31.5C40 31.5 38.4 32.15 37.1 33.45C35.8 34.75 35.15 36.35 35.15 38.25C35.15 40.15 35.8 41.75 37.1 43.05C38.4 44.35 40 45 41.9 45C42.6333 45 43.325 44.875 43.975 44.625C44.625 44.375 45.2667 44.0667 45.9 43.7L50.15 47.95ZM41.9 42.5C40.7333 42.5 39.7333 42.0833 38.9 41.25C38.0667 40.4167 37.65 39.4167 37.65 38.25C37.65 37.0833 38.0667 36.0833 38.9 35.25C39.7333 34.4167 40.7333 34 41.9 34C43.0667 34 44.0667 34.4167 44.9 35.25C45.7333 36.0833 46.15 37.0833 46.15 38.25C46.15 39.4167 45.7333 40.4167 44.9 41.25C44.0667 42.0833 43.0667 42.5 41.9 42.5ZM26 54C25.2 54 24.5 53.7 23.9 53.1C23.3 52.5 23 51.8 23 51V27C23 26.2 23.3 25.5 23.9 24.9C24.5 24.3 25.2 24 26 24H60C60.8 24 61.5 24.3 62.1 24.9C62.7 25.5 63 26.2 63 27V51C63 51.8 62.7 52.5 62.1 53.1C61.5 53.7 60.8 54 60 54H26Z" fill="#26B5B5"/>
<path d="M22.5 60C22.0667 60 21.7083 59.8583 21.425 59.575C21.1417 59.2917 21 58.9333 21 58.5C21 58.0667 21.1417 57.7083 21.425 57.425C21.7083 57.1417 22.0667 57 22.5 57H63.5C63.9333 57 64.2917 57.1417 64.575 57.425C64.8583 57.7083 65 58.0667 65 58.5C65 58.9333 64.8583 59.2917 64.575 59.575C64.2917 59.8583 63.9333 60 63.5 60H22.5Z" fill="#26B5B5"/>
<defs>
<linearGradient id="paint0_linear_4310_20345" x1="-4.37919e-07" y1="50.5" x2="85" y2="34.5" gradientUnits="userSpaceOnUse">
<stop stop-color="#C7FF50"/>
<stop offset="1" stop-color="#26B5B5"/>
</linearGradient>
</defs>
</svg>
