<svg width="85" height="85" viewBox="0 0 85 85" fill="none" xmlns="http://www.w3.org/2000/svg">
<circle cx="42.5" cy="42.5" r="41.75" fill="white" stroke="url(#paint0_linear_4310_20361)" stroke-width="1.5"/>
<path d="M43.0004 46.5984C41.4337 46.5984 40.1087 46.0568 39.0254 44.9734C37.9421 43.8901 37.4004 42.5651 37.4004 40.9984C37.4004 39.4318 37.9421 38.1068 39.0254 37.0234C40.1087 35.9401 41.4337 35.3984 43.0004 35.3984C44.5671 35.3984 45.8921 35.9401 46.9754 37.0234C48.0587 38.1068 48.6004 39.4318 48.6004 40.9984C48.6004 42.5651 48.0587 43.8901 46.9754 44.9734C45.8921 46.0568 44.5671 46.5984 43.0004 46.5984Z" fill="#26B5B5"/>
<path d="M43 49.5C45.3667 49.5 47.375 48.675 49.025 47.025C50.675 45.375 51.5 43.3667 51.5 41C51.5 38.6333 50.675 36.625 49.025 34.975C47.375 33.325 45.3667 32.5 43 32.5C40.6333 32.5 38.625 33.325 36.975 34.975C35.325 36.625 34.5 38.6333 34.5 41C34.5 43.3667 35.325 45.375 36.975 47.025C38.625 48.675 40.6333 49.5 43 49.5ZM43 56C38.1333 56 33.7333 54.6167 29.8 51.85C25.8667 49.0833 22.9333 45.4667 21 41C22.9333 36.5333 25.8667 32.9167 29.8 30.15C33.7333 27.3833 38.1333 26 43 26C47.8667 26 52.2667 27.3833 56.2 30.15C60.1333 32.9167 63.0667 36.5333 65 41C63.0667 45.4667 60.1333 49.0833 56.2 51.85C52.2667 54.6167 47.8667 56 43 56Z" fill="#26B5B5"/>
<defs>
<linearGradient id="paint0_linear_4310_20361" x1="1.01213e-07" y1="42" x2="85" y2="34.5" gradientUnits="userSpaceOnUse">
<stop stop-color="#C7FF50"/>
<stop offset="1" stop-color="#26B5B5"/>
</linearGradient>
</defs>
</svg>
