<svg width="85" height="85" viewBox="0 0 85 85" fill="none" xmlns="http://www.w3.org/2000/svg">
<circle cx="42.5" cy="42.5" r="41.75" fill="white" stroke="url(#paint0_linear_4521_13665)" stroke-width="1.5"/>
<path d="M36.3 50C32.5667 49.8056 29.4167 48.3667 26.85 45.6833C24.2833 43 23 39.7722 23 36C23 32.1111 24.3611 28.8056 27.0833 26.0833C29.8056 23.3611 33.1111 22 37 22C40.7722 22 44 23.2833 46.6833 25.85C49.3667 28.4167 50.8056 31.5861 51 35.3583L47.325 34.1917C46.8972 31.7028 45.7306 29.6319 43.825 27.9792C41.9194 26.3264 39.6444 25.5 37 25.5C34.0833 25.5 31.6042 26.5208 29.5625 28.5625C27.5208 30.6042 26.5 33.0833 26.5 36C26.5 38.6056 27.3264 40.8708 28.9792 42.7958C30.6319 44.7208 32.7028 45.8972 35.1917 46.325L36.3 50Z" fill="#26B5B5"/>
<path d="M58.2976 62L48.119 51.8214L45.1429 60.8095L38 37L61.8095 44.1429L52.8214 47.119L63 57.2976L58.2976 62Z" fill="#26B5B5"/>
<defs>
<linearGradient id="paint0_linear_4521_13665" x1="4" y1="27" x2="82.5" y2="57.5" gradientUnits="userSpaceOnUse">
<stop stop-color="#26B5B5"/>
<stop offset="1" stop-color="#C7FF50"/>
</linearGradient>
</defs>
</svg>
