<svg width="146" height="190" viewBox="0 0 146 190" fill="none" xmlns="http://www.w3.org/2000/svg">
<g clip-path="url(#clip0_4139_1491)">
<path d="M102.641 102.512L130.202 170.048L100.409 166.421L86.2415 184.298L85.0395 185.853L81.6909 189.998L54.2153 122.548L102.641 102.512Z" fill="#003C4F"/>
<path d="M43.7401 102.512L16.1787 170.048L45.9725 166.421L60.1396 184.298L61.3417 185.853L64.6903 189.998L92.1658 122.548L43.7401 102.512Z" fill="#003C4F"/>
<path d="M145.571 114.777V48.6227C145.571 43.0955 142.652 38 137.844 35.2364L80.918 2.07273C76.1098 -0.690909 70.2712 -0.690909 65.463 2.07273L8.53707 35.15C3.72885 37.9136 0.80957 43.0091 0.80957 48.5364V114.691C0.80957 120.218 3.72885 125.314 8.53707 128.077L65.5489 161.155C70.3571 163.918 76.1957 163.918 81.0039 161.155L138.016 128.077C142.652 125.4 145.571 120.305 145.571 114.777Z" fill="#E8F1F3"/>
<path d="M133.207 109.081V54.2397C133.207 49.6624 130.803 45.4306 126.854 43.0988L79.6299 15.7215C75.6803 13.3897 70.7862 13.3897 66.8366 15.7215L19.613 43.0988C15.6634 45.4306 13.2593 49.6624 13.2593 54.2397V109.081C13.2593 113.658 15.6634 117.89 19.613 120.222L66.8366 147.599C70.7862 149.931 75.6803 149.931 79.6299 147.599L126.854 120.222C130.717 117.89 133.207 113.658 133.207 109.081Z" fill="#AECBD3"/>
<path d="M126.16 105.97V57.4338C126.16 53.3747 124.013 49.6611 120.493 47.5884L78.7647 23.3202C75.2444 21.2474 70.9513 21.2474 67.431 23.3202L25.7025 47.5884C22.1822 49.6611 20.0356 53.3747 20.0356 57.4338V105.97C20.0356 110.029 22.1822 113.743 25.7025 115.816L67.431 140.084C70.9513 142.157 75.2444 142.157 78.7647 140.084L120.493 115.816C124.013 113.743 126.16 110.029 126.16 105.97Z" fill="white"/>
<path d="M73.1906 35.2383L74.7361 38.261L78.0846 38.7792L75.5947 41.1974L76.1957 44.4792L73.1906 42.9246L70.1854 44.4792L70.7864 41.1974L68.3823 38.7792L71.7309 38.261L73.1906 35.2383Z" fill="#FF6B00"/>
<path d="M88.0445 38.2578L89.0749 40.3305L91.3073 40.676L89.6759 42.2305L90.1052 44.476L88.0445 43.4396L86.0697 44.476L86.499 42.2305L84.8677 40.676L87.1001 40.3305L88.0445 38.2578Z" fill="#FF6B00"/>
<path d="M58.3365 38.2578L57.3061 40.3305L55.0737 40.676L56.7051 42.2305L56.2758 44.476L58.3365 43.4396L60.3113 44.476L59.9678 42.2305L61.5992 40.676L59.2809 40.3305L58.3365 38.2578Z" fill="#FF6B00"/>
<rect x="20.0356" y="83.6914" width="106.31" height="22.619" fill="#8FFF00"/>
<path d="M57.4382 100.215L55.5925 90.8506H56.8275L58.3339 99.1427H58.7139L60.5461 90.9184H61.9304L63.7625 99.1427H64.1425L65.6489 90.8506H66.8839L65.0247 100.215H62.9347L61.1432 91.9227H61.3197L59.5282 100.215H57.4382ZM68.2095 100.215V93.4291H69.3495V100.215H68.2095ZM68.2095 91.9906V90.7284H69.3495V91.9906H68.2095ZM71.2445 100.215V93.4291H72.3845V93.8906C72.5383 93.8001 72.7283 93.7096 72.9545 93.6191C73.1897 93.5287 73.434 93.4517 73.6874 93.3884C73.9497 93.3251 74.1986 93.2934 74.4338 93.2934C75.0581 93.2934 75.5376 93.4065 75.8724 93.6327C76.2071 93.8498 76.4378 94.2027 76.5645 94.6913C76.6912 95.1798 76.7545 95.8267 76.7545 96.632V100.215H75.6009V96.6727C75.6009 96.1027 75.5647 95.6458 75.4924 95.302C75.429 94.9582 75.2978 94.7094 75.0988 94.5556C74.9088 94.4017 74.6102 94.3248 74.2031 94.3248C73.9859 94.3248 73.7597 94.352 73.5245 94.4063C73.2983 94.4515 73.0857 94.5103 72.8866 94.5827C72.6876 94.6551 72.5202 94.7275 72.3845 94.7998V100.215H71.2445ZM80.8129 100.364C80.3424 100.364 79.9669 100.292 79.6865 100.147C79.406 100.002 79.2024 99.7534 79.0757 99.4006C78.9581 99.0387 78.8993 98.532 78.8993 97.8806V94.4198H77.9629V93.4291H78.8993V91.3934H80.0529V93.4291H82.1293V94.4198H80.0529V97.5548C80.0529 98.0163 80.071 98.3782 80.1072 98.6406C80.1524 98.8939 80.2384 99.0748 80.365 99.1834C80.5007 99.2829 80.7088 99.3327 80.9893 99.3327C81.0798 99.3327 81.1929 99.3282 81.3286 99.3191C81.4734 99.3101 81.6181 99.301 81.7629 99.292C81.9167 99.2739 82.0479 99.2603 82.1565 99.2513L82.2243 100.215C82.0253 100.242 81.7855 100.274 81.505 100.31C81.2336 100.346 81.0029 100.364 80.8129 100.364ZM85.7877 100.351C85.1 100.351 84.5572 100.219 84.1591 99.957C83.761 99.6946 83.4715 99.3056 83.2905 98.7898C83.1186 98.2741 83.0327 97.6317 83.0327 96.8627C83.0327 96.0122 83.1503 95.3246 83.3855 94.7998C83.6208 94.2751 83.951 93.8951 84.3762 93.6598C84.8105 93.4156 85.3262 93.2934 85.9234 93.2934C86.8462 93.2934 87.5384 93.5467 87.9998 94.0534C88.4703 94.551 88.7055 95.3517 88.7055 96.4556L88.6512 97.297H84.2134C84.2224 97.9665 84.3491 98.4777 84.5934 98.8306C84.8377 99.1744 85.281 99.3463 85.9234 99.3463C86.1767 99.3463 86.4572 99.3417 86.7648 99.3327C87.0724 99.3146 87.3755 99.2965 87.6741 99.2784C87.9817 99.2603 88.2396 99.2422 88.4477 99.2241L88.4748 100.12C88.2577 100.156 87.9908 100.192 87.6741 100.228C87.3574 100.265 87.0317 100.292 86.697 100.31C86.3712 100.337 86.0681 100.351 85.7877 100.351ZM84.2134 96.3877H87.5384C87.5384 95.5915 87.4117 95.0351 87.1584 94.7184C86.905 94.3927 86.4934 94.2298 85.9234 94.2298C85.3715 94.2298 84.9462 94.3972 84.6477 94.732C84.3581 95.0667 84.2134 95.6187 84.2134 96.3877ZM90.2233 100.215V93.4291H91.3633V94.3248C91.5352 94.2072 91.7478 94.0806 92.0012 93.9448C92.2635 93.8001 92.5485 93.6644 92.8562 93.5377C93.1638 93.411 93.4714 93.3251 93.779 93.2798V94.4334C93.4804 94.4967 93.1773 94.5782 92.8697 94.6777C92.5621 94.7772 92.2771 94.8858 92.0147 95.0034C91.7523 95.121 91.5352 95.2251 91.3633 95.3156V100.215H90.2233Z" fill="black"/>
<path d="M60.8375 123.965V122.499L62.8868 120.396C63.2759 119.997 63.6106 119.649 63.8911 119.351C64.1716 119.043 64.3842 118.753 64.529 118.482C64.6828 118.211 64.7597 117.921 64.7597 117.613C64.7597 117.161 64.633 116.858 64.3797 116.704C64.1264 116.541 63.7192 116.46 63.1583 116.46C62.9321 116.46 62.6833 116.473 62.4118 116.501C62.1404 116.528 61.878 116.559 61.6247 116.596C61.3804 116.632 61.1678 116.668 60.9868 116.704L60.8918 115.266C61.0909 115.211 61.3352 115.152 61.6247 115.089C61.9233 115.026 62.2444 114.972 62.5883 114.926C62.9411 114.872 63.2849 114.845 63.6197 114.845C64.5968 114.845 65.3433 115.053 65.859 115.469C66.3747 115.876 66.6325 116.51 66.6325 117.369C66.6325 117.84 66.5647 118.256 66.429 118.618C66.3023 118.98 66.0987 119.328 65.8183 119.663C65.5468 119.988 65.1849 120.346 64.7325 120.735L62.9411 122.445H66.7547V123.965H60.8375ZM71.3508 124.114C70.7718 124.114 70.2697 124.037 69.8444 123.883C69.4192 123.721 69.0663 123.463 68.7858 123.11C68.5144 122.748 68.3063 122.277 68.1616 121.698C68.0258 121.119 67.958 120.409 67.958 119.568C67.958 118.699 68.0258 117.962 68.1616 117.356C68.3063 116.749 68.5189 116.265 68.7994 115.903C69.0799 115.532 69.4282 115.266 69.8444 115.103C70.2697 114.94 70.7673 114.858 71.3373 114.858C71.9254 114.858 72.432 114.94 72.8573 115.103C73.2825 115.266 73.6308 115.532 73.9023 115.903C74.1827 116.265 74.3863 116.749 74.513 117.356C74.6487 117.953 74.7166 118.69 74.7166 119.568C74.7166 120.681 74.5944 121.572 74.3501 122.241C74.1149 122.902 73.7485 123.381 73.2508 123.68C72.7532 123.969 72.1199 124.114 71.3508 124.114ZM71.3508 122.54C71.6042 122.54 71.8213 122.499 72.0023 122.418C72.1923 122.327 72.3506 122.173 72.4773 121.956C72.6039 121.739 72.6944 121.436 72.7487 121.047C72.812 120.658 72.8437 120.165 72.8437 119.568C72.8437 118.934 72.812 118.414 72.7487 118.007C72.6944 117.6 72.6085 117.283 72.4908 117.057C72.3732 116.822 72.2194 116.659 72.0294 116.568C71.8394 116.469 71.6132 116.419 71.3508 116.419C71.0885 116.419 70.8623 116.469 70.6723 116.568C70.4823 116.659 70.3239 116.817 70.1973 117.043C70.0797 117.27 69.9892 117.591 69.9258 118.007C69.8625 118.414 69.8308 118.939 69.8308 119.581C69.8308 120.178 69.8625 120.672 69.9258 121.061C69.9982 121.45 70.0977 121.753 70.2244 121.97C70.3511 122.178 70.5049 122.327 70.6858 122.418C70.8758 122.499 71.0975 122.54 71.3508 122.54ZM75.9199 123.965V122.499L77.9691 120.396C78.3582 119.997 78.693 119.649 78.9734 119.351C79.2539 119.043 79.4665 118.753 79.6113 118.482C79.7651 118.211 79.842 117.921 79.842 117.613C79.842 117.161 79.7153 116.858 79.462 116.704C79.2087 116.541 78.8015 116.46 78.2406 116.46C78.0144 116.46 77.7656 116.473 77.4941 116.501C77.2227 116.528 76.9603 116.559 76.707 116.596C76.4627 116.632 76.2501 116.668 76.0691 116.704L75.9741 115.266C76.1732 115.211 76.4175 115.152 76.707 115.089C77.0056 115.026 77.3268 114.972 77.6706 114.926C78.0234 114.872 78.3672 114.845 78.702 114.845C79.6791 114.845 80.4256 115.053 80.9413 115.469C81.457 115.876 81.7149 116.51 81.7149 117.369C81.7149 117.84 81.647 118.256 81.5113 118.618C81.3846 118.98 81.181 119.328 80.9006 119.663C80.6291 119.988 80.2672 120.346 79.8149 120.735L78.0234 122.445H81.837V123.965H75.9199ZM86.2839 124.114C85.9491 124.114 85.5962 124.096 85.2253 124.06C84.8634 124.024 84.5151 123.978 84.1803 123.924C83.8546 123.861 83.5832 123.807 83.366 123.761L83.4474 122.309C83.6646 122.336 83.9224 122.368 84.221 122.404C84.5286 122.44 84.8408 122.472 85.1574 122.499C85.4832 122.517 85.7817 122.526 86.0532 122.526C86.5689 122.526 86.9534 122.431 87.2067 122.241C87.4601 122.051 87.5867 121.744 87.5867 121.318C87.5867 121.029 87.5279 120.803 87.4103 120.64C87.3017 120.468 87.1389 120.341 86.9217 120.26C86.7136 120.178 86.4693 120.133 86.1889 120.124H84.3432V118.631H86.1482C86.3562 118.631 86.5553 118.586 86.7453 118.496C86.9443 118.405 87.1027 118.274 87.2203 118.102C87.347 117.93 87.4103 117.722 87.4103 117.478C87.4103 117.098 87.2927 116.831 87.0574 116.677C86.8312 116.514 86.4603 116.433 85.9446 116.433C85.6732 116.433 85.3882 116.446 85.0896 116.473C84.791 116.501 84.506 116.532 84.2346 116.568C83.9632 116.596 83.737 116.627 83.556 116.663L83.4746 115.238C83.6736 115.184 83.9179 115.13 84.2074 115.076C84.497 115.012 84.8046 114.962 85.1303 114.926C85.456 114.881 85.7636 114.858 86.0532 114.858C86.8222 114.858 87.442 114.94 87.9124 115.103C88.392 115.257 88.7403 115.514 88.9574 115.876C89.1746 116.229 89.2832 116.695 89.2832 117.274C89.2832 117.591 89.2424 117.858 89.161 118.075C89.0886 118.292 88.9891 118.477 88.8624 118.631C88.7448 118.785 88.6227 118.912 88.496 119.011C88.3693 119.102 88.2517 119.183 88.1432 119.256C88.4146 119.382 88.6498 119.522 88.8489 119.676C89.0479 119.83 89.2017 120.034 89.3103 120.287C89.4189 120.54 89.4732 120.88 89.4732 121.305C89.4732 121.983 89.3555 122.531 89.1203 122.947C88.8851 123.354 88.5322 123.653 88.0617 123.843C87.5912 124.024 86.9986 124.114 86.2839 124.114Z" fill="#000E23"/>
<path d="M29.6333 71.9414V62.6721H31.5062V66.54H35.1026V62.6721H36.9755V71.9414H35.1026V68.1143H31.5062V71.9414H29.6333ZM41.3318 72.0907C40.5808 72.0907 39.9837 71.964 39.5404 71.7107C39.1061 71.4574 38.7939 71.0728 38.6039 70.5571C38.4139 70.0414 38.3189 69.3945 38.3189 68.6164C38.3189 67.775 38.4365 67.0874 38.6718 66.5535C38.9161 66.0197 39.2689 65.6262 39.7304 65.3728C40.1918 65.1105 40.7618 64.9793 41.4404 64.9793C42.4446 64.9793 43.2001 65.2326 43.7068 65.7393C44.2225 66.2459 44.4804 67.0466 44.4804 68.1414L44.3989 69.1457H40.1375C40.1465 69.6524 40.2506 70.0324 40.4496 70.2857C40.6487 70.539 40.9925 70.6657 41.4811 70.6657C41.7615 70.6657 42.0692 70.6612 42.4039 70.6521C42.7387 70.634 43.0689 70.6159 43.3946 70.5978C43.7294 70.5797 44.0144 70.5616 44.2496 70.5435L44.2904 71.8057C44.0642 71.8419 43.7792 71.8826 43.4354 71.9278C43.0915 71.9731 42.7342 72.0093 42.3632 72.0364C42.0013 72.0726 41.6575 72.0907 41.3318 72.0907ZM40.1375 67.9921H42.6754C42.6754 67.3769 42.5758 66.9471 42.3768 66.7028C42.1868 66.4585 41.8746 66.3364 41.4404 66.3364C41.0151 66.3364 40.6894 66.4631 40.4632 66.7164C40.2461 66.9697 40.1375 67.395 40.1375 67.9921ZM45.7349 71.9414V62.3464H47.5399V71.9414H45.7349ZM49.0867 74.805V65.1285H50.8781L50.8917 65.5628C51.0184 65.4814 51.1767 65.3955 51.3667 65.305C51.5657 65.2145 51.7784 65.1376 52.0045 65.0743C52.2307 65.0109 52.4524 64.9793 52.6695 64.9793C53.5834 64.9793 54.2393 65.2733 54.6374 65.8614C55.0355 66.4405 55.2345 67.3226 55.2345 68.5078C55.2345 69.3583 55.135 70.0459 54.936 70.5707C54.7369 71.0955 54.4157 71.48 53.9724 71.7243C53.5381 71.9685 52.9636 72.0907 52.2488 72.0907C52.0226 72.0907 51.7784 72.0726 51.516 72.0364C51.2536 72.0002 51.0455 71.964 50.8917 71.9278V74.805H49.0867ZM51.9638 70.5843C52.3257 70.5843 52.6107 70.5074 52.8188 70.3535C53.0269 70.1997 53.1717 69.969 53.2531 69.6614C53.3436 69.3447 53.3888 68.9466 53.3888 68.4671C53.3888 67.7252 53.2848 67.214 53.0767 66.9335C52.8776 66.644 52.5881 66.4993 52.2081 66.4993C52.0634 66.4993 51.9095 66.5174 51.7467 66.5535C51.5838 66.5897 51.4255 66.635 51.2717 66.6893C51.1179 66.7435 50.9912 66.7978 50.8917 66.8521V70.4893C51.0003 70.4983 51.1541 70.5164 51.3531 70.5435C51.5612 70.5707 51.7648 70.5843 51.9638 70.5843ZM59.4243 74.805V65.1285H61.2157L61.2293 65.5628C61.356 65.4814 61.5143 65.3955 61.7043 65.305C61.9033 65.2145 62.116 65.1376 62.3422 65.0743C62.5683 65.0109 62.79 64.9793 63.0072 64.9793C63.921 64.9793 64.5769 65.2733 64.975 65.8614C65.3731 66.4405 65.5722 67.3226 65.5722 68.5078C65.5722 69.3583 65.4726 70.0459 65.2736 70.5707C65.0745 71.0955 64.7533 71.48 64.31 71.7243C63.8757 71.9685 63.3012 72.0907 62.5864 72.0907C62.3603 72.0907 62.116 72.0726 61.8536 72.0364C61.5912 72.0002 61.3831 71.964 61.2293 71.9278V74.805H59.4243ZM62.3014 70.5843C62.6633 70.5843 62.9483 70.5074 63.1564 70.3535C63.3645 70.1997 63.5093 69.969 63.5907 69.6614C63.6812 69.3447 63.7264 68.9466 63.7264 68.4671C63.7264 67.7252 63.6224 67.214 63.4143 66.9335C63.2153 66.644 62.9257 66.4993 62.5457 66.4993C62.401 66.4993 62.2472 66.5174 62.0843 66.5535C61.9214 66.5897 61.7631 66.635 61.6093 66.6893C61.4555 66.7435 61.3288 66.7978 61.2293 66.8521V70.4893C61.3379 70.4983 61.4917 70.5164 61.6907 70.5435C61.8988 70.5707 62.1024 70.5843 62.3014 70.5843ZM69.5614 72.0907C68.8105 72.0907 68.2133 71.964 67.77 71.7107C67.3357 71.4574 67.0236 71.0728 66.8336 70.5571C66.6436 70.0414 66.5486 69.3945 66.5486 68.6164C66.5486 67.775 66.6662 67.0874 66.9014 66.5535C67.1457 66.0197 67.4986 65.6262 67.96 65.3728C68.4214 65.1105 68.9914 64.9793 69.67 64.9793C70.6743 64.9793 71.4298 65.2326 71.9364 65.7393C72.4521 66.2459 72.71 67.0466 72.71 68.1414L72.6286 69.1457H68.3671C68.3762 69.6524 68.4802 70.0324 68.6793 70.2857C68.8783 70.539 69.2221 70.6657 69.7107 70.6657C69.9912 70.6657 70.2988 70.6612 70.6336 70.6521C70.9683 70.634 71.2986 70.6159 71.6243 70.5978C71.959 70.5797 72.244 70.5616 72.4793 70.5435L72.52 71.8057C72.2938 71.8419 72.0088 71.8826 71.665 71.9278C71.3212 71.9731 70.9638 72.0093 70.5928 72.0364C70.2309 72.0726 69.8871 72.0907 69.5614 72.0907ZM68.3671 67.9921H70.905C70.905 67.3769 70.8055 66.9471 70.6064 66.7028C70.4164 66.4585 70.1043 66.3364 69.67 66.3364C69.2448 66.3364 68.919 66.4631 68.6928 66.7164C68.4757 66.9697 68.3671 67.395 68.3671 67.9921ZM73.9102 71.9414V65.1285H75.7152V65.9293C75.869 65.8116 76.059 65.6895 76.2852 65.5628C76.5114 65.4271 76.7557 65.305 77.0181 65.1964C77.2895 65.0788 77.5474 65.0019 77.7916 64.9657V66.7164C77.5564 66.7526 77.3076 66.8159 77.0452 66.9064C76.7828 66.9878 76.534 67.0783 76.2988 67.1778C76.0726 67.2774 75.8781 67.3678 75.7152 67.4493V71.9414H73.9102ZM79.0059 71.9414V66.635H78.3273V65.1285H79.0059V64.735C79.0059 64.0926 79.0647 63.5859 79.1823 63.215C79.309 62.844 79.5216 62.5816 79.8201 62.4278C80.1187 62.274 80.5213 62.1971 81.028 62.1971C81.1728 62.1971 81.3447 62.2062 81.5437 62.2243C81.7518 62.2333 81.9509 62.2469 82.1409 62.265C82.3309 62.2831 82.4756 62.3012 82.5751 62.3193L82.5616 63.7035C82.4168 63.7035 82.254 63.7035 82.073 63.7035C81.9011 63.6945 81.7518 63.69 81.6251 63.69C81.4261 63.69 81.2632 63.7216 81.1366 63.785C81.019 63.8483 80.933 63.9524 80.8787 64.0971C80.8335 64.2419 80.8109 64.45 80.8109 64.7214V65.1285H82.4394V66.635H80.8109V71.9414H79.0059ZM86.3045 72.0907C85.5355 72.0907 84.9157 71.964 84.4452 71.7107C83.9838 71.4574 83.6491 71.0683 83.441 70.5435C83.2329 70.0097 83.1288 69.3221 83.1288 68.4807C83.1288 67.6664 83.2374 67.0059 83.4545 66.4993C83.6717 65.9835 84.0155 65.6035 84.486 65.3593C84.9564 65.1059 85.5626 64.9793 86.3045 64.9793C87.0555 64.9793 87.6617 65.1059 88.1231 65.3593C88.5936 65.6035 88.9374 65.9835 89.1545 66.4993C89.3807 67.0059 89.4938 67.6664 89.4938 68.4807C89.4938 69.3221 89.3898 70.0097 89.1817 70.5435C88.9736 71.0683 88.6343 71.4574 88.1638 71.7107C87.7024 71.964 87.0826 72.0907 86.3045 72.0907ZM86.3045 70.5978C86.6845 70.5978 86.9695 70.53 87.1595 70.3943C87.3495 70.2495 87.4762 70.0233 87.5395 69.7157C87.6119 69.399 87.6481 68.9874 87.6481 68.4807C87.6481 67.9831 87.6074 67.5895 87.526 67.3C87.4445 67.0014 87.3088 66.7888 87.1188 66.6621C86.9288 66.5355 86.6574 66.4721 86.3045 66.4721C85.9607 66.4721 85.6893 66.5355 85.4902 66.6621C85.3002 66.7888 85.1645 67.0014 85.0831 67.3C85.0017 67.5895 84.961 67.9831 84.961 68.4807C84.961 68.9874 84.9926 69.399 85.056 69.7157C85.1283 70.0233 85.2595 70.2495 85.4495 70.3943C85.6395 70.53 85.9245 70.5978 86.3045 70.5978ZM90.7287 71.9414V65.1285H92.5337V65.9293C92.6875 65.8116 92.8775 65.6895 93.1037 65.5628C93.3299 65.4271 93.5742 65.305 93.8366 65.1964C94.108 65.0788 94.3659 65.0019 94.6101 64.9657V66.7164C94.3749 66.7526 94.1261 66.8159 93.8637 66.9064C93.6013 66.9878 93.3525 67.0783 93.1173 67.1778C92.8911 67.2774 92.6966 67.3678 92.5337 67.4493V71.9414H90.7287ZM95.5529 71.9414V65.1285H97.3579V65.5628C97.566 65.4362 97.8465 65.3095 98.1994 65.1828C98.5522 65.0471 98.887 64.9793 99.2036 64.9793C99.6198 64.9793 99.9591 65.0381 100.222 65.1557C100.484 65.2643 100.701 65.4271 100.873 65.6443C101.036 65.5447 101.239 65.4452 101.484 65.3457C101.728 65.2462 101.995 65.1602 102.284 65.0878C102.574 65.0155 102.854 64.9793 103.126 64.9793C103.795 64.9793 104.307 65.0969 104.659 65.3321C105.012 65.5674 105.257 65.9383 105.392 66.445C105.528 66.9426 105.596 67.594 105.596 68.3993V71.9414H103.791V68.5621C103.791 68.0916 103.764 67.7116 103.709 67.4221C103.664 67.1235 103.565 66.9064 103.411 66.7707C103.266 66.635 103.044 66.5671 102.746 66.5671C102.483 66.5671 102.226 66.6033 101.972 66.6757C101.719 66.7481 101.52 66.8205 101.375 66.8928C101.42 67.0828 101.452 67.3271 101.47 67.6257C101.497 67.9243 101.511 68.2364 101.511 68.5621V71.9414H99.7058V68.5893C99.7058 68.1097 99.6786 67.7207 99.6244 67.4221C99.5791 67.1235 99.4796 66.9064 99.3258 66.7707C99.172 66.635 98.9503 66.5671 98.6608 66.5671C98.4075 66.5671 98.1586 66.6033 97.9144 66.6757C97.6791 66.7481 97.4936 66.8205 97.3579 66.8928V71.9414H95.5529ZM109.785 72.0907C109.034 72.0907 108.437 71.964 107.994 71.7107C107.56 71.4574 107.247 71.0728 107.057 70.5571C106.867 70.0414 106.772 69.3945 106.772 68.6164C106.772 67.775 106.89 67.0874 107.125 66.5535C107.37 66.0197 107.722 65.6262 108.184 65.3728C108.645 65.1105 109.215 64.9793 109.894 64.9793C110.898 64.9793 111.654 65.2326 112.16 65.7393C112.676 66.2459 112.934 67.0466 112.934 68.1414L112.852 69.1457H108.591C108.6 69.6524 108.704 70.0324 108.903 70.2857C109.102 70.539 109.446 70.6657 109.935 70.6657C110.215 70.6657 110.523 70.6612 110.857 70.6521C111.192 70.634 111.522 70.6159 111.848 70.5978C112.183 70.5797 112.468 70.5616 112.703 70.5435L112.744 71.8057C112.518 71.8419 112.233 71.8826 111.889 71.9278C111.545 71.9731 111.188 72.0093 110.817 72.0364C110.455 72.0726 110.111 72.0907 109.785 72.0907ZM108.591 67.9921H111.129C111.129 67.3769 111.029 66.9471 110.83 66.7028C110.64 66.4585 110.328 66.3364 109.894 66.3364C109.469 66.3364 109.143 66.4631 108.917 66.7164C108.7 66.9697 108.591 67.395 108.591 67.9921ZM114.134 71.9414V65.1285H115.939V65.9293C116.093 65.8116 116.283 65.6895 116.509 65.5628C116.735 65.4271 116.98 65.305 117.242 65.1964C117.513 65.0788 117.771 65.0019 118.016 64.9657V66.7164C117.78 66.7526 117.532 66.8159 117.269 66.9064C117.007 66.9878 116.758 67.0783 116.523 67.1778C116.297 67.2774 116.102 67.3678 115.939 67.4493V71.9414H114.134Z" fill="black"/>
</g>
<defs>
<clipPath id="clip0_4139_1491">
<rect width="144.762" height="190" fill="white" transform="translate(0.80957)"/>
</clipPath>
</defs>
</svg>
