<svg width="115" height="150" viewBox="0 0 115 150" fill="none" xmlns="http://www.w3.org/2000/svg">
<g clip-path="url(#clip0_4139_1529)">
<path d="M80.7747 80.9297L102.534 134.248L79.0123 131.384L67.8278 145.498L66.8788 146.725L64.2352 149.998L42.5439 96.7479L80.7747 80.9297Z" fill="#003C4F"/>
<path d="M34.2742 80.9297L12.5151 134.248L36.0366 131.384L47.2211 145.498L48.1701 146.725L50.8137 149.998L72.505 96.7479L34.2742 80.9297Z" fill="#003C4F"/>
<path d="M114.667 90.6136V38.3864C114.667 34.0227 112.362 30 108.566 27.8182L63.6249 1.63636C59.8289 -0.545455 55.2195 -0.545455 51.4235 1.63636L6.48201 27.75C2.68604 29.9318 0.381348 33.9545 0.381348 38.3182V90.5455C0.381348 94.9091 2.68604 98.9318 6.48201 101.114L51.4913 127.227C55.2873 129.409 59.8967 129.409 63.6926 127.227L108.702 101.114C112.362 99 114.667 94.9773 114.667 90.6136Z" fill="#E8F1F3"/>
<path d="M104.906 86.1165V42.821C104.906 39.2074 103.008 35.8665 99.8897 34.0256L62.6079 12.4119C59.4897 10.571 55.626 10.571 52.5079 12.4119L15.2261 34.0256C12.1079 35.8665 10.21 39.2074 10.21 42.821V86.1165C10.21 89.7301 12.1079 93.071 15.2261 94.9119L52.5079 116.526C55.626 118.366 59.4897 118.366 62.6079 116.526L99.8897 94.9119C102.94 93.071 104.906 89.7301 104.906 86.1165Z" fill="#AECBD3"/>
<path d="M99.3425 83.6609V45.3427C99.3425 42.1381 97.6478 39.2063 94.8686 37.57L61.9251 18.4109C59.1459 16.7745 55.7566 16.7745 52.9774 18.4109L20.0339 37.57C17.2547 39.2063 15.5601 42.1381 15.5601 45.3427V83.6609C15.5601 86.8654 17.2547 89.7972 20.0339 91.4336L52.9774 110.593C55.7566 112.229 59.1459 112.229 61.9251 110.593L94.8686 91.4336C97.6478 89.7972 99.3425 86.8654 99.3425 83.6609Z" fill="white"/>
<path d="M57.5245 27.8203L58.7446 30.2067L61.3882 30.6158L59.4225 32.5249L59.897 35.1158L57.5245 33.8885L55.152 35.1158L55.6265 32.5249L53.7285 30.6158L56.3721 30.2067L57.5245 27.8203Z" fill="#FF6B00"/>
<path d="M69.2512 30.2031L70.0646 31.8395L71.827 32.1122L70.5391 33.3395L70.8781 35.1122L69.2512 34.294L67.6922 35.1122L68.0311 33.3395L66.7432 32.1122L68.5056 31.8395L69.2512 30.2031Z" fill="#FF6B00"/>
<path d="M45.7975 30.2031L44.9841 31.8395L43.2217 32.1122L44.5096 33.3395L44.1707 35.1122L45.7975 34.294L47.3566 35.1122L47.0854 33.3395L48.3734 32.1122L46.5431 31.8395L45.7975 30.2031Z" fill="#FF6B00"/>
<rect x="15.5601" y="66.0742" width="83.9286" height="17.8571" fill="#FFB800"/>
<path d="M45.1933 78.6445L43.7361 71.2517H44.7111L45.9004 77.7981H46.2004L47.6469 71.3052H48.7397L50.1861 77.7981H50.4861L51.6754 71.2517H52.6504L51.1826 78.6445H49.5326L48.1183 72.0981H48.2576L46.8433 78.6445H45.1933ZM53.6969 78.6445V73.2874H54.5969V78.6445H53.6969ZM53.6969 72.1517V71.1552H54.5969V72.1517H53.6969ZM56.093 78.6445V73.2874H56.993V73.6517C57.1144 73.5802 57.2644 73.5088 57.443 73.4374C57.6287 73.366 57.8216 73.3052 58.0216 73.2552C58.2287 73.2052 58.4251 73.1802 58.6108 73.1802C59.1037 73.1802 59.4823 73.2695 59.7466 73.4481C60.0108 73.6195 60.193 73.8981 60.293 74.2838C60.393 74.6695 60.443 75.1802 60.443 75.816V78.6445H59.5323V75.8481C59.5323 75.3981 59.5037 75.0374 59.4466 74.766C59.3966 74.4945 59.293 74.2981 59.1358 74.1767C58.9858 74.0552 58.7501 73.9945 58.4287 73.9945C58.2573 73.9945 58.0787 74.016 57.893 74.0588C57.7144 74.0945 57.5466 74.141 57.3894 74.1981C57.2323 74.2552 57.1001 74.3124 56.993 74.3695V78.6445H56.093ZM63.647 78.7624C63.2755 78.7624 62.9791 78.7052 62.7577 78.591C62.5363 78.4767 62.3755 78.2802 62.2755 78.0017C62.1827 77.716 62.1363 77.316 62.1363 76.8017V74.0695H61.397V73.2874H62.1363V71.6802H63.047V73.2874H64.6863V74.0695H63.047V76.5445C63.047 76.9088 63.0613 77.1945 63.0898 77.4017C63.1255 77.6017 63.1934 77.7445 63.2934 77.8302C63.4005 77.9088 63.5648 77.9481 63.7863 77.9481C63.8577 77.9481 63.947 77.9445 64.0541 77.9374C64.1684 77.9302 64.2827 77.9231 64.397 77.916C64.5184 77.9017 64.622 77.891 64.7077 77.8838L64.7613 78.6445C64.6041 78.666 64.4148 78.691 64.1934 78.7195C63.9791 78.7481 63.797 78.7624 63.647 78.7624ZM67.5744 78.7517C67.0316 78.7517 66.603 78.6481 66.2887 78.441C65.9744 78.2338 65.7459 77.9267 65.603 77.5195C65.4673 77.1124 65.3994 76.6052 65.3994 75.9981C65.3994 75.3267 65.4923 74.7838 65.678 74.3695C65.8637 73.9552 66.1244 73.6552 66.4601 73.4695C66.803 73.2767 67.2101 73.1802 67.6816 73.1802C68.4101 73.1802 68.9566 73.3802 69.3209 73.7802C69.6923 74.1731 69.878 74.8052 69.878 75.6767L69.8351 76.341H66.3316C66.3387 76.8695 66.4387 77.2731 66.6316 77.5517C66.8244 77.8231 67.1744 77.9588 67.6816 77.9588C67.8816 77.9588 68.103 77.9552 68.3459 77.9481C68.5887 77.9338 68.828 77.9195 69.0637 77.9052C69.3066 77.891 69.5101 77.8767 69.6744 77.8624L69.6959 78.5695C69.5244 78.5981 69.3137 78.6267 69.0637 78.6552C68.8137 78.6838 68.5566 78.7052 68.2923 78.7195C68.0351 78.741 67.7959 78.7517 67.5744 78.7517ZM66.3316 75.6231H68.9566C68.9566 74.9945 68.8566 74.5552 68.6566 74.3052C68.4566 74.0481 68.1316 73.9195 67.6816 73.9195C67.2459 73.9195 66.9101 74.0517 66.6744 74.316C66.4459 74.5802 66.3316 75.016 66.3316 75.6231ZM71.0762 78.6445V73.2874H71.9762V73.9945C72.112 73.9017 72.2798 73.8017 72.4798 73.6945C72.687 73.5802 72.912 73.4731 73.1548 73.3731C73.3977 73.2731 73.6405 73.2052 73.8834 73.1695V74.0802C73.6477 74.1302 73.4084 74.1945 73.1655 74.2731C72.9227 74.3517 72.6977 74.4374 72.4905 74.5302C72.2834 74.6231 72.112 74.7052 71.9762 74.7767V78.6445H71.0762Z" fill="black"/>
<path d="M47.5351 97.3945V96.2374L49.153 94.5767C49.4601 94.2624 49.7244 93.9874 49.9458 93.7517C50.1673 93.5088 50.3351 93.2802 50.4494 93.066C50.5708 92.8517 50.6315 92.6231 50.6315 92.3802C50.6315 92.0231 50.5315 91.7838 50.3315 91.6624C50.1315 91.5338 49.8101 91.4695 49.3673 91.4695C49.1887 91.4695 48.9923 91.4802 48.778 91.5017C48.5637 91.5231 48.3565 91.5481 48.1565 91.5767C47.9637 91.6052 47.7958 91.6338 47.653 91.6624L47.578 90.5267C47.7351 90.4838 47.928 90.4374 48.1565 90.3874C48.3923 90.3374 48.6458 90.2945 48.9173 90.2588C49.1958 90.216 49.4673 90.1945 49.7315 90.1945C50.503 90.1945 51.0923 90.3588 51.4994 90.6874C51.9065 91.0088 52.1101 91.5088 52.1101 92.1874C52.1101 92.5588 52.0565 92.8874 51.9494 93.1731C51.8494 93.4588 51.6887 93.7338 51.4673 93.9981C51.253 94.2552 50.9673 94.5374 50.6101 94.8445L49.1958 96.1945H52.2065V97.3945H47.5351ZM55.8351 97.5124C55.3779 97.5124 54.9815 97.4517 54.6458 97.3302C54.3101 97.2017 54.0315 96.9981 53.8101 96.7195C53.5958 96.4338 53.4315 96.0624 53.3172 95.6052C53.2101 95.1481 53.1565 94.5874 53.1565 93.9231C53.1565 93.2374 53.2101 92.6552 53.3172 92.1767C53.4315 91.6981 53.5994 91.316 53.8208 91.0302C54.0422 90.7374 54.3172 90.5267 54.6458 90.3981C54.9815 90.2695 55.3744 90.2052 55.8244 90.2052C56.2887 90.2052 56.6887 90.2695 57.0244 90.3981C57.3601 90.5267 57.6351 90.7374 57.8494 91.0302C58.0708 91.316 58.2315 91.6981 58.3315 92.1767C58.4387 92.6481 58.4922 93.2302 58.4922 93.9231C58.4922 94.8017 58.3958 95.5052 58.2029 96.0338C58.0172 96.5552 57.7279 96.9338 57.3351 97.1695C56.9422 97.3981 56.4422 97.5124 55.8351 97.5124ZM55.8351 96.2695C56.0351 96.2695 56.2065 96.2374 56.3494 96.1731C56.4994 96.1017 56.6244 95.9802 56.7244 95.8088C56.8244 95.6374 56.8958 95.3981 56.9387 95.091C56.9887 94.7838 57.0137 94.3945 57.0137 93.9231C57.0137 93.4231 56.9887 93.0124 56.9387 92.691C56.8958 92.3695 56.8279 92.1195 56.7351 91.941C56.6422 91.7552 56.5208 91.6267 56.3708 91.5552C56.2208 91.4767 56.0422 91.4374 55.8351 91.4374C55.6279 91.4374 55.4494 91.4767 55.2994 91.5552C55.1494 91.6267 55.0244 91.7517 54.9244 91.9302C54.8315 92.1088 54.7601 92.3624 54.7101 92.691C54.6601 93.0124 54.6351 93.4267 54.6351 93.9338C54.6351 94.4052 54.6601 94.7945 54.7101 95.1017C54.7672 95.4088 54.8458 95.6481 54.9458 95.8195C55.0458 95.9838 55.1672 96.1017 55.3101 96.1731C55.4601 96.2374 55.6351 96.2695 55.8351 96.2695ZM59.4422 97.3945V96.2374L61.0601 94.5767C61.3672 94.2624 61.6315 93.9874 61.8529 93.7517C62.0743 93.5088 62.2422 93.2802 62.3565 93.066C62.4779 92.8517 62.5386 92.6231 62.5386 92.3802C62.5386 92.0231 62.4386 91.7838 62.2386 91.6624C62.0386 91.5338 61.7172 91.4695 61.2743 91.4695C61.0958 91.4695 60.8993 91.4802 60.6851 91.5017C60.4708 91.5231 60.2636 91.5481 60.0636 91.5767C59.8708 91.6052 59.7029 91.6338 59.5601 91.6624L59.4851 90.5267C59.6422 90.4838 59.8351 90.4374 60.0636 90.3874C60.2993 90.3374 60.5529 90.2945 60.8243 90.2588C61.1029 90.216 61.3743 90.1945 61.6386 90.1945C62.4101 90.1945 62.9993 90.3588 63.4065 90.6874C63.8136 91.0088 64.0172 91.5088 64.0172 92.1874C64.0172 92.5588 63.9636 92.8874 63.8565 93.1731C63.7565 93.4588 63.5958 93.7338 63.3743 93.9981C63.1601 94.2552 62.8743 94.5374 62.5172 94.8445L61.1029 96.1945H64.1136V97.3945H59.4422ZM67.6243 97.5124C67.36 97.5124 67.0815 97.4981 66.7886 97.4695C66.5029 97.441 66.2279 97.4052 65.9636 97.3624C65.7065 97.3124 65.4922 97.2695 65.3207 97.2338L65.385 96.0874C65.5565 96.1088 65.76 96.1338 65.9957 96.1624C66.2386 96.191 66.485 96.216 66.735 96.2374C66.9922 96.2517 67.2279 96.2588 67.4422 96.2588C67.8493 96.2588 68.1529 96.1838 68.3529 96.0338C68.5529 95.8838 68.6529 95.641 68.6529 95.3052C68.6529 95.0767 68.6065 94.8981 68.5136 94.7695C68.4279 94.6338 68.2993 94.5338 68.1279 94.4695C67.9636 94.4052 67.7707 94.3695 67.5493 94.3624H66.0922V93.1838H67.5172C67.6815 93.1838 67.8386 93.1481 67.9886 93.0767C68.1457 93.0052 68.2707 92.9017 68.3636 92.766C68.4636 92.6302 68.5136 92.466 68.5136 92.2731C68.5136 91.9731 68.4207 91.7624 68.235 91.641C68.0565 91.5124 67.7636 91.4481 67.3565 91.4481C67.1422 91.4481 66.9172 91.4588 66.6815 91.4802C66.4457 91.5017 66.2207 91.5267 66.0065 91.5552C65.7922 91.5767 65.6136 91.6017 65.4707 91.6302L65.4065 90.5052C65.5636 90.4624 65.7565 90.4195 65.985 90.3767C66.2136 90.3267 66.4565 90.2874 66.7136 90.2588C66.9707 90.2231 67.2136 90.2052 67.4422 90.2052C68.0493 90.2052 68.5386 90.2695 68.91 90.3981C69.2886 90.5195 69.5636 90.7231 69.735 91.0088C69.9065 91.2874 69.9922 91.6552 69.9922 92.1124C69.9922 92.3624 69.96 92.5731 69.8957 92.7445C69.8386 92.916 69.76 93.0624 69.66 93.1838C69.5672 93.3052 69.4707 93.4052 69.3707 93.4838C69.2707 93.5552 69.1779 93.6195 69.0922 93.6767C69.3065 93.7767 69.4922 93.8874 69.6493 94.0088C69.8065 94.1302 69.9279 94.291 70.0136 94.491C70.0993 94.691 70.1422 94.9588 70.1422 95.2945C70.1422 95.8302 70.0493 96.2624 69.8636 96.591C69.6779 96.9124 69.3993 97.1481 69.0279 97.2981C68.6565 97.441 68.1886 97.5124 67.6243 97.5124Z" fill="#000E23"/>
<path d="M30.0976 56.4421C29.4976 56.4421 28.9869 56.3635 28.5654 56.2064C28.1512 56.0492 27.8369 55.7885 27.6226 55.4242C27.4083 55.0528 27.3012 54.5599 27.3012 53.9456V49.0064H28.7797V53.9992C28.7797 54.4206 28.8904 54.7242 29.1119 54.9099C29.3404 55.0956 29.669 55.1885 30.0976 55.1885C30.5476 55.1885 30.8869 55.0956 31.1154 54.9099C31.344 54.7242 31.4583 54.4206 31.4583 53.9992V49.0064H32.9369V53.9242C32.9369 54.5385 32.8262 55.0314 32.6047 55.4028C32.3904 55.7742 32.0726 56.0421 31.6512 56.2064C31.2369 56.3635 30.719 56.4421 30.0976 56.4421ZM36.0824 56.4421C35.8466 56.4421 35.5931 56.4278 35.3216 56.3992C35.0574 56.3778 34.8074 56.3492 34.5716 56.3135C34.3431 56.2778 34.1466 56.2421 33.9824 56.2064L34.0252 55.1456C34.2109 55.1671 34.4181 55.1921 34.6466 55.2206C34.8824 55.2492 35.1109 55.2742 35.3324 55.2956C35.5609 55.3099 35.7466 55.3171 35.8895 55.3171C36.1038 55.3171 36.2788 55.2992 36.4145 55.2635C36.5574 55.2278 36.6645 55.1706 36.7359 55.0921C36.8074 55.0064 36.8431 54.8849 36.8431 54.7278C36.8431 54.6064 36.8109 54.5135 36.7466 54.4492C36.6895 54.3849 36.5752 54.3314 36.4038 54.2885C36.2395 54.2385 35.9966 54.1885 35.6752 54.1385C35.2752 54.0814 34.9431 53.9992 34.6788 53.8921C34.4216 53.7849 34.2324 53.6278 34.1109 53.4206C33.9895 53.2064 33.9288 52.9171 33.9288 52.5528C33.9288 52.1099 34.0252 51.7635 34.2181 51.5135C34.4109 51.2635 34.6681 51.0885 34.9895 50.9885C35.3109 50.8814 35.6609 50.8278 36.0395 50.8278C36.2895 50.8278 36.5466 50.8421 36.8109 50.8706C37.0752 50.8921 37.3252 50.9206 37.5609 50.9564C37.7966 50.9921 37.9931 51.0278 38.1502 51.0635L38.1074 52.1456C37.9288 52.1171 37.7216 52.0921 37.4859 52.0706C37.2502 52.0421 37.0145 52.0206 36.7788 52.0064C36.5502 51.9921 36.3574 51.9849 36.2002 51.9849C36.0359 51.9849 35.8895 52.0028 35.7609 52.0385C35.6324 52.0671 35.5324 52.1171 35.4609 52.1885C35.3966 52.2599 35.3645 52.3671 35.3645 52.5099C35.3645 52.6099 35.3931 52.6921 35.4502 52.7564C35.5074 52.8206 35.6145 52.8778 35.7716 52.9278C35.9359 52.9706 36.1716 53.0135 36.4788 53.0564C36.9216 53.1206 37.2752 53.2099 37.5395 53.3242C37.8038 53.4385 37.9931 53.6028 38.1074 53.8171C38.2288 54.0314 38.2895 54.3206 38.2895 54.6849C38.2895 55.3349 38.0966 55.7921 37.7109 56.0564C37.3324 56.3135 36.7895 56.4421 36.0824 56.4421ZM41.4032 56.4421C40.8103 56.4421 40.3389 56.3421 39.9889 56.1421C39.646 55.9421 39.3996 55.6385 39.2496 55.2314C39.0996 54.8242 39.0246 54.3135 39.0246 53.6992C39.0246 53.0349 39.1175 52.4921 39.3032 52.0706C39.496 51.6492 39.7746 51.3385 40.1389 51.1385C40.5032 50.9314 40.9532 50.8278 41.4889 50.8278C42.2817 50.8278 42.8782 51.0278 43.2782 51.4278C43.6853 51.8278 43.8889 52.4599 43.8889 53.3242L43.8246 54.1171H40.4603C40.4675 54.5171 40.5496 54.8171 40.7067 55.0171C40.8639 55.2171 41.1353 55.3171 41.521 55.3171C41.7425 55.3171 41.9853 55.3135 42.2496 55.3064C42.5139 55.2921 42.7746 55.2778 43.0317 55.2635C43.296 55.2492 43.521 55.2349 43.7067 55.2206L43.7389 56.2171C43.5603 56.2456 43.3353 56.2778 43.0639 56.3135C42.7925 56.3492 42.5103 56.3778 42.2175 56.3992C41.9317 56.4278 41.6603 56.4421 41.4032 56.4421ZM40.4603 53.2064H42.4639C42.4639 52.7206 42.3853 52.3814 42.2282 52.1885C42.0782 51.9956 41.8317 51.8992 41.4889 51.8992C41.1532 51.8992 40.896 51.9992 40.7175 52.1992C40.546 52.3992 40.4603 52.7349 40.4603 53.2064ZM44.8364 56.3242V50.9456H46.2614V51.5778C46.3829 51.4849 46.5329 51.3885 46.7114 51.2885C46.89 51.1814 47.0829 51.0849 47.29 50.9992C47.5043 50.9064 47.7079 50.8456 47.9007 50.8171V52.1992C47.715 52.2278 47.5186 52.2778 47.3114 52.3492C47.1043 52.4135 46.9079 52.4849 46.7221 52.5635C46.5436 52.6421 46.39 52.7135 46.2614 52.7778V56.3242H44.8364ZM50.5843 56.4421C50.3486 56.4421 50.095 56.4278 49.8236 56.3992C49.5593 56.3778 49.3093 56.3492 49.0736 56.3135C48.845 56.2778 48.6486 56.2421 48.4843 56.2064L48.5272 55.1456C48.7129 55.1671 48.92 55.1921 49.1486 55.2206C49.3843 55.2492 49.6129 55.2742 49.8343 55.2956C50.0629 55.3099 50.2486 55.3171 50.3914 55.3171C50.6057 55.3171 50.7807 55.2992 50.9164 55.2635C51.0593 55.2278 51.1664 55.1706 51.2379 55.0921C51.3093 55.0064 51.345 54.8849 51.345 54.7278C51.345 54.6064 51.3129 54.5135 51.2486 54.4492C51.1914 54.3849 51.0772 54.3314 50.9057 54.2885C50.7414 54.2385 50.4986 54.1885 50.1772 54.1385C49.7772 54.0814 49.445 53.9992 49.1807 53.8921C48.9236 53.7849 48.7343 53.6278 48.6129 53.4206C48.4914 53.2064 48.4307 52.9171 48.4307 52.5528C48.4307 52.1099 48.5272 51.7635 48.72 51.5135C48.9129 51.2635 49.17 51.0885 49.4914 50.9885C49.8129 50.8814 50.1629 50.8278 50.5414 50.8278C50.7914 50.8278 51.0486 50.8421 51.3129 50.8706C51.5772 50.8921 51.8272 50.9206 52.0629 50.9564C52.2986 50.9921 52.495 51.0278 52.6522 51.0635L52.6093 52.1456C52.4307 52.1171 52.2236 52.0921 51.9879 52.0706C51.7522 52.0421 51.5164 52.0206 51.2807 52.0064C51.0522 51.9921 50.8593 51.9849 50.7022 51.9849C50.5379 51.9849 50.3914 52.0028 50.2629 52.0385C50.1343 52.0671 50.0343 52.1171 49.9629 52.1885C49.8986 52.2599 49.8664 52.3671 49.8664 52.5099C49.8664 52.6099 49.895 52.6921 49.9522 52.7564C50.0093 52.8206 50.1164 52.8778 50.2736 52.9278C50.4379 52.9706 50.6736 53.0135 50.9807 53.0564C51.4236 53.1206 51.7772 53.2099 52.0414 53.3242C52.3057 53.4385 52.495 53.6028 52.6093 53.8171C52.7307 54.0314 52.7914 54.3206 52.7914 54.6849C52.7914 55.3349 52.5986 55.7921 52.2129 56.0564C51.8343 56.3135 51.2914 56.4421 50.5843 56.4421ZM56.1063 56.3242V48.7492H57.5313V56.3242H56.1063ZM61.0667 56.4421C60.4596 56.4421 59.9703 56.3421 59.5989 56.1421C59.2346 55.9421 58.9703 55.6349 58.806 55.2206C58.6417 54.7992 58.5596 54.2564 58.5596 53.5921C58.5596 52.9492 58.6453 52.4278 58.8167 52.0278C58.9882 51.6206 59.2596 51.3206 59.631 51.1278C60.0024 50.9278 60.481 50.8278 61.0667 50.8278C61.6596 50.8278 62.1382 50.9278 62.5024 51.1278C62.8739 51.3206 63.1453 51.6206 63.3167 52.0278C63.4953 52.4278 63.5846 52.9492 63.5846 53.5921C63.5846 54.2564 63.5024 54.7992 63.3382 55.2206C63.1739 55.6349 62.906 55.9421 62.5346 56.1421C62.1703 56.3421 61.681 56.4421 61.0667 56.4421ZM61.0667 55.2635C61.3667 55.2635 61.5917 55.2099 61.7417 55.1028C61.8917 54.9885 61.9917 54.8099 62.0417 54.5671C62.0989 54.3171 62.1274 53.9921 62.1274 53.5921C62.1274 53.1992 62.0953 52.8885 62.031 52.6599C61.9667 52.4242 61.8596 52.2564 61.7096 52.1564C61.5596 52.0564 61.3453 52.0064 61.0667 52.0064C60.7953 52.0064 60.581 52.0564 60.4239 52.1564C60.2739 52.2564 60.1667 52.4242 60.1024 52.6599C60.0382 52.8885 60.006 53.1992 60.006 53.5921C60.006 53.9921 60.031 54.3171 60.081 54.5671C60.1382 54.8099 60.2417 54.9885 60.3917 55.1028C60.5417 55.2099 60.7667 55.2635 61.0667 55.2635ZM65.4059 56.3242L64.1309 50.9456H65.6631L66.5631 55.1135H66.8738L67.7952 50.9456H69.2416L67.9666 56.3242H65.4059ZM72.1649 56.4421C71.572 56.4421 71.1006 56.3421 70.7506 56.1421C70.4077 55.9421 70.1613 55.6385 70.0113 55.2314C69.8613 54.8242 69.7863 54.3135 69.7863 53.6992C69.7863 53.0349 69.8792 52.4921 70.0649 52.0706C70.2577 51.6492 70.5363 51.3385 70.9006 51.1385C71.2649 50.9314 71.7149 50.8278 72.2506 50.8278C73.0435 50.8278 73.6399 51.0278 74.0399 51.4278C74.447 51.8278 74.6506 52.4599 74.6506 53.3242L74.5863 54.1171H71.222C71.2292 54.5171 71.3113 54.8171 71.4685 55.0171C71.6256 55.2171 71.897 55.3171 72.2827 55.3171C72.5042 55.3171 72.747 55.3135 73.0113 55.3064C73.2756 55.2921 73.5363 55.2778 73.7935 55.2635C74.0577 55.2492 74.2827 55.2349 74.4685 55.2206L74.5006 56.2171C74.322 56.2456 74.097 56.2778 73.8256 56.3135C73.5542 56.3492 73.272 56.3778 72.9792 56.3992C72.6935 56.4278 72.422 56.4421 72.1649 56.4421ZM71.222 53.2064H73.2256C73.2256 52.7206 73.147 52.3814 72.9899 52.1885C72.8399 51.9956 72.5935 51.8992 72.2506 51.8992C71.9149 51.8992 71.6577 51.9992 71.4792 52.1992C71.3077 52.3992 71.222 52.7349 71.222 53.2064ZM79.6457 56.4421C79.1814 56.4421 78.8207 56.3456 78.5636 56.1528C78.3136 55.9528 78.135 55.6528 78.0279 55.2528C77.9279 54.8528 77.8779 54.3492 77.8779 53.7421V50.9456H79.3029V53.6778C79.3029 54.0564 79.3207 54.3564 79.3564 54.5778C79.3993 54.7992 79.4814 54.9564 79.6029 55.0492C79.7243 55.1421 79.8993 55.1885 80.1279 55.1885C80.3493 55.1885 80.5564 55.1599 80.7493 55.1028C80.9421 55.0456 81.0957 54.9885 81.21 54.9314V50.9456H82.635V56.3242H81.2207V55.9921C80.9779 56.1278 80.735 56.2385 80.4921 56.3242C80.2564 56.4028 79.9743 56.4421 79.6457 56.4421ZM85.751 56.4421C85.5153 56.4421 85.2617 56.4278 84.9903 56.3992C84.726 56.3778 84.476 56.3492 84.2403 56.3135C84.0117 56.2778 83.8153 56.2421 83.651 56.2064L83.6939 55.1456C83.8796 55.1671 84.0867 55.1921 84.3153 55.2206C84.551 55.2492 84.7796 55.2742 85.001 55.2956C85.2296 55.3099 85.4153 55.3171 85.5582 55.3171C85.7724 55.3171 85.9474 55.2992 86.0832 55.2635C86.226 55.2278 86.3332 55.1706 86.4046 55.0921C86.476 55.0064 86.5117 54.8849 86.5117 54.7278C86.5117 54.6064 86.4796 54.5135 86.4153 54.4492C86.3582 54.3849 86.2439 54.3314 86.0724 54.2885C85.9082 54.2385 85.6653 54.1885 85.3439 54.1385C84.9439 54.0814 84.6117 53.9992 84.3474 53.8921C84.0903 53.7849 83.901 53.6278 83.7796 53.4206C83.6582 53.2064 83.5974 52.9171 83.5974 52.5528C83.5974 52.1099 83.6939 51.7635 83.8867 51.5135C84.0796 51.2635 84.3367 51.0885 84.6582 50.9885C84.9796 50.8814 85.3296 50.8278 85.7082 50.8278C85.9582 50.8278 86.2153 50.8421 86.4796 50.8706C86.7439 50.8921 86.9939 50.9206 87.2296 50.9564C87.4653 50.9921 87.6617 51.0278 87.8189 51.0635L87.776 52.1456C87.5974 52.1171 87.3903 52.0921 87.1546 52.0706C86.9189 52.0421 86.6832 52.0206 86.4474 52.0064C86.2189 51.9921 86.026 51.9849 85.8689 51.9849C85.7046 51.9849 85.5582 52.0028 85.4296 52.0385C85.301 52.0671 85.201 52.1171 85.1296 52.1885C85.0653 52.2599 85.0332 52.3671 85.0332 52.5099C85.0332 52.6099 85.0617 52.6921 85.1189 52.7564C85.176 52.8206 85.2832 52.8778 85.4403 52.9278C85.6046 52.9706 85.8403 53.0135 86.1474 53.0564C86.5903 53.1206 86.9439 53.2099 87.2082 53.3242C87.4724 53.4385 87.6617 53.6028 87.776 53.8171C87.8974 54.0314 87.9582 54.3206 87.9582 54.6849C87.9582 55.3349 87.7653 55.7921 87.3796 56.0564C87.001 56.3135 86.4582 56.4421 85.751 56.4421Z" fill="black"/>
</g>
<defs>
<clipPath id="clip0_4139_1529">
<rect width="114.286" height="150" fill="white" transform="translate(0.381348)"/>
</clipPath>
</defs>
</svg>
