<svg width="146" height="190" viewBox="0 0 146 190" fill="none" xmlns="http://www.w3.org/2000/svg">
<g clip-path="url(#clip0_4139_1472)">
<path d="M102.641 102.512L130.202 170.048L100.409 166.421L86.2415 184.298L85.0395 185.853L81.6909 189.998L54.2153 122.548L102.641 102.512Z" fill="#003C4F"/>
<path d="M43.7401 102.512L16.1787 170.048L45.9725 166.421L60.1396 184.298L61.3417 185.853L64.6903 189.998L92.1658 122.548L43.7401 102.512Z" fill="#003C4F"/>
<path d="M145.571 114.777V48.6227C145.571 43.0955 142.652 38 137.844 35.2364L80.918 2.07273C76.1098 -0.690909 70.2712 -0.690909 65.463 2.07273L8.53707 35.15C3.72885 37.9136 0.80957 43.0091 0.80957 48.5364V114.691C0.80957 120.218 3.72885 125.314 8.53707 128.077L65.5489 161.155C70.3571 163.918 76.1957 163.918 81.0039 161.155L138.016 128.077C142.652 125.4 145.571 120.305 145.571 114.777Z" fill="#E8F1F3"/>
<path d="M133.207 109.081V54.2397C133.207 49.6624 130.803 45.4306 126.854 43.0988L79.6299 15.7215C75.6803 13.3897 70.7862 13.3897 66.8366 15.7215L19.613 43.0988C15.6634 45.4306 13.2593 49.6624 13.2593 54.2397V109.081C13.2593 113.658 15.6634 117.89 19.613 120.222L66.8366 147.599C70.7862 149.931 75.6803 149.931 79.6299 147.599L126.854 120.222C130.717 117.89 133.207 113.658 133.207 109.081Z" fill="#AECBD3"/>
<path d="M126.16 105.97V57.4338C126.16 53.3747 124.013 49.6611 120.493 47.5884L78.7647 23.3202C75.2444 21.2474 70.9513 21.2474 67.431 23.3202L25.7025 47.5884C22.1822 49.6611 20.0356 53.3747 20.0356 57.4338V105.97C20.0356 110.029 22.1822 113.743 25.7025 115.816L67.431 140.084C70.9513 142.157 75.2444 142.157 78.7647 140.084L120.493 115.816C124.013 113.743 126.16 110.029 126.16 105.97Z" fill="white"/>
<path d="M73.1906 35.2383L74.7361 38.261L78.0846 38.7792L75.5947 41.1974L76.1957 44.4792L73.1906 42.9246L70.1854 44.4792L70.7864 41.1974L68.3823 38.7792L71.7309 38.261L73.1906 35.2383Z" fill="#FF6B00"/>
<path d="M88.0445 38.2578L89.0749 40.3305L91.3073 40.676L89.6759 42.2305L90.1052 44.476L88.0445 43.4396L86.0697 44.476L86.499 42.2305L84.8677 40.676L87.1001 40.3305L88.0445 38.2578Z" fill="#FF6B00"/>
<path d="M58.3365 38.2578L57.3061 40.3305L55.0737 40.676L56.7051 42.2305L56.2758 44.476L58.3365 43.4396L60.3113 44.476L59.9678 42.2305L61.5992 40.676L59.2809 40.3305L58.3365 38.2578Z" fill="#FF6B00"/>
<rect x="20.0356" y="83.6914" width="106.31" height="22.619" fill="#FFD100"/>
<path d="M57.4382 100.215L55.5925 90.8506H56.8275L58.3339 99.1427H58.7139L60.5461 90.9184H61.9304L63.7625 99.1427H64.1425L65.6489 90.8506H66.8839L65.0247 100.215H62.9347L61.1432 91.9227H61.3197L59.5282 100.215H57.4382ZM68.2095 100.215V93.4291H69.3495V100.215H68.2095ZM68.2095 91.9906V90.7284H69.3495V91.9906H68.2095ZM71.2445 100.215V93.4291H72.3845V93.8906C72.5383 93.8001 72.7283 93.7096 72.9545 93.6191C73.1897 93.5287 73.434 93.4517 73.6874 93.3884C73.9497 93.3251 74.1986 93.2934 74.4338 93.2934C75.0581 93.2934 75.5376 93.4065 75.8724 93.6327C76.2071 93.8498 76.4378 94.2027 76.5645 94.6913C76.6912 95.1798 76.7545 95.8267 76.7545 96.632V100.215H75.6009V96.6727C75.6009 96.1027 75.5647 95.6458 75.4924 95.302C75.429 94.9582 75.2978 94.7094 75.0988 94.5556C74.9088 94.4017 74.6102 94.3248 74.2031 94.3248C73.9859 94.3248 73.7597 94.352 73.5245 94.4063C73.2983 94.4515 73.0857 94.5103 72.8866 94.5827C72.6876 94.6551 72.5202 94.7275 72.3845 94.7998V100.215H71.2445ZM80.8129 100.364C80.3424 100.364 79.9669 100.292 79.6865 100.147C79.406 100.002 79.2024 99.7534 79.0757 99.4006C78.9581 99.0387 78.8993 98.532 78.8993 97.8806V94.4198H77.9629V93.4291H78.8993V91.3934H80.0529V93.4291H82.1293V94.4198H80.0529V97.5548C80.0529 98.0163 80.071 98.3782 80.1072 98.6406C80.1524 98.8939 80.2384 99.0748 80.365 99.1834C80.5007 99.2829 80.7088 99.3327 80.9893 99.3327C81.0798 99.3327 81.1929 99.3282 81.3286 99.3191C81.4734 99.3101 81.6181 99.301 81.7629 99.292C81.9167 99.2739 82.0479 99.2603 82.1565 99.2513L82.2243 100.215C82.0253 100.242 81.7855 100.274 81.505 100.31C81.2336 100.346 81.0029 100.364 80.8129 100.364ZM85.7877 100.351C85.1 100.351 84.5572 100.219 84.1591 99.957C83.761 99.6946 83.4715 99.3056 83.2905 98.7898C83.1186 98.2741 83.0327 97.6317 83.0327 96.8627C83.0327 96.0122 83.1503 95.3246 83.3855 94.7998C83.6208 94.2751 83.951 93.8951 84.3762 93.6598C84.8105 93.4156 85.3262 93.2934 85.9234 93.2934C86.8462 93.2934 87.5384 93.5467 87.9998 94.0534C88.4703 94.551 88.7055 95.3517 88.7055 96.4556L88.6512 97.297H84.2134C84.2224 97.9665 84.3491 98.4777 84.5934 98.8306C84.8377 99.1744 85.281 99.3463 85.9234 99.3463C86.1767 99.3463 86.4572 99.3417 86.7648 99.3327C87.0724 99.3146 87.3755 99.2965 87.6741 99.2784C87.9817 99.2603 88.2396 99.2422 88.4477 99.2241L88.4748 100.12C88.2577 100.156 87.9908 100.192 87.6741 100.228C87.3574 100.265 87.0317 100.292 86.697 100.31C86.3712 100.337 86.0681 100.351 85.7877 100.351ZM84.2134 96.3877H87.5384C87.5384 95.5915 87.4117 95.0351 87.1584 94.7184C86.905 94.3927 86.4934 94.2298 85.9234 94.2298C85.3715 94.2298 84.9462 94.3972 84.6477 94.732C84.3581 95.0667 84.2134 95.6187 84.2134 96.3877ZM90.2233 100.215V93.4291H91.3633V94.3248C91.5352 94.2072 91.7478 94.0806 92.0012 93.9448C92.2635 93.8001 92.5485 93.6644 92.8562 93.5377C93.1638 93.411 93.4714 93.3251 93.779 93.2798V94.4334C93.4804 94.4967 93.1773 94.5782 92.8697 94.6777C92.5621 94.7772 92.2771 94.8858 92.0147 95.0034C91.7523 95.121 91.5352 95.2251 91.3633 95.3156V100.215H90.2233Z" fill="black"/>
<path d="M60.8375 123.965V122.499L62.8868 120.396C63.2759 119.997 63.6106 119.649 63.8911 119.351C64.1716 119.043 64.3842 118.753 64.529 118.482C64.6828 118.211 64.7597 117.921 64.7597 117.613C64.7597 117.161 64.633 116.858 64.3797 116.704C64.1264 116.541 63.7192 116.46 63.1583 116.46C62.9321 116.46 62.6833 116.473 62.4118 116.501C62.1404 116.528 61.878 116.559 61.6247 116.596C61.3804 116.632 61.1678 116.668 60.9868 116.704L60.8918 115.266C61.0909 115.211 61.3352 115.152 61.6247 115.089C61.9233 115.026 62.2444 114.972 62.5883 114.926C62.9411 114.872 63.2849 114.845 63.6197 114.845C64.5968 114.845 65.3433 115.053 65.859 115.469C66.3747 115.876 66.6325 116.51 66.6325 117.369C66.6325 117.84 66.5647 118.256 66.429 118.618C66.3023 118.98 66.0987 119.328 65.8183 119.663C65.5468 119.988 65.1849 120.346 64.7325 120.735L62.9411 122.445H66.7547V123.965H60.8375ZM71.3508 124.114C70.7718 124.114 70.2697 124.037 69.8444 123.883C69.4192 123.721 69.0663 123.463 68.7858 123.11C68.5144 122.748 68.3063 122.277 68.1616 121.698C68.0258 121.119 67.958 120.409 67.958 119.568C67.958 118.699 68.0258 117.962 68.1616 117.356C68.3063 116.749 68.5189 116.265 68.7994 115.903C69.0799 115.532 69.4282 115.266 69.8444 115.103C70.2697 114.94 70.7673 114.858 71.3373 114.858C71.9254 114.858 72.432 114.94 72.8573 115.103C73.2825 115.266 73.6308 115.532 73.9023 115.903C74.1827 116.265 74.3863 116.749 74.513 117.356C74.6487 117.953 74.7166 118.69 74.7166 119.568C74.7166 120.681 74.5944 121.572 74.3501 122.241C74.1149 122.902 73.7485 123.381 73.2508 123.68C72.7532 123.969 72.1199 124.114 71.3508 124.114ZM71.3508 122.54C71.6042 122.54 71.8213 122.499 72.0023 122.418C72.1923 122.327 72.3506 122.173 72.4773 121.956C72.6039 121.739 72.6944 121.436 72.7487 121.047C72.812 120.658 72.8437 120.165 72.8437 119.568C72.8437 118.934 72.812 118.414 72.7487 118.007C72.6944 117.6 72.6085 117.283 72.4908 117.057C72.3732 116.822 72.2194 116.659 72.0294 116.568C71.8394 116.469 71.6132 116.419 71.3508 116.419C71.0885 116.419 70.8623 116.469 70.6723 116.568C70.4823 116.659 70.3239 116.817 70.1973 117.043C70.0797 117.27 69.9892 117.591 69.9258 118.007C69.8625 118.414 69.8308 118.939 69.8308 119.581C69.8308 120.178 69.8625 120.672 69.9258 121.061C69.9982 121.45 70.0977 121.753 70.2244 121.97C70.3511 122.178 70.5049 122.327 70.6858 122.418C70.8758 122.499 71.0975 122.54 71.3508 122.54ZM75.9199 123.965V122.499L77.9691 120.396C78.3582 119.997 78.693 119.649 78.9734 119.351C79.2539 119.043 79.4665 118.753 79.6113 118.482C79.7651 118.211 79.842 117.921 79.842 117.613C79.842 117.161 79.7153 116.858 79.462 116.704C79.2087 116.541 78.8015 116.46 78.2406 116.46C78.0144 116.46 77.7656 116.473 77.4941 116.501C77.2227 116.528 76.9603 116.559 76.707 116.596C76.4627 116.632 76.2501 116.668 76.0691 116.704L75.9741 115.266C76.1732 115.211 76.4175 115.152 76.707 115.089C77.0056 115.026 77.3268 114.972 77.6706 114.926C78.0234 114.872 78.3672 114.845 78.702 114.845C79.6791 114.845 80.4256 115.053 80.9413 115.469C81.457 115.876 81.7149 116.51 81.7149 117.369C81.7149 117.84 81.647 118.256 81.5113 118.618C81.3846 118.98 81.181 119.328 80.9006 119.663C80.6291 119.988 80.2672 120.346 79.8149 120.735L78.0234 122.445H81.837V123.965H75.9199ZM86.2839 124.114C85.9491 124.114 85.5962 124.096 85.2253 124.06C84.8634 124.024 84.5151 123.978 84.1803 123.924C83.8546 123.861 83.5832 123.807 83.366 123.761L83.4474 122.309C83.6646 122.336 83.9224 122.368 84.221 122.404C84.5286 122.44 84.8408 122.472 85.1574 122.499C85.4832 122.517 85.7817 122.526 86.0532 122.526C86.5689 122.526 86.9534 122.431 87.2067 122.241C87.4601 122.051 87.5867 121.744 87.5867 121.318C87.5867 121.029 87.5279 120.803 87.4103 120.64C87.3017 120.468 87.1389 120.341 86.9217 120.26C86.7136 120.178 86.4693 120.133 86.1889 120.124H84.3432V118.631H86.1482C86.3562 118.631 86.5553 118.586 86.7453 118.496C86.9443 118.405 87.1027 118.274 87.2203 118.102C87.347 117.93 87.4103 117.722 87.4103 117.478C87.4103 117.098 87.2927 116.831 87.0574 116.677C86.8312 116.514 86.4603 116.433 85.9446 116.433C85.6732 116.433 85.3882 116.446 85.0896 116.473C84.791 116.501 84.506 116.532 84.2346 116.568C83.9632 116.596 83.737 116.627 83.556 116.663L83.4746 115.238C83.6736 115.184 83.9179 115.13 84.2074 115.076C84.497 115.012 84.8046 114.962 85.1303 114.926C85.456 114.881 85.7636 114.858 86.0532 114.858C86.8222 114.858 87.442 114.94 87.9124 115.103C88.392 115.257 88.7403 115.514 88.9574 115.876C89.1746 116.229 89.2832 116.695 89.2832 117.274C89.2832 117.591 89.2424 117.858 89.161 118.075C89.0886 118.292 88.9891 118.477 88.8624 118.631C88.7448 118.785 88.6227 118.912 88.496 119.011C88.3693 119.102 88.2517 119.183 88.1432 119.256C88.4146 119.382 88.6498 119.522 88.8489 119.676C89.0479 119.83 89.2017 120.034 89.3103 120.287C89.4189 120.54 89.4732 120.88 89.4732 121.305C89.4732 121.983 89.3555 122.531 89.1203 122.947C88.8851 123.354 88.5322 123.653 88.0617 123.843C87.5912 124.024 86.9986 124.114 86.2839 124.114Z" fill="#000E23"/>
<path d="M27.7424 71.9414V62.6721H33.7274V64.2464H29.6153V67.0421H32.981V68.6164H29.6153V71.9414H27.7424ZM36.5288 72.0907C35.823 72.0907 35.2892 71.9143 34.9273 71.5614C34.5745 71.1995 34.398 70.6566 34.398 69.9328C34.398 69.4262 34.4885 69.0326 34.6695 68.7521C34.8504 68.4626 35.1173 68.2545 35.4702 68.1278C35.8321 67.9921 36.2709 67.9107 36.7866 67.8835L38.4423 67.7343V67.3271C38.4423 67.0014 38.3609 66.7752 38.198 66.6485C38.0352 66.5128 37.7954 66.445 37.4788 66.445C37.2254 66.445 36.9314 66.454 36.5966 66.4721C36.2709 66.4902 35.9452 66.5128 35.6195 66.54C35.3028 66.5671 35.0268 66.5943 34.7916 66.6214L34.7373 65.3457C34.9726 65.2914 35.253 65.2371 35.5788 65.1828C35.9135 65.1195 36.2618 65.0697 36.6238 65.0335C36.9857 64.9974 37.3204 64.9793 37.628 64.9793C38.2071 64.9793 38.6911 65.0516 39.0802 65.1964C39.4692 65.3412 39.7633 65.5809 39.9623 65.9157C40.1614 66.2414 40.2609 66.6847 40.2609 67.2457V70.3535C40.279 70.4802 40.3468 70.5797 40.4645 70.6521C40.5821 70.7155 40.7178 70.7607 40.8716 70.7878L40.8309 72.0364C40.6138 72.0455 40.4011 72.05 40.193 72.05C39.9849 72.05 39.8085 72.0364 39.6638 72.0093C39.4557 71.9821 39.2747 71.9278 39.1209 71.8464C38.9761 71.765 38.8585 71.679 38.768 71.5885C38.6233 71.6519 38.4288 71.7243 38.1845 71.8057C37.9402 71.8871 37.6733 71.955 37.3838 72.0093C37.1033 72.0635 36.8183 72.0907 36.5288 72.0907ZM36.963 70.7471C37.1349 70.7471 37.3159 70.729 37.5059 70.6928C37.6959 70.6566 37.8723 70.6159 38.0352 70.5707C38.2071 70.5164 38.3428 70.4666 38.4423 70.4214V68.8607L37.058 68.9828C36.7595 69.01 36.5423 69.1005 36.4066 69.2543C36.2799 69.399 36.2166 69.6071 36.2166 69.8785C36.2166 70.15 36.2754 70.3626 36.393 70.5164C36.5197 70.6702 36.7097 70.7471 36.963 70.7471ZM44.3111 72.0907C44.0125 72.0907 43.6914 72.0726 43.3475 72.0364C43.0128 72.0093 42.6961 71.9731 42.3975 71.9278C42.108 71.8826 41.8592 71.8374 41.6511 71.7921L41.7054 70.4485C41.9406 70.4757 42.203 70.5074 42.4925 70.5435C42.7911 70.5797 43.0806 70.6114 43.3611 70.6385C43.6506 70.6566 43.8859 70.6657 44.0668 70.6657C44.3383 70.6657 44.5599 70.6431 44.7318 70.5978C44.9128 70.5526 45.0485 70.4802 45.139 70.3807C45.2294 70.2721 45.2747 70.1183 45.2747 69.9193C45.2747 69.7655 45.234 69.6478 45.1525 69.5664C45.0802 69.485 44.9354 69.4171 44.7183 69.3628C44.5102 69.2995 44.2025 69.2362 43.7954 69.1728C43.2887 69.1005 42.868 68.9964 42.5333 68.8607C42.2075 68.725 41.9678 68.5259 41.814 68.2635C41.6602 67.9921 41.5833 67.6257 41.5833 67.1643C41.5833 66.6033 41.7054 66.1645 41.9497 65.8478C42.194 65.5312 42.5197 65.3095 42.9268 65.1828C43.334 65.0471 43.7773 64.9793 44.2568 64.9793C44.5735 64.9793 44.8992 64.9974 45.234 65.0335C45.5687 65.0607 45.8854 65.0969 46.184 65.1421C46.4825 65.1874 46.7314 65.2326 46.9304 65.2778L46.8761 66.6485C46.6499 66.6124 46.3875 66.5807 46.089 66.5535C45.7904 66.5174 45.4918 66.4902 45.1933 66.4721C44.9037 66.454 44.6594 66.445 44.4604 66.445C44.2523 66.445 44.0668 66.4676 43.904 66.5128C43.7411 66.549 43.6144 66.6124 43.524 66.7028C43.4425 66.7933 43.4018 66.929 43.4018 67.11C43.4018 67.2366 43.438 67.3407 43.5104 67.4221C43.5828 67.5035 43.7185 67.5759 43.9175 67.6393C44.1256 67.6935 44.4242 67.7478 44.8133 67.8021C45.3742 67.8835 45.8221 67.9966 46.1568 68.1414C46.4916 68.2862 46.7314 68.4943 46.8761 68.7657C47.0299 69.0371 47.1068 69.4035 47.1068 69.865C47.1068 70.6883 46.8625 71.2674 46.374 71.6021C45.8944 71.9278 45.2068 72.0907 44.3111 72.0907ZM50.6844 72.1043C50.1868 72.1043 49.7841 72.0319 49.4765 71.8871C49.1689 71.7424 48.9472 71.4935 48.8115 71.1407C48.6849 70.7788 48.6215 70.2766 48.6215 69.6343V66.635H47.8208V65.1285H48.6215V63.3235H50.4265V65.1285H52.1637V66.635H50.4265V69.1593C50.4265 69.5121 50.4401 69.7881 50.4672 69.9871C50.5034 70.1862 50.5758 70.3264 50.6844 70.4078C50.793 70.4893 50.9603 70.53 51.1865 70.53C51.2499 70.53 51.3449 70.5255 51.4715 70.5164C51.5982 70.5074 51.7249 70.4983 51.8515 70.4893C51.9782 70.4802 52.0822 70.4712 52.1637 70.4621L52.218 71.9143C52.0008 71.9505 51.7384 71.9912 51.4308 72.0364C51.1322 72.0816 50.8834 72.1043 50.6844 72.1043ZM56.2371 71.9414V62.6721H58.11V71.9414H56.2371ZM59.7202 71.9414V65.1285H61.5252V65.5628C61.7333 65.4362 62.0138 65.3095 62.3666 65.1828C62.7195 65.0471 63.0543 64.9793 63.3709 64.9793C63.7871 64.9793 64.1264 65.0381 64.3888 65.1557C64.6512 65.2643 64.8683 65.4271 65.0402 65.6443C65.2031 65.5447 65.4066 65.4452 65.6509 65.3457C65.8952 65.2462 66.1621 65.1602 66.4516 65.0878C66.7412 65.0155 67.0216 64.9793 67.2931 64.9793C67.9626 64.9793 68.4738 65.0969 68.8266 65.3321C69.1795 65.5674 69.4238 65.9383 69.5595 66.445C69.6952 66.9426 69.7631 67.594 69.7631 68.3993V71.9414H67.9581V68.5621C67.9581 68.0916 67.9309 67.7116 67.8766 67.4221C67.8314 67.1235 67.7319 66.9064 67.5781 66.7707C67.4333 66.635 67.2116 66.5671 66.9131 66.5671C66.6507 66.5671 66.3928 66.6033 66.1395 66.6757C65.8862 66.7481 65.6871 66.8205 65.5423 66.8928C65.5876 67.0828 65.6193 67.3271 65.6373 67.6257C65.6645 67.9243 65.6781 68.2364 65.6781 68.5621V71.9414H63.8731V68.5893C63.8731 68.1097 63.8459 67.7207 63.7916 67.4221C63.7464 67.1235 63.6469 66.9064 63.4931 66.7707C63.3393 66.635 63.1176 66.5671 62.8281 66.5671C62.5747 66.5671 62.3259 66.6033 62.0816 66.6757C61.8464 66.7481 61.6609 66.8205 61.5252 66.8928V71.9414H59.7202ZM71.1976 74.805V65.1285H72.989L73.0026 65.5628C73.1293 65.4814 73.2876 65.3955 73.4776 65.305C73.6766 65.2145 73.8893 65.1376 74.1155 65.0743C74.3416 65.0109 74.5633 64.9793 74.7805 64.9793C75.6943 64.9793 76.3502 65.2733 76.7483 65.8614C77.1464 66.4405 77.3455 67.3226 77.3455 68.5078C77.3455 69.3583 77.2459 70.0459 77.0469 70.5707C76.8478 71.0955 76.5266 71.48 76.0833 71.7243C75.649 71.9685 75.0745 72.0907 74.3597 72.0907C74.1336 72.0907 73.8893 72.0726 73.6269 72.0364C73.3645 72.0002 73.1564 71.964 73.0026 71.9278V74.805H71.1976ZM74.0747 70.5843C74.4366 70.5843 74.7216 70.5074 74.9297 70.3535C75.1378 70.1997 75.2826 69.969 75.364 69.6614C75.4545 69.3447 75.4997 68.9466 75.4997 68.4671C75.4997 67.7252 75.3957 67.214 75.1876 66.9335C74.9886 66.644 74.699 66.4993 74.319 66.4993C74.1743 66.4993 74.0205 66.5174 73.8576 66.5535C73.6947 66.5897 73.5364 66.635 73.3826 66.6893C73.2288 66.7435 73.1021 66.7978 73.0026 66.8521V70.4893C73.1112 70.4983 73.265 70.5164 73.464 70.5435C73.6721 70.5707 73.8757 70.5843 74.0747 70.5843ZM78.634 71.9414V62.3464H80.439V71.9414H78.634ZM84.7408 72.0907C83.9899 72.0907 83.3927 71.964 82.9494 71.7107C82.5151 71.4574 82.203 71.0728 82.013 70.5571C81.823 70.0414 81.728 69.3945 81.728 68.6164C81.728 67.775 81.8456 67.0874 82.0808 66.5535C82.3251 66.0197 82.678 65.6262 83.1394 65.3728C83.6008 65.1105 84.1708 64.9793 84.8494 64.9793C85.8537 64.9793 86.6092 65.2326 87.1158 65.7393C87.6315 66.2459 87.8894 67.0466 87.8894 68.1414L87.808 69.1457H83.5465C83.5556 69.6524 83.6596 70.0324 83.8587 70.2857C84.0577 70.539 84.4015 70.6657 84.8901 70.6657C85.1706 70.6657 85.4782 70.6612 85.813 70.6521C86.1477 70.634 86.478 70.6159 86.8037 70.5978C87.1384 70.5797 87.4234 70.5616 87.6587 70.5435L87.6994 71.8057C87.4732 71.8419 87.1882 71.8826 86.8444 71.9278C86.5006 71.9731 86.1432 72.0093 85.7723 72.0364C85.4103 72.0726 85.0665 72.0907 84.7408 72.0907ZM83.5465 67.9921H86.0844C86.0844 67.3769 85.9849 66.9471 85.7858 66.7028C85.5958 66.4585 85.2837 66.3364 84.8494 66.3364C84.4242 66.3364 84.0984 66.4631 83.8723 66.7164C83.6551 66.9697 83.5465 67.395 83.5465 67.9921ZM89.0896 71.9414V65.1285H90.8946V65.5628C91.1027 65.4362 91.3832 65.3095 91.7361 65.1828C92.0889 65.0471 92.4237 64.9793 92.7403 64.9793C93.1565 64.9793 93.4958 65.0381 93.7582 65.1557C94.0206 65.2643 94.2377 65.4271 94.4096 65.6443C94.5725 65.5447 94.7761 65.4452 95.0203 65.3457C95.2646 65.2462 95.5315 65.1602 95.8211 65.0878C96.1106 65.0155 96.3911 64.9793 96.6625 64.9793C97.332 64.9793 97.8432 65.0969 98.1961 65.3321C98.5489 65.5674 98.7932 65.9383 98.9289 66.445C99.0646 66.9426 99.1325 67.594 99.1325 68.3993V71.9414H97.3275V68.5621C97.3275 68.0916 97.3003 67.7116 97.2461 67.4221C97.2008 67.1235 97.1013 66.9064 96.9475 66.7707C96.8027 66.635 96.5811 66.5671 96.2825 66.5671C96.0201 66.5671 95.7622 66.6033 95.5089 66.6757C95.2556 66.7481 95.0565 66.8205 94.9118 66.8928C94.957 67.0828 94.9887 67.3271 95.0068 67.6257C95.0339 67.9243 95.0475 68.2364 95.0475 68.5621V71.9414H93.2425V68.5893C93.2425 68.1097 93.2153 67.7207 93.1611 67.4221C93.1158 67.1235 93.0163 66.9064 92.8625 66.7707C92.7087 66.635 92.487 66.5671 92.1975 66.5671C91.9441 66.5671 91.6953 66.6033 91.4511 66.6757C91.2158 66.7481 91.0303 66.8205 90.8946 66.8928V71.9414H89.0896ZM103.322 72.0907C102.571 72.0907 101.974 71.964 101.531 71.7107C101.096 71.4574 100.784 71.0728 100.594 70.5571C100.404 70.0414 100.309 69.3945 100.309 68.6164C100.309 67.775 100.427 67.0874 100.662 66.5535C100.906 66.0197 101.259 65.6262 101.721 65.3728C102.182 65.1105 102.752 64.9793 103.431 64.9793C104.435 64.9793 105.19 65.2326 105.697 65.7393C106.213 66.2459 106.471 67.0466 106.471 68.1414L106.389 69.1457H102.128C102.137 69.6524 102.241 70.0324 102.44 70.2857C102.639 70.539 102.983 70.6657 103.471 70.6657C103.752 70.6657 104.059 70.6612 104.394 70.6521C104.729 70.634 105.059 70.6159 105.385 70.5978C105.72 70.5797 106.005 70.5616 106.24 70.5435L106.281 71.8057C106.054 71.8419 105.769 71.8826 105.426 71.9278C105.082 71.9731 104.724 72.0093 104.353 72.0364C103.992 72.0726 103.648 72.0907 103.322 72.0907ZM102.128 67.9921H104.666C104.666 67.3769 104.566 66.9471 104.367 66.7028C104.177 66.4585 103.865 66.3364 103.431 66.3364C103.005 66.3364 102.68 66.4631 102.453 66.7164C102.236 66.9697 102.128 67.395 102.128 67.9921ZM107.671 71.9414V65.1285H109.476V65.5628C109.621 65.4724 109.797 65.3864 110.005 65.305C110.213 65.2145 110.43 65.1376 110.657 65.0743C110.892 65.0109 111.118 64.9793 111.335 64.9793C111.968 64.9793 112.457 65.0924 112.801 65.3185C113.154 65.5357 113.402 65.8976 113.547 66.4043C113.692 66.9019 113.764 67.5714 113.764 68.4128V71.9414H111.946V68.5078C111.946 68.0374 111.919 67.6619 111.864 67.3814C111.81 67.0919 111.706 66.8838 111.552 66.7571C111.398 66.6305 111.172 66.5671 110.874 66.5671C110.711 66.5671 110.539 66.5852 110.358 66.6214C110.186 66.6485 110.019 66.6893 109.856 66.7435C109.702 66.7978 109.575 66.8521 109.476 66.9064V71.9414H107.671ZM117.561 72.1043C117.063 72.1043 116.661 72.0319 116.353 71.8871C116.045 71.7424 115.824 71.4935 115.688 71.1407C115.561 70.7788 115.498 70.2766 115.498 69.6343V66.635H114.697V65.1285H115.498V63.3235H117.303V65.1285H119.04V66.635H117.303V69.1593C117.303 69.5121 117.316 69.7881 117.344 69.9871C117.38 70.1862 117.452 70.3264 117.561 70.4078C117.669 70.4893 117.837 70.53 118.063 70.53C118.126 70.53 118.221 70.5255 118.348 70.5164C118.475 70.5074 118.601 70.4983 118.728 70.4893C118.855 70.4802 118.959 70.4712 119.04 70.4621L119.094 71.9143C118.877 71.9505 118.615 71.9912 118.307 72.0364C118.009 72.0816 117.76 72.1043 117.561 72.1043Z" fill="black"/>
</g>
<defs>
<clipPath id="clip0_4139_1472">
<rect width="144.762" height="190" fill="white" transform="translate(0.80957)"/>
</clipPath>
</defs>
</svg>
