<svg width="115" height="150" viewBox="0 0 115 150" fill="none" xmlns="http://www.w3.org/2000/svg">
<g clip-path="url(#clip0_4139_1510)">
<path d="M80.4413 80.9297L102.2 134.248L78.6788 131.384L67.4943 145.498L66.5453 146.725L63.9017 149.998L42.2104 96.7479L80.4413 80.9297Z" fill="#003C4F"/>
<path d="M33.9407 80.9297L12.1816 134.248L35.7031 131.384L46.8876 145.498L47.8366 146.725L50.4802 149.998L72.1715 96.7479L33.9407 80.9297Z" fill="#003C4F"/>
<path d="M114.334 90.6136V38.3864C114.334 34.0227 112.029 30 108.233 27.8182L63.2914 1.63636C59.4954 -0.545455 54.886 -0.545455 51.09 1.63636L6.14851 27.75C2.35255 29.9318 0.0478516 33.9545 0.0478516 38.3182V90.5455C0.0478516 94.9091 2.35255 98.9318 6.14851 101.114L51.1578 127.227C54.9538 129.409 59.5632 129.409 63.3592 127.227L108.368 101.114C112.029 99 114.334 94.9773 114.334 90.6136Z" fill="#E8F1F3"/>
<path d="M104.573 86.1165V42.821C104.573 39.2074 102.675 35.8665 99.5567 34.0256L62.2749 12.4119C59.1567 10.571 55.293 10.571 52.1749 12.4119L14.8931 34.0256C11.7749 35.8665 9.87695 39.2074 9.87695 42.821V86.1165C9.87695 89.7301 11.7749 93.071 14.8931 94.9119L52.1749 116.526C55.293 118.366 59.1567 118.366 62.2749 116.526L99.5567 94.9119C102.607 93.071 104.573 89.7301 104.573 86.1165Z" fill="#AECBD3"/>
<path d="M99.009 83.6609V45.3427C99.009 42.1381 97.3143 39.2063 94.5351 37.57L61.5916 18.4109C58.8124 16.7745 55.4231 16.7745 52.6439 18.4109L19.7004 37.57C16.9212 39.2063 15.2266 42.1381 15.2266 45.3427V83.6609C15.2266 86.8654 16.9212 89.7972 19.7004 91.4336L52.6439 110.593C55.4231 112.229 58.8124 112.229 61.5916 110.593L94.5351 91.4336C97.3143 89.7972 99.009 86.8654 99.009 83.6609Z" fill="white"/>
<path d="M57.191 27.8203L58.4111 30.2067L61.0547 30.6158L59.089 32.5249L59.5635 35.1158L57.191 33.8885L54.8185 35.1158L55.293 32.5249L53.395 30.6158L56.0386 30.2067L57.191 27.8203Z" fill="#FF6B00"/>
<path d="M68.9177 30.2031L69.7311 31.8395L71.4936 32.1122L70.2056 33.3395L70.5446 35.1122L68.9177 34.294L67.3587 35.1122L67.6976 33.3395L66.4097 32.1122L68.1721 31.8395L68.9177 30.2031Z" fill="#FF6B00"/>
<path d="M45.464 30.2031L44.6506 31.8395L42.8882 32.1122L44.1761 33.3395L43.8372 35.1122L45.464 34.294L47.0231 35.1122L46.7519 33.3395L48.0399 32.1122L46.2097 31.8395L45.464 30.2031Z" fill="#FF6B00"/>
<rect x="15.2266" y="66.0742" width="83.9286" height="17.8571" fill="#FFB0D6"/>
<path d="M44.8598 78.6445L43.4027 71.2517H44.3777L45.5669 77.7981H45.8669L47.3134 71.3052H48.4062L49.8527 77.7981H50.1527L51.3419 71.2517H52.3169L50.8491 78.6445H49.1991L47.7848 72.0981H47.9241L46.5098 78.6445H44.8598ZM53.3634 78.6445V73.2874H54.2634V78.6445H53.3634ZM53.3634 72.1517V71.1552H54.2634V72.1517H53.3634ZM55.7595 78.6445V73.2874H56.6595V73.6517C56.7809 73.5802 56.9309 73.5088 57.1095 73.4374C57.2952 73.366 57.4881 73.3052 57.6881 73.2552C57.8952 73.2052 58.0916 73.1802 58.2773 73.1802C58.7702 73.1802 59.1488 73.2695 59.4131 73.4481C59.6773 73.6195 59.8595 73.8981 59.9595 74.2838C60.0595 74.6695 60.1095 75.1802 60.1095 75.816V78.6445H59.1988V75.8481C59.1988 75.3981 59.1702 75.0374 59.1131 74.766C59.0631 74.4945 58.9595 74.2981 58.8023 74.1767C58.6523 74.0552 58.4166 73.9945 58.0952 73.9945C57.9238 73.9945 57.7452 74.016 57.5595 74.0588C57.3809 74.0945 57.2131 74.141 57.0559 74.1981C56.8988 74.2552 56.7666 74.3124 56.6595 74.3695V78.6445H55.7595ZM63.3135 78.7624C62.942 78.7624 62.6456 78.7052 62.4242 78.591C62.2028 78.4767 62.042 78.2802 61.942 78.0017C61.8492 77.716 61.8028 77.316 61.8028 76.8017V74.0695H61.0635V73.2874H61.8028V71.6802H62.7135V73.2874H64.3528V74.0695H62.7135V76.5445C62.7135 76.9088 62.7278 77.1945 62.7563 77.4017C62.792 77.6017 62.8599 77.7445 62.9599 77.8302C63.067 77.9088 63.2313 77.9481 63.4528 77.9481C63.5242 77.9481 63.6135 77.9445 63.7206 77.9374C63.8349 77.9302 63.9492 77.9231 64.0635 77.916C64.1849 77.9017 64.2885 77.891 64.3742 77.8838L64.4278 78.6445C64.2706 78.666 64.0813 78.691 63.8599 78.7195C63.6456 78.7481 63.4635 78.7624 63.3135 78.7624ZM67.2409 78.7517C66.6981 78.7517 66.2695 78.6481 65.9552 78.441C65.6409 78.2338 65.4124 77.9267 65.2695 77.5195C65.1338 77.1124 65.0659 76.6052 65.0659 75.9981C65.0659 75.3267 65.1588 74.7838 65.3445 74.3695C65.5302 73.9552 65.7909 73.6552 66.1266 73.4695C66.4695 73.2767 66.8766 73.1802 67.3481 73.1802C68.0766 73.1802 68.6231 73.3802 68.9874 73.7802C69.3588 74.1731 69.5445 74.8052 69.5445 75.6767L69.5016 76.341H65.9981C66.0052 76.8695 66.1052 77.2731 66.2981 77.5517C66.4909 77.8231 66.8409 77.9588 67.3481 77.9588C67.5481 77.9588 67.7695 77.9552 68.0124 77.9481C68.2552 77.9338 68.4945 77.9195 68.7302 77.9052C68.9731 77.891 69.1766 77.8767 69.3409 77.8624L69.3624 78.5695C69.1909 78.5981 68.9802 78.6267 68.7302 78.6552C68.4802 78.6838 68.2231 78.7052 67.9588 78.7195C67.7016 78.741 67.4624 78.7517 67.2409 78.7517ZM65.9981 75.6231H68.6231C68.6231 74.9945 68.5231 74.5552 68.3231 74.3052C68.1231 74.0481 67.7981 73.9195 67.3481 73.9195C66.9124 73.9195 66.5766 74.0517 66.3409 74.316C66.1124 74.5802 65.9981 75.016 65.9981 75.6231ZM70.7427 78.6445V73.2874H71.6427V73.9945C71.7785 73.9017 71.9463 73.8017 72.1463 73.6945C72.3535 73.5802 72.5785 73.4731 72.8213 73.3731C73.0642 73.2731 73.307 73.2052 73.5499 73.1695V74.0802C73.3142 74.1302 73.0749 74.1945 72.832 74.2731C72.5892 74.3517 72.3642 74.4374 72.157 74.5302C71.9499 74.6231 71.7785 74.7052 71.6427 74.7767V78.6445H70.7427Z" fill="black"/>
<path d="M47.2016 97.3945V96.2374L48.8195 94.5767C49.1266 94.2624 49.3909 93.9874 49.6123 93.7517C49.8338 93.5088 50.0016 93.2802 50.1159 93.066C50.2373 92.8517 50.298 92.6231 50.298 92.3802C50.298 92.0231 50.198 91.7838 49.998 91.6624C49.798 91.5338 49.4766 91.4695 49.0338 91.4695C48.8552 91.4695 48.6588 91.4802 48.4445 91.5017C48.2302 91.5231 48.023 91.5481 47.823 91.5767C47.6302 91.6052 47.4623 91.6338 47.3195 91.6624L47.2445 90.5267C47.4016 90.4838 47.5945 90.4374 47.823 90.3874C48.0588 90.3374 48.3123 90.2945 48.5838 90.2588C48.8623 90.216 49.1338 90.1945 49.398 90.1945C50.1695 90.1945 50.7588 90.3588 51.1659 90.6874C51.573 91.0088 51.7766 91.5088 51.7766 92.1874C51.7766 92.5588 51.723 92.8874 51.6159 93.1731C51.5159 93.4588 51.3552 93.7338 51.1338 93.9981C50.9195 94.2552 50.6338 94.5374 50.2766 94.8445L48.8623 96.1945H51.873V97.3945H47.2016ZM55.5016 97.5124C55.0444 97.5124 54.648 97.4517 54.3123 97.3302C53.9766 97.2017 53.698 96.9981 53.4766 96.7195C53.2623 96.4338 53.098 96.0624 52.9837 95.6052C52.8766 95.1481 52.823 94.5874 52.823 93.9231C52.823 93.2374 52.8766 92.6552 52.9837 92.1767C53.098 91.6981 53.2659 91.316 53.4873 91.0302C53.7087 90.7374 53.9837 90.5267 54.3123 90.3981C54.648 90.2695 55.0409 90.2052 55.4909 90.2052C55.9552 90.2052 56.3552 90.2695 56.6909 90.3981C57.0266 90.5267 57.3016 90.7374 57.5159 91.0302C57.7373 91.316 57.898 91.6981 57.998 92.1767C58.1052 92.6481 58.1587 93.2302 58.1587 93.9231C58.1587 94.8017 58.0623 95.5052 57.8694 96.0338C57.6837 96.5552 57.3944 96.9338 57.0016 97.1695C56.6087 97.3981 56.1087 97.5124 55.5016 97.5124ZM55.5016 96.2695C55.7016 96.2695 55.873 96.2374 56.0159 96.1731C56.1659 96.1017 56.2909 95.9802 56.3909 95.8088C56.4909 95.6374 56.5623 95.3981 56.6052 95.091C56.6552 94.7838 56.6802 94.3945 56.6802 93.9231C56.6802 93.4231 56.6552 93.0124 56.6052 92.691C56.5623 92.3695 56.4944 92.1195 56.4016 91.941C56.3087 91.7552 56.1873 91.6267 56.0373 91.5552C55.8873 91.4767 55.7087 91.4374 55.5016 91.4374C55.2944 91.4374 55.1159 91.4767 54.9659 91.5552C54.8159 91.6267 54.6909 91.7517 54.5909 91.9302C54.498 92.1088 54.4266 92.3624 54.3766 92.691C54.3266 93.0124 54.3016 93.4267 54.3016 93.9338C54.3016 94.4052 54.3266 94.7945 54.3766 95.1017C54.4337 95.4088 54.5123 95.6481 54.6123 95.8195C54.7123 95.9838 54.8337 96.1017 54.9766 96.1731C55.1266 96.2374 55.3016 96.2695 55.5016 96.2695ZM59.1087 97.3945V96.2374L60.7266 94.5767C61.0337 94.2624 61.298 93.9874 61.5194 93.7517C61.7408 93.5088 61.9087 93.2802 62.023 93.066C62.1444 92.8517 62.2051 92.6231 62.2051 92.3802C62.2051 92.0231 62.1051 91.7838 61.9051 91.6624C61.7051 91.5338 61.3837 91.4695 60.9408 91.4695C60.7623 91.4695 60.5658 91.4802 60.3516 91.5017C60.1373 91.5231 59.9301 91.5481 59.7301 91.5767C59.5373 91.6052 59.3694 91.6338 59.2266 91.6624L59.1516 90.5267C59.3087 90.4838 59.5016 90.4374 59.7301 90.3874C59.9658 90.3374 60.2194 90.2945 60.4908 90.2588C60.7694 90.216 61.0408 90.1945 61.3051 90.1945C62.0766 90.1945 62.6658 90.3588 63.073 90.6874C63.4801 91.0088 63.6837 91.5088 63.6837 92.1874C63.6837 92.5588 63.6301 92.8874 63.523 93.1731C63.423 93.4588 63.2623 93.7338 63.0408 93.9981C62.8266 94.2552 62.5408 94.5374 62.1837 94.8445L60.7694 96.1945H63.7801V97.3945H59.1087ZM67.2908 97.5124C67.0265 97.5124 66.748 97.4981 66.4551 97.4695C66.1694 97.441 65.8944 97.4052 65.6301 97.3624C65.373 97.3124 65.1587 97.2695 64.9872 97.2338L65.0515 96.0874C65.223 96.1088 65.4265 96.1338 65.6622 96.1624C65.9051 96.191 66.1515 96.216 66.4015 96.2374C66.6587 96.2517 66.8944 96.2588 67.1087 96.2588C67.5158 96.2588 67.8194 96.1838 68.0194 96.0338C68.2194 95.8838 68.3194 95.641 68.3194 95.3052C68.3194 95.0767 68.273 94.8981 68.1801 94.7695C68.0944 94.6338 67.9658 94.5338 67.7944 94.4695C67.6301 94.4052 67.4372 94.3695 67.2158 94.3624H65.7587V93.1838H67.1837C67.348 93.1838 67.5051 93.1481 67.6551 93.0767C67.8122 93.0052 67.9372 92.9017 68.0301 92.766C68.1301 92.6302 68.1801 92.466 68.1801 92.2731C68.1801 91.9731 68.0872 91.7624 67.9015 91.641C67.723 91.5124 67.4301 91.4481 67.023 91.4481C66.8087 91.4481 66.5837 91.4588 66.348 91.4802C66.1122 91.5017 65.8872 91.5267 65.673 91.5552C65.4587 91.5767 65.2801 91.6017 65.1372 91.6302L65.073 90.5052C65.2301 90.4624 65.423 90.4195 65.6515 90.3767C65.8801 90.3267 66.123 90.2874 66.3801 90.2588C66.6372 90.2231 66.8801 90.2052 67.1087 90.2052C67.7158 90.2052 68.2051 90.2695 68.5765 90.3981C68.9551 90.5195 69.2301 90.7231 69.4015 91.0088C69.573 91.2874 69.6587 91.6552 69.6587 92.1124C69.6587 92.3624 69.6265 92.5731 69.5622 92.7445C69.5051 92.916 69.4265 93.0624 69.3265 93.1838C69.2337 93.3052 69.1372 93.4052 69.0372 93.4838C68.9372 93.5552 68.8444 93.6195 68.7587 93.6767C68.973 93.7767 69.1587 93.8874 69.3158 94.0088C69.473 94.1302 69.5944 94.291 69.6801 94.491C69.7658 94.691 69.8087 94.9588 69.8087 95.2945C69.8087 95.8302 69.7158 96.2624 69.5301 96.591C69.3444 96.9124 69.0658 97.1481 68.6944 97.2981C68.323 97.441 67.8551 97.5124 67.2908 97.5124Z" fill="#000E23"/>
<path d="M32.0856 56.3242V49.0064H36.9499V50.2385H33.5642V52.0171H36.3071V53.2278H33.5642V55.0921H36.9499V56.3242H32.0856ZM39.3047 56.4421C38.7476 56.4421 38.3262 56.3028 38.0404 56.0242C37.7619 55.7385 37.6226 55.3099 37.6226 54.7385C37.6226 54.3385 37.694 54.0278 37.8369 53.8064C37.9797 53.5778 38.1904 53.4135 38.469 53.3135C38.7547 53.2064 39.1012 53.1421 39.5083 53.1206L40.8154 53.0028V52.6814C40.8154 52.4242 40.7512 52.2456 40.6226 52.1456C40.494 52.0385 40.3047 51.9849 40.0547 51.9849C39.8547 51.9849 39.6226 51.9921 39.3583 52.0064C39.1012 52.0206 38.844 52.0385 38.5869 52.0599C38.3369 52.0814 38.119 52.1028 37.9333 52.1242L37.8904 51.1171C38.0762 51.0742 38.2976 51.0314 38.5547 50.9885C38.819 50.9385 39.094 50.8992 39.3797 50.8706C39.6654 50.8421 39.9297 50.8278 40.1726 50.8278C40.6297 50.8278 41.0119 50.8849 41.319 50.9992C41.6262 51.1135 41.8583 51.3028 42.0154 51.5671C42.1726 51.8242 42.2512 52.1742 42.2512 52.6171V55.0706C42.2654 55.1706 42.319 55.2492 42.4119 55.3064C42.5047 55.3564 42.6119 55.3921 42.7333 55.4135L42.7012 56.3992C42.5297 56.4064 42.3619 56.4099 42.1976 56.4099C42.0333 56.4099 41.894 56.3992 41.7797 56.3778C41.6154 56.3564 41.4726 56.3135 41.3512 56.2492C41.2369 56.1849 41.144 56.1171 41.0726 56.0456C40.9583 56.0956 40.8047 56.1528 40.6119 56.2171C40.419 56.2814 40.2083 56.3349 39.9797 56.3778C39.7583 56.4206 39.5333 56.4421 39.3047 56.4421ZM39.6476 55.3814C39.7833 55.3814 39.9262 55.3671 40.0762 55.3385C40.2262 55.3099 40.3654 55.2778 40.494 55.2421C40.6297 55.1992 40.7369 55.1599 40.8154 55.1242V53.8921L39.7226 53.9885C39.4869 54.0099 39.3154 54.0814 39.2083 54.2028C39.1083 54.3171 39.0583 54.4814 39.0583 54.6956C39.0583 54.9099 39.1047 55.0778 39.1976 55.1992C39.2976 55.3206 39.4476 55.3814 39.6476 55.3814ZM45.4487 56.4421C45.213 56.4421 44.9594 56.4278 44.688 56.3992C44.4237 56.3778 44.1737 56.3492 43.938 56.3135C43.7094 56.2778 43.513 56.2421 43.3487 56.2064L43.3916 55.1456C43.5773 55.1671 43.7844 55.1921 44.013 55.2206C44.2487 55.2492 44.4773 55.2742 44.6987 55.2956C44.9273 55.3099 45.113 55.3171 45.2558 55.3171C45.4701 55.3171 45.6451 55.2992 45.7808 55.2635C45.9237 55.2278 46.0308 55.1706 46.1023 55.0921C46.1737 55.0064 46.2094 54.8849 46.2094 54.7278C46.2094 54.6064 46.1773 54.5135 46.113 54.4492C46.0558 54.3849 45.9416 54.3314 45.7701 54.2885C45.6058 54.2385 45.363 54.1885 45.0416 54.1385C44.6416 54.0814 44.3094 53.9992 44.0451 53.8921C43.788 53.7849 43.5987 53.6278 43.4773 53.4206C43.3558 53.2064 43.2951 52.9171 43.2951 52.5528C43.2951 52.1099 43.3916 51.7635 43.5844 51.5135C43.7773 51.2635 44.0344 51.0885 44.3558 50.9885C44.6773 50.8814 45.0273 50.8278 45.4058 50.8278C45.6558 50.8278 45.913 50.8421 46.1773 50.8706C46.4416 50.8921 46.6916 50.9206 46.9273 50.9564C47.163 50.9921 47.3594 51.0278 47.5166 51.0635L47.4737 52.1456C47.2951 52.1171 47.088 52.0921 46.8523 52.0706C46.6166 52.0421 46.3808 52.0206 46.1451 52.0064C45.9166 51.9921 45.7237 51.9849 45.5666 51.9849C45.4023 51.9849 45.2558 52.0028 45.1273 52.0385C44.9987 52.0671 44.8987 52.1171 44.8273 52.1885C44.763 52.2599 44.7308 52.3671 44.7308 52.5099C44.7308 52.6099 44.7594 52.6921 44.8166 52.7564C44.8737 52.8206 44.9808 52.8778 45.138 52.9278C45.3023 52.9706 45.538 53.0135 45.8451 53.0564C46.288 53.1206 46.6416 53.2099 46.9058 53.3242C47.1701 53.4385 47.3594 53.6028 47.4737 53.8171C47.5951 54.0314 47.6558 54.3206 47.6558 54.6849C47.6558 55.3349 47.463 55.7921 47.0773 56.0564C46.6987 56.3135 46.1558 56.4421 45.4487 56.4421ZM49.9124 58.5849L50.5981 56.3242H49.4517L48.1767 50.9456H49.6659L50.6195 55.1135H50.8981L51.8517 50.9456H53.2874L51.4338 58.5849H49.9124ZM58.8222 56.4421C58.5508 56.4421 58.2544 56.4242 57.9329 56.3885C57.6115 56.3599 57.2972 56.3242 56.9901 56.2814C56.6901 56.2314 56.4329 56.1885 56.2187 56.1528L56.3151 54.9849C56.5365 55.0135 56.7937 55.0456 57.0865 55.0814C57.3794 55.1099 57.6687 55.1349 57.9544 55.1564C58.2472 55.1778 58.5008 55.1885 58.7151 55.1885C59.1222 55.1885 59.4187 55.1099 59.6044 54.9528C59.7901 54.7885 59.8829 54.5349 59.8829 54.1921C59.8829 54.0064 59.8437 53.8599 59.7651 53.7528C59.6937 53.6385 59.5615 53.5492 59.3687 53.4849C59.1758 53.4135 58.9079 53.3456 58.5651 53.2814C57.9937 53.1742 57.5294 53.0421 57.1722 52.8849C56.8222 52.7278 56.5651 52.5064 56.4008 52.2206C56.2437 51.9349 56.1651 51.5528 56.1651 51.0742C56.1651 50.5171 56.2687 50.0814 56.4758 49.7671C56.6829 49.4456 56.9794 49.2171 57.3651 49.0814C57.7508 48.9456 58.2044 48.8778 58.7258 48.8778C58.9615 48.8778 59.2294 48.8921 59.5294 48.9206C59.8365 48.9421 60.1365 48.9706 60.4294 49.0064C60.7294 49.0421 60.9829 49.0814 61.1901 49.1242L61.1258 50.3028C60.9115 50.2742 60.6615 50.2492 60.3758 50.2278C60.0972 50.1992 59.8187 50.1742 59.5401 50.1528C59.2687 50.1314 59.0365 50.1206 58.8437 50.1206C58.4365 50.1206 58.1365 50.1849 57.9437 50.3135C57.7508 50.4421 57.6544 50.6492 57.6544 50.9349C57.6544 51.1492 57.6972 51.3135 57.7829 51.4278C57.8687 51.5421 58.0115 51.6349 58.2115 51.7064C58.4187 51.7778 58.7008 51.8528 59.0579 51.9314C59.4794 52.0242 59.8365 52.1242 60.1294 52.2314C60.4294 52.3385 60.6687 52.4671 60.8472 52.6171C61.0329 52.7671 61.1687 52.9599 61.2544 53.1956C61.3401 53.4314 61.3829 53.7278 61.3829 54.0849C61.3829 54.6564 61.2794 55.1171 61.0722 55.4671C60.8722 55.8099 60.5794 56.0599 60.1937 56.2171C59.8151 56.3671 59.3579 56.4421 58.8222 56.4421ZM64.4972 56.4421C63.9043 56.4421 63.4329 56.3421 63.0829 56.1421C62.7401 55.9421 62.4936 55.6385 62.3436 55.2314C62.1936 54.8242 62.1186 54.3135 62.1186 53.6992C62.1186 53.0349 62.2115 52.4921 62.3972 52.0706C62.5901 51.6492 62.8686 51.3385 63.2329 51.1385C63.5972 50.9314 64.0472 50.8278 64.5829 50.8278C65.3758 50.8278 65.9722 51.0278 66.3722 51.4278C66.7793 51.8278 66.9829 52.4599 66.9829 53.3242L66.9186 54.1171H63.5543C63.5615 54.5171 63.6436 54.8171 63.8008 55.0171C63.9579 55.2171 64.2293 55.3171 64.6151 55.3171C64.8365 55.3171 65.0793 55.3135 65.3436 55.3064C65.6079 55.2921 65.8686 55.2778 66.1258 55.2635C66.3901 55.2492 66.6151 55.2349 66.8008 55.2206L66.8329 56.2171C66.6543 56.2456 66.4293 56.2778 66.1579 56.3135C65.8865 56.3492 65.6043 56.3778 65.3115 56.3992C65.0258 56.4278 64.7543 56.4421 64.4972 56.4421ZM63.5543 53.2064H65.5579C65.5579 52.7206 65.4793 52.3814 65.3222 52.1885C65.1722 51.9956 64.9258 51.8992 64.5829 51.8992C64.2472 51.8992 63.9901 51.9992 63.8115 52.1992C63.6401 52.3992 63.5543 52.7349 63.5543 53.2064ZM69.8162 56.4528C69.4233 56.4528 69.1055 56.3956 68.8626 56.2814C68.6197 56.1671 68.4447 55.9706 68.3376 55.6921C68.2376 55.4064 68.1876 55.0099 68.1876 54.5028V52.1349H67.5555V50.9456H68.1876V49.5206H69.6126V50.9456H70.984V52.1349H69.6126V54.1278C69.6126 54.4064 69.6233 54.6242 69.6447 54.7814C69.6733 54.9385 69.7305 55.0492 69.8162 55.1135C69.9019 55.1778 70.034 55.2099 70.2126 55.2099C70.2626 55.2099 70.3376 55.2064 70.4376 55.1992C70.5376 55.1921 70.6376 55.1849 70.7376 55.1778C70.8376 55.1706 70.9197 55.1635 70.984 55.1564L71.0269 56.3028C70.8555 56.3314 70.6483 56.3635 70.4055 56.3992C70.1697 56.4349 69.9733 56.4528 69.8162 56.4528ZM73.4952 56.4421C73.0309 56.4421 72.6702 56.3456 72.413 56.1528C72.163 55.9528 71.9845 55.6528 71.8773 55.2528C71.7773 54.8528 71.7273 54.3492 71.7273 53.7421V50.9456H73.1523V53.6778C73.1523 54.0564 73.1702 54.3564 73.2059 54.5778C73.2488 54.7992 73.3309 54.9564 73.4523 55.0492C73.5738 55.1421 73.7488 55.1885 73.9773 55.1885C74.1988 55.1885 74.4059 55.1599 74.5988 55.1028C74.7916 55.0456 74.9452 54.9885 75.0595 54.9314V50.9456H76.4845V56.3242H75.0702V55.9921C74.8273 56.1278 74.5845 56.2385 74.3416 56.3242C74.1059 56.4028 73.8238 56.4421 73.4952 56.4421ZM77.6612 58.5849V50.9456H79.0755L79.0862 51.2885C79.1862 51.2242 79.3112 51.1564 79.4612 51.0849C79.6183 51.0135 79.7862 50.9528 79.9648 50.9028C80.1433 50.8528 80.3183 50.8278 80.4898 50.8278C81.2112 50.8278 81.7291 51.0599 82.0433 51.5242C82.3576 51.9814 82.5148 52.6778 82.5148 53.6135C82.5148 54.2849 82.4362 54.8278 82.2791 55.2421C82.1219 55.6564 81.8683 55.9599 81.5183 56.1528C81.1755 56.3456 80.7219 56.4421 80.1576 56.4421C79.9791 56.4421 79.7862 56.4278 79.5791 56.3992C79.3719 56.3706 79.2076 56.3421 79.0862 56.3135V58.5849H77.6612ZM79.9326 55.2528C80.2183 55.2528 80.4433 55.1921 80.6076 55.0706C80.7719 54.9492 80.8862 54.7671 80.9505 54.5242C81.0219 54.2742 81.0576 53.9599 81.0576 53.5814C81.0576 52.9956 80.9755 52.5921 80.8112 52.3706C80.6541 52.1421 80.4255 52.0278 80.1255 52.0278C80.0112 52.0278 79.8898 52.0421 79.7612 52.0706C79.6326 52.0992 79.5076 52.1349 79.3862 52.1778C79.2648 52.2206 79.1648 52.2635 79.0862 52.3064V55.1778C79.1719 55.1849 79.2933 55.1992 79.4505 55.2206C79.6148 55.2421 79.7755 55.2528 79.9326 55.2528Z" fill="black"/>
</g>
<defs>
<clipPath id="clip0_4139_1510">
<rect width="114.286" height="150" fill="white" transform="translate(0.0478516)"/>
</clipPath>
</defs>
</svg>
