<svg width="350" height="215" viewBox="0 0 350 215" fill="none" xmlns="http://www.w3.org/2000/svg">
<path d="M92.8683 204.936C92.4205 202.317 90.9486 196.177 87.2166 189.424C82.278 180.607 76.377 173.164 76.2537 172.946C76.2564 173.164 72.9801 180.185 77.066 189.664C80.1493 197.055 87.6884 202.857 91.1846 205.178C92.5465 206.894 93.9997 208.594 95.5493 210.273C86.5758 207.052 78.4441 202.935 71.1596 198.081C69.9505 195.653 68.8754 193.222 67.9316 190.794C68.307 188.221 68.803 182.097 67.3364 174.867C65.3605 165.391 61.8161 156.922 61.7705 156.721C61.7142 156.911 56.7408 162.844 57.8776 172.785C58.6846 180.505 63.8457 187.668 66.3337 190.644C67.0603 192.57 67.8646 194.498 68.7547 196.427C61.6606 191.412 55.4084 185.688 50.0033 179.419C49.5636 176.838 49.2419 174.281 49.0274 171.756C50.0972 169.398 52.2608 163.696 52.8158 156.468C53.5021 146.901 52.1938 137.865 52.2206 137.806C52.3144 137.833 45.8852 142.329 44.3624 152.257C43.1425 159.823 46.0514 167.835 47.5689 171.243C47.719 173.244 47.9362 175.264 48.2231 177.3C43.0057 170.91 38.6356 163.999 35.1073 156.731C35.362 154.164 35.7132 151.641 36.1556 149.173C37.7857 147.169 41.3193 142.233 43.6545 135.426C46.6949 126.41 47.5635 117.369 47.6011 117.315C47.6815 117.361 40.397 120.152 36.5202 129.343C33.5201 136.332 34.2949 144.701 34.8901 148.33C34.5228 150.282 34.2118 152.27 33.9598 154.287C30.6219 146.944 28.1285 139.265 26.4823 131.419C27.351 129.007 28.3001 126.665 29.3189 124.393C31.3806 122.856 35.9867 118.951 39.8555 112.94C44.9281 104.965 47.8665 96.3917 47.9201 96.3488C47.9872 96.4105 40.263 97.3506 34.3566 105.314C29.8202 111.358 28.5869 119.622 28.2974 123.27C27.4743 125.067 26.6941 126.907 25.9648 128.789C24.5063 120.909 23.8924 112.883 24.1256 104.879C25.5332 102.755 26.9997 100.713 28.5199 98.758C30.8792 97.7696 36.2628 95.1025 41.4212 90.2033C48.2016 83.6846 53.108 76.0323 53.175 76.0028C53.2286 76.078 45.4857 75.1164 37.8688 81.4364C32.0402 86.2201 28.9194 93.9475 27.788 97.4178C26.5708 98.9595 25.3857 100.558 24.2356 102.204C24.6565 94.2081 25.9246 86.255 28.0346 78.5115C29.9007 76.7844 31.8096 75.154 33.7507 73.615C36.2762 73.2282 42.1397 71.9417 48.3437 68.4097C56.5103 63.6958 63.2773 57.3893 63.3577 57.3758C63.3979 57.4618 56.0545 54.6415 47.0515 58.9713C40.1745 62.2347 35.2842 69.0194 33.3566 72.1297C31.8069 73.3383 30.276 74.6034 28.7692 75.9303C31.0696 68.2377 34.2172 60.7762 38.2066 53.7176C40.456 52.4847 42.7269 51.3513 45.0112 50.3172C47.5716 50.5536 53.6147 50.7201 60.6257 48.7647C69.8566 46.1271 78.3798 41.5718 78.4736 41.5798C78.5004 41.6738 71.9747 37.1319 61.9073 39.1974C54.2233 40.7338 47.6869 46.1943 45.0058 48.7701C43.1827 49.5759 41.3703 50.4434 39.5713 51.3728C42.751 46.0734 46.4187 41.0158 50.5744 36.2751C50.6387 36.2026 50.7031 36.1301 50.7674 36.0576C51.0972 35.6842 51.4297 35.3135 51.7648 34.9429C51.8211 34.8811 51.8774 34.8193 51.9364 34.7576C52.2876 34.3708 52.6442 33.9867 53.0008 33.6053C53.0034 33.6026 53.0034 33.6026 53.0061 33.5999C53.4002 33.1809 53.7997 32.7646 54.2019 32.3483C55.0518 31.4727 55.9204 30.6105 56.8079 29.7617C60.1673 28.0266 67.9263 23.8983 76.6129 18.6581C88.0289 11.5833 98.705 4.39842 98.7854 4.3447C98.9489 4.32859 85.2004 4.36619 72.5377 12.1285C62.9851 17.949 57.8857 25.5743 55.9607 28.9344C55.0732 29.7859 54.2046 30.6481 53.352 31.5237C53.3493 31.5237 53.3493 31.521 53.3466 31.521C49.0489 35.9394 45.2069 40.6747 41.818 45.6544C41.9333 43.5594 42.1156 41.4402 42.3757 39.3049C44.1559 35.7084 48.1346 27.5404 51.2607 19.2355C55.3601 8.12113 54.8802 0.0203478 54.7542 0.00154625C54.6818 -0.148866 43.0486 10.6969 40.0673 22.6306C37.7481 31.4915 39.7536 37.5214 40.8475 39.9763C40.5526 42.6676 40.3702 45.3267 40.2978 47.9509C35.8446 54.8806 32.2466 62.2562 29.5039 69.9084C29.0856 67.8725 28.7237 65.8016 28.4261 63.6985C29.2116 59.8361 30.9061 51.08 31.5978 42.4501C32.4477 30.9167 29.6808 23.3558 29.5682 23.3611C29.4824 23.2295 21.6135 36.208 21.8816 48.3081C21.9969 57.3167 25.4581 62.6161 27.1311 64.7057C27.5333 67.3514 28.032 69.9433 28.6191 72.4762C26.0667 80.1875 24.3696 88.154 23.5251 96.2064C22.6376 94.3451 21.7931 92.4353 20.9995 90.48C20.8333 86.5693 20.3641 77.7245 18.8627 69.2826C16.7849 58.0204 12.1493 51.4587 12.0501 51.4909C11.9509 51.3781 7.7443 65.6619 10.9375 77.2437C13.2485 85.8817 17.868 90.155 19.9834 91.7666C21.0049 94.2188 22.1041 96.5985 23.2731 98.9058C22.6189 106.974 22.8226 115.11 23.879 123.138C22.5813 121.546 21.3186 119.896 20.0906 118.193C19.0182 114.439 16.5034 105.978 13.0501 98.1886C8.36362 87.8155 2.27491 82.6263 2.18912 82.6773C2.07652 82.5887 1.42502 97.3721 7.22417 107.815C11.4871 115.62 16.9672 118.642 19.3989 119.69C20.962 121.822 22.584 123.866 24.257 125.822C25.5037 133.823 27.6057 141.701 30.5602 149.281C28.9167 148.042 27.2947 146.742 25.6967 145.378C23.7637 141.977 19.3212 134.344 14.1601 127.618C7.19736 118.68 0.076437 115.14 0.00404812 115.209C-0.121962 115.148 2.67708 129.646 10.7578 138.405C16.7312 144.964 22.7771 146.576 25.3884 147.006C27.4153 148.703 29.4824 150.304 31.579 151.805C34.7266 159.318 38.7267 166.513 43.5822 173.22C41.6545 172.406 39.7348 171.525 37.8286 170.58C35.0778 167.719 28.8309 161.33 22.2033 156.022C13.2834 148.99 5.54582 147.285 5.48952 147.368C5.3501 147.336 11.4951 160.792 21.533 167.394C28.9757 172.355 35.2869 172.465 37.9465 172.251C40.3595 173.422 42.7912 174.485 45.2364 175.447C50.2822 182.044 56.1832 188.133 62.9395 193.545C60.7893 193.212 58.6337 192.811 56.4808 192.344C52.9579 190.201 45.0246 185.447 37.1717 181.858C26.6137 177.136 18.6831 177.354 18.6402 177.448C18.4873 177.448 27.8738 189.126 39.5471 193.169C48.215 196.231 54.4995 194.81 57.0733 193.956C59.7946 194.52 62.5132 194.976 65.2291 195.331C72.1758 200.59 79.975 205.148 88.6295 208.838C86.3184 209.029 83.9939 209.155 81.656 209.214C77.4065 207.957 67.9048 205.202 59.0707 203.574C47.2016 201.492 39.4908 203.63 39.4614 203.732C39.2951 203.77 51.8184 212.956 64.8055 214.111C74.4574 215.027 80.4174 212.115 82.774 210.654C85.7232 210.552 88.6536 210.345 91.5572 210.039C93.7986 210.925 96.0909 211.755 98.4422 212.524C98.5655 212.148 98.6862 211.771 98.8095 211.395C98.7318 211.371 98.654 211.342 98.5763 211.318C96.5279 209.223 94.6244 207.093 92.8683 204.936Z" fill="url(#paint0_linear_4376_14717)"/>
<path d="M327.53 156.024C320.823 161.332 314.501 167.719 311.718 170.582C309.789 171.528 307.846 172.409 305.895 173.222C310.809 166.513 314.86 159.32 318.042 151.807C320.164 150.306 322.256 148.705 324.307 147.007C326.95 146.578 333.068 144.966 339.113 138.407C347.291 129.648 350.123 115.149 349.996 115.211C349.923 115.144 342.716 118.681 335.67 127.62C330.447 134.346 325.951 141.979 323.995 145.38C322.378 146.744 320.736 148.044 319.073 149.282C322.063 141.703 324.19 133.825 325.452 125.823C327.145 123.868 328.784 121.824 330.368 119.691C332.827 118.644 338.375 115.622 342.689 107.816C348.558 97.3733 347.899 82.5897 347.785 82.6784C347.698 82.6273 341.536 87.8166 336.799 98.1899C333.304 105.979 330.759 114.44 329.674 118.195C328.431 119.898 327.153 121.547 325.84 123.14C326.909 115.111 327.113 106.976 326.453 98.907C327.636 96.6024 328.749 94.2227 329.782 91.7677C331.926 90.1561 336.601 85.8854 338.937 77.2447C342.168 65.6628 337.911 51.3788 337.811 51.4916C337.71 51.462 333.019 58.0212 330.917 69.2835C329.397 77.7255 328.922 86.5704 328.754 90.4811C327.951 92.4365 327.096 94.3462 326.198 96.2076C325.344 88.1551 323.626 80.1885 321.043 72.4771C321.637 69.9442 322.142 67.3522 322.549 64.7066C324.239 62.6169 327.742 57.3175 327.861 48.3087C328.133 36.2057 320.169 23.2271 320.083 23.3614C319.969 23.3534 317.169 30.9171 318.029 42.4506C318.731 51.0833 320.446 59.8369 321.238 63.6993C320.935 65.8024 320.571 67.8733 320.148 69.9093C317.372 62.257 313.731 54.8813 309.224 47.9515C309.151 45.3273 308.967 42.6682 308.668 39.9768C309.772 37.5219 311.805 31.4892 309.458 22.6308C306.441 10.6971 294.665 -0.148868 294.595 0.00154627C294.467 0.0203481 293.981 8.12123 298.13 19.2358C301.296 27.5381 305.32 35.7088 307.122 39.3053C307.382 41.4407 307.569 43.5599 307.686 45.655C304.256 40.6725 300.371 35.9371 296.019 31.5214C296.016 31.5214 296.016 31.5241 296.014 31.5241C295.151 30.6485 294.272 29.7863 293.374 28.9348C291.426 25.5747 286.265 17.9465 276.598 12.1287C263.786 4.36893 249.872 4.32864 250.035 4.34476C250.117 4.39848 260.921 11.5834 272.474 18.6583C281.264 23.8959 289.117 28.027 292.516 29.7621C293.414 30.6109 294.293 31.4731 295.153 32.3487C295.56 32.7623 295.965 33.1786 296.364 33.6003C296.366 33.603 296.366 33.603 296.369 33.6057C296.733 33.9871 297.091 34.3712 297.446 34.758C297.503 34.8198 297.56 34.8815 297.62 34.9433C297.959 35.314 298.295 35.6847 298.629 36.058C298.694 36.1305 298.759 36.203 298.824 36.2756C303.03 41.0163 306.744 46.074 309.96 51.3734C308.136 50.4441 306.302 49.5738 304.46 48.7707C301.747 46.1949 295.132 40.7343 287.356 39.1979C277.17 37.1324 270.564 41.6744 270.591 41.5804C270.686 41.575 279.311 46.1304 288.653 48.7653C295.748 50.718 301.863 50.5542 304.454 50.3178C306.769 51.3519 309.064 52.4854 311.341 53.7183C315.381 60.7797 318.563 68.2386 320.891 75.9312C319.366 74.6044 317.82 73.3393 316.249 72.1306C314.298 69.0202 309.352 62.2382 302.39 58.972C293.279 54.6422 285.847 57.4625 285.888 57.3765C285.969 57.39 292.817 63.6966 301.082 68.4105C307.363 71.9426 313.294 73.2291 315.85 73.6159C317.814 75.1523 319.746 76.7854 321.635 78.5124C323.773 86.2534 325.053 94.2066 325.479 102.205C324.315 100.556 323.116 98.9607 321.884 97.419C320.739 93.9487 317.581 86.2212 311.682 81.4375C303.974 75.1174 296.138 76.079 296.193 76.0037C296.26 76.0333 301.226 83.6856 308.087 90.2045C313.308 95.1064 318.756 97.7735 321.143 98.7593C322.682 100.715 324.166 102.759 325.59 104.881C325.826 112.885 325.205 120.91 323.729 128.791C322.988 126.908 322.202 125.068 321.369 123.271C321.073 119.624 319.828 111.362 315.237 105.316C309.26 97.3518 301.443 96.4117 301.511 96.35C301.565 96.3929 304.539 104.967 309.672 112.941C313.587 118.952 318.248 122.858 320.335 124.394C321.366 126.667 322.326 129.011 323.206 131.421C321.54 139.266 319.016 146.946 315.638 154.289C315.383 152.272 315.069 150.284 314.697 148.332C315.296 144.703 316.081 136.333 313.047 129.344C309.124 120.153 301.752 117.362 301.833 117.317C301.874 117.37 302.753 126.411 305.827 135.428C308.191 142.232 311.764 147.171 313.416 149.175C313.864 151.643 314.219 154.165 314.477 156.733C310.909 164.001 306.484 170.912 301.204 177.302C301.494 175.266 301.714 173.247 301.866 171.246C303.404 167.837 306.346 159.825 305.111 152.258C303.57 142.331 297.064 137.835 297.159 137.808C297.183 137.867 295.862 146.905 296.556 156.47C297.121 163.698 299.307 169.398 300.39 171.759C300.176 174.283 299.847 176.84 299.402 179.422C293.933 185.691 287.608 191.417 280.426 196.429C281.324 194.501 282.141 192.572 282.873 190.646C285.391 187.67 290.614 180.504 291.431 172.787C292.581 162.847 287.548 156.913 287.491 156.723C287.443 156.924 283.856 165.396 281.859 174.869C280.377 182.1 280.877 188.224 281.256 190.797C280.299 193.225 279.213 195.656 277.99 198.084C270.618 202.937 262.391 207.055 253.307 210.275C254.873 208.597 256.344 206.896 257.725 205.18C261.265 202.859 268.895 197.058 272.012 189.666C276.145 180.187 272.832 173.166 272.834 172.948C272.71 173.166 266.738 180.609 261.74 189.427C257.966 196.182 256.474 202.32 256.021 204.938C254.243 207.095 252.317 209.228 250.236 211.32C250.157 211.347 250.079 211.374 250 211.398C250.014 211.438 250.027 211.479 250.041 211.516C250.152 211.852 250.263 212.188 250.374 212.524C252.754 211.755 255.074 210.923 257.342 210.039C260.28 210.345 263.246 210.552 266.233 210.654C268.621 212.115 274.652 215.027 284.417 214.111C297.56 212.956 310.234 203.767 310.065 203.732C310.036 203.63 302.232 201.492 290.221 203.574C281.281 205.199 271.665 207.957 267.365 209.214C264.999 209.155 262.646 209.029 260.308 208.838C269.066 205.148 276.959 200.587 283.989 195.331C286.734 194.976 289.488 194.519 292.242 193.955C294.85 194.81 301.209 196.23 309.979 193.168C321.792 189.126 331.294 177.447 331.136 177.447C331.093 177.353 323.064 177.136 312.382 181.858C304.435 185.446 296.407 190.2 292.842 192.344C290.663 192.811 288.484 193.211 286.306 193.544C293.143 188.132 299.115 182.043 304.221 175.446C306.696 174.485 309.156 173.419 311.598 172.25C314.29 172.465 320.68 172.358 328.209 167.394C338.367 160.792 344.586 147.335 344.445 147.367C344.388 147.287 336.56 148.995 327.53 156.024Z" fill="url(#paint1_linear_4376_14717)"/>
<g clip-path="url(#clip0_4376_14717)">
<path d="M207.191 107.91L236.203 179.001L204.841 175.183L189.929 194.001L188.663 195.637L185.138 200.001L156.217 129.001L207.191 107.91Z" fill="#003C4F"/>
<path d="M145.19 107.91L116.178 179.001L147.54 175.183L162.453 194.001L163.718 195.637L167.243 200.001L196.165 129.001L145.19 107.91Z" fill="#003C4F"/>
<path d="M252.381 120.818V51.1818C252.381 45.3636 249.308 40 244.247 37.0909L184.325 2.18182C179.263 -0.727273 173.118 -0.727273 168.056 2.18182L108.134 37C103.073 39.9091 100 45.2727 100 51.0909V120.727C100 126.545 103.073 131.909 108.134 134.818L168.147 169.636C173.208 172.545 179.354 172.545 184.415 169.636L244.427 134.818C249.308 132 252.381 126.636 252.381 120.818Z" fill="#E8F1F3"/>
<path d="M239.366 114.821V57.0934C239.366 52.2752 236.835 47.8207 232.678 45.3661L182.969 16.5479C178.811 14.0934 173.66 14.0934 169.502 16.5479L119.793 45.3661C115.636 47.8207 113.105 52.2752 113.105 57.0934V114.821C113.105 119.639 115.636 124.093 119.793 126.548L169.502 155.366C173.66 157.821 178.811 157.821 182.969 155.366L232.678 126.548C236.745 124.093 239.366 119.639 239.366 114.821Z" fill="#AECBD3"/>
<path d="M231.948 111.547V60.4556C231.948 56.1829 229.689 52.2738 225.983 50.092L182.058 24.5465C178.353 22.3647 173.834 22.3647 170.128 24.5465L126.203 50.092C122.498 52.2738 120.238 56.1829 120.238 60.4556V111.547C120.238 115.819 122.498 119.728 126.203 121.91L170.128 147.456C173.834 149.637 178.353 149.637 182.058 147.456L225.983 121.91C229.689 119.728 231.948 115.819 231.948 111.547Z" fill="white"/>
<path d="M176.19 37.0898L177.817 40.2717L181.342 40.8171L178.721 43.3626L179.354 46.8171L176.19 45.1808L173.027 46.8171L173.66 43.3626L171.129 40.8171L174.654 40.2717L176.19 37.0898Z" fill="#FF6B00"/>
<path d="M191.826 40.2695L192.911 42.4514L195.26 42.815L193.543 44.4514L193.995 46.815L191.826 45.7241L189.747 46.815L190.199 44.4514L188.482 42.815L190.832 42.4514L191.826 40.2695Z" fill="#FF6B00"/>
<path d="M160.555 40.2695L159.47 42.4514L157.12 42.815L158.837 44.4514L158.385 46.815L160.555 45.7241L162.633 46.815L162.272 44.4514L163.989 42.815L161.549 42.4514L160.555 40.2695Z" fill="#FF6B00"/>
<rect x="120.238" y="88.0977" width="111.905" height="23.8095" fill="#1AE3E3"/>
<path d="M159.583 104.859L157.64 95.0022H158.94L160.526 103.731H160.926L162.855 95.0737H164.312L166.24 103.731H166.64L168.226 95.0022H169.526L167.569 104.859H165.369L163.483 96.1308H163.669L161.783 104.859H159.583ZM170.921 104.859V97.7165H172.121V104.859H170.921ZM170.921 96.2022V94.8737H172.121V96.2022H170.921ZM174.116 104.859V97.7165H175.316V98.2022C175.478 98.107 175.678 98.0118 175.916 97.9165C176.164 97.8213 176.421 97.7403 176.687 97.6737C176.964 97.607 177.226 97.5737 177.473 97.5737C178.13 97.5737 178.635 97.6927 178.987 97.9308C179.34 98.1594 179.583 98.5308 179.716 99.0451C179.849 99.5594 179.916 100.24 179.916 101.088V104.859H178.702V101.131C178.702 100.531 178.664 100.05 178.587 99.6879C178.521 99.326 178.383 99.0641 178.173 98.9022C177.973 98.7403 177.659 98.6594 177.23 98.6594C177.002 98.6594 176.764 98.6879 176.516 98.7451C176.278 98.7927 176.054 98.8546 175.845 98.9308C175.635 99.007 175.459 99.0832 175.316 99.1594V104.859H174.116ZM184.188 105.017C183.693 105.017 183.298 104.94 183.002 104.788C182.707 104.636 182.493 104.374 182.359 104.002C182.236 103.621 182.174 103.088 182.174 102.402V98.7594H181.188V97.7165H182.174V95.5737H183.388V97.7165H185.574V98.7594H183.388V102.059C183.388 102.545 183.407 102.926 183.445 103.202C183.493 103.469 183.583 103.659 183.717 103.774C183.859 103.878 184.078 103.931 184.374 103.931C184.469 103.931 184.588 103.926 184.731 103.917C184.883 103.907 185.036 103.897 185.188 103.888C185.35 103.869 185.488 103.855 185.602 103.845L185.674 104.859C185.464 104.888 185.212 104.921 184.917 104.959C184.631 104.997 184.388 105.017 184.188 105.017ZM189.425 105.002C188.701 105.002 188.129 104.864 187.71 104.588C187.291 104.312 186.986 103.902 186.796 103.359C186.615 102.817 186.525 102.14 186.525 101.331C186.525 100.436 186.648 99.7118 186.896 99.1594C187.144 98.607 187.491 98.207 187.939 97.9594C188.396 97.7022 188.939 97.5737 189.567 97.5737C190.539 97.5737 191.267 97.8403 191.753 98.3737C192.248 98.8975 192.496 99.7403 192.496 100.902L192.439 101.788H187.767C187.777 102.493 187.91 103.031 188.167 103.402C188.425 103.764 188.891 103.945 189.567 103.945C189.834 103.945 190.129 103.94 190.453 103.931C190.777 103.912 191.096 103.893 191.41 103.874C191.734 103.855 192.006 103.836 192.225 103.817L192.253 104.759C192.025 104.797 191.744 104.836 191.41 104.874C191.077 104.912 190.734 104.94 190.382 104.959C190.039 104.988 189.72 105.002 189.425 105.002ZM187.767 100.831H191.267C191.267 99.9927 191.134 99.407 190.867 99.0737C190.601 98.7308 190.167 98.5594 189.567 98.5594C188.987 98.5594 188.539 98.7356 188.225 99.0879C187.92 99.4403 187.767 100.021 187.767 100.831ZM194.094 104.859V97.7165H195.294V98.6594C195.475 98.5356 195.698 98.4022 195.965 98.2594C196.241 98.107 196.541 97.9641 196.865 97.8308C197.189 97.6975 197.513 97.607 197.837 97.5594V98.7737C197.522 98.8403 197.203 98.926 196.879 99.0308C196.556 99.1356 196.256 99.2499 195.979 99.3737C195.703 99.4975 195.475 99.607 195.294 99.7022V104.859H194.094Z" fill="black"/>
<path d="M162.872 129.859V128.317L165.029 126.102C165.438 125.683 165.791 125.317 166.086 125.002C166.381 124.678 166.605 124.374 166.757 124.088C166.919 123.802 167 123.497 167 123.174C167 122.697 166.867 122.378 166.6 122.217C166.333 122.045 165.905 121.959 165.314 121.959C165.076 121.959 164.814 121.974 164.529 122.002C164.243 122.031 163.967 122.064 163.7 122.102C163.443 122.14 163.219 122.178 163.029 122.217L162.929 120.702C163.138 120.645 163.395 120.583 163.7 120.517C164.014 120.45 164.352 120.393 164.714 120.345C165.086 120.288 165.448 120.259 165.8 120.259C166.829 120.259 167.614 120.478 168.157 120.917C168.7 121.345 168.972 122.012 168.972 122.917C168.972 123.412 168.9 123.85 168.757 124.231C168.624 124.612 168.41 124.978 168.114 125.331C167.829 125.674 167.448 126.05 166.972 126.459L165.086 128.259H169.1V129.859H162.872ZM173.938 130.017C173.329 130.017 172.8 129.936 172.352 129.774C171.905 129.602 171.533 129.331 171.238 128.959C170.952 128.578 170.733 128.083 170.581 127.474C170.438 126.864 170.367 126.117 170.367 125.231C170.367 124.317 170.438 123.54 170.581 122.902C170.733 122.264 170.957 121.755 171.252 121.374C171.548 120.983 171.914 120.702 172.352 120.531C172.8 120.359 173.324 120.274 173.924 120.274C174.543 120.274 175.076 120.359 175.524 120.531C175.971 120.702 176.338 120.983 176.624 121.374C176.919 121.755 177.133 122.264 177.267 122.902C177.41 123.531 177.481 124.307 177.481 125.231C177.481 126.402 177.352 127.34 177.095 128.045C176.848 128.74 176.462 129.245 175.938 129.559C175.414 129.864 174.748 130.017 173.938 130.017ZM173.938 128.359C174.205 128.359 174.433 128.317 174.624 128.231C174.824 128.136 174.991 127.974 175.124 127.745C175.257 127.517 175.352 127.197 175.41 126.788C175.476 126.378 175.51 125.859 175.51 125.231C175.51 124.564 175.476 124.017 175.41 123.588C175.352 123.159 175.262 122.826 175.138 122.588C175.014 122.34 174.852 122.169 174.652 122.074C174.452 121.969 174.214 121.917 173.938 121.917C173.662 121.917 173.424 121.969 173.224 122.074C173.024 122.169 172.857 122.336 172.724 122.574C172.6 122.812 172.505 123.15 172.438 123.588C172.371 124.017 172.338 124.569 172.338 125.245C172.338 125.874 172.371 126.393 172.438 126.802C172.514 127.212 172.619 127.531 172.752 127.759C172.886 127.978 173.048 128.136 173.238 128.231C173.438 128.317 173.671 128.359 173.938 128.359ZM178.748 129.859V128.317L180.905 126.102C181.314 125.683 181.667 125.317 181.962 125.002C182.257 124.678 182.481 124.374 182.633 124.088C182.795 123.802 182.876 123.497 182.876 123.174C182.876 122.697 182.743 122.378 182.476 122.217C182.21 122.045 181.781 121.959 181.19 121.959C180.952 121.959 180.69 121.974 180.405 122.002C180.119 122.031 179.843 122.064 179.576 122.102C179.319 122.14 179.095 122.178 178.905 122.217L178.805 120.702C179.014 120.645 179.271 120.583 179.576 120.517C179.89 120.45 180.229 120.393 180.59 120.345C180.962 120.288 181.324 120.259 181.676 120.259C182.705 120.259 183.49 120.478 184.033 120.917C184.576 121.345 184.848 122.012 184.848 122.917C184.848 123.412 184.776 123.85 184.633 124.231C184.5 124.612 184.286 124.978 183.99 125.331C183.705 125.674 183.324 126.05 182.848 126.459L180.962 128.259H184.976V129.859H178.748ZM189.657 130.017C189.305 130.017 188.933 129.997 188.543 129.959C188.162 129.921 187.795 129.874 187.443 129.817C187.1 129.75 186.814 129.693 186.586 129.645L186.671 128.117C186.9 128.145 187.171 128.178 187.486 128.217C187.81 128.255 188.138 128.288 188.471 128.317C188.814 128.336 189.129 128.345 189.414 128.345C189.957 128.345 190.362 128.245 190.629 128.045C190.895 127.845 191.029 127.521 191.029 127.074C191.029 126.769 190.967 126.531 190.843 126.359C190.729 126.178 190.557 126.045 190.329 125.959C190.11 125.874 189.852 125.826 189.557 125.817H187.614V124.245H189.514C189.733 124.245 189.943 124.197 190.143 124.102C190.352 124.007 190.519 123.869 190.643 123.688C190.776 123.507 190.843 123.288 190.843 123.031C190.843 122.631 190.719 122.35 190.471 122.188C190.233 122.017 189.843 121.931 189.3 121.931C189.014 121.931 188.714 121.945 188.4 121.974C188.086 122.002 187.786 122.036 187.5 122.074C187.214 122.102 186.976 122.136 186.786 122.174L186.7 120.674C186.91 120.617 187.167 120.559 187.471 120.502C187.776 120.436 188.1 120.383 188.443 120.345C188.786 120.297 189.11 120.274 189.414 120.274C190.224 120.274 190.876 120.359 191.371 120.531C191.876 120.693 192.243 120.964 192.471 121.345C192.7 121.717 192.814 122.207 192.814 122.817C192.814 123.15 192.771 123.431 192.686 123.659C192.61 123.888 192.505 124.083 192.371 124.245C192.248 124.407 192.119 124.54 191.986 124.645C191.852 124.74 191.729 124.826 191.614 124.902C191.9 125.036 192.148 125.183 192.357 125.345C192.567 125.507 192.729 125.721 192.843 125.988C192.957 126.255 193.014 126.612 193.014 127.059C193.014 127.774 192.89 128.35 192.643 128.788C192.395 129.217 192.024 129.531 191.529 129.731C191.033 129.921 190.41 130.017 189.657 130.017Z" fill="#000E23"/>
<path d="M133.272 75.0977V65.3405H139.758V66.9834H135.244V69.3548H138.901V70.9691H135.244V73.4548H139.758V75.0977H133.272ZM142.898 75.2548C142.155 75.2548 141.593 75.0691 141.212 74.6977C140.84 74.3167 140.655 73.7453 140.655 72.9834C140.655 72.45 140.75 72.0358 140.94 71.7405C141.131 71.4358 141.412 71.2167 141.783 71.0834C142.164 70.9405 142.626 70.8548 143.169 70.8262L144.912 70.6691V70.2405C144.912 69.8977 144.826 69.6596 144.655 69.5262C144.483 69.3834 144.231 69.3119 143.898 69.3119C143.631 69.3119 143.321 69.3215 142.969 69.3405C142.626 69.3596 142.283 69.3834 141.94 69.4119C141.607 69.4405 141.317 69.4691 141.069 69.4977L141.012 68.1548C141.259 68.0977 141.555 68.0405 141.898 67.9834C142.25 67.9167 142.617 67.8643 142.998 67.8262C143.379 67.7881 143.731 67.7691 144.055 67.7691C144.664 67.7691 145.174 67.8453 145.583 67.9977C145.993 68.15 146.302 68.4024 146.512 68.7548C146.721 69.0977 146.826 69.5643 146.826 70.1548V73.4262C146.845 73.5596 146.917 73.6643 147.04 73.7405C147.164 73.8072 147.307 73.8548 147.469 73.8834L147.426 75.1977C147.198 75.2072 146.974 75.2119 146.755 75.2119C146.536 75.2119 146.35 75.1977 146.198 75.1691C145.979 75.1405 145.788 75.0834 145.626 74.9977C145.474 74.9119 145.35 74.8215 145.255 74.7262C145.102 74.7929 144.898 74.8691 144.64 74.9548C144.383 75.0405 144.102 75.1119 143.798 75.1691C143.502 75.2262 143.202 75.2548 142.898 75.2548ZM143.355 73.8405C143.536 73.8405 143.726 73.8215 143.926 73.7834C144.126 73.7453 144.312 73.7024 144.483 73.6548C144.664 73.5977 144.807 73.5453 144.912 73.4977V71.8548L143.455 71.9834C143.14 72.0119 142.912 72.1072 142.769 72.2691C142.636 72.4215 142.569 72.6405 142.569 72.9262C142.569 73.2119 142.631 73.4358 142.755 73.5977C142.888 73.7596 143.088 73.8405 143.355 73.8405ZM151.09 75.2548C150.775 75.2548 150.437 75.2358 150.075 75.1977C149.723 75.1691 149.39 75.131 149.075 75.0834C148.771 75.0358 148.509 74.9881 148.29 74.9405L148.347 73.5262C148.594 73.5548 148.871 73.5881 149.175 73.6262C149.49 73.6643 149.794 73.6977 150.09 73.7262C150.394 73.7453 150.642 73.7548 150.832 73.7548C151.118 73.7548 151.351 73.731 151.532 73.6834C151.723 73.6358 151.866 73.5596 151.961 73.4548C152.056 73.3405 152.104 73.1786 152.104 72.9691C152.104 72.8072 152.061 72.6834 151.975 72.5977C151.899 72.5119 151.747 72.4405 151.518 72.3834C151.299 72.3167 150.975 72.25 150.547 72.1834C150.013 72.1072 149.571 71.9977 149.218 71.8548C148.875 71.7119 148.623 71.5024 148.461 71.2262C148.299 70.9405 148.218 70.5548 148.218 70.0691C148.218 69.4786 148.347 69.0167 148.604 68.6834C148.861 68.35 149.204 68.1167 149.632 67.9834C150.061 67.8405 150.528 67.7691 151.032 67.7691C151.366 67.7691 151.709 67.7881 152.061 67.8262C152.413 67.8548 152.747 67.8929 153.061 67.9405C153.375 67.9881 153.637 68.0358 153.847 68.0834L153.79 69.5262C153.551 69.4881 153.275 69.4548 152.961 69.4262C152.647 69.3881 152.332 69.3596 152.018 69.3405C151.713 69.3215 151.456 69.3119 151.247 69.3119C151.028 69.3119 150.832 69.3358 150.661 69.3834C150.49 69.4215 150.356 69.4881 150.261 69.5834C150.175 69.6786 150.132 69.8215 150.132 70.0119C150.132 70.1453 150.171 70.2548 150.247 70.3405C150.323 70.4262 150.466 70.5024 150.675 70.5691C150.894 70.6262 151.209 70.6834 151.618 70.7405C152.209 70.8262 152.68 70.9453 153.032 71.0977C153.385 71.25 153.637 71.4691 153.79 71.7548C153.951 72.0405 154.032 72.4262 154.032 72.9119C154.032 73.7786 153.775 74.3881 153.261 74.7405C152.756 75.0834 152.032 75.2548 151.09 75.2548ZM155.284 75.0977V67.9262H157.184V75.0977H155.284ZM155.284 66.7834V65.1548H157.198V66.7834H155.284ZM161.672 75.2548C160.881 75.2548 160.253 75.1215 159.786 74.8548C159.329 74.5881 159 74.1834 158.8 73.6405C158.6 73.0977 158.5 72.4167 158.5 71.5977C158.5 70.7119 158.624 69.9881 158.872 69.4262C159.129 68.8643 159.5 68.45 159.986 68.1834C160.472 67.9072 161.072 67.7691 161.786 67.7691C162.843 67.7691 163.638 68.0358 164.172 68.5691C164.715 69.1024 164.986 69.9453 164.986 71.0977L164.9 72.1548H160.415C160.424 72.6881 160.534 73.0881 160.743 73.3548C160.953 73.6215 161.315 73.7548 161.829 73.7548C162.124 73.7548 162.448 73.75 162.8 73.7405C163.153 73.7215 163.5 73.7024 163.843 73.6834C164.196 73.6643 164.496 73.6453 164.743 73.6262L164.786 74.9548C164.548 74.9929 164.248 75.0358 163.886 75.0834C163.524 75.131 163.148 75.1691 162.757 75.1977C162.376 75.2358 162.015 75.2548 161.672 75.2548ZM160.415 70.9405H163.086C163.086 70.2929 162.981 69.8405 162.772 69.5834C162.572 69.3262 162.243 69.1977 161.786 69.1977C161.338 69.1977 160.996 69.331 160.757 69.5977C160.529 69.8643 160.415 70.3119 160.415 70.9405ZM168.835 75.2548C168.521 75.2548 168.183 75.2358 167.821 75.1977C167.468 75.1691 167.135 75.131 166.821 75.0834C166.516 75.0358 166.254 74.9881 166.035 74.9405L166.092 73.5262C166.34 73.5548 166.616 73.5881 166.921 73.6262C167.235 73.6643 167.54 73.6977 167.835 73.7262C168.14 73.7453 168.387 73.7548 168.578 73.7548C168.864 73.7548 169.097 73.731 169.278 73.6834C169.468 73.6358 169.611 73.5596 169.707 73.4548C169.802 73.3405 169.849 73.1786 169.849 72.9691C169.849 72.8072 169.807 72.6834 169.721 72.5977C169.645 72.5119 169.492 72.4405 169.264 72.3834C169.045 72.3167 168.721 72.25 168.292 72.1834C167.759 72.1072 167.316 71.9977 166.964 71.8548C166.621 71.7119 166.368 71.5024 166.207 71.2262C166.045 70.9405 165.964 70.5548 165.964 70.0691C165.964 69.4786 166.092 69.0167 166.349 68.6834C166.607 68.35 166.949 68.1167 167.378 67.9834C167.807 67.8405 168.273 67.7691 168.778 67.7691C169.111 67.7691 169.454 67.7881 169.807 67.8262C170.159 67.8548 170.492 67.8929 170.807 67.9405C171.121 67.9881 171.383 68.0358 171.592 68.0834L171.535 69.5262C171.297 69.4881 171.021 69.4548 170.707 69.4262C170.392 69.3881 170.078 69.3596 169.764 69.3405C169.459 69.3215 169.202 69.3119 168.992 69.3119C168.773 69.3119 168.578 69.3358 168.407 69.3834C168.235 69.4215 168.102 69.4881 168.007 69.5834C167.921 69.6786 167.878 69.8215 167.878 70.0119C167.878 70.1453 167.916 70.2548 167.992 70.3405C168.068 70.4262 168.211 70.5024 168.421 70.5691C168.64 70.6262 168.954 70.6834 169.364 70.7405C169.954 70.8262 170.426 70.9453 170.778 71.0977C171.13 71.25 171.383 71.4691 171.535 71.7548C171.697 72.0405 171.778 72.4262 171.778 72.9119C171.778 73.7786 171.521 74.3881 171.007 74.7405C170.502 75.0834 169.778 75.2548 168.835 75.2548ZM175.544 75.2691C175.02 75.2691 174.596 75.1929 174.272 75.0405C173.949 74.8881 173.715 74.6262 173.572 74.2548C173.439 73.8738 173.372 73.3453 173.372 72.6691V69.5119H172.53V67.9262H173.372V66.0262H175.272V67.9262H177.101V69.5119H175.272V72.1691C175.272 72.5405 175.287 72.831 175.315 73.0405C175.353 73.25 175.43 73.3977 175.544 73.4834C175.658 73.5691 175.834 73.6119 176.072 73.6119C176.139 73.6119 176.239 73.6072 176.372 73.5977C176.506 73.5881 176.639 73.5786 176.772 73.5691C176.906 73.5596 177.015 73.55 177.101 73.5405L177.158 75.0691C176.93 75.1072 176.653 75.15 176.33 75.1977C176.015 75.2453 175.753 75.2691 175.544 75.2691ZM183.789 75.2691C183.265 75.2691 182.841 75.1929 182.517 75.0405C182.194 74.8881 181.96 74.6262 181.817 74.2548C181.684 73.8738 181.617 73.3453 181.617 72.6691V69.5119H180.774V67.9262H181.617V66.0262H183.517V67.9262H185.346V69.5119H183.517V72.1691C183.517 72.5405 183.532 72.831 183.56 73.0405C183.598 73.25 183.674 73.3977 183.789 73.4834C183.903 73.5691 184.079 73.6119 184.317 73.6119C184.384 73.6119 184.484 73.6072 184.617 73.5977C184.751 73.5881 184.884 73.5786 185.017 73.5691C185.151 73.5596 185.26 73.55 185.346 73.5405L185.403 75.0691C185.174 75.1072 184.898 75.15 184.574 75.1977C184.26 75.2453 183.998 75.2691 183.789 75.2691ZM189.494 75.2548C188.685 75.2548 188.032 75.1215 187.537 74.8548C187.051 74.5881 186.699 74.1786 186.48 73.6262C186.261 73.0643 186.151 72.3405 186.151 71.4548C186.151 70.5977 186.266 69.9024 186.494 69.3691C186.723 68.8262 187.085 68.4262 187.58 68.1691C188.075 67.9024 188.713 67.7691 189.494 67.7691C190.285 67.7691 190.923 67.9024 191.408 68.1691C191.904 68.4262 192.266 68.8262 192.494 69.3691C192.732 69.9024 192.851 70.5977 192.851 71.4548C192.851 72.3405 192.742 73.0643 192.523 73.6262C192.304 74.1786 191.947 74.5881 191.451 74.8548C190.966 75.1215 190.313 75.2548 189.494 75.2548ZM189.494 73.6834C189.894 73.6834 190.194 73.6119 190.394 73.4691C190.594 73.3167 190.727 73.0786 190.794 72.7548C190.87 72.4215 190.908 71.9881 190.908 71.4548C190.908 70.931 190.866 70.5167 190.78 70.2119C190.694 69.8977 190.551 69.6738 190.351 69.5405C190.151 69.4072 189.866 69.3405 189.494 69.3405C189.132 69.3405 188.847 69.4072 188.637 69.5405C188.437 69.6738 188.294 69.8977 188.208 70.2119C188.123 70.5167 188.08 70.931 188.08 71.4548C188.08 71.9881 188.113 72.4215 188.18 72.7548C188.256 73.0786 188.394 73.3167 188.594 73.4691C188.794 73.6119 189.094 73.6834 189.494 73.6834ZM201.048 75.2548C200.248 75.2548 199.567 75.15 199.005 74.9405C198.453 74.731 198.034 74.3834 197.748 73.8977C197.462 73.4024 197.319 72.7453 197.319 71.9262V65.3405H199.291V71.9977C199.291 72.5596 199.438 72.9643 199.734 73.2119C200.038 73.4596 200.476 73.5834 201.048 73.5834C201.648 73.5834 202.1 73.4596 202.405 73.2119C202.71 72.9643 202.862 72.5596 202.862 71.9977V65.3405H204.834V71.8977C204.834 72.7167 204.686 73.3738 204.391 73.8691C204.105 74.3643 203.681 74.7215 203.119 74.9405C202.567 75.15 201.876 75.2548 201.048 75.2548ZM209.028 75.2548C208.713 75.2548 208.375 75.2358 208.013 75.1977C207.661 75.1691 207.328 75.131 207.013 75.0834C206.709 75.0358 206.447 74.9881 206.228 74.9405L206.285 73.5262C206.532 73.5548 206.809 73.5881 207.113 73.6262C207.428 73.6643 207.732 73.6977 208.028 73.7262C208.332 73.7453 208.58 73.7548 208.77 73.7548C209.056 73.7548 209.29 73.731 209.47 73.6834C209.661 73.6358 209.804 73.5596 209.899 73.4548C209.994 73.3405 210.042 73.1786 210.042 72.9691C210.042 72.8072 209.999 72.6834 209.913 72.5977C209.837 72.5119 209.685 72.4405 209.456 72.3834C209.237 72.3167 208.913 72.25 208.485 72.1834C207.951 72.1072 207.509 71.9977 207.156 71.8548C206.813 71.7119 206.561 71.5024 206.399 71.2262C206.237 70.9405 206.156 70.5548 206.156 70.0691C206.156 69.4786 206.285 69.0167 206.542 68.6834C206.799 68.35 207.142 68.1167 207.57 67.9834C207.999 67.8405 208.466 67.7691 208.97 67.7691C209.304 67.7691 209.647 67.7881 209.999 67.8262C210.351 67.8548 210.685 67.8929 210.999 67.9405C211.313 67.9881 211.575 68.0358 211.785 68.0834L211.728 69.5262C211.49 69.4881 211.213 69.4548 210.899 69.4262C210.585 69.3881 210.27 69.3596 209.956 69.3405C209.651 69.3215 209.394 69.3119 209.185 69.3119C208.966 69.3119 208.77 69.3358 208.599 69.3834C208.428 69.4215 208.294 69.4881 208.199 69.5834C208.113 69.6786 208.07 69.8215 208.07 70.0119C208.07 70.1453 208.109 70.2548 208.185 70.3405C208.261 70.4262 208.404 70.5024 208.613 70.5691C208.832 70.6262 209.147 70.6834 209.556 70.7405C210.147 70.8262 210.618 70.9453 210.97 71.0977C211.323 71.25 211.575 71.4691 211.728 71.7548C211.89 72.0405 211.97 72.4262 211.97 72.9119C211.97 73.7786 211.713 74.3881 211.199 74.7405C210.694 75.0834 209.97 75.2548 209.028 75.2548ZM216.122 75.2548C215.332 75.2548 214.703 75.1215 214.236 74.8548C213.779 74.5881 213.451 74.1834 213.251 73.6405C213.051 73.0977 212.951 72.4167 212.951 71.5977C212.951 70.7119 213.074 69.9881 213.322 69.4262C213.579 68.8643 213.951 68.45 214.436 68.1834C214.922 67.9072 215.522 67.7691 216.236 67.7691C217.293 67.7691 218.089 68.0358 218.622 68.5691C219.165 69.1024 219.436 69.9453 219.436 71.0977L219.351 72.1548H214.865C214.874 72.6881 214.984 73.0881 215.193 73.3548C215.403 73.6215 215.765 73.7548 216.279 73.7548C216.574 73.7548 216.898 73.75 217.251 73.7405C217.603 73.7215 217.951 73.7024 218.293 73.6834C218.646 73.6643 218.946 73.6453 219.193 73.6262L219.236 74.9548C218.998 74.9929 218.698 75.0358 218.336 75.0834C217.974 75.131 217.598 75.1691 217.208 75.1977C216.827 75.2358 216.465 75.2548 216.122 75.2548ZM214.865 70.9405H217.536C217.536 70.2929 217.432 69.8405 217.222 69.5834C217.022 69.3262 216.693 69.1977 216.236 69.1977C215.789 69.1977 215.446 69.331 215.208 69.5977C214.979 69.8643 214.865 70.3119 214.865 70.9405Z" fill="black"/>
</g>
<defs>
<linearGradient id="paint0_linear_4376_14717" x1="49.4048" y1="0" x2="49.4048" y2="214.286" gradientUnits="userSpaceOnUse">
<stop stop-color="#AECBD3"/>
<stop offset="1" stop-color="#AECBD3" stop-opacity="0"/>
</linearGradient>
<linearGradient id="paint1_linear_4376_14717" x1="300" y1="0" x2="300" y2="214.286" gradientUnits="userSpaceOnUse">
<stop stop-color="#AECBD3"/>
<stop offset="1" stop-color="#AECBD3" stop-opacity="0"/>
</linearGradient>
<clipPath id="clip0_4376_14717">
<rect width="152.381" height="200" fill="white" transform="translate(100)"/>
</clipPath>
</defs>
</svg>
